<svg xmlns="http://www.w3.org/2000/svg" width="264.853" height="218.914" viewBox="0 0 264.853 218.914">
  <g id="Grupo_14738" data-name="Grupo 14738" transform="translate(-6737.859 -391.641)">
    <g id="Color" transform="translate(6737.859 391.641)">
      <g id="Grupo_14689" data-name="Grupo 14689" transform="translate(0 0)">
        <circle id="Elipse_761" data-name="Elipse 761" cx="21.192" cy="21.192" r="21.192" transform="translate(0 29.97) rotate(-45)" fill="#5ed45e"/>
      </g>
      <g id="Grupo_14690" data-name="Grupo 14690" transform="translate(192.547 9.97)">
        <path id="Trazado_25153" data-name="Trazado 25153" d="M7988.583,453h-60.121a5.477,5.477,0,0,0-5.58,5.414v41.467a5.636,5.636,0,0,0,5.58,5.6h18.576l11.484,13,10.559-13h19.5a5.54,5.54,0,0,0,5.467-5.6V458.414A5.38,5.38,0,0,0,7988.583,453Zm-10.538,24.052c-1.342,6.7-9.6,11.857-19.508,19.819h-.029c-9.9-7.962-18.166-13.131-19.508-19.835-1.353-6.76,2.106-14.091,10.311-14.817,2.757-.244,6.307,1.18,9.2,5.079h.029c2.89-3.9,6.44-5.359,9.2-5.115C7975.939,462.91,7979.4,470.292,7978.045,477.052Z" transform="translate(-7922.882 -453)" fill="#fcd118"/>
      </g>
    </g>
    <g id="VIDEO" transform="translate(6745.581 399.363)">
      <g id="Grupo_14706" data-name="Grupo 14706" transform="translate(52.459 77.483)">
        <g id="Grupo_14699" data-name="Grupo 14699">
          <g id="Grupo_14697" data-name="Grupo 14697" transform="translate(0.023 89.524)">
            <g id="Grupo_14696" data-name="Grupo 14696">
              <g id="Grupo_14691" data-name="Grupo 14691">
                <path id="Trazado_25154" data-name="Trazado 25154" d="M7259.574,1469.112H7109.439a1.056,1.056,0,0,1,0-2.112h150.135a1.056,1.056,0,0,1,0,2.112Z" transform="translate(-7108.383 -1467)" fill="#1e243a"/>
              </g>
              <g id="Grupo_14692" data-name="Grupo 14692" transform="translate(57.763 14.38)">
                <path id="Trazado_25155" data-name="Trazado 25155" d="M7464.938,1581.01a1.056,1.056,0,0,1-1.056-1.056v-23.4a1.056,1.056,0,0,1,2.112,0v23.4A1.056,1.056,0,0,1,7464.938,1581.01Z" transform="translate(-7463.882 -1555.5)" fill="#1e243a"/>
              </g>
              <g id="Grupo_14693" data-name="Grupo 14693" transform="translate(92.534 14.38)">
                <path id="Trazado_25156" data-name="Trazado 25156" d="M7678.938,1581.01a1.056,1.056,0,0,1-1.056-1.056v-23.4a1.056,1.056,0,1,1,2.112,0v23.4A1.056,1.056,0,0,1,7678.938,1581.01Z" transform="translate(-7677.882 -1555.5)" fill="#1e243a"/>
              </g>
              <g id="Grupo_14694" data-name="Grupo 14694" transform="translate(42.571 38.346)">
                <path id="Trazado_25157" data-name="Trazado 25157" d="M7436.595,1705.112h-65.156a1.056,1.056,0,1,1,0-2.112h65.156a1.056,1.056,0,1,1,0,2.112Z" transform="translate(-7370.383 -1703)" fill="#1e243a"/>
              </g>
              <g id="Grupo_14695" data-name="Grupo 14695" transform="translate(72.69 4.597)">
                <path id="Trazado_25158" data-name="Trazado 25158" d="M7559.139,1502.064a3.386,3.386,0,1,1,3.386-3.386A3.39,3.39,0,0,1,7559.139,1502.064Zm0-4.66a1.274,1.274,0,1,0,1.274,1.274A1.275,1.275,0,0,0,7559.139,1497.4Z" transform="translate(-7555.753 -1495.292)" fill="#1e243a"/>
              </g>
            </g>
          </g>
          <g id="Grupo_14698" data-name="Grupo 14698">
            <path id="Trazado_25159" data-name="Trazado 25159" d="M7253.559,1021.587H7115.211a6.979,6.979,0,0,1-6.971-6.971V923a6.979,6.979,0,0,1,6.971-6.971h138.348A6.979,6.979,0,0,1,7260.53,923v91.615A6.979,6.979,0,0,1,7253.559,1021.587ZM7115.211,918.141a4.864,4.864,0,0,0-4.858,4.859v91.615a4.864,4.864,0,0,0,4.858,4.859h138.348a4.864,4.864,0,0,0,4.859-4.859V923a4.864,4.864,0,0,0-4.859-4.859Z" transform="translate(-7108.24 -916.029)" fill="#1e243a"/>
          </g>
        </g>
        <g id="Grupo_14705" data-name="Grupo 14705" transform="translate(31.38 14.251)">
          <g id="Grupo_14701" data-name="Grupo 14701">
            <g id="Grupo_14700" data-name="Grupo 14700">
              <path id="Trazado_25160" data-name="Trazado 25160" d="M7389.841,1067.027h-87.417a1.056,1.056,0,0,1-1.056-1.056v-61.18a1.056,1.056,0,0,1,1.056-1.056h87.417a1.056,1.056,0,0,1,1.056,1.056v61.18A1.056,1.056,0,0,1,7389.841,1067.027Zm-86.361-2.112h85.305v-59.068h-85.305Z" transform="translate(-7301.367 -1003.735)" fill="#1e243a"/>
            </g>
          </g>
          <g id="Grupo_14702" data-name="Grupo 14702" transform="translate(37.69 21.683)">
            <path id="Trazado_25161" data-name="Trazado 25161" d="M7534.387,1157.11a1.056,1.056,0,0,1-1.056-1.056V1138.24a1.056,1.056,0,0,1,1.544-.937l17.1,8.907a1.056,1.056,0,0,1,0,1.873l-17.1,8.907A1.057,1.057,0,0,1,7534.387,1157.11Zm1.056-17.128v14.331l13.754-7.166Z" transform="translate(-7533.331 -1137.184)" fill="#1e243a"/>
          </g>
          <g id="Grupo_14703" data-name="Grupo 14703" transform="translate(64.346 8.167)">
            <path id="Trazado_25162" data-name="Trazado 25162" d="M7713.306,1075.692a1.056,1.056,0,0,1-1.056-1.056v-18.523h-13.811a1.056,1.056,0,0,1,0-2.112h14.867a1.056,1.056,0,0,1,1.056,1.056v19.579A1.056,1.056,0,0,1,7713.306,1075.692Z" transform="translate(-7697.383 -1054)" fill="#1e243a"/>
          </g>
          <g id="Grupo_14704" data-name="Grupo 14704" transform="translate(8.37 33.109)">
            <path id="Trazado_25163" data-name="Trazado 25163" d="M7368.806,1229.354h-14.867a1.056,1.056,0,0,1-1.057-1.056v-19.742a1.056,1.056,0,0,1,2.112,0v18.686h13.812a1.056,1.056,0,1,1,0,2.112Z" transform="translate(-7352.882 -1207.5)" fill="#1e243a"/>
          </g>
        </g>
      </g>
      <g id="Grupo_14709" data-name="Grupo 14709" transform="translate(183.85 1.111)">
        <g id="Grupo_14707" data-name="Grupo 14707">
          <path id="Trazado_25164" data-name="Trazado 25164" d="M7953.5,513.593a1.057,1.057,0,0,1-.792-.357l-11.168-12.642h-18.1a6.573,6.573,0,0,1-6.555-6.576V452.552a6.561,6.561,0,0,1,6.555-6.552h60.121a6.585,6.585,0,0,1,6.6,6.552v41.467a6.6,6.6,0,0,1-6.6,6.576h-19L7954.317,513.2a1.057,1.057,0,0,1-.8.39Zm-30.06-65.481a4.446,4.446,0,0,0-4.443,4.439v41.467a4.458,4.458,0,0,0,4.443,4.464h18.577a1.055,1.055,0,0,1,.791.357l10.659,12.065,9.774-12.031a1.055,1.055,0,0,1,.819-.39h19.5a4.483,4.483,0,0,0,4.492-4.464V452.552a4.471,4.471,0,0,0-4.492-4.439Z" transform="translate(-7916.882 -446)" fill="#1e243a"/>
        </g>
        <g id="Grupo_14708" data-name="Grupo 14708" transform="translate(15.746 9.197)">
          <path id="Trazado_25165" data-name="Trazado 25165" d="M8034.676,539.388h-.03a1.055,1.055,0,0,1-.661-.233c-1.812-1.457-3.557-2.809-5.245-4.117-7.522-5.83-13.464-10.435-14.637-16.293a14.21,14.21,0,0,1,2.306-11.321,12.142,12.142,0,0,1,8.947-4.775c3.226-.285,6.629,1.359,9.3,4.442,2.681-3.092,6.083-4.743,9.306-4.457h0a12.137,12.137,0,0,1,8.943,4.776,14.222,14.222,0,0,1,2.31,11.331c-1.173,5.861-7.12,10.47-14.648,16.3-1.685,1.305-3.426,2.656-5.234,4.109A1.056,1.056,0,0,1,8034.676,539.388Zm-8.589-34.659c-.183,0-.364.008-.544.024a10.086,10.086,0,0,0-7.442,3.937,12.268,12.268,0,0,0-1.926,9.641c1.018,5.086,6.685,9.478,13.86,15.038,1.494,1.158,3.033,2.35,4.627,3.622,1.591-1.269,3.126-2.459,4.617-3.615,7.18-5.566,12.852-9.962,13.871-15.05a12.279,12.279,0,0,0-1.93-9.651,10.082,10.082,0,0,0-7.439-3.937c-2.825-.25-5.912,1.489-8.255,4.651a1.057,1.057,0,0,1-.849.427h-.03a1.056,1.056,0,0,1-.848-.427C8031.61,506.436,8028.766,504.729,8026.087,504.729Z" transform="translate(-8013.792 -502.601)" fill="#1e243a"/>
        </g>
      </g>
      <g id="Grupo_14712" data-name="Grupo 14712" transform="translate(0)">
        <g id="Grupo_14710" data-name="Grupo 14710" transform="translate(9.613 14.855)">
          <path id="Trazado_25166" data-name="Trazado 25166" d="M6855.194,546.268a1.057,1.057,0,0,1-.747-.309l-9.592-9.592a1.056,1.056,0,0,1,1.494-1.494l8.845,8.845,12.818-12.818a1.056,1.056,0,1,1,1.494,1.494l-13.565,13.565A1.055,1.055,0,0,1,6855.194,546.268Z" transform="translate(-6844.545 -530.591)" fill="#1e243a"/>
        </g>
        <g id="Grupo_14711" data-name="Grupo 14711">
          <path id="Trazado_25167" data-name="Trazado 25167" d="M6807.631,483.661a22.248,22.248,0,1,1,22.248-22.248A22.273,22.273,0,0,1,6807.631,483.661Zm0-42.383a20.135,20.135,0,1,0,20.135,20.135A20.158,20.158,0,0,0,6807.631,441.277Z" transform="translate(-6785.383 -439.165)" fill="#1e243a"/>
        </g>
      </g>
      <g id="Grupo_14718" data-name="Grupo 14718" transform="translate(21.042 53.105)">
        <g id="Grupo_14713" data-name="Grupo 14713">
          <path id="Trazado_25168" data-name="Trazado 25168" d="M6916.02,770.387a1.138,1.138,0,0,1-1.138-1.137v-2.112a1.137,1.137,0,0,1,2.275,0v2.112A1.137,1.137,0,0,1,6916.02,770.387Z" transform="translate(-6914.882 -766)" fill="#1e243a"/>
        </g>
        <g id="Grupo_14714" data-name="Grupo 14714" transform="translate(0 7.799)">
          <path id="Trazado_25169" data-name="Trazado 25169" d="M6916.02,869.895a1.138,1.138,0,0,1-1.138-1.137V864.7a1.137,1.137,0,0,1,2.275,0v4.062A1.137,1.137,0,0,1,6916.02,869.895Zm0-9.912a1.137,1.137,0,0,1-1.138-1.137v-4.062a1.137,1.137,0,0,1,2.275,0v4.062A1.137,1.137,0,0,1,6916.02,859.983Zm0-9.911a1.137,1.137,0,0,1-1.138-1.137v-4.062a1.137,1.137,0,0,1,2.275,0v4.062A1.137,1.137,0,0,1,6916.02,850.071Zm0-9.912a1.137,1.137,0,0,1-1.138-1.137V834.96a1.137,1.137,0,0,1,2.275,0v4.062A1.137,1.137,0,0,1,6916.02,840.16Zm0-9.911a1.137,1.137,0,0,1-1.138-1.137v-4.062a1.137,1.137,0,0,1,2.275,0v4.062A1.137,1.137,0,0,1,6916.02,830.248Zm0-9.911a1.138,1.138,0,0,1-1.138-1.137v-4.062a1.137,1.137,0,0,1,2.275,0V819.2A1.137,1.137,0,0,1,6916.02,820.337Z" transform="translate(-6914.882 -814)" fill="#1e243a"/>
        </g>
        <g id="Grupo_14715" data-name="Grupo 14715" transform="translate(0 67.431)">
          <path id="Trazado_25170" data-name="Trazado 25170" d="M6917.969,1185.225h-1.95a1.138,1.138,0,0,1-1.138-1.137v-1.95a1.137,1.137,0,0,1,2.275,0v.813h.813a1.137,1.137,0,0,1,0,2.275Z" transform="translate(-6914.882 -1181)" fill="#1e243a"/>
        </g>
        <g id="Grupo_14716" data-name="Grupo 14716" transform="translate(7.799 69.381)">
          <path id="Trazado_25171" data-name="Trazado 25171" d="M6977.832,1195.275h-4.062a1.137,1.137,0,1,1,0-2.275h4.062a1.137,1.137,0,0,1,0,2.275Zm-9.749,0h-4.062a1.137,1.137,0,1,1,0-2.275h4.062a1.137,1.137,0,0,1,0,2.275Z" transform="translate(-6962.883 -1193)" fill="#1e243a"/>
        </g>
        <g id="Grupo_14717" data-name="Grupo 14717" transform="translate(27.46 69.381)">
          <path id="Trazado_25172" data-name="Trazado 25172" d="M7087.133,1195.275h-2.112a1.137,1.137,0,1,1,0-2.275h2.112a1.137,1.137,0,0,1,0,2.275Z" transform="translate(-7083.883 -1193)" fill="#1e243a"/>
        </g>
      </g>
      <g id="Grupo_14724" data-name="Grupo 14724" transform="translate(203.836 72.441)">
        <g id="Grupo_14719" data-name="Grupo 14719" transform="translate(0 50.045)">
          <path id="Trazado_25173" data-name="Trazado 25173" d="M8042.97,1195.275h-1.95a1.137,1.137,0,0,1,0-2.275h1.95a1.137,1.137,0,1,1,0,2.275Z" transform="translate(-8039.883 -1193)" fill="#1e243a"/>
        </g>
        <g id="Grupo_14720" data-name="Grupo 14720" transform="translate(6.337 50.045)">
          <path id="Trazado_25174" data-name="Trazado 25174" d="M8083.107,1195.275h-3.087a1.137,1.137,0,0,1,0-2.275h3.087a1.137,1.137,0,0,1,0,2.275Z" transform="translate(-8078.883 -1193)" fill="#1e243a"/>
        </g>
        <g id="Grupo_14721" data-name="Grupo 14721" transform="translate(13.649 48.095)">
          <path id="Trazado_25175" data-name="Trazado 25175" d="M8127.133,1185.225h-2.112a1.137,1.137,0,1,1,0-2.275H8126v-.812a1.137,1.137,0,1,1,2.274,0v1.95A1.137,1.137,0,0,1,8127.133,1185.225Z" transform="translate(-8123.883 -1181)" fill="#1e243a"/>
        </g>
        <g id="Grupo_14722" data-name="Grupo 14722" transform="translate(15.761 7.637)">
          <path id="Trazado_25176" data-name="Trazado 25176" d="M8138.019,968.721a1.137,1.137,0,0,1-1.137-1.137v-4.225a1.137,1.137,0,1,1,2.274,0v4.225A1.137,1.137,0,0,1,8138.019,968.721Zm0-10.074a1.137,1.137,0,0,1-1.137-1.137v-4.225a1.137,1.137,0,1,1,2.274,0v4.225A1.137,1.137,0,0,1,8138.019,958.647Zm0-10.074a1.137,1.137,0,0,1-1.137-1.137v-4.225a1.137,1.137,0,1,1,2.274,0v4.225A1.137,1.137,0,0,1,8138.019,948.573Zm0-10.074a1.137,1.137,0,0,1-1.137-1.137v-4.225a1.137,1.137,0,1,1,2.274,0v4.225A1.137,1.137,0,0,1,8138.019,938.5Z" transform="translate(-8136.882 -932)" fill="#1e243a"/>
        </g>
        <g id="Grupo_14723" data-name="Grupo 14723" transform="translate(15.761)">
          <path id="Trazado_25177" data-name="Trazado 25177" d="M8138.019,889.387a1.137,1.137,0,0,1-1.137-1.137v-2.112a1.137,1.137,0,1,1,2.274,0v2.112A1.137,1.137,0,0,1,8138.019,889.387Z" transform="translate(-8136.882 -885)" fill="#1e243a"/>
        </g>
      </g>
      <g id="Grupo_14727" data-name="Grupo 14727" transform="translate(246.407 106.238)">
        <g id="Grupo_14725" data-name="Grupo 14725" transform="translate(3.574)">
          <path id="Trazado_25178" data-name="Trazado 25178" d="M8325.02,1102.587a1.137,1.137,0,0,1-1.138-1.137v-7.312a1.137,1.137,0,1,1,2.274,0v7.312A1.137,1.137,0,0,1,8325.02,1102.587Z" transform="translate(-8323.882 -1093)" fill="#1e243a"/>
        </g>
        <g id="Grupo_14726" data-name="Grupo 14726" transform="translate(0 3.737)">
          <path id="Trazado_25179" data-name="Trazado 25179" d="M8310.332,1118.275h-7.312a1.137,1.137,0,0,1,0-2.275h7.313a1.137,1.137,0,0,1,0,2.275Z" transform="translate(-8301.883 -1116)" fill="#1e243a"/>
        </g>
      </g>
      <g id="Grupo_14730" data-name="Grupo 14730" transform="translate(9.993 130.935)">
        <g id="Grupo_14728" data-name="Grupo 14728" transform="translate(3.574)">
          <path id="Trazado_25180" data-name="Trazado 25180" d="M6870.019,1254.587a1.137,1.137,0,0,1-1.137-1.137v-7.312a1.137,1.137,0,1,1,2.274,0v7.312A1.137,1.137,0,0,1,6870.019,1254.587Z" transform="translate(-6868.882 -1245)" fill="#1e243a"/>
        </g>
        <g id="Grupo_14729" data-name="Grupo 14729" transform="translate(0 3.737)">
          <path id="Trazado_25181" data-name="Trazado 25181" d="M6855.332,1270.275h-7.312a1.137,1.137,0,1,1,0-2.275h7.312a1.137,1.137,0,1,1,0,2.275Z" transform="translate(-6846.883 -1268)" fill="#1e243a"/>
        </g>
      </g>
      <g id="Grupo_14733" data-name="Grupo 14733" transform="translate(117.72 38.644)">
        <g id="Grupo_14731" data-name="Grupo 14731" transform="translate(3.574)">
          <path id="Trazado_25182" data-name="Trazado 25182" d="M7533.019,686.587a1.137,1.137,0,0,1-1.137-1.137v-7.312a1.137,1.137,0,1,1,2.274,0v7.312A1.137,1.137,0,0,1,7533.019,686.587Z" transform="translate(-7531.882 -677)" fill="#1e243a"/>
        </g>
        <g id="Grupo_14732" data-name="Grupo 14732" transform="translate(0 3.737)">
          <path id="Trazado_25183" data-name="Trazado 25183" d="M7518.332,702.275h-7.312a1.137,1.137,0,0,1,0-2.275h7.312a1.137,1.137,0,0,1,0,2.275Z" transform="translate(-7509.883 -700)" fill="#1e243a"/>
        </g>
      </g>
      <g id="Grupo_14734" data-name="Grupo 14734" transform="translate(231.147 159.701)">
        <path id="Trazado_25184" data-name="Trazado 25184" d="M8215.541,1438.475a1.626,1.626,0,0,1,1.584-1.666h0a1.626,1.626,0,0,1,1.664,1.586h0a1.625,1.625,0,0,1-1.585,1.664h-.04A1.623,1.623,0,0,1,8215.541,1438.475Zm-4.813-.934a1.627,1.627,0,0,1-.042-2.3h0a1.625,1.625,0,0,1,2.3-.042h0a1.623,1.623,0,0,1,.042,2.3h0a1.623,1.623,0,0,1-1.17.5h0A1.62,1.62,0,0,1,8210.728,1437.541Zm10.522-.249a1.626,1.626,0,0,1-.071-2.3h0a1.627,1.627,0,0,1,2.3-.071h0a1.627,1.627,0,0,1,.071,2.3h0a1.624,1.624,0,0,1-1.185.512h0A1.625,1.625,0,0,1,8221.25,1437.292Zm-13.281-6.129a1.627,1.627,0,0,1,1.605-1.644h0a1.625,1.625,0,0,1,1.645,1.605h0a1.625,1.625,0,0,1-1.605,1.644h-.02A1.626,1.626,0,0,1,8207.969,1431.164Zm14.769-.33a1.622,1.622,0,0,1,1.563-1.683h0a1.624,1.624,0,0,1,1.684,1.563h0a1.625,1.625,0,0,1-1.562,1.685h-.062A1.623,1.623,0,0,1,8222.737,1430.834Zm-12.154-3.817a1.626,1.626,0,0,1-.015-2.3h0a1.625,1.625,0,0,1,2.3-.015h0a1.626,1.626,0,0,1,.015,2.3h0a1.623,1.623,0,0,1-1.157.483h0A1.613,1.613,0,0,1,8210.583,1427.017Zm10.287-.214a1.625,1.625,0,0,1-.1-2.3h0a1.625,1.625,0,0,1,2.3-.1h0a1.626,1.626,0,0,1,.1,2.3h0a1.621,1.621,0,0,1-1.2.526h0A1.618,1.618,0,0,1,8220.87,1426.8Zm-5.515-3.138a1.625,1.625,0,0,1,1.625-1.625h0a1.626,1.626,0,0,1,1.625,1.625h0a1.625,1.625,0,0,1-1.625,1.625h0A1.624,1.624,0,0,1,8215.355,1423.665Z" transform="translate(-8207.969 -1422.04)" fill="#1e243a"/>
      </g>
      <g id="Grupo_14735" data-name="Grupo 14735" transform="translate(13.237 193.173)">
        <path id="Trazado_25185" data-name="Trazado 25185" d="M6874.421,1644.475a1.626,1.626,0,0,1,1.584-1.665h0a1.626,1.626,0,0,1,1.664,1.586h0a1.624,1.624,0,0,1-1.584,1.664h-.041A1.624,1.624,0,0,1,6874.421,1644.475Zm-4.812-.934h0a1.625,1.625,0,0,1-.044-2.3h0a1.625,1.625,0,0,1,2.3-.042h0a1.623,1.623,0,0,1,.042,2.3h0a1.623,1.623,0,0,1-1.17.5h0A1.616,1.616,0,0,1,6869.609,1643.541Zm10.521-.249a1.626,1.626,0,0,1-.072-2.3h0a1.627,1.627,0,0,1,2.3-.072h0a1.626,1.626,0,0,1,.071,2.3h0a1.623,1.623,0,0,1-1.185.512h0A1.622,1.622,0,0,1,6880.13,1643.292Zm-13.282-6.129a1.627,1.627,0,0,1,1.605-1.644h0a1.625,1.625,0,0,1,1.645,1.605h0a1.624,1.624,0,0,1-1.6,1.644h-.021A1.627,1.627,0,0,1,6866.849,1637.163Zm14.769-.33a1.623,1.623,0,0,1,1.563-1.683h0a1.623,1.623,0,0,1,1.684,1.563h0a1.623,1.623,0,0,1-1.563,1.683h0c-.021,0-.041,0-.062,0h0A1.624,1.624,0,0,1,6881.617,1636.834Zm-12.155-3.817a1.626,1.626,0,0,1-.013-2.3h0a1.624,1.624,0,0,1,2.3-.015h0a1.626,1.626,0,0,1,.015,2.3h0a1.623,1.623,0,0,1-1.157.483h0A1.617,1.617,0,0,1,6869.462,1633.017Zm10.288-.214a1.624,1.624,0,0,1-.1-2.3h0a1.623,1.623,0,0,1,2.3-.1h0a1.622,1.622,0,0,1,.1,2.294h0a1.617,1.617,0,0,1-1.2.528h0A1.618,1.618,0,0,1,6879.75,1632.8Zm-5.515-3.138a1.625,1.625,0,0,1,1.625-1.625h0a1.626,1.626,0,0,1,1.625,1.625h0a1.625,1.625,0,0,1-1.625,1.625h0A1.624,1.624,0,0,1,6874.235,1629.665Z" transform="translate(-6866.849 -1628.04)" fill="#1e243a"/>
      </g>
      <g id="Grupo_14736" data-name="Grupo 14736" transform="translate(57.169 41.657)">
        <path id="Trazado_25186" data-name="Trazado 25186" d="M7144.8,711.975a1.622,1.622,0,0,1,1.584-1.664h0a1.625,1.625,0,0,1,1.664,1.584h0a1.625,1.625,0,0,1-1.584,1.664h-.041A1.623,1.623,0,0,1,7144.8,711.975Zm-4.812-.934a1.626,1.626,0,0,1-.042-2.3h0a1.625,1.625,0,0,1,2.3-.042h0a1.625,1.625,0,0,1,.042,2.3h0a1.616,1.616,0,0,1-1.17.5h0A1.618,1.618,0,0,1,7139.987,711.041Zm10.522-.249a1.623,1.623,0,0,1-.072-2.3h0a1.625,1.625,0,0,1,2.3-.072h0a1.625,1.625,0,0,1,.072,2.3h0a1.623,1.623,0,0,1-1.185.512h0A1.62,1.62,0,0,1,7150.51,710.792Zm-13.282-6.129a1.624,1.624,0,0,1,1.605-1.644h0a1.624,1.624,0,0,1,1.644,1.605h0a1.626,1.626,0,0,1-1.6,1.644h-.02A1.626,1.626,0,0,1,7137.228,704.663Zm14.767-.33a1.625,1.625,0,0,1,1.564-1.683h0a1.624,1.624,0,0,1,1.684,1.563h0a1.627,1.627,0,0,1-1.563,1.685h-.062A1.626,1.626,0,0,1,7151.995,704.334Zm-12.154-3.817a1.625,1.625,0,0,1-.015-2.3h0a1.627,1.627,0,0,1,2.3-.015h0a1.628,1.628,0,0,1,.013,2.3h0a1.616,1.616,0,0,1-1.155.483h0A1.618,1.618,0,0,1,7139.841,700.517Zm10.289-.214a1.625,1.625,0,0,1-.1-2.3h0a1.625,1.625,0,0,1,2.3-.1h0a1.626,1.626,0,0,1,.1,2.3h0a1.622,1.622,0,0,1-1.2.526h0A1.618,1.618,0,0,1,7150.129,700.3Zm-5.516-3.138a1.625,1.625,0,0,1,1.625-1.625h0a1.624,1.624,0,0,1,1.625,1.625h0a1.623,1.623,0,0,1-1.625,1.625h0A1.624,1.624,0,0,1,7144.613,697.165Z" transform="translate(-7137.228 -695.54)" fill="#1e243a"/>
      </g>
      <g id="Grupo_14737" data-name="Grupo 14737" transform="translate(155.099 6.9)">
        <path id="Trazado_25187" data-name="Trazado 25187" d="M7747.5,498.065a1.625,1.625,0,0,1,1.586-1.664h0a1.624,1.624,0,0,1,1.664,1.584h0a1.626,1.626,0,0,1-1.584,1.664h-.041A1.626,1.626,0,0,1,7747.5,498.065Zm-4.811-.934a1.625,1.625,0,0,1-.042-2.3h0a1.625,1.625,0,0,1,2.3-.042h0a1.627,1.627,0,0,1,.042,2.3h0a1.617,1.617,0,0,1-1.17.5h0A1.62,1.62,0,0,1,7742.688,497.131Zm10.523-.249a1.625,1.625,0,0,1-.072-2.3h0a1.623,1.623,0,0,1,2.3-.07h0a1.624,1.624,0,0,1,.072,2.3h0a1.623,1.623,0,0,1-1.185.512h0A1.62,1.62,0,0,1,7753.211,496.882Zm-13.282-6.129a1.626,1.626,0,0,1,1.6-1.644h0a1.624,1.624,0,0,1,1.645,1.605h0a1.624,1.624,0,0,1-1.6,1.644h-.02A1.625,1.625,0,0,1,7739.929,490.753Zm14.767-.33a1.625,1.625,0,0,1,1.564-1.683h0a1.624,1.624,0,0,1,1.684,1.565h0a1.627,1.627,0,0,1-1.563,1.683h-.062A1.625,1.625,0,0,1,7754.7,490.424Zm-12.154-3.817a1.624,1.624,0,0,1-.015-2.3h0a1.626,1.626,0,0,1,2.3-.015h0a1.626,1.626,0,0,1,.015,2.3h0a1.616,1.616,0,0,1-1.155.483h0A1.617,1.617,0,0,1,7742.542,486.607Zm10.288-.214a1.624,1.624,0,0,1-.1-2.3h0a1.623,1.623,0,0,1,2.294-.1h0a1.625,1.625,0,0,1,.1,2.3h0a1.621,1.621,0,0,1-1.2.526h0A1.62,1.62,0,0,1,7752.83,486.392Zm-5.516-3.136a1.625,1.625,0,0,1,1.625-1.626v0a1.624,1.624,0,0,1,1.625,1.625h0a1.623,1.623,0,0,1-1.625,1.623h0v0h0A1.625,1.625,0,0,1,7747.314,483.256Z" transform="translate(-7739.929 -481.63)" fill="#1e243a"/>
      </g>
    </g>
  </g>
</svg>
