<svg xmlns="http://www.w3.org/2000/svg" width="344.091" height="316" viewBox="0 0 344.091 316">
  <g id="Grupo_14687" data-name="Grupo 14687" transform="translate(-1124.499 -33)">
    <circle id="Elipse_743" data-name="Elipse 743" cx="158" cy="158" r="158" transform="translate(1136 33)" fill="#daf0fd"/>
    <g id="Grupo_14395" data-name="Grupo 14395" transform="translate(1145.792 226.655)">
      <g id="Color" transform="translate(1.066 16.424)">
        <g id="Grupo_14378" data-name="Grupo 14378" transform="translate(9.402 0)">
          <path id="Trazado_24717" data-name="Trazado 24717" d="M4837.964,1331.892a24.022,24.022,0,0,0,4.455,8.156l.675-5.013C4841.689,1334.644,4840.3,1333.612,4837.964,1331.892Z" transform="translate(-4837.964 -1319.426)" fill="#fcd118"/>
          <path id="Trazado_24718" data-name="Trazado 24718" d="M4842.765,1389.268l-.1.775c.016,12.22,4.589,26.2-4.293,25.252,2.441,4.667,8.893,6.422,16.465,5.063l1.848-7.107c-4.261-3.138-7.121-6.88-8.244-11.371l1.28-8.782A10.881,10.881,0,0,1,4842.765,1389.268Z" transform="translate(-4838.31 -1368.647)" fill="#fcd118"/>
          <path id="Trazado_24719" data-name="Trazado 24719" d="M4869.981,1344.017l-.676,5.013a10.885,10.885,0,0,0,6.951,3.831l1.531-10.5C4873.7,1343.943,4871.822,1344.53,4869.981,1344.017Z" transform="translate(-4864.851 -1328.409)" fill="#fcd118"/>
          <path id="Trazado_24720" data-name="Trazado 24720" d="M5138.479,1429.3a11.8,11.8,0,0,0,2.394-.241Z" transform="translate(-5095.764 -1402.782)" fill="#fcd118"/>
          <path id="Trazado_24721" data-name="Trazado 24721" d="M4903.359,1246.128a20.905,20.905,0,0,0-15.95-.676c-8.327,2.964-11.935,8.035-13.321,14.12l-.03.229c1.841.513,3.714-.074,7.806-1.654l-1.53,10.5c6.834.812,14.445-5.088,19.252-11.283l-2.38,3.075c3.557,8.993,10.619,10.317,14.437,10.274l2.394-.241a11.789,11.789,0,0,1-2.394.241l-3.166.319c-.393,8.047-2.437,13.855-6.823,16.488l1.425,7.9c9.07,1.478,13.444-1.113,16.452-4.581C4904.758,1292.415,4924.793,1256.266,4903.359,1246.128Z" transform="translate(-4868.927 -1244.193)" fill="#fcd118"/>
        </g>
        <g id="Grupo_14379" data-name="Grupo 14379" transform="translate(0 55.698)">
          <path id="Trazado_24722" data-name="Trazado 24722" d="M4828.265,1636.045h-8.607a44,44,0,0,1-25.2,0h-10.361a12.473,12.473,0,0,0-8.991,3.768,11.527,11.527,0,0,0-3.286,8.04v14.908h68.726v-14.908A12.049,12.049,0,0,0,4828.265,1636.045Z" transform="translate(-4771.816 -1636.045)" fill="#4a91d6"/>
        </g>
      </g>
      <g id="SOCIAL" transform="translate(0 0)">
        <g id="Grupo_14380" data-name="Grupo 14380" transform="translate(3.264)">
          <path id="Trazado_24723" data-name="Trazado 24723" d="M4815.738,1212.519a1.422,1.422,0,0,0-.934,2.685,1.441,1.441,0,0,0,.466.078,1.421,1.421,0,0,0,.468-2.763Z" transform="translate(-4810.073 -1200.529)"/>
          <path id="Trazado_24724" data-name="Trazado 24724" d="M4793.594,1148.882a1.422,1.422,0,1,0,.45,1.96A1.421,1.421,0,0,0,4793.594,1148.882Z" transform="translate(-4790.831 -1145.819)"/>
          <path id="Trazado_24725" data-name="Trazado 24725" d="M4859,1143.368l.008.007h0a1.422,1.422,0,0,0,2.011-2.011.073.073,0,0,1-.015-.016,1.422,1.422,0,1,0-2,2.017Z" transform="translate(-4848.443 -1139.188)"/>
          <path id="Trazado_24726" data-name="Trazado 24726" d="M4788.235,1186.033a1.422,1.422,0,0,0-.872,1.813v0a1.421,1.421,0,1,0,.872-1.811Z" transform="translate(-4787.283 -1177.806)"/>
          <path id="Trazado_24727" data-name="Trazado 24727" d="M4872.637,1176.435a1.421,1.421,0,1,0-.315,2.824,1.228,1.228,0,0,0,.159.01,1.422,1.422,0,0,0,.156-2.834Z" transform="translate(-4859.149 -1169.634)"/>
          <path id="Trazado_24728" data-name="Trazado 24728" d="M4824.4,1128.653a1.421,1.421,0,0,0,.16,2.833,1.624,1.624,0,0,0,.165-.009,1.421,1.421,0,0,0-.325-2.824Z" transform="translate(-4818.04 -1128.644)"/>
          <path id="Trazado_24729" data-name="Trazado 24729" d="M4851.788,1208.424a1.421,1.421,0,1,0,1.962.444A1.42,1.42,0,0,0,4851.788,1208.424Z" transform="translate(-4842.051 -1196.896)"/>
        </g>
        <g id="Grupo_14383" data-name="Grupo 14383" transform="translate(33.884 0.264)">
          <g id="Grupo_14381" data-name="Grupo 14381" transform="translate(3.34)">
            <path id="Trazado_24730" data-name="Trazado 24730" d="M5027.269,1130.5a1.066,1.066,0,0,0-1.066,1.066v6.823a1.066,1.066,0,1,0,2.132,0v-6.823A1.066,1.066,0,0,0,5027.269,1130.5Z" transform="translate(-5026.203 -1130.5)"/>
          </g>
          <g id="Grupo_14382" data-name="Grupo 14382" transform="translate(0 3.482)">
            <path id="Trazado_24731" data-name="Trazado 24731" d="M5010.592,1155h-6.824a1.066,1.066,0,0,0,0,2.132h6.824a1.066,1.066,0,0,0,0-2.132Z" transform="translate(-5002.703 -1155)"/>
          </g>
        </g>
        <g id="Grupo_14394" data-name="Grupo 14394" transform="translate(0 15.347)">
          <g id="Grupo_14384" data-name="Grupo 14384" transform="translate(20.679 44.636)">
            <path id="Trazado_24732" data-name="Trazado 24732" d="M4916.413,1550.658a1.067,1.067,0,0,0-.892,1.216c.972,6.288-1.1,7.475-3.723,8.978-.5.285-1.012.579-1.52.915a1.066,1.066,0,1,0,1.178,1.777c.45-.3.933-.575,1.4-.843,2.8-1.6,5.967-3.417,4.772-11.153A1.065,1.065,0,0,0,4916.413,1550.658Z" transform="translate(-4909.801 -1550.645)"/>
          </g>
          <g id="Grupo_14385" data-name="Grupo 14385" transform="translate(42.24 44.101)">
            <path id="Trazado_24733" data-name="Trazado 24733" d="M5068.73,1558.537c-.332-.22-.666-.429-.989-.631-2.737-1.714-4.9-3.069-3.861-9.8a1.066,1.066,0,1,0-2.107-.325c-.562,3.634-.307,6.249.8,8.229a10.5,10.5,0,0,0,4.038,3.7c.311.2.633.4.942.6a1.066,1.066,0,0,0,1.178-1.777Z" transform="translate(-5061.485 -1546.879)"/>
          </g>
          <g id="Grupo_14386" data-name="Grupo 14386" transform="translate(19.477 25.013)">
            <path id="Trazado_24734" data-name="Trazado 24734" d="M4932.072,1414.081a1.065,1.065,0,0,0-1.13,1l-.286,4.6c0,.022,0,.044,0,.066a10.154,10.154,0,0,1-.993,4.445c-2.233,4.638-6.767,9.694-11.858,10.532a3.667,3.667,0,0,1-1.393-.042c-5.617-1.24-9.893-6.151-11.847-9.979a10.235,10.235,0,0,1-1.086-4.633l.057-6.4a1.066,1.066,0,0,0-1.056-1.075h-.01a1.066,1.066,0,0,0-1.066,1.056l-.057,6.407a12.394,12.394,0,0,0,1.319,5.611c2.165,4.242,6.944,9.692,13.287,11.092a5.886,5.886,0,0,0,1.27.14,5.735,5.735,0,0,0,.929-.076c6.247-1.029,11.141-6.952,13.433-11.711a12.428,12.428,0,0,0,1.2-5.337l.285-4.563A1.065,1.065,0,0,0,4932.072,1414.081Z" transform="translate(-4901.345 -1412.59)"/>
          </g>
          <g id="Grupo_14387" data-name="Grupo 14387" transform="translate(9.459 21.407)">
            <path id="Trazado_24735" data-name="Trazado 24735" d="M4847.748,1417a22.518,22.518,0,0,1-9.469.02,8.659,8.659,0,0,1-4.353-2.474,4.728,4.728,0,0,0,2.565-1.291c2.667-2.643,2.1-8.466,1.444-15.208-.314-3.219-.638-6.547-.642-9.766a1.067,1.067,0,0,0-1.067-1.065h0a1.066,1.066,0,0,0-1.065,1.068c0,3.321.333,6.7.652,9.97.579,5.943,1.125,11.557-.822,13.487a3.451,3.451,0,0,1-2.944.734,1.065,1.065,0,0,0-1.057,1.554,10.058,10.058,0,0,0,6.752,5.054,18.965,18.965,0,0,0,4.771.557,31.946,31.946,0,0,0,5.612-.542,1.066,1.066,0,0,0-.377-2.1Z" transform="translate(-4830.867 -1387.218)"/>
          </g>
          <g id="Grupo_14388" data-name="Grupo 14388" transform="translate(14.563)">
            <path id="Trazado_24736" data-name="Trazado 24736" d="M4913.168,1283.28a3.854,3.854,0,0,1-3.22-.776c-1.988-1.893-1.68-7.318-1.352-13.062.308-5.413.657-11.548-.582-17.095-1.47-6.577-4.887-11.053-10.449-13.683a21.831,21.831,0,0,0-16.763-.717,22.626,22.626,0,0,0-9.706,6.189,19.225,19.225,0,0,0-4.3,8.7,1.066,1.066,0,1,0,2.079.474c1.5-6.573,5.513-10.815,12.639-13.352a19.713,19.713,0,0,1,15.137.635c11.148,5.273,10.408,18.279,9.813,28.729-.387,6.791-.692,12.155,2.012,14.728a4.95,4.95,0,0,0,2.357,1.24c-2.567,2.193-6.477,3.779-13.835,2.58a1.066,1.066,0,1,0-.343,2.1,31.069,31.069,0,0,0,4.991.435c6.776,0,10.183-2.771,12.437-5.369a1.066,1.066,0,0,0-.918-1.759Z" transform="translate(-4866.773 -1236.615)"/>
          </g>
          <g id="Grupo_14389" data-name="Grupo 14389" transform="translate(9.402 12.477)">
            <path id="Trazado_24737" data-name="Trazado 24737" d="M4862.841,1325.32a1.066,1.066,0,0,0-1.5.189c-4.409,5.683-11.952,11.926-18.692,10.821-3.592-.589-6.53-3.242-8.762-7.9,3.3,2.1,4.965,1.829,10.959-.486a1.066,1.066,0,1,0-.768-1.989c-6.612,2.553-6.612,2.553-11.791-1.256l-.131-.1a1.066,1.066,0,0,0-1.638,1.209c2.618,7.524,6.583,11.771,11.784,12.624a11.647,11.647,0,0,0,1.89.151,18.156,18.156,0,0,0,9.465-3.106,37.5,37.5,0,0,0,9.368-8.662A1.066,1.066,0,0,0,4862.841,1325.32Z" transform="translate(-4830.464 -1324.393)"/>
          </g>
          <g id="Grupo_14390" data-name="Grupo 14390" transform="translate(37.68 16.255)">
            <path id="Trazado_24738" data-name="Trazado 24738" d="M5047.06,1361.034a13.813,13.813,0,0,1-6.7-.455c-4.065-1.292-7.056-4.3-8.89-8.934a1.066,1.066,0,1,0-1.982.784c2.592,6.552,6.992,9.153,10.226,10.181a16.566,16.566,0,0,0,5,.769,13.248,13.248,0,0,0,2.846-.273,1.066,1.066,0,0,0-.5-2.074Z" transform="translate(-5029.411 -1350.971)"/>
          </g>
          <g id="Grupo_14391" data-name="Grupo 14391" transform="translate(45.008 7.21)">
            <path id="Trazado_24739" data-name="Trazado 24739" d="M5082.636,1287.531a1.066,1.066,0,0,0-1.216,1.751,8.9,8.9,0,0,1,1.637,1.472,1.066,1.066,0,1,0,1.608-1.4A11.059,11.059,0,0,0,5082.636,1287.531Z" transform="translate(-5080.962 -1287.34)"/>
          </g>
          <g id="Grupo_14392" data-name="Grupo 14392" transform="translate(48.444 11.255)">
            <path id="Trazado_24740" data-name="Trazado 24740" d="M5105.714,1315.918a1.066,1.066,0,0,0-.462,1.435c1.8,3.51,2.167,8.329,2.286,11.649a1.067,1.067,0,0,0,1.065,1.028h.039a1.065,1.065,0,0,0,1.027-1.1c-.2-5.676-.98-9.545-2.519-12.546A1.066,1.066,0,0,0,5105.714,1315.918Z" transform="translate(-5105.134 -1315.8)"/>
          </g>
          <g id="Grupo_14393" data-name="Grupo 14393" transform="translate(0 55.709)">
            <path id="Trazado_24741" data-name="Trazado 24741" d="M4821.831,1628.545h-8.606a1.07,1.07,0,0,0-.292.041,43.158,43.158,0,0,1-24.6,0,1.076,1.076,0,0,0-.308-.045h-10.361a13.622,13.622,0,0,0-9.757,4.093,12.587,12.587,0,0,0-3.585,8.781v14.908a1.066,1.066,0,0,0,1.066,1.066h68.725a1.066,1.066,0,0,0,1.066-1.066v-14.908A13.129,13.129,0,0,0,4821.831,1628.545Zm11.211,26.716h-66.593v-13.842a10.466,10.466,0,0,1,2.985-7.3,11.481,11.481,0,0,1,8.225-3.443h10.207a45.236,45.236,0,0,0,25.506,0h8.459a11,11,0,0,1,11.211,10.742Z" transform="translate(-4764.316 -1628.545)"/>
          </g>
        </g>
      </g>
    </g>
    <g id="Grupo_14414" data-name="Grupo 14414" transform="translate(1393.372 72.5)">
      <g id="Color-2" data-name="Color" transform="translate(1.136 1.139)">
        <g id="Grupo_14396" data-name="Grupo 14396" transform="translate(11.952 0)">
          <path id="Trazado_24742" data-name="Trazado 24742" d="M5912.09,568.464c-7.494,3.491-8.855,5.247-21.08-.585v5.068c0,8.623,3.332,11.709,10.158,11.783,9.6.1,13.994,1.513,23.046-1.755C5933.346,579.677,5927.163,561.443,5912.09,568.464Z" transform="translate(-5891.01 -566.869)" fill="#fcd118"/>
        </g>
        <g id="Grupo_14397" data-name="Grupo 14397" transform="translate(45.156 7.446)">
          <path id="Trazado_24743" data-name="Trazado 24743" d="M6114.6,616.027l-4.37,8.659c.093,6.008.8,11.451,4.042,15.563C6117.735,637.516,6123.932,624.985,6114.6,616.027Z" transform="translate(-6110.227 -616.027)" fill="#fcd118"/>
        </g>
        <g id="Grupo_14398" data-name="Grupo 14398" transform="translate(0 59.001)">
          <path id="Trazado_24744" data-name="Trazado 24744" d="M5868,956.4h-8.523a41.978,41.978,0,0,1-24.957,0h-10.261a12.158,12.158,0,0,0-12.158,12.157V983.9h68.056V968.555A12.158,12.158,0,0,0,5868,956.4Z" transform="translate(-5812.102 -956.398)" fill="#5ed45e"/>
        </g>
      </g>
      <g id="SOCIAL-2" data-name="SOCIAL" transform="translate(0 0)">
        <g id="Grupo_14399" data-name="Grupo 14399" transform="translate(54.783 95.167)">
          <path id="Trazado_24745" data-name="Trazado 24745" d="M6172.737,1207.9a1.515,1.515,0,1,0,.479,2.089A1.515,1.515,0,0,0,6172.737,1207.9Z" transform="translate(-6169.792 -1204.633)" fill="#1e243a"/>
          <path id="Trazado_24746" data-name="Trazado 24746" d="M6167.3,1245.038a1.515,1.515,0,0,0,.5,2.945,1.533,1.533,0,0,0,.5-.086,1.515,1.515,0,0,0-1-2.858Z" transform="translate(-6166.282 -1236.272)" fill="#1e243a"/>
          <path id="Trazado_24747" data-name="Trazado 24747" d="M6238.025,1202.528l.006.008a1.515,1.515,0,0,0,2.143-2.143h0l-.015-.015h0a1.516,1.516,0,0,0-2.138,2.149Z" transform="translate(-6226.776 -1198.074)" fill="#1e243a"/>
          <path id="Trazado_24748" data-name="Trazado 24748" d="M6203.476,1187.654a1.514,1.514,0,0,0,.172,3.019,1.728,1.728,0,0,0,.174-.009,1.515,1.515,0,0,0-.346-3.01Z" transform="translate(-6196.703 -1187.644)" fill="#1e243a"/>
          <path id="Trazado_24749" data-name="Trazado 24749" d="M6251.74,1235.437a1.514,1.514,0,1,0-.335,3.01,1.266,1.266,0,0,0,.169.011,1.515,1.515,0,0,0,.167-3.02Z" transform="translate(-6237.369 -1228.19)" fill="#1e243a"/>
          <path id="Trazado_24750" data-name="Trazado 24750" d="M6194.863,1271.525a1.515,1.515,0,1,0-.995,2.861,1.487,1.487,0,0,0,.5.083,1.514,1.514,0,0,0,.5-2.945Z" transform="translate(-6188.826 -1258.747)" fill="#1e243a"/>
          <path id="Trazado_24751" data-name="Trazado 24751" d="M6230.831,1267.439a1.514,1.514,0,0,0,.811,2.795,1.5,1.5,0,0,0,.806-.233,1.514,1.514,0,1,0-1.616-2.561Z" transform="translate(-6220.455 -1255.154)" fill="#1e243a"/>
        </g>
        <g id="Grupo_14402" data-name="Grupo 14402" transform="translate(62.268 40.01)">
          <g id="Grupo_14400" data-name="Grupo 14400" transform="translate(3.559)">
            <path id="Trazado_24752" data-name="Trazado 24752" d="M6240.339,823.5a1.136,1.136,0,0,0-1.136,1.136v7.27a1.136,1.136,0,0,0,2.272,0v-7.27A1.137,1.137,0,0,0,6240.339,823.5Z" transform="translate(-6239.203 -823.5)" fill="#1e243a"/>
          </g>
          <g id="Grupo_14401" data-name="Grupo 14401" transform="translate(0 3.711)">
            <path id="Trazado_24753" data-name="Trazado 24753" d="M6224.109,848h-7.27a1.136,1.136,0,1,0,0,2.272h7.27a1.136,1.136,0,1,0,0-2.272Z" transform="translate(-6215.704 -848)" fill="#1e243a"/>
          </g>
        </g>
        <g id="Grupo_14412" data-name="Grupo 14412">
          <g id="Grupo_14410" data-name="Grupo 14410" transform="translate(11.952)">
            <g id="Grupo_14403" data-name="Grupo 14403" transform="translate(8.957 18.917)">
              <path id="Trazado_24754" data-name="Trazado 24754" d="M5971.52,696.29a1.136,1.136,0,0,0-1.136,1.136v7.2a2.052,2.052,0,0,1-.421,1.257,1.871,1.871,0,0,1-.206.216l-7.244,6.7-.051.05a1.613,1.613,0,0,1-1.17.52h-7.541a1.61,1.61,0,0,1-1.143-.491c-.017-.017-.035-.034-.054-.051l-6.982-6.159a1.828,1.828,0,0,1-.216-.216,2.04,2.04,0,0,1-.443-1.284v-19.8a1.136,1.136,0,0,0-2.272,0v19.8a4.323,4.323,0,0,0,.949,2.713,4.039,4.039,0,0,0,.479.491l6.957,6.136a3.863,3.863,0,0,0,2.725,1.133h7.541a3.86,3.86,0,0,0,2.789-1.2l7.22-6.683a4.037,4.037,0,0,0,.454-.487,4.333,4.333,0,0,0,.9-2.653v-7.2A1.136,1.136,0,0,0,5971.52,696.29Z" transform="translate(-5942.641 -684.237)" fill="#1e243a"/>
            </g>
            <g id="Grupo_14404" data-name="Grupo 14404">
              <path id="Trazado_24755" data-name="Trazado 24755" d="M5918.865,561.486c-2.088-1.558-6.634-3.686-13.619-.433-.652.3-1.248.59-1.824.866-5.843,2.8-7.606,3.649-18.288-1.446a1.136,1.136,0,0,0-1.625,1.025v5.068c0,8.85,3.479,12.834,11.282,12.919,2.3.025,4.342.128,6.146.219s3.453.174,5.076.174a33.523,33.523,0,0,0,12.222-2.215,7.455,7.455,0,0,0,4.923-6.118A10.94,10.94,0,0,0,5918.865,561.486Zm2.046,9.724a5.179,5.179,0,0,1-3.447,4.315h0c-6.649,2.4-10.745,2.194-16.413,1.909-1.824-.092-3.891-.2-6.235-.221-5.422-.059-9.034-1.892-9.034-10.647v-3.283c4.757,2.173,7.845,3.1,10.415,3.151,2.942.06,5.151-1,8.209-2.466.57-.274,1.16-.557,1.8-.855,4.383-2.042,8.4-1.973,11.3.194A8.608,8.608,0,0,1,5920.912,571.21Z" transform="translate(-5883.51 -559.349)" fill="#1e243a"/>
            </g>
            <g id="Grupo_14405" data-name="Grupo 14405" transform="translate(9.939 44.973)">
              <path id="Trazado_24756" data-name="Trazado 24756" d="M5954.03,856.277a1.136,1.136,0,0,0-.961,1.286c1.183,8.211-.963,10.983-3.459,12.754a1.136,1.136,0,1,0,1.314,1.853c2.937-2.084,5.754-5.488,4.394-14.931A1.137,1.137,0,0,0,5954.03,856.277Z" transform="translate(-5949.13 -856.265)" fill="#1e243a"/>
            </g>
            <g id="Grupo_14406" data-name="Grupo 14406" transform="translate(31.443 44.426)">
              <path id="Trazado_24757" data-name="Trazado 24757" d="M6097.292,867.253c-2.145-1.522-4.851-4.557-3.59-13.3a1.136,1.136,0,1,0-2.249-.324c-1.094,7.593.344,12.511,4.524,15.478a1.136,1.136,0,1,0,1.315-1.853Z" transform="translate(-6091.1 -852.653)" fill="#1e243a"/>
            </g>
            <g id="Grupo_14407" data-name="Grupo 14407" transform="translate(33.204 7.449)">
              <path id="Trazado_24758" data-name="Trazado 24758" d="M6109.019,608.844a1.136,1.136,0,1,0-1.573,1.639,14.1,14.1,0,0,1,4.55,11.269,18.6,18.6,0,0,1-3.937,10.4c-2.544-3.933-2.985-8.957-3.061-13.846a1.136,1.136,0,0,0-1.135-1.119h-.018a1.136,1.136,0,0,0-1.119,1.153c.088,5.726.668,11.657,4.285,16.249a1.136,1.136,0,0,0,1.6.189c2.172-1.712,5.363-6.852,5.658-12.915A16.5,16.5,0,0,0,6109.019,608.844Z" transform="translate(-6102.727 -608.527)" fill="#1e243a"/>
            </g>
            <g id="Grupo_14408" data-name="Grupo 14408" transform="translate(11.174 6.35)">
              <path id="Trazado_24759" data-name="Trazado 24759" d="M5969.995,601.273c-.393.026-.8.074-1.237.148a14.522,14.522,0,0,0-3.421,1.188c-2.076.92-4.037,1.789-6.58.988a1.136,1.136,0,1,0-.683,2.167,8.771,8.771,0,0,0,2.657.416,13.421,13.421,0,0,0,5.527-1.494,12.7,12.7,0,0,1,2.873-1.023c.366-.061.7-.1,1.016-.122a1.136,1.136,0,1,0-.152-2.267Z" transform="translate(-5957.279 -601.271)" fill="#1e243a"/>
            </g>
            <g id="Grupo_14409" data-name="Grupo 14409" transform="translate(5.406 7.156)">
              <path id="Trazado_24760" data-name="Trazado 24760" d="M5922.939,607.6a11.169,11.169,0,0,1-2.059-.865,1.136,1.136,0,1,0-1.081,2,13.473,13.473,0,0,0,2.479,1.04,1.136,1.136,0,0,0,.661-2.174Z" transform="translate(-5919.204 -606.594)" fill="#1e243a"/>
            </g>
          </g>
          <g id="Grupo_14411" data-name="Grupo 14411" transform="translate(0 59.004)">
            <path id="Trazado_24761" data-name="Trazado 24761" d="M5861.638,948.9h-8.523a1.135,1.135,0,0,0-.322.047,41.058,41.058,0,0,1-24.3,0,1.14,1.14,0,0,0-.339-.052H5817.9a13.309,13.309,0,0,0-13.293,13.293v15.349a1.136,1.136,0,0,0,1.137,1.136h68.055a1.136,1.136,0,0,0,1.136-1.136V962.191A13.309,13.309,0,0,0,5861.638,948.9Zm11.021,27.507h-65.784V962.191A11.034,11.034,0,0,1,5817.9,951.17h10.088a43.273,43.273,0,0,0,25.293,0h8.359a11.034,11.034,0,0,1,11.021,11.021Z" transform="translate(-5804.604 -948.898)" fill="#1e243a"/>
          </g>
        </g>
        <g id="Grupo_14413" data-name="Grupo 14413" transform="translate(65.828 86.511)">
          <path id="Trazado_24762" data-name="Trazado 24762" d="M6247.458,1130.5h-7.119a1.136,1.136,0,0,0,0,2.272h7.119a1.136,1.136,0,0,0,0-2.272Z" transform="translate(-6239.203 -1130.5)" fill="#1e243a"/>
        </g>
      </g>
    </g>
    <g id="Grupo_14654" data-name="Grupo 14654" transform="translate(1216.688 129.035)">
      <g id="Color-3" data-name="Color" transform="translate(4.597 0.635)">
        <g id="Grupo_14535" data-name="Grupo 14535" transform="translate(16.61 96.112)">
          <path id="Trazado_24942" data-name="Trazado 24942" d="M11362.938,1476.034h-85.057v2.21a4.6,4.6,0,0,0,4.6,4.6h71.04l48.015-4.6v-2.21h-38.6Z" transform="translate(-11277.882 -1476.034)" fill="#e1e1e5"/>
        </g>
        <g id="Grupo_14536" data-name="Grupo 14536" transform="translate(24.858 31.706)">
          <path id="Trazado_24943" data-name="Trazado 24943" d="M11455.755,883.288h-38.92l-63.045,13.986v50.092l107-.481V888.124A4.906,4.906,0,0,0,11455.755,883.288Z" transform="translate(-11353.79 -883.288)" fill="#e1e1e5"/>
        </g>
        <g id="Grupo_14537" data-name="Grupo 14537" transform="translate(32.071 38.679)">
          <path id="Trazado_24944" data-name="Trazado 24944" d="M11420.176,954.908v44.258l68.363-.04,4.927,0,19.521-.011V947.46h-36.546Z" transform="translate(-11420.176 -947.46)" fill="#fff"/>
        </g>
        <g id="Grupo_14538" data-name="Grupo 14538" transform="translate(80.068 47.702)">
          <rect id="Rect치ngulo_2762" data-name="Rect치ngulo 2762" width="48.113" height="27.925" fill="#fcd118"/>
        </g>
        <g id="Grupo_14539" data-name="Grupo 14539" transform="translate(0.292 1.305)">
          <path id="Trazado_24945" data-name="Trazado 24945" d="M11209.565,603.5h-76.908a4.955,4.955,0,0,0-4.954,4.955v33.988a4.955,4.955,0,0,0,4.954,4.955h56.361l11.322,11.463-.675-11.463h9.9a4.954,4.954,0,0,0,4.954-4.955V608.455A4.954,4.954,0,0,0,11209.565,603.5Z" transform="translate(-11127.703 -603.5)" fill="#4a91d6"/>
        </g>
        <g id="Grupo_14540" data-name="Grupo 14540" transform="translate(0 0)">
          <circle id="Elipse_740" data-name="Elipse 740" cx="12.34" cy="12.34" r="12.34" transform="translate(0 17.452) rotate(-45)" fill="#fff"/>
        </g>
        <g id="Grupo_14541" data-name="Grupo 14541" transform="translate(32.753 5.128)">
          <path id="Trazado_24946" data-name="Trazado 24946" d="M11435.756,644.155l-1.776-5.467-1.776,5.467h-5.749l4.65,3.379-1.776,5.467,4.651-3.379,4.65,3.379-1.776-5.467,4.649-3.379Z" transform="translate(-11426.454 -638.689)" fill="#e1e1e5"/>
        </g>
        <g id="Grupo_14542" data-name="Grupo 14542" transform="translate(51.116 5.128)">
          <path id="Trazado_24947" data-name="Trazado 24947" d="M11604.755,644.155l-1.776-5.467-1.776,5.467h-5.748l4.65,3.379-1.776,5.467,4.65-3.379,4.65,3.379-1.775-5.467,4.65-3.379Z" transform="translate(-11595.454 -638.689)" fill="#e1e1e5"/>
        </g>
        <g id="Grupo_14543" data-name="Grupo 14543" transform="translate(68.719 5.128)">
          <path id="Trazado_24948" data-name="Trazado 24948" d="M11766.756,644.155l-1.775-5.467-1.777,5.467h-5.746l4.648,3.379L11760.33,653l4.65-3.379,4.648,3.379-1.775-5.467,4.65-3.379Z" transform="translate(-11757.457 -638.689)" fill="#e1e1e5"/>
        </g>
        <g id="Grupo_14546" data-name="Grupo 14546" transform="translate(9.242 7.412)">
          <g id="Grupo_14544" data-name="Grupo 14544" transform="translate(0 9.276)">
            <path id="Trazado_24949" data-name="Trazado 24949" d="M11221.74,745.076l-6.975.014a8.2,8.2,0,0,0-4.691,7.41v2.363c5.3,5.082,10.808,3.769,16.389,0V752.5A8.2,8.2,0,0,0,11221.74,745.076Z" transform="translate(-11210.074 -745.076)" fill="#e1e1e5"/>
          </g>
          <g id="Grupo_14545" data-name="Grupo 14545" transform="translate(2.353 0)">
            <ellipse id="Elipse_741" data-name="Elipse 741" cx="4.776" cy="4.776" rx="4.776" ry="4.776" transform="translate(0 2.452) rotate(-14.872)" fill="#e1e1e5"/>
          </g>
        </g>
        <g id="Grupo_14547" data-name="Grupo 14547" transform="translate(92.705 84.591)">
          <path id="Trazado_24950" data-name="Trazado 24950" d="M12047.386,1384.886h-47.522L11985.044,1370l3.828,14.886h-6.507a4.1,4.1,0,0,0-4.162,4.032v25.511a4.1,4.1,0,0,0,4.162,4.032h65.021a4.1,4.1,0,0,0,4.162-4.032v-25.511A4.1,4.1,0,0,0,12047.386,1384.886Z" transform="translate(-11978.203 -1370)" fill="#5ed45e"/>
        </g>
        <g id="Grupo_14548" data-name="Grupo 14548" transform="translate(96.357 102.665)">
          <ellipse id="Elipse_742" data-name="Elipse 742" cx="12.34" cy="12.34" rx="12.34" ry="12.34" fill="#fff"/>
        </g>
        <g id="Grupo_14551" data-name="Grupo 14551" transform="translate(99.971 106.378)">
          <g id="Grupo_14549" data-name="Grupo 14549" transform="translate(0 8.21)">
            <path id="Trazado_24951" data-name="Trazado 24951" d="M12056.741,1646.076l-6.975.014a8.2,8.2,0,0,0-4.692,7.41v2.363c5.3,5.082,10.809,3.769,16.389,0V1653.5A8.194,8.194,0,0,0,12056.741,1646.076Z" transform="translate(-12045.074 -1646.076)" fill="#e1e1e5"/>
          </g>
          <g id="Grupo_14550" data-name="Grupo 14550" transform="translate(3.418)">
            <path id="Trazado_24952" data-name="Trazado 24952" d="M12081.31,1570.515a4.776,4.776,0,1,0,4.776,4.776A4.777,4.777,0,0,0,12081.31,1570.515Z" transform="translate(-12076.533 -1570.515)" fill="#e1e1e5"/>
          </g>
        </g>
        <g id="Grupo_14552" data-name="Grupo 14552" transform="translate(124.352 101.616)">
          <path id="Trazado_24953" data-name="Trazado 24953" d="M12278.755,1532.155l-1.775-5.467-1.776,5.467h-5.749l4.651,3.379-1.776,5.467,4.65-3.379,4.649,3.379-1.776-5.467,4.65-3.379Z" transform="translate(-12269.454 -1526.688)" fill="#fcd118"/>
        </g>
        <g id="Grupo_14553" data-name="Grupo 14553" transform="translate(142.28 101.616)">
          <path id="Trazado_24954" data-name="Trazado 24954" d="M12441.978,1526.688l-1.776,5.467h-5.748l4.65,3.379-1.775,5.467,4.649-3.379,4.651,3.379-1.775-5.467,4.648-3.379h-5.747Z" transform="translate(-12434.453 -1526.688)" fill="#fcd118"/>
        </g>
        <g id="Grupo_14554" data-name="Grupo 14554" transform="translate(27.891 61.066)">
          <rect id="Rect치ngulo_2763" data-name="Rect치ngulo 2763" width="29.555" height="18.037" fill="#fcd118"/>
        </g>
      </g>
      <g id="CUSTOMER" transform="translate(0 0)">
        <g id="Grupo_14555" data-name="Grupo 14555" transform="translate(149.902 11.409)">
          <path id="Trazado_24955" data-name="Trazado 24955" d="M12490.293,774.495a1.087,1.087,0,1,0,.67,1.384A1.087,1.087,0,0,0,12490.293,774.495Z" transform="translate(-12485.962 -765.33)" fill="#1f6898"/>
          <path id="Trazado_24956" data-name="Trazado 24956" d="M12468.082,710.831a1.087,1.087,0,1,0,.343,1.5A1.088,1.088,0,0,0,12468.082,710.831Z" transform="translate(-12465.969 -708.49)" fill="#1f6898"/>
          <path id="Trazado_24957" data-name="Trazado 24957" d="M12463.009,748.014a1.086,1.086,0,1,0,1.384.665A1.085,1.085,0,0,0,12463.009,748.014Z" transform="translate(-12462.28 -741.725)" fill="#1f6898"/>
          <path id="Trazado_24958" data-name="Trazado 24958" d="M12526.632,770.369a1.087,1.087,0,0,0,.581,2.006,1.073,1.073,0,0,0,.578-.167,1.087,1.087,0,0,0-1.159-1.839Z" transform="translate(-12519.187 -761.557)" fill="#1f6898"/>
          <path id="Trazado_24959" data-name="Trazado 24959" d="M12547.266,738.435a1.086,1.086,0,1,0-.242,2.159.946.946,0,0,0,.123.008,1.087,1.087,0,0,0,.119-2.167Z" transform="translate(-12536.955 -733.236)" fill="#1f6898"/>
          <path id="Trazado_24960" data-name="Trazado 24960" d="M12499.1,690.651a1.086,1.086,0,0,0,.123,2.165,1.219,1.219,0,0,0,.125-.006,1.087,1.087,0,0,0-.248-2.159Z" transform="translate(-12494.237 -690.644)" fill="#1f6898"/>
          <path id="Trazado_24961" data-name="Trazado 24961" d="M12533.9,704.8a.011.011,0,0,1,0,0,1.087,1.087,0,0,0,1.537-1.537l0,0s0-.005-.007-.008a1.087,1.087,0,1,0-1.533,1.541Z" transform="translate(-12525.825 -701.602)" fill="#1f6898"/>
        </g>
        <g id="Grupo_14556" data-name="Grupo 14556" transform="translate(8.321 85.188)">
          <path id="Trazado_24962" data-name="Trazado 24962" d="M11165.08,1389.831a1.087,1.087,0,1,0,.344,1.5A1.085,1.085,0,0,0,11165.08,1389.831Z" transform="translate(-11162.968 -1387.49)" fill="#1f6898"/>
          <path id="Trazado_24963" data-name="Trazado 24963" d="M11160.012,1427.014a1.086,1.086,0,1,0,1.384.665A1.086,1.086,0,0,0,11160.012,1427.014Z" transform="translate(-11159.284 -1420.725)" fill="#1f6898"/>
          <path id="Trazado_24964" data-name="Trazado 24964" d="M11230.9,1383.8l0,0a.079.079,0,0,1,.01.009,1.086,1.086,0,0,0,1.527-1.545s-.01-.009-.012-.012a1.086,1.086,0,1,0-1.531,1.541S11230.9,1383.8,11230.9,1383.8Z" transform="translate(-11222.828 -1380.602)" fill="#1f6898"/>
          <path id="Trazado_24965" data-name="Trazado 24965" d="M11187.293,1453.5a1.087,1.087,0,0,0-.715,2.052,1.116,1.116,0,0,0,.357.06,1.086,1.086,0,0,0,.357-2.112Z" transform="translate(-11182.962 -1444.335)" fill="#1f6898"/>
          <path id="Trazado_24966" data-name="Trazado 24966" d="M11196.095,1369.651a1.086,1.086,0,0,0,.123,2.166,1.2,1.2,0,0,0,.125-.007,1.087,1.087,0,0,0-.248-2.159Z" transform="translate(-11191.236 -1369.644)" fill="#1f6898"/>
          <path id="Trazado_24967" data-name="Trazado 24967" d="M11244.265,1417.433a1.086,1.086,0,1,0-.241,2.159,1.158,1.158,0,0,0,.124.008,1.087,1.087,0,0,0,.117-2.167Z" transform="translate(-11233.955 -1412.234)" fill="#1f6898"/>
          <path id="Trazado_24968" data-name="Trazado 24968" d="M11223.632,1449.369a1.087,1.087,0,0,0,.581,2.006,1.072,1.072,0,0,0,.578-.167,1.087,1.087,0,0,0-1.159-1.839Z" transform="translate(-11216.188 -1440.557)" fill="#1f6898"/>
        </g>
        <g id="Grupo_14559" data-name="Grupo 14559" transform="translate(156.421 54.655)">
          <path id="Trazado_24983" data-name="Trazado 24983" d="M12528.081,1108.831a1.087,1.087,0,1,0,.343,1.5A1.086,1.086,0,0,0,12528.081,1108.831Z" transform="translate(-12525.968 -1106.49)" fill="#1f6898"/>
          <path id="Trazado_24984" data-name="Trazado 24984" d="M12523.008,1146.014a1.087,1.087,0,1,0,1.386.665A1.09,1.09,0,0,0,12523.008,1146.014Z" transform="translate(-12522.281 -1139.725)" fill="#1f6898"/>
          <path id="Trazado_24985" data-name="Trazado 24985" d="M12550.293,1172.5a1.086,1.086,0,1,0,.669,1.383A1.086,1.086,0,0,0,12550.293,1172.5Z" transform="translate(-12545.961 -1163.335)" fill="#1f6898"/>
          <path id="Trazado_24986" data-name="Trazado 24986" d="M12593.9,1102.8a.008.008,0,0,1,0,0,1.087,1.087,0,1,0,1.537-1.538l0,0s-.006-.005-.007-.009a1.087,1.087,0,0,0-1.533,1.542S12593.9,1102.8,12593.9,1102.8Z" transform="translate(-12585.827 -1099.601)" fill="#1f6898"/>
          <path id="Trazado_24987" data-name="Trazado 24987" d="M12607.264,1136.435a1.087,1.087,0,1,0-.24,2.16,1.154,1.154,0,0,0,.123.006,1.087,1.087,0,0,0,.117-2.167Z" transform="translate(-12596.953 -1131.236)" fill="#1f6898"/>
          <path id="Trazado_24988" data-name="Trazado 24988" d="M12586.63,1168.373a1.087,1.087,0,1,0,1.5.339A1.084,1.084,0,0,0,12586.63,1168.373Z" transform="translate(-12579.185 -1159.56)" fill="#1f6898"/>
          <path id="Trazado_24989" data-name="Trazado 24989" d="M12559.1,1088.651a1.086,1.086,0,0,0,.124,2.166c.04,0,.082,0,.123-.007h0a1.087,1.087,0,0,0-.249-2.159Z" transform="translate(-12554.238 -1088.644)" fill="#1f6898"/>
        </g>
        <g id="Grupo_14564" data-name="Grupo 14564" transform="translate(127.021 13.784)">
          <g id="Grupo_14562" data-name="Grupo 14562" transform="translate(2.553)">
            <path id="Trazado_25006" data-name="Trazado 25006" d="M12276.018,712.5a.814.814,0,0,0-.814.815v5.216a.814.814,0,1,0,1.629,0v-5.216A.814.814,0,0,0,12276.018,712.5Z" transform="translate(-12275.203 -712.5)" fill="#1f6898"/>
          </g>
          <g id="Grupo_14563" data-name="Grupo 14563" transform="translate(0 2.662)">
            <path id="Trazado_25007" data-name="Trazado 25007" d="M12257.734,737h-5.216a.815.815,0,0,0,0,1.63h5.216a.815.815,0,0,0,0-1.63Z" transform="translate(-12251.704 -737)" fill="#1f6898"/>
          </g>
        </g>
        <g id="Grupo_14567" data-name="Grupo 14567" transform="translate(7.606 68.004)">
          <g id="Grupo_14565" data-name="Grupo 14565" transform="translate(2.553)">
            <path id="Trazado_25008" data-name="Trazado 25008" d="M11177.017,1211.5a.814.814,0,0,0-.814.815v5.216a.815.815,0,1,0,1.63,0v-5.216A.815.815,0,0,0,11177.017,1211.5Z" transform="translate(-11176.202 -1211.5)" fill="#1f6898"/>
          </g>
          <g id="Grupo_14566" data-name="Grupo 14566" transform="translate(0 2.662)">
            <path id="Trazado_25009" data-name="Trazado 25009" d="M11158.732,1236h-5.216a.815.815,0,0,0,0,1.63h5.216a.815.815,0,1,0,0-1.63Z" transform="translate(-11152.702 -1236)" fill="#1f6898"/>
          </g>
        </g>
        <g id="Grupo_14570" data-name="Grupo 14570" transform="translate(1.413 124.941)">
          <g id="Grupo_14568" data-name="Grupo 14568" transform="translate(2.553)">
            <path id="Trazado_25010" data-name="Trazado 25010" d="M11120.017,1735.5a.813.813,0,0,0-.812.815v5.216a.814.814,0,1,0,1.629,0v-5.216A.815.815,0,0,0,11120.017,1735.5Z" transform="translate(-11119.204 -1735.5)" fill="#1f6898"/>
          </g>
          <g id="Grupo_14569" data-name="Grupo 14569" transform="translate(0 2.662)">
            <path id="Trazado_25011" data-name="Trazado 25011" d="M11101.733,1760h-5.215a.815.815,0,1,0,0,1.63h5.215a.815.815,0,1,0,0-1.63Z" transform="translate(-11095.702 -1760)" fill="#1f6898"/>
          </g>
        </g>
        <g id="Grupo_14573" data-name="Grupo 14573" transform="translate(46.723 118.095)">
          <g id="Grupo_14571" data-name="Grupo 14571" transform="translate(2.553)">
            <path id="Trazado_25012" data-name="Trazado 25012" d="M11537.016,1672.5a.814.814,0,0,0-.813.815v5.216a.815.815,0,1,0,1.63,0v-5.216A.815.815,0,0,0,11537.016,1672.5Z" transform="translate(-11536.202 -1672.5)" fill="#1f6898"/>
          </g>
          <g id="Grupo_14572" data-name="Grupo 14572" transform="translate(0 2.662)">
            <path id="Trazado_25013" data-name="Trazado 25013" d="M11518.733,1697h-5.216a.815.815,0,0,0,0,1.63h5.216a.815.815,0,1,0,0-1.63Z" transform="translate(-11512.703 -1697)" fill="#1f6898"/>
          </g>
        </g>
        <g id="Grupo_14576" data-name="Grupo 14576" transform="translate(144.949 82.456)">
          <g id="Grupo_14574" data-name="Grupo 14574" transform="translate(2.553)">
            <path id="Trazado_25014" data-name="Trazado 25014" d="M12441.017,1344.5a.815.815,0,0,0-.814.815v5.216a.815.815,0,1,0,1.63,0v-5.216A.815.815,0,0,0,12441.017,1344.5Z" transform="translate(-12440.202 -1344.5)" fill="#1f6898"/>
          </g>
          <g id="Grupo_14575" data-name="Grupo 14575" transform="translate(0 2.662)">
            <path id="Trazado_25015" data-name="Trazado 25015" d="M12422.732,1369h-5.214a.815.815,0,1,0,0,1.63h5.214a.815.815,0,1,0,0-1.63Z" transform="translate(-12416.702 -1369)" fill="#1f6898"/>
          </g>
        </g>
        <g id="Grupo_14579" data-name="Grupo 14579" transform="translate(147.557 35.841)">
          <g id="Grupo_14577" data-name="Grupo 14577" transform="translate(2.553)">
            <path id="Trazado_25016" data-name="Trazado 25016" d="M12465.018,915.5a.813.813,0,0,0-.812.815v5.216a.814.814,0,1,0,1.628,0v-5.216A.815.815,0,0,0,12465.018,915.5Z" transform="translate(-12464.205 -915.5)" fill="#1f6898"/>
          </g>
          <g id="Grupo_14578" data-name="Grupo 14578" transform="translate(0 2.662)">
            <path id="Trazado_25017" data-name="Trazado 25017" d="M12446.733,940h-5.216a.815.815,0,1,0,0,1.63h5.216a.815.815,0,0,0,0-1.63Z" transform="translate(-12440.702 -940)" fill="#1f6898"/>
          </g>
        </g>
        <g id="Grupo_14597" data-name="Grupo 14597" transform="translate(4.075 1.125)">
          <g id="Grupo_14580" data-name="Grupo 14580">
            <path id="Trazado_25018" data-name="Trazado 25018" d="M11202.88,596h-76.907a5.777,5.777,0,0,0-5.77,5.77v33.988a5.777,5.777,0,0,0,5.77,5.77h56.021l11.083,11.221a.815.815,0,0,0,1.394-.62l-.624-10.6h9.034a5.777,5.777,0,0,0,5.771-5.77V601.77A5.777,5.777,0,0,0,11202.88,596Zm4.142,39.758a4.145,4.145,0,0,1-4.142,4.14h-9.9a.817.817,0,0,0-.814.863l.548,9.3-9.8-9.924a.815.815,0,0,0-.581-.242h-56.359a4.144,4.144,0,0,1-4.14-4.14V601.77a4.144,4.144,0,0,1,4.14-4.14h76.907a4.145,4.145,0,0,1,4.142,4.14Z" transform="translate(-11120.203 -596)" fill="#1f6898"/>
          </g>
          <g id="Grupo_14586" data-name="Grupo 14586" transform="translate(4.82 3.807)">
            <g id="Grupo_14581" data-name="Grupo 14581">
              <path id="Trazado_25019" data-name="Trazado 25019" d="M11177.716,631.035a13.155,13.155,0,1,0,13.156,13.155A13.17,13.17,0,0,0,11177.716,631.035Zm0,24.681a11.525,11.525,0,1,1,11.525-11.525A11.538,11.538,0,0,1,11177.716,655.716Z" transform="translate(-11164.561 -631.035)" fill="#1f6898"/>
            </g>
            <g id="Grupo_14585" data-name="Grupo 14585" transform="translate(4.13 3.366)">
              <g id="Grupo_14582" data-name="Grupo 14582" transform="translate(0 8.224)">
                <path id="Trazado_25020" data-name="Trazado 25020" d="M11207.732,737.777a9.052,9.052,0,0,0-5.158,8.147v2.363a.814.814,0,1,0,1.629,0v-2.363a7.418,7.418,0,0,1,4.228-6.674.815.815,0,0,0-.7-1.473Z" transform="translate(-11202.574 -737.698)" fill="#1f6898"/>
              </g>
              <g id="Grupo_14583" data-name="Grupo 14583" transform="translate(11.667 8.21)">
                <path id="Trazado_25021" data-name="Trazado 25021" d="M11311.107,737.653a.815.815,0,1,0-.69,1.476,7.413,7.413,0,0,1,4.251,6.686v2.363a.815.815,0,0,0,1.631,0v-2.363A9.047,9.047,0,0,0,11311.107,737.653Z" transform="translate(-11309.946 -737.576)" fill="#1f6898"/>
              </g>
              <g id="Grupo_14584" data-name="Grupo 14584" transform="translate(3.418)">
                <path id="Trazado_25022" data-name="Trazado 25022" d="M11239.624,662.015a5.591,5.591,0,1,0,5.59,5.591A5.6,5.6,0,0,0,11239.624,662.015Zm0,9.551a3.961,3.961,0,1,1,3.962-3.961A3.966,3.966,0,0,1,11239.624,671.566Z" transform="translate(-11234.033 -662.015)" fill="#1f6898"/>
              </g>
            </g>
          </g>
          <g id="Grupo_14587" data-name="Grupo 14587" transform="translate(32.462 3.824)">
            <path id="Trazado_25023" data-name="Trazado 25023" d="M11434.817,636.656h-5.157l-1.592-4.9a.815.815,0,0,0-1.551,0l-1.592,4.9h-5.158a.815.815,0,0,0-.478,1.474l4.171,3.031-1.593,4.9a.815.815,0,0,0,1.254.911l4.171-3.031,4.171,3.031a.816.816,0,0,0,1.255-.911l-1.592-4.9,4.171-3.031a.815.815,0,0,0-.48-1.474Zm-5.129,3.534a.814.814,0,0,0-.3.911l1,3.081-2.621-1.9a.814.814,0,0,0-.957,0l-2.623,1.9,1-3.081a.819.819,0,0,0-.295-.911l-2.622-1.9h3.24a.814.814,0,0,0,.774-.563l1-3.081,1,3.081a.814.814,0,0,0,.774.563h3.239Z" transform="translate(-11418.953 -631.189)" fill="#1f6898"/>
          </g>
          <g id="Grupo_14588" data-name="Grupo 14588" transform="translate(50.825 3.824)">
            <path id="Trazado_25024" data-name="Trazado 25024" d="M11603.817,636.656h-5.155l-1.593-4.9a.815.815,0,0,0-1.551,0l-1.593,4.9h-5.157a.815.815,0,0,0-.479,1.474l4.171,3.031-1.592,4.9a.814.814,0,0,0,1.253.911l4.172-3.031,4.172,3.031a.814.814,0,0,0,1.253-.911l-1.593-4.9,4.171-3.031a.815.815,0,0,0-.479-1.474Zm-5.129,3.534a.817.817,0,0,0-.3.911l1,3.081-2.62-1.9a.815.815,0,0,0-.958,0l-2.622,1.9,1-3.081a.814.814,0,0,0-.3-.911l-2.621-1.9h3.24a.816.816,0,0,0,.775-.563l1-3.081,1,3.081a.815.815,0,0,0,.774.563h3.239Z" transform="translate(-11587.954 -631.189)" fill="#1f6898"/>
          </g>
          <g id="Grupo_14589" data-name="Grupo 14589" transform="translate(68.427 3.824)">
            <path id="Trazado_25025" data-name="Trazado 25025" d="M11765.819,636.656h-5.157l-1.593-4.9a.815.815,0,0,0-1.55,0l-1.593,4.9h-5.156a.815.815,0,0,0-.479,1.474l4.171,3.031-1.593,4.9a.814.814,0,0,0,.773,1.067.825.825,0,0,0,.48-.156l4.171-3.031,4.171,3.031a.816.816,0,0,0,1.256-.911l-1.6-4.9,4.171-3.031a.814.814,0,0,0-.478-1.474Zm-5.129,3.534a.814.814,0,0,0-.3.911l1,3.081-2.623-1.9a.812.812,0,0,0-.956,0l-2.622,1.9,1-3.081a.816.816,0,0,0-.3-.911l-2.621-1.9h3.241a.818.818,0,0,0,.775-.563l1-3.081,1,3.081a.817.817,0,0,0,.775.563h3.24Z" transform="translate(-11749.955 -631.189)" fill="#1f6898"/>
          </g>
          <g id="Grupo_14592" data-name="Grupo 14592" transform="translate(31.782 24.176)">
            <g id="Grupo_14590" data-name="Grupo 14590">
              <path id="Trazado_25026" data-name="Trazado 25026" d="M11423.4,818.5h-9.888a.815.815,0,0,0,0,1.63h9.888a.815.815,0,1,0,0-1.63Z" transform="translate(-11412.704 -818.5)" fill="#1f6898"/>
            </g>
            <g id="Grupo_14591" data-name="Grupo 14591" transform="translate(18.146)">
              <path id="Trazado_25027" data-name="Trazado 25027" d="M11606.6,818.5h-26.077a.815.815,0,1,0,0,1.63h26.077a.815.815,0,1,0,0-1.63Z" transform="translate(-11579.702 -818.5)" fill="#1f6898"/>
            </g>
          </g>
          <g id="Grupo_14593" data-name="Grupo 14593" transform="translate(26.458 30.297)">
            <path id="Trazado_25028" data-name="Trazado 25028" d="M11398.638,874.833h-34.119a.815.815,0,0,0,0,1.63h34.119a.815.815,0,0,0,0-1.63Z" transform="translate(-11363.704 -874.833)" fill="#1f6898"/>
          </g>
          <g id="Grupo_14596" data-name="Grupo 14596" transform="translate(5.813 36.418)">
            <g id="Grupo_14594" data-name="Grupo 14594" transform="translate(0 0.036)">
              <path id="Trazado_25029" data-name="Trazado 25029" d="M11205.484,931.5h-30.967a.815.815,0,0,0,0,1.63h30.967a.815.815,0,1,0,0-1.63Z" transform="translate(-11173.703 -931.5)" fill="#1f6898"/>
            </g>
            <g id="Grupo_14595" data-name="Grupo 14595" transform="translate(40.312)">
              <path id="Trazado_25030" data-name="Trazado 25030" d="M11575.4,931.239l-29.88-.072h0a.815.815,0,0,0,0,1.63l29.881.072h0a.815.815,0,1,0,0-1.63Z" transform="translate(-11544.705 -931.167)" fill="#1f6898"/>
            </g>
          </g>
        </g>
        <g id="Grupo_14610" data-name="Grupo 14610" transform="translate(96.488 84.411)">
          <g id="Grupo_14603" data-name="Grupo 14603" transform="translate(3.136 18.421)">
            <g id="Grupo_14598" data-name="Grupo 14598">
              <path id="Trazado_25031" data-name="Trazado 25031" d="M12012.718,1532.035a13.155,13.155,0,1,0,13.154,13.155A13.171,13.171,0,0,0,12012.718,1532.035Zm0,24.681a11.525,11.525,0,1,1,11.524-11.526A11.539,11.539,0,0,1,12012.718,1556.716Z" transform="translate(-11999.561 -1532.035)" fill="#1f6898"/>
            </g>
            <g id="Grupo_14602" data-name="Grupo 14602" transform="translate(4.13 3.366)">
              <g id="Grupo_14599" data-name="Grupo 14599" transform="translate(0 8.224)">
                <path id="Trazado_25032" data-name="Trazado 25032" d="M12042.732,1638.777a9.053,9.053,0,0,0-5.158,8.147v2.363a.814.814,0,1,0,1.629,0v-2.363a7.417,7.417,0,0,1,4.228-6.674.815.815,0,0,0-.7-1.473Z" transform="translate(-12037.574 -1638.698)" fill="#1f6898"/>
              </g>
              <g id="Grupo_14600" data-name="Grupo 14600" transform="translate(11.667 8.21)">
                <path id="Trazado_25033" data-name="Trazado 25033" d="M12146.108,1638.652a.815.815,0,1,0-.691,1.476,7.413,7.413,0,0,1,4.251,6.686v2.363a.815.815,0,1,0,1.63,0v-2.363A9.049,9.049,0,0,0,12146.108,1638.652Z" transform="translate(-12144.947 -1638.575)" fill="#1f6898"/>
              </g>
              <g id="Grupo_14601" data-name="Grupo 14601" transform="translate(3.418)">
                <path id="Trazado_25034" data-name="Trazado 25034" d="M12074.624,1563.015a5.591,5.591,0,1,0,5.589,5.59A5.6,5.6,0,0,0,12074.624,1563.015Zm0,9.551a3.961,3.961,0,1,1,3.959-3.961A3.966,3.966,0,0,1,12074.624,1572.566Z" transform="translate(-12069.033 -1563.015)" fill="#1f6898"/>
              </g>
            </g>
          </g>
          <g id="Grupo_14604" data-name="Grupo 14604" transform="translate(31.647 17.025)">
            <path id="Trazado_25035" data-name="Trazado 25035" d="M12277.818,1524.656h-5.156l-1.594-4.9a.814.814,0,0,0-1.549,0l-1.594,4.9h-5.156a.815.815,0,0,0-.479,1.474l4.172,3.031-1.594,4.9a.815.815,0,0,0,1.254.911l4.172-3.031,4.17,3.031a.815.815,0,0,0,1.254-.911l-1.592-4.9,4.17-3.031a.815.815,0,0,0-.479-1.474Zm-5.131,3.534a.815.815,0,0,0-.295.911l1,3.081-2.621-1.9a.816.816,0,0,0-.959,0l-2.621,1.9,1-3.081a.816.816,0,0,0-.3-.911l-2.621-1.9h3.24a.815.815,0,0,0,.775-.563l1-3.081,1,3.081a.815.815,0,0,0,.775.563h3.24Z" transform="translate(-12261.954 -1519.189)" fill="#1f6898"/>
          </g>
          <g id="Grupo_14605" data-name="Grupo 14605" transform="translate(49.575 17.025)">
            <path id="Trazado_25036" data-name="Trazado 25036" d="M12442.817,1524.656h-5.156l-1.593-4.9a.814.814,0,0,0-1.549,0l-1.594,4.9h-5.156a.815.815,0,0,0-.479,1.474l4.171,3.031-1.593,4.9a.815.815,0,0,0,1.255.911l4.172-3.031,4.17,3.031a.815.815,0,0,0,1.255-.911l-1.594-4.9,4.172-3.031a.815.815,0,0,0-.48-1.474Zm-5.129,3.534a.815.815,0,0,0-.3.911l1,3.081-2.621-1.9a.814.814,0,0,0-.958,0l-2.621,1.9,1-3.081a.817.817,0,0,0-.3-.911l-2.62-1.9h3.238a.814.814,0,0,0,.775-.563l1-3.081,1,3.081a.812.812,0,0,0,.774.563h3.239Z" transform="translate(-12426.954 -1519.189)" fill="#1f6898"/>
          </g>
          <g id="Grupo_14606" data-name="Grupo 14606">
            <path id="Trazado_25037" data-name="Trazado 25037" d="M12040.7,1377.386h-47.186l-14.579-14.646a.815.815,0,0,0-1.367.778l3.565,13.868h-5.456a4.918,4.918,0,0,0-4.976,4.847v25.511a4.918,4.918,0,0,0,4.976,4.847h65.022a4.918,4.918,0,0,0,4.975-4.847v-25.511A4.917,4.917,0,0,0,12040.7,1377.386Zm3.346,30.358a3.287,3.287,0,0,1-3.346,3.217h-65.022a3.287,3.287,0,0,1-3.346-3.217v-25.511a3.287,3.287,0,0,1,3.346-3.217h6.508a.815.815,0,0,0,.789-1.018l-3.082-11.986,12.706,12.764a.814.814,0,0,0,.578.24h47.523a3.287,3.287,0,0,1,3.346,3.217Z" transform="translate(-11970.704 -1362.5)" fill="#1f6898"/>
          </g>
          <g id="Grupo_14607" data-name="Grupo 14607" transform="translate(30.967 36.292)">
            <path id="Trazado_25038" data-name="Trazado 25038" d="M12267.384,1696.5h-10.865a.815.815,0,1,0,0,1.63h10.865a.815.815,0,0,0,0-1.63Z" transform="translate(-12255.703 -1696.5)" fill="#1f6898"/>
          </g>
          <g id="Grupo_14608" data-name="Grupo 14608" transform="translate(47.592 36.292)">
            <path id="Trazado_25039" data-name="Trazado 25039" d="M12428.969,1696.5h-19.45a.815.815,0,1,0,0,1.63h19.45a.815.815,0,0,0,0-1.63Z" transform="translate(-12408.703 -1696.5)" fill="#1f6898"/>
          </g>
          <g id="Grupo_14609" data-name="Grupo 14609" transform="translate(28.794 42.485)">
            <path id="Trazado_25040" data-name="Trazado 25040" d="M12258.792,1753.5h-22.274a.815.815,0,1,0,0,1.63h22.274a.815.815,0,1,0,0-1.63Z" transform="translate(-12235.702 -1753.5)" fill="#1f6898"/>
          </g>
        </g>
        <g id="Grupo_14611" data-name="Grupo 14611" transform="translate(56.067 132.873)">
          <path id="Trazado_25041" data-name="Trazado 25041" d="M11610.494,1808.5h-10.976a.815.815,0,0,0,0,1.63h10.976a.815.815,0,0,0,0-1.63Z" transform="translate(-11598.704 -1808.5)" fill="#1f6898"/>
        </g>
        <g id="Grupo_14612" data-name="Grupo 14612" transform="translate(78.451 132.873)">
          <path id="Trazado_25042" data-name="Trazado 25042" d="M11825.932,1808.5h-20.412a.815.815,0,1,0,0,1.63h20.412a.815.815,0,0,0,0-1.63Z" transform="translate(-11804.703 -1808.5)" fill="#1f6898"/>
        </g>
        <g id="Grupo_14613" data-name="Grupo 14613" transform="translate(0.869 102.775)">
          <path id="Trazado_25043" data-name="Trazado 25043" d="M11096.732,1531.5h-5.215a.815.815,0,0,0,0,1.63h5.215a.815.815,0,1,0,0-1.63Z" transform="translate(-11090.703 -1531.5)" fill="#1f6898"/>
        </g>
        <g id="Grupo_14614" data-name="Grupo 14614" transform="translate(13.039 102.775)">
          <path id="Trazado_25044" data-name="Trazado 25044" d="M11217.535,1531.5h-14.016a.815.815,0,1,0,0,1.63h14.016a.815.815,0,0,0,0-1.63Z" transform="translate(-11202.703 -1531.5)" fill="#1f6898"/>
        </g>
        <g id="Grupo_14615" data-name="Grupo 14615" transform="translate(0 45.077)">
          <path id="Trazado_25045" data-name="Trazado 25045" d="M11095.035,1000.5h-11.518a.815.815,0,1,0,0,1.63h11.518a.815.815,0,1,0,0-1.63Z" transform="translate(-11082.702 -1000.5)" fill="#1f6898"/>
        </g>
        <g id="Grupo_14651" data-name="Grupo 14651" transform="translate(20.393 31.526)">
          <g id="Grupo_14625" data-name="Grupo 14625">
            <g id="Grupo_14616" data-name="Grupo 14616" transform="translate(94.472 64.406)">
              <path id="Trazado_25046" data-name="Trazado 25046" d="M12169.829,1468.534h-29.182a.815.815,0,0,0,0,1.63h28.366v1.4a.814.814,0,1,0,1.629,0v-2.211A.814.814,0,0,0,12169.829,1468.534Z" transform="translate(-12139.833 -1468.534)" fill="#1f6898"/>
            </g>
            <g id="Grupo_14617" data-name="Grupo 14617" transform="translate(0 64.406)">
              <path id="Trazado_25047" data-name="Trazado 25047" d="M11356.253,1468.534H11271.2a.816.816,0,0,0-.815.815v2.211a5.421,5.421,0,0,0,5.415,5.414h71.039a.815.815,0,0,0,0-1.63H11275.8a3.788,3.788,0,0,1-3.785-3.784v-1.4h84.241a.815.815,0,0,0,0-1.63Z" transform="translate(-11270.382 -1468.534)" fill="#1f6898"/>
            </g>
            <g id="Grupo_14618" data-name="Grupo 14618" transform="translate(52.97 64.559)">
              <path id="Trazado_25048" data-name="Trazado 25048" d="M11776.248,1469.936a.815.815,0,0,0-.815.815v2.431h-15.922v-2.431a.815.815,0,0,0-1.631,0V1474a.816.816,0,0,0,.814.815h17.554a.814.814,0,0,0,.813-.815v-3.246A.814.814,0,0,0,11776.248,1469.936Z" transform="translate(-11757.88 -1469.936)" fill="#1f6898"/>
            </g>
            <g id="Grupo_14619" data-name="Grupo 14619" transform="translate(71.292)">
              <path id="Trazado_25049" data-name="Trazado 25049" d="M11970.342,877.4a5.938,5.938,0,0,0-4.106-1.61h-38.919a.815.815,0,1,0,0,1.63h38.919a4.077,4.077,0,0,1,4.217,4.021V940.2a.816.816,0,0,0,1.632,0V881.439A5.508,5.508,0,0,0,11970.342,877.4Z" transform="translate(-11926.5 -875.788)" fill="#1f6898"/>
            </g>
            <g id="Grupo_14620" data-name="Grupo 14620" transform="translate(8.248 13.986)">
              <path id="Trazado_25050" data-name="Trazado 25050" d="M11347.1,1004.5a.815.815,0,0,0-.813.815v50.092a.814.814,0,1,0,1.629,0v-50.092A.815.815,0,0,0,11347.1,1004.5Z" transform="translate(-11346.291 -1004.5)" fill="#1f6898"/>
            </g>
            <g id="Grupo_14621" data-name="Grupo 14621" transform="translate(15.461 14.42)">
              <path id="Trazado_25051" data-name="Trazado 25051" d="M11413.492,1008.5a.815.815,0,0,0-.815.815v13.691a.815.815,0,0,0,1.631,0v-13.691A.815.815,0,0,0,11413.492,1008.5Z" transform="translate(-11412.677 -1008.5)" fill="#1f6898"/>
            </g>
            <g id="Grupo_14622" data-name="Grupo 14622" transform="translate(15.461 48.376)">
              <path id="Trazado_25052" data-name="Trazado 25052" d="M11481.854,1331.262h0l-67.546.039v-9.487a.815.815,0,0,0-1.631,0v10.3a.816.816,0,0,0,.815.815h0l68.362-.04a.815.815,0,1,0,0-1.63Z" transform="translate(-11412.677 -1321)" fill="#1f6898"/>
            </g>
            <g id="Grupo_14623" data-name="Grupo 14623" transform="translate(88.75 44.772)">
              <path id="Trazado_25053" data-name="Trazado 25053" d="M12107.5,1287.833a.815.815,0,0,0-.814.815v13.037l-18.709.011a.815.815,0,0,0,0,1.63h0l19.523-.011a.814.814,0,0,0,.813-.815v-13.852A.814.814,0,0,0,12107.5,1287.833Z" transform="translate(-12087.168 -1287.833)" fill="#1f6898"/>
            </g>
            <g id="Grupo_14624" data-name="Grupo 14624" transform="translate(71.727 6.973)">
              <path id="Trazado_25054" data-name="Trazado 25054" d="M11967.86,939.96h-36.546a.815.815,0,0,0,0,1.63h35.731v7.936a.815.815,0,1,0,1.63,0v-8.751A.815.815,0,0,0,11967.86,939.96Z" transform="translate(-11930.501 -939.96)" fill="#1f6898"/>
            </g>
          </g>
          <g id="Grupo_14626" data-name="Grupo 14626" transform="translate(11.281 29.361)">
            <path id="Trazado_25055" data-name="Trazado 25055" d="M11404.573,1146h-29.555a.815.815,0,0,0-.815.815v18.037a.815.815,0,0,0,.815.815h29.555a.815.815,0,0,0,.815-.815v-18.037A.815.815,0,0,0,11404.573,1146Zm-.815,18.037h-27.925V1147.63h27.925Z" transform="translate(-11374.203 -1146)" fill="#1f6898"/>
          </g>
          <g id="Grupo_14639" data-name="Grupo 14639" transform="translate(14.432 32.729)">
            <g id="Grupo_14629" data-name="Grupo 14629">
              <g id="Grupo_14627" data-name="Grupo 14627">
                <path id="Trazado_25056" data-name="Trazado 25056" d="M11415.862,1177h-11.844a.815.815,0,1,0,0,1.63h11.844a.815.815,0,1,0,0-1.63Z" transform="translate(-11403.203 -1177)" fill="#1f6898"/>
              </g>
              <g id="Grupo_14628" data-name="Grupo 14628" transform="translate(14.451)">
                <path id="Trazado_25057" data-name="Trazado 25057" d="M11545.818,1177h-8.8a.815.815,0,0,0,0,1.63h8.8a.815.815,0,1,0,0-1.63Z" transform="translate(-11536.202 -1177)" fill="#1f6898"/>
              </g>
            </g>
            <g id="Grupo_14632" data-name="Grupo 14632" transform="translate(0 3.767)">
              <g id="Grupo_14630" data-name="Grupo 14630">
                <path id="Trazado_25058" data-name="Trazado 25058" d="M11419.773,1211.667h-15.755a.815.815,0,1,0,0,1.63h15.755a.815.815,0,1,0,0-1.63Z" transform="translate(-11403.203 -1211.667)" fill="#1f6898"/>
              </g>
              <g id="Grupo_14631" data-name="Grupo 14631" transform="translate(18.363)">
                <path id="Trazado_25059" data-name="Trazado 25059" d="M11577.907,1211.667h-4.891a.815.815,0,0,0,0,1.63h4.891a.815.815,0,0,0,0-1.63Z" transform="translate(-11572.202 -1211.667)" fill="#1f6898"/>
              </g>
            </g>
            <g id="Grupo_14635" data-name="Grupo 14635" transform="translate(0 7.534)">
              <g id="Grupo_14633" data-name="Grupo 14633">
                <path id="Trazado_25060" data-name="Trazado 25060" d="M11415.862,1246.333h-11.844a.815.815,0,1,0,0,1.63h11.844a.815.815,0,1,0,0-1.63Z" transform="translate(-11403.203 -1246.333)" fill="#1f6898"/>
              </g>
              <g id="Grupo_14634" data-name="Grupo 14634" transform="translate(14.451)">
                <path id="Trazado_25061" data-name="Trazado 25061" d="M11545.818,1246.333h-8.8a.815.815,0,0,0,0,1.63h8.8a.815.815,0,1,0,0-1.63Z" transform="translate(-11536.202 -1246.333)" fill="#1f6898"/>
              </g>
            </g>
            <g id="Grupo_14638" data-name="Grupo 14638" transform="translate(0 11.3)">
              <g id="Grupo_14636" data-name="Grupo 14636">
                <path id="Trazado_25062" data-name="Trazado 25062" d="M11411.842,1281h-7.823a.815.815,0,1,0,0,1.63h7.823a.815.815,0,1,0,0-1.63Z" transform="translate(-11403.203 -1281)" fill="#1f6898"/>
              </g>
              <g id="Grupo_14637" data-name="Grupo 14637" transform="translate(10.431)">
                <path id="Trazado_25063" data-name="Trazado 25063" d="M11512.84,1281h-12.82a.815.815,0,1,0,0,1.63h12.82a.815.815,0,0,0,0-1.63Z" transform="translate(-11499.203 -1281)" fill="#1f6898"/>
              </g>
            </g>
          </g>
          <g id="Grupo_14640" data-name="Grupo 14640" transform="translate(63.459 15.996)">
            <path id="Trazado_25064" data-name="Trazado 25064" d="M11903.334,1023h-48.113a.815.815,0,0,0-.815.815v27.925a.815.815,0,0,0,.815.815h48.113a.816.816,0,0,0,.815-.815v-27.925A.816.816,0,0,0,11903.334,1023Zm-.815,27.925h-46.483V1024.63h46.483Z" transform="translate(-11854.405 -1023)" fill="#1f6898"/>
          </g>
          <g id="Grupo_14641" data-name="Grupo 14641" transform="translate(67.131 21.211)">
            <path id="Trazado_25065" data-name="Trazado 25065" d="M11904.229,1071h-15.211a.815.815,0,1,0,0,1.63h15.211a.815.815,0,1,0,0-1.63Z" transform="translate(-11888.202 -1071)" fill="#1f6898"/>
          </g>
          <g id="Grupo_14642" data-name="Grupo 14642" transform="translate(86.581 21.211)">
            <path id="Trazado_25066" data-name="Trazado 25066" d="M12088.879,1071h-20.863a.815.815,0,0,0,0,1.63h20.863a.815.815,0,1,0,0-1.63Z" transform="translate(-12067.203 -1071)" fill="#1f6898"/>
          </g>
          <g id="Grupo_14643" data-name="Grupo 14643" transform="translate(67.131 25.884)">
            <path id="Trazado_25067" data-name="Trazado 25067" d="M11901.621,1115.648a.814.814,0,0,0-.814.815V1126.6h-10.975V1115.63h8.563a.815.815,0,0,0,0-1.63h-9.376a.816.816,0,0,0-.816.815v12.6a.815.815,0,0,0,.816.815h12.6a.815.815,0,0,0,.816-.815v-10.956A.816.816,0,0,0,11901.621,1115.648Z" transform="translate(-11888.202 -1114)" fill="#1f6898"/>
          </g>
          <g id="Grupo_14644" data-name="Grupo 14644" transform="translate(69.63 29.143)">
            <path id="Trazado_25068" data-name="Trazado 25068" d="M11916.364,1150.737h-3.532v-5.922a.814.814,0,1,0-1.629,0v6.737a.814.814,0,0,0,.813.815h4.348a.815.815,0,0,0,0-1.63Z" transform="translate(-11911.203 -1144)" fill="#1f6898"/>
          </g>
          <g id="Grupo_14645" data-name="Grupo 14645" transform="translate(82.995 27.839)">
            <path id="Trazado_25069" data-name="Trazado 25069" d="M12040.778,1132h-5.761a.815.815,0,0,0,0,1.63h5.761a.815.815,0,0,0,0-1.63Z" transform="translate(-12034.204 -1132)" fill="#1f6898"/>
          </g>
          <g id="Grupo_14646" data-name="Grupo 14646" transform="translate(92.557 27.839)">
            <path id="Trazado_25070" data-name="Trazado 25070" d="M12137.578,1132h-14.561a.815.815,0,0,0,0,1.63h14.561a.815.815,0,0,0,0-1.63Z" transform="translate(-12122.203 -1132)" fill="#1f6898"/>
          </g>
          <g id="Grupo_14647" data-name="Grupo 14647" transform="translate(82.995 32.838)">
            <path id="Trazado_25071" data-name="Trazado 25071" d="M12048.6,1178h-13.584a.815.815,0,0,0,0,1.63h13.584a.815.815,0,0,0,0-1.63Z" transform="translate(-12034.204 -1178)" fill="#1f6898"/>
          </g>
          <g id="Grupo_14648" data-name="Grupo 14648" transform="translate(100.38 32.838)">
            <path id="Trazado_25072" data-name="Trazado 25072" d="M12201.754,1178h-6.736a.815.815,0,0,0,0,1.63h6.736a.815.815,0,1,0,0-1.63Z" transform="translate(-12194.203 -1178)" fill="#1f6898"/>
          </g>
          <g id="Grupo_14649" data-name="Grupo 14649" transform="translate(82.995 38.053)">
            <path id="Trazado_25073" data-name="Trazado 25073" d="M12040.778,1226h-5.761a.815.815,0,0,0,0,1.63h5.761a.815.815,0,0,0,0-1.63Z" transform="translate(-12034.204 -1226)" fill="#1f6898"/>
          </g>
          <g id="Grupo_14650" data-name="Grupo 14650" transform="translate(92.557 38.053)">
            <path id="Trazado_25074" data-name="Trazado 25074" d="M12137.578,1226h-14.561a.815.815,0,0,0,0,1.63h14.561a.815.815,0,0,0,0-1.63Z" transform="translate(-12122.203 -1226)" fill="#1f6898"/>
          </g>
        </g>
        <g id="Grupo_14652" data-name="Grupo 14652" transform="translate(101.307 4.928)">
          <path id="Trazado_25075" data-name="Trazado 25075" d="M12184.652,631.018h-.024a5.425,5.425,0,0,0-2.986,1,.815.815,0,1,0,.94,1.331,3.806,3.806,0,0,1,2.093-.7.815.815,0,0,0-.022-1.63Z" transform="translate(-12163.233 -631.016)" fill="#1f6898"/>
          <path id="Trazado_25076" data-name="Trazado 25076" d="M12253.2,631h-2.716a.815.815,0,0,0,0,1.63h2.716a.815.815,0,1,0,0-1.63Z" transform="translate(-12224.178 -631)" fill="#1f6898"/>
          <path id="Trazado_25077" data-name="Trazado 25077" d="M12164.018,677.839a.816.816,0,0,0-.814.815v2.716a.815.815,0,1,0,1.63,0v-2.716A.815.815,0,0,0,12164.018,677.839Z" transform="translate(-12147.105 -672.75)" fill="#1f6898"/>
          <path id="Trazado_25078" data-name="Trazado 25078" d="M12323.2,631h-2.717a.815.815,0,0,0,0,1.63h2.717a.815.815,0,1,0,0-1.63Z" transform="translate(-12286.573 -631)" fill="#1f6898"/>
          <path id="Trazado_25079" data-name="Trazado 25079" d="M12382.692,1217.661a3.821,3.821,0,0,1-1.2-1.851.815.815,0,1,0-1.565.455,5.448,5.448,0,0,0,1.715,2.639.809.809,0,0,0,.526.193.814.814,0,0,0,.527-1.436Z" transform="translate(-12340.25 -1151.742)" fill="#1f6898"/>
          <path id="Trazado_25080" data-name="Trazado 25080" d="M12379.018,1149.733a.815.815,0,0,0,.815-.815V1146.2a.815.815,0,0,0-1.631,0v2.717A.815.815,0,0,0,12379.018,1149.733Z" transform="translate(-12338.744 -1089.495)" fill="#1f6898"/>
          <path id="Trazado_25081" data-name="Trazado 25081" d="M12088.584,783h-2.716a.815.815,0,0,0,0,1.63h2.716a.815.815,0,1,0,0-1.63Z" transform="translate(-12077.449 -766.484)" fill="#1f6898"/>
          <path id="Trazado_25082" data-name="Trazado 25082" d="M12379.018,1009.733a.815.815,0,0,0,.815-.815V1006.2a.815.815,0,0,0-1.631,0v2.716A.815.815,0,0,0,12379.018,1009.733Z" transform="translate(-12338.744 -964.707)" fill="#1f6898"/>
          <path id="Trazado_25083" data-name="Trazado 25083" d="M12379.018,1079.733a.815.815,0,0,0,.815-.815V1076.2a.815.815,0,0,0-1.631,0v2.716A.815.815,0,0,0,12379.018,1079.733Z" transform="translate(-12338.744 -1027.101)" fill="#1f6898"/>
          <path id="Trazado_25084" data-name="Trazado 25084" d="M12380.052,873.2a.826.826,0,0,0,.194.024.813.813,0,0,0,.792-.621,3.816,3.816,0,0,1,1.125-1.9.815.815,0,0,0-1.1-1.2,5.451,5.451,0,0,0-1.6,2.709A.814.814,0,0,0,12380.052,873.2Z" transform="translate(-12339.839 -843.395)" fill="#1f6898"/>
          <path id="Trazado_25085" data-name="Trazado 25085" d="M12153.563,747.809a.817.817,0,0,0-.945.66,3.791,3.791,0,0,1-1,1.967.815.815,0,0,0,1.18,1.125,5.424,5.424,0,0,0,1.425-2.808A.815.815,0,0,0,12153.563,747.809Z" transform="translate(-12136.581 -735.106)" fill="#1f6898"/>
          <path id="Trazado_25086" data-name="Trazado 25086" d="M12393.2,631h-2.716a.815.815,0,1,0,0,1.63h2.716a.815.815,0,1,0,0-1.63Z" transform="translate(-12348.966 -631)" fill="#1f6898"/>
          <path id="Trazado_25087" data-name="Trazado 25087" d="M12018.587,783h-2.715a.815.815,0,1,0,0,1.63h2.715a.815.815,0,1,0,0-1.63Z" transform="translate(-12015.056 -766.484)" fill="#1f6898"/>
          <path id="Trazado_25088" data-name="Trazado 25088" d="M12379.018,939.733a.815.815,0,0,0,.815-.815V936.2a.815.815,0,0,0-1.631,0v2.716A.815.815,0,0,0,12379.018,939.733Z" transform="translate(-12338.744 -902.313)" fill="#1f6898"/>
          <path id="Trazado_25089" data-name="Trazado 25089" d="M12610.017,1441a.816.816,0,0,0-.814.815v2.717a.815.815,0,0,0,1.63,0v-2.717A.815.815,0,0,0,12610.017,1441Z" transform="translate(-12544.644 -1352.987)" fill="#1f6898"/>
          <path id="Trazado_25090" data-name="Trazado 25090" d="M12579.551,1248.584a5.431,5.431,0,0,0-2.743-1.544.815.815,0,1,0-.354,1.591,3.805,3.805,0,0,1,1.922,1.083.815.815,0,1,0,1.175-1.13Z" transform="translate(-12514.885 -1180.085)" fill="#1f6898"/>
          <path id="Trazado_25091" data-name="Trazado 25091" d="M12610.017,1371a.816.816,0,0,0-.814.815v2.716a.815.815,0,0,0,1.63,0v-2.716A.815.815,0,0,0,12610.017,1371Z" transform="translate(-12544.644 -1290.594)" fill="#1f6898"/>
          <path id="Trazado_25092" data-name="Trazado 25092" d="M12610.017,709.774a.816.816,0,0,0-.814.815v2.716a.815.815,0,1,0,1.63,0v-2.716A.815.815,0,0,0,12610.017,709.774Z" transform="translate(-12544.644 -701.215)" fill="#1f6898"/>
          <path id="Trazado_25093" data-name="Trazado 25093" d="M12610.017,1301a.816.816,0,0,0-.814.815v2.717a.815.815,0,0,0,1.63,0v-2.717A.815.815,0,0,0,12610.017,1301Z" transform="translate(-12544.644 -1228.199)" fill="#1f6898"/>
          <path id="Trazado_25094" data-name="Trazado 25094" d="M12434.938,859.63h2.716a.815.815,0,0,0,0-1.63h-2.716a.815.815,0,1,0,0,1.63Z" transform="translate(-12388.588 -833.335)" fill="#1f6898"/>
          <path id="Trazado_25095" data-name="Trazado 25095" d="M12610.017,779.774a.816.816,0,0,0-.814.815v2.716a.815.815,0,1,0,1.63,0v-2.716A.815.815,0,0,0,12610.017,779.774Z" transform="translate(-12544.644 -763.609)" fill="#1f6898"/>
          <path id="Trazado_25096" data-name="Trazado 25096" d="M12574.895,848.983a.809.809,0,0,0,.145-.013,5.439,5.439,0,0,0,2.806-1.429.815.815,0,0,0-1.128-1.177,3.806,3.806,0,0,1-1.966,1,.815.815,0,0,0,.144,1.617Z" transform="translate(-12513.337 -822.761)" fill="#1f6898"/>
          <path id="Trazado_25097" data-name="Trazado 25097" d="M12533.2,631h-2.718a.815.815,0,0,0,0,1.63h2.718a.815.815,0,0,0,0-1.63Z" transform="translate(-12473.753 -631)" fill="#1f6898"/>
          <path id="Trazado_25098" data-name="Trazado 25098" d="M12597.729,646.574a.815.815,0,0,0,1.6-.337,5.431,5.431,0,0,0-1.516-2.76.815.815,0,0,0-1.143,1.163A3.8,3.8,0,0,1,12597.729,646.574Z" transform="translate(-12533.252 -641.913)" fill="#1f6898"/>
          <path id="Trazado_25099" data-name="Trazado 25099" d="M12439.426,1246h-2.715a.815.815,0,0,0,0,1.63h2.715a.815.815,0,1,0,0-1.63Z" transform="translate(-12390.168 -1179.176)" fill="#1f6898"/>
          <path id="Trazado_25100" data-name="Trazado 25100" d="M12463.2,631h-2.717a.815.815,0,1,0,0,1.63h2.717a.815.815,0,0,0,0-1.63Z" transform="translate(-12411.359 -631)" fill="#1f6898"/>
          <path id="Trazado_25101" data-name="Trazado 25101" d="M12504.938,859.63h2.716a.815.815,0,1,0,0-1.63h-2.716a.815.815,0,0,0,0,1.63Z" transform="translate(-12450.982 -833.335)" fill="#1f6898"/>
          <path id="Trazado_25102" data-name="Trazado 25102" d="M12509.428,1246h-2.717a.815.815,0,0,0,0,1.63h2.717a.815.815,0,0,0,0-1.63Z" transform="translate(-12452.563 -1179.176)" fill="#1f6898"/>
        </g>
        <g id="Grupo_14653" data-name="Grupo 14653" transform="translate(15.375 107.661)">
          <path id="Trazado_25103" data-name="Trazado 25103" d="M11363.887,1800.768a3.805,3.805,0,0,1-2.1.66.815.815,0,0,0,.01,1.63h.009a5.43,5.43,0,0,0,3-.942.815.815,0,1,0-.917-1.348Z" transform="translate(-11346.113 -1776.271)" fill="#1f6898"/>
          <path id="Trazado_25104" data-name="Trazado 25104" d="M11294.508,1808h-2.716a.815.815,0,0,0,0,1.63h2.716a.815.815,0,1,0,0-1.63Z" transform="translate(-11283.722 -1782.843)" fill="#1f6898"/>
          <path id="Trazado_25105" data-name="Trazado 25105" d="M11404.019,1666.918a.815.815,0,0,0-.815.815v2.717a.815.815,0,0,0,1.63,0v-2.717A.815.815,0,0,0,11404.019,1666.918Z" transform="translate(-11383.754 -1657.09)" fill="#1f6898"/>
          <path id="Trazado_25106" data-name="Trazado 25106" d="M11225.02,1650.817a.815.815,0,0,0,.814-.815v-2.716a.814.814,0,1,0-1.629,0V1650A.814.814,0,0,0,11225.02,1650.817Z" transform="translate(-11224.205 -1638.864)" fill="#1f6898"/>
          <path id="Trazado_25107" data-name="Trazado 25107" d="M11406.053,1599.729a.815.815,0,0,0-1.15.074,5.428,5.428,0,0,0-1.308,2.864.815.815,0,0,0,1.616.218,3.8,3.8,0,0,1,.916-2.006A.816.816,0,0,0,11406.053,1599.729Z" transform="translate(-11384.096 -1597.021)" fill="#1f6898"/>
          <path id="Trazado_25108" data-name="Trazado 25108" d="M11225.02,1580.816a.815.815,0,0,0,.814-.815v-2.716a.814.814,0,1,0-1.629,0V1580A.814.814,0,0,0,11225.02,1580.816Z" transform="translate(-11224.205 -1576.47)" fill="#1f6898"/>
          <path id="Trazado_25109" data-name="Trazado 25109" d="M11225.834,1720v-2.717a.814.814,0,1,0-1.629,0V1720a.814.814,0,1,0,1.629,0Z" transform="translate(-11224.205 -1701.258)" fill="#1f6898"/>
          <path id="Trazado_25110" data-name="Trazado 25110" d="M11232.434,1787.59a3.85,3.85,0,0,1-1.566-1.558.814.814,0,1,0-1.432.776,5.455,5.455,0,0,0,2.23,2.219.815.815,0,1,0,.768-1.437Z" transform="translate(-11228.78 -1762.882)" fill="#1f6898"/>
          <path id="Trazado_25111" data-name="Trazado 25111" d="M11404.019,1736.918a.815.815,0,0,0-.815.815v2.716a.815.815,0,1,0,1.63,0v-2.716A.815.815,0,0,0,11404.019,1736.918Z" transform="translate(-11383.754 -1719.484)" fill="#1f6898"/>
          <path id="Trazado_25112" data-name="Trazado 25112" d="M11764.734,1735h-2.718a.815.815,0,0,0,0,1.63h2.718a.815.815,0,1,0,0-1.63Z" transform="translate(-11702.853 -1717.775)" fill="#1f6898"/>
          <path id="Trazado_25113" data-name="Trazado 25113" d="M11834.734,1735h-2.717a.815.815,0,0,0,0,1.63h2.717a.815.815,0,0,0,0-1.63Z" transform="translate(-11765.248 -1717.775)" fill="#1f6898"/>
          <path id="Trazado_25114" data-name="Trazado 25114" d="M11904.734,1735h-2.718a.815.815,0,0,0,0,1.63h2.718a.815.815,0,0,0,0-1.63Z" transform="translate(-11827.641 -1717.775)" fill="#1f6898"/>
          <path id="Trazado_25115" data-name="Trazado 25115" d="M11696.7,1726.711a3.8,3.8,0,0,1-2.049-.817.815.815,0,1,0-1.015,1.275,5.423,5.423,0,0,0,2.923,1.166l.071,0a.815.815,0,0,0,.069-1.627Z" transform="translate(-11642.353 -1709.5)" fill="#1f6898"/>
          <path id="Trazado_25116" data-name="Trazado 25116" d="M11528.122,1585h-2.718a.815.815,0,0,0,0,1.63h2.718a.815.815,0,0,0,0-1.63Z" transform="translate(-11491.951 -1584.073)" fill="#1f6898"/>
          <path id="Trazado_25117" data-name="Trazado 25117" d="M11678.019,1660.694a.815.815,0,0,0-.815.815v2.717a.815.815,0,1,0,1.63,0v-2.717A.815.815,0,0,0,11678.019,1660.694Z" transform="translate(-11627.981 -1651.542)" fill="#1f6898"/>
          <path id="Trazado_25118" data-name="Trazado 25118" d="M11458.122,1585h-2.716a.815.815,0,1,0,0,1.63h2.716a.815.815,0,1,0,0-1.63Z" transform="translate(-11429.558 -1584.073)" fill="#1f6898"/>
          <path id="Trazado_25119" data-name="Trazado 25119" d="M11598.123,1585h-2.717a.815.815,0,0,0,0,1.63h2.717a.815.815,0,0,0,0-1.63Z" transform="translate(-11554.346 -1584.073)" fill="#1f6898"/>
          <path id="Trazado_25120" data-name="Trazado 25120" d="M11664.421,1599.044a.827.827,0,0,0,.228-.032.815.815,0,0,0,.557-1.009,5.45,5.45,0,0,0-1.71-2.643.814.814,0,1,0-1.055,1.241,3.812,3.812,0,0,1,1.2,1.853A.816.816,0,0,0,11664.421,1599.044Z" transform="translate(-11614.566 -1593.135)" fill="#1f6898"/>
        </g>
      </g>
    </g>
    <g id="Grupo_14671" data-name="Grupo 14671" transform="translate(1228.948 280.298)">
      <g id="Grupo_14670" data-name="Grupo 14670" transform="translate(0 0)">
        <g id="Color-4" data-name="Color" transform="translate(36.382 4.855)">
          <g id="Grupo_14657" data-name="Grupo 14657" transform="translate(0 0)">
            <g id="Grupo_14656" data-name="Grupo 14656">
              <g id="Grupo_14655" data-name="Grupo 14655">
                <path id="Trazado_25121" data-name="Trazado 25121" d="M5660.335,1246.558h-.1c-.8-11-23.794-7.839-17.533,9.393,5.558,11.021,17.582,17.032,17.582,17.032s12.022-6.011,17.581-17.032C5684.129,1238.719,5661.131,1235.558,5660.335,1246.558Z" transform="translate(-5641.626 -1240.145)" fill="#d55d5d"/>
              </g>
            </g>
          </g>
        </g>
        <g id="SOCIAL-3" data-name="SOCIAL" transform="translate(0 0)">
          <g id="Grupo_14658" data-name="Grupo 14658" transform="translate(84.9)">
            <path id="Trazado_25122" data-name="Trazado 25122" d="M6171.834,1207.806a.925.925,0,1,0,.292,1.275A.925.925,0,0,0,6171.834,1207.806Z" transform="translate(-6170.036 -1205.814)" fill="#1f6898"/>
            <path id="Trazado_25123" data-name="Trazado 25123" d="M6166.9,1245.005a.925.925,0,0,0,.306,1.8.943.943,0,0,0,.308-.052.925.925,0,0,0-.613-1.745Z" transform="translate(-6166.283 -1239.653)" fill="#1f6898"/>
            <path id="Trazado_25124" data-name="Trazado 25124" d="M6237.85,1201.519l0,0a.925.925,0,0,0,1.309-1.309h0l-.009-.009h0a.925.925,0,0,0-1.305,1.312Z" transform="translate(-6230.981 -1198.8)" fill="#1f6898"/>
            <path id="Trazado_25125" data-name="Trazado 25125" d="M6202.954,1187.65a.924.924,0,0,0,.105,1.843,1.014,1.014,0,0,0,.106-.006.925.925,0,0,0-.211-1.837Z" transform="translate(-6198.819 -1187.644)" fill="#1f6898"/>
            <path id="Trazado_25126" data-name="Trazado 25126" d="M6251.085,1235.433a.925.925,0,0,0-.205,1.838.817.817,0,0,0,.1.006.925.925,0,0,0,.1-1.844Z" transform="translate(-6242.311 -1231.009)" fill="#1f6898"/>
            <path id="Trazado_25127" data-name="Trazado 25127" d="M6194.08,1271.492a.924.924,0,1,0,.569,1.177A.924.924,0,0,0,6194.08,1271.492Z" transform="translate(-6190.394 -1263.691)" fill="#1f6898"/>
            <path id="Trazado_25128" data-name="Trazado 25128" d="M6230.556,1267.348a.925.925,0,1,0,1.276.288A.925.925,0,0,0,6230.556,1267.348Z" transform="translate(-6224.22 -1259.847)" fill="#1f6898"/>
          </g>
          <g id="Grupo_14669" data-name="Grupo 14669" transform="translate(0 4.162)">
            <g id="Grupo_14659" data-name="Grupo 14659" transform="translate(0 6.136)">
              <path id="Trazado_25129" data-name="Trazado 25129" d="M5331.977,1299h-10.459a.693.693,0,0,0,0,1.387h10.459a4.824,4.824,0,0,1,4.818,4.818v24.025a4.824,4.824,0,0,1-4.818,4.818h-59.258a4.823,4.823,0,0,1-4.817-4.818v-6.265a.694.694,0,0,0-.786-.687l-15.208,2.024,15.673-10.013a.693.693,0,0,0,.321-.584v-8.5a4.823,4.823,0,0,1,4.817-4.818h11.867a.693.693,0,1,0,0-1.387h-11.867a6.212,6.212,0,0,0-6.2,6.205v8.118l-17.991,11.494a.694.694,0,0,0,.465,1.272l17.526-2.333v5.473a6.212,6.212,0,0,0,6.2,6.205h59.258a6.213,6.213,0,0,0,6.206-6.205v-24.025A6.212,6.212,0,0,0,5331.977,1299Z" transform="translate(-5248.203 -1299)" fill="#1f6898"/>
            </g>
            <g id="Grupo_14662" data-name="Grupo 14662" transform="translate(35.688)">
              <g id="Grupo_14661" data-name="Grupo 14661">
                <g id="Grupo_14660" data-name="Grupo 14660">
                  <path id="Trazado_25130" data-name="Trazado 25130" d="M5663.969,1232.9a11.418,11.418,0,0,0-6.23.4,4.291,4.291,0,0,1-8.532,0,11.878,11.878,0,0,0-12.043,2.639c-1.871,1.851-4.608,6.058-1.925,13.445.01.026.021.051.033.075a39.782,39.782,0,0,0,11.068,12.884,45.178,45.178,0,0,0,6.822,4.456.692.692,0,0,0,.62,0,45.1,45.1,0,0,0,6.822-4.456,39.776,39.776,0,0,0,11.068-12.884.505.505,0,0,0,.033-.075c2.684-7.387-.054-11.594-1.923-13.445A11.518,11.518,0,0,0,5663.969,1232.9Zm6.447,15.971a38.4,38.4,0,0,1-10.638,12.357,46.75,46.75,0,0,1-6.3,4.167c-1.9-1.025-12.037-6.831-16.944-16.525-1.776-4.919-1.206-9.161,1.61-11.946a10.485,10.485,0,0,1,10.58-2.326,5.817,5.817,0,0,1,4.014,5.206.693.693,0,0,0,.692.643h.1a.694.694,0,0,0,.693-.643,5.815,5.815,0,0,1,4.014-5.206,10.484,10.484,0,0,1,10.579,2.326C5671.621,1239.713,5672.193,1243.955,5670.416,1248.874Z" transform="translate(-5634.118 -1232.651)" fill="#1f6898"/>
                </g>
              </g>
            </g>
            <g id="Grupo_14663" data-name="Grupo 14663" transform="translate(23.119 20.284)">
              <path id="Trazado_25131" data-name="Trazado 25131" d="M5504.354,1452H5498.9a.693.693,0,0,0,0,1.387h5.457a.693.693,0,0,0,0-1.387Z" transform="translate(-5498.203 -1452)" fill="#1f6898"/>
            </g>
            <g id="Grupo_14664" data-name="Grupo 14664" transform="translate(23.119 26.573)">
              <path id="Trazado_25132" data-name="Trazado 25132" d="M5510.456,1520H5498.9a.694.694,0,0,0,0,1.387h11.559a.694.694,0,1,0,0-1.387Z" transform="translate(-5498.203 -1520)" fill="#1f6898"/>
            </g>
            <g id="Grupo_14665" data-name="Grupo 14665" transform="translate(23.119 32.861)">
              <path id="Trazado_25133" data-name="Trazado 25133" d="M5518.224,1588H5498.9a.694.694,0,0,0,0,1.387h19.327a.694.694,0,0,0,0-1.387Z" transform="translate(-5498.203 -1588)" fill="#1f6898"/>
            </g>
            <g id="Grupo_14666" data-name="Grupo 14666" transform="translate(79.991 20.284)">
              <path id="Trazado_25134" data-name="Trazado 25134" d="M6119.353,1452H6113.9a.693.693,0,1,0,0,1.387h5.456a.693.693,0,0,0,0-1.387Z" transform="translate(-6113.203 -1452)" fill="#1f6898"/>
            </g>
            <g id="Grupo_14667" data-name="Grupo 14667" transform="translate(73.888 26.573)">
              <path id="Trazado_25135" data-name="Trazado 25135" d="M6059.457,1520H6047.9a.694.694,0,1,0,0,1.387h11.559a.694.694,0,1,0,0-1.387Z" transform="translate(-6047.204 -1520)" fill="#1f6898"/>
            </g>
            <g id="Grupo_14668" data-name="Grupo 14668" transform="translate(66.12 32.861)">
              <path id="Trazado_25136" data-name="Trazado 25136" d="M5983.224,1588H5963.9a.694.694,0,0,0,0,1.387h19.328a.694.694,0,1,0,0-1.387Z" transform="translate(-5963.204 -1588)" fill="#1f6898"/>
            </g>
          </g>
        </g>
      </g>
    </g>
    <g id="Grupo_14673" data-name="Grupo 14673" transform="translate(1076.787 -126.859)">
      <path id="Trazado_25138" data-name="Trazado 25138" d="M95.222,233.655a13,13,0,1,1-13-13.005A13.005,13.005,0,0,1,95.222,233.655Z" fill="#0095ef"/>
      <g id="Grupo_14672" data-name="Grupo 14672" transform="translate(75.528 227.043)">
        <path id="Trazado_25139" data-name="Trazado 25139" d="M97.033,235.825h-4.58a9.85,9.85,0,0,0,.55-1.477,6.4,6.4,0,0,0,0-1.119,1.077,1.077,0,0,0-1.077-1.075H91.39v1.661s-1.881,2.191-1.881,3.086v5.24a1.075,1.075,0,0,0,1.075,1.075h3.761a1.7,1.7,0,0,0,1.464-1.075l1.907-5.24A.727.727,0,0,0,97.033,235.825Z" transform="translate(-84.544 -232.153)" fill="#fff"/>
        <rect id="Rect치ngulo_2764" data-name="Rect치ngulo 2764" width="1.431" height="5.866" transform="translate(4.205 4.523)" fill="#fff"/>
        <rect id="Rect치ngulo_2765" data-name="Rect치ngulo 2765" width="2.553" height="7.39" transform="translate(0 3.672)" fill="#fff"/>
      </g>
    </g>
    <g id="Grupo_14685" data-name="Grupo 14685" transform="translate(838.407 -204.752)">
      <g id="Grupo_14681" data-name="Grupo 14681" transform="translate(286.092 278.252)">
        <g id="Grupo_14680" data-name="Grupo 14680">
          <path id="Trazado_25145" data-name="Trazado 25145" d="M302.337,286.374a8.122,8.122,0,1,1-8.122-8.122A8.122,8.122,0,0,1,302.337,286.374Z" transform="translate(-286.092 -278.252)" fill="#f9d05e"/>
        </g>
        <path id="Trazado_25146" data-name="Trazado 25146" d="M302.323,287.777a8.315,8.315,0,0,1-14.872,6.535,8.122,8.122,0,0,0,14.872-6.535Z" transform="translate(-286.756 -282.903)" fill="#f4c249"/>
      </g>
      <path id="Trazado_25147" data-name="Trazado 25147" d="M293.031,298.409a6.369,6.369,0,0,0,9.143,0" transform="translate(-3.388 -9.842)" fill="none" stroke="#2f3844" stroke-miterlimit="10" stroke-width="1.134"/>
      <g id="Grupo_14684" data-name="Grupo 14684" transform="translate(290.153 283.659)">
        <g id="Grupo_14682" data-name="Grupo 14682" transform="translate(0)">
          <path id="Trazado_25148" data-name="Trazado 25148" d="M296.477,290.043a1.225,1.225,0,1,1-1.225-1.226A1.225,1.225,0,0,1,296.477,290.043Z" transform="translate(-294.027 -288.817)" fill="#2f3844"/>
        </g>
        <g id="Grupo_14683" data-name="Grupo 14683" transform="translate(5.673)">
          <path id="Trazado_25149" data-name="Trazado 25149" d="M307.563,290.043a1.225,1.225,0,1,1-1.225-1.226A1.224,1.224,0,0,1,307.563,290.043Z" transform="translate(-305.113 -288.817)" fill="#2f3844"/>
        </g>
      </g>
    </g>
    <g id="Grupo_14686" data-name="Grupo 14686" transform="translate(814.916 -102.659)">
      <path id="Trazado_25150" data-name="Trazado 25150" d="M647.488,152.756a10.7,10.7,0,1,1-10.7-10.7A10.7,10.7,0,0,1,647.488,152.756Z" fill="#d55d5d"/>
      <path id="Trazado_25151" data-name="Trazado 25151" d="M647.873,158.267a2.458,2.458,0,0,0-3.479,0l-.579.579-.579-.579a2.459,2.459,0,0,0-3.48,3.475l.582.581h0l3.478,3.476,3.476-3.476h0l.582-.581A2.459,2.459,0,0,0,647.873,158.267Z" transform="translate(-7.029 -8.406)" fill="#fff"/>
    </g>
    <path id="Trazado_25152" data-name="Trazado 25152" d="M296.041,184.787a8.422,8.422,0,0,0-8.423,8.422c0,4.654,8.423,14.454,8.423,14.454s8.422-9.8,8.422-14.454A8.425,8.425,0,0,0,296.041,184.787Zm-.023,12a3.613,3.613,0,1,1,3.612-3.612A3.613,3.613,0,0,1,296.018,196.787Z" transform="translate(1075.382 -111.787)" fill="#9fc7e2"/>
  </g>
</svg>
