<svg xmlns="http://www.w3.org/2000/svg" width="120.679" height="120.679" viewBox="0 0 120.679 120.679">
  <g id="Grupo_15897" data-name="Grupo 15897" transform="translate(-589 -7414.258)">
    <g id="Grupo_15740" data-name="Grupo 15740" transform="translate(521.105 7240.093)">
      <g id="Grupo_15725" data-name="Grupo 15725" transform="translate(71.232 175.265)">
        <g id="Grupo_15724" data-name="Grupo 15724">
          <path id="Trazado_26205" data-name="Trazado 26205" d="M84.258,250.15H167.98l10.269-3.359,5.143-16.113-4-11.085-10.628-8.114-2.857-18.513-10.255-13.256-15.182-5.143-17.188,5.6-10.493,9.371-5.735,2.628-12.114,2.971L86.6,205.193l-.686,5.237-13.028,9.162-3.771,13.942,7.542,17.942,4.571.812Z" transform="translate(-69.112 -174.566)" fill="#06233e"/>
        </g>
      </g>
      <g id="Grupo_15727" data-name="Grupo 15727" transform="translate(101.631 239.376)">
        <g id="Grupo_15726" data-name="Grupo 15726">
          <path id="Trazado_26206" data-name="Trazado 26206" d="M132.649,236.225,125.907,244l-17.142,6.4-17.142-4.114L80.2,233.211v-35.27h52.454Z" transform="translate(-80.195 -197.941)" fill="none"/>
        </g>
      </g>
      <g id="Grupo_15729" data-name="Grupo 15729" transform="translate(121.173 254.395)">
        <g id="Grupo_15728" data-name="Grupo 15728">
          <circle id="Elipse_795" data-name="Elipse 795" cx="7.061" cy="7.061" r="7.061" fill="#fff"/>
        </g>
      </g>
      <g id="Grupo_15739" data-name="Grupo 15739" transform="translate(67.895 174.165)">
        <g id="Grupo_15732" data-name="Grupo 15732">
          <g id="Grupo_15731" data-name="Grupo 15731">
            <g id="Grupo_15730" data-name="Grupo 15730">
              <path id="Trazado_26207" data-name="Trazado 26207" d="M85.882,255.975a2.662,2.662,0,0,1-.51-.049C75.084,253.9,67.9,244.6,67.9,233.309a22.979,22.979,0,0,1,17.348-22.315,1.264,1.264,0,0,0,.954-1.226v-.1a20.245,20.245,0,0,1,24.843-19.635,1.287,1.287,0,0,0,.288.033,1.265,1.265,0,0,0,1.072-.592,32.752,32.752,0,0,1,60.471,17.317,31.512,31.512,0,0,1-.206,3.582,1.263,1.263,0,0,0,.817,1.33,23.144,23.144,0,0,1,15.09,21.607c0,11.3-7.043,20.205-17.523,22.161a2.742,2.742,0,0,1-.458.038h0a2.586,2.586,0,0,1-.491-5.129c7.957-1.478,13.3-8.338,13.3-17.071a17.926,17.926,0,0,0-14.353-17.5,2.593,2.593,0,0,1-2.01-3.1,27.221,27.221,0,0,0,.661-5.916,27.578,27.578,0,0,0-52.24-12.213A2.6,2.6,0,0,1,113.144,196a2.529,2.529,0,0,1-.974-.195,15.069,15.069,0,0,0-20.8,13.859,14.566,14.566,0,0,0,.277,2.8,2.595,2.595,0,0,1-2.307,3.061,17.808,17.808,0,0,0-16.272,17.784c0,8.928,5.348,15.976,13.31,17.54a2.588,2.588,0,0,1-.5,5.126Z" transform="translate(-67.895 -174.165)" fill="#21b1b9"/>
            </g>
          </g>
        </g>
        <g id="Grupo_15735" data-name="Grupo 15735" transform="translate(50.052 77.004)">
          <g id="Grupo_15734" data-name="Grupo 15734">
            <g id="Grupo_15733" data-name="Grupo 15733">
              <path id="Trazado_26208" data-name="Trazado 26208" d="M96.432,230.516a2.589,2.589,0,0,1-2.586-2.586v-4.561a1.263,1.263,0,0,0-.842-1.19,10.283,10.283,0,1,1,6.854,0,1.259,1.259,0,0,0-.839,1.188v4.561A2.589,2.589,0,0,1,96.432,230.516Zm0-23.1a5.114,5.114,0,1,0,5.112,5.115A5.12,5.12,0,0,0,96.432,207.414Z" transform="translate(-86.144 -202.241)" fill="#fd6764"/>
            </g>
          </g>
        </g>
        <g id="Grupo_15738" data-name="Grupo 15738" transform="translate(30.801 36.964)">
          <g id="Grupo_15737" data-name="Grupo 15737">
            <g id="Grupo_15736" data-name="Grupo 15736">
              <path id="Trazado_26209" data-name="Trazado 26209" d="M108.664,271.358a29.571,29.571,0,0,1-29.539-29.539v-26.95a2.589,2.589,0,0,1,2.586-2.586H88.9a1.265,1.265,0,0,0,1.264-1.264v-4.361a19.014,19.014,0,1,1,38.028,0v4.361a1.265,1.265,0,0,0,1.264,1.264h6.157a2.589,2.589,0,0,1,2.586,2.586v26.95A29.57,29.57,0,0,1,108.664,271.358Zm-23.1-53.9a1.262,1.262,0,0,0-1.264,1.262v23.1a24.365,24.365,0,1,0,48.73,0v-23.1a1.262,1.262,0,0,0-1.264-1.262Zm23.617-24.64a13.858,13.858,0,0,0-13.842,13.842v4.361a1.265,1.265,0,0,0,1.264,1.264h25.153a1.266,1.266,0,0,0,1.264-1.264v-4.361A13.857,13.857,0,0,0,109.18,192.815Z" transform="translate(-79.125 -187.642)" fill="#21b1b9"/>
            </g>
          </g>
        </g>
      </g>
    </g>
  </g>
</svg>
