<svg xmlns="http://www.w3.org/2000/svg" width="382.708" height="189.282" viewBox="0 0 382.708 189.282">
  <g id="Grupo_15747" data-name="Grupo 15747" transform="translate(-52 -81.261)">
    <g id="Grupo_15742" data-name="Grupo 15742" transform="translate(347.742 146.612)">
      <path id="Trazado_26219" data-name="Trazado 26219" d="M203,161.8v76.019h85.966V139.7H264.4V115.01H203v27.14" transform="translate(-203 -115.01)" fill="none" stroke="#21b1b9" stroke-linecap="round" stroke-linejoin="round" stroke-width="2"/>
      <path id="Trazado_26220" data-name="Trazado 26220" d="M234.25,139.635h24.562L234.25,115.073Z" transform="translate(-172.845 -114.95)" fill="none" stroke="#21b1b9" stroke-linecap="round" stroke-linejoin="round" stroke-width="2"/>
      <line id="Línea_73" data-name="Línea 73" y1="12.281" transform="translate(24.562 86.089)" fill="none" stroke="#fd6764" stroke-linecap="round" stroke-linejoin="round" stroke-width="2"/>
      <line id="Línea_74" data-name="Línea 74" y1="36.842" transform="translate(36.843 61.528)" fill="none" stroke="#fd6764" stroke-linecap="round" stroke-linejoin="round" stroke-width="2"/>
      <line id="Línea_75" data-name="Línea 75" y1="24.561" transform="translate(49.124 73.809)" fill="none" stroke="#fd6764" stroke-linecap="round" stroke-linejoin="round" stroke-width="2"/>
      <line id="Línea_76" data-name="Línea 76" y1="49.124" transform="translate(61.405 49.246)" fill="none" stroke="#fd6764" stroke-linecap="round" stroke-linejoin="round" stroke-width="2"/>
      <line id="Línea_77" data-name="Línea 77" x2="49.239" transform="translate(18.364 98.37)" fill="none" stroke="#21b1b9" stroke-linecap="round" stroke-linejoin="round" stroke-width="2"/>
    </g>
    <g id="Grupo_15743" data-name="Grupo 15743" transform="translate(53 134.455)">
      <path id="Trazado_26221" data-name="Trazado 26221" d="M102.562,121.1H90.281L78,108.823H90.281Z" transform="translate(-28.876 -108.823)" fill="#06233e" stroke="#21b1b9" stroke-linecap="round" stroke-linejoin="round" stroke-width="2"/>
      <line id="Línea_78" data-name="Línea 78" x1="98.247" transform="translate(0 24.562)" fill="none" stroke="#1f3a93" stroke-linecap="round" stroke-linejoin="round" stroke-width="2"/>
      <path id="Trazado_26222" data-name="Trazado 26222" d="M114.4,121.1l-2.839-2.839-9.442-9.442H65.281L53,121.1v12.281h98.247V121.1Z" transform="translate(-53 -108.823)" fill="#06233e" stroke="#21b1b9" stroke-linecap="round" stroke-linejoin="round" stroke-width="2"/>
      <path id="Trazado_26223" data-name="Trazado 26223" d="M151.247,136.06V121.323H53V231.851h98.247V155.71" transform="translate(-53 -96.761)" fill="none" stroke="#21b1b9" stroke-linecap="round" stroke-linejoin="round" stroke-width="2"/>
      <line id="Línea_79" data-name="Línea 79" x2="61.405" transform="translate(12.281 85.966)" fill="none" stroke="#21b1b9" stroke-linecap="round" stroke-linejoin="round" stroke-width="2" stroke-dasharray="6 4 30 4"/>
      <line id="Línea_80" data-name="Línea 80" x1="61.405" transform="translate(12.281 98.247)" fill="none" stroke="#21b1b9" stroke-linecap="round" stroke-linejoin="round" stroke-width="2" stroke-dasharray="6 4 30 4"/>
      <line id="Línea_81" data-name="Línea 81" x2="49.124" transform="translate(12.281 73.685)" fill="none" stroke="#fd6764" stroke-linecap="round" stroke-linejoin="round" stroke-width="2"/>
      <line id="Línea_82" data-name="Línea 82" x1="49.124" transform="translate(24.562 122.747)" fill="none" stroke="#fd6764" stroke-linecap="round" stroke-linejoin="round" stroke-width="2.5" stroke-dasharray="0 4"/>
      <rect id="Rectángulo_2864" data-name="Rectángulo 2864" width="36.843" height="12.281" transform="translate(12.281 49.123)" fill="none" stroke="#21b1b9" stroke-linecap="round" stroke-linejoin="round" stroke-width="2"/>
    </g>
    <g id="Grupo_15744" data-name="Grupo 15744" transform="translate(120.545 159.016)">
      <path id="Trazado_26224" data-name="Trazado 26224" d="M134.25,145.885h24.562l6.14-24.562,6.14,24.562,6.14,24.562,6.14-24.562h24.562" transform="translate(-42.143 -121.323)" fill="none" stroke="#fd6764" stroke-linecap="round" stroke-linejoin="round" stroke-width="2"/>
      <circle id="Elipse_796" data-name="Elipse 796" cx="6.14" cy="6.14" r="6.14" transform="translate(0 18.421)" fill="none" stroke="#21b1b9" stroke-linecap="round" stroke-linejoin="round" stroke-width="2"/>
      <circle id="Elipse_797" data-name="Elipse 797" cx="6.14" cy="6.14" r="6.14" transform="translate(245.618 18.421)" fill="none" stroke="#21b1b9" stroke-linecap="round" stroke-linejoin="round" stroke-width="2"/>
      <path id="Trazado_26228" data-name="Trazado 26228" d="M67.545,0H0" transform="translate(12.281 24.562)" fill="none" stroke="#21b1b9" stroke-linecap="round" stroke-width="2"/>
      <line id="Línea_84" data-name="Línea 84" x1="67.545" transform="translate(178.073 24.562)" fill="none" stroke="#21b1b9" stroke-linecap="round" stroke-linejoin="round" stroke-width="2"/>
    </g>
    <g id="Grupo_15745" data-name="Grupo 15745" transform="translate(185.681 82.261)">
      <line id="Línea_85" data-name="Línea 85" y1="18.421" transform="translate(63.814)" fill="none" stroke="#21b1b9" stroke-linecap="round" stroke-linejoin="round" stroke-width="2"/>
      <line id="Línea_86" data-name="Línea 86" y1="9.211" transform="translate(63.814 9.211)" fill="none" stroke="#21b1b9" stroke-linecap="round" stroke-linejoin="round" stroke-width="2"/>
      <line id="Línea_87" data-name="Línea 87" x1="4.605" y1="7.977" transform="translate(31.576 17.849)" fill="none" stroke="#fd6764" stroke-linecap="round" stroke-linejoin="round" stroke-width="2"/>
      <line id="Línea_88" data-name="Línea 88" x1="15.953" y1="9.211" transform="translate(0 36.843)" fill="none" stroke="#21b1b9" stroke-linecap="round" stroke-linejoin="round" stroke-width="2"/>
      <line id="Línea_89" data-name="Línea 89" x1="7.977" y1="4.605" transform="translate(7.977 41.448)" fill="none" stroke="#21b1b9" stroke-linecap="round" stroke-linejoin="round" stroke-width="2"/>
      <line id="Línea_90" data-name="Línea 90" y1="9.211" x2="15.953" transform="translate(111.674 36.843)" fill="none" stroke="#21b1b9" stroke-linecap="round" stroke-linejoin="round" stroke-width="2"/>
      <line id="Línea_91" data-name="Línea 91" y1="4.605" x2="7.976" transform="translate(111.674 41.448)" fill="none" stroke="#21b1b9" stroke-linecap="round" stroke-linejoin="round" stroke-width="2"/>
      <line id="Línea_92" data-name="Línea 92" y1="7.977" x2="4.605" transform="translate(91.446 17.849)" fill="none" stroke="#fd6764" stroke-linecap="round" stroke-linejoin="round" stroke-width="2"/>
    </g>
    <g id="Grupo_15746" data-name="Grupo 15746" transform="translate(200.371 134.455)">
      <circle id="Elipse_798" data-name="Elipse 798" cx="49.124" cy="49.124" r="49.124" fill="none" stroke="#21b1b9" stroke-linecap="round" stroke-linejoin="round" stroke-width="2"/>
      <path id="Trazado_26225" data-name="Trazado 26225" d="M149.875,158.622V189.6a6.14,6.14,0,1,0,12.281,0V158.622a47.932,47.932,0,0,1-12.281,0Z" transform="translate(-106.891 -60.77)" fill="#d2d8e9" stroke="#21b1b9" stroke-linecap="round" stroke-linejoin="round" stroke-width="2"/>
      <path id="Trazado_26226" data-name="Trazado 26226" d="M160.175,116.5a36.729,36.729,0,0,1,19.938,19.94" transform="translate(-96.952 -101.416)" fill="none" stroke="#21b1b9" stroke-linecap="round" stroke-linejoin="round" stroke-width="2"/>
      <path id="Trazado_26227" data-name="Trazado 26227" d="M149.875,158.622v6.535h12.281v-6.535a47.932,47.932,0,0,1-12.281,0Z" transform="translate(-106.891 -60.77)" fill="#fff" stroke="#21b1b9" stroke-linecap="round" stroke-linejoin="round" stroke-width="2"/>
    </g>
  </g>
</svg>
