<svg xmlns="http://www.w3.org/2000/svg" width="114.114" height="104.77" viewBox="0 0 114.114 104.77">
  <g id="Grupo_15717" data-name="Grupo 15717" transform="translate(-4.147 -7.904)">
    <path id="Trazado_26189" data-name="Trazado 26189" d="M56.869,13.644H42.3a.986.986,0,0,0,0,1.971H56.869a.986.986,0,1,0,0-1.971Z" transform="translate(9.082 1.403)" fill="#21b1b9"/>
    <path id="Trazado_26190" data-name="Trazado 26190" d="M35.482,13.644h-3.93a.986.986,0,1,0,0,1.971h3.928a.986.986,0,0,0,0-1.971Z" transform="translate(6.456 1.403)" fill="#21b1b9"/>
    <path id="Trazado_26191" data-name="Trazado 26191" d="M56.869,84.775H42.3a.985.985,0,1,0,0,1.97H56.869a.985.985,0,1,0,0-1.97Z" transform="translate(9.082 18.784)" fill="#21b1b9"/>
    <path id="Trazado_26192" data-name="Trazado 26192" d="M116.383,28.741a5.575,5.575,0,0,0-3.707-1.414H92.112V16.945A9.053,9.053,0,0,0,83.07,7.9H34.264a9.05,9.05,0,0,0-9.038,9.041v31.11H9.732a5.6,5.6,0,0,0-5.585,5.586V76.971a5.591,5.591,0,0,0,5.585,5.585H25.226v21.078a9.049,9.049,0,0,0,9.038,9.04H83.07a9.049,9.049,0,0,0,9.038-9.04V97.983l0,0,0,0V93.121a.1.1,0,0,0,0-.026V61.827h20.564a5.591,5.591,0,0,0,5.585-5.585V32.913A5.6,5.6,0,0,0,116.383,28.741ZM27.2,16.945a7.076,7.076,0,0,1,7.067-7.07H83.07a7.077,7.077,0,0,1,7.069,7.07v4.669H27.2V16.945ZM9.732,80.583A3.617,3.617,0,0,1,6.118,76.97V53.64a3.624,3.624,0,0,1,3.615-3.615H52.839a3.618,3.618,0,0,1,3.614,3.615V76.97a3.617,3.617,0,0,1-3.614,3.612H45.294a.985.985,0,0,0-.986.984L44.3,90.019l-9.982-9.177c-.022-.021-.049-.035-.072-.054a.51.51,0,0,0-.06-.046c-.035-.022-.072-.04-.108-.058s-.04-.021-.06-.029a.892.892,0,0,0-.124-.037c-.02,0-.04-.012-.06-.016a.9.9,0,0,0-.141-.014.412.412,0,0,0-.041,0H9.732Zm80.405,23.049a7.076,7.076,0,0,1-7.068,7.068h-48.8a7.075,7.075,0,0,1-7.067-7.068V98.961h62.94Zm0-10.562v3.921H27.2V82.554h6.071L44.617,92.988c.019.016.039.029.057.044s.05.04.076.057.06.034.091.05a.827.827,0,0,0,.075.036.708.708,0,0,0,.111.034c.024.006.045.016.07.021a1,1,0,0,0,.183.019h0a.982.982,0,0,0,.387-.078c.016-.006.03-.017.046-.025a1.047,1.047,0,0,0,.127-.072c.019-.012.035-.029.052-.042a.969.969,0,0,0,.1-.088l.015-.012c.015-.016.026-.036.039-.052a.762.762,0,0,0,.066-.087c.016-.026.03-.054.045-.081a.81.81,0,0,0,.041-.088.9.9,0,0,0,.03-.093c.007-.03.016-.06.022-.09a.639.639,0,0,0,.011-.108c0-.022.006-.042.006-.066l.009-9.708h6.56a5.591,5.591,0,0,0,5.585-5.583V53.642a5.592,5.592,0,0,0-5.585-5.586H27.2V23.587H90.141v3.741H69.573a5.591,5.591,0,0,0-5.585,5.586V56.242a5.59,5.59,0,0,0,5.585,5.583h6.559l.009,9.71c0,.022,0,.045.006.067a1.017,1.017,0,0,0,.011.106c0,.03.015.062.022.091s.017.062.029.092a.848.848,0,0,0,.044.09c.014.026.026.055.042.08a.939.939,0,0,0,.066.087c.015.016.025.036.039.052l.015.014c.031.03.065.057.1.085s.037.032.057.046a1.022,1.022,0,0,0,.113.065.451.451,0,0,0,.06.031.994.994,0,0,0,.163.051.914.914,0,0,0,.412.007l.062-.017c.039-.012.078-.022.117-.037s.047-.024.072-.034a.771.771,0,0,0,.093-.052.749.749,0,0,0,.073-.055.424.424,0,0,0,.06-.046l11.35-10.434h1L90.138,93.07ZM116.29,56.241a3.618,3.618,0,0,1-3.614,3.614H88.756c-.016,0-.031,0-.049.006a.911.911,0,0,0-.129.012.592.592,0,0,0-.071.017c-.037.01-.077.021-.113.035a.73.73,0,0,0-.071.032,1.134,1.134,0,0,0-.1.055c-.024.015-.044.032-.067.05s-.046.031-.067.051l-9.982,9.177L78.1,60.839a.985.985,0,0,0-.986-.986H69.568a3.617,3.617,0,0,1-3.614-3.612V32.911A3.618,3.618,0,0,1,69.568,29.3h43.106a3.626,3.626,0,0,1,3.615,3.615v23.33Z" transform="translate(0 0)" fill="#21b1b9"/>
    <path id="Trazado_26193" data-name="Trazado 26193" d="M38.413,65.15a4.622,4.622,0,0,0-8.092-3.061L23.63,58.355a4.6,4.6,0,0,0,0-2.685l6.691-3.734a4.591,4.591,0,1,0-.967-1.717l-6.691,3.734a4.628,4.628,0,1,0,0,6.122l6.692,3.734a4.629,4.629,0,1,0,9.059,1.341ZM33.784,46.215a2.657,2.657,0,1,1-2.658,2.657A2.66,2.66,0,0,1,33.784,46.215ZM19.2,59.669a2.659,2.659,0,1,1,2.658-2.659A2.662,2.662,0,0,1,19.2,59.669ZM31.126,65.15a2.634,2.634,0,0,1,.329-1.278l.01-.016,0,0a2.654,2.654,0,1,1-.341,1.3Z" transform="translate(2.547 8.88)" fill="#21b1b9"/>
    <path id="Trazado_26194" data-name="Trazado 26194" d="M82.962,29.014a7.109,7.109,0,0,0-6.121,3.5,7.105,7.105,0,1,0-10.566,9.15l.24.185.022.016,9.7,7.435a.982.982,0,0,0,1.2,0l9.708-7.439.016-.012c.066-.047.129-.1.187-.142l.063-.05a7.105,7.105,0,0,0-4.452-12.643Zm3.224,11.1-.063.05c-.051.04-.1.08-.156.117l-.017.014-9.109,6.98-9.355-7.167a5.134,5.134,0,1,1,8.37-3.987.986.986,0,0,0,1.971,0,5.134,5.134,0,1,1,8.36,3.994Z" transform="translate(14.531 5.158)" fill="#21b1b9"/>
  </g>
</svg>
