<svg xmlns="http://www.w3.org/2000/svg" width="61.987" height="61.987" viewBox="0 0 61.987 61.987">
  <g id="Grupo_15715" data-name="Grupo 15715" transform="translate(-288.105 -320.905)">
    <g id="Grupo_15685" data-name="Grupo 15685" transform="translate(300.383 323.284)">
      <g id="Grupo_15684" data-name="Grupo 15684">
        <path id="Trazado_26175" data-name="Trazado 26175" d="M333.984,355.7l-9.209-.528H322.53l-5.371,1.32.088,18.345L296.82,356.492v-33.9h37.164Z" transform="translate(-296.82 -322.594)" fill="#06233e"/>
      </g>
    </g>
    <g id="Grupo_15686" data-name="Grupo 15686" transform="translate(288.76 350.345)">
      <path id="Trazado_26176" data-name="Trazado 26176" d="M328.427,371.692l-6.809-8.054-.84.421-13.543-9.091,1.176-.4L289.333,341.8l-.763,24.067,2.759,7.279,16.363.587,3.489-2.043Z" transform="translate(-288.57 -341.802)" fill="#06233e"/>
    </g>
    <g id="Grupo_15688" data-name="Grupo 15688" transform="translate(290.404 343.125)">
      <g id="Grupo_15687" data-name="Grupo 15687">
        <path id="Trazado_26177" data-name="Trazado 26177" d="M289.737,343.024l8.57-6.347-.528,12.738Z" transform="translate(-289.737 -336.677)" fill="#06233e"/>
      </g>
    </g>
    <g id="Grupo_15690" data-name="Grupo 15690" transform="translate(321.338 356.391)">
      <g id="Grupo_15689" data-name="Grupo 15689">
        <path id="Trazado_26178" data-name="Trazado 26178" d="M311.695,346.094h27l.822,13.325-6.1,9.451-7.807,2.641L315.1,367.93l-3.4-9.858Z" transform="translate(-311.695 -346.094)" fill="none"/>
      </g>
    </g>
    <g id="Grupo_15692" data-name="Grupo 15692" transform="translate(331.954 362.776)">
      <g id="Grupo_15691" data-name="Grupo 15691">
        <circle id="Elipse_792" data-name="Elipse 792" cx="2.966" cy="2.966" r="2.966" fill="#fff"/>
      </g>
    </g>
    <g id="Grupo_15714" data-name="Grupo 15714" transform="translate(288.105 320.905)">
      <g id="Grupo_15695" data-name="Grupo 15695">
        <g id="Grupo_15694" data-name="Grupo 15694">
          <g id="Grupo_15693" data-name="Grupo 15693">
            <path id="Trazado_26179" data-name="Trazado 26179" d="M293.222,382.892a5.122,5.122,0,0,1-5.117-5.115v-27.8a.836.836,0,0,0,.032-.168,1.234,1.234,0,0,1,.054-.263,1.375,1.375,0,0,1,.1-.247.834.834,0,0,0,.049-.108.808.808,0,0,0,.083-.087,1.307,1.307,0,0,1,.192-.193.726.726,0,0,0,.076-.072.547.547,0,0,0,.056-.072l9-7.2a.646.646,0,0,0,.244-.507V324.582a3.681,3.681,0,0,1,3.677-3.677h34.856a3.681,3.681,0,0,1,3.677,3.677v13.472a1.328,1.328,0,1,1-2.657,0V324.582a1.034,1.034,0,0,0-1.02-1.02H301.67a1.034,1.034,0,0,0-1.02,1.02v30.874a.648.648,0,0,0,.29.54l12.962,8.642a1.329,1.329,0,1,1-1.475,2.21l-20.656-13.771a.649.649,0,0,0-1.009.54v24.161a2.461,2.461,0,0,0,2.458,2.458h23.9a1.328,1.328,0,0,1,0,2.657Zm4.124-37.415a.645.645,0,0,0-.406.142l-4.563,3.65a.643.643,0,0,0-.242.534.65.65,0,0,0,.287.513l4.563,3.042a.649.649,0,0,0,1.009-.54v-6.693a.647.647,0,0,0-.648-.648Z" transform="translate(-288.105 -320.905)" fill="#21b1b9"/>
          </g>
        </g>
      </g>
      <g id="Grupo_15698" data-name="Grupo 15698" transform="translate(25.71 7.91)">
        <g id="Grupo_15697" data-name="Grupo 15697">
          <g id="Grupo_15696" data-name="Grupo 15696">
            <path id="Trazado_26180" data-name="Trazado 26180" d="M307.683,329.177a1.329,1.329,0,0,1,0-2.657h7.91a1.329,1.329,0,0,1,0,2.657Z" transform="translate(-306.355 -326.52)" fill="#21b1b9"/>
          </g>
        </g>
      </g>
      <g id="Grupo_15701" data-name="Grupo 15701" transform="translate(19.777 15.821)">
        <g id="Grupo_15700" data-name="Grupo 15700">
          <g id="Grupo_15699" data-name="Grupo 15699">
            <path id="Trazado_26181" data-name="Trazado 26181" d="M303.471,334.793a1.329,1.329,0,0,1,0-2.658h19.777a1.329,1.329,0,0,1,0,2.658Z" transform="translate(-302.143 -332.135)" fill="#21b1b9"/>
          </g>
        </g>
      </g>
      <g id="Grupo_15704" data-name="Grupo 15704" transform="translate(19.777 23.732)">
        <g id="Grupo_15703" data-name="Grupo 15703">
          <g id="Grupo_15702" data-name="Grupo 15702">
            <path id="Trazado_26182" data-name="Trazado 26182" d="M303.471,340.408a1.328,1.328,0,1,1,0-2.657h11.866a1.328,1.328,0,1,1,0,2.657Z" transform="translate(-302.143 -337.751)" fill="#21b1b9"/>
          </g>
        </g>
      </g>
      <g id="Grupo_15707" data-name="Grupo 15707" transform="translate(19.777 31.643)">
        <g id="Grupo_15706" data-name="Grupo 15706">
          <g id="Grupo_15705" data-name="Grupo 15705">
            <path id="Trazado_26183" data-name="Trazado 26183" d="M303.471,346.023a1.329,1.329,0,0,1,0-2.657h3.956a1.329,1.329,0,0,1,0,2.657Z" transform="translate(-302.143 -343.366)" fill="#21b1b9"/>
          </g>
        </g>
      </g>
      <g id="Grupo_15710" data-name="Grupo 15710" transform="translate(41.531 39.553)">
        <g id="Grupo_15709" data-name="Grupo 15709">
          <g id="Grupo_15708" data-name="Grupo 15708">
            <path id="Trazado_26184" data-name="Trazado 26184" d="M322.869,363.5a1.33,1.33,0,0,1-1.328-1.329v-2.343a.649.649,0,0,0-.431-.611,5.281,5.281,0,1,1,3.519,0,.647.647,0,0,0-.431.61v2.343A1.33,1.33,0,0,1,322.869,363.5Zm0-11.866a2.627,2.627,0,1,0,2.626,2.627A2.63,2.63,0,0,0,322.869,351.638Z" transform="translate(-317.585 -348.981)" fill="#21b1b9"/>
          </g>
        </g>
      </g>
      <g id="Grupo_15713" data-name="Grupo 15713" transform="translate(31.643 23.732)">
        <g id="Grupo_15712" data-name="Grupo 15712">
          <g id="Grupo_15711" data-name="Grupo 15711">
            <path id="Trazado_26185" data-name="Trazado 26185" d="M325.739,376.005a15.189,15.189,0,0,1-15.173-15.173V348.968a1.33,1.33,0,0,1,1.328-1.329h3.956a.651.651,0,0,0,.649-.649,9.239,9.239,0,0,1,18.478,0,.65.65,0,0,0,.649.649h3.954a1.33,1.33,0,0,1,1.329,1.329v11.865A15.189,15.189,0,0,1,325.739,376.005ZM313.872,350.3a.649.649,0,0,0-.649.648v9.888a12.515,12.515,0,1,0,25.03,0v-9.888a.648.648,0,0,0-.648-.648Zm11.866-9.888a6.589,6.589,0,0,0-6.582,6.582.649.649,0,0,0,.648.649h11.866a.65.65,0,0,0,.649-.649A6.59,6.59,0,0,0,325.739,340.408Z" transform="translate(-310.566 -337.751)" fill="#21b1b9"/>
          </g>
        </g>
      </g>
    </g>
  </g>
</svg>
