<svg xmlns="http://www.w3.org/2000/svg" width="279.669" height="328.948" viewBox="0 0 279.669 328.948">
  <g id="Grupo_15585" data-name="Grupo 15585" transform="translate(-360.56 -272.387)">
    <g id="Grupo_15531" data-name="Grupo 15531">
      <g id="Grupo_15510" data-name="Grupo 15510">
        <g id="Grupo_15509" data-name="Grupo 15509">
          <g id="Grupo_15508" data-name="Grupo 15508">
            <path id="Trazado_26101" data-name="Trazado 26101" d="M524.15,591.285H476.637a1,1,0,0,1-1-1V521.568a1,1,0,0,1,1-1H524.15a1,1,0,0,1,1,1v68.717A1,1,0,0,1,524.15,591.285Zm-46.513-2H523.15V522.568H477.637Z" fill="#21b1b9"/>
          </g>
        </g>
      </g>
      <g id="Grupo_15515" data-name="Grupo 15515">
        <g id="Grupo_15512" data-name="Grupo 15512">
          <g id="Grupo_15511" data-name="Grupo 15511">
            <rect id="Rectángulo_2855" data-name="Rectángulo 2855" width="172.491" height="277.669" rx="16" transform="translate(639.228 374.086) rotate(90)" fill="none"/>
          </g>
        </g>
        <g id="Grupo_15514" data-name="Grupo 15514">
          <g id="Grupo_15513" data-name="Grupo 15513">
            <path id="Trazado_26102" data-name="Trazado 26102" d="M623.229,547.577H377.56a17.018,17.018,0,0,1-17-17V390.086a17.019,17.019,0,0,1,17-17H623.229a17.019,17.019,0,0,1,17,17V530.577A17.018,17.018,0,0,1,623.229,547.577ZM377.56,375.086a15.016,15.016,0,0,0-15,15V530.577a15.016,15.016,0,0,0,15,15H623.229a15.017,15.017,0,0,0,15-15V390.086a15.017,15.017,0,0,0-15-15Z" fill="#21b1b9"/>
          </g>
        </g>
      </g>
      <g id="Grupo_15520" data-name="Grupo 15520">
        <g id="Grupo_15519" data-name="Grupo 15519">
          <g id="Grupo_15518" data-name="Grupo 15518">
            <path id="Trazado_26103" data-name="Trazado 26103" d="M623.607,520.932H377.181a4,4,0,0,1-4-4V393.707a8.009,8.009,0,0,1,8-8H619.607a8.009,8.009,0,0,1,8,8V516.932A4,4,0,0,1,623.607,520.932ZM381.181,387.707a6.007,6.007,0,0,0-6,6V516.932a2,2,0,0,0,2,2H623.607a2,2,0,0,0,2-2V393.707a6.007,6.007,0,0,0-6-6Z" fill="#21b1b9"/>
          </g>
        </g>
      </g>
      <g id="Grupo_15525" data-name="Grupo 15525">
        <g id="Grupo_15522" data-name="Grupo 15522">
          <g id="Grupo_15521" data-name="Grupo 15521">
            <rect id="Rectángulo_2857" data-name="Rectángulo 2857" width="89.919" height="10.05" rx="3" transform="translate(455.435 590.284)" fill="none"/>
          </g>
        </g>
        <g id="Grupo_15524" data-name="Grupo 15524">
          <g id="Grupo_15523" data-name="Grupo 15523">
            <path id="Trazado_26104" data-name="Trazado 26104" d="M542.353,601.335H458.435a4,4,0,0,1-4-4v-4.05a4,4,0,0,1,4-4h83.918a4,4,0,0,1,4,4v4.05A4,4,0,0,1,542.353,601.335Zm-83.918-10.05a2,2,0,0,0-2,2v4.05a2,2,0,0,0,2,2h83.918a2,2,0,0,0,2-2v-4.05a2,2,0,0,0-2-2Z" fill="#21b1b9"/>
          </g>
        </g>
      </g>
    </g>
    <g id="Grupo_15584" data-name="Grupo 15584">
      <g id="Grupo_15536" data-name="Grupo 15536">
        <g id="Grupo_15533" data-name="Grupo 15533">
          <g id="Grupo_15532" data-name="Grupo 15532">
            <path id="Trazado_26124" data-name="Trazado 26124" d="M3,0H194.766a7,7,0,0,1,7,7V227.755H0V3A3,3,0,0,1,3,0Z" transform="translate(399.675 292.087)" fill="#06233e"/>
          </g>
        </g>
        <g id="Grupo_15535" data-name="Grupo 15535">
          <g id="Grupo_15534" data-name="Grupo 15534">
            <path id="Trazado_26107" data-name="Trazado 26107" d="M601.441,520.842H399.675a1,1,0,0,1-1-1V295.088a4,4,0,0,1,4-4H594.441a8.009,8.009,0,0,1,8,8V519.842A1,1,0,0,1,601.441,520.842Zm-200.766-2H600.441V299.088a6.007,6.007,0,0,0-6-6H402.675a2,2,0,0,0-2,2Z" fill="#21b1b9"/>
          </g>
        </g>
      </g>
      <g id="Grupo_15547" data-name="Grupo 15547">
        <g id="Grupo_15541" data-name="Grupo 15541">
          <g id="Grupo_15538" data-name="Grupo 15538">
            <g id="Grupo_15537" data-name="Grupo 15537">
              <path id="Trazado_26108" data-name="Trazado 26108" d="M490.349,292.088h54.132L538.3,280.346a13.028,13.028,0,0,0-11.527-6.959H490.349Z" fill="#06233e"/>
            </g>
          </g>
          <g id="Grupo_15540" data-name="Grupo 15540">
            <g id="Grupo_15539" data-name="Grupo 15539">
              <path id="Trazado_26109" data-name="Trazado 26109" d="M544.482,293.088H490.349a1,1,0,0,1,0-2h52.476l-5.408-10.276a12,12,0,0,0-10.642-6.425H490.349a1,1,0,0,1,0-2h36.426a13.992,13.992,0,0,1,12.412,7.493l6.179,11.742a1,1,0,0,1-.884,1.466Z" fill="#21b1b9"/>
            </g>
          </g>
        </g>
        <g id="Grupo_15546" data-name="Grupo 15546">
          <g id="Grupo_15545" data-name="Grupo 15545">
            <g id="Grupo_15544" data-name="Grupo 15544">
              <path id="Trazado_26111" data-name="Trazado 26111" d="M526.356,293.088H472.223a1,1,0,0,1-.885-1.466l6.18-11.742a13.987,13.987,0,0,1,12.411-7.493h36.427a1,1,0,0,1,0,2H489.929a12,12,0,0,0-10.642,6.425l-5.408,10.276h52.477a1,1,0,0,1,0,2Z" fill="#21b1b9"/>
            </g>
          </g>
        </g>
      </g>
      <g id="Grupo_15552" data-name="Grupo 15552">
        <g id="Grupo_15549" data-name="Grupo 15549">
          <g id="Grupo_15548" data-name="Grupo 15548">
            <path id="Trazado_26112" data-name="Trazado 26112" d="M489.5,288.06l-4.06-7.714a13.025,13.025,0,0,0-11.526-6.959H417.381a13.028,13.028,0,0,0-11.527,6.959l-5.5,10.45a5.909,5.909,0,0,0-.679,2.751v27.739H601.441V298.977a6.889,6.889,0,0,0-6.89-6.889H496.17A7.539,7.539,0,0,1,489.5,288.06Z" fill="#06233e"/>
          </g>
        </g>
        <g id="Grupo_15551" data-name="Grupo 15551">
          <g id="Grupo_15550" data-name="Grupo 15550">
            <path id="Trazado_26113" data-name="Trazado 26113" d="M601.441,322.286H399.675a1,1,0,0,1-1-1V293.547a6.927,6.927,0,0,1,.8-3.217l5.5-10.45a13.988,13.988,0,0,1,12.411-7.493h56.53a13.986,13.986,0,0,1,12.411,7.493l4.061,7.714h0a6.523,6.523,0,0,0,5.786,3.494h98.383a7.9,7.9,0,0,1,7.889,7.889v22.309A1,1,0,0,1,601.441,322.286Zm-200.766-2H600.441V298.977a5.9,5.9,0,0,0-5.889-5.889H496.169a8.516,8.516,0,0,1-7.556-4.562l-4.06-7.714a12,12,0,0,0-10.642-6.425h-56.53a12,12,0,0,0-10.642,6.425l-5.5,10.45a4.929,4.929,0,0,0-.564,2.285Z" fill="#21b1b9"/>
          </g>
        </g>
      </g>
      <g id="Grupo_15557" data-name="Grupo 15557">
        <g id="Grupo_15554" data-name="Grupo 15554">
          <g id="Grupo_15553" data-name="Grupo 15553">
            <rect id="Rectángulo_2859" data-name="Rectángulo 2859" width="138.776" height="14.517" rx="2" transform="translate(407.115 299.408)" fill="#06233e"/>
          </g>
        </g>
        <g id="Grupo_15556" data-name="Grupo 15556">
          <g id="Grupo_15555" data-name="Grupo 15555">
            <path id="Trazado_26114" data-name="Trazado 26114" d="M543.891,314.925H409.115a3,3,0,0,1-3-3V301.408a3,3,0,0,1,3-3H543.891a3,3,0,0,1,3,3v10.517A3,3,0,0,1,543.891,314.925ZM409.115,300.408a1,1,0,0,0-1,1v10.517a1,1,0,0,0,1,1H543.891a1,1,0,0,0,1-1V301.408a1,1,0,0,0-1-1Z" fill="#21b1b9"/>
          </g>
        </g>
      </g>
      <g id="Grupo_15560" data-name="Grupo 15560">
        <g id="Grupo_15559" data-name="Grupo 15559">
          <g id="Grupo_15558" data-name="Grupo 15558">
            <path id="Trazado_26115" data-name="Trazado 26115" d="M471.852,283.738H418.867a1,1,0,0,1,0-2h52.985a1,1,0,0,1,0,2Z" fill="#21b1b9"/>
          </g>
        </g>
      </g>
      <g id="Grupo_15563" data-name="Grupo 15563">
        <g id="Grupo_15562" data-name="Grupo 15562">
          <g id="Grupo_15561" data-name="Grupo 15561">
            <path id="Trazado_26116" data-name="Trazado 26116" d="M519.755,283.738H498.066a1,1,0,0,1,0-2h21.689a1,1,0,0,1,0,2Z" fill="#21b1b9"/>
          </g>
        </g>
      </g>
      <g id="Grupo_15566" data-name="Grupo 15566">
        <g id="Grupo_15565" data-name="Grupo 15565">
          <g id="Grupo_15564" data-name="Grupo 15564">
            <path id="Trazado_26117" data-name="Trazado 26117" d="M586.244,310.855a4.189,4.189,0,1,1,4.189-4.189A4.193,4.193,0,0,1,586.244,310.855Zm0-6.377a2.189,2.189,0,1,0,2.189,2.188A2.19,2.19,0,0,0,586.244,304.478Z" fill="#21b1b9"/>
          </g>
        </g>
      </g>
      <g id="Grupo_15569" data-name="Grupo 15569">
        <g id="Grupo_15568" data-name="Grupo 15568">
          <g id="Grupo_15567" data-name="Grupo 15567">
            <path id="Trazado_26118" data-name="Trazado 26118" d="M573.449,310.855a4.189,4.189,0,1,1,4.189-4.189A4.193,4.193,0,0,1,573.449,310.855Zm0-6.377a2.189,2.189,0,1,0,2.189,2.188A2.19,2.19,0,0,0,573.449,304.478Z" fill="#21b1b9"/>
          </g>
        </g>
      </g>
      <g id="Grupo_15572" data-name="Grupo 15572" style="mix-blend-mode: multiply;isolation: isolate">
        <g id="Grupo_15571" data-name="Grupo 15571">
          <g id="Grupo_15570" data-name="Grupo 15570">
            <path id="Trazado_26119" data-name="Trazado 26119" d="M549.945,471.853,506.762,502.7a10.957,10.957,0,0,1-12.737,0l-43.183-30.845a10.956,10.956,0,0,1-4.588-8.915V374.424a10.957,10.957,0,0,1,10.957-10.957h86.365a10.957,10.957,0,0,1,10.957,10.957v88.514A10.956,10.956,0,0,1,549.945,471.853Z" fill="#d7efff"/>
          </g>
        </g>
      </g>
      <g id="Grupo_15577" data-name="Grupo 15577">
        <g id="Grupo_15574" data-name="Grupo 15574">
          <g id="Grupo_15573" data-name="Grupo 15573">
            <path id="Trazado_26120" data-name="Trazado 26120" d="M549.945,457.887l-43.183,30.845a10.957,10.957,0,0,1-12.737,0l-43.183-30.845a10.957,10.957,0,0,1-4.588-8.916V360.458A10.957,10.957,0,0,1,457.211,349.5h86.365a10.956,10.956,0,0,1,10.957,10.957v88.513A10.958,10.958,0,0,1,549.945,457.887Z" fill="#06233e"/>
          </g>
        </g>
        <g id="Grupo_15576" data-name="Grupo 15576">
          <g id="Grupo_15575" data-name="Grupo 15575">
            <path id="Trazado_26121" data-name="Trazado 26121" d="M500.394,491.772a11.941,11.941,0,0,1-6.95-2.227L450.262,458.7a11.979,11.979,0,0,1-5.008-9.73V360.457A11.97,11.97,0,0,1,457.211,348.5h86.365a11.97,11.97,0,0,1,11.957,11.956v88.514a11.979,11.979,0,0,1-5.008,9.73l-43.182,30.845A11.943,11.943,0,0,1,500.394,491.772ZM457.211,350.5a9.968,9.968,0,0,0-9.957,9.956v88.514a9.975,9.975,0,0,0,4.17,8.1l43.183,30.845a9.959,9.959,0,0,0,11.574,0l43.182-30.845h0a9.973,9.973,0,0,0,4.17-8.1V360.457a9.967,9.967,0,0,0-9.957-9.956Z" fill="#21b1b9"/>
          </g>
        </g>
      </g>
      <g id="Grupo_15580" data-name="Grupo 15580">
        <g id="Grupo_15579" data-name="Grupo 15579">
          <g id="Grupo_15578" data-name="Grupo 15578">
            <path id="Trazado_26122" data-name="Trazado 26122" d="M500.558,440.311a26.426,26.426,0,1,1,14.169-48.736,1,1,0,0,1-1.074,1.688,24.428,24.428,0,1,0,11.331,20.623,24.7,24.7,0,0,0-.267-3.621,1,1,0,0,1,1.978-.294,26.441,26.441,0,0,1-26.137,30.34Z" fill="#fd6764"/>
          </g>
        </g>
      </g>
      <g id="Grupo_15583" data-name="Grupo 15583">
        <g id="Grupo_15582" data-name="Grupo 15582">
          <g id="Grupo_15581" data-name="Grupo 15581">
            <path id="Trazado_26123" data-name="Trazado 26123" d="M499.594,421.936a1,1,0,0,1-.707-.293l-14.971-14.971a1,1,0,1,1,1.414-1.414l14.264,14.264,29.453-29.452a1,1,0,1,1,1.414,1.414L500.3,421.643A1,1,0,0,1,499.594,421.936Z" fill="#fd6764"/>
          </g>
        </g>
      </g>
    </g>
  </g>
</svg>
