<svg xmlns="http://www.w3.org/2000/svg" width="157.889" height="157.889" viewBox="0 0 157.889 157.889">
  <g id="Grupo_15896" data-name="Grupo 15896" transform="translate(-881.055 -6880.056)">
    <g id="Elipse_794" data-name="Elipse 794" transform="translate(1038.944 7016.356) rotate(171)" fill="#c4e7ff" stroke="#707070" stroke-width="1">
      <circle cx="69" cy="69" r="69" stroke="none"/>
      <circle cx="69" cy="69" r="68.5" fill="none"/>
    </g>
    <g id="Grupo_15723" data-name="Grupo 15723" transform="translate(637.379 6561.081)">
      <g id="Grupo_15721" data-name="Grupo 15721" transform="translate(294.744 412.57)">
        <g id="Grupo_15720" data-name="Grupo 15720" transform="translate(19.239 0)">
          <path id="Trazado_26196" data-name="Trazado 26196" d="M469.563,701.455c-1.033-1.382-1.623-2.512-4.541-2.563-2.918.051-3.508,1.181-4.541,2.563-1.664,2.134.11,3.713.124,5.907.2,1.556,1.528,1.652,2.172,2.567a3.172,3.172,0,0,0,2.29,1.063c.945-.212,1.591-.195,2.2-1.063.644-.915,2.285-1.011,2.481-2.567C469.762,705.168,471.227,703.589,469.563,701.455Zm-6.012,4.242c-.3.248-.257.244-1.4.659-.992.359-1.564-.965-1.621-1.317s.091-1.6.762-1.627c.951-.039,1.3-.219,2.15-.215a1.066,1.066,0,0,1,.865,1.6A3.463,3.463,0,0,1,463.552,705.7Zm2.049,1.178c-.275.106-.389-.193-.528-.184s-.211.316-.511.217c-.268-.088-.2-.186-.077-.929.1-.607.357-.941.6-.941.313,0,.492.414.588.889C465.732,706.244,465.859,706.776,465.6,706.876Zm4.005-1.837c-.057.352-.628,1.676-1.621,1.317-1.146-.415-1.1-.411-1.4-.659a3.462,3.462,0,0,1-.752-.9,1.066,1.066,0,0,1,.865-1.6c.846,0,1.2.176,2.15.215C469.514,703.44,469.662,704.687,469.606,705.039Z" transform="translate(-456.562 -698.892)" fill="#06233e"/>
          <path id="Trazado_26197" data-name="Trazado 26197" d="M448.131,753.156q5.187-1.885,10.391-3.722c.429.119.933.252,1.405.42a1.062,1.062,0,0,0,1.091-.55,1.125,1.125,0,0,0-.074-1.512,1.141,1.141,0,0,0-.93-1.206,1.067,1.067,0,0,0-1.194.269c-.252.427-.552.848-.8,1.211q-5.187,1.885-10.391,3.722c-.429-.119-.933-.252-1.4-.42a1.062,1.062,0,0,0-1.091.55,1.125,1.125,0,0,0,.073,1.512,1.141,1.141,0,0,0,.93,1.205,1.067,1.067,0,0,0,1.194-.269C447.58,753.939,447.879,753.518,448.131,753.156Z" transform="translate(-444.573 -737.23)" fill="#06233e"/>
          <path id="Trazado_26198" data-name="Trazado 26198" d="M443.592,749.3a1.062,1.062,0,0,0,1.091.55c.462-.165,1.255-.3,1.678-.413a1.81,1.81,0,0,0-.246,0q1.523.537,3.044,1.08a.092.092,0,0,0,.061,0l1.871-.668a.088.088,0,0,0,0-.166q-2.237-.8-4.471-1.614a.089.089,0,0,1-.043-.033c-.248-.357-.541-.77-.787-1.188a1.067,1.067,0,0,0-1.194-.269,1.144,1.144,0,0,0-.932,1.168.088.088,0,0,1-.024.065A1.127,1.127,0,0,0,443.592,749.3Z" transform="translate(-443.335 -737.23)" fill="#06233e"/>
          <path id="Trazado_26199" data-name="Trazado 26199" d="M496.418,771.171a.085.085,0,0,0-.03.06,1.012,1.012,0,0,1-.131.585,1.112,1.112,0,0,1-.494.466,1.9,1.9,0,0,1-.3.119,1.064,1.064,0,0,1-1.2-.268c-.252-.417-.544-.833-.786-1.19-.01-.01-.03-.02-.04-.03q-2.235-.818-4.471-1.617a.082.082,0,0,1,0-.159c.614-.228,1.239-.446,1.863-.675h.06c1.017.367,2.034.724,3.051,1.081a.045.045,0,0,0,.05,0c.423-.109.916-.248,1.38-.407.332-.129.8.119,1.087.546A1.144,1.144,0,0,1,496.418,771.171Z" transform="translate(-480.013 -754.887)" fill="#06233e"/>
        </g>
        <path id="Trazado_26200" data-name="Trazado 26200" d="M399.855,825.032h-54.49a.618.618,0,0,0-.618.618v1.205h.008l1.3.816a.629.629,0,0,0,.334.1h52.447a.629.629,0,0,0,.334-.1l1.3-.816h0V825.65A.618.618,0,0,0,399.855,825.032Z" transform="translate(-344.747 -800.417)" fill="#06233e"/>
      </g>
      <g id="Grupo_15722" data-name="Grupo 15722" transform="translate(298.573 406.165)">
        <path id="Trazado_26201" data-name="Trazado 26201" d="M410.915,666.072H365.946a1.58,1.58,0,0,0-1.58,1.58v28.8H412.5v-28.8A1.58,1.58,0,0,0,410.915,666.072ZM396.9,686.808a1.983,1.983,0,0,1,.067,2.285,1.75,1.75,0,0,1-.241.734,1.912,1.912,0,0,1-.837.782,2.72,2.72,0,0,1-.432.17,2.576,2.576,0,0,1-.682.1,1.621,1.621,0,0,1-1.468-.752c-.176-.289-.4-.618-.6-.908l-.014-.021q-2.106-.77-4.213-1.523a1.057,1.057,0,0,1-.279-.152c-1.452.521-2.9,1.044-4.343,1.567-.206.3-.432.625-.621.945a1.631,1.631,0,0,1-1.462.734,2.5,2.5,0,0,1-.657-.09,1.977,1.977,0,0,1-1.531-1.7,1.952,1.952,0,0,1,.066-2.28,2.313,2.313,0,0,1,.93-.79,2.18,2.18,0,0,1-1.226-.885,3.07,3.07,0,0,1,1.455-3.982,2.515,2.515,0,0,1,.664-.091,1.635,1.635,0,0,1,1.468.744c.183.311.409.638.615.935l.208.075a2.817,2.817,0,0,1-.767-1.653L383,681v-.049a6.341,6.341,0,0,0-.4-1.89c-.419-1.313-.895-2.8.452-4.528l.216-.293c.955-1.3,1.857-2.533,4.96-2.587,3.132.054,4.034,1.284,4.989,2.587l.226.306a4.706,4.706,0,0,1,.646,4.587,7.7,7.7,0,0,0-.3,1.818V681l-.006.049c-.008.068-.027.125-.04.189a1.875,1.875,0,0,1,1.038-.29,2.5,2.5,0,0,1,.657.09,1.978,1.978,0,0,1,1.531,1.7,1.953,1.953,0,0,1-.066,2.28,2.178,2.178,0,0,1-1.248.895A2.132,2.132,0,0,1,396.9,686.808Z" transform="translate(-364.366 -666.072)" fill="#06233e"/>
      </g>
      <path id="Trazado_26202" data-name="Trazado 26202" d="M441.277,498.962h-2.223c-.257-1.506-1.325-1.506-2.206-1.506h-7.786a1.7,1.7,0,0,0-1.277.337c-.023.023-.04.05-.06.074h-1.5a.944.944,0,0,0-.06-.074,1.7,1.7,0,0,0-1.277-.337H417.1c-.881,0-1.949,0-2.206,1.506h-2.326v2.245h2.306c.118,1.511.6,2.82,2.583,2.82,7.831,0,9.1-1.214,9.1-4.119,0-.213,0-.4,0-.584a1.361,1.361,0,0,1,.371-.154,1.735,1.735,0,0,1,.472.2c0,.168,0,.345,0,.542,0,2.9,1.268,4.119,9.1,4.119,1.983,0,2.465-1.309,2.583-2.82h2.2Zm-23.82,4.241c-1.628,0-1.8-1.061-1.8-3.483,0-1.442.422-1.442,1.441-1.442h7.786c.179,0,.6,0,.695.1a3.894,3.894,0,0,1,.153,1.532C425.732,502.012,425.346,503.2,417.457,503.2Zm19.033,0c-7.889,0-8.274-1.191-8.277-3.3a3.888,3.888,0,0,1,.153-1.532c.1-.1.516-.1.695-.1h7.786c1.019,0,1.441,0,1.441,1.442C438.289,502.142,438.12,503.2,436.491,503.2Z" transform="translate(-104.589 -124.195)" fill="#06233e"/>
      <path id="Trazado_26203" data-name="Trazado 26203" d="M362,420.322c-2.217-11.2-3.242-17.024-10.7-25.612l-13.374-8.326c3.874-4.514,7.861-7.938,7.861-9.6a2.92,2.92,0,0,0-.08-.675l0,0-.006-.018c-.022-.092-.049-.183-.08-.274-.625-2.149-4.574-15.593-10.858-25.247a9.8,9.8,0,0,0-1.64-1.913c-2.256-2.043-7.982-5.51-10.784-5.51h0c-2.8,0-8.528,3.466-10.784,5.51a9.808,9.808,0,0,0-1.641,1.913c-6.28,9.647-10.23,23.08-10.859,25.242q-.048.139-.082.279l-.005.018,0,0a2.919,2.919,0,0,0-.08.675c0,1.661,3.988,5.086,7.862,9.6l-13.373,8.325c-7.459,8.588-8.485,14.416-10.7,25.612-.833,4.2,9.067,10.081,14.779,13.09V407.745a2.706,2.706,0,0,1,2.7-2.7h44.969a2.706,2.706,0,0,1,2.7,2.7V433.09C353.6,430,362.8,424.381,362,420.322ZM335.917,374a.265.265,0,0,1,.227.256s.016.221.03.527H334.65a1.81,1.81,0,0,0-.531-1.094C334.956,373.836,335.6,373.948,335.917,374Zm-2.032,1.541c0,2.422-.17,3.483-1.8,3.483-7.889,0-8.274-1.191-8.277-3.3a3.889,3.889,0,0,1,.153-1.532c.1-.1.516-.1.695-.1h7.786C333.463,374.1,333.885,374.1,333.885,375.546Zm-11.4-3.343a78.917,78.917,0,0,1,9.121,1.078h-6.945a1.7,1.7,0,0,0-1.277.337.913.913,0,0,0-.06.074h-1.5a.913.913,0,0,0-.06-.074,1.7,1.7,0,0,0-1.277-.337h-7.122A78.947,78.947,0,0,1,322.482,372.2Zm-9.786,1.9h7.786c.179,0,.6,0,.695.1a3.888,3.888,0,0,1,.153,1.532c0,2.105-.388,3.3-8.276,3.3-1.628,0-1.8-1.061-1.8-3.483C311.254,374.1,311.676,374.1,312.7,374.1Zm-3.652-.1c.346-.061,1.071-.188,2.016-.347a1.777,1.777,0,0,0-.571,1.13h-1.7c.014-.305.03-.527.03-.527A.265.265,0,0,1,309.044,374Zm16.288,20.04a7.631,7.631,0,0,1-5.705,0c-3.305-2-9.19-11.776-10.652-17.013h1.5c.118,1.511.6,2.82,2.583,2.82,7.831,0,9.1-1.214,9.1-4.119,0-.213,0-.4,0-.584a1.361,1.361,0,0,1,.371-.154,1.736,1.736,0,0,1,.472.2c0,.168,0,.345,0,.542,0,2.9,1.268,4.119,9.1,4.119,1.983,0,2.465-1.309,2.583-2.82h1.317C334.523,382.269,328.637,392.047,325.332,394.044Z" transform="translate(0 0)" fill="#06233e"/>
    </g>
  </g>
</svg>
