<svg xmlns="http://www.w3.org/2000/svg" xmlns:xlink="http://www.w3.org/1999/xlink" width="816.724" height="935.63" viewBox="0 0 816.724 935.63">
  <defs>
    <linearGradient id="linear-gradient" x1="0.313" y1="-4.247" x2="0.313" y2="-5.037" gradientUnits="objectBoundingBox">
      <stop offset="0" stop-color="#b3b3b3"/>
      <stop offset="0.394" stop-color="#cecece"/>
      <stop offset="0.742" stop-color="#dfdfdf"/>
      <stop offset="1" stop-color="#e6e6e6"/>
    </linearGradient>
    <linearGradient id="linear-gradient-2" x1="0.232" y1="-2.09" x2="0.232" y2="-3.108" xlink:href="#linear-gradient"/>
    <linearGradient id="linear-gradient-3" x1="0.328" y1="-2.378" x2="0.328" y2="-3.396" xlink:href="#linear-gradient"/>
    <linearGradient id="linear-gradient-4" x1="0.44" y1="-13.548" x2="0.44" y2="-14.339" gradientUnits="objectBoundingBox">
      <stop offset="0" stop-color="#e6e6e6"/>
      <stop offset="0.258" stop-color="#dfdfdf"/>
      <stop offset="0.606" stop-color="#cecece"/>
      <stop offset="1" stop-color="#b3b3b3"/>
    </linearGradient>
    <linearGradient id="linear-gradient-5" x1="0.698" y1="3.707" x2="0.698" y2="2.876" xlink:href="#linear-gradient"/>
    <linearGradient id="linear-gradient-6" x1="0.738" y1="2.645" x2="0.738" y2="1.635" xlink:href="#linear-gradient"/>
    <linearGradient id="linear-gradient-7" x1="0.815" y1="2.86" x2="0.815" y2="1.85" xlink:href="#linear-gradient"/>
    <linearGradient id="linear-gradient-8" x1="0.605" y1="-19.392" x2="0.605" y2="-20.223" xlink:href="#linear-gradient-4"/>
    <linearGradient id="linear-gradient-9" x1="1.865" y1="10.863" x2="1.865" y2="10.134" xlink:href="#linear-gradient"/>
    <linearGradient id="linear-gradient-10" x1="2.586" y1="8.017" x2="2.586" y2="6.979" xlink:href="#linear-gradient"/>
    <linearGradient id="linear-gradient-11" x1="2.709" y1="8.44" x2="2.709" y2="7.401" xlink:href="#linear-gradient"/>
    <linearGradient id="linear-gradient-12" x1="1.684" y1="-31.237" x2="1.684" y2="-31.966" xlink:href="#linear-gradient-4"/>
    <linearGradient id="linear-gradient-13" x1="0.317" y1="-15.735" x2="0.317" y2="-16.441" xlink:href="#linear-gradient"/>
    <linearGradient id="linear-gradient-14" x1="0.308" y1="-10.963" x2="0.308" y2="-12.014" xlink:href="#linear-gradient"/>
    <linearGradient id="linear-gradient-15" x1="0.442" y1="-11.451" x2="0.442" y2="-12.502" xlink:href="#linear-gradient"/>
    <linearGradient id="linear-gradient-16" x1="0.542" y1="-10.204" x2="0.542" y2="-10.91" xlink:href="#linear-gradient-4"/>
    <linearGradient id="linear-gradient-17" y1="0.5" x2="1" y2="0.5" gradientUnits="objectBoundingBox">
      <stop offset="0" stop-color="#e6e6e6"/>
      <stop offset="0.053" stop-color="#bdb1d1"/>
      <stop offset="0.11" stop-color="#9983bf"/>
      <stop offset="0.168" stop-color="#7a5aaf"/>
      <stop offset="0.227" stop-color="#6039a2"/>
      <stop offset="0.287" stop-color="#4d2098"/>
      <stop offset="0.35" stop-color="#3f0e91"/>
      <stop offset="0.416" stop-color="#36038d"/>
      <stop offset="0.49" stop-color="#34008c"/>
      <stop offset="0.599" stop-color="#35038c"/>
      <stop offset="0.682" stop-color="#3c0c8d"/>
      <stop offset="0.755" stop-color="#461c8e"/>
      <stop offset="0.823" stop-color="#563390"/>
      <stop offset="0.888" stop-color="#695192"/>
      <stop offset="0.949" stop-color="#817495"/>
      <stop offset="1" stop-color="#999"/>
    </linearGradient>
    <linearGradient id="linear-gradient-18" y1="0.5" x2="1" y2="0.5" gradientUnits="objectBoundingBox">
      <stop offset="0" stop-color="#e6e6e6"/>
      <stop offset="0.06" stop-color="#dcdce8"/>
      <stop offset="0.356" stop-color="#b4b0f2"/>
      <stop offset="0.622" stop-color="#9691f9"/>
      <stop offset="0.845" stop-color="#847dfd"/>
      <stop offset="1" stop-color="#7e77ff"/>
    </linearGradient>
    <linearGradient id="linear-gradient-19" x1="1.008" y1="0.775" x2="-0.019" y2="0.217" gradientUnits="objectBoundingBox">
      <stop offset="0" stop-color="#110027"/>
      <stop offset="0.039" stop-color="#201034"/>
      <stop offset="0.184" stop-color="#544863"/>
      <stop offset="0.329" stop-color="#80788b"/>
      <stop offset="0.472" stop-color="#a5a0ab"/>
      <stop offset="0.612" stop-color="#c1bec5"/>
      <stop offset="0.748" stop-color="#d5d4d7"/>
      <stop offset="0.88" stop-color="#e1e1e2"/>
      <stop offset="1" stop-color="#e6e6e6"/>
    </linearGradient>
    <linearGradient id="linear-gradient-20" y1="0.5" x2="1" y2="0.5" gradientUnits="objectBoundingBox">
      <stop offset="0" stop-color="#83ccff"/>
      <stop offset="1" stop-color="#0040ca"/>
    </linearGradient>
    <linearGradient id="linear-gradient-23" y1="0.5" x2="1" y2="0.5" gradientUnits="objectBoundingBox">
      <stop offset="0" stop-color="#e6e6e6"/>
      <stop offset="0.244" stop-color="#bbb1ee"/>
      <stop offset="0.483" stop-color="#9785f5"/>
      <stop offset="0.697" stop-color="#7d66fa"/>
      <stop offset="0.876" stop-color="#6d52fd"/>
      <stop offset="1" stop-color="#684cff"/>
    </linearGradient>
    <linearGradient id="linear-gradient-25" y1="0.5" x2="1" y2="0.5" gradientUnits="objectBoundingBox">
      <stop offset="0" stop-color="#e6e6e6"/>
      <stop offset="0.135" stop-color="#dbd9e8"/>
      <stop offset="0.384" stop-color="#bfb6ed"/>
      <stop offset="0.717" stop-color="#927ff6"/>
      <stop offset="1" stop-color="#684cff"/>
    </linearGradient>
    <linearGradient id="linear-gradient-26" x1="0.076" y1="2.847" x2="0.076" y2="2.354" xlink:href="#linear-gradient"/>
    <linearGradient id="linear-gradient-27" x1="-0.271" y1="2.622" x2="-0.271" y2="1.756" xlink:href="#linear-gradient"/>
    <linearGradient id="linear-gradient-28" x1="-0.425" y1="3.378" x2="-0.425" y2="2.512" xlink:href="#linear-gradient"/>
    <linearGradient id="linear-gradient-29" x1="-1.786" y1="9.567" x2="-0.581" y2="9.567" xlink:href="#linear-gradient-4"/>
  </defs>
  <g id="Grupo_15942" data-name="Grupo 15942" transform="translate(-9934 -3034)">
    <g id="Grupo_15941" data-name="Grupo 15941" transform="translate(8812.249 2813.771)">
      <g id="Grupo_15905" data-name="Grupo 15905">
        <g id="Grupo_15901" data-name="Grupo 15901" opacity="0.82">
          <path id="Trazado_26552" data-name="Trazado 26552" d="M1357.981,453.225h0l122.66-23.322h0L1411.6,401.02Z" fill="url(#linear-gradient)"/>
          <path id="Trazado_26553" data-name="Trazado 26553" d="M1465.223,348.814l15.418,81.09L1411.6,401.02Z" fill="url(#linear-gradient-2)"/>
          <path id="Trazado_26554" data-name="Trazado 26554" d="M1342.563,372.136l15.418,81.089L1411.6,401.02Z" fill="url(#linear-gradient-3)"/>
          <path id="Trazado_26555" data-name="Trazado 26555" d="M1342.563,372.136h0l122.66-23.322h0l-50.7,55.118Z" opacity="0.26"/>
          <path id="Trazado_26556" data-name="Trazado 26556" d="M1342.563,372.136h0l122.66-23.322h0L1411.6,401.02Z" fill="url(#linear-gradient-4)"/>
        </g>
        <g id="Grupo_15902" data-name="Grupo 15902">
          <path id="Trazado_26557" data-name="Trazado 26557" d="M1373.229,544.7h0l171.389,24.358h0l-77.643-68.83Z" fill="url(#linear-gradient-5)"/>
          <path id="Trazado_26558" data-name="Trazado 26558" d="M1560.721,455.751l-16.1,113.3-77.643-68.83Z" fill="url(#linear-gradient-6)"/>
          <path id="Trazado_26559" data-name="Trazado 26559" d="M1389.332,431.393l-16.1,113.3,93.746-44.473Z" fill="url(#linear-gradient-7)"/>
          <path id="Trazado_26560" data-name="Trazado 26560" d="M1389.332,431.393h0l171.389,24.358h0l-91.216,49.6Z" opacity="0.26"/>
          <path id="Trazado_26561" data-name="Trazado 26561" d="M1389.332,431.393h0l171.389,24.358h0l-93.745,44.473Z" fill="url(#linear-gradient-8)"/>
        </g>
        <g id="Grupo_15903" data-name="Grupo 15903" opacity="0.64">
          <path id="Trazado_26562" data-name="Trazado 26562" d="M1468.216,318.929h0l80.913,22.618h0l-32.98-38.054Z" fill="url(#linear-gradient-9)"/>
          <path id="Trazado_26563" data-name="Trazado 26563" d="M1564.082,288.057l-14.953,53.49-32.98-38.054Z" fill="url(#linear-gradient-10)"/>
          <path id="Trazado_26564" data-name="Trazado 26564" d="M1483.169,265.439l-14.953,53.491,47.933-15.436Z" fill="url(#linear-gradient-11)"/>
          <path id="Trazado_26565" data-name="Trazado 26565" d="M1483.169,265.439h0l80.913,22.618h0l-47.042,18.065Z" opacity="0.26"/>
          <path id="Trazado_26566" data-name="Trazado 26566" d="M1483.169,265.439h0l80.913,22.618h0l-47.933,15.436Z" fill="url(#linear-gradient-12)"/>
        </g>
        <g id="Grupo_15904" data-name="Grupo 15904" opacity="0.43">
          <path id="Trazado_26567" data-name="Trazado 26567" d="M1401.955,273.544h0l54.2-17.486h0l-32.878-9.171Z" fill="url(#linear-gradient-13)"/>
          <path id="Trazado_26568" data-name="Trazado 26568" d="M1444.592,220.229l11.56,35.829-32.878-9.171Z" fill="url(#linear-gradient-14)"/>
          <path id="Trazado_26569" data-name="Trazado 26569" d="M1390.4,237.715l11.56,35.829,21.318-26.657Z" fill="url(#linear-gradient-15)"/>
          <path id="Trazado_26570" data-name="Trazado 26570" d="M1390.4,237.715h0l54.2-17.486h0l-19.831,27.81Z" opacity="0.26"/>
          <path id="Trazado_26571" data-name="Trazado 26571" d="M1390.4,237.715h0l54.2-17.486h0l-21.318,26.657Z" fill="url(#linear-gradient-16)"/>
        </g>
      </g>
      <g id="Grupo_15940" data-name="Grupo 15940">
        <g id="Grupo_15910" data-name="Grupo 15910">
          <g id="Grupo_15906" data-name="Grupo 15906">
            <path id="Trazado_26572" data-name="Trazado 26572" d="M1528.448,1154.955,1132.217,931.6a7.023,7.023,0,0,1,.382-12.436l244.52-118.678a7.022,7.022,0,0,1,6.515.2l396.231,223.358a7.024,7.024,0,0,1-.382,12.437l-244.52,118.677A7.024,7.024,0,0,1,1528.448,1154.955Z" opacity="0.26"/>
          </g>
          <path id="Trazado_26573" data-name="Trazado 26573" d="M1532.145,1148.225l-405.82-228.764c-5.055-2.849-6.524-19.118-1.3-21.652l252.132-112.634a7.194,7.194,0,0,1,6.674.205l406.1,219.762c5.055,2.85,4.552,19.205-.668,21.739L1538.818,1148.43A7.191,7.191,0,0,1,1532.145,1148.225Z" fill="url(#linear-gradient-17)"/>
          <path id="Trazado_26574" data-name="Trazado 26574" d="M1531.551,1138.65l-405.82-228.764a7.193,7.193,0,0,1,.392-12.737L1376.56,775.6a7.191,7.191,0,0,1,6.673.205l405.821,228.764a7.193,7.193,0,0,1-.392,12.737l-250.437,121.549A7.194,7.194,0,0,1,1531.551,1138.65Z" fill="url(#linear-gradient-18)"/>
          <path id="Trazado_26575" data-name="Trazado 26575" d="M1812.016,991.919l55.451-257.112a13.043,13.043,0,0,0-6.345-14.111L1463.85,496.75c-7.655-4.315-23.662-.452-25.515,8.139l-49.089,257.586a13.042,13.042,0,0,0,6.345,14.11l390.919,226.022C1794.165,1006.922,1810.164,1000.51,1812.016,991.919Z" fill="url(#linear-gradient-19)"/>
          <path id="Trazado_26576" data-name="Trazado 26576" d="M1804.746,993.527,1860.2,736.414a13.044,13.044,0,0,0-6.345-14.111L1456.58,498.358a13.041,13.041,0,0,0-19.153,8.612l-55.451,257.112a13.043,13.043,0,0,0,6.345,14.111l397.272,223.946A13.042,13.042,0,0,0,1804.746,993.527Z" fill="#180029"/>
          <path id="Trazado_26577" data-name="Trazado 26577" d="M1794.6,994.107,1851.7,734.283,1445.6,505.5,1388.5,765.326Z" fill="url(#linear-gradient-20)"/>
          <path id="Trazado_26578" data-name="Trazado 26578" d="M1588.585,1066.043,1249.444,873.236a4.738,4.738,0,0,1,.258-8.39l111.368-54.131a4.735,4.735,0,0,1,4.4.135l339.356,193.092a4.738,4.738,0,0,1-.258,8.389l-111.583,53.847A4.737,4.737,0,0,1,1588.585,1066.043Z" opacity="0.36"/>
          <path id="Trazado_26579" data-name="Trazado 26579" d="M1587.089,1067.144,1250,875.5a4.708,4.708,0,0,1,.256-8.338l110.695-53.8a4.711,4.711,0,0,1,4.369.134l337.3,191.925a4.71,4.71,0,0,1-.256,8.339l-110.909,53.521A4.706,4.706,0,0,1,1587.089,1067.144Z" fill="url(#linear-gradient-18)"/>
          <path id="Trazado_26580" data-name="Trazado 26580" d="M1370.239,1034.544l-91.763-52.324a3.083,3.083,0,0,1,.2-5.439l71.9-35.547a3.024,3.024,0,0,1,2.828.07l91.9,52.507a3.084,3.084,0,0,1-.2,5.44l-72.034,35.363A3.03,3.03,0,0,1,1370.239,1034.544Z" opacity="0.36"/>
          <path id="Trazado_26581" data-name="Trazado 26581" d="M1370.9,1035.17l-91.759-52.331a3.037,3.037,0,0,1,.165-5.379l71.415-34.712a3.037,3.037,0,0,1,2.818.086l91.9,52.514a3.038,3.038,0,0,1-.165,5.379l-71.553,34.529A3.036,3.036,0,0,1,1370.9,1035.17Z" fill="url(#linear-gradient-18)"/>
          <g id="Grupo_15907" data-name="Grupo 15907">
            <path id="Trazado_26582" data-name="Trazado 26582" d="M1630.988,986.275,1353.617,828.623l13.474-6.258,277.371,157.652Z" fill="#16001a"/>
            <path id="Trazado_26583" data-name="Trazado 26583" d="M1676.631,1012.218l-26.918-15.3,13.474-6.258,26.918,15.3Z" fill="#16001a"/>
            <path id="Trazado_26584" data-name="Trazado 26584" d="M1641.6,1028.488l-323.014-183.6,15.271-7.092,323.014,183.6Z" fill="#16001a"/>
            <path id="Trazado_26585" data-name="Trazado 26585" d="M1622.908,1037.168l-323.014-183.6,15.271-7.092,323.014,183.6Z" fill="#16001a"/>
            <path id="Trazado_26586" data-name="Trazado 26586" d="M1604.219,1045.848,1281.2,862.253l15.271-7.092,323.014,183.6Z" fill="#16001a"/>
            <path id="Trazado_26587" data-name="Trazado 26587" d="M1585.529,1054.528l-323.014-183.6,15.271-7.092L1600.8,1047.436Z" fill="#16001a"/>
          </g>
          <path id="Trazado_26588" data-name="Trazado 26588" d="M1760.349,1038.513l-15.1,7.475.364-5.676,15.1-7.475Z" opacity="0.79"/>
          <path id="Trazado_26589" data-name="Trazado 26589" d="M1776.809,1030.379l-15.1,7.475.364-5.676,15.1-7.475Z" opacity="0.79"/>
          <path id="Trazado_26590" data-name="Trazado 26590" d="M1777.319,1030.647l-15.612,7.728.229-6.166,15.612-7.727Z" opacity="0.29"/>
          <path id="Trazado_26591" data-name="Trazado 26591" d="M1761.007,1038.725l-15.76,7.8.377-6.239,15.612-7.728Z" opacity="0.29"/>
          <g id="Grupo_15909" data-name="Grupo 15909" opacity="0.18">
            <path id="Trazado_26592" data-name="Trazado 26592" d="M1783.957,922.819,1806.8,935.8l2.718-12.371-12.09-6.872Z" fill="#00091f"/>
            <g id="Grupo_15908" data-name="Grupo 15908">
              <path id="Trazado_26593" data-name="Trazado 26593" d="M1473.529,757.535a4.742,4.742,0,0,1,2.094-6.539l111.368-54.132a4.738,4.738,0,0,1,4.4.135L1829.492,832.48l17.018-77.444L1649.041,643.721a7.2,7.2,0,0,0-6.673-.205L1391.93,765.065a7.216,7.216,0,0,0-1.981,1.428l404.027,227.614,10.086-45.9L1475.919,761.651A4.647,4.647,0,0,1,1473.529,757.535Z" fill="url(#linear-gradient-23)"/>
              <path id="Trazado_26594" data-name="Trazado 26594" d="M1536.943,734.554l279.2,158.69.689-3.139L1540.362,732.966l15.27-7.092,264.279,150.211.689-3.14L1559.051,724.286l15.271-7.092,249.359,141.731.69-3.139-246.63-140.18,15.271-7.092,234.44,133.251,1.507-6.86-237.72-135.263a4.714,4.714,0,0,0-4.369-.134l-110.695,53.8a4.714,4.714,0,0,0-.256,8.338l328.143,186.555,2.726-12.4-22.846-12.985,13.474-6.258,12.09,6.872,3.553-16.168L1521.672,741.646Zm243.4,171.041-13.474,6.258L1489.5,754.2l13.474-6.257Z" fill="url(#linear-gradient-23)"/>
              <path id="Trazado_26595" data-name="Trazado 26595" d="M1586.991,696.864,1475.623,751a4.742,4.742,0,0,0-2.094,6.539,4.654,4.654,0,0,1,2.646-4.222l110.695-53.8a4.714,4.714,0,0,1,4.369.134l237.72,135.263.533-2.425L1591.386,697A4.738,4.738,0,0,0,1586.991,696.864Z" opacity="0.21"/>
              <path id="Trazado_26596" data-name="Trazado 26596" d="M1489.5,754.2l277.371,157.652,13.474-6.258L1502.974,747.943Z" fill="#00091f"/>
              <path id="Trazado_26597" data-name="Trazado 26597" d="M1536.943,734.554l-15.271,7.092,291.387,165.619,3.081-14.02Z" fill="#00091f"/>
              <path id="Trazado_26598" data-name="Trazado 26598" d="M1540.362,732.966l276.468,157.139,3.081-14.021L1555.632,725.874Z" fill="#00091f"/>
              <path id="Trazado_26599" data-name="Trazado 26599" d="M1559.051,724.286,1820.6,872.945l3.081-14.02L1574.322,717.194Z" fill="#00091f"/>
              <path id="Trazado_26600" data-name="Trazado 26600" d="M1577.741,715.606l246.63,140.18,3.081-14.021-234.44-133.251Z" fill="#00091f"/>
              <path id="Trazado_26601" data-name="Trazado 26601" d="M1770.456,792.85l-84.718-48.316a2.8,2.8,0,0,1,.152-4.966l65.936-32.049a2.807,2.807,0,0,1,2.6.08l84.846,48.485a2.8,2.8,0,0,1-.153,4.966l-66.062,31.88A2.806,2.806,0,0,1,1770.456,792.85Z" fill="url(#linear-gradient-25)"/>
            </g>
          </g>
          <path id="Trazado_26602" data-name="Trazado 26602" d="M1640.729,789.876l30.96-140.891L1451.48,524.929l-30.96,140.891Z" opacity="0.22"/>
          <path id="Trazado_26603" data-name="Trazado 26603" d="M1520.716,631.412l10.213-46.478-72.644-40.925-10.213,46.478Z" opacity="0.22"/>
          <path id="Trazado_26604" data-name="Trazado 26604" d="M1786.11,977.8l14.312-65.132-101.8-57.35-14.312,65.132Z" opacity="0.22"/>
        </g>
        <g id="Grupo_15939" data-name="Grupo 15939">
          <g id="Grupo_15911" data-name="Grupo 15911">
            <path id="Trazado_26605" data-name="Trazado 26605" d="M1808.132,633.266l-60.089-68.031,61.671,47.488Z" fill="#bfbfbf"/>
            <path id="Trazado_26606" data-name="Trazado 26606" d="M1813.495,611.969l-5.363,21.3,1.583-20.543-61.671-47.488Z" fill="gray"/>
            <path id="Trazado_26607" data-name="Trazado 26607" d="M1748.043,565.235l61.671,47.488-36.174,6.342Z" fill="#fff"/>
            <path id="Trazado_26608" data-name="Trazado 26608" d="M1748.043,565.235l65.452,46.734,23.378-8.938Z" fill="#fff"/>
          </g>
          <g id="Grupo_15930" data-name="Grupo 15930">
            <path id="Trazado_26609" data-name="Trazado 26609" d="M1699.288,638.3V600.591l-49.4-28.519-18.067-24.223-18.067,3.361-49.4-28.519V560.4l-35.625,6.626V724.411h0l206.179,119.037h0V686.061Z" opacity="0.33"/>
            <g id="Grupo_15929" data-name="Grupo 15929">
              <path id="Trazado_26610" data-name="Trazado 26610" d="M1625.436,534.654l-103.09,19.175h0V711.217l206.179,119.038V672.867h0Z" fill="#919191"/>
              <g id="Grupo_15927" data-name="Grupo 15927">
                <path id="Trazado_26611" data-name="Trazado 26611" d="M1692.9,781.165l-134.929-77.9V509.5L1692.9,587.4Z" fill="#fff"/>
                <g id="Grupo_15926" data-name="Grupo 15926">
                  <g id="Grupo_15915" data-name="Grupo 15915">
                    <g id="Grupo_15912" data-name="Grupo 15912">
                      <path id="Trazado_26612" data-name="Trazado 26612" d="M1628.094,566.612,1571.953,534.2v-1.622l56.141,32.413Z"/>
                    </g>
                    <g id="Grupo_15913" data-name="Grupo 15913">
                      <path id="Trazado_26613" data-name="Trazado 26613" d="M1624.217,569.038l-52.264-30.175v-1.622l52.264,30.175Z"/>
                    </g>
                    <g id="Grupo_15914" data-name="Grupo 15914">
                      <path id="Trazado_26614" data-name="Trazado 26614" d="M1616.165,569.054l-44.212-25.526v-1.622l44.212,25.526Z"/>
                    </g>
                  </g>
                  <g id="Grupo_15925" data-name="Grupo 15925">
                    <g id="Grupo_15916" data-name="Grupo 15916">
                      <path id="Trazado_26615" data-name="Trazado 26615" d="M1665.42,623.148l-82.406-47.577v-.811l82.406,47.577Z"/>
                    </g>
                    <g id="Grupo_15917" data-name="Grupo 15917">
                      <path id="Trazado_26616" data-name="Trazado 26616" d="M1665.42,631.312l-82.406-47.577v-.811L1665.42,630.5Z"/>
                    </g>
                    <g id="Grupo_15918" data-name="Grupo 15918">
                      <path id="Trazado_26617" data-name="Trazado 26617" d="M1665.42,639.475,1583.014,591.9v-.811l82.406,47.577Z"/>
                    </g>
                    <g id="Grupo_15919" data-name="Grupo 15919">
                      <path id="Trazado_26618" data-name="Trazado 26618" d="M1665.42,647.639l-82.406-47.577v-.811l82.406,47.577Z"/>
                    </g>
                    <g id="Grupo_15920" data-name="Grupo 15920">
                      <path id="Trazado_26619" data-name="Trazado 26619" d="M1665.42,655.8l-82.406-47.577v-.811l82.406,47.577Z"/>
                    </g>
                    <g id="Grupo_15921" data-name="Grupo 15921">
                      <path id="Trazado_26620" data-name="Trazado 26620" d="M1665.42,663.966l-82.406-47.577v-.811l82.406,47.577Z"/>
                    </g>
                    <g id="Grupo_15922" data-name="Grupo 15922">
                      <path id="Trazado_26621" data-name="Trazado 26621" d="M1665.42,672.129l-82.406-47.577v-.811l82.406,47.577Z"/>
                    </g>
                    <g id="Grupo_15923" data-name="Grupo 15923">
                      <path id="Trazado_26622" data-name="Trazado 26622" d="M1665.42,680.292l-82.406-47.577V631.9l82.406,47.577Z"/>
                    </g>
                    <g id="Grupo_15924" data-name="Grupo 15924">
                      <path id="Trazado_26623" data-name="Trazado 26623" d="M1665.42,688.456l-82.406-47.577v-.811l82.406,47.577Z"/>
                    </g>
                  </g>
                </g>
              </g>
              <g id="Grupo_15928" data-name="Grupo 15928">
                <path id="Trazado_26624" data-name="Trazado 26624" d="M1522.347,711.217h0l206.179,119.037h0L1625.436,692.042Z" fill="url(#linear-gradient-26)"/>
                <path id="Trazado_26625" data-name="Trazado 26625" d="M1728.526,672.867V830.255L1625.436,692.042Z" fill="url(#linear-gradient-27)"/>
                <path id="Trazado_26626" data-name="Trazado 26626" d="M1522.347,553.829V711.217l103.09-19.175Z" fill="url(#linear-gradient-28)"/>
              </g>
            </g>
          </g>
          <g id="Grupo_15934" data-name="Grupo 15934">
            <g id="Grupo_15932" data-name="Grupo 15932">
              <path id="Trazado_26627" data-name="Trazado 26627" d="M1938.474,846.972l-108.721,44.637,28.613,10.556,6.564,25.151,18.97-20.724,23.368,3.953Z" opacity="0.33"/>
              <g id="Grupo_15931" data-name="Grupo 15931">
                <path id="Trazado_26628" data-name="Trazado 26628" d="M1859.86,921.826l77.149-87.346-79.181,60.971Z" fill="#bfbfbf"/>
                <path id="Trazado_26629" data-name="Trazado 26629" d="M1852.974,894.482l6.885,27.343-2.032-26.375,79.181-60.971Z" fill="gray"/>
                <path id="Trazado_26630" data-name="Trazado 26630" d="M1937.009,834.479l-79.181,60.971,46.445,8.142Z" fill="#fff"/>
                <path id="Trazado_26631" data-name="Trazado 26631" d="M1937.009,834.479l-84.034,60-30.016-11.476Z" fill="#fff"/>
              </g>
            </g>
            <g id="Grupo_15933" data-name="Grupo 15933" opacity="0.6">
              <path id="Trazado_26632" data-name="Trazado 26632" d="M1851.762,929.684c-1.625,9.865-8.029,18.4-14.7,25.519a141.922,141.922,0,0,1-29.406,23.37,150.738,150.738,0,0,1-32.408,15.318c-8.6,2.771-18.2,4.995-27.231,3.088a21.7,21.7,0,0,1-16.34-14.437c-2.336-7.129-.484-13.961,4.359-19.594,9.866-11.476,26.247-12.6,38.153-3.837,10.263,7.555,20.794,23.556,13.2,36.311-5.1,8.554-16.21,13.456-24.929,17.259-21.814,9.514-45.457,15.093-69.04,17.843a131.324,131.324,0,0,1-38.735-1.53c-16.284-2.88-31.551-7-45.964-15.349a129.957,129.957,0,0,1-35.543-30.275c-11.03-13.552-17.911-29.591-25.5-45.176-14.545-29.864-30.572-59.562-52.911-84.41-20.566-22.876-46.884-41.061-76.994-48.559-25.927-6.457-59.349-5.352-79.7,14.322a39.2,39.2,0,0,0-10.012,15.661c-.453,1.338,1.932,1.4,2.3.324,5.314-15.665,20.407-24.894,35.72-28.951,16.914-4.482,35.049-3.662,51.889.721,33.928,8.829,62.255,31.205,83.7,58.342,22.69,28.715,37.4,61.812,53.818,94.217,15.009,29.628,40.155,53.522,71.761,64.661,7.812,2.752,15.867,4.327,24,5.816a170.789,170.789,0,0,0,21.25,2.879c13.177.732,26.594-1.219,39.526-3.591a257.137,257.137,0,0,0,33.273-8.589c11.277-3.681,22.678-7.973,32.72-14.383,8.417-5.372,15.132-12.454,14.144-23.163-1.212-13.137-12.152-25.536-24.133-30.343-11.015-4.419-24.237-.857-32.486,7.4-8.568,8.579-10.226,22.394-1.124,31.446,15.913,15.825,44.053,3.89,60.615-4.319,20.585-10.2,42.864-25.089,54.5-45.513a38.1,38.1,0,0,0,4.669-12.636c.206-1.251-2.238-.979-2.425.155Z" fill="#fff"/>
            </g>
          </g>
          <g id="Grupo_15938" data-name="Grupo 15938">
            <g id="Grupo_15935" data-name="Grupo 15935">
              <path id="Trazado_26633" data-name="Trazado 26633" d="M1654.1,843.422,1525,768.887a11.9,11.9,0,0,0-12.638.812c2.044-1.289,4.751-1.236,7.71.473l129.1,74.535c6.328,3.654,11.507,13.548,11.507,21.987v6.993c0,5.151-1.931,8.611-4.874,9.7,5.036-.922,9.8-5.189,9.8-10.984v-6.993C1665.609,856.97,1660.431,847.076,1654.1,843.422Z" fill="#5b5b5b"/>
            </g>
            <g id="Grupo_15937" data-name="Grupo 15937">
              <path id="Trazado_26634" data-name="Trazado 26634" d="M1649.173,882.381l-129.1-74.535c-6.329-3.654-11.507-13.549-11.507-21.987v-6.994c0-8.438,5.178-12.353,11.507-8.7l129.1,74.535c6.329,3.654,11.508,13.549,11.508,21.987v6.994C1660.681,882.12,1655.5,886.035,1649.173,882.381Z" fill="url(#linear-gradient-29)"/>
              <g id="Grupo_15936" data-name="Grupo 15936" opacity="0.6">
                <path id="Trazado_26635" data-name="Trazado 26635" d="M1563.881,808.424l-2.969.666a9.536,9.536,0,0,0-3.186-3.816,2,2,0,0,0-1.29-.361.537.537,0,0,0-.5.574,2.347,2.347,0,0,0,.359,1.116q.486.855,2.941,4.156,2.295,3.066,2.782,3.8a16.847,16.847,0,0,1,1.729,3.138,6.978,6.978,0,0,1,.509,2.522q0,2.353-1.792,2.853t-4.673-1.165a14.849,14.849,0,0,1-3.921-3.264,18.289,18.289,0,0,1-2.86-4.8l3.37.1a9.5,9.5,0,0,0,3.5,4.555,2.583,2.583,0,0,0,1.735.455.788.788,0,0,0,.7-.854,3.493,3.493,0,0,0-.531-1.607,34.607,34.607,0,0,0-2.338-3.338,52.71,52.71,0,0,1-4.447-6.5,7.668,7.668,0,0,1-1-3.342,2.235,2.235,0,0,1,1.67-2.448,5.536,5.536,0,0,1,4.123.956,13.607,13.607,0,0,1,3,2.4A25,25,0,0,1,1563.881,808.424Z"/>
                <path id="Trazado_26636" data-name="Trazado 26636" d="M1568.09,808.255l11.5,6.639v3.562l-7.518-4.34v3.457l7.518,4.34v3.5l-7.518-4.341V826.1l7.518,4.341v3.574l-11.5-6.639Z"/>
                <path id="Trazado_26637" data-name="Trazado 26637" d="M1583.342,817.061l3.847,2.221,9.012,17.786V824.485l4.01,2.315v19.122l-3.856-2.227-9-17.742V838.5l-4.01-2.315Z"/>
                <path id="Trazado_26638" data-name="Trazado 26638" d="M1605.036,829.586l4.751,2.743a31.414,31.414,0,0,1,6.824,4.972,19.583,19.583,0,0,1,3.678,5.485,14.99,14.99,0,0,1,1.445,6.268,7.069,7.069,0,0,1-.809,3.594,3.675,3.675,0,0,1-2.232,1.786,5.474,5.474,0,0,1-3.083-.09,32.771,32.771,0,0,1-5.752-2.853l-4.822-2.783Zm3.982,5.808v12.063l1.862,1.075a12.426,12.426,0,0,0,3.987,1.729,2.2,2.2,0,0,0,2.027-.754,4.315,4.315,0,0,0,.787-2.877,10.171,10.171,0,0,0-1.876-5.808,16.2,16.2,0,0,0-5.427-4.642Z"/>
              </g>
            </g>
          </g>
        </g>
      </g>
    </g>
  </g>
</svg>
