<svg xmlns="http://www.w3.org/2000/svg" width="2100" height="2100" viewBox="0 0 2100 2100">
  <g id="Grupo_16020" data-name="Grupo 16020" transform="translate(-2666.48 -247.488)">
    <g id="Grupo_16005" data-name="Grupo 16005">
      <g id="Grupo_15993" data-name="Grupo 15993">
        <g id="Grupo_15992" data-name="Grupo 15992">
          <path id="Trazado_26692" data-name="Trazado 26692" d="M3470.736,1065.064c42.283-96.442,33.3-162.553,51.255-219.008,26.478-83.562,101.412-72.649,101.412-72.649s-11.146,73.3-13.984,169.6a97.223,97.223,0,0,1-57.544,85.7Z" fill="#fc8f72"/>
          <g id="Grupo_15983" data-name="Grupo 15983">
            <path id="Trazado_26693" data-name="Trazado 26693" d="M3555.136,941.689c-25.126,58.591-24.615,129.312-71.465,224.067-3.9,8.074-8.2,16.252-12.935,24.683l28.509-9.593,69.945-23.46a114.4,114.4,0,0,0,15.76-6.693V896.806C3573.836,907.625,3563.5,922.14,3555.136,941.689Z" fill="#fc8f72"/>
            <path id="Trazado_26694" data-name="Trazado 26694" d="M3584.934,1150.71v-253.9c42.415-41.266,96.267-27.993,96.267-27.993s-1.517,8.008-3.923,20.837c-4.4,23.321-11.77,62.549-18.321,98.254-6.329,34.741-11.917,66.145-13.213,76.378A113.45,113.45,0,0,1,3584.934,1150.71Z" fill="#ffb396"/>
            <path id="Trazado_26695" data-name="Trazado 26695" d="M3522.4,1314.819c-34.922,14.99-72.134,32.352-108.921,51.966-4.445,2.35-8.874,4.778-13.3,7.2,14.774,9.327,29.143,18.761,42.958,28.146,26.343,17.823,50.686,35.509,72.271,51.811,3.241,2.419,6.344,4.837,9.448,7.185,16.384,12.5,41.122,32.791,60.1,48.544v-139.3c-12.006-11.592-25.244-22.849-39.341-35.043C3538.09,1328.836,3530.321,1322.03,3522.4,1314.819Z" fill="#fc8f72"/>
            <path id="Trazado_26696" data-name="Trazado 26696" d="M3612.156,1532.416s55.857-63.142-5.517-138.716a262.993,262.993,0,0,0-21.689-23.332v139.3C3600.476,1522.555,3612.156,1532.416,3612.156,1532.416Z" fill="#ffb396"/>
            <path id="Trazado_26697" data-name="Trazado 26697" d="M3586.619,1288.762c38.867-14.938,119.364-41.032,119.364-41.032s-23.719-80.886-120.2-68.989c-.277.034-.553.1-.83.133v110.535C3585.5,1289.2,3586.073,1288.971,3586.619,1288.762Z" fill="#ffb396"/>
            <path id="Trazado_26698" data-name="Trazado 26698" d="M3458.927,1246.693c21.561,27.971,43.068,49.542,63.475,68.126.488-.21,1-.443,1.483-.651,21.448-9.189,41.956-17.427,61.065-24.759V1178.874c-41.3,5.3-81.518,23.128-135.265,35.941-3.832.912-7.8,1.769-11.777,2.624q10.443,15.738,20.95,29.254Z" fill="#fc8f72"/>
          </g>
          <path id="Trazado_26699" data-name="Trazado 26699" d="M2902.879,461.178c13.529-106.008,229.4-165.512,321.224-96.732,20.124,15.035,33.738,45.444,46.167,79.791v.043c.254.635.465,1.313.719,1.948,3.8,10.334,7.4,21.049,11.161,31.764.3.847.592,1.737.888,2.584,1.945,5.632,3.89,11.265,5.919,16.9l.381,1.016c4.016,11.1,8.2,22.024,12.725,32.442a6.415,6.415,0,0,1,.338.8c13.7,31.256,30.44,57.556,54.919,69.33,71.66,34.348,111.485,96.267,129.453,131.716a234.611,234.611,0,0,1,11.838,26.851s-5.919.678-16.531,1.694c-62.486,6.142-287.529,26.089-415.08,8.513-11.414-1.524-22.068-3.43-31.665-5.591-36.274-8.258-58.851-21.26-58.132-40.869,1.184-31.849-8.751-59.674-21.857-86.78,0-.085-.043-.127-.085-.212-4.228-8.851-8.794-17.618-13.444-26.47a1.066,1.066,0,0,0-.169-.3c-3.34-6.438-6.765-12.96-10.1-19.61-.38-.8-.8-1.567-1.183-2.371-4.143-8.217-8.118-16.6-11.711-25.2-.423-.974-.846-1.99-1.268-3.006C2905.543,530.509,2898.1,498.872,2902.879,461.178Z" fill="#ffb396"/>
          <g id="Grupo_15990" data-name="Grupo 15990">
            <path id="Trazado_26700" data-name="Trazado 26700" d="M3075.2,1622.306a47.034,47.034,0,0,0,47.007,47.09H3490.27a47.033,47.033,0,0,0,47.006-47.09v-30.962H3075.2Z" fill="#743b97"/>
            <path id="Trazado_26701" data-name="Trazado 26701" d="M3537.277,1591.344V833.08a47.032,47.032,0,0,0-47.006-47.089H3122.209A47.07,47.07,0,0,0,3075.2,833.08v758.264Z" fill="#fff"/>
            <g id="Grupo_15988" data-name="Grupo 15988">
              <g id="Grupo_15984" data-name="Grupo 15984">
                <ellipse id="Elipse_834" data-name="Elipse 834" cx="21.317" cy="21.355" rx="21.317" ry="21.355" transform="translate(3457.114 811.733)" fill="#e7e7f7"/>
                <ellipse id="Elipse_835" data-name="Elipse 835" cx="21.317" cy="21.355" rx="21.317" ry="21.355" transform="translate(3372.803 811.733)" fill="#cbcbee"/>
                <ellipse id="Elipse_836" data-name="Elipse 836" cx="21.317" cy="21.355" rx="21.317" ry="21.355" transform="translate(3288.492 811.733)" fill="#e7e7f7"/>
                <ellipse id="Elipse_837" data-name="Elipse 837" cx="21.317" cy="21.355" rx="21.317" ry="21.355" transform="translate(3204.181 811.733)" fill="#e7e7f7"/>
                <ellipse id="Elipse_838" data-name="Elipse 838" cx="21.317" cy="21.355" rx="21.317" ry="21.355" transform="translate(3119.869 811.733)" fill="#e7e7f7"/>
              </g>
              <g id="Grupo_15986" data-name="Grupo 15986">
                <g id="Grupo_15985" data-name="Grupo 15985">
                  <rect id="Rectángulo_2871" data-name="Rectángulo 2871" width="48.194" height="15.538" transform="translate(3408.574 1042.907)" fill="#cbcbee"/>
                  <rect id="Rectángulo_2872" data-name="Rectángulo 2872" width="97.398" height="15.538" transform="translate(3359.37 991.199)" fill="#e7e7f7"/>
                  <rect id="Rectángulo_2873" data-name="Rectángulo 2873" width="109.032" height="15.538" transform="translate(3228.96 991.199)" fill="#cbcbee"/>
                  <rect id="Rectángulo_2874" data-name="Rectángulo 2874" width="50.392" height="15.538" transform="translate(3157.111 991.199)" fill="#e7e7f7"/>
                  <rect id="Rectángulo_2875" data-name="Rectángulo 2875" width="105.705" height="15.538" transform="translate(3157.111 944.533)" fill="#e7e7f7"/>
                  <rect id="Rectángulo_2876" data-name="Rectángulo 2876" width="229.074" height="15.538" transform="translate(3157.111 1042.907)" fill="#e7e7f7"/>
                  <rect id="Rectángulo_2877" data-name="Rectángulo 2877" width="173.292" height="15.538" transform="translate(3283.476 944.533)" fill="#cbcbee"/>
                </g>
              </g>
              <rect id="Rectángulo_2878" data-name="Rectángulo 2878" width="461.572" height="4.235" transform="translate(3075.201 883.159)" fill="#e7e7f7"/>
              <g id="Grupo_15987" data-name="Grupo 15987">
                <ellipse id="Elipse_839" data-name="Elipse 839" cx="46.505" cy="46.587" rx="46.505" ry="46.587" transform="translate(3401.716 1473.486)" fill="#e7e7f7"/>
                <ellipse id="Elipse_840" data-name="Elipse 840" cx="46.505" cy="46.587" rx="46.505" ry="46.587" transform="translate(3259.735 1473.486)" fill="#cbcbee"/>
                <path id="Trazado_26702" data-name="Trazado 26702" d="M3164.259,1473.486a46.588,46.588,0,1,0,46.5,46.588A46.547,46.547,0,0,0,3164.259,1473.486Zm0,84.705a38.117,38.117,0,1,1,38.05-38.117A38.127,38.127,0,0,1,3164.259,1558.191Z" fill="#e7e7f7"/>
              </g>
              <rect id="Rectángulo_2879" data-name="Rectángulo 2879" width="461.572" height="4.235" transform="translate(3075.705 1441.588)" fill="#e7e7f7"/>
            </g>
            <g id="Grupo_15989" data-name="Grupo 15989">
              <path id="Trazado_26703" data-name="Trazado 26703" d="M3067,769.839a46.862,46.862,0,0,1,30.684-11.455h368.089a46.148,46.148,0,0,1,16.328,2.928c10.609-1.019,16.517-1.655,16.517-1.655A227.939,227.939,0,0,0,3486.8,732.8a68.166,68.166,0,0,0-16.645-2.037H3093.3a66.932,66.932,0,0,0-58,33.476C3044.951,766.4,3055.561,768.312,3067,769.839Z" fill="#fc8f72"/>
              <path id="Trazado_26704" data-name="Trazado 26704" d="M3117.8,1697.011h376.884a67.158,67.158,0,0,0,67.1-67.217V825.578a67.159,67.159,0,0,0-67.1-67.217H3117.8a67.158,67.158,0,0,0-67.1,67.217v804.216A67.158,67.158,0,0,0,3117.8,1697.011Zm-42.6-215.654v-648.3a47.067,47.067,0,0,1,47.005-47.088h368.073a47.044,47.044,0,0,1,47,47.086v789.256a47.042,47.042,0,0,1-47,47.083H3122.2a47.044,47.044,0,0,1-47-47.086Z" fill="#42144a"/>
              <rect id="Rectángulo_2880" data-name="Rectángulo 2880" width="57.241" height="17.752" rx="6.383" transform="translate(3472.824 1639.04) rotate(180)" fill="#5a276d"/>
              <rect id="Rectángulo_2881" data-name="Rectángulo 2881" width="25.29" height="17.752" rx="6.383" transform="translate(3508.718 1639.04) rotate(180)" fill="#5a276d"/>
              <ellipse id="Elipse_841" data-name="Elipse 841" cx="9.253" cy="9.269" rx="9.253" ry="9.269" transform="translate(3104.276 1621.359)" fill="#5a276d"/>
              <ellipse id="Elipse_842" data-name="Elipse 842" cx="9.253" cy="9.269" rx="9.253" ry="9.269" transform="translate(3169.945 1621.359)" fill="#5a276d"/>
              <ellipse id="Elipse_843" data-name="Elipse 843" cx="9.253" cy="9.269" rx="9.253" ry="9.269" transform="translate(3137.11 1621.359)" fill="#5a276d"/>
            </g>
          </g>
          <path id="Trazado_26705" data-name="Trazado 26705" d="M3104.847,1303.935c10.4-59.584-16.861-122.641,2.716-215.207a271.039,271.039,0,0,1,11.172-38.228c13.223-35.49,33.6-68.119,59.032-96.517a573.785,573.785,0,0,0,59.1-79.43c18.261-29.739,32.309-59.948,41.4-88.562H3122.208a47.107,47.107,0,0,0-47.007,47.17v537.208C3088.5,1355.168,3099.648,1333.821,3104.847,1303.935Z" fill="#dadaf3"/>
          <path id="Trazado_26706" data-name="Trazado 26706" d="M2977.17,723.4l28.017,16.982c56.073-84.758,137.646-128.769,188.869-99.07,54.963,31.738,48.633,133-1.591,232.954a566.513,566.513,0,0,1-52,83.942c-30.831,41.044-51.927,88.91-58.256,139.891-11.584,93.619,20.838,153.906,15.582,214.008-9.179,106.04-100.819,113.01-100.819,113.01s-.555-7.786-1.851-21.727c-.333-2.706-.629-5.6-.888-8.75-.074-.482-.111-1-.148-1.483-2.443-23.952-6.662-59.879-13.435-102.814-.3-1.928-.593-3.893-.925-5.858-.556-3.671-1.148-7.342-1.777-11.049-11.4-68.815-28.906-152.831-55.332-233.7C2902.925,979.193,2962.217,813.125,2977.17,723.4Z" fill="#ffb396"/>
          <path id="Trazado_26707" data-name="Trazado 26707" d="M2980.649,1290.342a59.215,59.215,0,0,1,41.3,45.79l7.033,37.188a12.243,12.243,0,0,1-8.772,14.126l-25.982,7.193c-.074-.482-.111-1-.148-1.483C2991.641,1369.2,2987.422,1333.277,2980.649,1290.342Z" fill="#ffdbcd"/>
          <path id="Trazado_26708" data-name="Trazado 26708" d="M3639.341,934l4.553-34.7a12.26,12.26,0,0,1,12.768-10.641l20.616,1c-4.4,23.321-11.77,62.549-18.321,98.254A62.037,62.037,0,0,1,3639.341,934Z" fill="#ffdbcd"/>
          <g id="Grupo_15991" data-name="Grupo 15991">
            <path id="Trazado_26709" data-name="Trazado 26709" d="M2666.48,247.488h281.061a111.388,111.388,0,0,0,28.96,11.435l66.544,15.967a111.265,111.265,0,0,1,84.725,118.967,111.265,111.265,0,0,0,67.348,113.25l57.75,24.437L2908.476,636.577Z" fill="#743b97"/>
            <path id="Trazado_26710" data-name="Trazado 26710" d="M2947.541,247.488H3240.9l97.069,258.136-85.1,25.92-57.75-24.437a111.265,111.265,0,0,1-67.348-113.25,111.265,111.265,0,0,0-84.725-118.967L2976.5,258.923A111.388,111.388,0,0,1,2947.541,247.488Z" fill="#5a276d"/>
          </g>
        </g>
      </g>
      <g id="Grupo_16004" data-name="Grupo 16004">
        <g id="Grupo_16003" data-name="Grupo 16003">
          <path id="Trazado_26711" data-name="Trazado 26711" d="M3962.224,1529.911c-42.283,96.442-33.305,162.553-51.255,219.008-26.477,83.563-101.411,72.65-101.411,72.65s11.145-73.295,13.984-169.6a97.217,97.217,0,0,1,57.544-85.7Z" fill="#fc8f72"/>
          <g id="Grupo_15994" data-name="Grupo 15994">
            <path id="Trazado_26712" data-name="Trazado 26712" d="M3877.824,1653.286c25.126-58.591,24.615-129.311,71.466-224.067,3.9-8.074,8.2-16.252,12.934-24.683l-28.508,9.593-69.945,23.46a114.258,114.258,0,0,0-15.761,6.694V1698.17C3859.125,1687.35,3869.464,1672.835,3877.824,1653.286Z" fill="#fc8f72"/>
            <path id="Trazado_26713" data-name="Trazado 26713" d="M3848.026,1444.265v253.9c-42.415,41.267-96.266,27.994-96.266,27.994s1.517-8.009,3.923-20.838c4.4-23.321,11.77-62.548,18.32-98.253,6.329-34.742,11.918-66.146,13.213-76.379A113.457,113.457,0,0,1,3848.026,1444.265Z" fill="#ffb396"/>
            <path id="Trazado_26714" data-name="Trazado 26714" d="M3910.559,1280.157c34.921-14.991,72.134-32.352,108.921-51.966,4.444-2.351,8.874-4.779,13.3-7.2-14.774-9.327-29.143-18.761-42.959-28.146-26.343-17.823-50.686-35.509-72.27-51.811-3.241-2.418-6.345-4.836-9.448-7.185-16.385-12.5-41.122-32.791-60.1-48.543v139.3c12.006,11.592,25.245,22.85,39.341,35.043C3894.871,1266.139,3902.639,1272.945,3910.559,1280.157Z" fill="#fc8f72"/>
            <path id="Trazado_26715" data-name="Trazado 26715" d="M3820.8,1062.559s-55.858,63.142,5.517,138.717a262.972,262.972,0,0,0,21.688,23.331v-139.3C3832.485,1072.42,3820.8,1062.559,3820.8,1062.559Z" fill="#ffb396"/>
            <path id="Trazado_26716" data-name="Trazado 26716" d="M3846.341,1306.213c-38.866,14.938-119.364,41.033-119.364,41.033s23.719,80.885,120.2,68.988c.278-.034.553-.1.83-.133V1305.566C3847.462,1305.776,3846.887,1306,3846.341,1306.213Z" fill="#ffb396"/>
            <path id="Trazado_26717" data-name="Trazado 26717" d="M3974.034,1348.282c-21.561-27.97-43.069-49.542-63.475-68.125-.488.209-1,.442-1.483.651-21.448,9.189-41.956,17.427-61.066,24.758V1416.1c41.3-5.3,81.518-23.128,135.266-35.941,3.831-.911,7.8-1.768,11.776-2.623q-10.441-15.738-20.949-29.255Z" fill="#fc8f72"/>
          </g>
          <path id="Trazado_26718" data-name="Trazado 26718" d="M4530.081,2133.8c-13.528,106.008-229.4,165.513-321.224,96.733-20.124-15.035-33.737-45.445-46.167-79.792v-.043c-.253-.634-.465-1.313-.719-1.947-3.8-10.334-7.4-21.05-11.161-31.765-.3-.847-.592-1.736-.888-2.583-1.944-5.633-3.889-11.266-5.918-16.9l-.381-1.016c-4.016-11.1-8.2-22.024-12.725-32.442a6.512,6.512,0,0,1-.339-.8c-13.7-31.255-30.439-57.556-54.918-69.33-71.66-34.348-111.486-96.267-129.454-131.716a234.608,234.608,0,0,1-11.837-26.851s5.918-.678,16.53-1.694c62.486-6.141,287.529-26.089,415.08-8.513,11.415,1.525,22.069,3.43,31.666,5.591,36.274,8.259,58.85,21.261,58.132,40.87-1.184,31.848,8.751,59.674,21.857,86.779,0,.085.042.127.085.212,4.227,8.852,8.793,17.619,13.444,26.47a1.048,1.048,0,0,0,.169.3c3.34,6.437,6.764,12.96,10.1,19.609.381.8.8,1.567,1.184,2.372,4.143,8.216,8.117,16.6,11.711,25.2.423.974.845,1.99,1.268,3.007C4527.418,2064.467,4534.859,2096.1,4530.081,2133.8Z" fill="#ffb396"/>
          <g id="Grupo_16001" data-name="Grupo 16001">
            <path id="Trazado_26719" data-name="Trazado 26719" d="M4357.759,972.669a47.031,47.031,0,0,0-47.006-47.089H3942.691a47.032,47.032,0,0,0-47.006,47.089v30.962h462.074Z" fill="#00c1b1"/>
            <path id="Trazado_26720" data-name="Trazado 26720" d="M3895.683,1003.631V1761.9a47.033,47.033,0,0,0,47.006,47.09h368.063a47.069,47.069,0,0,0,47.006-47.09V1003.631Z" fill="#fff"/>
            <g id="Grupo_15999" data-name="Grupo 15999">
              <g id="Grupo_15995" data-name="Grupo 15995">
                <ellipse id="Elipse_844" data-name="Elipse 844" cx="21.317" cy="21.355" rx="21.317" ry="21.355" transform="translate(3933.212 1740.532)" fill="#e7e7f7"/>
                <ellipse id="Elipse_845" data-name="Elipse 845" cx="21.317" cy="21.355" rx="21.317" ry="21.355" transform="translate(4017.523 1740.532)" fill="#cbcbee"/>
                <ellipse id="Elipse_846" data-name="Elipse 846" cx="21.317" cy="21.355" rx="21.317" ry="21.355" transform="translate(4101.834 1740.532)" fill="#e7e7f7"/>
                <ellipse id="Elipse_847" data-name="Elipse 847" cx="21.317" cy="21.355" rx="21.317" ry="21.355" transform="translate(4186.145 1740.532)" fill="#e7e7f7"/>
                <ellipse id="Elipse_848" data-name="Elipse 848" cx="21.317" cy="21.355" rx="21.317" ry="21.355" transform="translate(4270.457 1740.532)" fill="#e7e7f7"/>
              </g>
              <g id="Grupo_15997" data-name="Grupo 15997">
                <g id="Grupo_15996" data-name="Grupo 15996">
                  <rect id="Rectángulo_2882" data-name="Rectángulo 2882" width="48.194" height="15.538" transform="translate(3976.193 1536.531)" fill="#cbcbee"/>
                  <rect id="Rectángulo_2883" data-name="Rectángulo 2883" width="97.398" height="15.538" transform="translate(3976.193 1588.238)" fill="#e7e7f7"/>
                  <rect id="Rectángulo_2884" data-name="Rectángulo 2884" width="109.032" height="15.538" transform="translate(4094.969 1588.238)" fill="#cbcbee"/>
                  <rect id="Rectángulo_2885" data-name="Rectángulo 2885" width="50.392" height="15.538" transform="translate(4225.457 1588.238)" fill="#e7e7f7"/>
                  <rect id="Rectángulo_2886" data-name="Rectángulo 2886" width="105.705" height="15.538" transform="translate(4170.144 1634.905)" fill="#e7e7f7"/>
                  <rect id="Rectángulo_2887" data-name="Rectángulo 2887" width="229.074" height="15.538" transform="translate(4046.775 1536.531)" fill="#e7e7f7"/>
                  <rect id="Rectángulo_2888" data-name="Rectángulo 2888" width="173.292" height="15.538" transform="translate(3976.193 1634.905)" fill="#cbcbee"/>
                </g>
              </g>
              <rect id="Rectángulo_2889" data-name="Rectángulo 2889" width="461.572" height="4.235" transform="translate(3896.188 1707.582)" fill="#e7e7f7"/>
              <g id="Grupo_15998" data-name="Grupo 15998">
                <ellipse id="Elipse_849" data-name="Elipse 849" cx="46.505" cy="46.587" rx="46.505" ry="46.587" transform="translate(3938.234 1028.314)" fill="#e7e7f7"/>
                <ellipse id="Elipse_850" data-name="Elipse 850" cx="46.505" cy="46.587" rx="46.505" ry="46.587" transform="translate(4080.215 1028.314)" fill="#cbcbee"/>
                <path id="Trazado_26721" data-name="Trazado 26721" d="M4268.7,1028.314a46.588,46.588,0,1,0,46.506,46.588A46.547,46.547,0,0,0,4268.7,1028.314Zm0,84.705a38.117,38.117,0,1,1,38.05-38.117A38.127,38.127,0,0,1,4268.7,1113.019Z" fill="#e7e7f7"/>
              </g>
              <rect id="Rectángulo_2890" data-name="Rectángulo 2890" width="461.572" height="4.235" transform="translate(3895.685 1149.152)" fill="#e7e7f7"/>
            </g>
            <g id="Grupo_16000" data-name="Grupo 16000">
              <path id="Trazado_26722" data-name="Trazado 26722" d="M4365.965,1825.136a46.865,46.865,0,0,1-30.685,11.455H3967.191a46.164,46.164,0,0,1-16.327-2.927c-10.609,1.018-16.517,1.654-16.517,1.654a227.627,227.627,0,0,0,11.816,26.857,68.157,68.157,0,0,0,16.644,2.037h376.857a66.932,66.932,0,0,0,58-33.476C4388.01,1828.572,4377.4,1826.663,4365.965,1825.136Z" fill="#fc8f72"/>
              <path id="Trazado_26723" data-name="Trazado 26723" d="M4315.162,897.964H3938.277a67.159,67.159,0,0,0-67.1,67.218V1769.4a67.157,67.157,0,0,0,67.1,67.216h376.885a67.157,67.157,0,0,0,67.1-67.216V965.182A67.158,67.158,0,0,0,4315.162,897.964Zm42.6,215.654v648.295A47.066,47.066,0,0,1,4310.754,1809H3942.681a47.044,47.044,0,0,1-47-47.086V972.659a47.04,47.04,0,0,1,47-47.082h368.08a47.044,47.044,0,0,1,47,47.085Z" fill="#42144a"/>
              <rect id="Rectángulo_2891" data-name="Rectángulo 2891" width="57.241" height="17.752" rx="6.383" transform="translate(3960.137 955.935)" fill="#008ca4"/>
              <rect id="Rectángulo_2892" data-name="Rectángulo 2892" width="25.29" height="17.752" rx="6.383" transform="translate(3924.243 955.935)" fill="#008ca4"/>
              <ellipse id="Elipse_851" data-name="Elipse 851" cx="9.253" cy="9.269" rx="9.253" ry="9.269" transform="translate(4310.179 955.078)" fill="#008ca4"/>
              <ellipse id="Elipse_852" data-name="Elipse 852" cx="9.253" cy="9.269" rx="9.253" ry="9.269" transform="translate(4244.51 955.078)" fill="#008ca4"/>
              <ellipse id="Elipse_853" data-name="Elipse 853" cx="9.253" cy="9.269" rx="9.253" ry="9.269" transform="translate(4277.345 955.078)" fill="#008ca4"/>
            </g>
          </g>
          <path id="Trazado_26724" data-name="Trazado 26724" d="M4328.114,1291.041c-10.4,59.583,16.86,122.64-2.717,215.207a271.112,271.112,0,0,1-11.171,38.227c-13.223,35.49-33.6,68.119-59.032,96.517a573.793,573.793,0,0,0-59.1,79.43c-18.261,29.74-32.309,59.949-41.4,88.563h156.059a47.108,47.108,0,0,0,47.006-47.171V1224.607C4344.459,1239.808,4333.313,1261.155,4328.114,1291.041Z" fill="#dadaf3"/>
          <path id="Trazado_26725" data-name="Trazado 26725" d="M4455.791,1871.576l-28.018-16.981c-56.072,84.758-137.645,128.768-188.869,99.069-54.962-31.737-48.633-132.994,1.591-232.954a566.563,566.563,0,0,1,52-83.942c30.831-41.044,51.928-88.91,58.257-139.891,11.584-93.619-20.838-153.906-15.582-214.007,9.179-106.04,100.819-113.011,100.819-113.011s.555,7.786,1.85,21.727c.333,2.707.629,5.6.889,8.75.074.482.111,1,.148,1.483,2.443,23.952,6.662,59.88,13.435,102.815.3,1.928.592,3.893.925,5.857.555,3.671,1.147,7.342,1.777,11.05,11.4,68.814,28.906,152.831,55.332,233.695C4530.036,1615.783,4470.744,1781.85,4455.791,1871.576Z" fill="#ffb396"/>
          <path id="Trazado_26726" data-name="Trazado 26726" d="M4452.312,1304.634a59.22,59.22,0,0,1-41.305-45.79l-7.032-37.188a12.243,12.243,0,0,1,8.772-14.127l25.982-7.193c.074.482.111,1,.148,1.483C4441.32,1225.771,4445.539,1261.7,4452.312,1304.634Z" fill="#ffdbcd"/>
          <path id="Trazado_26727" data-name="Trazado 26727" d="M3793.619,1660.979l-4.552,34.7a12.261,12.261,0,0,1-12.769,10.642l-20.615-1c4.4-23.321,11.77-62.548,18.32-98.253A62.028,62.028,0,0,1,3793.619,1660.979Z" fill="#ffdbcd"/>
          <g id="Grupo_16002" data-name="Grupo 16002">
            <path id="Trazado_26728" data-name="Trazado 26728" d="M4766.48,2347.488H4485.42a111.333,111.333,0,0,0-28.96-11.435l-66.545-15.967a111.266,111.266,0,0,1-84.724-118.968,111.263,111.263,0,0,0-67.348-113.249l-57.751-24.438L4524.484,1958.4Z" fill="#00c1b1"/>
            <path id="Trazado_26729" data-name="Trazado 26729" d="M4485.42,2347.488H4192.057l-97.069-258.137,85.1-25.92,57.751,24.438a111.263,111.263,0,0,1,67.348,113.249,111.266,111.266,0,0,0,84.724,118.968l66.545,15.967A111.333,111.333,0,0,1,4485.42,2347.488Z" fill="#008ca4"/>
          </g>
        </g>
      </g>
    </g>
    <g id="Grupo_16006" data-name="Grupo 16006">
      <path id="Trazado_26730" data-name="Trazado 26730" d="M3186.845,1346.04l241.06-.573a28.721,28.721,0,0,0,28.569-28.7l-.359-151.208a28.723,28.723,0,0,0-28.705-28.569l-241.06.573a28.72,28.72,0,0,0-28.569,28.7l.359,151.208A28.721,28.721,0,0,0,3186.845,1346.04Z" fill="#ececf9"/>
      <path id="Trazado_26731" data-name="Trazado 26731" d="M3311,1277.327s24.1,40.583,47.6,32.019c61.276-22.332-49.457-131.192-49.457-131.192s-99.312,78.127-68.8,118.412C3270.023,1335.761,3311,1277.327,3311,1277.327Z" fill="#ff656b"/>
    </g>
    <g id="Grupo_16009" data-name="Grupo 16009">
      <path id="Trazado_26732" data-name="Trazado 26732" d="M3730.684,2071.191l-.567-147.379a27.993,27.993,0,0,0-28.019-27.8l-117.366.451-93.416-52.037.2,52.4-24.375.094a27.994,27.994,0,0,0-27.8,28.018l.566,147.379a27.994,27.994,0,0,0,28.019,27.8l234.956-.9A27.994,27.994,0,0,0,3730.684,2071.191Z" fill="#ececf9"/>
      <g id="Grupo_16008" data-name="Grupo 16008">
        <g id="Grupo_16007" data-name="Grupo 16007">
          <rect id="Rectángulo_2893" data-name="Rectángulo 2893" width="15.529" height="48.252" transform="translate(3648.987 2055.019) rotate(-89.935)" fill="#acacd3"/>
          <rect id="Rectángulo_2894" data-name="Rectángulo 2894" width="15.529" height="97.515" transform="translate(3599.782 2003.284) rotate(-89.935)" fill="#acacd3"/>
          <rect id="Rectángulo_2895" data-name="Rectángulo 2895" width="15.529" height="109.163" transform="translate(3469.215 2003.137) rotate(-89.935)" fill="#acacd3"/>
          <path id="Trazado_26733" data-name="Trazado 26733" d="M3626.589,2039.465l-157.249-.611-.018,15.529,157.249.611Z" fill="#acacd3"/>
          <path id="Trazado_26734" data-name="Trazado 26734" d="M3697.367,1941.226l-227.635-.671-.018,15.529,227.635.672Z" fill="#acacd3"/>
        </g>
      </g>
    </g>
    <g id="Grupo_16012" data-name="Grupo 16012">
      <path id="Trazado_26735" data-name="Trazado 26735" d="M3664.231,553.067l.566,147.379a27.994,27.994,0,0,0,28.019,27.8l117.366-.451,93.416,52.036-.2-52.4,24.375-.093a27.994,27.994,0,0,0,27.8-28.019l-.566-147.379a27.994,27.994,0,0,0-28.019-27.8l-234.956.9A27.994,27.994,0,0,0,3664.231,553.067Z" fill="#ececf9"/>
      <g id="Grupo_16011" data-name="Grupo 16011">
        <g id="Grupo_16010" data-name="Grupo 16010">
          <rect id="Rectángulo_2896" data-name="Rectángulo 2896" width="15.529" height="48.252" transform="translate(3697.658 584.714) rotate(-89.935)" fill="#acacd3"/>
          <rect id="Rectángulo_2897" data-name="Rectángulo 2897" width="15.529" height="97.516" transform="translate(3697.599 636.393) rotate(-89.935)" fill="#acacd3"/>
          <rect id="Rectángulo_2898" data-name="Rectángulo 2898" width="15.529" height="109.163" transform="translate(3816.519 636.527) rotate(-89.935)" fill="#acacd3"/>
          <path id="Trazado_26736" data-name="Trazado 26736" d="M3768.325,584.794l157.249.611.017-15.529-157.249-.611Z" fill="#acacd3"/>
          <path id="Trazado_26737" data-name="Trazado 26737" d="M3697.547,683.032l227.635.672.018-15.529-227.635-.671Z" fill="#acacd3"/>
        </g>
      </g>
    </g>
    <g id="Grupo_16015" data-name="Grupo 16015">
      <g id="Grupo_16013" data-name="Grupo 16013">
        <path id="Trazado_26738" data-name="Trazado 26738" d="M3139.8,1902.336l167.069,68.6a21.519,21.519,0,0,0,28-11.7l43.03-104.8a21.518,21.518,0,0,0-11.7-28l-17.332-7.117,15.3-37.256-81.579,10.041-83.456-34.267a21.517,21.517,0,0,0-28,11.7l-43.03,104.8A21.519,21.519,0,0,0,3139.8,1902.336Z" fill="#ececf9"/>
      </g>
      <g id="Grupo_16014" data-name="Grupo 16014">
        <path id="Trazado_26739" data-name="Trazado 26739" d="M3273.164,1816.36a53.446,53.446,0,1,0,25.921,75.442A53.441,53.441,0,0,0,3273.164,1816.36Z" fill="#fb3"/>
        <path id="Trazado_26740" data-name="Trazado 26740" d="M3225.945,1855.51l52.34,21.974a6.389,6.389,0,0,0,8.793-4.55,35.207,35.207,0,0,0,.557-4.932l-61.47-25.807a35.464,35.464,0,0,0-3.13,3.85A6.392,6.392,0,0,0,3225.945,1855.51Z" fill="#fff"/>
        <path id="Trazado_26741" data-name="Trazado 26741" d="M3287.635,1868a35.578,35.578,0,0,0-61.47-25.807Z" fill="#646487"/>
        <path id="Trazado_26742" data-name="Trazado 26742" d="M3255.319,1894.358a6.548,6.548,0,1,1,3.108,5.9A6.558,6.558,0,0,1,3255.319,1894.358Z" fill="#646487"/>
        <path id="Trazado_26743" data-name="Trazado 26743" d="M3218.946,1880.054a6.548,6.548,0,1,1,3.108,5.9A6.558,6.558,0,0,1,3218.946,1880.054Z" fill="#646487"/>
      </g>
    </g>
    <g id="Grupo_16017" data-name="Grupo 16017">
      <g id="Grupo_16016" data-name="Grupo 16016">
        <path id="Trazado_26744" data-name="Trazado 26744" d="M4274.71,1265.75a28.341,28.341,0,0,0-5.62-16.782,10.845,10.845,0,0,0-.691-.888,26.6,26.6,0,0,0-6.462-5.974,10.641,10.641,0,0,0-.987-.593,27.8,27.8,0,0,0-15.1-4.3l-241.584,1.392a28.017,28.017,0,0,0-14.61,4.189,27.264,27.264,0,0,0-7.553,6.512,28.63,28.63,0,0,0-6.374,18.16l.833,151.564a28.894,28.894,0,0,0,10.454,21.916,28.624,28.624,0,0,0,18.457,6.62l241.584-1.392a28.219,28.219,0,0,0,14.955-4.387,27.46,27.46,0,0,0,7.356-6.561,28.209,28.209,0,0,0,6.225-17.913Z" fill="#ffd988"/>
      </g>
      <path id="Trazado_26745" data-name="Trazado 26745" d="M4269.367,1435.227a27.46,27.46,0,0,1-7.356,6.561l-100.5-100.569-38.063,32.263-36.657-32.192-99.78,99.657a28.3,28.3,0,0,1-6.412-7.5l98.742-98.719-97.243-85.417a27.264,27.264,0,0,1,7.553-6.512l133.9,117.658,137.394-118.94a10.641,10.641,0,0,1,.987.593,26.6,26.6,0,0,1,6.462,5.974l-99.528,86.578Z" fill="#fb3"/>
    </g>
    <g id="Grupo_16019" data-name="Grupo 16019">
      <path id="Trazado_26746" data-name="Trazado 26746" d="M4165.689,646.146A99.714,99.714,0,0,0,4044.134,798.3l-22.221,45.2,51.113-20.836q2.292,1.28,4.672,2.454a99.715,99.715,0,0,0,87.991-178.968Z" fill="#74ecae"/>
      <g id="Grupo_16018" data-name="Grupo 16018">
        <path id="Trazado_26747" data-name="Trazado 26747" d="M4105.655,692.749l-25.416,51.694-4.754-2.337,11.879-24.16-26.692-13.124-11.879,24.16-4.754-2.337,25.416-51.694,4.754,2.337-11.389,23.164,26.693,13.123,11.388-23.163Z" fill="#f7f7fd"/>
        <path id="Trazado_26748" data-name="Trazado 26748" d="M4120.976,762.09a30.062,30.062,0,0,1-11.87-2.979c-11.426-5.617-15.672-17.323-9.827-29.212,6.222-12.655,17.013-16.588,26.985-11.686,9.282,4.564,12.476,13.945,6.782,25.526a31.621,31.621,0,0,1-2.343,3.992l-27.458-13.5c-3.608,9.083-.157,16.4,8.278,20.546,3.145,1.546,8.125,3.043,11.79,2.559Zm8.184-22.643c3.506-7.133,1.4-13.694-5.2-16.937-6.287-3.091-13.5-1.018-18.6,7.426l22.935,11.276Z" fill="#f7f7fd"/>
        <path id="Trazado_26749" data-name="Trazado 26749" d="M4145.967,728.472l5.369,2.64-1.12,15.639c-1.508,20.309-1.684,22.412-1.684,22.412s1.4-1.5,15.874-15.435l11.164-10.7,5.218,2.566-32.743,30.95c-9.8,9.276-16.873,8.942-22.779,6.038a14.113,14.113,0,0,1-2.726-1.816l2.263-4.6a11.988,11.988,0,0,0,2.42,1.668c5.214,2.564,10.827,1.418,16.031-3.739Z" fill="#f7f7fd"/>
        <path id="Trazado_26750" data-name="Trazado 26750" d="M4175.748,782.544a4.394,4.394,0,0,1,2.064,5.872,4.27,4.27,0,0,1-5.872,1.874,4.126,4.126,0,0,1-1.947-5.718A4.247,4.247,0,0,1,4175.748,782.544Zm19.685-45.655,4.679,2.3-18.026,36.663-4.678-2.3Z" fill="#f7f7fd"/>
      </g>
    </g>
  </g>
</svg>
