<svg xmlns="http://www.w3.org/2000/svg" xmlns:xlink="http://www.w3.org/1999/xlink" width="1556.846" height="1183.383" viewBox="0 0 1556.846 1183.383">
  <defs>
    <linearGradient id="linear-gradient" y1="0.5" x2="1" y2="0.5" gradientUnits="objectBoundingBox">
      <stop offset="0" stop-color="#f6e0e2"/>
      <stop offset="1" stop-color="#a7b6e7"/>
    </linearGradient>
    <linearGradient id="linear-gradient-2" x1="0.304" y1="0.612" x2="0.976" y2="0.258" xlink:href="#linear-gradient"/>
    <linearGradient id="linear-gradient-3" x1="-0.317" y1="0.628" x2="0.916" y2="0.41" xlink:href="#linear-gradient"/>
    <linearGradient id="linear-gradient-4" x1="0.858" y1="0.581" x2="-0.148" y2="0.43" xlink:href="#linear-gradient"/>
    <linearGradient id="linear-gradient-5" x1="0.052" y1="0.243" x2="1.073" y2="0.826" xlink:href="#linear-gradient"/>
    <linearGradient id="linear-gradient-6" x1="0.445" y1="0.488" x2="2.143" y2="0.896" xlink:href="#linear-gradient"/>
    <linearGradient id="linear-gradient-7" y1="0.5" x2="1" y2="0.5" gradientUnits="objectBoundingBox">
      <stop offset="0" stop-color="#a7b6e7"/>
      <stop offset="0.998" stop-color="#7f8dd4"/>
    </linearGradient>
    <linearGradient id="linear-gradient-8" x1="-12.784" y1="3.253" x2="-11.784" y2="3.253" gradientUnits="objectBoundingBox">
      <stop offset="0" stop-color="#4c5abd"/>
      <stop offset="1" stop-color="#1d299f"/>
    </linearGradient>
    <linearGradient id="linear-gradient-9" x1="0.5" y1="-0.207" x2="0.5" y2="1.563" xlink:href="#linear-gradient-8"/>
    <linearGradient id="linear-gradient-10" x1="0.5" y1="-0.092" x2="0.5" y2="1.376" xlink:href="#linear-gradient-8"/>
    <linearGradient id="linear-gradient-12" x1="0.5" y1="-0.166" x2="0.5" y2="1.495" xlink:href="#linear-gradient-8"/>
    <linearGradient id="linear-gradient-13" x1="0.5" y1="-0.18" x2="0.5" y2="1.522" xlink:href="#linear-gradient-8"/>
    <linearGradient id="linear-gradient-19" x1="0.91" y1="0.929" x2="0.91" y2="1.684" gradientUnits="objectBoundingBox">
      <stop offset="0" stop-color="#eebfc0"/>
      <stop offset="0.244" stop-color="#e6a5a4"/>
      <stop offset="0.532" stop-color="#e08e8a"/>
      <stop offset="0.793" stop-color="#dc7f7b"/>
      <stop offset="1" stop-color="#db7b76"/>
    </linearGradient>
    <linearGradient id="linear-gradient-20" x1="-0.387" y1="-1.43" x2="-0.387" y2="-0.668" xlink:href="#linear-gradient-19"/>
    <linearGradient id="linear-gradient-21" x1="0.654" y1="0.733" x2="0.654" y2="1.489" xlink:href="#linear-gradient-19"/>
    <linearGradient id="linear-gradient-22" x1="0.11" y1="-0.996" x2="0.11" y2="-0.235" xlink:href="#linear-gradient-19"/>
    <linearGradient id="linear-gradient-23" x1="-37.822" y1="-20.89" x2="-37.292" y2="-20.615" gradientUnits="objectBoundingBox">
      <stop offset="0" stop-color="#ecbdbe"/>
      <stop offset="1" stop-color="#e3918b"/>
    </linearGradient>
    <linearGradient id="linear-gradient-24" x1="-4.419" y1="0.457" x2="-3.436" y2="0.497" xlink:href="#linear-gradient-8"/>
    <linearGradient id="linear-gradient-25" x1="-43.738" y1="0.528" x2="-43.101" y2="0.463" xlink:href="#linear-gradient-8"/>
    <linearGradient id="linear-gradient-26" x1="-44.735" y1="0.492" x2="-43.705" y2="0.505" gradientUnits="objectBoundingBox">
      <stop offset="0" stop-color="#e5938d"/>
      <stop offset="1" stop-color="#db7b76"/>
    </linearGradient>
    <linearGradient id="linear-gradient-27" x1="-70.217" y1="0.536" x2="-69.464" y2="0.48" xlink:href="#linear-gradient-23"/>
    <linearGradient id="linear-gradient-28" x1="44.572" y1="0.499" x2="43.908" y2="0.5" xlink:href="#linear-gradient-26"/>
    <linearGradient id="linear-gradient-29" x1="34.853" y1="0.588" x2="34.298" y2="0.46" gradientUnits="objectBoundingBox">
      <stop offset="0" stop-color="#eebfc0"/>
      <stop offset="1" stop-color="#e5938d"/>
    </linearGradient>
    <linearGradient id="linear-gradient-30" x1="-16.329" y1="36.533" x2="-16.844" y2="37.074" gradientUnits="objectBoundingBox">
      <stop offset="0" stop-color="#4c5abb"/>
      <stop offset="1" stop-color="#1d299d"/>
    </linearGradient>
    <linearGradient id="linear-gradient-31" x1="-14.465" y1="0.563" x2="-15.392" y2="0.479" xlink:href="#linear-gradient-30"/>
    <linearGradient id="linear-gradient-32" x1="-24.28" y1="0.525" x2="-24.806" y2="0.459" xlink:href="#linear-gradient-30"/>
    <linearGradient id="linear-gradient-33" x1="125.899" y1="0.461" x2="125.088" y2="0.517" xlink:href="#linear-gradient-30"/>
    <linearGradient id="linear-gradient-34" x1="66.809" y1="32.08" x2="66.44" y2="32.19" xlink:href="#linear-gradient-8"/>
    <linearGradient id="linear-gradient-35" x1="4.191" y1="0.459" x2="3.802" y2="0.502" xlink:href="#linear-gradient-23"/>
    <linearGradient id="linear-gradient-36" x1="137.898" y1="0.536" x2="136.901" y2="0.457" gradientUnits="objectBoundingBox">
      <stop offset="0" stop-color="#7f8dd4"/>
      <stop offset="1" stop-color="#4c5abd"/>
    </linearGradient>
    <linearGradient id="linear-gradient-37" x1="117.395" y1="0.542" x2="116.994" y2="0.394" xlink:href="#linear-gradient-8"/>
    <linearGradient id="linear-gradient-38" x1="126.706" y1="0.509" x2="125.95" y2="0.486" xlink:href="#linear-gradient-26"/>
    <linearGradient id="linear-gradient-39" x1="6.477" y1="0.541" x2="7.147" y2="0.459" xlink:href="#linear-gradient-23"/>
    <linearGradient id="linear-gradient-40" x1="-13.464" y1="-26.311" x2="-12.904" y2="-25.986" xlink:href="#linear-gradient-30"/>
    <linearGradient id="linear-gradient-41" x1="5.765" y1="0.457" x2="7.059" y2="0.522" xlink:href="#linear-gradient-30"/>
    <linearGradient id="linear-gradient-42" x1="121.904" y1="0.569" x2="121.484" y2="0.393" xlink:href="#linear-gradient-30"/>
    <linearGradient id="linear-gradient-43" x1="-95.327" y1="33.151" x2="-94.327" y2="33.151" xlink:href="#linear-gradient-36"/>
    <linearGradient id="linear-gradient-44" x1="-152.577" y1="41.893" x2="-151.577" y2="41.893" xlink:href="#linear-gradient-36"/>
  </defs>
  <g id="Grupo_15886" data-name="Grupo 15886" transform="translate(-1701.577 78.864)">
    <path id="Trazado_26439" data-name="Trazado 26439" d="M2734.11-78.864a521.864,521.864,0,0,0-286.3,85,170.791,170.791,0,0,1-185.786.485,345.742,345.742,0,0,0-185.584-55.211c-192.85-1.319-350.495,155.75-349.851,348.6a345.84,345.84,0,0,0,68.331,205.752,187.43,187.43,0,0,1,36.838,122.664q-.12,2.055-.223,4.116c-13.22,265.408,206.84,485.045,472.225,471.37a446.814,446.814,0,0,0,225.871-74.9c59.146-39.539,128.917-59.854,200.059-59.266q2.209.018,4.422.018c289.57,0,524.313-234.743,524.313-524.313S3023.68-78.864,2734.11-78.864Z" opacity="0.4" fill="url(#linear-gradient)"/>
    <path id="Trazado_26440" data-name="Trazado 26440" d="M2737.283,788.965c37.167-4.673,104.127-23.6,128.323-59.044,22.337-32.727-7.585-75.464,8.69-107.4s112.347-52.76,138.444-89.67c30.947-43.77-40.234-82.408-7.2-112.453s144.9-62.137,154.675-99.163-34.925-37.385,4.836-105.435c33.669-57.625,78.773-133.2,38.723-166.749-42.682-35.75-96.524,23.061-125.025,69.507-36.715,59.83-71.2-5.765-112.08,21.332-36.964,24.5-36.39,165.211-64.7,192.211s-81.111,4.285-120.5,51.459,13.688,124.31-6.943,160.013S2698,563.517,2668.462,614.2,2737.283,788.965,2737.283,788.965Z" fill="url(#linear-gradient-2)"/>
    <path id="Trazado_26441" data-name="Trazado 26441" d="M2808.346,786.424c20.58,7.589,60.487,15.8,82.619,3.895,20.433-10.992,16.4-41.272,33.465-53.486s72.621,2.856,96.135-9.3c27.885-14.412,1.3-53.682,26.568-60.4s92.069,6.755,107.132-9.857-8.079-28.847,30.932-53.5c33.033-20.88,76.851-48.011,65.073-76.243-12.551-30.088-56.391-14.029-83.725,2.433-35.211,21.205-35.456-22.187-64.012-19.121-25.817,2.773-63.446,76.072-85.437,82.478s-43.318-19.634-76.511-5.73-26.391,68.309-46.738,81.308-45.154-10.26-74.171,8.123S2808.346,786.424,2808.346,786.424Z" fill="url(#linear-gradient-3)"/>
    <path id="Trazado_26442" data-name="Trazado 26442" d="M1703.381,420.093c-27.431,143.738,267.059,205.574,267.373,233.555s-150.1,12.761-118.082,87.839c29.668,69.559,264.167,91.68,433.182,7.737,4.894-2.431,121.132-216.01,29.386-337.317s-113.375,91.531-154.746,87.019,42.8-267.184-42.662-320.935c-88.552-55.69-111.1,131.9-152.63,104.176C1925.856,255.9,1899.315-9.212,1793.386,27.7a83.775,83.775,0,0,0-11.831,5.226l-.047.02v.006q-3.216,1.711-6.528,3.786c-121.423,76.154,119.959,350.4,66.731,362.412S1717.283,347.252,1703.381,420.093Z" fill="url(#linear-gradient-4)"/>
    <path id="Trazado_26443" data-name="Trazado 26443" d="M2182.148,786.849S2087.47,562.373,1995.89,438.96,1824.7,283.754,1824.7,283.754s44.78,54.642,80.745,131.176,56.751,160.221,104.489,232.882C2082.15,757.733,2182.148,786.849,2182.148,786.849Z" fill="url(#linear-gradient-5)"/>
    <path id="Trazado_26444" data-name="Trazado 26444" d="M2149.736,794s-88.58-145.749-164.655-221.826-134.465-89.933-134.465-89.933,36.613,33.249,69.366,82.564,55.728,105.139,96.237,150.564C2077.5,784.087,2149.736,794,2149.736,794Z" fill="url(#linear-gradient-6)"/>
    <g id="Grupo_15864" data-name="Grupo 15864">
      <g id="Grupo_15861" data-name="Grupo 15861">
        <circle id="Elipse_806" data-name="Elipse 806" cx="475.461" cy="475.461" r="475.461" transform="translate(2004.718 -14.951)" fill="url(#linear-gradient-7)"/>
      </g>
      <g id="Grupo_15862" data-name="Grupo 15862">
        <circle id="Elipse_807" data-name="Elipse 807" cx="409.625" cy="409.625" r="409.625" transform="translate(2070.554 50.885)" fill="#fff"/>
      </g>
      <g id="Grupo_15863" data-name="Grupo 15863">
        <path id="Trazado_26445" data-name="Trazado 26445" d="M2261.981,442.892a38.68,38.68,0,0,0,16,31.243,38.387,38.387,0,0,0-6.346,21.133v9.907a38.819,38.819,0,0,0,38.7,38.706h147.534c-3.858,11.38-9.332,29.442-10.936,36.732-18.413,80.4,15.295,137.185,35.588,140.055,20.925,2.849,35.118-127.857,110.791-201.615h105.062V286.528H2583.4a38.729,38.729,0,0,0-31.855-16.815H2319.986a38.819,38.819,0,0,0-38.705,38.706v9.907a38.349,38.349,0,0,0,5.049,19,38.754,38.754,0,0,0-19.242,33.375v9.907a38.418,38.418,0,0,0,8.017,23.447,38.684,38.684,0,0,0-12.7,23.563,5.257,5.257,0,0,0-.42,1.973c0,.465.082.922.1,1.385-.037.669-.1,1.33-.1,2.008Z" fill="url(#linear-gradient-8)"/>
      </g>
    </g>
    <g id="Grupo_15868" data-name="Grupo 15868">
      <g id="Grupo_15866" data-name="Grupo 15866">
        <g id="Grupo_15865" data-name="Grupo 15865">
          <path id="Trazado_26446" data-name="Trazado 26446" d="M2113.412,26.2H1877.618c-11.888,0-21.525,9.892-21.525,22.094V188.176c0,12.2,9.637,22.094,21.525,22.094h76.2l41.7,44.938,41.7-44.938h76.2c11.888,0,21.526-9.892,21.526-22.094V48.293C2134.938,36.091,2125.3,26.2,2113.412,26.2Z" fill="#fff"/>
        </g>
      </g>
      <g id="Grupo_15867" data-name="Grupo 15867">
        <path id="Trazado_26447" data-name="Trazado 26447" d="M1917.385,113.315,1916,121.177h-7.621l-2.924,16.634h-7.985l2.937-16.634h-6.2l-2.936,16.634h-7.823l2.925-16.634h-8.615l1.383-7.862h8.614l1.069-6.084h-8.458l1.343-7.824h8.491l2.73-15.527h7.862l-2.74,15.527h6.2l2.74-15.527h7.946l-2.731,15.527h7.507l-1.383,7.824h-7.5l-1.069,6.084Zm-14.512-6.084h-6.2l-1.075,6.084h6.2Z" fill="url(#linear-gradient-9)"/>
        <path id="Trazado_26448" data-name="Trazado 26448" d="M1948.005,136.27v7.467h-6.321V136.27q-14.263-1.5-17.345-13.749l10.865-2.49q1.857,6.993,10.194,6.994,4.029,0,6.025-1.541a4.573,4.573,0,0,0,1.995-3.714,3.938,3.938,0,0,0-1.778-3.437q-1.778-1.226-6.955-2.246-11.225-2.314-14.481-6.25a13.974,13.974,0,0,1-3.257-9.193,14.827,14.827,0,0,1,4.109-10.537,16.864,16.864,0,0,1,10.628-5.16V78.705h6.321v6.163q12.2,1.148,15.962,11.655l-9.956,3.319q-2.016-5.927-8.574-5.926-6.954,0-6.954,4.5a4.068,4.068,0,0,0,1.3,3.063q1.3,1.243,5.887,2.154a58.55,58.55,0,0,1,11.24,3.124,14.266,14.266,0,0,1,6.006,5.1,13.541,13.541,0,0,1,2.43,7.872,15.912,15.912,0,0,1-4.317,10.858Q1956.716,135.44,1948.005,136.27Z" fill="url(#linear-gradient-10)"/>
        <path id="Trazado_26449" data-name="Trazado 26449" d="M1978.151,121.691,1974.2,83.88h15.132l-3.911,37.811Zm-2.568,16.12V125.365h12.445v12.446Z" fill="url(#linear-gradient-9)"/>
        <path id="Trazado_26450" data-name="Trazado 26450" d="M2038.877,97.235l-2.173,17.849a28.492,28.492,0,0,0-.2,3.087q0,1.743,1.541,1.742,2.765,0,5.453-3.6a14.734,14.734,0,0,0,2.686-9.059,17.115,17.115,0,0,0-5.768-13.233,20.268,20.268,0,0,0-14.145-5.242,20.534,20.534,0,0,0-15.29,6.4,21.85,21.85,0,0,0-6.242,15.883,22.209,22.209,0,0,0,5.827,15.29q5.828,6.519,16.416,6.519a33.018,33.018,0,0,0,16.91-4.583l2.608,6.519a41.77,41.77,0,0,1-19.518,4.939,32.495,32.495,0,0,1-15.467-3.536,27.014,27.014,0,0,1-10.688-10.332,28.6,28.6,0,0,1-4.03-14.856,27.317,27.317,0,0,1,8.574-20.505,28.857,28.857,0,0,1,20.782-8.258q11.655,0,19.439,7.29a23.162,23.162,0,0,1,7.783,17.522,20.924,20.924,0,0,1-4.761,13.828q-4.762,5.73-11.32,5.73a7.6,7.6,0,0,1-6.756-3.438,9.2,9.2,0,0,1-7.309,3.6,10.282,10.282,0,0,1-8.139-4.069q-3.4-4.07-3.4-10.707a16.126,16.126,0,0,1,3.813-11.1,11.849,11.849,0,0,1,9.186-4.307,9.53,9.53,0,0,1,6.242,2.331l.475-1.7Zm-15.093,21.927a5.841,5.841,0,0,0,4.544-2.548,10.348,10.348,0,0,0,2.054-6.7,5.837,5.837,0,0,0-1.521-3.951,4.745,4.745,0,0,0-7.684.474,11.426,11.426,0,0,0-.455,10.746A3.416,3.416,0,0,0,2023.784,119.162Z" fill="url(#linear-gradient-12)"/>
        <path id="Trazado_26451" data-name="Trazado 26451" d="M2113.273,108.376a37.986,37.986,0,0,1-8.811,17.147,7.528,7.528,0,0,0,5.532,2.529q1.106,0,3.279-.237v9.6a21.892,21.892,0,0,1-5.413.751,14.568,14.568,0,0,1-11.651-5.179,26.324,26.324,0,0,1-16.872,5.89q-10.353,0-15.43-5.175a16.415,16.415,0,0,1-5.078-11.815q0-10.748,13.36-15.607a30.346,30.346,0,0,1-4.056-6.141,11.883,11.883,0,0,1-.928-4.683,11.039,11.039,0,0,1,4.544-9.186q4.542-3.495,12.089-3.5,7.626,0,11.833,3.813a12.378,12.378,0,0,1,4.208,9.58q0,8.891-10.153,13.078l7.6,8.247q3.27-3.552,4.769-10.657Zm-34.646,5.054q-6.326,2.175-6.325,7.548a7.8,7.8,0,0,0,2.278,5.552,8.06,8.06,0,0,0,6.123,2.391,14.02,14.02,0,0,0,9-3.286Zm5.679-10.817q5.775-2.134,5.775-6.245a5.211,5.211,0,0,0-1.561-3.795,5.805,5.805,0,0,0-4.326-1.581,5.692,5.692,0,0,0-3.655,1.146A3.615,3.615,0,0,0,2079.1,95.1q0,2.213,2.959,5.217Z" fill="url(#linear-gradient-13)"/>
      </g>
    </g>
    <g id="Grupo_15872" data-name="Grupo 15872">
      <g id="Grupo_15870" data-name="Grupo 15870">
        <g id="Grupo_15869" data-name="Grupo 15869">
          <path id="Trazado_26452" data-name="Trazado 26452" d="M3195.645,313.113h-192.98a17.854,17.854,0,0,0-17.617,18.082V445.678a17.854,17.854,0,0,0,17.617,18.083h62.363l34.127,36.778,34.126-36.778h62.364a17.855,17.855,0,0,0,17.617-18.083V331.2A17.855,17.855,0,0,0,3195.645,313.113Z" fill="#fff"/>
        </g>
      </g>
      <g id="Grupo_15871" data-name="Grupo 15871">
        <path id="Trazado_26453" data-name="Trazado 26453" d="M3035.211,384.41l-1.131,6.435h-6.238l-2.393,13.613h-6.535l2.4-13.613h-5.077l-2.4,13.613h-6.4l2.394-13.613h-7.05l1.132-6.435h7.049l.875-4.979h-6.922l1.1-6.4h6.949l2.235-12.707h6.434l-2.242,12.707h5.076l2.243-12.707h6.5l-2.235,12.707h6.144l-1.132,6.4h-6.138l-.875,4.979Zm-11.877-4.979h-5.077l-.88,4.979h5.077Z" fill="url(#linear-gradient-9)"/>
        <path id="Trazado_26454" data-name="Trazado 26454" d="M3060.271,403.2v6.112H3055.1V403.2q-11.674-1.229-14.2-11.252l8.893-2.038q1.52,5.724,8.342,5.724a8.011,8.011,0,0,0,4.931-1.261,3.74,3.74,0,0,0,1.633-3.04,3.223,3.223,0,0,0-1.455-2.813,16.97,16.97,0,0,0-5.692-1.838q-9.186-1.895-11.852-5.115a11.44,11.44,0,0,1-2.666-7.523,12.133,12.133,0,0,1,3.364-8.624,13.8,13.8,0,0,1,8.7-4.223v-5.11h5.173v5.045q9.984.939,13.064,9.539l-8.149,2.716q-1.649-4.851-7.017-4.85-5.691,0-5.69,3.686a3.328,3.328,0,0,0,1.066,2.506q1.068,1.018,4.819,1.763a47.927,47.927,0,0,1,9.2,2.557,11.667,11.667,0,0,1,4.916,4.176,11.084,11.084,0,0,1,1.989,6.443,13.029,13.029,0,0,1-3.533,8.887Q3067.4,402.518,3060.271,403.2Z" fill="url(#linear-gradient-10)"/>
        <path id="Trazado_26455" data-name="Trazado 26455" d="M3084.943,391.266l-3.233-30.945h12.384l-3.2,30.945Zm-2.1,13.192V394.273h10.185v10.185Z" fill="url(#linear-gradient-9)"/>
        <path id="Trazado_26456" data-name="Trazado 26456" d="M3134.643,371.25l-1.779,14.608a23.32,23.32,0,0,0-.161,2.527q0,1.426,1.261,1.425,2.263,0,4.462-2.946a12.052,12.052,0,0,0,2.2-7.414,14.006,14.006,0,0,0-4.721-10.83,16.59,16.59,0,0,0-11.576-4.29,16.806,16.806,0,0,0-12.514,5.238,17.885,17.885,0,0,0-5.109,13,18.175,18.175,0,0,0,4.77,12.514q4.768,5.336,13.435,5.336a27.035,27.035,0,0,0,13.84-3.751l2.134,5.335a34.2,34.2,0,0,1-15.974,4.042,26.6,26.6,0,0,1-12.659-2.894,22.1,22.1,0,0,1-8.747-8.456,23.4,23.4,0,0,1-3.3-12.158,22.356,22.356,0,0,1,7.016-16.782,23.622,23.622,0,0,1,17.009-6.758,22.369,22.369,0,0,1,15.909,5.966,18.953,18.953,0,0,1,6.37,14.34,17.132,17.132,0,0,1-3.9,11.318,11.711,11.711,0,0,1-9.264,4.689,6.217,6.217,0,0,1-5.53-2.814,7.526,7.526,0,0,1-5.982,2.943,8.414,8.414,0,0,1-6.661-3.331,14.983,14.983,0,0,1,.34-17.849,9.7,9.7,0,0,1,7.518-3.524,7.8,7.8,0,0,1,5.109,1.907l.388-1.39ZM3122.291,389.2a4.781,4.781,0,0,0,3.718-2.085,8.47,8.47,0,0,0,1.682-5.481,4.776,4.776,0,0,0-1.245-3.234,3.884,3.884,0,0,0-6.289.388,9.351,9.351,0,0,0-.372,8.8A2.8,2.8,0,0,0,3122.291,389.2Z" fill="url(#linear-gradient-12)"/>
        <path id="Trazado_26457" data-name="Trazado 26457" d="M3195.531,380.368a31.092,31.092,0,0,1-7.211,14.034,6.157,6.157,0,0,0,4.527,2.069,26.815,26.815,0,0,0,2.684-.194v7.858a17.928,17.928,0,0,1-4.43.614,11.923,11.923,0,0,1-9.536-4.238,21.544,21.544,0,0,1-13.809,4.82q-8.472,0-12.628-4.235a13.438,13.438,0,0,1-4.156-9.67q0-8.8,10.935-12.773a24.838,24.838,0,0,1-3.32-5.026,9.742,9.742,0,0,1-.76-3.832,9.034,9.034,0,0,1,3.719-7.518q3.719-2.862,9.9-2.862,6.24,0,9.684,3.121a10.132,10.132,0,0,1,3.444,7.84q0,7.276-8.31,10.7l6.218,6.75q2.676-2.907,3.9-8.722Zm-28.356,4.137q-5.176,1.779-5.176,6.177a6.381,6.381,0,0,0,1.865,4.544,6.592,6.592,0,0,0,5.011,1.957,11.469,11.469,0,0,0,7.362-2.69Zm4.649-8.853q4.725-1.748,4.726-5.111a4.266,4.266,0,0,0-1.277-3.106,4.751,4.751,0,0,0-3.541-1.294,4.651,4.651,0,0,0-2.991.938,2.955,2.955,0,0,0-1.181,2.426q0,1.812,2.422,4.27Z" fill="url(#linear-gradient-13)"/>
      </g>
    </g>
    <g id="Grupo_15874" data-name="Grupo 15874">
      <path id="Trazado_26458" data-name="Trazado 26458" d="M2955.822-14.951H2804.865A14.871,14.871,0,0,0,2790-.081v100.6a14.871,14.871,0,0,0,14.87,14.871h46.672l28.807,30.246,28.806-30.246h46.672a14.871,14.871,0,0,0,14.87-14.871V-.081A14.871,14.871,0,0,0,2955.822-14.951Z" fill="#fff"/>
      <g id="Grupo_15873" data-name="Grupo 15873">
        <path id="Trazado_26459" data-name="Trazado 26459" d="M2876.593,83.786l.006-.008,6.963-10.058L2875.286,63.6l.007-.013,7.143-13.3-8.473-8.616,0-.013,3.869-11.012.021.007c-5.209-12.242-18.623-21.035-30.68-16.466h0q-.4.15-.784.314c-14.646,6.158-19.274,25.869-9.505,39.084,10.648,14.405,41.711,39.718,42.794,40.6Z" fill="url(#linear-gradient-19)"/>
        <path id="Trazado_26460" data-name="Trazado 26460" d="M2916.569,15.352q-.384-.172-.777-.333h0c-11.941-4.868-25.569,3.589-31.08,15.7l.019.009-4.765,10.64,7.731,9.295-.008.013-8.225,12.657,7.409,10.773-.01.013-7.78,9.449,2.214,10.626c.869-.671,32.756-25.34,43.8-39.531C2935.193,41.693,2931.057,21.872,2916.569,15.352Z" fill="url(#linear-gradient-20)"/>
      </g>
    </g>
    <g id="Grupo_15876" data-name="Grupo 15876">
      <path id="Trazado_26461" data-name="Trazado 26461" d="M1966.4,527.473H1847.621a11.7,11.7,0,0,0-11.7,11.7V618.33a11.7,11.7,0,0,0,11.7,11.7h36.725l22.667,23.8,22.666-23.8H1966.4a11.7,11.7,0,0,0,11.7-11.7V539.174A11.7,11.7,0,0,0,1966.4,527.473Z" fill="#fff"/>
      <g id="Grupo_15875" data-name="Grupo 15875">
        <path id="Trazado_26462" data-name="Trazado 26462" d="M1904.061,605.166l.005-.007,5.479-7.915-6.512-7.96.005-.01,5.621-10.462-6.667-6.78,0-.01,3.045-8.665.016.005c-4.1-9.633-14.653-16.551-24.141-12.956h0q-.312.118-.618.247c-11.524,4.845-15.166,20.355-7.479,30.754,8.378,11.335,32.821,31.253,33.674,31.946Z" fill="url(#linear-gradient-21)"/>
        <path id="Trazado_26463" data-name="Trazado 26463" d="M1935.517,551.317c-.2-.091-.4-.178-.611-.262h0c-9.4-3.83-20.12,2.824-24.456,12.352l.015.007-3.75,8.373,6.084,7.313-.007.011-6.471,9.959,5.829,8.477-.008.01-6.121,7.435,1.741,8.362c.684-.529,25.776-19.94,34.467-31.106C1950.172,572.044,1946.917,556.448,1935.517,551.317Z" fill="url(#linear-gradient-22)"/>
      </g>
    </g>
    <g id="Grupo_15878" data-name="Grupo 15878">
      <g id="Grupo_15877" data-name="Grupo 15877">
        <path id="Trazado_26464" data-name="Trazado 26464" d="M2046.17,682.129l49.808,37.466-6.742.291,35.1-28.279,3.188-2.568,5.163,6.024-3.026,2.758-33.315,30.363a5.256,5.256,0,0,1-6.5.457l-.24-.166-51.444-35.184-5.671-3.879L2040.68,678Z" fill="#e0ba90"/>
        <path id="Trazado_26465" data-name="Trazado 26465" d="M2148.7,676.817c1.7,2.246-.88,8.6-7.012,14.274-5.653,5.234-11.618,6.123-13.512,4C2123.95,690.353,2146.08,673.342,2148.7,676.817Z" fill="#e0ba90"/>
        <path id="Trazado_26466" data-name="Trazado 26466" d="M2135.8,679.91c-1.068-.626-3.941,1.172-6.435,4.633-2.3,3.191-2.59,6.155-1.575,6.887C2130.054,693.065,2137.45,680.877,2135.8,679.91Z" fill="#e0ba90"/>
      </g>
      <path id="Trazado_26467" data-name="Trazado 26467" d="M2108.848,700.359l15.633,19.625s-24.073,14.748-37.931,10.877c-19.441-5.431-58.476-32.193-50.765-45.76,8.563-15.066,31.142,15.792,50.51,23.313C2094.6,711.639,2108.848,700.359,2108.848,700.359Z" fill="url(#linear-gradient-23)"/>
      <path id="Trazado_26468" data-name="Trazado 26468" d="M2061.749,621.368c-12.3-8.815-27.107-2.807-29.074,9.922-2.554,16.519.673,29.821-3.432,40.778a82.512,82.512,0,0,0-4.6,33.676c16.782-22.876,34.126-13.406,43.7-36.389C2071.422,661.971,2073.533,629.813,2061.749,621.368Z" fill="#0b0d3f"/>
      <path id="Trazado_26469" data-name="Trazado 26469" d="M2056.854,677.016h-14.683v-28.09h8.973Z" fill="#e0ba90"/>
      <path id="Trazado_26470" data-name="Trazado 26470" d="M2067.7,634.707c2.481,11.53.648,23.157-6.313,25.678-6.53,2.366-17.86-3.891-23.045-15.29-5.457-12-2.792-20.969,6.875-24.309C2055.485,617.238,2064.978,622.068,2067.7,634.707Z" fill="#e7c8aa"/>
      <path id="Trazado_26471" data-name="Trazado 26471" d="M2087.173,915.507l-9.87-71.481-10.409-71.4-1.884-12.921-27.2,5.867,3.611,12.548,19.941,69.289,19.6,69.392.864,3.058,5.776-1.207Z" fill="#e0ba90"/>
      <path id="Trazado_26472" data-name="Trazado 26472" d="M2027.494,759.705l-.453,13.047-2.635,75.869-33.144,49.412-1.772,2.64,4.59,3.624,2.157-2.336,42.345-45.843a5.916,5.916,0,0,0,1.5-3.064l.182-1.1,12.7-76.615,2.136-12.879Z" fill="#e0ba90"/>
      <path id="Trazado_26473" data-name="Trazado 26473" d="M2032.491,757.3h38.516l16.615,134.027-22.41,3.262Z" fill="url(#linear-gradient-24)"/>
      <path id="Trazado_26474" data-name="Trazado 26474" d="M2021.918,757.3h37.005s-6.779,85.665-12.3,95.735c-6.619,12.072-32.826,40.09-32.826,40.09L1996,879.374s18.745-26.542,23.277-39S2021.918,757.3,2021.918,757.3Z" fill="url(#linear-gradient-25)"/>
      <path id="Trazado_26475" data-name="Trazado 26475" d="M2041.817,674.628s7.917,6.941,15.834,2.314c0,0,2.709,28.921,6.251,40.721s12.738,41.811,12.738,41.811l-56.335.993C2018.767,734.063,2028.743,704.07,2041.817,674.628Z" fill="#96d1f1"/>
      <path id="Trazado_26476" data-name="Trazado 26476" d="M2047.515,693.667c-3.688,6.892-7.252,14.075-10.5,21.237-1.623,3.593-3.175,7.205-4.58,10.827a92.5,92.5,0,0,0-3.554,10.791c-.216.883-.391,1.721-.544,2.581l-.437,2.837c-.253,1.925-.494,3.86-.692,5.822-.4,3.918-.714,7.88-.979,11.854-.509,7.946-.853,15.971-1.049,23.934l-.095,3.852-7.482.061-.125-3.851c-.264-8.127-.377-16.194-.321-24.329.04-4.066.128-8.14.313-12.246.089-2.051.226-4.121.381-6.2l.3-3.151c.137-1.132.316-2.273.523-3.357a102.5,102.5,0,0,1,3.343-12.321c1.3-3.954,2.734-7.817,4.228-11.641,3.015-7.658,6.227-15.08,9.751-22.571l2.753-5.853,11.819,6.021Z" fill="#e7c8aa"/>
      <path id="Trazado_26477" data-name="Trazado 26477" d="M2039.831,671.259s-27.508,41.14-21.907,85.023c0,0-2.363,8.62,28.85,7.445s33-5.486,33-5.486a300.913,300.913,0,0,1-21.369-82.3S2046.734,676.374,2039.831,671.259Z" fill="url(#linear-gradient-26)"/>
      <path id="Trazado_26478" data-name="Trazado 26478" d="M2036.866,765.571l-24.049,2.975s.952-27.345,4.518-43c4.484-19.681,12.846-49,27.932-45.009,19.714,5.218-8.885,44.722-10.95,55.551C2032.649,744.835,2036.866,765.571,2036.866,765.571Z" fill="url(#linear-gradient-27)"/>
      <path id="Trazado_26479" data-name="Trazado 26479" d="M2017.046,809.269c-2.569-.649-4.421-6.827-3.267-14.607,1.064-7.174,4.917-11.341,7.557-10.9C2027.233,784.747,2021.018,810.273,2017.046,809.269Z" fill="#e7c8aa"/>
      <path id="Trazado_26480" data-name="Trazado 26480" d="M2024.693,799.394c1.152-.171,2.2-3.184,1.991-7.193-.193-3.7-1.726-6.043-2.9-5.982C2021.155,786.354,2022.91,799.657,2024.693,799.394Z" fill="#e7c8aa"/>
      <path id="Trazado_26481" data-name="Trazado 26481" d="M2109.73,922.414l-4.543-.808v0l-16.61-6.43v.134a3.943,3.943,0,0,1-3.65,3.382,7.6,7.6,0,0,1-4.883-.666.785.785,0,0,0-.375-.238c-1.11,0-2.009,1.814-2.009,4.052a7.393,7.393,0,0,0,.268,2.016v3.108h33.086v-3.148A1.409,1.409,0,0,0,2109.73,922.414Z" fill="#0b0d3f"/>
      <path id="Trazado_26482" data-name="Trazado 26482" d="M2008.219,922l-2.815-3.656,0,0-7.953-15.937-.09.1a3.943,3.943,0,0,1-4.976.044,7.6,7.6,0,0,1-3.162-3.78.781.781,0,0,0-.118-.429c-.82-.747-2.706-.011-4.213,1.644a7.383,7.383,0,0,0-1.159,1.671l-2.092,2.3L2006.1,926.23l2.119-2.327A1.41,1.41,0,0,0,2008.219,922Z" fill="#0b0d3f"/>
      <path id="Trazado_26483" data-name="Trazado 26483" d="M2048.555,617.644a16.451,16.451,0,0,0-8.47,1.773c-4.571,2.368-10.6,8.027-11.8,20.851-1.118,11.956,3.67,17.808-6.544,29.087-11.492,8.725-31.97,7.235-29.6,26.813s28.328,17.024,34.5,7.235,5.477-18.513,8.91-24.685,9.391-2.553,12.371-9.363c3.494-6.406-2.572-20.775-3.664-23.249.73-2.409,1.674-5.053,5.579-6.118,8.377-2.285,15.322-10.214,15.322-12.768S2057.493,617.644,2048.555,617.644Z" fill="#0b0d3f"/>
      <path id="Trazado_26484" data-name="Trazado 26484" d="M2048.276,641.874c.865,1.931.263,4.08-1.346,4.8s-3.614-.26-4.48-2.19-.263-4.08,1.346-4.8S2047.41,639.944,2048.276,641.874Z" fill="#e7c8aa"/>
    </g>
    <g id="Grupo_15879" data-name="Grupo 15879">
      <path id="Trazado_26485" data-name="Trazado 26485" d="M2982.773,595.934H2998.7V565.476h-9.73Z" fill="#e0ba90"/>
      <path id="Trazado_26486" data-name="Trazado 26486" d="M2971.015,550.057c-2.691,12.5-.7,25.11,6.846,27.844,7.08,2.565,19.366-4.219,24.987-16.579,5.918-13.013,3.029-22.738-7.454-26.36C2984.258,531.116,2973.965,536.352,2971.015,550.057Z" fill="#e7c8aa"/>
      <path id="Trazado_26487" data-name="Trazado 26487" d="M2993.224,530.542c11.579.906,17.981,11.4,17.239,21.781-.692,9.691-11.054,14.868-11.054,14.868s-3.418-9.839-9.021-11.407c-7.815-2.187-4.436-9.172-8.087-9.926-3.806-.786-12.08-3.807-11.943-9.345C2975.716,536.7,2980.219,529.525,2993.224,530.542Z" fill="#0b0d3f"/>
      <path id="Trazado_26488" data-name="Trazado 26488" d="M2992.075,557.829c-.938,2.094-.285,4.424,1.46,5.206s3.919-.281,4.857-2.374.285-4.424-1.459-5.206S2993.014,555.736,2992.075,557.829Z" fill="#e7c8aa"/>
      <path id="Trazado_26489" data-name="Trazado 26489" d="M2993.224,555.593s-.871,13.513-3.453,18.647c-2.248,4.471-12.056,9.086-17.4-1.521,0,0,5.409,1.129,4.8-1.161-.722-2.7-6.288-2.726-6.288-2.726a1.39,1.39,0,0,1-1.284-1.053,10.581,10.581,0,0,1,.435-3.9s7.367,2.626,10.54,2.626c3.6,0,6.865-2.538,9.908-10.917Z" fill="#0b0d3f"/>
      <path id="Trazado_26490" data-name="Trazado 26490" d="M2946.719,853.522l14.634-81.862,9.941-40.338L2981.3,690.9l3.4-13.742,28.7,9.156-5.192,13.172-15.123,38.37c-5.028,12.81-10.138,25.614-15.113,38.472L2953.4,855.152l-1.026,3.288-6.258-1.528Z" fill="#e0ba90"/>
      <path id="Trazado_26491" data-name="Trazado 26491" d="M2999.6,677.5l1.143,14.109,6.477,79.933,60.444,28.33,3.12,1.462-2.281,5.954-3.3-1-69.308-20.95a7.612,7.612,0,0,1-5.234-5.691l-.245-1.152-17.628-82.8-2.948-13.845Z" fill="#e0ba90"/>
      <path id="Trazado_26492" data-name="Trazado 26492" d="M3017.621,668.772l-53.659,10.422-16.773,160.373,18,2.468Z" fill="url(#linear-gradient-28)"/>
      <path id="Trazado_26493" data-name="Trazado 26493" d="M3020.248,679.471l-54.136-7.562s8.3,100.4,24.495,113.208c9.009,7.123,59.076,19.114,59.076,19.114l5.39-15.374s-37.691-15.256-40.844-19.974C3010.8,763.753,3020.248,679.471,3020.248,679.471Z" fill="url(#linear-gradient-29)"/>
      <path id="Trazado_26494" data-name="Trazado 26494" d="M2996.794,599.649l-61.887.55,5.214,4.209-11.362-43.3-1.031-3.932-7.678,1.767.79,3.987,8.7,43.907a5.219,5.219,0,0,0,4.925,4.2l.29.009,61.849,2.238,6.818.247.19-13.948Z" fill="#e0ba90"/>
      <path id="Trazado_26495" data-name="Trazado 26495" d="M2999.223,620.625c-14.156,3.688-53.143,1.291-68.664-10.977-9.217-7.285-9.445-37.162-9.445-37.162l11.034-3.494s.736,22.248,14.229,24.868,48.418-.593,55.006,5.756C3007.188,605.211,3005.582,618.969,2999.223,620.625Z" fill="url(#linear-gradient-30)"/>
      <path id="Trazado_26496" data-name="Trazado 26496" d="M2997.608,589.5s-8.353,7.323-16.706,2.441c0,0-2.858,30.513-6.6,42.963s-14,44.505-14,44.505l60,.654C3021.926,652.205,3011.4,620.562,2997.608,589.5Z" fill="#d3c4ae"/>
      <path id="Trazado_26497" data-name="Trazado 26497" d="M3000.5,587s29.022,43.4,23.113,89.7c0,0,2.494,9.1-30.437,7.854s-34.816-5.787-34.816-5.787A317.472,317.472,0,0,0,2980.9,591.94S2993.214,592.393,3000.5,587Z" fill="url(#linear-gradient-31)"/>
      <path id="Trazado_26498" data-name="Trazado 26498" d="M2991.046,608.5c4.13,7.138,8.139,14.587,11.819,22.026,1.837,3.731,3.6,7.486,5.209,11.256a97.716,97.716,0,0,1,4.125,11.254c.259.924.473,1.8.664,2.7l.56,2.977c.335,2.02.657,4.052.933,6.114.561,4.118,1.029,8.285,1.448,12.465.815,8.361,1.459,16.811,1.944,25.2l.235,4.058,7.893-.2,0-4.065c-.007-8.579-.17-17.089-.514-25.665-.184-4.286-.419-8.579-.758-12.9-.166-2.16-.383-4.337-.619-6.522l-.429-3.313c-.184-1.188-.413-2.385-.669-3.521a107.825,107.825,0,0,0-3.957-12.875c-1.513-4.123-3.156-8.146-4.866-12.127-3.446-7.969-7.094-15.682-11.071-23.458l-3.108-6.076-12.252,6.763Z" fill="#e7c8aa"/>
      <path id="Trazado_26499" data-name="Trazado 26499" d="M3005.367,594.625c10.467,10.219,16.491,33.423,20.944,52.7s.834,48.545.834,48.545l-12,.529s-.686-29.789-5.409-42.7-25.511-41.156-23.475-50.077C2988.053,595.764,3000.664,590.035,3005.367,594.625Z" fill="url(#linear-gradient-32)"/>
      <path id="Trazado_26500" data-name="Trazado 26500" d="M2919.549,540.644c-2.683.779-4.705,6.126-3.619,12.542,1,5.916,4.95,9.057,7.706,8.446C2929.791,560.268,2923.7,539.44,2919.549,540.644Z" fill="#e0ba90"/>
      <path id="Trazado_26501" data-name="Trazado 26501" d="M3022.04,730.248c2.786-.216,5.815-6.309,6-14.606.175-7.648-3.088-12.67-5.912-12.682C3015.824,702.931,3017.73,730.583,3022.04,730.248Z" fill="#e7c8aa"/>
      <path id="Trazado_26502" data-name="Trazado 26502" d="M3015.851,718.614c-1.168-.383-1.721-3.7-.787-7.834.861-3.809,2.874-5.976,4.086-5.7C3021.858,705.687,3017.657,719.207,3015.851,718.614Z" fill="#e7c8aa"/>
      <path id="Trazado_26503" data-name="Trazado 26503" d="M2922.746,862.5s4.139-1.094,5.285-1.506c4.576-1.646,16.425-6.5,16.425-6.5a7.109,7.109,0,0,0,5.119,2.81,9.642,9.642,0,0,0,4.758-.638c1.171-.035,2.178,1.851,2.249,4.214a7.843,7.843,0,0,1-.219,2.136l.1,3.281-34.927,1.049-.1-3.323A1.488,1.488,0,0,1,2922.746,862.5Z" fill="#0b0d3f"/>
      <path id="Trazado_26504" data-name="Trazado 26504" d="M3066.306,831.678s.16-4.278.1-5.495c-.241-4.856-1.431-17.606-1.431-17.606a7.109,7.109,0,0,0,4.181-4.077,9.612,9.612,0,0,0,.776-4.738c.308-1.13,2.406-1.544,4.687-.923a7.861,7.861,0,0,1,1.98.832l3.167.862-9.178,33.717-3.207-.874A1.488,1.488,0,0,1,3066.306,831.678Z" fill="#0b0d3f"/>
      <path id="Trazado_26505" data-name="Trazado 26505" d="M2926.5,545.01c1.222.13,2.457,3.261,2.407,7.5-.046,3.905-1.561,6.445-2.8,6.431C2923.334,558.907,2924.614,544.808,2926.5,545.01Z" fill="#e0ba90"/>
    </g>
    <g id="Grupo_15880" data-name="Grupo 15880">
      <path id="Trazado_26506" data-name="Trazado 26506" d="M2726.89,664.078l27.188-1.617c7.819-15.771,10.512-27.84,8.613-40.191-2.037-13.246-18.581-18.426-30.812-8.51C2720.16,623.261,2722.477,657.02,2726.89,664.078Z" fill="#0b0d3f"/>
      <path id="Trazado_26507" data-name="Trazado 26507" d="M2740.4,671.26l15.252-.907-1.735-29.177-9.321.554Z" fill="#deb88e"/>
      <path id="Trazado_26508" data-name="Trazado 26508" d="M2726.523,627.983c-1.865,12.13.758,24.093,8.144,26.283,6.928,2.053,18.311-5.145,22.992-17.306,4.927-12.8,1.6-21.954-8.643-24.825C2738.13,609.084,2728.568,614.686,2726.523,627.983Z" fill="#e5c6a8"/>
      <path id="Trazado_26509" data-name="Trazado 26509" d="M2745.353,609.077a17.127,17.127,0,0,1,8.908,1.318c4.894,2.178,11.507,7.683,13.544,20.93,1.9,12.35-2.713,18.724,8.593,29.809l-27.188,1.616c-4.025-6.438,1.388-21.738,2.37-24.375-.908-2.457-2.051-5.145-6.173-6.01-8.843-1.856-16.546-9.663-16.7-12.316S2736.069,609.629,2745.353,609.077Z" fill="#0b0d3f"/>
      <path id="Trazado_26510" data-name="Trazado 26510" d="M2747.14,634.228c-.78,2.059-.021,4.254,1.7,4.9s3.738-.492,4.517-2.551.021-4.254-1.694-4.9S2747.92,632.17,2747.14,634.228Z" fill="#e5c6a8"/>
      <path id="Trazado_26511" data-name="Trazado 26511" d="M2707.915,919.936l10.271-74.38,10.831-74.293,1.96-13.444,28.3,6.1-3.758,13.057-20.75,72.1-20.4,72.206-.9,3.182-6.01-1.256Z" fill="#e5c6a8"/>
      <path id="Trazado_26512" data-name="Trazado 26512" d="M2770.013,757.817l.472,13.576,2.742,78.945,34.488,51.416,1.843,2.747-4.776,3.77-2.244-2.43-44.062-47.7a6.149,6.149,0,0,1-1.56-3.188l-.189-1.142-13.219-79.722-2.223-13.4Z" fill="#e5c6a8"/>
      <path id="Trazado_26513" data-name="Trazado 26513" d="M2769.623,756.921h-40.47l-10.609,57.661s29.8,12.782,62.473,1.866C2781.017,816.448,2787.206,793.364,2769.623,756.921Z" fill="url(#linear-gradient-33)"/>
      <path id="Trazado_26514" data-name="Trazado 26514" d="M2790.067,925.185l2.6-4.035v0l6.867-17.214.1.1a4.1,4.1,0,0,0,5.164-.386,7.9,7.9,0,0,0,2.951-4.193.824.824,0,0,1,.085-.455c.786-.846,2.806-.246,4.511,1.34a7.716,7.716,0,0,1,1.347,1.632l2.368,2.2-23.439,25.216-2.4-2.231A1.466,1.466,0,0,1,2790.067,925.185Z" fill="#0b0d3f"/>
      <path id="Trazado_26515" data-name="Trazado 26515" d="M2684.5,926.433l4.756-.656v0l17.532-6.009,0,.139a4.1,4.1,0,0,0,3.657,3.666,7.9,7.9,0,0,0,5.1-.494.812.812,0,0,1,.4-.232c1.154.045,2.015,1.968,1.924,4.3a7.734,7.734,0,0,1-.361,2.085l-.127,3.231-34.4-1.348.129-3.273A1.465,1.465,0,0,1,2684.5,926.433Z" fill="#0b0d3f"/>
      <path id="Trazado_26516" data-name="Trazado 26516" d="M2750.409,687.516c-6.781-4.135-13.607-8.6-20.135-13.214-3.265-2.32-6.484-4.692-9.567-7.156a90.544,90.544,0,0,1-8.625-7.668,70.21,70.21,0,0,1-6.918-9.035c-2.22-3.3-4.367-6.7-6.453-10.16-4.16-6.916-8.168-14.032-11.963-21.161l-1.833-3.444-6.8,3.328,1.632,3.542c3.473,7.536,7.087,14.912,10.95,22.262,1.937,3.669,3.95,7.315,6.1,10.938q1.6,2.718,3.38,5.415c.63.909,1.181,1.778,1.881,2.719.71.963,1.44,1.847,2.178,2.708a100.4,100.4,0,0,0,9.251,9.136c3.174,2.812,6.418,5.466,9.7,8.058,6.589,5.175,13.235,10.025,20.2,14.774l5.41,3.69,7.21-11.324Z" fill="#deb88e"/>
      <path id="Trazado_26517" data-name="Trazado 26517" d="M2668.956,634.9l21.689-14.378s14.233,28.366,24.662,37.938,52.246,30.816,44.743,42.184c-8.225,12.462-42.912-11.542-56.533-23.166S2668.956,634.9,2668.956,634.9Z" fill="url(#linear-gradient-34)"/>
      <path id="Trazado_26518" data-name="Trazado 26518" d="M2755.061,666.364s24.64,41.652,19.623,86.08c0,0,2.142,7.414-25.842,7.537-25.318.112-25.318-4.024-25.318-4.024,8.85-23.842,11.485-52.357,14.9-84.848C2738.424,671.109,2748.878,671.543,2755.061,666.364Z" fill="url(#linear-gradient-35)"/>
      <path id="Trazado_26519" data-name="Trazado 26519" d="M2672.829,595.3c-2.445,1.1-3.2,7.589-.666,15.14,2.332,6.961,6.912,10.432,9.466,9.524C2687.332,617.934,2676.61,593.592,2672.829,595.3Z" fill="#deb88e"/>
      <path id="Trazado_26520" data-name="Trazado 26520" d="M2742.978,669.406a477.677,477.677,0,0,1-5.939,54.509c-4.806,27.546-12.121,45.691-12.121,45.691s52.286-.514,56.978-10.068c5.431-11.058-13.091-79.183-24.3-93.924Z" fill="url(#linear-gradient-36)"/>
      <path id="Trazado_26521" data-name="Trazado 26521" d="M2751.582,688.224c5.544,5.647,11.049,11.613,16.247,17.647,2.6,3.029,5.133,6.1,7.529,9.218a93.585,93.585,0,0,1,6.522,9.474c.462.8.87,1.562,1.263,2.353l1.232,2.633c.793,1.8,1.578,3.61,2.327,5.46,1.505,3.693,2.936,7.453,4.324,11.239,2.754,7.576,5.371,15.276,7.826,22.957l1.188,3.716,7.288-2.069-.974-3.777c-2.056-7.972-4.24-15.842-6.608-23.73-1.2-3.94-2.439-7.874-3.787-11.811-.67-1.967-1.392-3.939-2.133-5.914l-1.19-2.975c-.455-1.061-.954-2.119-1.463-3.114a103.658,103.658,0,0,0-6.753-11.021c-2.391-3.47-4.879-6.817-7.419-10.108-5.107-6.583-10.339-12.881-15.894-19.158l-4.339-4.9L2747,683.552Z" fill="#e5c6a8"/>
      <path id="Trazado_26522" data-name="Trazado 26522" d="M2814.067,791.883c2.311-1.361,2.354-7.891-.98-15.122-3.074-6.667-8-9.621-10.444-8.441C2797.194,770.954,2810.493,793.989,2814.067,791.883Z" fill="#e5c6a8"/>
      <path id="Trazado_26523" data-name="Trazado 26523" d="M2803.828,784.463c-1.168.162-3.044-2.467-3.981-6.422-.863-3.647-.041-6.363,1.119-6.639C2803.557,770.787,2805.635,784.212,2803.828,784.463Z" fill="#e5c6a8"/>
      <path id="Trazado_26524" data-name="Trazado 26524" d="M2810.985,761.933l-25.11,6.831s-4.233-29.54-11.124-41.9-39.91-45.678-29.214-54.111c11.726-9.245,37.108,24.446,46.385,39.764S2810.985,761.933,2810.985,761.933Z" fill="url(#linear-gradient-37)"/>
      <path id="Trazado_26525" data-name="Trazado 26525" d="M2682.2,603.785c1.178-.034,2.758,2.783,3.26,6.817.462,3.718-.649,6.329-1.832,6.477C2680.988,617.41,2680.379,603.839,2682.2,603.785Z" fill="#deb88e"/>
    </g>
    <g id="Grupo_15883" data-name="Grupo 15883">
      <g id="Grupo_15881" data-name="Grupo 15881">
        <path id="Trazado_26526" data-name="Trazado 26526" d="M2286.1,761.017h-16.385V729.672h10.013Z" fill="#deb88e"/>
        <path id="Trazado_26527" data-name="Trazado 26527" d="M2298.2,713.8c2.769,12.866.723,25.84-7.045,28.654-7.286,2.64-19.929-4.342-25.714-17.061-6.09-13.392-3.117-23.4,7.671-27.127C2284.575,694.313,2295.167,699.7,2298.2,713.8Z" fill="#e5c6a8"/>
        <path id="Trazado_26528" data-name="Trazado 26528" d="M2269.718,733.753l1.727-.707s-.673-6.087.436-7.648c1.425-2,8.594-1.8,8.594-1.8s.273-6.8,2.983-8.623c2.4-1.618,12.377-2.716,16.251-.712,0,0,1.721-6.516-1.208-12.377-3.23-6.463-9.063-8.5-16.345-8.866s-15.05.905-16.669,9.047c0,0-6.23,1.357-6.23,9.951S2269.718,733.753,2269.718,733.753Z" fill="#0b0d3f"/>
        <path id="Trazado_26529" data-name="Trazado 26529" d="M2277.469,722.668c.966,2.155.294,4.553-1.5,5.358s-4.034-.289-5-2.443-.293-4.553,1.5-5.358S2276.5,720.514,2277.469,722.668Z" fill="#e5c6a8"/>
      </g>
      <g id="Grupo_15882" data-name="Grupo 15882">
        <path id="Trazado_26530" data-name="Trazado 26530" d="M2227.145,880.354c1.238.06,2.954-2.867,3.561-7.094.561-3.9-.555-6.662-1.794-6.841C2226.143,866.018,2225.231,880.262,2227.145,880.354Z" fill="#e5c6a8"/>
        <path id="Trazado_26531" data-name="Trazado 26531" d="M2320.058,1022.34l-10.79-78.143-11.379-78.051-2.059-14.125-29.731,6.414,3.948,13.717,21.8,75.746,21.428,75.859.944,3.343,6.314-1.32Z" fill="#e5c6a8"/>
        <path id="Trazado_26532" data-name="Trazado 26532" d="M2258.089,852.02l-.5,14.262-2.881,82.939-36.233,54.017-1.936,2.886,5.017,3.961,2.358-2.553,46.291-50.115a6.457,6.457,0,0,0,1.639-3.35l.2-1.2,13.888-83.754,2.334-14.08Z" fill="#e5c6a8"/>
        <path id="Trazado_26533" data-name="Trazado 26533" d="M2260.28,849.389h42.1l18.163,146.516-24.5,3.565Z" fill="url(#linear-gradient-38)"/>
        <path id="Trazado_26534" data-name="Trazado 26534" d="M2251.993,849.389h40.454s-7.411,93.648-13.447,104.656c-7.235,13.2-35.885,43.825-35.885,43.825l-19.458-15.03s20.493-29.014,25.447-42.637S2251.993,849.389,2251.993,849.389Z" fill="url(#linear-gradient-39)"/>
        <path id="Trazado_26535" data-name="Trazado 26535" d="M2273.24,770.117l61.858-8.167-4.612,4.936,5.244-44.821.476-4.07,7.914.682-.227,4.092-2.506,45.057a5.262,5.262,0,0,1-4.325,4.887l-.287.05-61.428,10.944-6.772,1.207-2.154-13.9Z" fill="#deb88e"/>
        <path id="Trazado_26536" data-name="Trazado 26536" d="M2273.77,791.4c14.651,1.687,53.233-6.2,67-20.63,8.175-8.571,4.2-38.428,4.2-38.428l-11.507-1.934s2.4,22.313-10.7,26.83-48.418,6.226-54.1,13.493C2263.647,777.134,2267.188,790.642,2273.77,791.4Z" fill="url(#linear-gradient-40)"/>
        <path id="Trazado_26537" data-name="Trazado 26537" d="M2268.546,754.546s-28.431,45.111-23.3,93.44c.484,4.555,7.748,8.391,30.686,8.182,33.222-.3,35.1-6.029,35.1-6.029-10.51-25.881-18.674-55.174-22.729-90.443C2288.3,759.7,2275.888,760.168,2268.546,754.546Z" fill="url(#linear-gradient-41)"/>
        <path id="Trazado_26538" data-name="Trazado 26538" d="M2342.762,694.412c2.787.415,5.4,6.758,5,15.115-.367,7.7-4,12.522-6.846,12.334C2334.573,721.442,2338.452,693.769,2342.762,694.412Z" fill="#deb88e"/>
        <path id="Trazado_26539" data-name="Trazado 26539" d="M2335.713,705.672c-1.2.3-1.994,3.6-1.347,7.823.595,3.892,2.466,6.214,3.7,6.025C2340.836,719.1,2337.571,705.205,2335.713,705.672Z" fill="#deb88e"/>
        <path id="Trazado_26540" data-name="Trazado 26540" d="M2343.864,1029.86s-4.218-.916-5.391-1.28c-4.682-1.452-16.834-5.81-16.834-5.81a7.166,7.166,0,0,1-5.029,3.061,9.712,9.712,0,0,1-4.821-.43c-1.181.018-2.111,1.963-2.076,4.345a7.916,7.916,0,0,0,.316,2.143l.048,3.308,35.225-.511-.049-3.351A1.5,1.5,0,0,0,2343.864,1029.86Z" fill="#0b0d3f"/>
        <path id="Trazado_26541" data-name="Trazado 26541" d="M2236.63,1029.073s-2.307-3.647-2.871-4.738c-2.251-4.356-7.674-16.071-7.674-16.071a7.169,7.169,0,0,1-5.71-1.435,9.722,9.722,0,0,1-3.077-3.736c-.841-.83-2.879-.127-4.552,1.57a7.889,7.889,0,0,0-1.305,1.728l-2.323,2.356,25.082,24.737,2.354-2.386A1.5,1.5,0,0,0,2236.63,1029.073Z" fill="#0b0d3f"/>
        <path id="Trazado_26542" data-name="Trazado 26542" d="M2280.086,778.191c-5.781,5.975-11.52,12.284-16.935,18.663-2.707,3.2-5.347,6.445-7.841,9.74a98.555,98.555,0,0,0-6.78,10c-.479.84-.9,1.646-1.309,2.481l-1.274,2.775c-.82,1.895-1.631,3.8-2.4,5.753-1.553,3.892-3.028,7.853-4.457,11.841-2.837,7.98-5.528,16.088-8.049,24.177l-1.22,3.913-7.672-2.119.994-3.975c2.1-8.391,4.336-16.676,6.764-24.981,1.225-4.147,2.5-8.29,3.889-12.436.689-2.072,1.433-4.149,2.2-6.229l1.228-3.135c.47-1.117.986-2.233,1.513-3.282a109,109,0,0,1,7.012-11.629c2.486-3.664,5.074-7.2,7.718-10.675,5.315-6.955,10.765-13.61,16.553-20.247l4.522-5.185,10.335,9.6Z" fill="#e5c6a8"/>
        <path id="Trazado_26543" data-name="Trazado 26543" d="M2269.463,761.121c-12.732,7.443-24.285,28.672-33.344,46.441s-12.657,47.284-12.657,47.284l11.611,3.445s7.938-28.973,15.706-40.447,34.994-34.036,35.179-43.259C2286.121,766.458,2275.183,757.778,2269.463,761.121Z" fill="url(#linear-gradient-42)"/>
        <path id="Trazado_26544" data-name="Trazado 26544" d="M2217.129,889.081c-2.546-1.207-3.206-8.035-.4-15.916,2.589-7.265,7.469-10.819,10.134-9.814C2232.817,865.595,2221.066,890.949,2217.129,889.081Z" fill="#e5c6a8"/>
      </g>
    </g>
    <g id="Grupo_15884" data-name="Grupo 15884">
      <path id="Trazado_26545" data-name="Trazado 26545" d="M1866.5,319.919h-91.757a9.039,9.039,0,0,0-9.039,9.039v61.147a9.039,9.039,0,0,0,9.039,9.039h28.369l17.51,18.384,17.509-18.384H1866.5a9.039,9.039,0,0,0,9.039-9.039V328.958A9.039,9.039,0,0,0,1866.5,319.919Z" fill="#fff"/>
      <path id="Trazado_26546" data-name="Trazado 26546" d="M1797.336,357.143a3.96,3.96,0,0,0,1.637,3.2,3.93,3.93,0,0,0-.649,2.163v1.014a3.972,3.972,0,0,0,3.961,3.961h15.1c-.4,1.165-.955,3.014-1.119,3.76-1.885,8.229,1.565,14.041,3.642,14.335,2.142.291,3.6-13.087,11.34-20.636H1842v-23.8h-11.768a3.964,3.964,0,0,0-3.26-1.721h-23.7a3.974,3.974,0,0,0-3.962,3.962v1.014a3.928,3.928,0,0,0,.517,1.945,3.964,3.964,0,0,0-1.97,3.415v1.014a3.931,3.931,0,0,0,.821,2.4,3.957,3.957,0,0,0-1.3,2.412.532.532,0,0,0-.043.2c0,.047.008.094.01.142,0,.068-.01.136-.01.2Z" fill="url(#linear-gradient-43)"/>
    </g>
    <g id="Grupo_15885" data-name="Grupo 15885">
      <path id="Trazado_26547" data-name="Trazado 26547" d="M3145.034,118.158h-91.758a9.039,9.039,0,0,0-9.039,9.039v61.147a9.039,9.039,0,0,0,9.039,9.039h28.369l17.51,18.384,17.51-18.384h28.369a9.038,9.038,0,0,0,9.038-9.039V127.2A9.038,9.038,0,0,0,3145.034,118.158Z" fill="#fff"/>
      <path id="Trazado_26548" data-name="Trazado 26548" d="M3075.867,155.382a3.96,3.96,0,0,0,1.637,3.2,3.93,3.93,0,0,0-.649,2.163v1.014a3.972,3.972,0,0,0,3.961,3.961h15.1c-.394,1.165-.955,3.014-1.119,3.76-1.884,8.229,1.566,14.041,3.643,14.334,2.141.292,3.594-13.086,11.339-20.635h10.753v-23.8h-11.767a3.965,3.965,0,0,0-3.261-1.721h-23.7a3.974,3.974,0,0,0-3.962,3.962v1.014a3.923,3.923,0,0,0,.517,1.944,3.968,3.968,0,0,0-1.969,3.416v1.014a3.93,3.93,0,0,0,.82,2.4,3.962,3.962,0,0,0-1.3,2.412.534.534,0,0,0-.043.2c0,.047.008.094.011.142,0,.068-.011.136-.011.205Z" fill="url(#linear-gradient-44)"/>
    </g>
  </g>
</svg>
