<svg xmlns="http://www.w3.org/2000/svg" width="201" height="201" viewBox="0 0 201 201">
  <g id="Grupo_15890" data-name="Grupo 15890" transform="translate(-489 -3857)">
    <circle id="Elipse_770" data-name="Elipse 770" cx="100.5" cy="100.5" r="100.5" transform="translate(489 3857)" fill="#daf0fd"/>
    <g id="Grupo_15126" data-name="Grupo 15126" transform="translate(-2141.47 3334.56)">
      <g id="Color" transform="translate(2643.957 562.781)">
        <g id="Grupo_14961" data-name="Grupo 14961" transform="translate(0 0)">
          <g id="Grupo_14959" data-name="Grupo 14959">
            <g id="Grupo_14934" data-name="Grupo 14934" transform="translate(49.651 46.497)">
              <g id="Grupo_14933" data-name="Grupo 14933">
                <g id="Grupo_14931" data-name="Grupo 14931">
                  <path id="Trazado_25397" data-name="Trazado 25397" d="M3164.812,1094.177h-36.624v-4.148a3.579,3.579,0,0,0-3.579-3.579h-12.354a3.579,3.579,0,0,0-3.579,3.579v41.35a3.561,3.561,0,0,0,3.561,3.561h52.575a3.561,3.561,0,0,0,3.56-3.561v-33.642A3.56,3.56,0,0,0,3164.812,1094.177Z" transform="translate(-3108.676 -1086.451)" fill="#fcd118"/>
                </g>
                <g id="Grupo_14932" data-name="Grupo 14932" transform="translate(0.056 17.015)">
                  <path id="Trazado_25398" data-name="Trazado 25398" d="M3171.7,1224.939h-51.023a4.435,4.435,0,0,0-4.242,3.094l-7.105,22.684a4.4,4.4,0,0,0,4.242,5.7H3164.6a4.436,4.436,0,0,0,4.242-3.094l7.1-22.684A4.4,4.4,0,0,0,3171.7,1224.939Z" transform="translate(-3109.129 -1224.939)" fill="#fcd118"/>
                </g>
              </g>
            </g>
            <g id="Grupo_14937" data-name="Grupo 14937" transform="translate(130.814 15.608)">
              <g id="Grupo_14935" data-name="Grupo 14935" transform="translate(1.338)">
                <path id="Trazado_25399" data-name="Trazado 25399" d="M3781.16,839.837l9.18,4.11,1.625-3.629-11.794-5.28Z" transform="translate(-3780.171 -835.038)" fill="#5ed45e"/>
              </g>
              <g id="Grupo_14936" data-name="Grupo 14936" transform="translate(0 36.073)">
                <path id="Trazado_25400" data-name="Trazado 25400" d="M3771.611,1130.8l-2.327,5.2,8.816,3.947,3.948-8.816-5.523-2.473Z" transform="translate(-3769.284 -1128.651)" fill="#fcd118"/>
              </g>
            </g>
            <g id="Grupo_14939" data-name="Grupo 14939" transform="translate(75.218 37.159)">
              <g id="Grupo_14938" data-name="Grupo 14938">
                <path id="Trazado_25401" data-name="Trazado 25401" d="M3316.769,1019.827l2.243,3.283,12.168-8.316-.688-4.345Z" transform="translate(-3316.769 -1010.448)" fill="#4a91d6"/>
              </g>
            </g>
            <g id="Grupo_14946" data-name="Grupo 14946" transform="translate(27.383 105.458)">
              <g id="Grupo_14941" data-name="Grupo 14941">
                <g id="Grupo_14940" data-name="Grupo 14940">
                  <path id="Trazado_25402" data-name="Trazado 25402" d="M3019.393,1566.41l-91.9-.056-.061,2.243c0,3.56,3.148,6.446,7.031,6.446h87.134l15.541-.306c6.614-1.988,3.965-8.383,3.965-8.383Z" transform="translate(-2927.429 -1566.354)" fill="#e1e1e5"/>
                </g>
              </g>
              <g id="Grupo_14945" data-name="Grupo 14945" transform="translate(44.211 7.623)">
                <g id="Grupo_14944" data-name="Grupo 14944">
                  <g id="Grupo_14943" data-name="Grupo 14943">
                    <g id="Grupo_14942" data-name="Grupo 14942">
                      <rect id="Rectángulo_2792" data-name="Rectángulo 2792" width="24.722" height="21.413" fill="#e1e1e5"/>
                    </g>
                  </g>
                </g>
              </g>
            </g>
            <g id="Grupo_14950" data-name="Grupo 14950">
              <g id="Grupo_14949" data-name="Grupo 14949">
                <g id="Grupo_14947" data-name="Grupo 14947">
                  <ellipse id="Elipse_762" data-name="Elipse 762" cx="26.52" cy="26.45" rx="26.52" ry="26.45" fill="#5ed45e"/>
                </g>
                <g id="Grupo_14948" data-name="Grupo 14948" transform="translate(4.057 4.047)">
                  <ellipse id="Elipse_763" data-name="Elipse 763" cx="22.463" cy="22.404" rx="22.463" ry="22.404" fill="#fff"/>
                </g>
              </g>
            </g>
            <g id="Grupo_14952" data-name="Grupo 14952" transform="translate(101.854 85.235)">
              <g id="Grupo_14951" data-name="Grupo 14951">
                <path id="Trazado_25403" data-name="Trazado 25403" d="M3545.589,1403.409a8,8,0,0,0-2.459-1.322,8.518,8.518,0,0,0-2.191-.332,7.365,7.365,0,0,0,0,14.73,7.365,7.365,0,0,0,4.65-13.077Z" transform="translate(-3533.574 -1401.756)" fill="#5ed45e"/>
              </g>
            </g>
            <g id="Grupo_14957" data-name="Grupo 14957" transform="translate(91.517 3.657)">
              <g id="Grupo_14956" data-name="Grupo 14956">
                <g id="Grupo_14955" data-name="Grupo 14955">
                  <g id="Grupo_14953" data-name="Grupo 14953" transform="translate(9.696)">
                    <path id="Trazado_25404" data-name="Trazado 25404" d="M3528.354,737.871l1.3,8.232,8.232-1.3A8.335,8.335,0,0,0,3528.354,737.871Z" transform="translate(-3528.354 -737.767)" fill="#fcd118"/>
                  </g>
                  <g id="Grupo_14954" data-name="Grupo 14954" transform="translate(0 3.772)">
                    <path id="Trazado_25405" data-name="Trazado 25405" d="M3457.768,776.7l-1.3-8.232A8.335,8.335,0,1,0,3466,775.4Z" transform="translate(-3449.432 -768.468)" fill="#4a91d6"/>
                  </g>
                </g>
              </g>
            </g>
            <g id="Grupo_14958" data-name="Grupo 14958" transform="translate(109.176 29.992)">
              <path id="Trazado_25406" data-name="Trazado 25406" d="M3593.163,955.289v.777l.719,4.536,20.179-3.2-.839-5.293Z" transform="translate(-3593.163 -952.11)" fill="#5ed45e"/>
            </g>
          </g>
          <g id="Grupo_14960" data-name="Grupo 14960" transform="translate(74.183 51.357)">
            <path id="Trazado_25407" data-name="Trazado 25407" d="M3340.727,1127.158l-32.384-1.145,8.241,12.612,24.143-.458h7.931l2.128,2.833-1.827,8.362,13.729-8.834-6.143-8.947Z" transform="translate(-3308.343 -1126.013)" fill="#fff"/>
          </g>
        </g>
      </g>
      <g id="DATA_ORGANISING" data-name="DATA ORGANISING" transform="translate(2635.47 542.44)">
        <g id="Grupo_14981" data-name="Grupo 14981" transform="translate(34.085 56.56)">
          <g id="Grupo_14975" data-name="Grupo 14975">
            <g id="Grupo_14974" data-name="Grupo 14974">
              <g id="Grupo_14968" data-name="Grupo 14968" transform="translate(0 67.819)">
                <g id="Grupo_14962" data-name="Grupo 14962">
                  <path id="Trazado_25408" data-name="Trazado 25408" d="M3028.821,1554.8h-115a.921.921,0,0,0,0,1.843h115a.921.921,0,0,0,0-1.843Z" transform="translate(-2912.902 -1554.801)" fill="#1e243a"/>
                </g>
                <g id="Grupo_14967" data-name="Grupo 14967" transform="translate(31.944 9.706)">
                  <g id="Grupo_14965" data-name="Grupo 14965" transform="translate(12.9)">
                    <g id="Grupo_14963" data-name="Grupo 14963">
                      <path id="Trazado_25409" data-name="Trazado 25409" d="M3278.823,1633.8a.922.922,0,0,0-.921.921v20.149a.922.922,0,0,0,1.843,0v-20.149A.921.921,0,0,0,3278.823,1633.8Z" transform="translate(-3277.902 -1633.801)" fill="#1e243a"/>
                    </g>
                    <g id="Grupo_14964" data-name="Grupo 14964" transform="translate(25.309)">
                      <path id="Trazado_25410" data-name="Trazado 25410" d="M3484.823,1633.8a.922.922,0,0,0-.921.921v20.149a.921.921,0,0,0,1.843,0v-20.149A.921.921,0,0,0,3484.823,1633.8Z" transform="translate(-3483.902 -1633.801)" fill="#1e243a"/>
                    </g>
                  </g>
                  <g id="Grupo_14966" data-name="Grupo 14966" transform="translate(0 20.518)">
                    <path id="Trazado_25411" data-name="Trazado 25411" d="M3224.933,1800.8h-51.11a.921.921,0,0,0,0,1.843h51.11a.921.921,0,0,0,0-1.843Z" transform="translate(-3172.902 -1800.801)" fill="#1e243a"/>
                  </g>
                </g>
              </g>
              <g id="Grupo_14969" data-name="Grupo 14969" transform="translate(24.768)">
                <path id="Trazado_25412" data-name="Trazado 25412" d="M3145.785,1002.8h-30.364a.921.921,0,0,0,0,1.843h30.364a.921.921,0,1,0,0-1.843Z" transform="translate(-3114.5 -1002.801)" fill="#1e243a"/>
              </g>
              <g id="Grupo_14970" data-name="Grupo 14970" transform="translate(0 16.263)">
                <path id="Trazado_25413" data-name="Trazado 25413" d="M3028.821,1151.329a.922.922,0,0,0-.922.922v38.392a5.547,5.547,0,0,1-5.541,5.541H2920.286a5.547,5.547,0,0,1-5.541-5.541v-54.554a.922.922,0,0,0-1.843,0v54.554a7.392,7.392,0,0,0,7.384,7.384h102.072a7.392,7.392,0,0,0,7.384-7.384v-38.392A.921.921,0,0,0,3028.821,1151.329Z" transform="translate(-2912.902 -1135.167)" fill="#1e243a"/>
              </g>
              <g id="Grupo_14971" data-name="Grupo 14971" transform="translate(50.004 81.456)">
                <path id="Trazado_25414" data-name="Trazado 25414" d="M3320.823,1665.8a.922.922,0,0,0-.922.921v3.194a.922.922,0,0,0,1.844,0v-3.194A.922.922,0,0,0,3320.823,1665.8Z" transform="translate(-3319.902 -1665.801)" fill="#1e243a"/>
              </g>
              <g id="Grupo_14972" data-name="Grupo 14972" transform="translate(50.004 88.337)">
                <path id="Trazado_25415" data-name="Trazado 25415" d="M3320.823,1721.8a.921.921,0,0,0-.922.921v6.88a.922.922,0,0,0,1.844,0v-6.88A.922.922,0,0,0,3320.823,1721.8Z" transform="translate(-3319.902 -1721.801)" fill="#1e243a"/>
              </g>
              <g id="Grupo_14973" data-name="Grupo 14973" transform="translate(53.321 72.611)">
                <path id="Trazado_25416" data-name="Trazado 25416" d="M3356.178,1593.8h-8.354a.921.921,0,1,0,0,1.843h8.354a.921.921,0,1,0,0-1.843Z" transform="translate(-3346.902 -1593.801)" fill="#1e243a"/>
              </g>
            </g>
          </g>
          <g id="Grupo_14980" data-name="Grupo 14980" transform="translate(11.868 91.777)">
            <g id="Grupo_14976" data-name="Grupo 14976" transform="translate(77.771 6.266)">
              <path id="Trazado_25417" data-name="Trazado 25417" d="M3659.147,1800.8h-15.726a.921.921,0,0,0,0,1.843h15.726a.921.921,0,0,0,0-1.843Z" transform="translate(-3642.5 -1800.801)" fill="#1e243a"/>
            </g>
            <g id="Grupo_14979" data-name="Grupo 14979">
              <g id="Grupo_14977" data-name="Grupo 14977" transform="translate(9.706)">
                <path id="Trazado_25418" data-name="Trazado 25418" d="M3112.691,1749.8h-23.27a.921.921,0,0,0,0,1.843h23.27a.921.921,0,0,0,0-1.843Z" transform="translate(-3088.5 -1749.801)" fill="#1e243a"/>
              </g>
              <g id="Grupo_14978" data-name="Grupo 14978">
                <path id="Trazado_25419" data-name="Trazado 25419" d="M3015.7,1749.8h-5.283a.921.921,0,0,0,0,1.843h5.283a.921.921,0,1,0,0-1.843Z" transform="translate(-3009.5 -1749.801)" fill="#1e243a"/>
              </g>
            </g>
          </g>
        </g>
        <g id="Grupo_15001" data-name="Grupo 15001" transform="translate(7.566 19.419)">
          <g id="Grupo_14984" data-name="Grupo 14984">
            <g id="Grupo_14982" data-name="Grupo 14982">
              <path id="Trazado_25420" data-name="Trazado 25420" d="M2724.489,700.5a27.407,27.407,0,1,0,19.4,8.016A27.3,27.3,0,0,0,2724.489,700.5Zm0,52.9a25.529,25.529,0,1,1,25.6-25.529A25.593,25.593,0,0,1,2724.489,753.4Z" transform="translate(-2697.048 -700.5)" fill="#1e243a"/>
            </g>
            <g id="Grupo_14983" data-name="Grupo 14983" transform="translate(4.057 4.047)">
              <path id="Trazado_25421" data-name="Trazado 25421" d="M2753.456,733.438a23.325,23.325,0,1,0,23.384,23.325A23.381,23.381,0,0,0,2753.456,733.438Zm0,44.807A21.482,21.482,0,1,1,2775,756.763,21.536,21.536,0,0,1,2753.456,778.245Z" transform="translate(-2730.072 -733.438)" fill="#1e243a"/>
            </g>
          </g>
          <g id="Grupo_14987" data-name="Grupo 14987" transform="translate(26.425 4.359)">
            <g id="Grupo_14985" data-name="Grupo 14985">
              <path id="Trazado_25422" data-name="Trazado 25422" d="M2913.053,735.983a.921.921,0,0,0-.921.921v2.144a.922.922,0,1,0,1.843,0V736.9A.922.922,0,0,0,2913.053,735.983Z" transform="translate(-2912.132 -735.983)" fill="#1e243a"/>
            </g>
            <g id="Grupo_14986" data-name="Grupo 14986" transform="translate(0 42.206)">
              <path id="Trazado_25423" data-name="Trazado 25423" d="M2913.053,1079.509a.921.921,0,0,0-.921.921v2.27a.922.922,0,0,0,1.843,0v-2.27A.921.921,0,0,0,2913.053,1079.509Z" transform="translate(-2912.132 -1079.509)" fill="#1e243a"/>
            </g>
          </g>
          <g id="Grupo_14990" data-name="Grupo 14990" transform="translate(4.057 26.648)">
            <g id="Grupo_14988" data-name="Grupo 14988">
              <path id="Trazado_25424" data-name="Trazado 25424" d="M2733.374,917.4h-2.381a.921.921,0,1,0,0,1.843h2.381a.921.921,0,0,0,0-1.843Z" transform="translate(-2730.072 -917.395)" fill="#1e243a"/>
            </g>
            <g id="Grupo_14989" data-name="Grupo 14989" transform="translate(42.401)">
              <path id="Trazado_25425" data-name="Trazado 25425" d="M3078.492,917.4h-2.381a.921.921,0,0,0,0,1.843h2.381a.921.921,0,1,0,0-1.843Z" transform="translate(-3075.19 -917.395)" fill="#1e243a"/>
            </g>
          </g>
          <g id="Grupo_14993" data-name="Grupo 14993" transform="translate(10.633 10.615)">
            <g id="Grupo_14991" data-name="Grupo 14991" transform="translate(30.003 30.003)">
              <path id="Trazado_25426" data-name="Trazado 25426" d="M3029.37,1031.375a.921.921,0,0,0-1.3,1.3l1.663,1.663a.921.921,0,0,0,1.3-1.3Z" transform="translate(-3027.797 -1031.105)" fill="#1e243a"/>
            </g>
            <g id="Grupo_14992" data-name="Grupo 14992">
              <path id="Trazado_25427" data-name="Trazado 25427" d="M2785.166,787.17a.921.921,0,1,0-1.3,1.3l1.779,1.779a.921.921,0,0,0,1.3-1.3Z" transform="translate(-2783.593 -786.9)" fill="#1e243a"/>
            </g>
          </g>
          <g id="Grupo_14996" data-name="Grupo 14996" transform="translate(10.633 10.615)">
            <g id="Grupo_14994" data-name="Grupo 14994" transform="translate(0 30.003)">
              <path id="Trazado_25428" data-name="Trazado 25428" d="M2785.525,1031.375l-1.663,1.663a.921.921,0,1,0,1.3,1.3l1.663-1.663a.921.921,0,0,0-1.3-1.3Z" transform="translate(-2783.593 -1031.105)" fill="#1e243a"/>
            </g>
            <g id="Grupo_14995" data-name="Grupo 14995" transform="translate(29.887)">
              <path id="Trazado_25429" data-name="Trazado 25429" d="M3028.9,787.17l-1.779,1.779a.922.922,0,0,0,1.3,1.3l1.779-1.779a.921.921,0,0,0-1.3-1.3Z" transform="translate(-3026.853 -786.9)" fill="#1e243a"/>
            </g>
          </g>
          <g id="Grupo_15000" data-name="Grupo 15000" transform="translate(24.925 11.611)">
            <g id="Grupo_14997" data-name="Grupo 14997" transform="translate(0 13.31)">
              <path id="Trazado_25430" data-name="Trazado 25430" d="M2902.394,903.338a2.477,2.477,0,1,0,2.477,2.477A2.48,2.48,0,0,0,2902.394,903.338Zm0,3.111a.634.634,0,1,1,.634-.634A.635.635,0,0,1,2902.394,906.449Z" transform="translate(-2899.917 -903.338)" fill="#1e243a"/>
            </g>
            <g id="Grupo_14998" data-name="Grupo 14998" transform="translate(1.501)">
              <path id="Trazado_25431" data-name="Trazado 25431" d="M2913.053,795a.921.921,0,0,0-.921.921v12.824a.922.922,0,0,0,1.843,0V795.923A.921.921,0,0,0,2913.053,795Z" transform="translate(-2912.132 -795.002)" fill="#1e243a"/>
            </g>
            <g id="Grupo_14999" data-name="Grupo 14999" transform="translate(3.146 14.924)">
              <path id="Trazado_25432" data-name="Trazado 25432" d="M2932.8,916.472h-6.355a.921.921,0,0,0,0,1.843h6.355a.921.921,0,1,0,0-1.843Z" transform="translate(-2925.526 -916.472)" fill="#1e243a"/>
            </g>
          </g>
        </g>
        <g id="Grupo_15060" data-name="Grupo 15060" transform="translate(77.504 14.935)">
          <g id="Grupo_15059" data-name="Grupo 15059">
            <g id="Grupo_15058" data-name="Grupo 15058">
              <g id="Grupo_15017" data-name="Grupo 15017" transform="translate(40.55 15.268)">
                <g id="Grupo_15002" data-name="Grupo 15002">
                  <path id="Trazado_25433" data-name="Trazado 25433" d="M3648.919,801.913l-30.287-13.561a.921.921,0,0,0-.753,1.682l29.446,13.184-20.111,44.916-29.571-13.24a.921.921,0,1,0-.753,1.682l30.413,13.617a.921.921,0,0,0,1.218-.464l20.864-46.6A.922.922,0,0,0,3648.919,801.913Z" transform="translate(-3596.344 -788.271)" fill="#1e243a"/>
                </g>
                <g id="Grupo_15003" data-name="Grupo 15003" transform="translate(21.663 4.824)">
                  <path id="Trazado_25434" data-name="Trazado 25434" d="M3785.761,832.9l-11.793-5.28a.921.921,0,1,0-.753,1.682l10.952,4.9-.872,1.947-8.338-3.733a.921.921,0,1,0-.753,1.682l9.179,4.11a.922.922,0,0,0,1.218-.464l1.625-3.629A.922.922,0,0,0,3785.761,832.9Z" transform="translate(-3772.67 -827.535)" fill="#1e243a"/>
                </g>
                <g id="Grupo_15015" data-name="Grupo 15015" transform="translate(23.798 17.209)">
                  <g id="Grupo_15014" data-name="Grupo 15014">
                    <g id="Grupo_15005" data-name="Grupo 15005">
                      <g id="Grupo_15004" data-name="Grupo 15004">
                        <path id="Trazado_25435" data-name="Trazado 25435" d="M3808.836,936.255l-17.5-7.834a.921.921,0,0,0-.753,1.682l17.5,7.834a.922.922,0,0,0,.753-1.682Z" transform="translate(-3790.041 -928.341)" fill="#1e243a"/>
                      </g>
                    </g>
                    <g id="Grupo_15008" data-name="Grupo 15008" transform="translate(0.552 5.303)">
                      <g id="Grupo_15006" data-name="Grupo 15006" transform="translate(14.213 6.364)">
                        <path id="Trazado_25436" data-name="Trazado 25436" d="M3912.361,1023.761l-.846-.379a.922.922,0,0,0-.753,1.682l.847.379a.921.921,0,0,0,.753-1.682Z" transform="translate(-3910.216 -1023.302)" fill="#1e243a"/>
                      </g>
                      <g id="Grupo_15007" data-name="Grupo 15007">
                        <path id="Trazado_25437" data-name="Trazado 25437" d="M3807.072,976.62l-11.244-5.034a.921.921,0,1,0-.753,1.682l11.244,5.034a.921.921,0,0,0,.753-1.682Z" transform="translate(-3794.53 -971.505)" fill="#1e243a"/>
                      </g>
                    </g>
                    <g id="Grupo_15010" data-name="Grupo 15010" transform="translate(1.403 10.81)">
                      <g id="Grupo_15009" data-name="Grupo 15009">
                        <path id="Trazado_25438" data-name="Trazado 25438" d="M3815.053,1021.911l-12.3-5.506a.921.921,0,1,0-.753,1.682l12.3,5.506a.922.922,0,0,0,.753-1.682Z" transform="translate(-3801.458 -1016.325)" fill="#1e243a"/>
                      </g>
                    </g>
                    <g id="Grupo_15013" data-name="Grupo 15013" transform="translate(2.252 16.316)">
                      <g id="Grupo_15011" data-name="Grupo 15011" transform="translate(7.843 3.512)">
                        <path id="Trazado_25439" data-name="Trazado 25439" d="M3875.2,1090.559l-1.693-.758a.922.922,0,1,0-.753,1.682l1.693.758a.922.922,0,0,0,.753-1.682Z" transform="translate(-3872.206 -1089.72)" fill="#1e243a"/>
                      </g>
                      <g id="Grupo_15012" data-name="Grupo 15012">
                        <path id="Trazado_25440" data-name="Trazado 25440" d="M3814.261,1063.275l-4.593-2.056a.921.921,0,0,0-.753,1.682l4.593,2.056a.921.921,0,0,0,.753-1.682Z" transform="translate(-3808.37 -1061.138)" fill="#1e243a"/>
                      </g>
                    </g>
                  </g>
                </g>
                <g id="Grupo_15016" data-name="Grupo 15016" transform="translate(20.326 40.898)">
                  <path id="Trazado_25441" data-name="Trazado 25441" d="M3775.843,1123.7l-5.523-2.473a.921.921,0,0,0-.753,1.682l4.682,2.1-3.194,7.134-7.134-3.194,1.95-4.356a.921.921,0,0,0-1.682-.753l-2.327,5.2a.922.922,0,0,0,.465,1.218l8.816,3.947a.921.921,0,0,0,1.218-.464l3.947-8.816a.921.921,0,0,0-.464-1.217Z" transform="translate(-3761.782 -1121.149)" fill="#1e243a"/>
                </g>
              </g>
              <g id="Grupo_15040" data-name="Grupo 15040" transform="translate(13.304)">
                <g id="Grupo_15018" data-name="Grupo 15018" transform="translate(0 0.002)">
                  <path id="Trazado_25442" data-name="Trazado 25442" d="M3422.872,672.573a.921.921,0,1,0-1.82.289l7.673,48.424-43.177,6.842-8.991-56.743,34.9-5.531a.921.921,0,1,0-.288-1.82l-35.813,5.675a.922.922,0,0,0-.766,1.054l9.28,58.563a.921.921,0,0,0,1.054.766l45-7.13a.922.922,0,0,0,.766-1.054Z" transform="translate(-3374.58 -664.022)" fill="#1e243a"/>
                </g>
                <g id="Grupo_15021" data-name="Grupo 15021" transform="translate(8.275 8.141)">
                  <g id="Grupo_15019" data-name="Grupo 15019" transform="translate(9.696)">
                    <path id="Trazado_25443" data-name="Trazado 25443" d="M3528.52,732.029a9.2,9.2,0,0,0-6.889-1.653.922.922,0,0,0-.766,1.054l1.3,8.232a.922.922,0,0,0,.909.777.94.94,0,0,0,.146-.011l8.232-1.3a.921.921,0,0,0,.766-1.054A9.2,9.2,0,0,0,3528.52,732.029Zm-4.674,6.435-1.007-6.356a7.425,7.425,0,0,1,7.363,5.349Z" transform="translate(-3520.854 -730.26)" fill="#1e243a"/>
                  </g>
                  <g id="Grupo_15020" data-name="Grupo 15020" transform="translate(0 3.773)">
                    <path id="Trazado_25444" data-name="Trazado 25444" d="M3459.281,767.908l-7.322,1.16-1.161-7.322a.921.921,0,0,0-1.054-.766,9.257,9.257,0,1,0,10.591,7.694A.921.921,0,0,0,3459.281,767.908Zm-2.09,6.572A7.414,7.414,0,1,1,3449.131,763l1.151,7.266a.922.922,0,0,0,1.055.766l7.266-1.151A7.359,7.359,0,0,1,3457.19,774.48Z" transform="translate(-3441.935 -760.969)" fill="#1e243a"/>
                  </g>
                </g>
                <g id="Grupo_15022" data-name="Grupo 15022" transform="translate(35.83)">
                  <path id="Trazado_25445" data-name="Trazado 25445" d="M3678.3,671.892l-10.62-7.714a.921.921,0,0,0-1.451.89l1.452,9.167a.921.921,0,0,0,1.054.766l9.167-1.453a.921.921,0,0,0,.4-1.656Zm-8.943,1.144-.96-6.06,7.02,5.1Z" transform="translate(-3666.216 -664.001)" fill="#1e243a"/>
                </g>
                <g id="Grupo_15023" data-name="Grupo 15023" transform="translate(16.42 25.054)">
                  <path id="Trazado_25446" data-name="Trazado 25446" d="M3524.674,873.493l-13.515,2.142-1.1-6.931a.921.921,0,1,0-1.82.288l1.243,7.841a.922.922,0,0,0,.909.777.934.934,0,0,0,.145-.012l14.426-2.286a.921.921,0,1,0-.289-1.82Z" transform="translate(-3508.228 -867.926)" fill="#1e243a"/>
                </g>
                <g id="Grupo_15024" data-name="Grupo 15024" transform="translate(22.739 10.256)">
                  <path id="Trazado_25447" data-name="Trazado 25447" d="M3569.615,747.487l-9.173,1.453a.922.922,0,1,0,.288,1.82l9.173-1.453a.922.922,0,0,0-.289-1.82Z" transform="translate(-3559.665 -747.475)" fill="#1e243a"/>
                </g>
                <g id="Grupo_15038" data-name="Grupo 15038" transform="translate(10.161 38.431)">
                  <g id="Grupo_15026" data-name="Grupo 15026">
                    <g id="Grupo_15025" data-name="Grupo 15025">
                      <path id="Trazado_25448" data-name="Trazado 25448" d="M3468.934,976.815l-10.869,1.722a.921.921,0,0,0,.143,1.832.934.934,0,0,0,.146-.011l10.868-1.722a.921.921,0,1,0-.288-1.82Z" transform="translate(-3457.287 -976.803)" fill="#1e243a"/>
                    </g>
                  </g>
                  <g id="Grupo_15029" data-name="Grupo 15029" transform="translate(0.839 5.107)">
                    <g id="Grupo_15027" data-name="Grupo 15027" transform="translate(0 1.74)">
                      <path id="Trazado_25449" data-name="Trazado 25449" d="M3465.956,1032.544l-1.064.168a.922.922,0,1,0,.289,1.82l1.064-.169a.921.921,0,1,0-.288-1.82Z" transform="translate(-3464.114 -1032.533)" fill="#1e243a"/>
                    </g>
                    <g id="Grupo_15028" data-name="Grupo 15028" transform="translate(4.795)">
                      <path id="Trazado_25450" data-name="Trazado 25450" d="M3511.174,1018.38l-7.25,1.149a.922.922,0,0,0,.143,1.832.933.933,0,0,0,.146-.011l7.25-1.149a.922.922,0,0,0-.288-1.82Z" transform="translate(-3503.146 -1018.369)" fill="#1e243a"/>
                    </g>
                  </g>
                  <g id="Grupo_15033" data-name="Grupo 15033" transform="translate(1.689 6.704)">
                    <g id="Grupo_15030" data-name="Grupo 15030" transform="translate(0 3.56)">
                      <path id="Trazado_25451" data-name="Trazado 25451" d="M3485.174,1060.359l-13.362,2.117a.921.921,0,1,0,.288,1.82l13.362-2.117a.921.921,0,0,0-.288-1.82Z" transform="translate(-3471.035 -1060.347)" fill="#1e243a"/>
                    </g>
                    <g id="Grupo_15031" data-name="Grupo 15031" transform="translate(19.405 2.266)">
                      <path id="Trazado_25452" data-name="Trazado 25452" d="M3631.879,1049.821l-2.127.337a.921.921,0,0,0,.143,1.832.907.907,0,0,0,.145-.011l2.128-.337a.921.921,0,0,0-.289-1.82Z" transform="translate(-3628.974 -1049.81)" fill="#1e243a"/>
                    </g>
                    <g id="Grupo_15032" data-name="Grupo 15032" transform="translate(27.66)">
                      <path id="Trazado_25453" data-name="Trazado 25453" d="M3705.116,1031.381l-8.17,1.295a.922.922,0,0,0,.143,1.832.954.954,0,0,0,.145-.011l8.17-1.295a.921.921,0,0,0-.288-1.82Z" transform="translate(-3696.168 -1031.37)" fill="#1e243a"/>
                    </g>
                  </g>
                  <g id="Grupo_15037" data-name="Grupo 15037" transform="translate(2.539 12.07)">
                    <g id="Grupo_15034" data-name="Grupo 15034" transform="translate(0 5.34)">
                      <path id="Trazado_25454" data-name="Trazado 25454" d="M3480.86,1118.523l-2.128.337a.922.922,0,0,0,.143,1.832.9.9,0,0,0,.146-.012l2.128-.337a.921.921,0,1,0-.289-1.82Z" transform="translate(-3477.955 -1118.512)" fill="#1e243a"/>
                    </g>
                    <g id="Grupo_15035" data-name="Grupo 15035" transform="translate(6.213 0.985)">
                      <path id="Trazado_25455" data-name="Trazado 25455" d="M3552.706,1083.069l-23.4,3.708a.922.922,0,1,0,.288,1.82l23.4-3.709a.921.921,0,1,0-.289-1.82Z" transform="translate(-3528.524 -1083.058)" fill="#1e243a"/>
                    </g>
                    <g id="Grupo_15036" data-name="Grupo 15036" transform="translate(33.703)">
                      <path id="Trazado_25456" data-name="Trazado 25456" d="M3755.177,1075.056l-2.127.337a.921.921,0,1,0,.288,1.82l2.128-.337a.922.922,0,1,0-.289-1.82Z" transform="translate(-3752.272 -1075.044)" fill="#1e243a"/>
                    </g>
                  </g>
                </g>
                <g id="Grupo_15039" data-name="Grupo 15039" transform="translate(25.814 34.476)">
                  <path id="Trazado_25457" data-name="Trazado 25457" d="M3606.7,945.387a.922.922,0,0,0-1.054-.766l-20.178,3.2a.921.921,0,0,0-.766,1.054l.839,5.293a.92.92,0,0,0,1.054.766l20.178-3.2a.921.921,0,0,0,.766-1.054Zm-19.484,7.581-.55-3.473,18.358-2.909.551,3.473Z" transform="translate(-3584.685 -944.609)" fill="#1e243a"/>
                </g>
              </g>
              <g id="Grupo_15057" data-name="Grupo 15057" transform="translate(0 37.483)">
                <g id="Grupo_15041" data-name="Grupo 15041">
                  <path id="Trazado_25458" data-name="Trazado 25458" d="M3284.473,969.248,3266.7,981.4a.921.921,0,0,0-.241,1.281l12.4,18.138a.922.922,0,0,0,1.522-1.04L3268.5,982.4l17.014-11.628a.921.921,0,0,0-1.04-1.521Z" transform="translate(-3266.297 -969.088)" fill="#1e243a"/>
                </g>
                <g id="Grupo_15042" data-name="Grupo 15042" transform="translate(45.327 32.874)">
                  <path id="Trazado_25459" data-name="Trazado 25459" d="M3648.478,1236.819l-12.847,8.834a.921.921,0,1,0,1.044,1.519l12.847-8.835a.921.921,0,1,0-1.044-1.518Z" transform="translate(-3635.231 -1236.656)" fill="#1e243a"/>
                </g>
                <g id="Grupo_15043" data-name="Grupo 15043" transform="translate(5.28 4.16)">
                  <path id="Trazado_25460" data-name="Trazado 25460" d="M3324.083,1007.454l-11.407,7.8-1.2-1.761,12.962-8.859a.921.921,0,1,0-1.04-1.522l-13.723,9.379a.921.921,0,0,0-.24,1.281l2.243,3.283a.921.921,0,0,0,1.281.241l12.168-8.316a.921.921,0,0,0-1.04-1.521Z" transform="translate(-3309.27 -1002.948)" fill="#1e243a"/>
                </g>
                <g id="Grupo_15056" data-name="Grupo 15056" transform="translate(11.165 15.857)">
                  <g id="Grupo_15055" data-name="Grupo 15055">
                    <g id="Grupo_15046" data-name="Grupo 15046">
                      <g id="Grupo_15044" data-name="Grupo 15044" transform="translate(0 3.076)">
                        <path id="Trazado_25461" data-name="Trazado 25461" d="M3362.287,1123.345l-4.71,3.219a.922.922,0,0,0,1.04,1.522l4.71-3.219a.921.921,0,1,0-1.04-1.522Z" transform="translate(-3357.176 -1123.184)" fill="#1e243a"/>
                      </g>
                      <g id="Grupo_15045" data-name="Grupo 15045" transform="translate(7.422)">
                        <path id="Trazado_25462" data-name="Trazado 25462" d="M3419.773,1098.312l-1.789,1.222a.922.922,0,0,0,1.04,1.522l1.788-1.222a.921.921,0,1,0-1.039-1.521Z" transform="translate(-3417.583 -1098.151)" fill="#1e243a"/>
                      </g>
                    </g>
                    <g id="Grupo_15048" data-name="Grupo 15048" transform="translate(2.604 5.088)">
                      <g id="Grupo_15047" data-name="Grupo 15047">
                        <path id="Trazado_25463" data-name="Trazado 25463" d="M3386.113,1139.721l-7.34,5.017a.921.921,0,0,0,1.04,1.521l7.341-5.017a.921.921,0,1,0-1.04-1.521Z" transform="translate(-3378.371 -1139.56)" fill="#1e243a"/>
                      </g>
                    </g>
                    <g id="Grupo_15050" data-name="Grupo 15050" transform="translate(5.244 9.948)">
                      <g id="Grupo_15049" data-name="Grupo 15049">
                        <path id="Trazado_25464" data-name="Trazado 25464" d="M3406.137,1179.278l-5.881,4.019a.921.921,0,1,0,1.04,1.521l5.881-4.019a.921.921,0,0,0-1.04-1.521Z" transform="translate(-3399.855 -1179.118)" fill="#1e243a"/>
                      </g>
                    </g>
                    <g id="Grupo_15052" data-name="Grupo 15052" transform="translate(12.673 9.539)">
                      <g id="Grupo_15051" data-name="Grupo 15051">
                        <path id="Trazado_25465" data-name="Trazado 25465" d="M3468.064,1175.953l-7.341,5.016a.921.921,0,0,0,1.04,1.521l7.34-5.017a.921.921,0,1,0-1.039-1.521Z" transform="translate(-3460.322 -1175.792)" fill="#1e243a"/>
                      </g>
                    </g>
                    <g id="Grupo_15054" data-name="Grupo 15054" transform="translate(20.289 8.999)">
                      <g id="Grupo_15053" data-name="Grupo 15053">
                        <path id="Trazado_25466" data-name="Trazado 25466" d="M3530.665,1171.559l-7.946,5.431a.921.921,0,1,0,1.04,1.522l7.946-5.431a.921.921,0,0,0-1.04-1.521Z" transform="translate(-3522.318 -1171.399)" fill="#1e243a"/>
                      </g>
                    </g>
                  </g>
                </g>
              </g>
            </g>
          </g>
        </g>
        <g id="Grupo_15072" data-name="Grupo 15072" transform="translate(57.217 65.916)">
          <g id="Grupo_15068" data-name="Grupo 15068">
            <g id="Grupo_15064" data-name="Grupo 15064">
              <g id="Grupo_15063" data-name="Grupo 15063">
                <g id="Grupo_15061" data-name="Grupo 15061">
                  <path id="Trazado_25467" data-name="Trazado 25467" d="M3154.148,1127.44h-48.49a2.642,2.642,0,0,1-2.639-2.639v-41.35a2.66,2.66,0,0,1,2.657-2.657h12.354a2.66,2.66,0,0,1,2.657,2.657v4.147a.921.921,0,0,0,.921.922h6.78a.921.921,0,1,0,0-1.843h-5.858v-3.226a4.505,4.505,0,0,0-4.5-4.5h-12.354a4.505,4.505,0,0,0-4.5,4.5v41.35a4.487,4.487,0,0,0,4.482,4.482h48.49a.921.921,0,1,0,0-1.843Z" transform="translate(-3101.176 -1078.951)" fill="#1e243a"/>
                </g>
                <g id="Grupo_15062" data-name="Grupo 15062" transform="translate(0.054 17.015)">
                  <path id="Trazado_25468" data-name="Trazado 25468" d="M3165.112,1217.439H3114.09a5.332,5.332,0,0,0-5.121,3.74l-7.105,22.684a5.234,5.234,0,0,0,.786,4.706,5.325,5.325,0,0,0,4.335,2.187h47.551a.921.921,0,1,0,0-1.843h-47.551a3.5,3.5,0,0,1-2.849-1.435,3.407,3.407,0,0,1-.513-3.064l7.1-22.684a3.5,3.5,0,0,1,3.363-2.448h51.023a3.5,3.5,0,0,1,2.85,1.435,3.407,3.407,0,0,1,.513,3.064l-5.02,16.028a.922.922,0,1,0,1.759.551l5.02-16.028a5.232,5.232,0,0,0-.787-4.706A5.324,5.324,0,0,0,3165.112,1217.439Z" transform="translate(-3101.618 -1217.439)" fill="#1e243a"/>
                </g>
              </g>
            </g>
            <g id="Grupo_15067" data-name="Grupo 15067" transform="translate(25.349 21.606)">
              <g id="Grupo_15065" data-name="Grupo 15065">
                <path id="Trazado_25469" data-name="Trazado 25469" d="M3331.028,1254.807h-22.6a.922.922,0,0,0,0,1.843h22.6a.922.922,0,1,0,0-1.843Z" transform="translate(-3307.502 -1254.807)" fill="#1e243a"/>
              </g>
              <g id="Grupo_15066" data-name="Grupo 15066" transform="translate(28.255)">
                <path id="Trazado_25470" data-name="Trazado 25470" d="M3545.023,1254.807h-6.62a.922.922,0,0,0,0,1.843h6.62a.922.922,0,0,0,0-1.843Z" transform="translate(-3537.482 -1254.807)" fill="#1e243a"/>
              </g>
            </g>
          </g>
          <g id="Grupo_15071" data-name="Grupo 15071" transform="translate(52.203 38.738)">
            <g id="Grupo_15069" data-name="Grupo 15069">
              <path id="Trazado_25471" data-name="Trazado 25471" d="M3541.726,1401.621a.922.922,0,0,0-.921.922,6.443,6.443,0,1,1-2.376-5,.921.921,0,0,0,1.165-1.428,8.287,8.287,0,1,0,3.055,6.426A.922.922,0,0,0,3541.726,1401.621Z" transform="translate(-3526.074 -1394.256)" fill="#1e243a"/>
            </g>
            <g id="Grupo_15070" data-name="Grupo 15070" transform="translate(4.375 2.917)">
              <path id="Trazado_25472" data-name="Trazado 25472" d="M3574.2,1418c-3.322.266-7.687,5.6-9.367,7.822l-1.575-1.575a.921.921,0,0,0-1.3,1.3l2.334,2.333a.921.921,0,0,0,.652.27q.038,0,.078,0a.921.921,0,0,0,.674-.385c2.1-2.966,6.312-7.74,8.656-7.928a.921.921,0,0,0-.147-1.837Z" transform="translate(-3561.686 -1417.998)" fill="#1e243a"/>
            </g>
          </g>
        </g>
        <g id="Grupo_15080" data-name="Grupo 15080" transform="translate(41.039 47.043)">
          <g id="Grupo_15076" data-name="Grupo 15076" transform="translate(0 63.538)">
            <g id="Grupo_15073" data-name="Grupo 15073" transform="translate(7.802 3.823)">
              <path id="Trazado_25473" data-name="Trazado 25473" d="M3046.8,1473.618h-12.876a.921.921,0,1,0,0,1.843H3046.8a.921.921,0,1,0,0-1.843Z" transform="translate(-3033 -1473.618)" fill="#1e243a"/>
            </g>
            <g id="Grupo_15074" data-name="Grupo 15074" transform="translate(2.764 3.823)">
              <path id="Trazado_25474" data-name="Trazado 25474" d="M2994.887,1473.618h-1.966a.921.921,0,1,0,0,1.843h1.966a.921.921,0,1,0,0-1.843Z" transform="translate(-2992 -1473.618)" fill="#1e243a"/>
            </g>
            <g id="Grupo_15075" data-name="Grupo 15075">
              <path id="Trazado_25475" data-name="Trazado 25475" d="M2986.086,1442.5h-15.665a.921.921,0,1,0,0,1.843h15.665a.921.921,0,1,0,0-1.843Z" transform="translate(-2969.5 -1442.5)" fill="#1e243a"/>
            </g>
          </g>
          <g id="Grupo_15079" data-name="Grupo 15079" transform="translate(20.059)">
            <g id="Grupo_15077" data-name="Grupo 15077">
              <path id="Trazado_25476" data-name="Trazado 25476" d="M3145.836,925.34h-12.145a.921.921,0,0,0,0,1.843h12.145a.921.921,0,1,0,0-1.843Z" transform="translate(-3132.77 -925.34)" fill="#1e243a"/>
            </g>
            <g id="Grupo_15078" data-name="Grupo 15078" transform="translate(15.093)">
              <path id="Trazado_25477" data-name="Trazado 25477" d="M3260.5,925.34h-3.958a.921.921,0,1,0,0,1.843h3.958a.921.921,0,0,0,0-1.843Z" transform="translate(-3255.617 -925.34)" fill="#1e243a"/>
            </g>
          </g>
        </g>
        <g id="Grupo_15093" data-name="Grupo 15093" transform="translate(18.272 0)">
          <g id="Grupo_15084" data-name="Grupo 15084" transform="translate(133.71 61.7)">
            <g id="Grupo_15081" data-name="Grupo 15081" transform="translate(12.241)">
              <path id="Trazado_25478" data-name="Trazado 25478" d="M3973.96,1045.38a.922.922,0,0,0-1.809.357c.1.494.19.995.276,1.488a.922.922,0,0,0,1.816-.314C3974.156,1046.4,3974.061,1045.888,3973.96,1045.38Z" transform="translate(-3972.134 -1044.637)" fill="#1e243a"/>
            </g>
            <g id="Grupo_15082" data-name="Grupo 15082" transform="translate(4.276 7.136)">
              <path id="Trazado_25479" data-name="Trazado 25479" d="M3910.316,1379.468a.921.921,0,0,0-1.257.343c-.51.893-1.052,1.785-1.611,2.65a.921.921,0,1,0,1.548,1c.577-.894,1.137-1.814,1.663-2.736A.921.921,0,0,0,3910.316,1379.468Z" transform="translate(-3907.301 -1345.36)" fill="#1e243a"/>
              <path id="Trazado_25480" data-name="Trazado 25480" d="M3943.939,1314.521a.921.921,0,0,0-1.189.533c-.185.486-.379.975-.578,1.455s-.4.944-.605,1.411a.921.921,0,1,0,1.683.75c.215-.482.425-.973.625-1.457s.405-1,.6-1.5A.921.921,0,0,0,3943.939,1314.521Z" transform="translate(-3937.287 -1288.446)" fill="#1e243a"/>
              <path id="Trazado_25481" data-name="Trazado 25481" d="M3981.093,1102.723a.921.921,0,0,0-.843.994c.085,1.028.144,2.071.178,3.1a.922.922,0,0,0,.92.892h.03a.921.921,0,0,0,.891-.951c-.034-1.059-.1-2.134-.183-3.192A.921.921,0,0,0,3981.093,1102.723Z" transform="translate(-3971.285 -1102.72)" fill="#1e243a"/>
              <path id="Trazado_25482" data-name="Trazado 25482" d="M3980.143,1174.491a.921.921,0,0,0-.975.865c-.062,1.032-.151,2.072-.266,3.092a.921.921,0,0,0,.812,1.019.943.943,0,0,0,.1.006.922.922,0,0,0,.915-.818c.118-1.052.21-2.125.274-3.188A.921.921,0,0,0,3980.143,1174.491Z" transform="translate(-3970.101 -1165.672)" fill="#1e243a"/>
              <path id="Trazado_25483" data-name="Trazado 25483" d="M3967.371,1245.637a.922.922,0,0,0-1.093.71c-.214,1.009-.458,2.023-.726,3.015a.921.921,0,1,0,1.779.481c.277-1.024.529-2.071.75-3.113A.921.921,0,0,0,3967.371,1245.637Z" transform="translate(-3958.368 -1228.061)" fill="#1e243a"/>
            </g>
            <g id="Grupo_15083" data-name="Grupo 15083" transform="translate(0 48.428)">
              <path id="Trazado_25484" data-name="Trazado 25484" d="M3874.963,1439.006a.921.921,0,0,0-1.294.149c-.311.392-.632.786-.954,1.172a.922.922,0,1,0,1.414,1.182c.333-.4.664-.805.984-1.209A.921.921,0,0,0,3874.963,1439.006Z" transform="translate(-3872.5 -1438.807)" fill="#1e243a"/>
            </g>
          </g>
          <g id="Grupo_15088" data-name="Grupo 15088" transform="translate(25.923)">
            <g id="Grupo_15085" data-name="Grupo 15085" transform="translate(0 17.491)">
              <path id="Trazado_25485" data-name="Trazado 25485" d="M2996.667,685.027c-.393.334-.788.677-1.174,1.021a.921.921,0,0,0,1.224,1.377c.376-.335.761-.669,1.143-.994a.921.921,0,1,0-1.193-1.4Z" transform="translate(-2995.183 -684.807)" fill="#1e243a"/>
            </g>
            <g id="Grupo_15086" data-name="Grupo 15086" transform="translate(5.384)">
              <path id="Trazado_25486" data-name="Trazado 25486" d="M3225.14,562.067c-.972.249-1.952.52-2.912.805a.921.921,0,1,0,.525,1.766c.938-.279,1.894-.543,2.844-.787a.922.922,0,1,0-.458-1.785Z" transform="translate(-3199.14 -559.63)" fill="#1e243a"/>
              <path id="Trazado_25487" data-name="Trazado 25487" d="M3291.458,548.7c-.992.144-1.995.309-2.981.491a.921.921,0,1,0,.334,1.812c.963-.178,1.943-.339,2.912-.48a.921.921,0,0,0-.265-1.824Z" transform="translate(-3257.165 -547.922)" fill="#1e243a"/>
              <path id="Trazado_25488" data-name="Trazado 25488" d="M3427.175,542.6c-1-.073-2.014-.127-3.019-.16a.921.921,0,0,0-.061,1.842c.981.033,1.971.085,2.946.156l.068,0a.921.921,0,0,0,.066-1.84Z" transform="translate(-3376.002 -542.44)" fill="#1e243a"/>
              <path id="Trazado_25489" data-name="Trazado 25489" d="M3359.058,542.523c-1,.037-2.017.094-3.017.17a.921.921,0,0,0,.069,1.84l.07,0c.977-.074,1.969-.13,2.946-.166a.921.921,0,1,0-.068-1.842Z" transform="translate(-3316.343 -542.512)" fill="#1e243a"/>
              <path id="Trazado_25490" data-name="Trazado 25490" d="M3041.875,644.075c-.838.555-1.675,1.135-2.487,1.724a.921.921,0,1,0,1.082,1.492c.791-.574,1.606-1.139,2.422-1.679a.921.921,0,0,0-1.018-1.537Z" transform="translate(-3039.008 -631.454)" fill="#1e243a"/>
              <path id="Trazado_25491" data-name="Trazado 25491" d="M3099.481,609.842c-.9.455-1.8.933-2.669,1.421a.921.921,0,1,0,.9,1.609c.851-.476,1.727-.942,2.6-1.386a.921.921,0,0,0-.833-1.644Z" transform="translate(-3089.296 -601.474)" fill="#1e243a"/>
              <path id="Trazado_25492" data-name="Trazado 25492" d="M3160.875,582.481c-.941.352-1.886.727-2.809,1.115a.921.921,0,1,0,.713,1.7c.9-.378,1.824-.744,2.742-1.088a.921.921,0,1,0-.646-1.726Z" transform="translate(-3142.942 -577.51)" fill="#1e243a"/>
              <path id="Trazado_25493" data-name="Trazado 25493" d="M3495,549c-.984-.186-1.987-.354-2.982-.5a.921.921,0,1,0-.267,1.823c.971.142,1.949.306,2.908.487A.921.921,0,0,0,3495,549Z" transform="translate(-3435.433 -547.744)" fill="#1e243a"/>
              <path id="Trazado_25494" data-name="Trazado 25494" d="M3794.338,693.82a.921.921,0,1,0-1.269,1.336c.708.672,1.411,1.37,2.091,2.075a.921.921,0,0,0,1.326-1.28C3795.787,695.228,3795.064,694.51,3794.338,693.82Z" transform="translate(-3700.172 -674.999)" fill="#1e243a"/>
              <path id="Trazado_25495" data-name="Trazado 25495" d="M3561.643,563.1c-.956-.3-1.933-.585-2.9-.846a.921.921,0,1,0-.477,1.78c.946.254,1.9.531,2.829.824a.921.921,0,0,0,.553-1.758Z" transform="translate(-3493.866 -559.791)" fill="#1e243a"/>
              <path id="Trazado_25496" data-name="Trazado 25496" d="M3744.522,651.895c-.781-.632-1.587-1.255-2.4-1.851a.922.922,0,1,0-1.094,1.483c.786.58,1.571,1.185,2.331,1.8a.921.921,0,1,0,1.159-1.433Z" transform="translate(-3654.452 -636.666)" fill="#1e243a"/>
              <path id="Trazado_25497" data-name="Trazado 25497" d="M3840.794,743.658a.922.922,0,0,0-1.421,1.173c.621.752,1.236,1.53,1.828,2.312a.922.922,0,0,0,1.469-1.113C3842.063,745.228,3841.431,744.429,3840.794,743.658Z" transform="translate(-3740.855 -718.642)" fill="#1e243a"/>
              <path id="Trazado_25498" data-name="Trazado 25498" d="M3687.439,614.709c-.854-.528-1.732-1.044-2.611-1.533a.922.922,0,0,0-.9,1.61c.854.476,1.708.977,2.539,1.491a.921.921,0,1,0,.969-1.568Z" transform="translate(-3604.281 -604.383)" fill="#1e243a"/>
              <path id="Trazado_25499" data-name="Trazado 25499" d="M3626.137,585.018c-.912-.416-1.847-.817-2.781-1.193a.921.921,0,1,0-.689,1.709c.908.366,1.819.757,2.706,1.161a.921.921,0,1,0,.764-1.677Z" transform="translate(-3550.452 -578.681)" fill="#1e243a"/>
            </g>
            <g id="Grupo_15087" data-name="Grupo 15087" transform="translate(108.633 31.436)">
              <path id="Trazado_25500" data-name="Trazado 25500" d="M3881.08,798.729a.922.922,0,0,0-1.548,1c.272.421.545.853.81,1.282a.922.922,0,0,0,1.569-.968C3881.638,799.6,3881.359,799.161,3881.08,798.729Z" transform="translate(-3879.384 -798.307)" fill="#1e243a"/>
            </g>
          </g>
          <g id="Grupo_15092" data-name="Grupo 15092" transform="translate(0 72.302)">
            <g id="Grupo_15089" data-name="Grupo 15089" transform="translate(10.727 35.667)">
              <path id="Trazado_25501" data-name="Trazado 25501" d="M2873.124,1421.565a.921.921,0,1,0-1.4,1.194c.336.4.684.791,1.035,1.176a.921.921,0,0,0,1.363-1.24C2873.781,1422.325,2873.447,1421.945,2873.124,1421.565Z" transform="translate(-2871.501 -1421.241)" fill="#1e243a"/>
            </g>
            <g id="Grupo_15090" data-name="Grupo 15090" transform="translate(0 6.602)">
              <path id="Trazado_25502" data-name="Trazado 25502" d="M2785.268,1189.328a.921.921,0,0,0,.86-.979c-.06-.916-.092-1.846-.1-2.766a.921.921,0,0,0-.921-.918h0a.921.921,0,0,0-.917.925c0,.957.038,1.926.1,2.878a.921.921,0,0,0,.919.862Z" transform="translate(-2784.189 -1184.665)" fill="#1e243a"/>
              <path id="Trazado_25503" data-name="Trazado 25503" d="M2792.347,1252.163c-.217-.891-.409-1.8-.57-2.707a.921.921,0,1,0-1.814.323c.168.943.367,1.892.594,2.82a.921.921,0,1,0,1.79-.436Z" transform="translate(-2789.241 -1240.829)" fill="#1e243a"/>
              <path id="Trazado_25504" data-name="Trazado 25504" d="M2835.965,1369.3a.922.922,0,1,0-1.59.933c.483.824,1,1.644,1.536,2.438a.921.921,0,1,0,1.528-1.03C2836.925,1370.879,2836.429,1370.092,2835.965,1369.3Z" transform="translate(-2828.098 -1346.217)" fill="#1e243a"/>
              <path id="Trazado_25505" data-name="Trazado 25505" d="M2809.016,1312.6c-.166-.412-.328-.832-.482-1.249a.922.922,0,0,0-1.729.638c.161.435.33.873.5,1.3.185.458.38.919.579,1.369a.921.921,0,0,0,1.685-.746C2809.381,1313.477,2809.194,1313.035,2809.016,1312.6Z" transform="translate(-2803.976 -1295.253)" fill="#1e243a"/>
            </g>
            <g id="Grupo_15091" data-name="Grupo 15091" transform="translate(0.254)">
              <path id="Trazado_25506" data-name="Trazado 25506" d="M2787.487,1130.941a.922.922,0,0,0-1.039.787c-.071.516-.134,1.039-.188,1.554a.921.921,0,0,0,1.833.192c.052-.5.113-1,.181-1.494A.921.921,0,0,0,2787.487,1130.941Z" transform="translate(-2786.254 -1130.932)" fill="#1e243a"/>
            </g>
          </g>
        </g>
        <g id="Grupo_15125" data-name="Grupo 15125" transform="translate(0 1.852)">
          <g id="Grupo_15094" data-name="Grupo 15094" transform="translate(24.693)">
            <path id="Trazado_25507" data-name="Trazado 25507" d="M2837.275,614.893a1.229,1.229,0,1,0,1.565.753A1.229,1.229,0,0,0,2837.275,614.893Z" transform="translate(-2836.452 -607.782)" fill="#1e243a"/>
            <path id="Trazado_25508" data-name="Trazado 25508" d="M2842.467,577.73a1.229,1.229,0,1,0,.388,1.693A1.23,1.23,0,0,0,2842.467,577.73Z" transform="translate(-2840.078 -575.082)" fill="#1e243a"/>
            <path id="Trazado_25509" data-name="Trazado 25509" d="M2908.119,571.923a1.228,1.228,0,0,0,1.733-1.741l0,0s-.006-.006-.01-.009a1.228,1.228,0,1,0-1.732,1.742Z" transform="translate(-2898.986 -568.3)" fill="#1e243a"/>
            <path id="Trazado_25510" data-name="Trazado 25510" d="M2873.393,557.522a1.229,1.229,0,0,0,.138,2.45,1.1,1.1,0,0,0,.141-.009,1.229,1.229,0,1,0-.279-2.441Z" transform="translate(-2867.899 -557.514)" fill="#1e243a"/>
            <path id="Trazado_25511" data-name="Trazado 25511" d="M2921.593,605.305a1.229,1.229,0,1,0-.272,2.443,1.305,1.305,0,0,0,.137.007,1.229,1.229,0,0,0,.135-2.45Z" transform="translate(-2909.935 -599.427)" fill="#1e243a"/>
            <path id="Trazado_25512" data-name="Trazado 25512" d="M2900.868,637.268a1.229,1.229,0,1,0,1.694.383A1.228,1.228,0,0,0,2900.868,637.268Z" transform="translate(-2892.451 -627.304)" fill="#1e243a"/>
            <path id="Trazado_25513" data-name="Trazado 25513" d="M2864.652,641.383a1.229,1.229,0,0,0-.807,2.321,1.21,1.21,0,0,0,.4.069,1.229,1.229,0,0,0,.4-2.39Z" transform="translate(-2859.756 -631.019)" fill="#1e243a"/>
          </g>
          <g id="Grupo_15095" data-name="Grupo 15095" transform="translate(2.245 69.308)">
            <path id="Trazado_25514" data-name="Trazado 25514" d="M2659.757,1141.843a1.229,1.229,0,1,0-1.3,2.083,1.216,1.216,0,0,0,.651.188,1.229,1.229,0,0,0,.653-2.27Z" transform="translate(-2657.368 -1139.195)" fill="#1e243a"/>
            <path id="Trazado_25515" data-name="Trazado 25515" d="M2654.565,1179.012a1.229,1.229,0,0,0,.406,2.388,1.213,1.213,0,0,0,.407-.07,1.228,1.228,0,0,0-.813-2.318Z" transform="translate(-2653.742 -1171.901)" fill="#1e243a"/>
            <path id="Trazado_25516" data-name="Trazado 25516" d="M2725.41,1136.04a1.229,1.229,0,0,0,1.734-1.741l0-.005-.01-.009a1.228,1.228,0,0,0-1.732,1.742Z" transform="translate(-2716.276 -1132.417)" fill="#1e243a"/>
            <path id="Trazado_25517" data-name="Trazado 25517" d="M2681.943,1205.5a1.229,1.229,0,0,0-.808,2.321,1.214,1.214,0,0,0,.4.069,1.229,1.229,0,0,0,.4-2.39Z" transform="translate(-2677.046 -1195.135)" fill="#1e243a"/>
            <path id="Trazado_25518" data-name="Trazado 25518" d="M2738.883,1169.425a1.229,1.229,0,0,0-.273,2.443,1.318,1.318,0,0,0,.138.007,1.229,1.229,0,0,0,.135-2.45Z" transform="translate(-2727.225 -1163.547)" fill="#1e243a"/>
            <path id="Trazado_25519" data-name="Trazado 25519" d="M2718.158,1201.385a1.228,1.228,0,1,0,1.7.383A1.228,1.228,0,0,0,2718.158,1201.385Z" transform="translate(-2709.741 -1191.42)" fill="#1e243a"/>
            <path id="Trazado_25520" data-name="Trazado 25520" d="M2690.683,1121.642a1.228,1.228,0,0,0,.137,2.449,1.4,1.4,0,0,0,.143-.007,1.229,1.229,0,0,0-.28-2.441Z" transform="translate(-2685.189 -1121.634)" fill="#1e243a"/>
          </g>
          <g id="Grupo_15096" data-name="Grupo 15096" transform="translate(14.541 127.941)">
            <path id="Trazado_25521" data-name="Trazado 25521" d="M2759.837,1619.076a1.228,1.228,0,1,0-1.3,2.081,1.226,1.226,0,0,0,1.693-.388A1.228,1.228,0,0,0,2759.837,1619.076Z" transform="translate(-2757.448 -1616.428)" fill="#1e243a"/>
            <path id="Trazado_25522" data-name="Trazado 25522" d="M2754.644,1656.242a1.229,1.229,0,0,0,.408,2.388,1.215,1.215,0,0,0,.407-.07,1.229,1.229,0,0,0-.815-2.318Z" transform="translate(-2753.822 -1649.131)" fill="#1e243a"/>
            <path id="Trazado_25523" data-name="Trazado 25523" d="M2825.48,1613.261l0,0a1.229,1.229,0,0,0,1.738-1.737s0,0,0,0l-.009-.009a1.229,1.229,0,0,0-1.733,1.742Z" transform="translate(-2816.356 -1609.647)" fill="#1e243a"/>
            <path id="Trazado_25524" data-name="Trazado 25524" d="M2790.763,1598.872a1.229,1.229,0,0,0,.139,2.45,1.08,1.08,0,0,0,.14-.009,1.229,1.229,0,0,0-.279-2.441Z" transform="translate(-2785.27 -1598.864)" fill="#1e243a"/>
            <path id="Trazado_25525" data-name="Trazado 25525" d="M2838.963,1646.656a1.229,1.229,0,0,0-.273,2.442,1.327,1.327,0,0,0,.138.007,1.229,1.229,0,0,0,.135-2.45Z" transform="translate(-2827.305 -1640.777)" fill="#1e243a"/>
            <path id="Trazado_25526" data-name="Trazado 25526" d="M2782.017,1682.732a1.229,1.229,0,0,0-.807,2.321h0a1.215,1.215,0,0,0,.4.069,1.229,1.229,0,0,0,.4-2.39Z" transform="translate(-2777.121 -1672.368)" fill="#1e243a"/>
            <path id="Trazado_25527" data-name="Trazado 25527" d="M2818.237,1678.614a1.229,1.229,0,1,0,1.694.383A1.228,1.228,0,0,0,2818.237,1678.614Z" transform="translate(-2809.821 -1668.65)" fill="#1e243a"/>
          </g>
          <g id="Grupo_15097" data-name="Grupo 15097" transform="translate(150.23 2.871)">
            <path id="Trazado_25528" data-name="Trazado 25528" d="M3864.256,601.1a1.228,1.228,0,1,0-1.3,2.081,1.228,1.228,0,1,0,1.3-2.081Z" transform="translate(-3861.867 -598.448)" fill="#1e243a"/>
            <path id="Trazado_25529" data-name="Trazado 25529" d="M3929.9,595.286a1.229,1.229,0,0,0,1.739-1.737.151.151,0,0,1-.014-.014h0a1.228,1.228,0,0,0-1.732,1.742A.067.067,0,0,1,3929.9,595.286Z" transform="translate(-3920.775 -591.667)" fill="#1e243a"/>
            <path id="Trazado_25530" data-name="Trazado 25530" d="M3859.065,638.262a1.229,1.229,0,0,0,.407,2.388,1.21,1.21,0,0,0,.406-.07,1.228,1.228,0,0,0-.813-2.318Z" transform="translate(-3858.242 -631.151)" fill="#1e243a"/>
            <path id="Trazado_25531" data-name="Trazado 25531" d="M3886.442,664.752a1.229,1.229,0,0,0-.807,2.321,1.212,1.212,0,0,0,.4.069,1.229,1.229,0,0,0,.4-2.39Z" transform="translate(-3881.546 -654.388)" fill="#1e243a"/>
            <path id="Trazado_25532" data-name="Trazado 25532" d="M3895.182,580.892a1.229,1.229,0,0,0,.139,2.45,1.112,1.112,0,0,0,.141-.009,1.229,1.229,0,0,0-.281-2.441Z" transform="translate(-3889.689 -580.884)" fill="#1e243a"/>
            <path id="Trazado_25533" data-name="Trazado 25533" d="M3943.383,628.675a1.229,1.229,0,0,0-.272,2.442,1.307,1.307,0,0,0,.137.007,1.229,1.229,0,0,0,.135-2.45Z" transform="translate(-3931.725 -622.797)" fill="#1e243a"/>
            <path id="Trazado_25534" data-name="Trazado 25534" d="M3922.657,660.634a1.229,1.229,0,1,0,1.694.383A1.228,1.228,0,0,0,3922.657,660.634Z" transform="translate(-3914.241 -650.67)" fill="#1e243a"/>
          </g>
          <g id="Grupo_15098" data-name="Grupo 15098" transform="translate(172.21 60.838)">
            <path id="Trazado_25535" data-name="Trazado 25535" d="M4043.153,1072.9a1.229,1.229,0,1,0,.39,1.694A1.228,1.228,0,0,0,4043.153,1072.9Z" transform="translate(-4040.765 -1070.255)" fill="#1e243a"/>
            <path id="Trazado_25536" data-name="Trazado 25536" d="M4108.8,1067.1a1.229,1.229,0,0,0,1.738-1.738c-.005,0-.009-.009-.014-.012a1.228,1.228,0,1,0-1.731,1.742Z" transform="translate(-4099.668 -1063.477)" fill="#1e243a"/>
            <path id="Trazado_25537" data-name="Trazado 25537" d="M4065.336,1136.558a1.229,1.229,0,0,0-.807,2.321,1.262,1.262,0,0,0,.4.069,1.229,1.229,0,0,0,.4-2.39Z" transform="translate(-4060.44 -1126.194)" fill="#1e243a"/>
            <path id="Trazado_25538" data-name="Trazado 25538" d="M4037.964,1110.072a1.228,1.228,0,1,0,1.566.752A1.229,1.229,0,0,0,4037.964,1110.072Z" transform="translate(-4037.142 -1102.961)" fill="#1e243a"/>
            <path id="Trazado_25539" data-name="Trazado 25539" d="M4074.082,1052.7a1.228,1.228,0,0,0,.139,2.448,1.392,1.392,0,0,0,.141-.007,1.229,1.229,0,1,0-.28-2.441Z" transform="translate(-4068.589 -1052.694)" fill="#1e243a"/>
            <path id="Trazado_25540" data-name="Trazado 25540" d="M4122.28,1100.484a1.228,1.228,0,0,0-.273,2.441,1.034,1.034,0,0,0,.139.009,1.229,1.229,0,0,0,.134-2.45Z" transform="translate(-4110.623 -1094.605)" fill="#1e243a"/>
            <path id="Trazado_25541" data-name="Trazado 25541" d="M4101.555,1132.444a1.228,1.228,0,1,0,1.694.383A1.23,1.23,0,0,0,4101.555,1132.444Z" transform="translate(-4093.138 -1122.48)" fill="#1e243a"/>
          </g>
          <g id="Grupo_15099" data-name="Grupo 15099" transform="translate(156.751 121.784)">
            <path id="Trazado_25542" data-name="Trazado 25542" d="M3912.134,1606.132a1.229,1.229,0,0,0,.407,2.388,1.206,1.206,0,0,0,.407-.07,1.229,1.229,0,1,0-.814-2.318Z" transform="translate(-3911.312 -1599.021)" fill="#1e243a"/>
            <path id="Trazado_25543" data-name="Trazado 25543" d="M3982.961,1563.146l0,0,.005,0,0,0a1.229,1.229,0,0,0,1.736-1.739l-.017-.019h0s0,0,0,0a1.228,1.228,0,0,0-1.737,1.737Z" transform="translate(-3973.84 -1559.536)" fill="#1e243a"/>
            <path id="Trazado_25544" data-name="Trazado 25544" d="M3917.319,1568.963a1.229,1.229,0,1,0,.39,1.694A1.228,1.228,0,0,0,3917.319,1568.963Z" transform="translate(-3914.931 -1566.315)" fill="#1e243a"/>
            <path id="Trazado_25545" data-name="Trazado 25545" d="M3996.443,1596.545a1.229,1.229,0,1,0-.271,2.443,1.266,1.266,0,0,0,.138.007,1.229,1.229,0,0,0,.134-2.45Z" transform="translate(-3984.786 -1590.667)" fill="#1e243a"/>
            <path id="Trazado_25546" data-name="Trazado 25546" d="M3975.723,1628.5a1.228,1.228,0,0,0,.656,2.268,1.215,1.215,0,0,0,.654-.19h0a1.228,1.228,0,0,0-1.311-2.078Z" transform="translate(-3967.306 -1618.54)" fill="#1e243a"/>
            <path id="Trazado_25547" data-name="Trazado 25547" d="M3948.252,1548.762a1.228,1.228,0,0,0,.139,2.449c.047,0,.093,0,.141-.007a1.229,1.229,0,1,0-.28-2.441Z" transform="translate(-3942.759 -1548.754)" fill="#1e243a"/>
            <path id="Trazado_25548" data-name="Trazado 25548" d="M3939.506,1632.619a1.229,1.229,0,1,0,.757,1.564A1.227,1.227,0,0,0,3939.506,1632.619Z" transform="translate(-3934.61 -1622.255)" fill="#1e243a"/>
          </g>
          <g id="Grupo_15100" data-name="Grupo 15100" transform="translate(66.022 10.577)">
            <path id="Trazado_25549" data-name="Trazado 25549" d="M3178.853,663.816a1.228,1.228,0,1,0,.389,1.693A1.227,1.227,0,0,0,3178.853,663.816Z" transform="translate(-3176.465 -661.168)" fill="#1e243a"/>
            <path id="Trazado_25550" data-name="Trazado 25550" d="M3173.664,700.982a1.229,1.229,0,0,0,.406,2.388,1.2,1.2,0,0,0,.407-.07,1.228,1.228,0,1,0-.813-2.318Z" transform="translate(-3172.842 -693.871)" fill="#1e243a"/>
            <path id="Trazado_25551" data-name="Trazado 25551" d="M3244.494,658l0,0a1.228,1.228,0,1,0,1.737-1.737l-.013-.014A1.228,1.228,0,0,0,3244.49,658Z" transform="translate(-3235.369 -654.39)" fill="#1e243a"/>
            <path id="Trazado_25552" data-name="Trazado 25552" d="M3201.036,727.472a1.229,1.229,0,1,0,.757,1.564A1.228,1.228,0,0,0,3201.036,727.472Z" transform="translate(-3196.14 -717.108)" fill="#1e243a"/>
            <path id="Trazado_25553" data-name="Trazado 25553" d="M3257.98,691.4a1.229,1.229,0,0,0-.271,2.443,1.292,1.292,0,0,0,.137.007,1.229,1.229,0,0,0,.134-2.45Z" transform="translate(-3246.323 -685.517)" fill="#1e243a"/>
            <path id="Trazado_25554" data-name="Trazado 25554" d="M3209.782,643.612a1.229,1.229,0,0,0,.139,2.45,1.1,1.1,0,0,0,.141-.009,1.229,1.229,0,1,0-.28-2.441Z" transform="translate(-3204.29 -643.604)" fill="#1e243a"/>
            <path id="Trazado_25555" data-name="Trazado 25555" d="M3237.255,723.354a1.229,1.229,0,1,0,1.694.383A1.229,1.229,0,0,0,3237.255,723.354Z" transform="translate(-3228.838 -713.39)" fill="#1e243a"/>
          </g>
          <g id="Grupo_15103" data-name="Grupo 15103" transform="translate(2.023 13.214)">
            <g id="Grupo_15101" data-name="Grupo 15101" transform="translate(2.887)">
              <path id="Trazado_25556" data-name="Trazado 25556" d="M2676.36,665.065a.921.921,0,0,0-.921.922v5.9a.921.921,0,1,0,1.843,0v-5.9A.921.921,0,0,0,2676.36,665.065Z" transform="translate(-2675.439 -665.065)" fill="#1e243a"/>
            </g>
            <g id="Grupo_15102" data-name="Grupo 15102" transform="translate(0 3.01)">
              <path id="Trazado_25557" data-name="Trazado 25557" d="M2658.758,689.565h-5.9a.921.921,0,0,0,0,1.843h5.9a.921.921,0,0,0,0-1.843Z" transform="translate(-2651.939 -689.565)" fill="#1e243a"/>
            </g>
          </g>
          <g id="Grupo_15106" data-name="Grupo 15106" transform="translate(0 101.875)">
            <g id="Grupo_15104" data-name="Grupo 15104" transform="translate(2.887)">
              <path id="Trazado_25558" data-name="Trazado 25558" d="M2659.891,1386.7a.922.922,0,0,0-.922.921v5.9a.922.922,0,1,0,1.843,0v-5.9A.922.922,0,0,0,2659.891,1386.7Z" transform="translate(-2658.97 -1386.703)" fill="#1e243a"/>
            </g>
            <g id="Grupo_15105" data-name="Grupo 15105" transform="translate(0 3.01)">
              <path id="Trazado_25559" data-name="Trazado 25559" d="M2642.289,1411.2h-5.9a.922.922,0,0,0,0,1.843h5.9a.922.922,0,0,0,0-1.843Z" transform="translate(-2635.47 -1411.203)" fill="#1e243a"/>
            </g>
          </g>
          <g id="Grupo_15109" data-name="Grupo 15109" transform="translate(169.33 24.792)">
            <g id="Grupo_15107" data-name="Grupo 15107" transform="translate(2.887)">
              <path id="Trazado_25560" data-name="Trazado 25560" d="M4038.122,759.307a.921.921,0,0,0-.921.922v5.9a.921.921,0,1,0,1.843,0v-5.9A.921.921,0,0,0,4038.122,759.307Z" transform="translate(-4037.201 -759.307)" fill="#1e243a"/>
            </g>
            <g id="Grupo_15108" data-name="Grupo 15108" transform="translate(0 3.01)">
              <path id="Trazado_25561" data-name="Trazado 25561" d="M4020.519,783.807h-5.9a.921.921,0,0,0,0,1.843h5.9a.921.921,0,0,0,0-1.843Z" transform="translate(-4013.7 -783.807)" fill="#1e243a"/>
            </g>
          </g>
          <g id="Grupo_15112" data-name="Grupo 15112" transform="translate(78.799 31.123)">
            <g id="Grupo_15110" data-name="Grupo 15110" transform="translate(2.887)">
              <path id="Trazado_25562" data-name="Trazado 25562" d="M3301.264,810.834a.921.921,0,0,0-.921.921v5.9a.922.922,0,0,0,1.843,0v-5.9A.921.921,0,0,0,3301.264,810.834Z" transform="translate(-3300.343 -810.834)" fill="#1e243a"/>
            </g>
            <g id="Grupo_15111" data-name="Grupo 15111" transform="translate(0 3.01)">
              <path id="Trazado_25563" data-name="Trazado 25563" d="M3283.662,835.334h-5.9a.921.921,0,1,0,0,1.843h5.9a.921.921,0,0,0,0-1.843Z" transform="translate(-3276.843 -835.334)" fill="#1e243a"/>
            </g>
          </g>
          <g id="Grupo_15115" data-name="Grupo 15115" transform="translate(174.581 93.867)">
            <g id="Grupo_15113" data-name="Grupo 15113" transform="translate(2.887)">
              <path id="Trazado_25564" data-name="Trazado 25564" d="M4080.862,1321.528a.921.921,0,0,0-.921.921v5.9a.921.921,0,1,0,1.843,0v-5.9A.922.922,0,0,0,4080.862,1321.528Z" transform="translate(-4079.941 -1321.528)" fill="#1e243a"/>
            </g>
            <g id="Grupo_15114" data-name="Grupo 15114" transform="translate(0 3.01)">
              <path id="Trazado_25565" data-name="Trazado 25565" d="M4063.259,1346.028h-5.9a.922.922,0,0,0,0,1.843h5.9a.922.922,0,1,0,0-1.843Z" transform="translate(-4056.441 -1346.028)" fill="#1e243a"/>
            </g>
          </g>
          <g id="Grupo_15118" data-name="Grupo 15118" transform="translate(172.279 144.442)">
            <g id="Grupo_15116" data-name="Grupo 15116" transform="translate(2.887)">
              <path id="Trazado_25566" data-name="Trazado 25566" d="M4062.122,1733.172a.922.922,0,0,0-.922.922v5.9a.922.922,0,0,0,1.843,0v-5.9A.922.922,0,0,0,4062.122,1733.172Z" transform="translate(-4061.2 -1733.172)" fill="#1e243a"/>
            </g>
            <g id="Grupo_15117" data-name="Grupo 15117" transform="translate(0 3.01)">
              <path id="Trazado_25567" data-name="Trazado 25567" d="M4044.519,1757.672h-5.9a.921.921,0,1,0,0,1.843h5.9a.921.921,0,0,0,0-1.843Z" transform="translate(-4037.7 -1757.672)" fill="#1e243a"/>
            </g>
          </g>
          <g id="Grupo_15121" data-name="Grupo 15121" transform="translate(130.177 138.406)">
            <g id="Grupo_15119" data-name="Grupo 15119" transform="translate(2.887)">
              <path id="Trazado_25568" data-name="Trazado 25568" d="M3719.445,1684.042a.922.922,0,0,0-.922.921v5.9a.922.922,0,0,0,1.843,0v-5.9A.922.922,0,0,0,3719.445,1684.042Z" transform="translate(-3718.523 -1684.042)" fill="#1e243a"/>
            </g>
            <g id="Grupo_15120" data-name="Grupo 15120" transform="translate(0 3.01)">
              <path id="Trazado_25569" data-name="Trazado 25569" d="M3701.842,1708.542h-5.9a.921.921,0,0,0,0,1.843h5.9a.921.921,0,0,0,0-1.843Z" transform="translate(-3695.023 -1708.542)" fill="#1e243a"/>
            </g>
          </g>
          <g id="Grupo_15124" data-name="Grupo 15124" transform="translate(0.216 144.38)">
            <g id="Grupo_15122" data-name="Grupo 15122" transform="translate(2.887)">
              <path id="Trazado_25570" data-name="Trazado 25570" d="M2661.647,1732.672a.922.922,0,0,0-.922.922v5.9a.922.922,0,0,0,1.843,0v-5.9A.922.922,0,0,0,2661.647,1732.672Z" transform="translate(-2660.725 -1732.672)" fill="#1e243a"/>
            </g>
            <g id="Grupo_15123" data-name="Grupo 15123" transform="translate(0 3.01)">
              <path id="Trazado_25571" data-name="Trazado 25571" d="M2644.044,1757.172h-5.9a.921.921,0,1,0,0,1.843h5.9a.921.921,0,1,0,0-1.843Z" transform="translate(-2637.225 -1757.172)" fill="#1e243a"/>
            </g>
          </g>
        </g>
      </g>
    </g>
  </g>
</svg>
