<svg xmlns="http://www.w3.org/2000/svg" width="201" height="201" viewBox="0 0 201 201">
  <g id="Grupo_15894" data-name="Grupo 15894" transform="translate(-1036 -4234)">
    <circle id="Elipse_774" data-name="Elipse 774" cx="100.5" cy="100.5" r="100.5" transform="translate(1036 4234)" fill="#daf0fd"/>
    <g id="Grupo_15379" data-name="Grupo 15379" transform="translate(-3701.203 3710.204)">
      <g id="Color" transform="translate(4765.914 545.902)">
        <g id="Grupo_15320" data-name="Grupo 15320" transform="translate(0 112.519)">
          <path id="Trazado_25835" data-name="Trazado 25835" d="M4917.391,1505.5l13.125-8.75-13.125-8.75Z" transform="translate(-4917.391 -1488)" fill="#fcd118"/>
        </g>
        <g id="Grupo_15321" data-name="Grupo 15321" transform="translate(26.138 33.076)">
          <circle id="Elipse_775" data-name="Elipse 775" cx="42.337" cy="42.337" r="42.337" fill="#4a91d6"/>
        </g>
        <g id="Grupo_15322" data-name="Grupo 15322" transform="translate(118.312 9.368)">
          <path id="Rectángulo_2798" data-name="Rectángulo 2798" d="M19.3,0h3.007a19.3,19.3,0,0,1,19.3,19.3v0a19.3,19.3,0,0,1-19.3,19.3H19.3A19.3,19.3,0,0,1,0,19.3v0A19.3,19.3,0,0,1,19.3,0Z" fill="#fcd118"/>
        </g>
        <g id="Grupo_15323" data-name="Grupo 15323" transform="translate(26.053 44.438)">
          <path id="Trazado_25836" data-name="Trazado 25836" d="M5152.694,937.563a3.612,3.612,0,0,1,.377-4.538l2.706-2.819a3.612,3.612,0,0,0-1.437-5.919l-6.784-2.321c-13.147,14.065-16.313,28.9-11.316,44.358l5.155-3.714a3.613,3.613,0,0,0,1.357-3.937h0a3.612,3.612,0,0,1,5.3-4.119l3.143,1.852a3.612,3.612,0,0,0,4.466-.639l3.493-3.719a3.613,3.613,0,0,0,.351-4.51Z" transform="translate(-5133.997 -921.966)" fill="#5ed45e"/>
        </g>
        <g id="Grupo_15324" data-name="Grupo 15324" transform="translate(72.237 33.311)">
          <path id="Trazado_25837" data-name="Trazado 25837" d="M5518.7,829.455l-.709,9.014a3.356,3.356,0,0,0,3.346,3.62h.873a3.357,3.357,0,0,1,3.214,4.325l-.073.242a3.357,3.357,0,0,0,3.9,4.253l6.694-1.407a3.357,3.357,0,0,1,4.038,3.533h0a3.357,3.357,0,0,0,4.558,3.379l7.909-3.056C5547.227,841.329,5536.422,833.059,5518.7,829.455Z" transform="translate(-5517.983 -829.455)" fill="#5ed45e"/>
        </g>
        <g id="Grupo_15325" data-name="Grupo 15325" transform="translate(45.768 84.638)">
          <path id="Trazado_25838" data-name="Trazado 25838" d="M5336.071,1259.283h0a4.028,4.028,0,0,1-5.691,1.2h0a4.028,4.028,0,0,0-5.845,1.465l-6.045,11.6a4.029,4.029,0,0,1-6.166,1.221h0a5.219,5.219,0,0,0-7.118.372l-7.294,7.569c24.645,11.72,45.189,7.542,60.55-16.735l-13.23-8.7A6.552,6.552,0,0,0,5336.071,1259.283Z" transform="translate(-5297.911 -1256.197)" fill="#5ed45e"/>
        </g>
        <g id="Grupo_15328" data-name="Grupo 15328" transform="translate(124.701 15.986)">
          <g id="Grupo_15327" data-name="Grupo 15327">
            <g id="Grupo_15326" data-name="Grupo 15326">
              <path id="Trazado_25839" data-name="Trazado 25839" d="M5968.635,690.363h-.074c-.615-8.5-18.386-6.057-13.548,7.258,4.295,8.516,13.585,13.161,13.585,13.161s9.29-4.645,13.585-13.161C5987.021,684.306,5969.25,681.863,5968.635,690.363Z" transform="translate(-5954.179 -685.407)" fill="#e1e1e5"/>
            </g>
          </g>
        </g>
        <g id="Grupo_15329" data-name="Grupo 15329" transform="translate(9.66 1.082)">
          <circle id="Elipse_776" data-name="Elipse 776" cx="8.84" cy="8.84" r="8.84" fill="#e1e1e5"/>
        </g>
        <g id="Grupo_15330" data-name="Grupo 15330" transform="translate(143.407 95.86)">
          <circle id="Elipse_777" data-name="Elipse 777" cx="8.84" cy="8.84" r="8.84" fill="#e1e1e5"/>
        </g>
        <g id="Grupo_15331" data-name="Grupo 15331" transform="translate(31.069 140.603)">
          <circle id="Elipse_778" data-name="Elipse 778" cx="6.194" cy="6.194" r="6.194" fill="#e1e1e5"/>
        </g>
        <g id="Grupo_15332" data-name="Grupo 15332" transform="translate(86.998 0)">
          <circle id="Elipse_779" data-name="Elipse 779" cx="6.916" cy="6.916" r="6.916" fill="#e1e1e5"/>
        </g>
      </g>
      <g id="NETWORK" transform="translate(4745.203 545)">
        <g id="Grupo_15333" data-name="Grupo 15333" transform="translate(128.465 134.186)">
          <path id="Trazado_25840" data-name="Trazado 25840" d="M5819.257,1680.849a1.2,1.2,0,1,0,.38,1.659A1.2,1.2,0,0,0,5819.257,1680.849Z" transform="translate(-5816.918 -1678.257)" fill="#1e243a"/>
          <path id="Trazado_25841" data-name="Trazado 25841" d="M5814.088,1718.021a1.2,1.2,0,0,0,.4,2.338,1.216,1.216,0,0,0,.4-.068,1.2,1.2,0,0,0-.8-2.27Z" transform="translate(-5813.282 -1711.059)" fill="#1e243a"/>
          <path id="Trazado_25842" data-name="Trazado 25842" d="M5884.937,1675a1.2,1.2,0,0,0,1.7-1.7l0,0-.009-.01a1.2,1.2,0,1,0-1.7,1.707A.03.03,0,0,1,5884.937,1675Z" transform="translate(-5876 -1671.457)" fill="#1e243a"/>
          <path id="Trazado_25843" data-name="Trazado 25843" d="M5841.448,1744.507a1.2,1.2,0,1,0,.741,1.531A1.2,1.2,0,0,0,5841.448,1744.507Z" transform="translate(-5836.654 -1734.361)" fill="#1e243a"/>
          <path id="Trazado_25844" data-name="Trazado 25844" d="M5898.4,1708.434a1.2,1.2,0,1,0-.268,2.39,1.042,1.042,0,0,0,.135.008,1.2,1.2,0,0,0,.132-2.4Z" transform="translate(-5886.982 -1702.679)" fill="#1e243a"/>
          <path id="Trazado_25845" data-name="Trazado 25845" d="M5877.686,1740.39a1.2,1.2,0,0,0,.644,2.22,1.189,1.189,0,0,0,.64-.187,1.2,1.2,0,1,0-1.283-2.034Z" transform="translate(-5869.446 -1730.635)" fill="#1e243a"/>
          <path id="Trazado_25846" data-name="Trazado 25846" d="M5850.2,1660.652a1.2,1.2,0,0,0,.135,2.4,1.321,1.321,0,0,0,.139-.007,1.2,1.2,0,0,0-.274-2.39Z" transform="translate(-5844.822 -1660.644)" fill="#1e243a"/>
        </g>
        <g id="Grupo_15334" data-name="Grupo 15334" transform="translate(138.087 108.928)">
          <path id="Trazado_25847" data-name="Trazado 25847" d="M5894.089,1508.021a1.2,1.2,0,0,0,.4,2.338,1.216,1.216,0,0,0,.4-.068,1.2,1.2,0,0,0-.8-2.27Z" transform="translate(-5893.284 -1501.059)" fill="#1e243a"/>
          <path id="Trazado_25848" data-name="Trazado 25848" d="M5978.395,1498.434a1.2,1.2,0,1,0-.267,2.39,1.3,1.3,0,0,0,.136.008,1.2,1.2,0,0,0,.131-2.4Z" transform="translate(-5966.982 -1492.679)" fill="#1e243a"/>
          <path id="Trazado_25849" data-name="Trazado 25849" d="M5964.933,1464.994s0,0,0,.006a1.2,1.2,0,0,0,1.7-1.7l0,0-.009-.01a1.2,1.2,0,0,0-1.7,1.707Z" transform="translate(-5956 -1461.457)" fill="#1e243a"/>
          <path id="Trazado_25850" data-name="Trazado 25850" d="M5899.26,1470.849a1.2,1.2,0,1,0,.38,1.659A1.2,1.2,0,0,0,5899.26,1470.849Z" transform="translate(-5896.921 -1468.257)" fill="#1e243a"/>
          <path id="Trazado_25851" data-name="Trazado 25851" d="M5957.686,1530.39h0a1.2,1.2,0,0,0,.644,2.222,1.189,1.189,0,0,0,.64-.186,1.2,1.2,0,1,0-1.283-2.034Z" transform="translate(-5949.446 -1520.635)" fill="#1e243a"/>
          <path id="Trazado_25852" data-name="Trazado 25852" d="M5930.2,1450.652a1.2,1.2,0,0,0,.136,2.4,1.324,1.324,0,0,0,.137-.007h0a1.2,1.2,0,0,0-.274-2.39Z" transform="translate(-5924.822 -1450.644)" fill="#1e243a"/>
          <path id="Trazado_25853" data-name="Trazado 25853" d="M5921.448,1534.507a1.2,1.2,0,0,0-.79,2.272,1.184,1.184,0,0,0,.395.066,1.2,1.2,0,0,0,.4-2.338Z" transform="translate(-5916.654 -1524.361)" fill="#1e243a"/>
        </g>
        <g id="Grupo_15335" data-name="Grupo 15335" transform="translate(5.903 6.332)">
          <path id="Trazado_25854" data-name="Trazado 25854" d="M4800.259,617.849a1.2,1.2,0,1,0,.38,1.659A1.2,1.2,0,0,0,4800.259,617.849Z" transform="translate(-4797.92 -615.257)" fill="#1e243a"/>
          <path id="Trazado_25855" data-name="Trazado 25855" d="M4822.448,681.507a1.2,1.2,0,1,0-.79,2.272,1.185,1.185,0,0,0,.395.066,1.2,1.2,0,0,0,.4-2.338Z" transform="translate(-4817.654 -671.361)" fill="#1e243a"/>
          <path id="Trazado_25856" data-name="Trazado 25856" d="M4865.933,611.995l0,.006a1.2,1.2,0,0,0,1.7-1.7l0,0-.009-.01a1.2,1.2,0,0,0-1.7,1.707Z" transform="translate(-4857 -608.458)" fill="#1e243a"/>
          <path id="Trazado_25857" data-name="Trazado 25857" d="M4795.089,655.021a1.2,1.2,0,0,0,.4,2.338,1.215,1.215,0,0,0,.4-.069,1.2,1.2,0,0,0-.8-2.27Z" transform="translate(-4794.284 -648.059)" fill="#1e243a"/>
          <path id="Trazado_25858" data-name="Trazado 25858" d="M4879.395,645.434a1.2,1.2,0,1,0-.267,2.39,1.308,1.308,0,0,0,.136.008,1.2,1.2,0,0,0,.131-2.4Z" transform="translate(-4867.982 -639.679)" fill="#1e243a"/>
          <path id="Trazado_25859" data-name="Trazado 25859" d="M4831.2,597.652a1.2,1.2,0,0,0,.136,2.4,1.35,1.35,0,0,0,.139-.007,1.2,1.2,0,0,0-.274-2.39Z" transform="translate(-4825.822 -597.644)" fill="#1e243a"/>
          <path id="Trazado_25860" data-name="Trazado 25860" d="M4858.686,677.39a1.2,1.2,0,0,0,.644,2.22,1.188,1.188,0,0,0,.64-.186,1.2,1.2,0,1,0-1.283-2.034Z" transform="translate(-4850.446 -667.635)" fill="#1e243a"/>
        </g>
        <g id="Grupo_15336" data-name="Grupo 15336" transform="translate(80.114 1.4)">
          <path id="Trazado_25861" data-name="Trazado 25861" d="M5412.088,614.021a1.2,1.2,0,1,0,1.532.736A1.2,1.2,0,0,0,5412.088,614.021Z" transform="translate(-5411.282 -607.059)" fill="#1e243a"/>
          <path id="Trazado_25862" data-name="Trazado 25862" d="M5417.257,576.849a1.2,1.2,0,1,0,.38,1.659A1.2,1.2,0,0,0,5417.257,576.849Z" transform="translate(-5414.918 -574.257)" fill="#1e243a"/>
          <path id="Trazado_25863" data-name="Trazado 25863" d="M5482.932,570.993a.013.013,0,0,1,0,.006,1.2,1.2,0,0,0,1.7-1.7l-.013-.012h0a1.2,1.2,0,1,0-1.7,1.707Z" transform="translate(-5474 -567.457)" fill="#1e243a"/>
          <path id="Trazado_25864" data-name="Trazado 25864" d="M5496.4,604.434a1.2,1.2,0,1,0-.267,2.39,1.019,1.019,0,0,0,.135.008,1.2,1.2,0,0,0,.132-2.4Z" transform="translate(-5484.982 -598.679)" fill="#1e243a"/>
          <path id="Trazado_25865" data-name="Trazado 25865" d="M5439.448,640.507a1.2,1.2,0,1,0-.79,2.272,1.221,1.221,0,0,0,.395.066,1.2,1.2,0,0,0,.4-2.338Z" transform="translate(-5434.654 -630.361)" fill="#1e243a"/>
          <path id="Trazado_25866" data-name="Trazado 25866" d="M5475.686,636.39a1.2,1.2,0,0,0,.644,2.219,1.176,1.176,0,0,0,.64-.185,1.2,1.2,0,1,0-1.283-2.034Z" transform="translate(-5467.446 -626.635)" fill="#1e243a"/>
          <path id="Trazado_25867" data-name="Trazado 25867" d="M5448.2,556.652a1.2,1.2,0,0,0,.136,2.4,1.35,1.35,0,0,0,.139-.007,1.2,1.2,0,0,0-.274-2.39Z" transform="translate(-5442.822 -556.644)" fill="#1e243a"/>
        </g>
        <g id="Grupo_15337" data-name="Grupo 15337" transform="translate(19.374 69.477)">
          <path id="Trazado_25868" data-name="Trazado 25868" d="M4912.259,1142.849a1.2,1.2,0,1,0,.38,1.659A1.2,1.2,0,0,0,4912.259,1142.849Z" transform="translate(-4909.92 -1140.257)" fill="#1e243a"/>
          <path id="Trazado_25869" data-name="Trazado 25869" d="M4907.089,1180.021a1.2,1.2,0,0,0,.4,2.338,1.218,1.218,0,0,0,.4-.068,1.2,1.2,0,0,0-.8-2.27Z" transform="translate(-4906.284 -1173.059)" fill="#1e243a"/>
          <path id="Trazado_25870" data-name="Trazado 25870" d="M4977.933,1136.995l0,0a1.2,1.2,0,0,0,1.7-1.7l0,0-.009-.01a1.2,1.2,0,0,0-1.7,1.707Z" transform="translate(-4969 -1133.457)" fill="#1e243a"/>
          <path id="Trazado_25871" data-name="Trazado 25871" d="M4991.395,1170.434a1.2,1.2,0,1,0-.267,2.39,1.014,1.014,0,0,0,.135.009,1.2,1.2,0,0,0,.132-2.4Z" transform="translate(-4979.982 -1164.679)" fill="#1e243a"/>
          <path id="Trazado_25872" data-name="Trazado 25872" d="M4970.686,1202.39a1.2,1.2,0,0,0,.644,2.22,1.189,1.189,0,0,0,.64-.187,1.2,1.2,0,1,0-1.283-2.034Z" transform="translate(-4962.446 -1192.635)" fill="#1e243a"/>
          <path id="Trazado_25873" data-name="Trazado 25873" d="M4934.448,1206.507a1.2,1.2,0,0,0-.79,2.272,1.22,1.22,0,0,0,.395.066,1.2,1.2,0,0,0,.4-2.338Z" transform="translate(-4929.655 -1196.361)" fill="#1e243a"/>
          <path id="Trazado_25874" data-name="Trazado 25874" d="M4943.2,1122.652a1.2,1.2,0,0,0,.136,2.4c.045,0,.091,0,.138-.007a1.2,1.2,0,0,0-.274-2.39Z" transform="translate(-4937.823 -1122.644)" fill="#1e243a"/>
        </g>
        <g id="Grupo_15338" data-name="Grupo 15338" transform="translate(80.114 139.358)">
          <path id="Trazado_25875" data-name="Trazado 25875" d="M5417.257,1723.849a1.2,1.2,0,1,0,.38,1.659A1.2,1.2,0,0,0,5417.257,1723.849Z" transform="translate(-5414.918 -1721.257)" fill="#1e243a"/>
          <path id="Trazado_25876" data-name="Trazado 25876" d="M5482.934,1717.993l.006.006h0a1.2,1.2,0,0,0,1.7-1.7l0,0-.008-.01a1.2,1.2,0,1,0-1.7,1.707S5482.933,1717.993,5482.934,1717.993Z" transform="translate(-5474.001 -1714.457)" fill="#1e243a"/>
          <path id="Trazado_25877" data-name="Trazado 25877" d="M5412.089,1761.021a1.2,1.2,0,0,0,.4,2.338,1.221,1.221,0,0,0,.4-.069,1.2,1.2,0,0,0-.8-2.27Z" transform="translate(-5411.284 -1754.059)" fill="#1e243a"/>
          <path id="Trazado_25878" data-name="Trazado 25878" d="M5439.448,1787.507a1.2,1.2,0,1,0-.79,2.272,1.218,1.218,0,0,0,.395.066,1.2,1.2,0,0,0,.4-2.338Z" transform="translate(-5434.654 -1777.361)" fill="#1e243a"/>
          <path id="Trazado_25879" data-name="Trazado 25879" d="M5496.4,1751.435a1.2,1.2,0,1,0-.267,2.39,1.009,1.009,0,0,0,.135.009,1.2,1.2,0,0,0,.132-2.4Z" transform="translate(-5484.982 -1745.681)" fill="#1e243a"/>
          <path id="Trazado_25880" data-name="Trazado 25880" d="M5448.2,1703.652a1.2,1.2,0,0,0,.136,2.4,1.33,1.33,0,0,0,.138-.007,1.2,1.2,0,0,0-.274-2.39Z" transform="translate(-5442.823 -1703.644)" fill="#1e243a"/>
          <path id="Trazado_25881" data-name="Trazado 25881" d="M5475.686,1783.39a1.2,1.2,0,0,0,.644,2.22,1.189,1.189,0,0,0,.64-.186,1.2,1.2,0,1,0-1.283-2.034Z" transform="translate(-5467.446 -1773.635)" fill="#1e243a"/>
        </g>
        <g id="Grupo_15341" data-name="Grupo 15341" transform="translate(162.915 131.643)">
          <g id="Grupo_15339" data-name="Grupo 15339" transform="translate(2.826)">
            <path id="Trazado_25882" data-name="Trazado 25882" d="M6124.105,1639.5a.9.9,0,0,0-.9.9v5.773a.9.9,0,1,0,1.8,0V1640.4A.9.9,0,0,0,6124.105,1639.5Z" transform="translate(-6123.203 -1639.5)" fill="#1e243a"/>
          </g>
          <g id="Grupo_15340" data-name="Grupo 15340" transform="translate(0 2.947)">
            <path id="Trazado_25883" data-name="Trazado 25883" d="M6106.378,1664h-5.772a.9.9,0,1,0,0,1.8h5.772a.9.9,0,1,0,0-1.8Z" transform="translate(-6099.703 -1664)" fill="#1e243a"/>
          </g>
        </g>
        <g id="Grupo_15344" data-name="Grupo 15344" transform="translate(11.126 41.676)">
          <g id="Grupo_15342" data-name="Grupo 15342" transform="translate(2.826)">
            <path id="Trazado_25884" data-name="Trazado 25884" d="M4862.105,891.5a.9.9,0,0,0-.9.9v5.773a.9.9,0,1,0,1.8,0V892.4A.9.9,0,0,0,4862.105,891.5Z" transform="translate(-4861.203 -891.5)" fill="#1e243a"/>
          </g>
          <g id="Grupo_15343" data-name="Grupo 15343" transform="translate(0 2.947)">
            <path id="Trazado_25885" data-name="Trazado 25885" d="M4844.378,916h-5.773a.9.9,0,1,0,0,1.8h5.773a.9.9,0,1,0,0-1.8Z" transform="translate(-4837.703 -916)" fill="#1e243a"/>
          </g>
        </g>
        <g id="Grupo_15347" data-name="Grupo 15347" transform="translate(57.192 15.816)">
          <g id="Grupo_15345" data-name="Grupo 15345" transform="translate(2.826)">
            <path id="Trazado_25886" data-name="Trazado 25886" d="M5245.105,676.5a.9.9,0,0,0-.9.9v5.773a.9.9,0,1,0,1.8,0V677.4A.9.9,0,0,0,5245.105,676.5Z" transform="translate(-5244.203 -676.5)" fill="#1e243a"/>
          </g>
          <g id="Grupo_15346" data-name="Grupo 15346" transform="translate(0 2.947)">
            <path id="Trazado_25887" data-name="Trazado 25887" d="M5227.378,701h-5.773a.9.9,0,1,0,0,1.8h5.773a.9.9,0,0,0,0-1.8Z" transform="translate(-5220.703 -701)" fill="#1e243a"/>
          </g>
        </g>
        <g id="Grupo_15350" data-name="Grupo 15350" transform="translate(122.863 24.476)">
          <g id="Grupo_15348" data-name="Grupo 15348" transform="translate(2.826)">
            <path id="Trazado_25888" data-name="Trazado 25888" d="M5791.1,748.5a.9.9,0,0,0-.9.9v5.773a.9.9,0,1,0,1.8,0V749.4A.9.9,0,0,0,5791.1,748.5Z" transform="translate(-5790.203 -748.5)" fill="#1e243a"/>
          </g>
          <g id="Grupo_15349" data-name="Grupo 15349" transform="translate(0 2.947)">
            <path id="Trazado_25889" data-name="Trazado 25889" d="M5773.378,773H5767.6a.9.9,0,0,0,0,1.8h5.773a.9.9,0,0,0,0-1.8Z" transform="translate(-5766.703 -773)" fill="#1e243a"/>
          </g>
        </g>
        <g id="Grupo_15353" data-name="Grupo 15353" transform="translate(106.385 127.674)">
          <g id="Grupo_15351" data-name="Grupo 15351" transform="translate(2.826)">
            <path id="Trazado_25890" data-name="Trazado 25890" d="M5654.105,1606.5a.9.9,0,0,0-.9.9v5.773a.9.9,0,1,0,1.8,0V1607.4A.9.9,0,0,0,5654.105,1606.5Z" transform="translate(-5653.203 -1606.5)" fill="#1e243a"/>
          </g>
          <g id="Grupo_15352" data-name="Grupo 15352" transform="translate(0 2.947)">
            <path id="Trazado_25891" data-name="Trazado 25891" d="M5636.378,1631H5630.6a.9.9,0,0,0,0,1.8h5.773a.9.9,0,0,0,0-1.8Z" transform="translate(-5629.703 -1631)" fill="#1e243a"/>
          </g>
        </g>
        <g id="Grupo_15366" data-name="Grupo 15366" transform="translate(29.468 0)">
          <g id="Grupo_15354" data-name="Grupo 15354" transform="translate(16.478 33.076)">
            <path id="Trazado_25892" data-name="Trazado 25892" d="M5201.018,832.664a43.108,43.108,0,1,0,9.266,13.744A43.09,43.09,0,0,0,5201.018,832.664Zm-30.575,72.01a41.435,41.435,0,1,1,41.436-41.435A41.482,41.482,0,0,1,5170.442,904.675Z" transform="translate(-5127.203 -820)" fill="#1e243a"/>
          </g>
          <g id="Grupo_15355" data-name="Grupo 15355" transform="translate(74.292 13.832)">
            <path id="Trazado_25893" data-name="Trazado 25893" d="M5622.373,683.168a48.718,48.718,0,0,0-12.37-6.651l6.854-15.246a.9.9,0,0,0-1.646-.74l-7.256,16.141a.9.9,0,0,0,.532,1.224,47.081,47.081,0,0,1,31.9,44.586.9.9,0,1,0,1.8,0,48.526,48.526,0,0,0-9.338-28.745A49.1,49.1,0,0,0,5622.373,683.168Z" transform="translate(-5607.875 -659.998)" fill="#1e243a"/>
          </g>
          <g id="Grupo_15356" data-name="Grupo 15356" transform="translate(14.313 18.282)">
            <path id="Trazado_25894" data-name="Trazado 25894" d="M5154.606,706.141a48.7,48.7,0,0,0-31.064,11.135l-12.678-19.86a.9.9,0,0,0-1.521.971l13.231,20.727a.9.9,0,0,0,1.348.2,47.084,47.084,0,0,1,30.683-11.368.9.9,0,1,0,0-1.8Z" transform="translate(-5109.202 -697)" fill="#1e243a"/>
          </g>
          <g id="Grupo_15357" data-name="Grupo 15357" transform="translate(10.825 47.643)">
            <path id="Trazado_25895" data-name="Trazado 25895" d="M5110.267,1012.958a47.108,47.108,0,0,1-19.58-70.421.9.9,0,1,0-1.471-1.045,48.914,48.914,0,0,0,19.511,72.753L5100,1034.62a.9.9,0,1,0,1.658.71l9.075-21.19A.9.9,0,0,0,5110.267,1012.958Z" transform="translate(-5080.203 -941.113)" fill="#1e243a"/>
          </g>
          <g id="Grupo_15358" data-name="Grupo 15358" transform="translate(58.815 90.674)">
            <path id="Trazado_25896" data-name="Trazado 25896" d="M5555.358,1310.138l-29.419-11.2a.9.9,0,0,0-1.177.556,47.042,47.042,0,0,1-44.657,32.115.9.9,0,1,0,0,1.8,48.519,48.519,0,0,0,28.836-9.406,49.011,49.011,0,0,0,17.225-23.052l28.55,10.869a.9.9,0,0,0,.642-1.686Z" transform="translate(-5479.203 -1298.879)" fill="#1e243a"/>
          </g>
          <g id="Grupo_15359" data-name="Grupo 15359" transform="translate(18.637 44.438)">
            <path id="Trazado_25897" data-name="Trazado 25897" d="M5163.258,930.454a2.722,2.722,0,0,1,.283-3.4l2.707-2.819a4.514,4.514,0,0,0-1.8-7.4l-6.784-2.321a.9.9,0,1,0-.584,1.707l6.784,2.321a2.71,2.71,0,0,1,1.078,4.44l-2.706,2.819a4.533,4.533,0,0,0-.471,5.672l6.813,9.976a2.694,2.694,0,0,1-.263,3.383l-3.494,3.719a2.7,2.7,0,0,1-3.351.479l-3.143-1.852a4.514,4.514,0,0,0-6.627,5.147,2.715,2.715,0,0,1-1.018,2.954l-5.154,3.714a.9.9,0,1,0,1.055,1.464l5.154-3.714a4.523,4.523,0,0,0,1.7-4.921,2.71,2.71,0,0,1,3.978-3.09l3.143,1.852a4.489,4.489,0,0,0,5.582-.8l3.493-3.719a4.486,4.486,0,0,0,.438-5.636Z" transform="translate(-5145.158 -914.464)" fill="#1e243a"/>
          </g>
          <g id="Grupo_15360" data-name="Grupo 15360" transform="translate(62.578 33.311)">
            <path id="Trazado_25898" data-name="Trazado 25898" d="M5545.537,845.92l-7.909,3.056a2.454,2.454,0,0,1-3.333-2.471,4.259,4.259,0,0,0-5.124-4.483l-6.694,1.407a2.455,2.455,0,0,1-2.855-3.11l.073-.241a4.26,4.26,0,0,0-4.078-5.487h-.873a2.454,2.454,0,0,1-2.447-2.647l.709-9.014a.9.9,0,0,0-1.8-.141l-.709,9.014a4.259,4.259,0,0,0,4.246,4.593h.873a2.454,2.454,0,0,1,2.35,3.163l-.073.241a4.259,4.259,0,0,0,4.954,5.4l6.694-1.407a2.455,2.455,0,0,1,2.953,2.583,4.254,4.254,0,0,0,5.782,4.287l7.909-3.056a.9.9,0,1,0-.65-1.683Z" transform="translate(-5510.486 -821.955)" fill="#1e243a"/>
          </g>
          <g id="Grupo_15361" data-name="Grupo 15361" transform="translate(36.108 84.636)">
            <path id="Trazado_25899" data-name="Trazado 25899" d="M5352.358,1258.608l-13.23-8.7a7.453,7.453,0,0,0-10.42,2.285,3.127,3.127,0,0,1-4.417.927,4.93,4.93,0,0,0-7.154,1.793l-6.045,11.6a3.126,3.126,0,0,1-4.785.948,6.139,6.139,0,0,0-8.349.437l-7.294,7.569a.9.9,0,0,0,1.3,1.252l7.294-7.569a4.329,4.329,0,0,1,5.888-.308,4.93,4.93,0,0,0,7.546-1.495l6.045-11.6a3.126,3.126,0,0,1,4.537-1.137,4.929,4.929,0,0,0,6.965-1.463,5.65,5.65,0,0,1,7.9-1.732l13.23,8.7a.9.9,0,0,0,.991-1.508Z" transform="translate(-5290.411 -1248.679)" fill="#1e243a"/>
          </g>
          <g id="Grupo_15362" data-name="Grupo 15362" transform="translate(0 1.082)">
            <path id="Trazado_25900" data-name="Trazado 25900" d="M4999.945,554a9.742,9.742,0,1,0,9.743,9.742A9.753,9.753,0,0,0,4999.945,554Zm0,17.681a7.938,7.938,0,1,1,7.938-7.938A7.948,7.948,0,0,1,4999.945,571.681Z" transform="translate(-4990.203 -554)" fill="#1e243a"/>
          </g>
          <g id="Grupo_15363" data-name="Grupo 15363" transform="translate(133.748 95.86)">
            <path id="Trazado_25901" data-name="Trazado 25901" d="M6111.945,1342a9.742,9.742,0,1,0,9.743,9.742A9.753,9.753,0,0,0,6111.945,1342Zm0,17.681a7.938,7.938,0,1,1,7.938-7.938A7.947,7.947,0,0,1,6111.945,1359.681Z" transform="translate(-6102.203 -1342)" fill="#1e243a"/>
          </g>
          <g id="Grupo_15364" data-name="Grupo 15364" transform="translate(21.409 140.603)">
            <path id="Trazado_25902" data-name="Trazado 25902" d="M5175.3,1714a7.1,7.1,0,1,0,7.1,7.1A7.1,7.1,0,0,0,5175.3,1714Zm0,12.388a5.292,5.292,0,1,1,5.292-5.292A5.3,5.3,0,0,1,5175.3,1726.388Z" transform="translate(-5168.203 -1714)" fill="#1e243a"/>
          </g>
          <g id="Grupo_15365" data-name="Grupo 15365" transform="translate(77.338)">
            <path id="Trazado_25903" data-name="Trazado 25903" d="M5641.021,545a7.818,7.818,0,1,0,7.818,7.818A7.827,7.827,0,0,0,5641.021,545Zm0,13.832a6.014,6.014,0,1,1,6.014-6.014A6.021,6.021,0,0,1,5641.021,558.832Z" transform="translate(-5633.203 -545)" fill="#1e243a"/>
          </g>
        </g>
        <g id="Grupo_15372" data-name="Grupo 15372" transform="translate(138.12 5.653)">
          <g id="Grupo_15369" data-name="Grupo 15369" transform="translate(6.387 10.336)">
            <g id="Grupo_15368" data-name="Grupo 15368">
              <g id="Grupo_15367" data-name="Grupo 15367">
                <path id="Trazado_25904" data-name="Trazado 25904" d="M5965.149,678.463a3.25,3.25,0,0,1-6.335,0,9.6,9.6,0,0,0-9.691,2.122c-1.508,1.492-3.717,4.875-1.574,10.774a1,1,0,0,0,.042.1c4.38,8.683,13.6,13.366,13.987,13.561a.9.9,0,0,0,.807,0c.391-.2,9.607-4.879,13.987-13.561a.9.9,0,0,0,.042-.1c2.143-5.9-.066-9.283-1.574-10.774A9.6,9.6,0,0,0,5965.149,678.463Zm9.588,12.229c-3.614,7.12-10.958,11.5-12.756,12.5-1.8-.992-9.134-5.363-12.755-12.5-1.312-3.651-.9-6.783,1.165-8.825a7.719,7.719,0,0,1,7.789-1.715,4.18,4.18,0,0,1,2.865,3.706.9.9,0,0,0,.9.837h.075a.9.9,0,0,0,.9-.837,4.179,4.179,0,0,1,2.864-3.706,7.719,7.719,0,0,1,7.789,1.715C5975.636,683.909,5976.049,687.042,5974.737,690.692Z" transform="translate(-5946.658 -677.938)" fill="#1e243a"/>
              </g>
            </g>
          </g>
          <g id="Grupo_15370" data-name="Grupo 15370" transform="translate(0 3.715)">
            <path id="Trazado_25905" data-name="Trazado 25905" d="M5929.781,622.89h-29.025a7.205,7.205,0,0,0-7.2,7.2v26.018a7.205,7.205,0,0,0,7.2,7.2h29.025a7.206,7.206,0,0,0,7.2-7.2V630.087A7.206,7.206,0,0,0,5929.781,622.89Zm5.394,33.215a5.4,5.4,0,0,1-5.394,5.393h-29.025a5.4,5.4,0,0,1-5.393-5.393V630.087a5.4,5.4,0,0,1,5.393-5.393h29.025a5.4,5.4,0,0,1,5.394,5.393Z" transform="translate(-5893.559 -622.89)" fill="#1e243a"/>
          </g>
          <g id="Grupo_15371" data-name="Grupo 15371" transform="translate(5.129)">
            <path id="Trazado_25906" data-name="Trazado 25906" d="M5968.12,592H5937.1a.9.9,0,0,0,0,1.8h31.015a8.746,8.746,0,0,1,8.736,8.736v28.008a.9.9,0,0,0,1.8,0V602.541A10.553,10.553,0,0,0,5968.12,592Z" transform="translate(-5936.203 -592)" fill="#1e243a"/>
          </g>
        </g>
        <g id="Grupo_15376" data-name="Grupo 15376" transform="translate(0 104.039)">
          <g id="Grupo_15373" data-name="Grupo 15373" transform="translate(3.699 3.578)">
            <path id="Trazado_25907" data-name="Trazado 25907" d="M4817.557,1439.75H4781.5a5.551,5.551,0,0,0-5.545,5.545v18.017a5.551,5.551,0,0,0,5.545,5.545h36.059a5.551,5.551,0,0,0,5.545-5.545v-18.017A5.551,5.551,0,0,0,4817.557,1439.75Zm3.741,23.562a3.745,3.745,0,0,1-3.741,3.741H4781.5a3.746,3.746,0,0,1-3.741-3.741v-18.017a3.746,3.746,0,0,1,3.741-3.741h36.059a3.745,3.745,0,0,1,3.741,3.741Z" transform="translate(-4775.953 -1439.75)" fill="#1e243a"/>
          </g>
          <g id="Grupo_15374" data-name="Grupo 15374" transform="translate(19.808 8.479)">
            <path id="Trazado_25908" data-name="Trazado 25908" d="M4924.418,1489.4l-13.125-8.75a.9.9,0,0,0-1.4.75v17.5a.9.9,0,0,0,1.4.75l13.125-8.75a.9.9,0,0,0,0-1.5Zm-12.723,7.815v-14.129l10.6,7.065Z" transform="translate(-4909.891 -1480.499)" fill="#1e243a"/>
          </g>
          <g id="Grupo_15375" data-name="Grupo 15375">
            <path id="Trazado_25909" data-name="Trazado 25909" d="M4787.12,1410H4753.73a8.537,8.537,0,0,0-8.527,8.527v18.956a.9.9,0,1,0,1.8,0v-18.956a6.731,6.731,0,0,1,6.724-6.723h33.389a.9.9,0,0,0,0-1.8Z" transform="translate(-4745.203 -1410)" fill="#1e243a"/>
          </g>
        </g>
        <g id="Grupo_15377" data-name="Grupo 15377" transform="translate(144.452 51.959)">
          <path id="Trazado_25910" data-name="Trazado 25910" d="M6051.826,1067h-3.007a.9.9,0,0,0,0,1.8h3.007a.9.9,0,1,0,0-1.8Z" transform="translate(-6035.683 -1056.175)" fill="#1e243a"/>
          <path id="Trazado_25911" data-name="Trazado 25911" d="M6089.961,1205h-3.007a.9.9,0,1,0,0,1.8h3.007a.9.9,0,0,0,0-1.8Z" transform="translate(-6069.231 -1177.577)" fill="#1e243a"/>
          <path id="Trazado_25912" data-name="Trazado 25912" d="M6019.961,1205h-3.007a.9.9,0,1,0,0,1.8h3.007a.9.9,0,0,0,0-1.8Z" transform="translate(-6007.65 -1177.577)" fill="#1e243a"/>
          <path id="Trazado_25913" data-name="Trazado 25913" d="M5950.094,1205H5947.1a.9.9,0,0,0,0,1.8h2.989a.9.9,0,0,0,0-1.8Z" transform="translate(-5946.203 -1177.577)" fill="#1e243a"/>
          <path id="Trazado_25914" data-name="Trazado 25914" d="M5989.022,1046.445a.9.9,0,0,0-.362-1.223,7.162,7.162,0,0,1-2.059-1.677.9.9,0,1,0-1.378,1.165,8.964,8.964,0,0,0,2.576,2.1.9.9,0,0,0,1.223-.362Z" transform="translate(-5980.342 -1035.26)" fill="#1e243a"/>
          <path id="Trazado_25915" data-name="Trazado 25915" d="M5970.108,981.811h.026a.9.9,0,0,0,.875-.928c0-.071,0-.142,0-.214V977.9a.9.9,0,1,0-1.8,0v2.766c0,.089,0,.178,0,.267A.9.9,0,0,0,5970.108,981.811Z" transform="translate(-5966.437 -977)" fill="#1e243a"/>
          <path id="Trazado_25916" data-name="Trazado 25916" d="M6226.338,1172.786a.9.9,0,0,0-1.239.3,7.164,7.164,0,0,1-1.772,1.979.9.9,0,1,0,1.1,1.431,8.955,8.955,0,0,0,2.217-2.475A.9.9,0,0,0,6226.338,1172.786Z" transform="translate(-6189.686 -1149.122)" fill="#1e243a"/>
          <path id="Trazado_25917" data-name="Trazado 25917" d="M6244.521,1105.9a.9.9,0,0,0-1.632.771,7.067,7.067,0,0,1,.667,2.567.9.9,0,0,0,.9.842l.062,0a.9.9,0,0,0,.839-.96A8.9,8.9,0,0,0,6244.521,1105.9Z" transform="translate(-6207.129 -1089.945)" fill="#1e243a"/>
          <path id="Trazado_25918" data-name="Trazado 25918" d="M6159.96,1205h-3.007a.9.9,0,0,0,0,1.8h3.007a.9.9,0,1,0,0-1.8Z" transform="translate(-6130.812 -1177.577)" fill="#1e243a"/>
          <path id="Trazado_25919" data-name="Trazado 25919" d="M6121.826,1067h-3.007a.9.9,0,0,0,0,1.8h3.007a.9.9,0,0,0,0-1.8Z" transform="translate(-6097.264 -1056.175)" fill="#1e243a"/>
          <path id="Trazado_25920" data-name="Trazado 25920" d="M6192.5,1069.342a.9.9,0,0,0-.409-1.208,8.883,8.883,0,0,0-3.2-.891.9.9,0,1,0-.151,1.8,7.085,7.085,0,0,1,2.556.711.9.9,0,0,0,1.208-.409Z" transform="translate(-6158.835 -1056.385)" fill="#1e243a"/>
        </g>
        <g id="Grupo_15378" data-name="Grupo 15378" transform="translate(0 44.382)">
          <path id="Trazado_25921" data-name="Trazado 25921" d="M4754.821,1067.927a.9.9,0,1,0-1.241-1.309,8.94,8.94,0,0,0-1.948,2.692.9.9,0,1,0,1.632.768A7.146,7.146,0,0,1,4754.821,1067.927Z" transform="translate(-4750.783 -1048.043)" fill="#1e243a"/>
          <path id="Trazado_25922" data-name="Trazado 25922" d="M4769.961,1266.4a7.143,7.143,0,0,1-2.234-1.435.9.9,0,0,0-1.238,1.312,8.917,8.917,0,0,0,2.8,1.8.9.9,0,0,0,.675-1.673Z" transform="translate(-4763.68 -1222.533)" fill="#1e243a"/>
          <path id="Trazado_25923" data-name="Trazado 25923" d="M4811.177,1048.9a.9.9,0,0,0-.9-.9h-2.3c-.26,0-.522.011-.779.033a.9.9,0,0,0,.076,1.8q.04,0,.079,0c.205-.018.416-.027.624-.027h2.3A.9.9,0,0,0,4811.177,1048.9Z" transform="translate(-4799.01 -1031.883)" fill="#1e243a"/>
          <path id="Trazado_25924" data-name="Trazado 25924" d="M4966.335,948.828a.9.9,0,0,0,1.067-.7,7.087,7.087,0,0,1,1.018-2.45.9.9,0,1,0-1.508-.99,8.9,8.9,0,0,0-1.275,3.071A.9.9,0,0,0,4966.335,948.828Z" transform="translate(-4939.106 -940.641)" fill="#1e243a"/>
          <path id="Trazado_25925" data-name="Trazado 25925" d="M4746.105,1135.376a.9.9,0,0,0,.9-.9v-3.007a.9.9,0,1,0-1.8,0v3.007A.9.9,0,0,0,4746.105,1135.376Z" transform="translate(-4745.203 -1104.517)" fill="#1e243a"/>
          <path id="Trazado_25926" data-name="Trazado 25926" d="M4747.007,1203.323v-1.856a.9.9,0,1,0-1.8,0v1.856a9.083,9.083,0,0,0,.09,1.274.9.9,0,1,0,1.786-.254A7.235,7.235,0,0,1,4747.007,1203.323Z" transform="translate(-4745.203 -1166.098)" fill="#1e243a"/>
          <path id="Trazado_25927" data-name="Trazado 25927" d="M4835.4,1283h-3.007a.9.9,0,1,0,0,1.8h3.007a.9.9,0,0,0,0-1.8Z" transform="translate(-4821.11 -1238.618)" fill="#1e243a"/>
          <path id="Trazado_25928" data-name="Trazado 25928" d="M5018.006,1334.179a.9.9,0,0,0-.664,1.089,7.18,7.18,0,0,1,.2,1.693v1.082a.9.9,0,1,0,1.8,0v-1.082a8.989,8.989,0,0,0-.252-2.118A.9.9,0,0,0,5018.006,1334.179Z" transform="translate(-4984.587 -1283.619)" fill="#1e243a"/>
          <path id="Trazado_25929" data-name="Trazado 25929" d="M5014.018,914h-.432a8.947,8.947,0,0,0-2.814.451.9.9,0,1,0,.566,1.713,7.147,7.147,0,0,1,2.248-.36h.432a.9.9,0,0,0,0-1.8Z" transform="translate(-4978.285 -914)" fill="#1e243a"/>
          <path id="Trazado_25930" data-name="Trazado 25930" d="M5081.461,914h-.771a.9.9,0,0,0,0,1.8h.771a.9.9,0,1,0,0-1.8Z" transform="translate(-5039.545 -914)" fill="#1e243a"/>
          <path id="Trazado_25931" data-name="Trazado 25931" d="M4880.321,1049.675a.9.9,0,1,0-.11-1.8c-.146.009-.3.014-.444.014h-2.507a.9.9,0,0,0,0,1.8h2.507C4879.952,1049.692,4880.138,1049.687,4880.321,1049.675Z" transform="translate(-4860.583 -1031.771)" fill="#1e243a"/>
          <path id="Trazado_25932" data-name="Trazado 25932" d="M4905.4,1283h-3.007a.9.9,0,0,0,0,1.8h3.007a.9.9,0,0,0,0-1.8Z" transform="translate(-4882.69 -1238.618)" fill="#1e243a"/>
          <path id="Trazado_25933" data-name="Trazado 25933" d="M4945.171,1011.109a.9.9,0,0,0-1.211.4,7.145,7.145,0,0,1-1.61,2.111.9.9,0,1,0,1.208,1.34,8.942,8.942,0,0,0,2.015-2.642A.9.9,0,0,0,4945.171,1011.109Z" transform="translate(-4918.375 -999.345)" fill="#1e243a"/>
          <path id="Trazado_25934" data-name="Trazado 25934" d="M4975.331,1287.291a8.9,8.9,0,0,0-2.957-1.52.9.9,0,0,0-.511,1.73,7.1,7.1,0,0,1,2.36,1.213.9.9,0,0,0,1.108-1.424Z" transform="translate(-4944.033 -1241.024)" fill="#1e243a"/>
        </g>
      </g>
    </g>
  </g>
</svg>
