<svg xmlns="http://www.w3.org/2000/svg" width="243.782" height="201.052" viewBox="0 0 243.782 201.052">
  <g id="Grupo_14812" data-name="Grupo 14812" transform="translate(-755 -2530.927)">
    <g id="Grupo_14811" data-name="Grupo 14811" transform="translate(755 2530.927)">
      <g id="Color" transform="translate(1.537 12.336)">
        <g id="Grupo_14739" data-name="Grupo 14739" transform="translate(0)">
          <path id="Trazado_25188" data-name="Trazado 25188" d="M8985.4,553.628l-8.465-8.463-13.814.034a5.217,5.217,0,0,1-5.23-5.217V525.068h-11.334a7.453,7.453,0,0,0-7.452,7.453v23.167a7.453,7.453,0,0,0,7.452,7.453h15.679l10.281,10.279,7.5-10.279h10.232a7.453,7.453,0,0,0,7.453-7.453V545.165h-6.127Z" transform="translate(-8939.106 -525.068)" fill="#5ed45e"/>
        </g>
        <g id="Grupo_14740" data-name="Grupo 14740" transform="translate(193.279 142.098)">
          <path id="Trazado_25189" data-name="Trazado 25189" d="M10217.21,1456.66l-7.409-15.014-7.41,15.014-16.57,2.408,11.99,11.687-2.83,16.5,14.82-7.791,14.819,7.791-2.831-16.5,11.99-11.687Z" transform="translate(-10185.82 -1441.646)" fill="#fcd118"/>
        </g>
      </g>
      <g id="SOCIAL" transform="translate(0 0)">
        <g id="Grupo_14749" data-name="Grupo 14749" transform="translate(74.376 45.339)">
          <g id="Grupo_14741" data-name="Grupo 14741">
            <path id="Trazado_25190" data-name="Trazado 25190" d="M9455.735,831.538a46.792,46.792,0,1,1,33.087-13.705A46.487,46.487,0,0,1,9455.735,831.538Zm0-91.569a44.777,44.777,0,1,0,44.777,44.777A44.828,44.828,0,0,0,9455.735,739.968Z" transform="translate(-9408.942 -737.953)" fill="#1e243a"/>
          </g>
          <g id="Grupo_14747" data-name="Grupo 14747" transform="translate(13.061 12.03)">
            <g id="Grupo_14742" data-name="Grupo 14742" transform="translate(15.611 20.456)">
              <path id="Trazado_25191" data-name="Trazado 25191" d="M9614.925,976.568h-5.845a6.034,6.034,0,0,1-4.306-1.749L9596.937,967a10.48,10.48,0,0,1-3.055-7.472v-7.613a1.007,1.007,0,1,1,2.015,0v7.613a8.475,8.475,0,0,0,2.464,6.046l7.838,7.816a4.035,4.035,0,0,0,2.882,1.16h5.845a4.06,4.06,0,0,0,2.9-1.159l7.916-7.841a8.5,8.5,0,0,0,2.556-6.021V948.508a1.008,1.008,0,0,1,2.016,0v11.023a10.5,10.5,0,0,1-3.148,7.45l-7.918,7.841A6.057,6.057,0,0,1,9614.925,976.568Z" transform="translate(-9593.882 -947.5)" fill="#1e243a"/>
            </g>
            <g id="Grupo_14745" data-name="Grupo 14745" transform="translate(0 42.006)">
              <g id="Grupo_14743" data-name="Grupo 14743" transform="translate(43.671)">
                <path id="Trazado_25192" data-name="Trazado 25192" d="M9797.86,1111.487a1.009,1.009,0,0,1-.986-.806c-.7-3.421-3.177-5.376-8.281-6.537l-8.58-2.047a6.723,6.723,0,0,1-5.131-6.608v-7.981a1.007,1.007,0,1,1,2.015,0v7.981a4.715,4.715,0,0,0,3.583,4.647l8.57,2.045c3.971.9,8.684,2.642,9.8,8.1a1.008,1.008,0,0,1-.987,1.21Z" transform="translate(-9774.882 -1086.5)" fill="#1e243a"/>
              </g>
              <g id="Grupo_14744" data-name="Grupo 14744">
                <path id="Trazado_25193" data-name="Trazado 25193" d="M9494.2,1111.487a1.008,1.008,0,0,1-.987-1.21c1.021-4.989,3.383-6.961,9.719-8.1l8.649-2.039a4.851,4.851,0,0,0,3.733-4.647v-7.981a1.008,1.008,0,0,1,2.016,0v7.981a6.886,6.886,0,0,1-5.284,6.608l-8.679,2.046-.052.011c-6.072,1.09-7.369,2.817-8.128,6.527A1.009,1.009,0,0,1,9494.2,1111.487Z" transform="translate(-9493.188 -1086.5)" fill="#1e243a"/>
              </g>
            </g>
            <g id="Grupo_14746" data-name="Grupo 14746" transform="translate(12.039)">
              <path id="Trazado_25194" data-name="Trazado 25194" d="M9576,841.438a19.211,19.211,0,0,1-4.377-.536,1.007,1.007,0,0,1-.574-1.589c2.492-3.3,1.989-4.346,1.23-5.932a7.96,7.96,0,0,1-.984-3.661,14.887,14.887,0,0,1,3.512-9.276,13.671,13.671,0,0,1,10.814-4.894c3.227,0,7.478.349,10.751,2.8a.99.99,0,0,1,.194-.093,12.663,12.663,0,0,1,14.4,19.492,1.006,1.006,0,0,1-1.475.152,19.143,19.143,0,0,0-5.443-2.971c-2.573-1.066-5.229-2.167-6.46-4.521-3.579-.488-5.844,1.724-8.681,4.492C9585.861,837.871,9582.2,841.438,9576,841.438Zm-2.437-2.209c6.916,1.077,10.479-2.4,13.932-5.769,2.984-2.911,6.068-5.92,10.978-4.943a1.009,1.009,0,0,1,.738.613c.776,1.938,3.014,2.866,5.6,3.94a24.5,24.5,0,0,1,5.114,2.609,10.55,10.55,0,0,0,1.521-5.488,10.655,10.655,0,0,0-13.4-10.285,11.311,11.311,0,0,1,1.084,1.475,1.008,1.008,0,1,1-1.714,1.06c-2.086-3.372-5.724-4.876-11.8-4.876-8.4,0-12.311,7.253-12.311,12.155a6.008,6.008,0,0,0,.786,2.79C9575.024,834.447,9575.531,836.123,9573.563,839.229Z" transform="translate(-9570.845 -815.549)" fill="#1e243a"/>
            </g>
          </g>
          <g id="Grupo_14748" data-name="Grupo 14748" transform="translate(29.834 68.376)">
            <path id="Trazado_25195" data-name="Trazado 25195" d="M9618.437,1185.9a45.3,45.3,0,0,1-11.295-1.256c-3.821-1.034-5.759-2.593-5.759-4.635a1.008,1.008,0,0,1,2.016,0c0,1.864,5.749,3.876,15.038,3.876s15.037-2.012,15.037-3.876a1.008,1.008,0,0,1,2.016,0c0,2.042-1.937,3.6-5.758,4.635A45.3,45.3,0,0,1,9618.437,1185.9Z" transform="translate(-9601.383 -1179)" fill="#1e243a"/>
          </g>
        </g>
        <g id="Grupo_14750" data-name="Grupo 14750" transform="translate(193.727 3.737)">
          <path id="Trazado_25196" data-name="Trazado 25196" d="M10198.717,504.7h-.027a1.009,1.009,0,0,1-.632-.222c-1.729-1.39-3.394-2.68-5-3.928-7.178-5.563-12.847-9.956-13.965-15.546a13.556,13.556,0,0,1,2.2-10.8,11.582,11.582,0,0,1,8.535-4.556c3.078-.272,6.325,1.3,8.879,4.238,2.558-2.95,5.806-4.525,8.878-4.253h0a11.583,11.583,0,0,1,8.534,4.557,13.576,13.576,0,0,1,2.2,10.812c-1.12,5.592-6.794,9.989-13.976,15.557-1.607,1.246-3.27,2.534-5,3.921A1.007,1.007,0,0,1,10198.717,504.7Zm-8.2-33.069c-.174,0-.346.008-.519.023a9.624,9.624,0,0,0-7.1,3.756,11.7,11.7,0,0,0-1.838,9.2c.972,4.852,6.378,9.043,13.225,14.348,1.425,1.1,2.893,2.242,4.414,3.456,1.519-1.211,2.982-2.346,4.405-3.449,6.851-5.31,12.262-9.5,13.234-14.36a11.718,11.718,0,0,0-1.842-9.209,9.616,9.616,0,0,0-7.1-3.757c-2.7-.238-5.641,1.42-7.877,4.438a1.01,1.01,0,0,1-.811.408h-.027a1,1,0,0,1-.81-.408C10195.791,473.26,10193.079,471.631,10190.521,471.631Z" transform="translate(-10178.792 -469.602)" fill="#1e243a"/>
        </g>
        <g id="Grupo_14751" data-name="Grupo 14751" transform="translate(193.809 153.426)">
          <path id="Trazado_25197" data-name="Trazado 25197" d="M10219.127,1482.773a1.01,1.01,0,0,1-.469-.116l-14.352-7.545-14.351,7.545a1.007,1.007,0,0,1-1.462-1.062l2.74-15.98-11.609-11.317a1.008,1.008,0,0,1,.558-1.719l16.045-2.332,7.176-14.539a1.008,1.008,0,0,1,1.808,0l7.175,14.539,16.046,2.332a1.007,1.007,0,0,1,.558,1.719l-11.609,11.317,2.74,15.98a1.008,1.008,0,0,1-.993,1.178Zm-14.82-9.807a1,1,0,0,1,.469.116l13.014,6.841-2.486-14.49a1.013,1.013,0,0,1,.291-.892l10.527-10.262-14.549-2.114a1.009,1.009,0,0,1-.759-.551l-6.507-13.183-6.506,13.183a1.006,1.006,0,0,1-.759.551l-14.549,2.114,10.528,10.262a1.007,1.007,0,0,1,.289.892l-2.485,14.49,13.013-6.841A1.01,1.01,0,0,1,10204.307,1472.966Z" transform="translate(-10179.32 -1435.146)" fill="#1e243a"/>
        </g>
        <g id="Grupo_14758" data-name="Grupo 14758" transform="translate(0.452)">
          <g id="Grupo_14752" data-name="Grupo 14752" transform="translate(18.787)">
            <path id="Trazado_25198" data-name="Trazado 25198" d="M9081.882,487.481a1.082,1.082,0,0,1-.767-.318l-8.146-8.146H9060.51a7.23,7.23,0,0,1-7.222-7.222V452.722a7.23,7.23,0,0,1,7.222-7.222h35.973a7.23,7.23,0,0,1,7.222,7.222V471.8a7.23,7.23,0,0,1-7.222,7.222h-7.874l-5.851,8.018a1.085,1.085,0,0,1-.792.442C9081.938,487.48,9081.909,487.481,9081.882,487.481ZM9060.51,447.67a5.057,5.057,0,0,0-5.051,5.051V471.8a5.057,5.057,0,0,0,5.051,5.051h12.908a1.086,1.086,0,0,1,.767.318l7.567,7.567,5.429-7.439a1.087,1.087,0,0,1,.877-.446h8.425a5.057,5.057,0,0,0,5.052-5.051V452.722a5.057,5.057,0,0,0-5.052-5.051Z" transform="translate(-9053.288 -445.5)" fill="#1e243a"/>
          </g>
          <g id="Grupo_14753" data-name="Grupo 14753" transform="translate(0 11.25)">
            <path id="Trazado_25199" data-name="Trazado 25199" d="M8966.6,568.592a1.087,1.087,0,0,1-.768-.318l-9.963-9.962h-15.229a8.548,8.548,0,0,1-8.538-8.539V526.607a8.548,8.548,0,0,1,8.538-8.539h10.269a1.085,1.085,0,0,1,0,2.17h-10.269a6.376,6.376,0,0,0-6.368,6.368v23.167a6.376,6.376,0,0,0,6.368,6.368h15.679a1.086,1.086,0,0,1,.768.318l9.384,9.383,6.754-9.255a1.085,1.085,0,0,1,.876-.446h10.232a6.376,6.376,0,0,0,6.368-6.368v-9.082a1.085,1.085,0,0,1,2.171,0v9.082a8.548,8.548,0,0,1-8.539,8.539h-9.682l-7.176,9.834a1.083,1.083,0,0,1-.792.442C8966.659,568.591,8966.631,568.592,8966.6,568.592Z" transform="translate(-8932.105 -518.068)" fill="#1e243a"/>
          </g>
          <g id="Grupo_14757" data-name="Grupo 14757" transform="translate(25.847 11.918)">
            <g id="Grupo_14754" data-name="Grupo 14754">
              <path id="Trazado_25200" data-name="Trazado 25200" d="M9103.365,531.454a4.538,4.538,0,1,1,4.537-4.538A4.544,4.544,0,0,1,9103.365,531.454Zm0-6.906a2.368,2.368,0,1,0,2.366,2.368A2.371,2.371,0,0,0,9103.365,524.548Z" transform="translate(-9098.826 -522.378)" fill="#1e243a"/>
            </g>
            <g id="Grupo_14755" data-name="Grupo 14755" transform="translate(13.61)">
              <path id="Trazado_25201" data-name="Trazado 25201" d="M9191.155,531.454a4.538,4.538,0,1,1,4.539-4.538A4.543,4.543,0,0,1,9191.155,531.454Zm0-6.906a2.368,2.368,0,1,0,2.368,2.368A2.37,2.37,0,0,0,9191.155,524.548Z" transform="translate(-9186.618 -522.378)" fill="#1e243a"/>
            </g>
            <g id="Grupo_14756" data-name="Grupo 14756" transform="translate(27.221)">
              <path id="Trazado_25202" data-name="Trazado 25202" d="M9278.948,531.454a4.538,4.538,0,1,1,4.539-4.538A4.543,4.543,0,0,1,9278.948,531.454Zm0-6.906a2.368,2.368,0,1,0,2.368,2.368A2.37,2.37,0,0,0,9278.948,524.548Z" transform="translate(-9274.411 -522.378)" fill="#1e243a"/>
            </g>
          </g>
        </g>
        <g id="Grupo_14764" data-name="Grupo 14764" transform="translate(0 135.342)">
          <g id="Grupo_14762" data-name="Grupo 14762" transform="translate(17.568 14.126)">
            <g id="Grupo_14761" data-name="Grupo 14761">
              <g id="Grupo_14759" data-name="Grupo 14759" transform="translate(3.433)">
                <path id="Trazado_25203" data-name="Trazado 25203" d="M9075.976,1432.266a11.323,11.323,0,1,1,11.323-11.323A11.336,11.336,0,0,1,9075.976,1432.266Zm0-20.631a9.308,9.308,0,1,0,9.308,9.308A9.318,9.318,0,0,0,9075.976,1411.634Z" transform="translate(-9064.652 -1409.619)" fill="#1e243a"/>
              </g>
              <g id="Grupo_14760" data-name="Grupo 14760" transform="translate(0 20.632)">
                <path id="Trazado_25204" data-name="Trazado 25204" d="M9071.016,1558.463a1.008,1.008,0,0,1-1.008-1.008,12.741,12.741,0,1,0-25.481,0,1.008,1.008,0,0,1-2.016,0,14.756,14.756,0,0,1,29.513,0A1.008,1.008,0,0,1,9071.016,1558.463Z" transform="translate(-9042.511 -1542.699)" fill="#1e243a"/>
              </g>
            </g>
          </g>
          <g id="Grupo_14763" data-name="Grupo 14763">
            <path id="Trazado_25205" data-name="Trazado 25205" d="M8961.517,1383.148a32.324,32.324,0,1,1,32.323-32.324A32.36,32.36,0,0,1,8961.517,1383.148Zm0-62.633a30.309,30.309,0,1,0,30.309,30.308A30.342,30.342,0,0,0,8961.517,1320.515Z" transform="translate(-8929.192 -1318.5)" fill="#1e243a"/>
          </g>
        </g>
        <g id="Grupo_14770" data-name="Grupo 14770" transform="translate(70.956 143.171)">
          <g id="Grupo_14765" data-name="Grupo 14765" transform="translate(40.153)">
            <path id="Trazado_25206" data-name="Trazado 25206" d="M9646.967,1373.186a1.085,1.085,0,0,1-1.085-1.085v-2.015a1.085,1.085,0,0,1,2.171,0v2.015A1.086,1.086,0,0,1,9646.967,1373.186Z" transform="translate(-9645.882 -1369)" fill="#1e243a"/>
          </g>
          <g id="Grupo_14766" data-name="Grupo 14766" transform="translate(40.153 7.286)">
            <path id="Trazado_25207" data-name="Trazado 25207" d="M9646.967,1431.348a1.085,1.085,0,0,1-1.085-1.085v-3.876a1.085,1.085,0,0,1,2.171,0v3.876A1.086,1.086,0,0,1,9646.967,1431.348Zm0-9.3a1.085,1.085,0,0,1-1.085-1.085v-3.876a1.085,1.085,0,0,1,2.171,0v3.876A1.086,1.086,0,0,1,9646.967,1422.046Z" transform="translate(-9645.882 -1416)" fill="#1e243a"/>
          </g>
          <g id="Grupo_14767" data-name="Grupo 14767" transform="translate(38.138 25.89)">
            <path id="Trazado_25208" data-name="Trazado 25208" d="M9635.982,1540.031h-2.015a1.085,1.085,0,0,1,0-2.17h.931v-.775a1.085,1.085,0,1,1,2.17,0v1.86A1.085,1.085,0,0,1,9635.982,1540.031Z" transform="translate(-9632.883 -1536)" fill="#1e243a"/>
          </g>
          <g id="Grupo_14768" data-name="Grupo 14768" transform="translate(7.907 27.751)">
            <path id="Trazado_25209" data-name="Trazado 25209" d="M9463.308,1550.17h-4.185a1.085,1.085,0,1,1,0-2.17h4.185a1.085,1.085,0,0,1,0,2.17Zm-10.076,0h-4.186a1.085,1.085,0,1,1,0-2.17h4.186a1.085,1.085,0,0,1,0,2.17Zm-10.078,0h-4.186a1.085,1.085,0,0,1,0-2.17h4.186a1.085,1.085,0,1,1,0,2.17Z" transform="translate(-9437.883 -1548)" fill="#1e243a"/>
          </g>
          <g id="Grupo_14769" data-name="Grupo 14769" transform="translate(0 27.751)">
            <path id="Trazado_25210" data-name="Trazado 25210" d="M9389.828,1550.17h-1.859a1.085,1.085,0,1,1,0-2.17h1.859a1.085,1.085,0,0,1,0,2.17Z" transform="translate(-9386.883 -1548)" fill="#1e243a"/>
          </g>
        </g>
        <g id="Grupo_14776" data-name="Grupo 14776" transform="translate(128.783 143.171)">
          <g id="Grupo_14771" data-name="Grupo 14771">
            <path id="Trazado_25211" data-name="Trazado 25211" d="M9760.967,1373.186a1.085,1.085,0,0,1-1.085-1.085v-2.015a1.085,1.085,0,0,1,2.171,0v2.015A1.086,1.086,0,0,1,9760.967,1373.186Z" transform="translate(-9759.882 -1369)" fill="#1e243a"/>
          </g>
          <g id="Grupo_14772" data-name="Grupo 14772" transform="translate(0 7.286)">
            <path id="Trazado_25212" data-name="Trazado 25212" d="M9760.967,1431.348a1.086,1.086,0,0,1-1.085-1.085v-3.876a1.085,1.085,0,0,1,2.171,0v3.876A1.086,1.086,0,0,1,9760.967,1431.348Zm0-9.3a1.085,1.085,0,0,1-1.085-1.085v-3.876a1.085,1.085,0,0,1,2.171,0v3.876A1.086,1.086,0,0,1,9760.967,1422.046Z" transform="translate(-9759.882 -1416)" fill="#1e243a"/>
          </g>
          <g id="Grupo_14773" data-name="Grupo 14773" transform="translate(0 25.89)">
            <path id="Trazado_25213" data-name="Trazado 25213" d="M9762.828,1540.031h-1.861a1.085,1.085,0,0,1-1.085-1.085v-1.86a1.085,1.085,0,0,1,2.171,0v.775h.775a1.085,1.085,0,0,1,0,2.17Z" transform="translate(-9759.882 -1536)" fill="#1e243a"/>
          </g>
          <g id="Grupo_14774" data-name="Grupo 14774" transform="translate(7.597 27.751)">
            <path id="Trazado_25214" data-name="Trazado 25214" d="M9852.446,1550.17h-4.031a1.085,1.085,0,0,1,0-2.17h4.031a1.085,1.085,0,0,1,0,2.17Zm-9.611,0H9838.8a1.085,1.085,0,1,1,0-2.17h4.031a1.085,1.085,0,0,1,0,2.17Zm-9.612,0h-4.031a1.085,1.085,0,0,1,0-2.17h4.031a1.085,1.085,0,0,1,0,2.17Zm-9.612,0h-4.031a1.085,1.085,0,0,1,0-2.17h4.031a1.085,1.085,0,0,1,0,2.17Zm-9.612,0h-4.03a1.085,1.085,0,0,1,0-2.17H9814a1.085,1.085,0,1,1,0,2.17Z" transform="translate(-9808.883 -1548)" fill="#1e243a"/>
          </g>
          <g id="Grupo_14775" data-name="Grupo 14775" transform="translate(55.811 27.751)">
            <path id="Trazado_25215" data-name="Trazado 25215" d="M10122.982,1550.17h-2.015a1.085,1.085,0,0,1,0-2.17h2.015a1.085,1.085,0,1,1,0,2.17Z" transform="translate(-10119.883 -1548)" fill="#1e243a"/>
          </g>
        </g>
        <g id="Grupo_14782" data-name="Grupo 14782" transform="translate(72.972 15.581)">
          <g id="Grupo_14777" data-name="Grupo 14777" transform="translate(37.672 21.859)">
            <path id="Trazado_25216" data-name="Trazado 25216" d="M9643.967,691.031a1.085,1.085,0,0,1-1.085-1.085v-1.86a1.085,1.085,0,0,1,2.171,0v1.86A1.086,1.086,0,0,1,9643.967,691.031Z" transform="translate(-9642.882 -687)" fill="#1e243a"/>
          </g>
          <g id="Grupo_14778" data-name="Grupo 14778" transform="translate(37.672 6.356)">
            <path id="Trazado_25217" data-name="Trazado 25217" d="M9643.967,600.178a1.085,1.085,0,0,1-1.085-1.085v-3.256a1.085,1.085,0,0,1,2.171,0v3.256A1.086,1.086,0,0,1,9643.967,600.178Zm0-7.752a1.085,1.085,0,0,1-1.085-1.085v-3.256a1.085,1.085,0,0,1,2.171,0v3.256A1.086,1.086,0,0,1,9643.967,592.426Z" transform="translate(-9642.882 -587)" fill="#1e243a"/>
          </g>
          <g id="Grupo_14779" data-name="Grupo 14779" transform="translate(35.657)">
            <path id="Trazado_25218" data-name="Trazado 25218" d="M9632.982,550.186a1.085,1.085,0,0,1-1.084-1.085v-.93h-.93a1.085,1.085,0,1,1,0-2.17h2.015a1.085,1.085,0,0,1,1.085,1.085V549.1A1.086,1.086,0,0,1,9632.982,550.186Z" transform="translate(-9629.883 -546)" fill="#1e243a"/>
          </g>
          <g id="Grupo_14780" data-name="Grupo 14780" transform="translate(7.752)">
            <path id="Trazado_25219" data-name="Trazado 25219" d="M9473.447,548.17h-3.876a1.085,1.085,0,0,1,0-2.17h3.876a1.085,1.085,0,0,1,0,2.17Zm-9.3,0h-3.875a1.085,1.085,0,0,1,0-2.17h3.875a1.085,1.085,0,0,1,0,2.17Zm-9.3,0h-3.875a1.085,1.085,0,1,1,0-2.17h3.875a1.085,1.085,0,0,1,0,2.17Z" transform="translate(-9449.883 -546)" fill="#1e243a"/>
          </g>
          <g id="Grupo_14781" data-name="Grupo 14781">
            <path id="Trazado_25220" data-name="Trazado 25220" d="M9402.829,548.17h-1.86a1.085,1.085,0,1,1,0-2.17h1.86a1.085,1.085,0,0,1,0,2.17Z" transform="translate(-9399.883 -546)" fill="#1e243a"/>
          </g>
        </g>
        <g id="Grupo_14788" data-name="Grupo 14788" transform="translate(129.558 15.736)">
          <g id="Grupo_14783" data-name="Grupo 14783" transform="translate(0 22.169)">
            <path id="Trazado_25221" data-name="Trazado 25221" d="M9765.967,694.031a1.085,1.085,0,0,1-1.085-1.085v-1.86a1.085,1.085,0,1,1,2.17,0v1.86A1.085,1.085,0,0,1,9765.967,694.031Z" transform="translate(-9764.882 -690)" fill="#1e243a"/>
          </g>
          <g id="Grupo_14784" data-name="Grupo 14784" transform="translate(0 6.511)">
            <path id="Trazado_25222" data-name="Trazado 25222" d="M9765.967,602.178a1.086,1.086,0,0,1-1.085-1.085v-3.256a1.085,1.085,0,1,1,2.17,0v3.256A1.085,1.085,0,0,1,9765.967,602.178Zm0-7.752a1.085,1.085,0,0,1-1.085-1.085v-3.256a1.085,1.085,0,1,1,2.17,0v3.256A1.085,1.085,0,0,1,9765.967,594.426Z" transform="translate(-9764.882 -589)" fill="#1e243a"/>
          </g>
          <g id="Grupo_14785" data-name="Grupo 14785">
            <path id="Trazado_25223" data-name="Trazado 25223" d="M9765.967,551.186a1.085,1.085,0,0,1-1.085-1.085v-2.015a1.085,1.085,0,0,1,1.085-1.085h1.86a1.085,1.085,0,1,1,0,2.17h-.775v.93A1.085,1.085,0,0,1,9765.967,551.186Z" transform="translate(-9764.882 -547)" fill="#1e243a"/>
          </g>
          <g id="Grupo_14786" data-name="Grupo 14786" transform="translate(7.442)">
            <path id="Trazado_25224" data-name="Trazado 25224" d="M9855.051,549.17h-3.876a1.085,1.085,0,0,1,0-2.17h3.876a1.085,1.085,0,0,1,0,2.17Zm-9.3,0h-3.876a1.085,1.085,0,0,1,0-2.17h3.876a1.085,1.085,0,0,1,0,2.17Zm-9.3,0h-3.876a1.085,1.085,0,1,1,0-2.17h3.876a1.085,1.085,0,0,1,0,2.17Zm-9.3,0h-3.875a1.085,1.085,0,1,1,0-2.17h3.875a1.085,1.085,0,0,1,0,2.17Zm-9.3,0h-3.875a1.085,1.085,0,0,1,0-2.17h3.875a1.085,1.085,0,0,1,0,2.17Z" transform="translate(-9812.883 -547)" fill="#1e243a"/>
          </g>
          <g id="Grupo_14787" data-name="Grupo 14787" transform="translate(53.951)">
            <path id="Trazado_25225" data-name="Trazado 25225" d="M10115.982,549.17h-2.016a1.085,1.085,0,0,1,0-2.17h2.016a1.085,1.085,0,0,1,0,2.17Z" transform="translate(-10112.882 -547)" fill="#1e243a"/>
          </g>
        </g>
        <g id="Grupo_14791" data-name="Grupo 14791" transform="translate(181.648 95.732)">
          <g id="Grupo_14789" data-name="Grupo 14789" transform="translate(3.411)">
            <path id="Trazado_25226" data-name="Trazado 25226" d="M10123.967,1072.147a1.085,1.085,0,0,1-1.085-1.085v-6.976a1.085,1.085,0,0,1,2.171,0v6.976A1.086,1.086,0,0,1,10123.967,1072.147Z" transform="translate(-10122.882 -1063)" fill="#1e243a"/>
          </g>
          <g id="Grupo_14790" data-name="Grupo 14790" transform="translate(0 3.566)">
            <path id="Trazado_25227" data-name="Trazado 25227" d="M10108.944,1088.17h-6.976a1.085,1.085,0,1,1,0-2.17h6.976a1.085,1.085,0,1,1,0,2.17Z" transform="translate(-10100.883 -1086)" fill="#1e243a"/>
          </g>
        </g>
        <g id="Grupo_14794" data-name="Grupo 14794" transform="translate(162.425 32.014)">
          <g id="Grupo_14792" data-name="Grupo 14792" transform="translate(3.411)">
            <path id="Trazado_25228" data-name="Trazado 25228" d="M9999.967,661.147a1.085,1.085,0,0,1-1.085-1.085v-6.976a1.085,1.085,0,1,1,2.17,0v6.976A1.085,1.085,0,0,1,9999.967,661.147Z" transform="translate(-9998.882 -652)" fill="#1e243a"/>
          </g>
          <g id="Grupo_14793" data-name="Grupo 14793" transform="translate(0 3.566)">
            <path id="Trazado_25229" data-name="Trazado 25229" d="M9984.943,677.17h-6.976a1.085,1.085,0,0,1,0-2.17h6.976a1.085,1.085,0,1,1,0,2.17Z" transform="translate(-9976.883 -675)" fill="#1e243a"/>
          </g>
        </g>
        <g id="Grupo_14797" data-name="Grupo 14797" transform="translate(75.762 38.37)">
          <g id="Grupo_14795" data-name="Grupo 14795" transform="translate(3.411)">
            <path id="Trazado_25230" data-name="Trazado 25230" d="M9440.967,702.147a1.085,1.085,0,0,1-1.085-1.085v-6.976a1.085,1.085,0,0,1,2.171,0v6.976A1.086,1.086,0,0,1,9440.967,702.147Z" transform="translate(-9439.882 -693)" fill="#1e243a"/>
          </g>
          <g id="Grupo_14796" data-name="Grupo 14796" transform="translate(0 3.566)">
            <path id="Trazado_25231" data-name="Trazado 25231" d="M9425.944,718.17h-6.977a1.085,1.085,0,0,1,0-2.17h6.977a1.085,1.085,0,0,1,0,2.17Z" transform="translate(-9417.883 -716)" fill="#1e243a"/>
          </g>
        </g>
        <g id="Grupo_14800" data-name="Grupo 14800" transform="translate(8.634 71.702)">
          <g id="Grupo_14798" data-name="Grupo 14798" transform="translate(3.411)">
            <path id="Trazado_25232" data-name="Trazado 25232" d="M9007.967,917.147a1.085,1.085,0,0,1-1.085-1.085v-6.976a1.085,1.085,0,0,1,2.171,0v6.976A1.086,1.086,0,0,1,9007.967,917.147Z" transform="translate(-9006.882 -908)" fill="#1e243a"/>
          </g>
          <g id="Grupo_14799" data-name="Grupo 14799" transform="translate(0 3.566)">
            <path id="Trazado_25233" data-name="Trazado 25233" d="M8992.944,933.17h-6.977a1.085,1.085,0,0,1,0-2.17h6.977a1.085,1.085,0,0,1,0,2.17Z" transform="translate(-8984.883 -931)" fill="#1e243a"/>
          </g>
        </g>
        <g id="Grupo_14803" data-name="Grupo 14803" transform="translate(76.537 141.311)">
          <g id="Grupo_14801" data-name="Grupo 14801" transform="translate(3.411)">
            <path id="Trazado_25234" data-name="Trazado 25234" d="M9445.967,1366.147a1.085,1.085,0,0,1-1.085-1.085v-6.976a1.085,1.085,0,0,1,2.171,0v6.976A1.086,1.086,0,0,1,9445.967,1366.147Z" transform="translate(-9444.882 -1357)" fill="#1e243a"/>
          </g>
          <g id="Grupo_14802" data-name="Grupo 14802" transform="translate(0 3.566)">
            <path id="Trazado_25235" data-name="Trazado 25235" d="M9430.944,1382.17h-6.977a1.085,1.085,0,0,1,0-2.17h6.977a1.085,1.085,0,1,1,0,2.17Z" transform="translate(-9422.883 -1380)" fill="#1e243a"/>
          </g>
        </g>
        <g id="Grupo_14806" data-name="Grupo 14806" transform="translate(115.605 190.921)">
          <g id="Grupo_14804" data-name="Grupo 14804" transform="translate(3.411)">
            <path id="Trazado_25236" data-name="Trazado 25236" d="M9697.967,1686.147a1.085,1.085,0,0,1-1.085-1.085v-6.976a1.085,1.085,0,0,1,2.171,0v6.976A1.086,1.086,0,0,1,9697.967,1686.147Z" transform="translate(-9696.882 -1677)" fill="#1e243a"/>
          </g>
          <g id="Grupo_14805" data-name="Grupo 14805" transform="translate(0 3.566)">
            <path id="Trazado_25237" data-name="Trazado 25237" d="M9682.944,1702.17h-6.977a1.085,1.085,0,0,1,0-2.17h6.977a1.085,1.085,0,1,1,0,2.17Z" transform="translate(-9674.883 -1700)" fill="#1e243a"/>
          </g>
        </g>
        <g id="Grupo_14807" data-name="Grupo 14807" transform="translate(212.969 60.623)">
          <path id="Trazado_25238" data-name="Trazado 25238" d="M10310.133,852.221a1.551,1.551,0,0,1,1.512-1.589h0a1.551,1.551,0,0,1,1.587,1.513h0a1.549,1.549,0,0,1-1.512,1.588h-.038A1.55,1.55,0,0,1,10310.133,852.221Zm-4.592-.891a1.552,1.552,0,0,1-.041-2.192h0a1.551,1.551,0,0,1,2.192-.04h0a1.55,1.55,0,0,1,.04,2.192h0a1.542,1.542,0,0,1-1.115.474h0A1.545,1.545,0,0,1,10305.541,851.33Zm10.04-.237a1.55,1.55,0,0,1-.068-2.192h0a1.55,1.55,0,0,1,2.19-.068h0a1.55,1.55,0,0,1,.069,2.192h0a1.55,1.55,0,0,1-1.13.488h0A1.545,1.545,0,0,1,10315.581,851.093Zm-12.673-5.848a1.552,1.552,0,0,1,1.532-1.569h0a1.55,1.55,0,0,1,1.568,1.532h0a1.55,1.55,0,0,1-1.53,1.569h-.02A1.551,1.551,0,0,1,10302.908,845.245Zm14.091-.315a1.549,1.549,0,0,1,1.491-1.606h0a1.549,1.549,0,0,1,1.606,1.491h0a1.551,1.551,0,0,1-1.492,1.608h-.059A1.548,1.548,0,0,1,10317,844.93Zm-11.6-3.642a1.551,1.551,0,0,1-.012-2.192h0a1.55,1.55,0,0,1,2.192-.014h0a1.552,1.552,0,0,1,.014,2.194h0a1.549,1.549,0,0,1-1.1.46h0A1.547,1.547,0,0,1,10305.4,841.289Zm9.817-.2h0a1.551,1.551,0,0,1-.1-2.191h0a1.551,1.551,0,0,1,2.19-.095h0a1.55,1.55,0,0,1,.1,2.191h0a1.547,1.547,0,0,1-1.145.5h0A1.543,1.543,0,0,1,10315.218,841.084Zm-5.264-2.994a1.551,1.551,0,0,1,1.55-1.55h0a1.55,1.55,0,0,1,1.551,1.55h0a1.549,1.549,0,0,1-1.551,1.55h0A1.55,1.55,0,0,1,10309.954,838.09Z" transform="translate(-10302.908 -836.54)" fill="#1e243a"/>
        </g>
        <g id="Grupo_14808" data-name="Grupo 14808" transform="translate(47.205 70.237)">
          <path id="Trazado_25239" data-name="Trazado 25239" d="M9240.9,914.23a1.552,1.552,0,0,1,1.513-1.589h0a1.554,1.554,0,0,1,1.589,1.513h0a1.553,1.553,0,0,1-1.514,1.588h-.038A1.55,1.55,0,0,1,9240.9,914.23Zm-4.59-.892a1.55,1.55,0,0,1-.042-2.192h0a1.553,1.553,0,0,1,2.194-.04h0a1.549,1.549,0,0,1,.041,2.192h0a1.546,1.546,0,0,1-1.117.474h0A1.544,1.544,0,0,1,9236.311,913.338Zm10.04-.237a1.55,1.55,0,0,1-.068-2.192h0a1.55,1.55,0,0,1,2.19-.068h0a1.551,1.551,0,0,1,.068,2.192h0a1.546,1.546,0,0,1-1.13.488h0A1.544,1.544,0,0,1,9246.351,913.1Zm-12.672-5.848a1.549,1.549,0,0,1,1.53-1.569h0a1.549,1.549,0,0,1,1.569,1.532h0a1.551,1.551,0,0,1-1.53,1.569h-.021A1.55,1.55,0,0,1,9233.679,907.253Zm14.089-.315h0a1.55,1.55,0,0,1,1.493-1.606h0a1.552,1.552,0,0,1,1.606,1.493h0a1.553,1.553,0,0,1-1.492,1.606h-.059A1.55,1.55,0,0,1,9247.768,906.939Zm-11.6-3.642a1.549,1.549,0,0,1-.013-2.192h0a1.549,1.549,0,0,1,2.191-.014h0a1.548,1.548,0,0,1,.015,2.194h0v0h0a1.538,1.538,0,0,1-1.1.462h0A1.545,1.545,0,0,1,9236.171,903.3Zm9.816-.2a1.55,1.55,0,0,1-.1-2.191h0a1.551,1.551,0,0,1,2.19-.095h0a1.552,1.552,0,0,1,.1,2.191h0a1.551,1.551,0,0,1-1.144.5h0A1.545,1.545,0,0,1,9245.987,903.092Zm-5.263-2.994a1.549,1.549,0,0,1,1.55-1.549h0a1.549,1.549,0,0,1,1.551,1.549h0a1.55,1.55,0,0,1-1.551,1.55h0A1.55,1.55,0,0,1,9240.725,900.1Z" transform="translate(-9233.679 -898.55)" fill="#1e243a"/>
        </g>
        <g id="Grupo_14809" data-name="Grupo 14809" transform="translate(4.68 106.125)">
          <path id="Trazado_25240" data-name="Trazado 25240" d="M8966.6,1145.721a1.554,1.554,0,0,1,1.514-1.589h0a1.553,1.553,0,0,1,1.588,1.513h0a1.552,1.552,0,0,1-1.512,1.587h-.039A1.553,1.553,0,0,1,8966.6,1145.721Zm-4.591-.891a1.551,1.551,0,0,1-.04-2.192h0a1.551,1.551,0,0,1,2.191-.04h0a1.552,1.552,0,0,1,.041,2.192h0a1.542,1.542,0,0,1-1.116.474h0A1.547,1.547,0,0,1,8962.011,1144.83Zm10.04-.237a1.552,1.552,0,0,1-.068-2.192h0a1.551,1.551,0,0,1,2.191-.068h0a1.551,1.551,0,0,1,.068,2.192h0a1.546,1.546,0,0,1-1.131.489h0A1.55,1.55,0,0,1,8972.051,1144.593Zm-12.672-5.848h0a1.55,1.55,0,0,1,1.531-1.569h0a1.553,1.553,0,0,1,1.57,1.532h0a1.552,1.552,0,0,1-1.533,1.569h-.018A1.551,1.551,0,0,1,8959.379,1138.745Zm14.09-.315a1.548,1.548,0,0,1,1.49-1.606h0a1.549,1.549,0,0,1,1.607,1.491h0a1.55,1.55,0,0,1-1.49,1.606h0c-.02,0-.041,0-.059,0h0A1.551,1.551,0,0,1,8973.469,1138.43Zm-11.6-3.642a1.55,1.55,0,0,1-.012-2.192h0a1.549,1.549,0,0,1,2.191-.014h0a1.553,1.553,0,0,1,.014,2.194h0a1.54,1.54,0,0,1-1.1.462h0A1.547,1.547,0,0,1,8961.871,1134.789Zm9.817-.2h0a1.553,1.553,0,0,1-.1-2.191h0a1.551,1.551,0,0,1,2.19-.095h0a1.551,1.551,0,0,1,.1,2.191h0a1.552,1.552,0,0,1-1.145.5h0A1.545,1.545,0,0,1,8971.688,1134.584Zm-5.265-2.994a1.552,1.552,0,0,1,1.551-1.55h0a1.551,1.551,0,0,1,1.551,1.55h0a1.55,1.55,0,0,1-1.551,1.55h0A1.551,1.551,0,0,1,8966.424,1131.59Z" transform="translate(-8959.379 -1130.04)" fill="#1e243a"/>
        </g>
        <g id="Grupo_14810" data-name="Grupo 14810" transform="translate(193.188 134.799)">
          <path id="Trazado_25241" data-name="Trazado 25241" d="M10182.543,1330.68a1.551,1.551,0,0,1,1.512-1.588h0a1.548,1.548,0,0,1,1.587,1.512h0a1.55,1.55,0,0,1-1.511,1.589h-.038A1.55,1.55,0,0,1,10182.543,1330.68Zm-4.592-.89h0a1.551,1.551,0,0,1-.041-2.192h0a1.549,1.549,0,0,1,2.191-.042h0a1.549,1.549,0,0,1,.043,2.192h0a1.55,1.55,0,0,1-1.118.476h0A1.549,1.549,0,0,1,10177.951,1329.79Zm10.04-.239a1.549,1.549,0,0,1-.068-2.19h0a1.551,1.551,0,0,1,2.192-.068h0a1.551,1.551,0,0,1,.068,2.191h0a1.548,1.548,0,0,1-1.131.49h0A1.541,1.541,0,0,1,10187.991,1329.551Zm-12.673-5.846a1.551,1.551,0,0,1,1.532-1.569h0a1.548,1.548,0,0,1,1.568,1.53h0a1.548,1.548,0,0,1-1.53,1.569h-.02A1.55,1.55,0,0,1,10175.318,1323.7Zm14.092-.315a1.55,1.55,0,0,1,1.491-1.608h0a1.554,1.554,0,0,1,1.607,1.493h0a1.551,1.551,0,0,1-1.493,1.606h0c-.021,0-.039,0-.059,0h0A1.548,1.548,0,0,1,10189.41,1323.39Zm-11.6-3.642a1.55,1.55,0,0,1-.015-2.192h0a1.55,1.55,0,0,1,2.192-.014h0a1.55,1.55,0,0,1,.014,2.192h0a1.547,1.547,0,0,1-1.1.46h0A1.547,1.547,0,0,1,10177.813,1319.749Zm9.814-.2h0a1.553,1.553,0,0,1-.095-2.191h0a1.552,1.552,0,0,1,2.191-.1h0a1.55,1.55,0,0,1,.094,2.191h0a1.546,1.546,0,0,1-1.143.5h0A1.545,1.545,0,0,1,10187.628,1319.544Zm-5.261-2.994a1.55,1.55,0,0,1,1.55-1.55h0a1.551,1.551,0,0,1,1.55,1.55h0a1.55,1.55,0,0,1-1.55,1.55h0A1.55,1.55,0,0,1,10182.367,1316.55Z" transform="translate(-10175.318 -1315)" fill="#1e243a"/>
        </g>
      </g>
    </g>
  </g>
</svg>
