<svg xmlns="http://www.w3.org/2000/svg" width="201" height="201" viewBox="0 0 201 201">
  <g id="Grupo_15891" data-name="Grupo 15891" transform="translate(-860 -3857)">
    <circle id="Elipse_771" data-name="Elipse 771" cx="100.5" cy="100.5" r="100.5" transform="translate(860 3857)" fill="#daf0fd"/>
    <g id="Grupo_15228" data-name="Grupo 15228" transform="translate(-10239.703 3341.356)">
      <g id="Color" transform="translate(11116.216 560.558)">
        <g id="Grupo_15127" data-name="Grupo 15127" transform="translate(137.104 44.76)">
          <path id="Trazado_25572" data-name="Trazado 25572" d="M12347.405,1097.312a5.35,5.35,0,1,0,7.211,2.291A5.351,5.351,0,0,0,12347.405,1097.312Z" transform="translate(-12344.515 -1096.711)" fill="#fcd118"/>
        </g>
        <g id="Grupo_15128" data-name="Grupo 15128" transform="translate(67.326 0)">
          <path id="Trazado_25573" data-name="Trazado 25573" d="M11765.244,713.433c-7.351,3.424-8.686,5.147-20.678-.574v4.971c0,8.459,3.269,11.486,9.964,11.558,9.419.1,13.727,1.484,22.608-1.722C11786.1,724.433,11780.031,706.546,11765.244,713.433Z" transform="translate(-11744.566 -711.868)" fill="#fcd118"/>
        </g>
        <g id="Grupo_15129" data-name="Grupo 15129" transform="translate(99.898 7.304)">
          <path id="Trazado_25574" data-name="Trazado 25574" d="M12028.906,774.67l-4.285,8.494c.091,5.893.786,11.233,3.965,15.267C12031.986,795.75,12038.064,783.457,12028.906,774.67Z" transform="translate(-12024.621 -774.67)" fill="#fcd118"/>
        </g>
        <g id="Grupo_15131" data-name="Grupo 15131" transform="translate(19.773 78.543)">
          <g id="Grupo_15130" data-name="Grupo 15130">
            <path id="Trazado_25575" data-name="Trazado 25575" d="M11379.776,1644.774a4.87,4.87,0,0,0-3.393-1.217,5,5,0,0,0-3.445,1.217,3.883,3.883,0,0,0-1.374,3.031,4.063,4.063,0,0,0,1.374,3.057,5.4,5.4,0,0,0,6.863.026,4.011,4.011,0,0,0,1.322-3.083A3.868,3.868,0,0,0,11379.776,1644.774Z" transform="translate(-11367.393 -1613.738)" fill="#4a91d6"/>
            <path id="Trazado_25576" data-name="Trazado 25576" d="M11353.021,1389.381a10.318,10.318,0,0,0-3.614-1.671,18.015,18.015,0,0,0-4.481-.531,19.8,19.8,0,0,0-4.871.6,16.174,16.174,0,0,0-4.352,1.787v7.8a13.727,13.727,0,0,1,4.119-2.551,11.61,11.61,0,0,1,4.2-.842,4.828,4.828,0,0,1,1.7.285,3.879,3.879,0,0,1,1.3.778,3.336,3.336,0,0,1,.815,1.178,3.84,3.84,0,0,1,.285,1.49,5.256,5.256,0,0,1-.26,1.7,5.488,5.488,0,0,1-.776,1.477,10.925,10.925,0,0,1-1.257,1.425q-.738.713-1.723,1.542a14.919,14.919,0,0,0-1.632,1.567,8.814,8.814,0,0,0-1.166,1.658,7.6,7.6,0,0,0-.7,1.852,9.459,9.459,0,0,0-.233,2.176,9.591,9.591,0,0,0,.143,1.593,7.8,7.8,0,0,0,.4,1.516h6.813a3.709,3.709,0,0,1-.453-1.088,4.982,4.982,0,0,1-.168-1.269,5.2,5.2,0,0,1,.232-1.619,4.98,4.98,0,0,1,.687-1.347,8.973,8.973,0,0,1,1.14-1.282q.687-.647,1.594-1.4,1.346-1.114,2.384-2.163a12.2,12.2,0,0,0,1.735-2.189,9.64,9.64,0,0,0,1.063-2.422,10.532,10.532,0,0,0,.362-2.863,9.625,9.625,0,0,0-.867-4.262A7.871,7.871,0,0,0,11353.021,1389.381Z" transform="translate(-11335.703 -1387.179)" fill="#4a91d6"/>
          </g>
        </g>
        <g id="Grupo_15132" data-name="Grupo 15132" transform="translate(42.22 19.148)">
          <path id="Trazado_25577" data-name="Trazado 25577" d="M11538.954,905.373h13.824V876.5H11528.7C11538.154,884.675,11543.626,893.806,11538.954,905.373Z" transform="translate(-11528.703 -876.5)" fill="#4a91d6"/>
        </g>
        <g id="Grupo_15133" data-name="Grupo 15133" transform="translate(132.853 74.91)">
          <path id="Trazado_25578" data-name="Trazado 25578" d="M12337.429,1368.421l-29.322-12.477-.144,31.917,9.523-6.283,13.192,20,10.418-6.873-13.191-20Z" transform="translate(-12307.963 -1355.944)" fill="#5ed45e"/>
        </g>
        <g id="Grupo_15134" data-name="Grupo 15134" transform="translate(0 8.777)">
          <path id="Trazado_25579" data-name="Trazado 25579" d="M11202.277,824.316a3.759,3.759,0,0,0-4.977-.542l-1.172.837a3.961,3.961,0,0,1-4.412.122c-6.449-4.053-11.078-10.12-13.344-18.8a3.944,3.944,0,0,1,1.531-4.2l1.166-.832a3.757,3.757,0,0,0,1.1-4.883l-3.748-6.749a3.76,3.76,0,0,0-5.471-1.233l-.07.05a17.147,17.147,0,0,0-3.986,23.921l14.021,19.631c5.5,7.707,15.693,8.91,23.4,3.405h0a3.761,3.761,0,0,0,.607-5.574Z" transform="translate(-11165.698 -787.335)" fill="#5ed45e"/>
        </g>
        <g id="Grupo_15135" data-name="Grupo 15135" transform="translate(50.07 85.035)">
          <path id="Trazado_25580" data-name="Trazado 25580" d="M11599.575,1453.468h79.438V1443h-82.81Z" transform="translate(-11596.203 -1443)" fill="#e1e1e5"/>
        </g>
        <g id="Grupo_15136" data-name="Grupo 15136" transform="translate(74.378 95.503)">
          <rect id="Rectángulo_2793" data-name="Rectángulo 2793" width="29.193" height="26.634" fill="#e1e1e5"/>
        </g>
        <g id="Grupo_15137" data-name="Grupo 15137" transform="translate(63.678 122.137)">
          <path id="Trazado_25581" data-name="Trazado 25581" d="M11759.1,1762H11717.9a4.694,4.694,0,0,0-4.693,4.694v3.8h50.593v-3.8A4.693,4.693,0,0,0,11759.1,1762Z" transform="translate(-11713.203 -1762)" fill="#e1e1e5"/>
        </g>
      </g>
      <g id="ONLINE" transform="translate(11109.703 540.644)">
        <g id="Grupo_15138" data-name="Grupo 15138" transform="translate(162.664 0)">
          <path id="Trazado_25582" data-name="Trazado 25582" d="M12509.059,598.018a1.163,1.163,0,0,0-.711,1.483h0a1.163,1.163,0,1,0,.711-1.482Z" transform="translate(-12508.281 -591.287)" fill="#1e243a"/>
          <path id="Trazado_25583" data-name="Trazado 25583" d="M12579.926,554.93h0a1.163,1.163,0,1,0,1.646-1.645.22.22,0,0,1-.021-.021,1.163,1.163,0,0,0-1.645,1.645A.212.212,0,0,0,12579.926,554.93Z" transform="translate(-12571.283 -551.504)" fill="#1e243a"/>
          <path id="Trazado_25584" data-name="Trazado 25584" d="M12514.2,560.843a1.164,1.164,0,1,0,.367,1.6A1.163,1.163,0,0,0,12514.2,560.843Z" transform="translate(-12511.936 -558.337)" fill="#1e243a"/>
          <path id="Trazado_25585" data-name="Trazado 25585" d="M12536.4,624.5a1.163,1.163,0,1,0,.717,1.481A1.162,1.162,0,0,0,12536.4,624.5Z" transform="translate(-12531.76 -614.694)" fill="#1e243a"/>
          <path id="Trazado_25586" data-name="Trazado 25586" d="M12572.667,620.381a1.163,1.163,0,0,0,.622,2.147,1.15,1.15,0,0,0,.618-.179,1.163,1.163,0,1,0-1.24-1.968Z" transform="translate(-12564.699 -610.949)" fill="#1e243a"/>
          <path id="Trazado_25587" data-name="Trazado 25587" d="M12545.174,540.651a1.163,1.163,0,0,0,.131,2.318,1.309,1.309,0,0,0,.134-.007h0a1.163,1.163,0,0,0-.265-2.311Z" transform="translate(-12539.972 -540.644)" fill="#1e243a"/>
          <path id="Trazado_25588" data-name="Trazado 25588" d="M12593.35,588.433a1.163,1.163,0,1,0-.258,2.311,1.273,1.273,0,0,0,.132.008,1.163,1.163,0,0,0,.126-2.319Z" transform="translate(-12582.313 -582.869)" fill="#1e243a"/>
        </g>
        <g id="Grupo_15139" data-name="Grupo 15139" transform="translate(123.004 11.631)">
          <path id="Trazado_25589" data-name="Trazado 25589" d="M12168.064,698.018a1.163,1.163,0,1,0,1.482.712A1.164,1.164,0,0,0,12168.064,698.018Z" transform="translate(-12167.286 -691.287)" fill="#1e243a"/>
          <path id="Trazado_25590" data-name="Trazado 25590" d="M12173.2,660.841a1.164,1.164,0,1,0,.367,1.6A1.163,1.163,0,0,0,12173.2,660.841Z" transform="translate(-12170.937 -658.335)" fill="#1e243a"/>
          <path id="Trazado_25591" data-name="Trazado 25591" d="M12238.922,654.927l0,.006a1.163,1.163,0,0,0,1.654-1.635.228.228,0,0,1-.021-.023,1.163,1.163,0,1,0-1.64,1.65Z" transform="translate(-12230.284 -651.507)" fill="#1e243a"/>
          <path id="Trazado_25592" data-name="Trazado 25592" d="M12195.395,724.5a1.163,1.163,0,1,0-.763,2.2,1.135,1.135,0,0,0,.38.064,1.162,1.162,0,0,0,.383-2.261Z" transform="translate(-12190.76 -714.694)" fill="#1e243a"/>
          <path id="Trazado_25593" data-name="Trazado 25593" d="M12252.35,688.433a1.163,1.163,0,1,0-.259,2.311,1.288,1.288,0,0,0,.133.007,1.163,1.163,0,0,0,.126-2.318Z" transform="translate(-12241.314 -682.869)" fill="#1e243a"/>
          <path id="Trazado_25594" data-name="Trazado 25594" d="M12204.164,640.652a1.163,1.163,0,0,0,.131,2.318,1.307,1.307,0,0,0,.134-.007,1.163,1.163,0,0,0-.265-2.311Z" transform="translate(-12198.964 -640.644)" fill="#1e243a"/>
          <path id="Trazado_25595" data-name="Trazado 25595" d="M12231.666,720.384a1.163,1.163,0,1,0,1.6.363A1.161,1.161,0,0,0,12231.666,720.384Z" transform="translate(-12223.699 -710.951)" fill="#1e243a"/>
        </g>
        <g id="Grupo_15140" data-name="Grupo 15140" transform="translate(60.896 9.305)">
          <path id="Trazado_25596" data-name="Trazado 25596" d="M11639.2,640.843a1.163,1.163,0,1,0,.368,1.6A1.162,1.162,0,0,0,11639.2,640.843Z" transform="translate(-11636.937 -638.337)" fill="#1e243a"/>
          <path id="Trazado_25597" data-name="Trazado 25597" d="M11661.4,704.5a1.163,1.163,0,0,0-.764,2.2,1.163,1.163,0,1,0,.764-2.2Z" transform="translate(-11656.761 -694.694)" fill="#1e243a"/>
          <path id="Trazado_25598" data-name="Trazado 25598" d="M11634.062,678.018a1.163,1.163,0,0,0,.385,2.261,1.175,1.175,0,0,0,.385-.066,1.163,1.163,0,0,0-.77-2.195Z" transform="translate(-11633.282 -671.287)" fill="#1e243a"/>
          <path id="Trazado_25599" data-name="Trazado 25599" d="M11704.925,634.932a1.164,1.164,0,0,0,1.646-1.646.01.01,0,0,1,0,0l-.008-.008a1.164,1.164,0,0,0-1.642,1.65A.032.032,0,0,1,11704.925,634.932Z" transform="translate(-11696.282 -631.506)" fill="#1e243a"/>
          <path id="Trazado_25600" data-name="Trazado 25600" d="M11718.35,668.433a1.163,1.163,0,0,0-.259,2.311.977.977,0,0,0,.13.008,1.163,1.163,0,0,0,.129-2.319Z" transform="translate(-11707.313 -662.869)" fill="#1e243a"/>
          <path id="Trazado_25601" data-name="Trazado 25601" d="M11697.667,700.384a1.163,1.163,0,1,0,1.6.363A1.162,1.162,0,0,0,11697.667,700.384Z" transform="translate(-11689.699 -690.951)" fill="#1e243a"/>
          <path id="Trazado_25602" data-name="Trazado 25602" d="M11670.163,620.652a1.163,1.163,0,0,0,.131,2.318,1.308,1.308,0,0,0,.135-.007,1.163,1.163,0,0,0-.266-2.311Z" transform="translate(-11664.963 -620.644)" fill="#1e243a"/>
        </g>
        <g id="Grupo_15141" data-name="Grupo 15141" transform="translate(30.656 3.489)">
          <path id="Trazado_25603" data-name="Trazado 25603" d="M11374.06,628.018a1.163,1.163,0,1,0,1.483.712A1.163,1.163,0,0,0,11374.06,628.018Z" transform="translate(-11373.281 -621.287)" fill="#1e243a"/>
          <path id="Trazado_25604" data-name="Trazado 25604" d="M11379.2,590.843a1.164,1.164,0,1,0,.367,1.6A1.164,1.164,0,0,0,11379.2,590.843Z" transform="translate(-11376.938 -588.337)" fill="#1e243a"/>
          <path id="Trazado_25605" data-name="Trazado 25605" d="M11444.934,584.942a1.163,1.163,0,0,0,1.636-1.654h0s0,0,0,0l-.009-.008a1.163,1.163,0,1,0-1.641,1.649Z" transform="translate(-11436.281 -581.508)" fill="#1e243a"/>
          <path id="Trazado_25606" data-name="Trazado 25606" d="M11410.163,570.652a1.163,1.163,0,0,0,.132,2.318,1.3,1.3,0,0,0,.134-.007,1.163,1.163,0,0,0-.266-2.311Z" transform="translate(-11404.962 -570.644)" fill="#1e243a"/>
          <path id="Trazado_25607" data-name="Trazado 25607" d="M11401.4,654.5a1.163,1.163,0,1,0-.765,2.2,1.176,1.176,0,0,0,.382.064,1.163,1.163,0,0,0,.383-2.261Z" transform="translate(-11396.76 -644.694)" fill="#1e243a"/>
          <path id="Trazado_25608" data-name="Trazado 25608" d="M11458.351,618.434a1.163,1.163,0,1,0-.259,2.311.991.991,0,0,0,.131.008,1.163,1.163,0,0,0,.128-2.319Z" transform="translate(-11447.314 -612.869)" fill="#1e243a"/>
          <path id="Trazado_25609" data-name="Trazado 25609" d="M11437.666,650.381a1.163,1.163,0,0,0,.622,2.147,1.15,1.15,0,0,0,.619-.179,1.163,1.163,0,1,0-1.241-1.968Z" transform="translate(-11429.699 -640.949)" fill="#1e243a"/>
        </g>
        <g id="Grupo_15142" data-name="Grupo 15142" transform="translate(0.649 86.299)">
          <path id="Trazado_25610" data-name="Trazado 25610" d="M11116.061,1340.018a1.163,1.163,0,1,0,1.482.712A1.162,1.162,0,0,0,11116.061,1340.018Z" transform="translate(-11115.281 -1333.287)" fill="#1e243a"/>
          <path id="Trazado_25611" data-name="Trazado 25611" d="M11121.2,1302.843a1.164,1.164,0,1,0,.367,1.6A1.164,1.164,0,0,0,11121.2,1302.843Z" transform="translate(-11118.937 -1300.337)" fill="#1e243a"/>
          <path id="Trazado_25612" data-name="Trazado 25612" d="M11186.922,1296.926l0,.006h0a1.164,1.164,0,0,0,1.646-1.646h0l0,0-.007-.008a1.163,1.163,0,1,0-1.64,1.65S11186.921,1296.924,11186.922,1296.926Z" transform="translate(-11178.283 -1293.505)" fill="#1e243a"/>
          <path id="Trazado_25613" data-name="Trazado 25613" d="M11179.667,1362.384a1.162,1.162,0,0,0,.622,2.146,1.146,1.146,0,0,0,.618-.179,1.163,1.163,0,1,0-1.24-1.967Z" transform="translate(-11171.699 -1352.951)" fill="#1e243a"/>
          <path id="Trazado_25614" data-name="Trazado 25614" d="M11200.349,1330.433a1.163,1.163,0,0,0-.258,2.311,1.008,1.008,0,0,0,.13.008,1.163,1.163,0,0,0,.128-2.319Z" transform="translate(-11189.313 -1324.869)" fill="#1e243a"/>
          <path id="Trazado_25615" data-name="Trazado 25615" d="M11143.4,1366.5a1.163,1.163,0,0,0-.764,2.2,1.185,1.185,0,0,0,.381.064,1.163,1.163,0,0,0,.383-2.261Z" transform="translate(-11138.761 -1356.694)" fill="#1e243a"/>
          <path id="Trazado_25616" data-name="Trazado 25616" d="M11152.165,1282.651a1.163,1.163,0,0,0,.13,2.318,1.291,1.291,0,0,0,.135-.007h0a1.163,1.163,0,1,0-.265-2.311Z" transform="translate(-11146.964 -1282.644)" fill="#1e243a"/>
        </g>
        <g id="Grupo_15143" data-name="Grupo 15143" transform="translate(2.277 134.334)">
          <path id="Trazado_25617" data-name="Trazado 25617" d="M11130.061,1753.018a1.163,1.163,0,1,0,1.481.712A1.164,1.164,0,0,0,11130.061,1753.018Z" transform="translate(-11129.282 -1746.287)" fill="#1e243a"/>
          <path id="Trazado_25618" data-name="Trazado 25618" d="M11200.924,1709.931a1.164,1.164,0,0,0,1.646-1.646.01.01,0,0,1,0,0,.073.073,0,0,1-.008-.009,1.164,1.164,0,0,0-1.643,1.65A.018.018,0,0,1,11200.924,1709.931Z" transform="translate(-11192.281 -1706.505)" fill="#1e243a"/>
          <path id="Trazado_25619" data-name="Trazado 25619" d="M11157.4,1779.5a1.163,1.163,0,0,0-.765,2.2,1.149,1.149,0,0,0,.382.064,1.163,1.163,0,0,0,.383-2.261Z" transform="translate(-11152.76 -1769.694)" fill="#1e243a"/>
          <path id="Trazado_25620" data-name="Trazado 25620" d="M11135.2,1715.843a1.163,1.163,0,1,0-1.235,1.972,1.163,1.163,0,0,0,1.235-1.972Z" transform="translate(-11132.935 -1713.337)" fill="#1e243a"/>
          <path id="Trazado_25621" data-name="Trazado 25621" d="M11214.351,1743.434a1.163,1.163,0,1,0-.26,2.311,1.017,1.017,0,0,0,.132.008,1.163,1.163,0,0,0,.128-2.319Z" transform="translate(-11203.313 -1737.869)" fill="#1e243a"/>
          <path id="Trazado_25622" data-name="Trazado 25622" d="M11193.666,1775.384a1.163,1.163,0,1,0,1.605.363A1.161,1.161,0,0,0,11193.666,1775.384Z" transform="translate(-11185.699 -1765.951)" fill="#1e243a"/>
          <path id="Trazado_25623" data-name="Trazado 25623" d="M11166.164,1695.651a1.163,1.163,0,0,0,.131,2.318,1.241,1.241,0,0,0,.133-.007,1.163,1.163,0,0,0-.264-2.311Z" transform="translate(-11160.961 -1695.644)" fill="#1e243a"/>
        </g>
        <g id="Grupo_15144" data-name="Grupo 15144" transform="translate(118.817 121.424)">
          <path id="Trazado_25624" data-name="Trazado 25624" d="M12137.2,1604.843a1.164,1.164,0,1,0,.367,1.6A1.162,1.162,0,0,0,12137.2,1604.843Z" transform="translate(-12134.938 -1602.337)" fill="#1e243a"/>
          <path id="Trazado_25625" data-name="Trazado 25625" d="M12132.064,1642.018a1.163,1.163,0,0,0,.386,2.261,1.179,1.179,0,0,0,.385-.066,1.163,1.163,0,0,0-.771-2.195Z" transform="translate(-12131.287 -1635.287)" fill="#1e243a"/>
          <path id="Trazado_25626" data-name="Trazado 25626" d="M12202.921,1598.927l.007.006.009.009a1.164,1.164,0,0,0,1.636-1.655l-.006,0a.055.055,0,0,0-.008-.009,1.164,1.164,0,0,0-1.641,1.65Z" transform="translate(-12194.283 -1595.506)" fill="#1e243a"/>
          <path id="Trazado_25627" data-name="Trazado 25627" d="M12195.669,1664.384h0a1.162,1.162,0,0,0,.622,2.146,1.144,1.144,0,0,0,.618-.179,1.162,1.162,0,1,0-1.238-1.967Z" transform="translate(-12187.7 -1654.951)" fill="#1e243a"/>
          <path id="Trazado_25628" data-name="Trazado 25628" d="M12216.35,1632.433a1.163,1.163,0,1,0-.259,2.311,1.016,1.016,0,0,0,.132.008,1.163,1.163,0,0,0,.127-2.319Z" transform="translate(-12205.314 -1626.869)" fill="#1e243a"/>
          <path id="Trazado_25629" data-name="Trazado 25629" d="M12159.395,1668.5a1.163,1.163,0,0,0-.765,2.2,1.19,1.19,0,0,0,.382.064,1.163,1.163,0,0,0,.383-2.261Z" transform="translate(-12154.76 -1658.694)" fill="#1e243a"/>
          <path id="Trazado_25630" data-name="Trazado 25630" d="M12168.164,1584.651a1.163,1.163,0,0,0,.131,2.318,1.307,1.307,0,0,0,.134-.007,1.163,1.163,0,0,0-.265-2.311Z" transform="translate(-12162.964 -1584.644)" fill="#1e243a"/>
        </g>
        <g id="Grupo_15145" data-name="Grupo 15145" transform="translate(166.619 88.044)">
          <path id="Trazado_25631" data-name="Trazado 25631" d="M12548.2,1317.843a1.164,1.164,0,1,0,.367,1.6A1.162,1.162,0,0,0,12548.2,1317.843Z" transform="translate(-12545.938 -1315.337)" fill="#1e243a"/>
          <path id="Trazado_25632" data-name="Trazado 25632" d="M12570.395,1381.5a1.163,1.163,0,1,0-.764,2.2,1.178,1.178,0,0,0,.381.064,1.163,1.163,0,0,0,.383-2.261Z" transform="translate(-12565.76 -1371.694)" fill="#1e243a"/>
          <path id="Trazado_25633" data-name="Trazado 25633" d="M12613.921,1311.928l.006,0h0a1.162,1.162,0,0,0,1.645-1.643l0,0s0-.006-.009-.008a1.162,1.162,0,1,0-1.638,1.649S12613.921,1311.927,12613.921,1311.928Z" transform="translate(-12605.283 -1308.508)" fill="#1e243a"/>
          <path id="Trazado_25634" data-name="Trazado 25634" d="M12543.064,1355.018a1.162,1.162,0,0,0,.385,2.26,1.123,1.123,0,0,0,.383-.065,1.163,1.163,0,1,0-.768-2.195Z" transform="translate(-12542.284 -1348.287)" fill="#1e243a"/>
          <path id="Trazado_25635" data-name="Trazado 25635" d="M12579.164,1297.651a1.163,1.163,0,0,0,.131,2.318,1.241,1.241,0,0,0,.132-.007h0a1.163,1.163,0,0,0-.265-2.311Z" transform="translate(-12573.964 -1297.644)" fill="#1e243a"/>
          <path id="Trazado_25636" data-name="Trazado 25636" d="M12627.35,1345.435a1.163,1.163,0,1,0-.259,2.311,1.023,1.023,0,0,0,.131.008,1.163,1.163,0,0,0,.128-2.319Z" transform="translate(-12616.314 -1339.87)" fill="#1e243a"/>
          <path id="Trazado_25637" data-name="Trazado 25637" d="M12606.667,1377.381a1.164,1.164,0,0,0,.622,2.148,1.146,1.146,0,0,0,.618-.18,1.163,1.163,0,1,0-1.24-1.968Z" transform="translate(-12598.699 -1367.949)" fill="#1e243a"/>
        </g>
        <g id="Grupo_15146" data-name="Grupo 15146" transform="translate(63.222 124.332)">
          <path id="Trazado_25638" data-name="Trazado 25638" d="M11654.061,1667.018a1.163,1.163,0,1,0,1.482.712A1.164,1.164,0,0,0,11654.061,1667.018Z" transform="translate(-11653.282 -1660.287)" fill="#1e243a"/>
          <path id="Trazado_25639" data-name="Trazado 25639" d="M11659.2,1629.842a1.164,1.164,0,1,0,.367,1.6A1.165,1.165,0,0,0,11659.2,1629.842Z" transform="translate(-11656.934 -1627.336)" fill="#1e243a"/>
          <path id="Trazado_25640" data-name="Trazado 25640" d="M11724.925,1623.932a1.164,1.164,0,0,0,1.646-1.646s0,0,0,0a.026.026,0,0,1-.009-.009,1.164,1.164,0,0,0-1.642,1.65A.019.019,0,0,1,11724.925,1623.932Z" transform="translate(-11716.282 -1620.507)" fill="#1e243a"/>
          <path id="Trazado_25641" data-name="Trazado 25641" d="M11681.4,1693.5a1.163,1.163,0,0,0-.765,2.2,1.181,1.181,0,0,0,.381.064,1.163,1.163,0,0,0,.384-2.261Z" transform="translate(-11676.76 -1683.694)" fill="#1e243a"/>
          <path id="Trazado_25642" data-name="Trazado 25642" d="M11690.164,1609.651a1.163,1.163,0,0,0,.133,2.318c.045,0,.088,0,.135-.007a1.163,1.163,0,0,0-.268-2.311Z" transform="translate(-11684.965 -1609.644)" fill="#1e243a"/>
          <path id="Trazado_25643" data-name="Trazado 25643" d="M11738.35,1657.435a1.163,1.163,0,1,0-.258,2.311,1.241,1.241,0,0,0,.133.007,1.163,1.163,0,0,0,.125-2.318Z" transform="translate(-11727.314 -1651.87)" fill="#1e243a"/>
          <path id="Trazado_25644" data-name="Trazado 25644" d="M11717.668,1689.381h0a1.163,1.163,0,0,0,.622,2.147,1.146,1.146,0,0,0,.618-.179,1.163,1.163,0,0,0-1.238-1.968Z" transform="translate(-11709.698 -1679.949)" fill="#1e243a"/>
        </g>
        <g id="Grupo_15149" data-name="Grupo 15149" transform="translate(172.715 18.825)">
          <g id="Grupo_15147" data-name="Grupo 15147" transform="translate(2.733)">
            <path id="Trazado_25645" data-name="Trazado 25645" d="M12619.075,702.5a.872.872,0,0,0-.872.872v5.583a.873.873,0,0,0,1.745,0v-5.583A.873.873,0,0,0,12619.075,702.5Z" transform="translate(-12618.203 -702.5)" fill="#1e243a"/>
          </g>
          <g id="Grupo_15148" data-name="Grupo 15148" transform="translate(0 2.85)">
            <path id="Trazado_25646" data-name="Trazado 25646" d="M12601.157,727h-5.583a.872.872,0,0,0,0,1.745h5.583a.872.872,0,0,0,0-1.745Z" transform="translate(-12594.702 -727)" fill="#1e243a"/>
          </g>
        </g>
        <g id="Grupo_15152" data-name="Grupo 15152" transform="translate(0 112.452)">
          <g id="Grupo_15150" data-name="Grupo 15150" transform="translate(2.733)">
            <path id="Trazado_25647" data-name="Trazado 25647" d="M11134.074,1507.5a.872.872,0,0,0-.872.872v5.583a.873.873,0,0,0,1.745,0v-5.583A.873.873,0,0,0,11134.074,1507.5Z" transform="translate(-11133.202 -1507.5)" fill="#1e243a"/>
          </g>
          <g id="Grupo_15151" data-name="Grupo 15151" transform="translate(0 2.85)">
            <path id="Trazado_25648" data-name="Trazado 25648" d="M11116.158,1532h-5.583a.872.872,0,0,0,0,1.745h5.583a.872.872,0,0,0,0-1.745Z" transform="translate(-11109.703 -1532)" fill="#1e243a"/>
          </g>
        </g>
        <g id="Grupo_15155" data-name="Grupo 15155" transform="translate(169.924 111.754)">
          <g id="Grupo_15153" data-name="Grupo 15153" transform="translate(2.733)">
            <path id="Trazado_25649" data-name="Trazado 25649" d="M12595.075,1501.5a.872.872,0,0,0-.872.872v5.583a.872.872,0,1,0,1.744,0v-5.583A.872.872,0,0,0,12595.075,1501.5Z" transform="translate(-12594.203 -1501.5)" fill="#1e243a"/>
          </g>
          <g id="Grupo_15154" data-name="Grupo 15154" transform="translate(0 2.85)">
            <path id="Trazado_25650" data-name="Trazado 25650" d="M12577.158,1526h-5.582a.872.872,0,0,0,0,1.745h5.582a.872.872,0,1,0,0-1.745Z" transform="translate(-12570.704 -1526)" fill="#1e243a"/>
          </g>
        </g>
        <g id="Grupo_15158" data-name="Grupo 15158" transform="translate(55.246 137.109)">
          <g id="Grupo_15156" data-name="Grupo 15156" transform="translate(2.733)">
            <path id="Trazado_25651" data-name="Trazado 25651" d="M11609.075,1719.5a.872.872,0,0,0-.872.872v5.583a.873.873,0,0,0,1.745,0v-5.583A.873.873,0,0,0,11609.075,1719.5Z" transform="translate(-11608.203 -1719.5)" fill="#1e243a"/>
          </g>
          <g id="Grupo_15157" data-name="Grupo 15157" transform="translate(0 2.85)">
            <path id="Trazado_25652" data-name="Trazado 25652" d="M11591.158,1744h-5.583a.872.872,0,0,0,0,1.745h5.583a.872.872,0,0,0,0-1.745Z" transform="translate(-11584.703 -1744)" fill="#1e243a"/>
          </g>
        </g>
        <g id="Grupo_15161" data-name="Grupo 15161" transform="translate(139.917 134.899)">
          <g id="Grupo_15159" data-name="Grupo 15159" transform="translate(2.733)">
            <path id="Trazado_25653" data-name="Trazado 25653" d="M12337.076,1700.5a.872.872,0,0,0-.873.872v5.583a.872.872,0,1,0,1.744,0v-5.583A.871.871,0,0,0,12337.076,1700.5Z" transform="translate(-12336.203 -1700.5)" fill="#1e243a"/>
          </g>
          <g id="Grupo_15160" data-name="Grupo 15160" transform="translate(0 2.85)">
            <path id="Trazado_25654" data-name="Trazado 25654" d="M12319.158,1725h-5.584a.872.872,0,0,0,0,1.745h5.584a.872.872,0,0,0,0-1.745Z" transform="translate(-12312.703 -1725)" fill="#1e243a"/>
          </g>
        </g>
        <g id="Grupo_15164" data-name="Grupo 15164" transform="translate(0 0.448)">
          <g id="Grupo_15162" data-name="Grupo 15162" transform="translate(2.733)">
            <path id="Trazado_25655" data-name="Trazado 25655" d="M11134.074,544.5a.872.872,0,0,0-.872.872v5.583a.873.873,0,0,0,1.745,0v-5.583A.873.873,0,0,0,11134.074,544.5Z" transform="translate(-11133.202 -544.5)" fill="#1e243a"/>
          </g>
          <g id="Grupo_15163" data-name="Grupo 15163" transform="translate(0 2.85)">
            <path id="Trazado_25656" data-name="Trazado 25656" d="M11116.158,569h-5.583a.872.872,0,0,0,0,1.745h5.583a.872.872,0,0,0,0-1.745Z" transform="translate(-11109.703 -569)" fill="#1e243a"/>
          </g>
        </g>
        <g id="Grupo_15167" data-name="Grupo 15167" transform="translate(104.443 6.031)">
          <g id="Grupo_15165" data-name="Grupo 15165" transform="translate(2.733)">
            <path id="Trazado_25657" data-name="Trazado 25657" d="M12032.075,592.5a.872.872,0,0,0-.872.872v5.583a.872.872,0,1,0,1.744,0v-5.583A.872.872,0,0,0,12032.075,592.5Z" transform="translate(-12031.203 -592.5)" fill="#1e243a"/>
          </g>
          <g id="Grupo_15166" data-name="Grupo 15166" transform="translate(0 2.85)">
            <path id="Trazado_25658" data-name="Trazado 25658" d="M12014.157,617h-5.582a.872.872,0,0,0,0,1.745h5.582a.872.872,0,1,0,0-1.745Z" transform="translate(-12007.703 -617)" fill="#1e243a"/>
          </g>
        </g>
        <g id="Grupo_15170" data-name="Grupo 15170" transform="translate(139.452 8.823)">
          <g id="Grupo_15168" data-name="Grupo 15168" transform="translate(2.733)">
            <path id="Trazado_25659" data-name="Trazado 25659" d="M12333.075,616.5a.873.873,0,0,0-.873.872v5.583a.873.873,0,0,0,1.745,0v-5.583A.872.872,0,0,0,12333.075,616.5Z" transform="translate(-12332.202 -616.5)" fill="#1e243a"/>
          </g>
          <g id="Grupo_15169" data-name="Grupo 15169" transform="translate(0 2.85)">
            <path id="Trazado_25660" data-name="Trazado 25660" d="M12315.158,641h-5.582a.872.872,0,1,0,0,1.745h5.582a.872.872,0,0,0,0-1.745Z" transform="translate(-12308.703 -641)" fill="#1e243a"/>
          </g>
        </g>
        <g id="Grupo_15180" data-name="Grupo 15180" transform="translate(61.242 19.04)">
          <g id="Grupo_15178" data-name="Grupo 15178" transform="translate(11.724)">
            <g id="Grupo_15171" data-name="Grupo 15171" transform="translate(8.786 18.555)">
              <path id="Trazado_25661" data-name="Trazado 25661" d="M11840.694,875.714a.872.872,0,0,0-.873.872v7.065a2.251,2.251,0,0,1-.464,1.381,1.98,1.98,0,0,1-.229.241l-7.1,6.577c-.014.012-.026.025-.039.039a1.822,1.822,0,0,1-1.324.585h-7.4a1.818,1.818,0,0,1-1.293-.553l-.042-.039-6.849-6.041a2.049,2.049,0,0,1-.24-.242,2.243,2.243,0,0,1-.488-1.411V864.763a.872.872,0,1,0-1.744,0v19.424a4,4,0,0,0,.876,2.509,3.726,3.726,0,0,0,.442.452l6.829,6.023a3.549,3.549,0,0,0,2.509,1.046h7.4a3.55,3.55,0,0,0,2.567-1.1l7.087-6.56a3.871,3.871,0,0,0,.42-.449,4.006,4.006,0,0,0,.832-2.453v-7.065A.872.872,0,0,0,11840.694,875.714Z" transform="translate(-11812.607 -863.891)" fill="#1e243a"/>
            </g>
            <g id="Grupo_15172" data-name="Grupo 15172">
              <path id="Trazado_25662" data-name="Trazado 25662" d="M11771.359,706.4c-2-1.5-6.373-3.538-13.111-.4-.639.3-1.223.577-1.787.848-5.812,2.788-7.566,3.629-18.148-1.419a.871.871,0,0,0-1.246.787v4.971c0,4.4.881,7.51,2.7,9.51,1.746,1.925,4.4,2.88,8.129,2.92,2.26.025,4.268.126,6.039.215s3.373.17,4.959.17a32.693,32.693,0,0,0,11.916-2.158,7.076,7.076,0,0,0,4.67-5.809A10.478,10.478,0,0,0,11771.359,706.4Zm-.85,14.625h0Zm3.242-5.245a5.314,5.314,0,0,1-3.539,4.425c-6.568,2.371-10.605,2.168-16.193,1.887-1.789-.09-3.814-.192-6.107-.217-6.551-.071-9.1-3.067-9.1-10.686v-3.6c4.828,2.229,7.916,3.174,10.463,3.227,2.828.059,4.973-.971,7.943-2.4.559-.269,1.139-.547,1.768-.84,4.385-2.042,8.41-1.966,11.332.216A8.692,8.692,0,0,1,11773.752,715.78Z" transform="translate(-11737.066 -704.353)" fill="#1e243a"/>
            </g>
            <g id="Grupo_15173" data-name="Grupo 15173" transform="translate(9.75 44.116)">
              <path id="Trazado_25663" data-name="Trazado 25663" d="M11825.5,1083.669a.872.872,0,0,0-.738.988c1.179,8.184-.982,10.961-3.493,12.743a.872.872,0,1,0,1.01,1.423,9.832,9.832,0,0,0,3.8-4.895c.85-2.4.982-5.519.405-9.52A.871.871,0,0,0,11825.5,1083.669Z" transform="translate(-11820.896 -1083.66)" fill="#1e243a"/>
            </g>
            <g id="Grupo_15174" data-name="Grupo 15174" transform="translate(30.845 43.579)">
              <path id="Trazado_25664" data-name="Trazado 25664" d="M12007.961,1093.323c-2.155-1.53-4.876-4.571-3.621-13.28a.872.872,0,1,0-1.726-.249c-1.06,7.348.318,12.1,4.338,14.952a.872.872,0,1,0,1.009-1.423Z" transform="translate(-12002.271 -1079.046)" fill="#1e243a"/>
            </g>
            <g id="Grupo_15175" data-name="Grupo 15175" transform="translate(32.572 7.306)">
              <path id="Trazado_25665" data-name="Trazado 25665" d="M12022.883,767.412a.873.873,0,0,0-1.209,1.259,14.062,14.062,0,0,1,4.539,11.241,17.953,17.953,0,0,1-4.133,10.584c-2.682-3.946-3.139-9.032-3.215-13.974a.873.873,0,0,0-.873-.859h-.012a.872.872,0,0,0-.859.886c.086,5.574.648,11.346,4.15,15.793a.877.877,0,0,0,.582.326.918.918,0,0,0,.1.006.877.877,0,0,0,.541-.187c2.094-1.652,5.172-6.619,5.457-12.491A15.941,15.941,0,0,0,12022.883,767.412Z" transform="translate(-12017.121 -767.169)" fill="#1e243a"/>
            </g>
            <g id="Grupo_15176" data-name="Grupo 15176" transform="translate(10.961 6.228)">
              <path id="Trazado_25666" data-name="Trazado 25666" d="M11843.556,757.9c-.377.025-.768.072-1.191.142a13.817,13.817,0,0,0-3.3,1.147c-1.988.881-4.045,1.792-6.627.978a.872.872,0,1,0-.522,1.664,8.416,8.416,0,0,0,2.552.4,12.863,12.863,0,0,0,5.3-1.451,12.662,12.662,0,0,1,2.876-1.021c.368-.061.7-.1,1.021-.122a.872.872,0,1,0-.115-1.741Z" transform="translate(-11831.308 -757.899)" fill="#1e243a"/>
            </g>
            <g id="Grupo_15177" data-name="Grupo 15177" transform="translate(5.304 7.019)">
              <path id="Trazado_25667" data-name="Trazado 25667" d="M11786.017,765.672a11.265,11.265,0,0,1-2.065-.867.872.872,0,1,0-.828,1.535,12.985,12.985,0,0,0,2.386,1,.872.872,0,1,0,.508-1.669Z" transform="translate(-11782.665 -764.701)" fill="#1e243a"/>
            </g>
          </g>
          <g id="Grupo_15179" data-name="Grupo 15179" transform="translate(0 57.88)">
            <path id="Trazado_25668" data-name="Trazado 25668" d="M11691.966,1202h-8.36a.87.87,0,0,0-.247.036,40.518,40.518,0,0,1-23.976,0,.871.871,0,0,0-.26-.04h-10.064a12.813,12.813,0,0,0-12.8,12.8v15.057a.873.873,0,0,0,1.745,0V1214.8a11.066,11.066,0,0,1,11.054-11.054h9.933a42.213,42.213,0,0,0,24.74,0h8.234a11.067,11.067,0,0,1,11.055,11.054v15.057a.872.872,0,1,0,1.743,0V1214.8A12.812,12.812,0,0,0,11691.966,1202Z" transform="translate(-11636.26 -1202)" fill="#1e243a"/>
          </g>
        </g>
        <g id="Grupo_15183" data-name="Grupo 15183" transform="translate(85.195 43.191)">
          <g id="Grupo_15181" data-name="Grupo 15181">
            <path id="Trazado_25669" data-name="Trazado 25669" d="M11848.609,912.269a2.914,2.914,0,0,1-4.9,0,.872.872,0,1,0-1.259,1.207,5.207,5.207,0,0,0,3.711,1.878h0a5.211,5.211,0,0,0,3.712-1.878.872.872,0,1,0-1.26-1.207Z" transform="translate(-11842.203 -912)" fill="#1e243a"/>
          </g>
          <g id="Grupo_15182" data-name="Grupo 15182" transform="translate(11.863)">
            <path id="Trazado_25670" data-name="Trazado 25670" d="M11950.608,912.269a2.914,2.914,0,0,1-4.9,0,.872.872,0,1,0-1.26,1.207,5.211,5.211,0,0,0,3.712,1.878h0a5.214,5.214,0,0,0,3.713-1.878.873.873,0,1,0-1.261-1.207Z" transform="translate(-11944.202 -912)" fill="#1e243a"/>
          </g>
        </g>
        <g id="Grupo_15184" data-name="Grupo 15184" transform="translate(88.218 55.752)">
          <path id="Trazado_25671" data-name="Trazado 25671" d="M11880.575,1020.143c-3.623,2.376-7.233,2.372-11.037-.01a.873.873,0,0,0-.928,1.478,12.239,12.239,0,0,0,6.524,2.055,11.568,11.568,0,0,0,6.4-2.065.872.872,0,1,0-.957-1.459Z" transform="translate(-11868.202 -1020)" fill="#1e243a"/>
        </g>
        <g id="Grupo_15189" data-name="Grupo 15189" transform="translate(5.637 27.82)">
          <g id="Grupo_15185" data-name="Grupo 15185">
            <path id="Trazado_25672" data-name="Trazado 25672" d="M11196.273,817.112a4.627,4.627,0,0,0-6.131-.668l-1.173.837a3.082,3.082,0,0,1-3.442.093c-6.594-4.144-10.834-10.125-12.962-18.284a3.085,3.085,0,0,1,1.194-3.266l1.166-.832a4.631,4.631,0,0,0,1.356-6.017h0l-3.751-6.749a4.63,4.63,0,0,0-6.739-1.519l-.07.05a18.019,18.019,0,0,0-4.189,25.138l14.021,19.631a16.817,16.817,0,0,0,11.467,7.014,17.2,17.2,0,0,0,2.341.16,18.614,18.614,0,0,0,10.809-3.566,4.632,4.632,0,0,0,.75-6.868Zm4.074,8.566a2.89,2.89,0,0,1-1.191,2.036c-7.51,5.365-17.047,3.988-22.183-3.2l-14.021-19.631a16.273,16.273,0,0,1,3.784-22.7l.068-.05a2.886,2.886,0,0,1,4.2.947l3.751,6.749h0a2.885,2.885,0,0,1-.847,3.75l-1.164.832a4.839,4.839,0,0,0-1.868,5.126,34.074,34.074,0,0,0,5.238,11.428,30.239,30.239,0,0,0,8.484,7.893,4.817,4.817,0,0,0,5.383-.151l1.173-.837a2.883,2.883,0,0,1,3.82.417l4.646,5.154A2.882,2.882,0,0,1,11200.348,825.678Z" transform="translate(-11158.171 -779.844)" fill="#1e243a"/>
          </g>
          <g id="Grupo_15186" data-name="Grupo 15186" transform="translate(0.004 5.601)">
            <path id="Trazado_25673" data-name="Trazado 25673" d="M11185.768,828a27.376,27.376,0,0,0-11.045,2.3.873.873,0,0,0,.7,1.6,25.791,25.791,0,1,1-13.676,14.171.872.872,0,1,0-1.621-.642A27.57,27.57,0,1,0,11185.768,828Z" transform="translate(-11158.203 -828)" fill="#1e243a"/>
          </g>
          <g id="Grupo_15187" data-name="Grupo 15187" transform="translate(20.124 20.255)">
            <path id="Trazado_25674" data-name="Trazado 25674" d="M11332.34,954.04a.873.873,0,0,0-.534,1.661c5.01,1.6,7.515,4.727,7.653,9.546a.871.871,0,0,0,.87.847h.026a.872.872,0,0,0,.847-.9C11341.042,959.626,11338.06,955.873,11332.34,954.04Z" transform="translate(-11331.2 -953.998)" fill="#1e243a"/>
          </g>
          <g id="Grupo_15188" data-name="Grupo 15188" transform="translate(22.502 14.266)">
            <path id="Trazado_25675" data-name="Trazado 25675" d="M11352.782,902.54a.872.872,0,0,0-.532,1.662c7.38,2.364,11.066,6.97,11.271,14.082a.872.872,0,0,0,.872.847h.025a.872.872,0,0,0,.847-.9,16.026,16.026,0,0,0-3.532-10.127A18.928,18.928,0,0,0,11352.782,902.54Z" transform="translate(-11351.644 -902.499)" fill="#1e243a"/>
          </g>
        </g>
        <g id="Grupo_15198" data-name="Grupo 15198" transform="translate(138.493 93.952)">
          <path id="Trazado_25682" data-name="Trazado 25682" d="M12322.486,1368.323l8.795-5.8a.872.872,0,0,0-.138-1.531l-29.322-12.477a.872.872,0,0,0-1.214.8l-.144,31.917a.871.871,0,0,0,1.352.732l8.8-5.8,12.712,19.268a.873.873,0,0,0,1.209.248l10.417-6.873a.871.871,0,0,0,.248-1.208Zm1.813,25.413-12.711-19.268a.872.872,0,0,0-1.209-.248l-8.164,5.386.132-28.974,26.618,11.327-8.167,5.389a.872.872,0,0,0-.248,1.208l12.712,19.268Z" transform="translate(-12300.464 -1348.443)" fill="#1e243a"/>
        </g>
        <g id="Grupo_15199" data-name="Grupo 15199" transform="translate(41.231 149.612)">
          <path id="Trazado_25683" data-name="Trazado 25683" d="M11474.845,1827h-9.77a.872.872,0,0,0,0,1.745h9.77a.872.872,0,0,0,0-1.745Z" transform="translate(-11464.203 -1827)" fill="#1e243a"/>
        </g>
        <g id="Grupo_15200" data-name="Grupo 15200" transform="translate(59.026 149.612)">
          <path id="Trazado_25684" data-name="Trazado 25684" d="M11632.032,1827h-13.956a.872.872,0,1,0,0,1.745h13.956a.872.872,0,0,0,0-1.745Z" transform="translate(-11617.203 -1827)" fill="#1e243a"/>
        </g>
        <g id="Grupo_15201" data-name="Grupo 15201" transform="translate(118.493 149.612)">
          <path id="Trazado_25685" data-name="Trazado 25685" d="M12149.342,1827h-19.971a.872.872,0,0,0,0,1.745h19.971a.872.872,0,0,0,0-1.745Z" transform="translate(-12128.5 -1827)" fill="#1e243a"/>
        </g>
        <g id="Grupo_15208" data-name="Grupo 15208" transform="translate(47.86 38.19)">
          <g id="Grupo_15202" data-name="Grupo 15202">
            <path id="Trazado_25686" data-name="Trazado 25686" d="M11546.15,869h-24.076a.872.872,0,0,0,0,1.745h23.2v27.129h-12.951a.872.872,0,0,0,0,1.745h13.824a.873.873,0,0,0,.873-.872V869.872A.873.873,0,0,0,11546.15,869Z" transform="translate(-11521.203 -869)" fill="#1e243a"/>
          </g>
          <g id="Grupo_15203" data-name="Grupo 15203" transform="translate(11.165 15.265)">
            <path id="Trazado_25687" data-name="Trazado 25687" d="M11627.264,1000.25h-9.187a.872.872,0,1,0,0,1.745h9.188a.872.872,0,1,0,0-1.745Z" transform="translate(-11617.203 -1000.25)" fill="#1e243a"/>
          </g>
          <g id="Grupo_15206" data-name="Grupo 15206" transform="translate(7.234 7.974)">
            <g id="Grupo_15204" data-name="Grupo 15204">
              <path id="Trazado_25688" data-name="Trazado 25688" d="M11589.136,937.56h-4.862a.872.872,0,0,0,0,1.745h4.862a.872.872,0,0,0,0-1.745Z" transform="translate(-11583.401 -937.56)" fill="#1e243a"/>
            </g>
            <g id="Grupo_15205" data-name="Grupo 15205" transform="translate(8.584 0.051)">
              <path id="Trazado_25689" data-name="Trazado 25689" d="M11662.611,938h-4.535a.872.872,0,1,0,0,1.745h4.535a.872.872,0,1,0,0-1.745Z" transform="translate(-11657.203 -938)" fill="#1e243a"/>
            </g>
          </g>
          <g id="Grupo_15207" data-name="Grupo 15207" transform="translate(11.165 22.505)">
            <path id="Trazado_25690" data-name="Trazado 25690" d="M11627.264,1062.5h-9.187a.872.872,0,1,0,0,1.745h9.188a.872.872,0,1,0,0-1.745Z" transform="translate(-11617.203 -1062.5)" fill="#1e243a"/>
          </g>
        </g>
        <g id="Grupo_15212" data-name="Grupo 15212" transform="translate(12.184 93.242)">
          <g id="Grupo_15210" data-name="Grupo 15210" transform="translate(13.229 4.343)">
            <g id="Grupo_15209" data-name="Grupo 15209">
              <path id="Trazado_25691" data-name="Trazado 25691" d="M11373.732,1637.5a5.737,5.737,0,0,0-3.977-1.443,5.873,5.873,0,0,0-4.025,1.437,4.744,4.744,0,0,0-1.666,3.684,4.928,4.928,0,0,0,1.646,3.691l.014.012a6.271,6.271,0,0,0,8.042.021,4.87,4.87,0,0,0,1.6-3.724A4.722,4.722,0,0,0,11373.732,1637.5Zm-1.143,6.114a4.538,4.538,0,0,1-5.688-.019,3.2,3.2,0,0,1-1.092-2.416,3.027,3.027,0,0,1,1.078-2.379,4.126,4.126,0,0,1,2.868-1,4,4,0,0,1,2.814,1,3.008,3.008,0,0,1,1.054,2.378A3.143,3.143,0,0,1,11372.59,1643.612Z" transform="translate(-11359.893 -1606.238)" fill="#1e243a"/>
              <path id="Trazado_25692" data-name="Trazado 25692" d="M11346.913,1382.052a11.238,11.238,0,0,0-3.916-1.815,18.99,18.99,0,0,0-4.7-.558,20.773,20.773,0,0,0-5.085.622,17.108,17.108,0,0,0-4.585,1.884.872.872,0,0,0-.426.749v7.8a.873.873,0,0,0,1.449.655,12.922,12.922,0,0,1,3.857-2.393,10.8,10.8,0,0,1,3.882-.783,3.983,3.983,0,0,1,1.392.23,3.027,3.027,0,0,1,1.008.6,2.445,2.445,0,0,1,.6.873,2.99,2.99,0,0,1,.219,1.155,4.437,4.437,0,0,1-.213,1.417,4.733,4.733,0,0,1-.656,1.244,10.166,10.166,0,0,1-1.157,1.31c-.474.457-1.038.963-1.676,1.5a16.022,16.022,0,0,0-1.727,1.659,9.637,9.637,0,0,0-1.281,1.823,8.517,8.517,0,0,0-.779,2.064,10.324,10.324,0,0,0-.258,2.377,10.474,10.474,0,0,0,.155,1.739,8.729,8.729,0,0,0,.447,1.684.873.873,0,0,0,.813.559h6.814a.872.872,0,0,0,.732-1.347,2.878,2.878,0,0,1-.342-.834,4.133,4.133,0,0,1-.141-1.049,4.358,4.358,0,0,1,.19-1.348,4.089,4.089,0,0,1,.567-1.112,8.1,8.1,0,0,1,1.028-1.155c.441-.417.963-.875,1.551-1.361.914-.756,1.737-1.5,2.448-2.223a13.207,13.207,0,0,0,1.858-2.346,10.482,10.482,0,0,0,1.157-2.641,11.426,11.426,0,0,0,.4-3.1,10.522,10.522,0,0,0-.957-4.645A8.755,8.755,0,0,0,11346.913,1382.052Zm1.557,10.5a8.807,8.807,0,0,1-.967,2.2,11.382,11.382,0,0,1-1.612,2.032c-.67.677-1.449,1.385-2.32,2.1-.616.511-1.166.994-1.635,1.436a9.783,9.783,0,0,0-1.251,1.41,5.832,5.832,0,0,0-.806,1.583,6.084,6.084,0,0,0-.276,1.89,5.851,5.851,0,0,0,.2,1.485h-4.884a7.816,7.816,0,0,1-.173-.789,8.786,8.786,0,0,1,.079-3.422,6.746,6.746,0,0,1,.619-1.641,7.926,7.926,0,0,1,1.05-1.493,14.361,14.361,0,0,1,1.541-1.479c.671-.564,1.265-1.1,1.768-1.581a11.849,11.849,0,0,0,1.355-1.54,6.388,6.388,0,0,0,.9-1.71,6.137,6.137,0,0,0,.306-1.976,4.722,4.722,0,0,0-.353-1.825,4.2,4.2,0,0,0-1.028-1.484,4.761,4.761,0,0,0-1.584-.955,5.716,5.716,0,0,0-2-.34,12.536,12.536,0,0,0-4.512.9,13.938,13.938,0,0,0-2.932,1.572v-5.5a15.483,15.483,0,0,1,3.694-1.447,19.014,19.014,0,0,1,4.656-.569,17.243,17.243,0,0,1,4.266.5,9.51,9.51,0,0,1,3.312,1.527,7.05,7.05,0,0,1,2.145,2.6,8.818,8.818,0,0,1,.778,3.879A9.7,9.7,0,0,1,11348.47,1392.554Z" transform="translate(-11328.203 -1379.679)" fill="#1e243a"/>
            </g>
          </g>
          <g id="Grupo_15211" data-name="Grupo 15211">
            <path id="Trazado_25693" data-name="Trazado 25693" d="M11238.86,1342.338a24.4,24.4,0,1,0,24.4,24.4A24.426,24.426,0,0,0,11238.86,1342.338Zm0,46.871a22.473,22.473,0,1,1,22.473-22.473A22.5,22.5,0,0,1,11238.86,1389.209Z" transform="translate(-11214.462 -1342.338)" fill="#1e243a"/>
          </g>
        </g>
        <g id="Grupo_15226" data-name="Grupo 15226" transform="translate(32.889 30.223)">
          <g id="Grupo_15223" data-name="Grupo 15223">
            <g id="Grupo_15219" data-name="Grupo 15219">
              <g id="Grupo_15213" data-name="Grupo 15213" transform="translate(1.071 0.001)">
                <path id="Trazado_25694" data-name="Trazado 25694" d="M11441.121,800.512h-33.345a7.15,7.15,0,0,0-5.931,3.153.873.873,0,0,0,1.446.977,5.406,5.406,0,0,1,4.484-2.385h33.345a.872.872,0,0,0,0-1.745Z" transform="translate(-11401.697 -800.512)" fill="#1e243a"/>
              </g>
              <g id="Grupo_15214" data-name="Grupo 15214" transform="translate(0 57.106)">
                <path id="Trazado_25695" data-name="Trazado 25695" d="M11393.356,1291.5a.872.872,0,0,0-.872.872v5.117a.873.873,0,0,0,1.745,0v-5.117A.873.873,0,0,0,11393.356,1291.5Z" transform="translate(-11392.484 -1291.5)" fill="#1e243a"/>
              </g>
              <g id="Grupo_15215" data-name="Grupo 15215" transform="translate(27.008 84.373)">
                <path id="Trazado_25696" data-name="Trazado 25696" d="M11703.594,1525.938h-78.021a.872.872,0,0,0,0,1.745l78.021,0a.872.872,0,0,0,0-1.744Z" transform="translate(-11624.703 -1525.938)" fill="#1e243a"/>
              </g>
              <g id="Grupo_15216" data-name="Grupo 15216" transform="translate(123.466 53.733)">
                <path id="Trazado_25697" data-name="Trazado 25697" d="M12454.912,1262.5a.873.873,0,0,0-.873.872v16.865a.872.872,0,1,0,1.744,0v-16.865A.872.872,0,0,0,12454.912,1262.5Z" transform="translate(-12454.039 -1262.5)" fill="#1e243a"/>
              </g>
              <g id="Grupo_15217" data-name="Grupo 15217" transform="translate(80.563)">
                <path id="Trazado_25698" data-name="Trazado 25698" d="M12106.742,800.5h-20.7a.872.872,0,1,0,0,1.745h20.7a.872.872,0,0,0,0-1.745Z" transform="translate(-12085.166 -800.502)" fill="#1e243a"/>
              </g>
              <g id="Grupo_15218" data-name="Grupo 15218" transform="translate(22.763 73.826)">
                <path id="Trazado_25699" data-name="Trazado 25699" d="M11671.3,1435.255l-82.229,0a.872.872,0,0,0,0,1.744l82.229,0a.872.872,0,0,0,0-1.745Z" transform="translate(-11588.202 -1435.255)" fill="#1e243a"/>
              </g>
            </g>
            <g id="Grupo_15220" data-name="Grupo 15220" transform="translate(36.421 110.951)">
              <path id="Trazado_25700" data-name="Trazado 25700" d="M11752.459,1754.457h-41.295a5.542,5.542,0,0,0-5.535,5.536v3.773a.871.871,0,0,0,.871.872h50.625a.872.872,0,0,0,.871-.872v-3.773A5.542,5.542,0,0,0,11752.459,1754.457Zm3.793,8.437h-48.879v-2.9a3.8,3.8,0,0,1,3.791-3.792h41.295a3.8,3.8,0,0,1,3.793,3.792Z" transform="translate(-11705.629 -1754.457)" fill="#1e243a"/>
            </g>
            <g id="Grupo_15221" data-name="Grupo 15221" transform="translate(47.178 85.006)">
              <path id="Trazado_25701" data-name="Trazado 25701" d="M11798.994,1531.385a.873.873,0,0,0-.873.872V1558.2a.873.873,0,0,0,1.745,0v-25.945A.872.872,0,0,0,11798.994,1531.385Z" transform="translate(-11798.121 -1531.385)" fill="#1e243a"/>
            </g>
            <g id="Grupo_15222" data-name="Grupo 15222" transform="translate(76.287 85.006)">
              <path id="Trazado_25702" data-name="Trazado 25702" d="M12049.269,1531.385a.872.872,0,0,0-.871.872V1558.2a.872.872,0,1,0,1.743,0v-25.945A.872.872,0,0,0,12049.269,1531.385Z" transform="translate(-12048.397 -1531.385)" fill="#1e243a"/>
            </g>
          </g>
          <g id="Grupo_15224" data-name="Grupo 15224" transform="translate(51.956 88.8)">
            <path id="Trazado_25703" data-name="Trazado 25703" d="M11840.074,1564a.872.872,0,0,0-.872.872v4.187a.873.873,0,0,0,1.745,0v-4.187A.873.873,0,0,0,11840.074,1564Z" transform="translate(-11839.202 -1564)" fill="#1e243a"/>
          </g>
          <g id="Grupo_15225" data-name="Grupo 15225" transform="translate(51.956 97.174)">
            <path id="Trazado_25704" data-name="Trazado 25704" d="M11852.287,1646.235h-11.34v-9.363a.873.873,0,0,0-1.745,0v10.235a.872.872,0,0,0,.872.872h12.213a.872.872,0,1,0,0-1.745Z" transform="translate(-11839.202 -1636)" fill="#1e243a"/>
          </g>
        </g>
        <g id="Grupo_15227" data-name="Grupo 15227" transform="translate(7.269 1.204)">
          <path id="Trazado_25705" data-name="Trazado 25705" d="M11370.046,707.676a.872.872,0,1,0-1.665.521,6.333,6.333,0,0,0,1.8,2.8.872.872,0,0,0,1.171-1.294A4.589,4.589,0,0,1,11370.046,707.676Z" transform="translate(-11345.528 -688.913)" fill="#1e243a"/>
          <path id="Trazado_25706" data-name="Trazado 25706" d="M11496.632,730.674a4.582,4.582,0,0,1-2.24.9.872.872,0,0,0,.2,1.733,6.315,6.315,0,0,0,3.093-1.24.872.872,0,1,0-1.052-1.391Z" transform="translate(-11456.235 -709.621)" fill="#1e243a"/>
          <path id="Trazado_25707" data-name="Trazado 25707" d="M11340.74,651.528a6.345,6.345,0,0,0-2.646-2.021.872.872,0,1,0-.656,1.616,4.618,4.618,0,0,1,1.92,1.466.866.866,0,0,0,.691.342.871.871,0,0,0,.691-1.4Z" transform="translate(-11317.737 -637.993)" fill="#1e243a"/>
          <path id="Trazado_25708" data-name="Trazado 25708" d="M11536.075,666.424a.872.872,0,0,0-.872.872V670.2a.873.873,0,0,0,1.745,0V667.3A.872.872,0,0,0,11536.075,666.424Z" transform="translate(-11492.983 -652.999)" fill="#1e243a"/>
          <path id="Trazado_25709" data-name="Trazado 25709" d="M11427.414,740h-2.908a.872.872,0,0,0,0,1.745h2.908a.872.872,0,1,0,0-1.745Z" transform="translate(-11394.393 -718.018)" fill="#1e243a"/>
          <path id="Trazado_25710" data-name="Trazado 25710" d="M11201.816,646h-.365a6.271,6.271,0,0,0-2.843.672.872.872,0,1,0,.783,1.559,4.543,4.543,0,0,1,2.06-.486h.365a.872.872,0,0,0,0-1.745Z" transform="translate(-11195.111 -634.951)" fill="#1e243a"/>
          <path id="Trazado_25711" data-name="Trazado 25711" d="M11173.075,756a.872.872,0,0,0-.872.872v2.908a.873.873,0,0,0,1.745,0v-2.908A.872.872,0,0,0,11173.075,756Z" transform="translate(-11172.203 -732.157)" fill="#1e243a"/>
          <path id="Trazado_25712" data-name="Trazado 25712" d="M11173.264,686.037a.872.872,0,0,0-.991.735,6.405,6.405,0,0,0-.069.939V689.8a.873.873,0,0,0,1.745,0v-2.094a4.673,4.673,0,0,1,.049-.683A.871.871,0,0,0,11173.264,686.037Z" transform="translate(-11172.203 -670.323)" fill="#1e243a"/>
          <path id="Trazado_25713" data-name="Trazado 25713" d="M11271.126,646h-2.908a.872.872,0,0,0,0,1.745h2.908a.872.872,0,0,0,0-1.745Z" transform="translate(-11256.28 -634.951)" fill="#1e243a"/>
          <path id="Trazado_25714" data-name="Trazado 25714" d="M11838.9,551.194a6.361,6.361,0,0,0-1.563-.194h-1.544a.872.872,0,0,0,0,1.745h1.544a4.613,4.613,0,0,1,1.135.141.872.872,0,0,0,.429-1.691Z" transform="translate(-11757.844 -551)" fill="#1e243a"/>
          <path id="Trazado_25715" data-name="Trazado 25715" d="M11896.075,650.861a.872.872,0,0,0-.872.872v2.908a.873.873,0,0,0,1.745,0v-2.908A.873.873,0,0,0,11896.075,650.861Z" transform="translate(-11811.113 -639.247)" fill="#1e243a"/>
          <path id="Trazado_25716" data-name="Trazado 25716" d="M11768.7,551h-2.908a.872.872,0,0,0,0,1.745h2.908a.872.872,0,0,0,0-1.745Z" transform="translate(-11695.985 -551)" fill="#1e243a"/>
          <path id="Trazado_25717" data-name="Trazado 25717" d="M11892.686,581.3a.873.873,0,0,0-.5,1.126,4.536,4.536,0,0,1,.3,1.638v.914a.873.873,0,0,0,1.745,0v-.914a6.316,6.316,0,0,0-.416-2.26A.871.871,0,0,0,11892.686,581.3Z" transform="translate(-11808.392 -577.722)" fill="#1e243a"/>
          <path id="Trazado_25718" data-name="Trazado 25718" d="M11628.7,551h-2.907a.872.872,0,1,0,0,1.745h2.907a.872.872,0,1,0,0-1.745Z" transform="translate(-11572.268 -551)" fill="#1e243a"/>
          <path id="Trazado_25719" data-name="Trazado 25719" d="M11560,551.055a6.324,6.324,0,0,0-3.169,1.03.872.872,0,1,0,.958,1.458,4.575,4.575,0,0,1,2.294-.745.872.872,0,0,0-.083-1.743Z" transform="translate(-11511.746 -551.048)" fill="#1e243a"/>
          <path id="Trazado_25720" data-name="Trazado 25720" d="M11536.108,596.425a.875.875,0,0,0-.9.842c0,.071,0,.141,0,.213V600.2a.873.873,0,0,0,1.745,0V597.48c0-.052,0-.1,0-.154A.872.872,0,0,0,11536.108,596.425Z" transform="translate(-11492.983 -591.141)" fill="#1e243a"/>
          <path id="Trazado_25721" data-name="Trazado 25721" d="M11698.7,551h-2.907a.872.872,0,0,0,0,1.745h2.907a.872.872,0,0,0,0-1.745Z" transform="translate(-11634.126 -551)" fill="#1e243a"/>
        </g>
      </g>
    </g>
  </g>
</svg>
