<svg xmlns="http://www.w3.org/2000/svg" width="201" height="201" viewBox="0 0 201 201">
  <g id="Grupo_15892" data-name="Grupo 15892" transform="translate(-1226 -3857)">
    <circle id="Elipse_772" data-name="Elipse 772" cx="100.5" cy="100.5" r="100.5" transform="translate(1226 3857)" fill="#daf0fd"/>
    <g id="Grupo_14930" data-name="Grupo 14930" transform="translate(-9851.703 3330.5)">
      <g id="Color" transform="translate(11093.57 554.233)">
        <g id="Grupo_14819" data-name="Grupo 14819" transform="translate(0.956 0)">
          <g id="Grupo_14815" data-name="Grupo 14815">
            <rect id="Rectángulo_2791" data-name="Rectángulo 2791" width="18.767" height="29.134" transform="translate(0 16.502) rotate(-61.561)" fill="#fcd118"/>
          </g>
          <g id="Grupo_14816" data-name="Grupo 14816" transform="translate(9.114 0.706)">
            <path id="Trazado_25243" data-name="Trazado 25243" d="M11194.6,597.245l17.852-2.375-25.186-13.64Z" transform="translate(-11187.262 -581.23)" fill="#fcd118"/>
          </g>
          <g id="Grupo_14817" data-name="Grupo 14817" transform="translate(0.645 13.742)">
            <path id="Trazado_25244" data-name="Trazado 25244" d="M11114.046,696.533l14.384-2.6Z" transform="translate(-11114.046 -693.931)" fill="#fcd118"/>
          </g>
          <g id="Grupo_14818" data-name="Grupo 14818" transform="translate(20.163 16.522)">
            <path id="Trazado_25245" data-name="Trazado 25245" d="M11288.462,731.437l-5.681-13.469Z" transform="translate(-11282.781 -717.968)" fill="#fcd118"/>
          </g>
        </g>
        <g id="Grupo_14820" data-name="Grupo 14820" transform="translate(9.254 134.659)">
          <path id="Trazado_25246" data-name="Trazado 25246" d="M11180.2,1742.137a5.971,5.971,0,0,0,5.971,5.971h148.612a5.971,5.971,0,0,0,5.971-5.971v-2.87H11180.2Z" transform="translate(-11180.203 -1739.267)" fill="#e1e1e5"/>
        </g>
        <g id="Grupo_14821" data-name="Grupo 14821" transform="translate(19.963 51.032)">
          <path id="Trazado_25247" data-name="Trazado 25247" d="M11405.182,1016.3h-125.73a6.485,6.485,0,0,0-6.663,6.279V1099.5l138.928-.624v-76.3A6.372,6.372,0,0,0,11405.182,1016.3Zm-2.519,76.119-120.509.07v-4.472l.052-62.729,89.97.066h30.487Z" transform="translate(-11272.788 -1016.304)" fill="#e1e1e5"/>
        </g>
        <g id="Grupo_14822" data-name="Grupo 14822" transform="translate(0 73.703)">
          <path id="Trazado_25248" data-name="Trazado 25248" d="M11139.349,1217.135l-10.98-4.567a24.529,24.529,0,1,0,10.98,4.567Z" transform="translate(-11100.203 -1212.3)" fill="#4a91d6"/>
        </g>
        <g id="Grupo_14823" data-name="Grupo 14823" transform="translate(5.079 84.028)">
          <path id="Trazado_25249" data-name="Trazado 25249" d="M11151.943,1301.563h0a7.828,7.828,0,0,0-7.828,7.827v13.24h15.655v-13.24A7.827,7.827,0,0,0,11151.943,1301.563Z" transform="translate(-11144.115 -1301.563)" fill="#fcd118"/>
        </g>
        <g id="Grupo_14824" data-name="Grupo 14824" transform="translate(12.907 84.028)">
          <path id="Trazado_25250" data-name="Trazado 25250" d="M11234.964,1301.563h-23.182l6.521,21.067h24.123v-13.606A7.462,7.462,0,0,0,11234.964,1301.563Z" transform="translate(-11211.782 -1301.563)" fill="#fcd118"/>
        </g>
        <g id="Grupo_14829" data-name="Grupo 14829" transform="translate(53.134 67.752)">
          <g id="Grupo_14825" data-name="Grupo 14825">
            <path id="Trazado_25251" data-name="Trazado 25251" d="M11564.214,1162.952l-4.665,5.293v46.819h72.681v-46.819l-6.561-7.394Z" transform="translate(-11559.549 -1160.851)" fill="#fcd118"/>
          </g>
          <g id="Grupo_14826" data-name="Grupo 14826" transform="translate(1.226 8.732)">
            <path id="Trazado_25252" data-name="Trazado 25252" d="M11605.262,1262.755l36.341-26.419h-71.454Z" transform="translate(-11570.148 -1236.336)" fill="#fcd118"/>
          </g>
          <g id="Grupo_14827" data-name="Grupo 14827" transform="translate(1.226 30.302)">
            <path id="Trazado_25253" data-name="Trazado 25253" d="M11570.149,1445.606l28.463-22.8Z" transform="translate(-11570.149 -1422.81)" fill="#fcd118"/>
          </g>
          <g id="Grupo_14828" data-name="Grupo 14828" transform="translate(44.255 30.302)">
            <path id="Trazado_25254" data-name="Trazado 25254" d="M11970.6,1445.606l-28.464-22.8Z" transform="translate(-11942.133 -1422.81)" fill="#fcd118"/>
          </g>
        </g>
        <g id="Grupo_14830" data-name="Grupo 14830" transform="translate(28.894 73.287)">
          <path id="Trazado_25255" data-name="Trazado 25255" d="M11350,1208.7v15.238h2.831V1213.78h7l-4.913-2.165,4.913-2.914Z" transform="translate(-11349.996 -1208.7)" fill="#5ed45e"/>
        </g>
        <g id="Grupo_14831" data-name="Grupo 14831" transform="translate(25.813 105.512)">
          <path id="Trazado_25256" data-name="Trazado 25256" d="M11323.36,1504.108l4.664-1.249v-15.571h-4.664Z" transform="translate(-11323.36 -1487.288)" fill="#5ed45e"/>
        </g>
        <g id="Grupo_14832" data-name="Grupo 14832" transform="translate(58.248 25.028)">
          <path id="Trazado_25257" data-name="Trazado 25257" d="M11603.766,800.245v45.636l31.166,23.525,29.207-21.226V812.321l4.164-20.821h-55.793A8.744,8.744,0,0,0,11603.766,800.245Z" transform="translate(-11603.766 -791.5)" fill="#fff"/>
        </g>
      </g>
      <g id="MAILING" transform="translate(11092.703 551.5)">
        <g id="Grupo_14833" data-name="Grupo 14833" transform="translate(165.595 100.768)">
          <path id="Trazado_25258" data-name="Trazado 25258" d="M12552.387,1506.5a1.157,1.157,0,1,0-.76,2.185,1.177,1.177,0,0,0,.38.064,1.156,1.156,0,0,0,.38-2.249Z" transform="translate(-12547.776 -1496.747)" fill="#1e243a"/>
          <path id="Trazado_25259" data-name="Trazado 25259" d="M12530.19,1442.842a1.157,1.157,0,0,0-1.229,1.961,1.157,1.157,0,0,0,1.229-1.961Z" transform="translate(-12527.94 -1440.349)" fill="#1e243a"/>
          <path id="Trazado_25260" data-name="Trazado 25260" d="M12525.056,1480.018a1.157,1.157,0,0,0,.383,2.249,1.175,1.175,0,0,0,.384-.066,1.157,1.157,0,1,0-.767-2.183Z" transform="translate(-12524.281 -1473.323)" fill="#1e243a"/>
          <path id="Trazado_25261" data-name="Trazado 25261" d="M12595.923,1436.921a1.157,1.157,0,0,0,1.637-1.637l0,0-.009-.009a1.157,1.157,0,1,0-1.632,1.641A.027.027,0,0,1,12595.923,1436.921Z" transform="translate(-12587.328 -1433.513)" fill="#1e243a"/>
          <path id="Trazado_25262" data-name="Trazado 25262" d="M12609.343,1470.435a1.156,1.156,0,1,0-.257,2.3,1.019,1.019,0,0,0,.13.008,1.157,1.157,0,0,0,.127-2.307Z" transform="translate(-12598.367 -1464.901)" fill="#1e243a"/>
          <path id="Trazado_25263" data-name="Trazado 25263" d="M12588.664,1502.383a1.156,1.156,0,1,0,1.6.361A1.156,1.156,0,0,0,12588.664,1502.383Z" transform="translate(-12580.738 -1493.002)" fill="#1e243a"/>
          <path id="Trazado_25264" data-name="Trazado 25264" d="M12561.16,1422.651a1.156,1.156,0,0,0,.13,2.305,1.34,1.34,0,0,0,.135-.007,1.157,1.157,0,0,0-.265-2.3Z" transform="translate(-12555.987 -1422.644)" fill="#1e243a"/>
        </g>
        <g id="Grupo_14834" data-name="Grupo 14834" transform="translate(164.785 65.95)">
          <path id="Trazado_25265" data-name="Trazado 25265" d="M12523.187,1141.842a1.157,1.157,0,0,0-1.229,1.961,1.157,1.157,0,0,0,1.229-1.961Z" transform="translate(-12520.938 -1139.349)" fill="#1e243a"/>
          <path id="Trazado_25266" data-name="Trazado 25266" d="M12545.387,1205.5a1.157,1.157,0,0,0-.76,2.186,1.157,1.157,0,0,0,.76-2.186Z" transform="translate(-12540.776 -1195.742)" fill="#1e243a"/>
          <path id="Trazado_25267" data-name="Trazado 25267" d="M12588.918,1135.916a.007.007,0,0,1,0,0,.092.092,0,0,0,.011.009,1.157,1.157,0,0,0,1.626-1.646h0l0,0a.038.038,0,0,0-.009-.009,1.157,1.157,0,0,0-1.632,1.641Z" transform="translate(-12580.327 -1132.513)" fill="#1e243a"/>
          <path id="Trazado_25268" data-name="Trazado 25268" d="M12518.057,1179.018a1.156,1.156,0,1,0,1.474.708A1.157,1.157,0,0,0,12518.057,1179.018Z" transform="translate(-12517.281 -1172.323)" fill="#1e243a"/>
          <path id="Trazado_25269" data-name="Trazado 25269" d="M12602.343,1169.433a1.156,1.156,0,1,0-.257,2.3.993.993,0,0,0,.129.008,1.157,1.157,0,0,0,.128-2.307Z" transform="translate(-12591.367 -1163.899)" fill="#1e243a"/>
          <path id="Trazado_25270" data-name="Trazado 25270" d="M12581.665,1201.38h0a1.156,1.156,0,1,0,1.6.361A1.155,1.155,0,0,0,12581.665,1201.381Z" transform="translate(-12573.74 -1191.999)" fill="#1e243a"/>
          <path id="Trazado_25271" data-name="Trazado 25271" d="M12554.158,1121.651a1.156,1.156,0,0,0,.131,2.305,1.3,1.3,0,0,0,.133-.007,1.157,1.157,0,0,0-.264-2.3Z" transform="translate(-12548.985 -1121.644)" fill="#1e243a"/>
        </g>
        <g id="Grupo_14835" data-name="Grupo 14835" transform="translate(136.214 35.181)">
          <path id="Trazado_25272" data-name="Trazado 25272" d="M12271.056,913.018a1.156,1.156,0,0,0,.383,2.247,1.155,1.155,0,0,0,1.091-1.54A1.155,1.155,0,0,0,12271.056,913.018Z" transform="translate(-12270.281 -906.323)" fill="#1e243a"/>
          <path id="Trazado_25273" data-name="Trazado 25273" d="M12276.19,875.842a1.158,1.158,0,1,0,.364,1.6A1.157,1.157,0,0,0,12276.19,875.842Z" transform="translate(-12273.94 -873.349)" fill="#1e243a"/>
          <path id="Trazado_25274" data-name="Trazado 25274" d="M12341.923,869.922a1.157,1.157,0,0,0,1.647-1.625c-.009-.008-.015-.016-.023-.024a1.157,1.157,0,0,0-1.632,1.641A.028.028,0,0,1,12341.923,869.922Z" transform="translate(-12333.328 -866.514)" fill="#1e243a"/>
          <path id="Trazado_25275" data-name="Trazado 25275" d="M12334.664,935.383a1.156,1.156,0,1,0,1.6.361A1.156,1.156,0,0,0,12334.664,935.383Z" transform="translate(-12326.738 -926.001)" fill="#1e243a"/>
          <path id="Trazado_25276" data-name="Trazado 25276" d="M12355.343,903.433a1.156,1.156,0,1,0-.257,2.3,1.008,1.008,0,0,0,.13.008,1.157,1.157,0,0,0,.127-2.307Z" transform="translate(-12344.367 -897.899)" fill="#1e243a"/>
          <path id="Trazado_25277" data-name="Trazado 25277" d="M12298.387,939.5a1.156,1.156,0,1,0,.713,1.471A1.156,1.156,0,0,0,12298.387,939.5Z" transform="translate(-12293.776 -929.747)" fill="#1e243a"/>
          <path id="Trazado_25278" data-name="Trazado 25278" d="M12307.158,855.651a1.156,1.156,0,0,0,.13,2.305,1.34,1.34,0,0,0,.135-.007,1.157,1.157,0,0,0-.265-2.3Z" transform="translate(-12301.985 -855.644)" fill="#1e243a"/>
        </g>
        <g id="Grupo_14836" data-name="Grupo 14836" transform="translate(115.971 2.214)">
          <path id="Trazado_25279" data-name="Trazado 25279" d="M12101.189,590.842a1.157,1.157,0,1,0,.365,1.6A1.156,1.156,0,0,0,12101.189,590.842Z" transform="translate(-12098.939 -588.349)" fill="#1e243a"/>
          <path id="Trazado_25280" data-name="Trazado 25280" d="M12166.92,584.916a.011.011,0,0,1,0,.006,1.158,1.158,0,1,0,1.638-1.637l0,0a.066.066,0,0,1-.008-.009,1.158,1.158,0,0,0-1.633,1.641Z" transform="translate(-12158.33 -581.514)" fill="#1e243a"/>
          <path id="Trazado_25281" data-name="Trazado 25281" d="M12096.058,628.018a1.156,1.156,0,1,0,1.473.708A1.156,1.156,0,0,0,12096.058,628.018Z" transform="translate(-12095.282 -621.323)" fill="#1e243a"/>
          <path id="Trazado_25282" data-name="Trazado 25282" d="M12132.16,570.652a1.156,1.156,0,0,0,.131,2.305,1.3,1.3,0,0,0,.133-.007,1.157,1.157,0,0,0-.264-2.3Z" transform="translate(-12126.986 -570.644)" fill="#1e243a"/>
          <path id="Trazado_25283" data-name="Trazado 25283" d="M12180.344,618.435a1.156,1.156,0,1,0-.257,2.3,1.234,1.234,0,0,0,.129.008,1.157,1.157,0,0,0,.128-2.307Z" transform="translate(-12169.368 -612.901)" fill="#1e243a"/>
          <path id="Trazado_25284" data-name="Trazado 25284" d="M12159.665,650.383h0a1.156,1.156,0,1,0,1.6.361A1.156,1.156,0,0,0,12159.664,650.383Z" transform="translate(-12151.739 -641.002)" fill="#1e243a"/>
          <path id="Trazado_25285" data-name="Trazado 25285" d="M12123.387,654.5a1.157,1.157,0,1,0-.761,2.185,1.18,1.18,0,0,0,.38.064,1.156,1.156,0,0,0,.381-2.249Z" transform="translate(-12118.775 -644.747)" fill="#1e243a"/>
        </g>
        <g id="Grupo_14837" data-name="Grupo 14837" transform="translate(38.586 2.214)">
          <path id="Trazado_25286" data-name="Trazado 25286" d="M11427.061,628.018a1.157,1.157,0,1,0,1.474.708A1.157,1.157,0,0,0,11427.061,628.018Z" transform="translate(-11426.287 -621.323)" fill="#1e243a"/>
          <path id="Trazado_25287" data-name="Trazado 25287" d="M11497.933,584.93a1.156,1.156,0,0,0,1.636-1.634l-.009-.012,0,0a.065.065,0,0,0-.008-.009,1.158,1.158,0,0,0-1.633,1.641Z" transform="translate(-11489.327 -581.513)" fill="#1e243a"/>
          <path id="Trazado_25288" data-name="Trazado 25288" d="M11454.386,654.5h0a1.157,1.157,0,0,0-.761,2.185,1.18,1.18,0,0,0,.38.064,1.156,1.156,0,0,0,.38-2.249Z" transform="translate(-11449.777 -644.747)" fill="#1e243a"/>
          <path id="Trazado_25289" data-name="Trazado 25289" d="M11432.188,590.842a1.157,1.157,0,1,0,.366,1.6A1.157,1.157,0,0,0,11432.188,590.842Z" transform="translate(-11429.94 -588.349)" fill="#1e243a"/>
          <path id="Trazado_25290" data-name="Trazado 25290" d="M11511.344,618.433a1.156,1.156,0,1,0-.257,2.3,1,1,0,0,0,.13.008,1.157,1.157,0,0,0,.127-2.307Z" transform="translate(-11500.368 -612.899)" fill="#1e243a"/>
          <path id="Trazado_25291" data-name="Trazado 25291" d="M11490.665,650.383a1.156,1.156,0,0,0,.618,2.134,1.142,1.142,0,0,0,.615-.178,1.156,1.156,0,1,0-1.233-1.956Z" transform="translate(-11482.74 -641.002)" fill="#1e243a"/>
          <path id="Trazado_25292" data-name="Trazado 25292" d="M11463.16,570.652a1.156,1.156,0,0,0,.129,2.305,1.306,1.306,0,0,0,.134-.007,1.157,1.157,0,0,0-.263-2.3Z" transform="translate(-11457.986 -570.644)" fill="#1e243a"/>
        </g>
        <g id="Grupo_14838" data-name="Grupo 14838" transform="translate(2.843 28.472)">
          <path id="Trazado_25293" data-name="Trazado 25293" d="M11123.188,817.841a1.157,1.157,0,1,0,.366,1.6A1.157,1.157,0,0,0,11123.188,817.841Z" transform="translate(-11120.939 -815.349)" fill="#1e243a"/>
          <path id="Trazado_25294" data-name="Trazado 25294" d="M11118.056,855.018a1.157,1.157,0,0,0,.384,2.249,1.157,1.157,0,1,0-.384-2.249Z" transform="translate(-11117.281 -848.323)" fill="#1e243a"/>
          <path id="Trazado_25295" data-name="Trazado 25295" d="M11145.387,881.5a1.157,1.157,0,0,0-.76,2.185,1.139,1.139,0,0,0,.38.064,1.156,1.156,0,0,0,.38-2.249Z" transform="translate(-11140.776 -871.747)" fill="#1e243a"/>
          <path id="Trazado_25296" data-name="Trazado 25296" d="M11188.919,811.916s0,0,0,.006a1.157,1.157,0,0,0,1.637-1.637l-.006,0-.007-.008a1.157,1.157,0,1,0-1.633,1.64Z" transform="translate(-11180.328 -808.514)" fill="#1e243a"/>
          <path id="Trazado_25297" data-name="Trazado 25297" d="M11202.344,845.433a1.156,1.156,0,1,0-.258,2.3.987.987,0,0,0,.13.008,1.157,1.157,0,0,0,.128-2.307Z" transform="translate(-11191.367 -839.899)" fill="#1e243a"/>
          <path id="Trazado_25298" data-name="Trazado 25298" d="M11154.159,797.652a1.156,1.156,0,0,0,.13,2.305,1.288,1.288,0,0,0,.133-.007,1.157,1.157,0,0,0-.263-2.3Z" transform="translate(-11148.985 -797.644)" fill="#1e243a"/>
          <path id="Trazado_25299" data-name="Trazado 25299" d="M11181.664,877.38h0a1.156,1.156,0,1,0,1.6.361A1.154,1.154,0,0,0,11181.664,877.381Z" transform="translate(-11173.738 -867.999)" fill="#1e243a"/>
        </g>
        <g id="Grupo_14841" data-name="Grupo 14841" transform="translate(170.617 125.621)">
          <g id="Grupo_14839" data-name="Grupo 14839" transform="translate(2.718)">
            <path id="Trazado_25300" data-name="Trazado 25300" d="M12592.07,1637.5a.867.867,0,0,0-.867.868v5.552a.868.868,0,0,0,1.735,0v-5.552A.869.869,0,0,0,12592.07,1637.5Z" transform="translate(-12591.203 -1637.5)" fill="#1e243a"/>
          </g>
          <g id="Grupo_14840" data-name="Grupo 14840" transform="translate(0 2.834)">
            <path id="Trazado_25301" data-name="Trazado 25301" d="M12574.123,1662h-5.552a.868.868,0,1,0,0,1.735h5.552a.868.868,0,0,0,0-1.735Z" transform="translate(-12567.703 -1662)" fill="#1e243a"/>
          </g>
        </g>
        <g id="Grupo_14844" data-name="Grupo 14844" transform="translate(1.504 125.621)">
          <g id="Grupo_14842" data-name="Grupo 14842" transform="translate(2.718)">
            <path id="Trazado_25302" data-name="Trazado 25302" d="M11130.071,1637.5a.868.868,0,0,0-.868.868v5.552a.868.868,0,0,0,1.735,0v-5.552A.868.868,0,0,0,11130.071,1637.5Z" transform="translate(-11129.203 -1637.5)" fill="#1e243a"/>
          </g>
          <g id="Grupo_14843" data-name="Grupo 14843" transform="translate(0 2.834)">
            <path id="Trazado_25303" data-name="Trazado 25303" d="M11112.122,1662h-5.552a.868.868,0,0,0,0,1.735h5.552a.868.868,0,1,0,0-1.735Z" transform="translate(-11105.703 -1662)" fill="#1e243a"/>
          </g>
        </g>
        <g id="Grupo_14847" data-name="Grupo 14847" transform="translate(28.687 39.213)">
          <g id="Grupo_14845" data-name="Grupo 14845" transform="translate(2.718)">
            <path id="Trazado_25304" data-name="Trazado 25304" d="M11365.071,890.5a.867.867,0,0,0-.868.868v5.552a.868.868,0,0,0,1.735,0v-5.552A.868.868,0,0,0,11365.071,890.5Z" transform="translate(-11364.203 -890.5)" fill="#1e243a"/>
          </g>
          <g id="Grupo_14846" data-name="Grupo 14846" transform="translate(0 2.834)">
            <path id="Trazado_25305" data-name="Trazado 25305" d="M11347.123,915h-5.553a.868.868,0,0,0,0,1.735h5.553a.868.868,0,1,0,0-1.735Z" transform="translate(-11340.703 -915)" fill="#1e243a"/>
          </g>
        </g>
        <g id="Grupo_14850" data-name="Grupo 14850" transform="translate(60.497 0)">
          <g id="Grupo_14848" data-name="Grupo 14848" transform="translate(2.718)">
            <path id="Trazado_25306" data-name="Trazado 25306" d="M11640.07,551.5a.868.868,0,0,0-.867.868v5.552a.867.867,0,1,0,1.734,0v-5.552A.866.866,0,0,0,11640.07,551.5Z" transform="translate(-11639.203 -551.5)" fill="#1e243a"/>
          </g>
          <g id="Grupo_14849" data-name="Grupo 14849" transform="translate(0 2.834)">
            <path id="Trazado_25307" data-name="Trazado 25307" d="M11622.124,576h-5.554a.868.868,0,0,0,0,1.735h5.554a.868.868,0,0,0,0-1.735Z" transform="translate(-11615.703 -576)" fill="#1e243a"/>
          </g>
        </g>
        <g id="Grupo_14853" data-name="Grupo 14853" transform="translate(98.553 10.295)">
          <g id="Grupo_14851" data-name="Grupo 14851" transform="translate(2.718)">
            <path id="Trazado_25308" data-name="Trazado 25308" d="M11969.071,640.5a.868.868,0,0,0-.868.868v5.552a.868.868,0,0,0,1.735,0v-5.552A.867.867,0,0,0,11969.071,640.5Z" transform="translate(-11968.203 -640.5)" fill="#1e243a"/>
          </g>
          <g id="Grupo_14852" data-name="Grupo 14852" transform="translate(0 2.834)">
            <path id="Trazado_25309" data-name="Trazado 25309" d="M11951.123,665h-5.553a.868.868,0,0,0,0,1.735h5.553a.868.868,0,0,0,0-1.735Z" transform="translate(-11944.703 -665)" fill="#1e243a"/>
          </g>
        </g>
        <g id="Grupo_14861" data-name="Grupo 14861" transform="translate(9.254 52.898)">
          <g id="Grupo_14854" data-name="Grupo 14854" transform="translate(0 83.627)">
            <path id="Trazado_25310" data-name="Trazado 25310" d="M11334.125,1731.767h-160.554a.867.867,0,0,0-.867.868v2.87a6.846,6.846,0,0,0,6.838,6.839h148.612a6.848,6.848,0,0,0,6.839-6.839v-2.87A.868.868,0,0,0,11334.125,1731.767Zm-.867,3.738a5.11,5.11,0,0,1-5.1,5.1h-148.612a5.109,5.109,0,0,1-5.1-5.1v-2h158.819Z" transform="translate(-11172.704 -1731.767)" fill="#1e243a"/>
          </g>
          <g id="Grupo_14855" data-name="Grupo 14855" transform="translate(68.778 83.825)">
            <path id="Trazado_25311" data-name="Trazado 25311" d="M11790.954,1733.477a.867.867,0,0,0-.867.868v3.347h-21.056v-3.347a.868.868,0,0,0-1.735,0v4.215a.868.868,0,0,0,.868.867h22.79a.868.868,0,0,0,.868-.867v-4.215A.868.868,0,0,0,11790.954,1733.477Z" transform="translate(-11767.296 -1733.477)" fill="#1e243a"/>
          </g>
          <g id="Grupo_14856" data-name="Grupo 14856" transform="translate(110.097)">
            <path id="Trazado_25312" data-name="Trazado 25312" d="M12163.576,1010.843a7.527,7.527,0,0,0-5.2-2.039h-33.006a.868.868,0,1,0,0,1.735h33.006a5.485,5.485,0,0,1,5.667,5.412v76.3a.868.868,0,0,0,1.735,0v-76.3A6.972,6.972,0,0,0,12163.576,1010.843Z" transform="translate(-12124.5 -1008.804)" fill="#1e243a"/>
          </g>
          <g id="Grupo_14857" data-name="Grupo 14857" transform="translate(10.71)">
            <path id="Trazado_25313" data-name="Trazado 25313" d="M11303.773,1008.8h-30.955a7.354,7.354,0,0,0-7.53,7.147v15.976a.868.868,0,0,0,1.735,0v-15.976a5.62,5.62,0,0,1,5.795-5.412h30.955a.868.868,0,0,0,0-1.735Z" transform="translate(-11265.288 -1008.804)" fill="#1e243a"/>
          </g>
          <g id="Grupo_14858" data-name="Grupo 14858" transform="translate(10.71 71.717)">
            <path id="Trazado_25314" data-name="Trazado 25314" d="M11266.155,1628.8a.868.868,0,0,0-.867.868v11.484a.868.868,0,0,0,1.735,0v-11.484A.868.868,0,0,0,11266.155,1628.8Z" transform="translate(-11265.288 -1628.8)" fill="#1e243a"/>
          </g>
          <g id="Grupo_14859" data-name="Grupo 14859" transform="translate(20.075 9.054)">
            <path id="Trazado_25315" data-name="Trazado 25315" d="M11375.378,1087.074h-28.253a.868.868,0,0,0-.868.868v12.195a.868.868,0,0,0,1.735,0v-11.327h27.386a.868.868,0,0,0,0-1.735Z" transform="translate(-11346.257 -1087.074)" fill="#1e243a"/>
          </g>
          <g id="Grupo_14860" data-name="Grupo 14860" transform="translate(20.075 9.054)">
            <path id="Trazado_25316" data-name="Trazado 25316" d="M11467.633,1087.074h-30.486a.868.868,0,1,0,0,1.735h29.619v65.33l-118.773.069v-3.6a.868.868,0,0,0-1.735,0v4.472a.867.867,0,0,0,.868.867h0l120.507-.07a.868.868,0,0,0,.868-.868v-67.065A.868.868,0,0,0,11467.633,1087.074Z" transform="translate(-11346.257 -1087.074)" fill="#1e243a"/>
          </g>
        </g>
        <g id="Grupo_14901" data-name="Grupo 14901" transform="translate(53.134 26.894)">
          <g id="Grupo_14866" data-name="Grupo 14866" transform="translate(0 42.724)">
            <g id="Grupo_14862" data-name="Grupo 14862">
              <path id="Trazado_25317" data-name="Trazado 25317" d="M11619.686,1153.643a.868.868,0,0,0-1.3,1.151l6.341,7.148v45.622h-70.943V1161.94l4.447-5.047a.867.867,0,1,0-1.3-1.147l-4.666,5.293a.871.871,0,0,0-.216.574v46.819a.867.867,0,0,0,.867.868h72.68a.867.867,0,0,0,.867-.868v-46.819a.868.868,0,0,0-.218-.576Z" transform="translate(-11552.049 -1153.351)" fill="#1e243a"/>
            </g>
            <g id="Grupo_14863" data-name="Grupo 14863" transform="translate(1.226 8.731)">
              <path id="Trazado_25318" data-name="Trazado 25318" d="M11634.459,1229l-35.82,26.042-34.6-26.033a.868.868,0,1,0-1.043,1.387l35.113,26.419a.867.867,0,0,0,1.031.008l36.341-26.419a.868.868,0,1,0-1.021-1.4Z" transform="translate(-11562.647 -1228.835)" fill="#1e243a"/>
            </g>
            <g id="Grupo_14864" data-name="Grupo 14864" transform="translate(1.226 30.302)">
              <path id="Trazado_25319" data-name="Trazado 25319" d="M11591.437,1415.5l-28.464,22.8a.868.868,0,0,0,1.085,1.354l28.464-22.8a.868.868,0,1,0-1.085-1.354Z" transform="translate(-11562.647 -1415.31)" fill="#1e243a"/>
            </g>
            <g id="Grupo_14865" data-name="Grupo 14865" transform="translate(44.255 30.302)">
              <path id="Trazado_25320" data-name="Trazado 25320" d="M11964.506,1438.3l-28.463-22.8a.868.868,0,1,0-1.085,1.354l28.464,22.8a.867.867,0,0,0,1.084-1.354Z" transform="translate(-11934.633 -1415.31)" fill="#1e243a"/>
            </g>
          </g>
          <g id="Grupo_14867" data-name="Grupo 14867" transform="translate(5.115)">
            <path id="Trazado_25321" data-name="Trazado 25321" d="M11661.671,784h-55.794a9.624,9.624,0,0,0-9.612,9.613v45.636a.867.867,0,1,0,1.734,0V793.613a7.887,7.887,0,0,1,7.878-7.878h55.794a.868.868,0,0,0,0-1.735Z" transform="translate(-11596.265 -784)" fill="#1e243a"/>
          </g>
          <g id="Grupo_14868" data-name="Grupo 14868" transform="translate(65.489)">
            <path id="Trazado_25322" data-name="Trazado 25322" d="M12123.929,784a5.733,5.733,0,0,0-5.726,5.726v15.963a.867.867,0,0,0,.868.868h9.716a.868.868,0,0,0,.868-.868V789.726A5.733,5.733,0,0,0,12123.929,784Zm3.991,20.821h-7.981v-15.1a3.991,3.991,0,1,1,7.981,0Z" transform="translate(-12118.203 -784)" fill="#1e243a"/>
          </g>
          <g id="Grupo_14869" data-name="Grupo 14869" transform="translate(65.489 20.821)">
            <path id="Trazado_25323" data-name="Trazado 25323" d="M12119.071,964a.867.867,0,0,0-.868.868v35.859a.868.868,0,0,0,1.735,0V964.868A.868.868,0,0,0,12119.071,964Z" transform="translate(-12118.203 -964)" fill="#1e243a"/>
          </g>
          <g id="Grupo_14873" data-name="Grupo 14873" transform="translate(11.817 12.377)">
            <g id="Grupo_14870" data-name="Grupo 14870">
              <path id="Trazado_25324" data-name="Trazado 25324" d="M11658.541,891h-3.47a.868.868,0,1,0,0,1.735h3.47a.868.868,0,0,0,0-1.735Z" transform="translate(-11654.203 -891)" fill="#1e243a"/>
            </g>
            <g id="Grupo_14871" data-name="Grupo 14871" transform="translate(9.022)">
              <path id="Trazado_25325" data-name="Trazado 25325" d="M11748.224,891h-15.153a.868.868,0,0,0,0,1.735h15.153a.868.868,0,0,0,0-1.735Z" transform="translate(-11732.203 -891)" fill="#1e243a"/>
            </g>
            <g id="Grupo_14872" data-name="Grupo 14872" transform="translate(31)">
              <path id="Trazado_25326" data-name="Trazado 25326" d="M11939.266,891h-16.194a.868.868,0,1,0,0,1.735h16.194a.868.868,0,0,0,0-1.735Z" transform="translate(-11922.203 -891)" fill="#1e243a"/>
            </g>
          </g>
          <g id="Grupo_14876" data-name="Grupo 14876" transform="translate(11.817 17.698)">
            <g id="Grupo_14874" data-name="Grupo 14874">
              <path id="Trazado_25327" data-name="Trazado 25327" d="M11666.522,937h-11.451a.868.868,0,1,0,0,1.735h11.451a.868.868,0,0,0,0-1.735Z" transform="translate(-11654.203 -937)" fill="#1e243a"/>
            </g>
            <g id="Grupo_14875" data-name="Grupo 14875" transform="translate(18.392)">
              <path id="Trazado_25328" data-name="Trazado 25328" d="M11842.874,937h-28.8a.868.868,0,0,0,0,1.735h28.8a.868.868,0,1,0,0-1.735Z" transform="translate(-11813.204 -937)" fill="#1e243a"/>
            </g>
          </g>
          <g id="Grupo_14880" data-name="Grupo 14880" transform="translate(11.817 23.019)">
            <g id="Grupo_14877" data-name="Grupo 14877">
              <path id="Trazado_25329" data-name="Trazado 25329" d="M11658.541,983h-3.47a.868.868,0,1,0,0,1.735h3.47a.868.868,0,0,0,0-1.735Z" transform="translate(-11654.203 -983)" fill="#1e243a"/>
            </g>
            <g id="Grupo_14878" data-name="Grupo 14878" transform="translate(9.022)">
              <path id="Trazado_25330" data-name="Trazado 25330" d="M11748.224,983h-15.153a.868.868,0,0,0,0,1.735h15.153a.868.868,0,0,0,0-1.735Z" transform="translate(-11732.203 -983)" fill="#1e243a"/>
            </g>
            <g id="Grupo_14879" data-name="Grupo 14879" transform="translate(31)">
              <path id="Trazado_25331" data-name="Trazado 25331" d="M11939.266,983h-16.194a.868.868,0,1,0,0,1.735h16.194a.868.868,0,0,0,0-1.735Z" transform="translate(-11922.203 -983)" fill="#1e243a"/>
            </g>
          </g>
          <g id="Grupo_14883" data-name="Grupo 14883" transform="translate(11.817 28.34)">
            <g id="Grupo_14881" data-name="Grupo 14881">
              <path id="Trazado_25332" data-name="Trazado 25332" d="M11666.522,1029h-11.451a.868.868,0,1,0,0,1.735h11.451a.868.868,0,0,0,0-1.735Z" transform="translate(-11654.203 -1029)" fill="#1e243a"/>
            </g>
            <g id="Grupo_14882" data-name="Grupo 14882" transform="translate(18.392)">
              <path id="Trazado_25333" data-name="Trazado 25333" d="M11842.874,1029h-28.8a.868.868,0,0,0,0,1.735h28.8a.868.868,0,1,0,0-1.735Z" transform="translate(-11813.204 -1029)" fill="#1e243a"/>
            </g>
          </g>
          <g id="Grupo_14887" data-name="Grupo 14887" transform="translate(11.817 33.661)">
            <g id="Grupo_14884" data-name="Grupo 14884">
              <path id="Trazado_25334" data-name="Trazado 25334" d="M11658.541,1075h-3.47a.868.868,0,1,0,0,1.735h3.47a.868.868,0,0,0,0-1.735Z" transform="translate(-11654.203 -1075)" fill="#1e243a"/>
            </g>
            <g id="Grupo_14885" data-name="Grupo 14885" transform="translate(9.022)">
              <path id="Trazado_25335" data-name="Trazado 25335" d="M11748.224,1075h-15.153a.868.868,0,0,0,0,1.735h15.153a.868.868,0,0,0,0-1.735Z" transform="translate(-11732.203 -1075)" fill="#1e243a"/>
            </g>
            <g id="Grupo_14886" data-name="Grupo 14886" transform="translate(31)">
              <path id="Trazado_25336" data-name="Trazado 25336" d="M11939.266,1075h-16.194a.868.868,0,1,0,0,1.735h16.194a.868.868,0,0,0,0-1.735Z" transform="translate(-11922.203 -1075)" fill="#1e243a"/>
            </g>
          </g>
          <g id="Grupo_14890" data-name="Grupo 14890" transform="translate(11.817 38.982)">
            <g id="Grupo_14888" data-name="Grupo 14888">
              <path id="Trazado_25337" data-name="Trazado 25337" d="M11666.522,1121h-11.451a.868.868,0,1,0,0,1.735h11.451a.868.868,0,0,0,0-1.735Z" transform="translate(-11654.203 -1121)" fill="#1e243a"/>
            </g>
            <g id="Grupo_14889" data-name="Grupo 14889" transform="translate(18.392)">
              <path id="Trazado_25338" data-name="Trazado 25338" d="M11842.874,1121h-28.8a.868.868,0,0,0,0,1.735h28.8a.868.868,0,1,0,0-1.735Z" transform="translate(-11813.204 -1121)" fill="#1e243a"/>
            </g>
          </g>
          <g id="Grupo_14894" data-name="Grupo 14894" transform="translate(11.817 44.303)">
            <g id="Grupo_14891" data-name="Grupo 14891">
              <path id="Trazado_25339" data-name="Trazado 25339" d="M11658.541,1167h-3.47a.868.868,0,1,0,0,1.735h3.47a.868.868,0,0,0,0-1.735Z" transform="translate(-11654.203 -1167)" fill="#1e243a"/>
            </g>
            <g id="Grupo_14892" data-name="Grupo 14892" transform="translate(9.022)">
              <path id="Trazado_25340" data-name="Trazado 25340" d="M11748.224,1167h-15.153a.868.868,0,0,0,0,1.735h15.153a.868.868,0,0,0,0-1.735Z" transform="translate(-11732.203 -1167)" fill="#1e243a"/>
            </g>
            <g id="Grupo_14893" data-name="Grupo 14893" transform="translate(31)">
              <path id="Trazado_25341" data-name="Trazado 25341" d="M11939.266,1167h-16.194a.868.868,0,1,0,0,1.735h16.194a.868.868,0,0,0,0-1.735Z" transform="translate(-11922.203 -1167)" fill="#1e243a"/>
            </g>
          </g>
          <g id="Grupo_14897" data-name="Grupo 14897" transform="translate(11.817 49.624)">
            <g id="Grupo_14895" data-name="Grupo 14895">
              <path id="Trazado_25342" data-name="Trazado 25342" d="M11666.522,1213h-11.451a.868.868,0,1,0,0,1.735h11.451a.868.868,0,0,0,0-1.735Z" transform="translate(-11654.203 -1213)" fill="#1e243a"/>
            </g>
            <g id="Grupo_14896" data-name="Grupo 14896" transform="translate(18.392)">
              <path id="Trazado_25343" data-name="Trazado 25343" d="M11842.874,1213h-28.8a.868.868,0,0,0,0,1.735h28.8a.868.868,0,1,0,0-1.735Z" transform="translate(-11813.204 -1213)" fill="#1e243a"/>
            </g>
          </g>
          <g id="Grupo_14898" data-name="Grupo 14898" transform="translate(10.181 54.366)">
            <path id="Trazado_25344" data-name="Trazado 25344" d="M11658.3,1254h-17.367a.867.867,0,0,0-.867.868v3.827a.868.868,0,1,0,1.735,0v-2.959h16.5a.868.868,0,1,0,0-1.735Z" transform="translate(-11640.062 -1254)" fill="#1e243a"/>
          </g>
          <g id="Grupo_14899" data-name="Grupo 14899" transform="translate(34.141 54.366)">
            <path id="Trazado_25345" data-name="Trazado 25345" d="M11874.676,1254h-26.6a.868.868,0,1,0,0,1.735h25.737v4.328a.867.867,0,1,0,1.734,0v-5.2A.868.868,0,0,0,11874.676,1254Z" transform="translate(-11847.203 -1254)" fill="#1e243a"/>
          </g>
          <g id="Grupo_14900" data-name="Grupo 14900" transform="translate(25.648 69.802)">
            <path id="Trazado_25346" data-name="Trazado 25346" d="M11796.442,1387.445h-21.795a.868.868,0,1,0,0,1.735h21.795a.868.868,0,1,0,0-1.735Z" transform="translate(-11773.779 -1387.445)" fill="#1e243a"/>
          </g>
        </g>
        <g id="Grupo_14906" data-name="Grupo 14906" transform="translate(0.956 1.866)">
          <g id="Grupo_14902" data-name="Grupo 14902">
            <path id="Trazado_25347" data-name="Trazado 25347" d="M11136.8,581.608l-25.618-13.874a.867.867,0,0,0-1.176.35l-8.937,16.5a.868.868,0,0,0,.35,1.176l25.618,13.874a.869.869,0,0,0,1.177-.35l8.937-16.5a.866.866,0,0,0-.35-1.176Zm-9.7,16.089-24.092-13.048,8.111-14.977,24.093,13.048Z" transform="translate(-11100.969 -567.629)" fill="#1e243a"/>
          </g>
          <g id="Grupo_14903" data-name="Grupo 14903" transform="translate(9.114 0.706)">
            <path id="Trazado_25348" data-name="Trazado 25348" d="M11205.7,587.376l-17.217,2.29-7.066-15.432a.867.867,0,0,0-1.577.722l7.333,16.015a.868.868,0,0,0,.9.5l17.854-2.375a.868.868,0,0,0-.229-1.72Z" transform="translate(-11179.76 -573.728)" fill="#1e243a"/>
          </g>
          <g id="Grupo_14904" data-name="Grupo 14904" transform="translate(0.645 13.742)">
            <path id="Trazado_25349" data-name="Trazado 25349" d="M11121.642,686.444l-14.384,2.6a.868.868,0,0,0,.153,1.721.883.883,0,0,0,.155-.014l14.384-2.6a.868.868,0,1,0-.309-1.707Z" transform="translate(-11106.544 -686.43)" fill="#1e243a"/>
          </g>
          <g id="Grupo_14905" data-name="Grupo 14905" transform="translate(20.163 16.522)">
            <path id="Trazado_25350" data-name="Trazado 25350" d="M11276.945,711a.868.868,0,1,0-1.6.674l5.682,13.469a.868.868,0,0,0,1.6-.674Z" transform="translate(-11275.278 -710.465)" fill="#1e243a"/>
          </g>
        </g>
        <g id="Grupo_14907" data-name="Grupo 14907" transform="translate(35.222 13.129)">
          <path id="Trazado_25351" data-name="Trazado 25351" d="M11458.251,946.622a3.982,3.982,0,0,1-1.786-1.513.868.868,0,0,0-1.459.94,5.722,5.722,0,0,0,2.563,2.168.867.867,0,1,0,.683-1.595Z" transform="translate(-11448.197 -912.357)" fill="#1e243a"/>
          <path id="Trazado_25352" data-name="Trazado 25352" d="M11518.925,934.825a.867.867,0,0,0-1.09.563,3.986,3.986,0,0,1-1.336,1.922.867.867,0,1,0,1.073,1.363,5.712,5.712,0,0,0,1.916-2.758A.869.869,0,0,0,11518.925,934.825Z" transform="translate(-11502.407 -903.577)" fill="#1e243a"/>
          <path id="Trazado_25353" data-name="Trazado 25353" d="M11533.071,865a.868.868,0,0,0-.868.868v2.892a.868.868,0,0,0,1.735,0v-2.892A.867.867,0,0,0,11533.071,865Z" transform="translate(-11516.587 -841.862)" fill="#1e243a"/>
          <path id="Trazado_25354" data-name="Trazado 25354" d="M11401.24,769.409a5.689,5.689,0,0,0-2.129-.409h-1.04a.868.868,0,1,0,0,1.735h1.04a3.977,3.977,0,0,1,1.484.285.867.867,0,1,0,.645-1.611Z" transform="translate(-11397.203 -756.97)" fill="#1e243a"/>
          <path id="Trazado_25355" data-name="Trazado 25355" d="M11533.071,795a.868.868,0,0,0-.868.867v2.892a.868.868,0,0,0,1.735,0v-2.892A.867.867,0,0,0,11533.071,795Z" transform="translate(-11516.587 -779.959)" fill="#1e243a"/>
          <path id="Trazado_25356" data-name="Trazado 25356" d="M11447.943,809.774a.868.868,0,0,0,1.735,0v-2.313a5.628,5.628,0,0,0-.04-.679.867.867,0,1,0-1.723.2,4.044,4.044,0,0,1,.027.474Z" transform="translate(-11442.045 -789.704)" fill="#1e243a"/>
          <path id="Trazado_25357" data-name="Trazado 25357" d="M11449.938,879.763v-2.892a.868.868,0,0,0-1.735,0v2.892a.868.868,0,0,0,1.735,0Z" transform="translate(-11442.304 -851.597)" fill="#1e243a"/>
          <path id="Trazado_25358" data-name="Trazado 25358" d="M11533.071,725a.868.868,0,0,0-.868.868v2.892a.868.868,0,0,0,1.735,0v-2.892A.867.867,0,0,0,11533.071,725Z" transform="translate(-11516.587 -718.056)" fill="#1e243a"/>
          <path id="Trazado_25359" data-name="Trazado 25359" d="M11819.179,665.194a5.732,5.732,0,0,0-1.482-.194h-1.618a.868.868,0,1,0,0,1.735h1.618a4.012,4.012,0,0,1,1.035.135.867.867,0,0,0,.447-1.676Z" transform="translate(-11766.858 -665)" fill="#1e243a"/>
          <path id="Trazado_25360" data-name="Trazado 25360" d="M11870.693,697.127a.869.869,0,0,0-.641,1.047,4,4,0,0,1,.112.941v1.736a.868.868,0,0,0,1.735,0v-1.736a5.733,5.733,0,0,0-.161-1.349A.866.866,0,0,0,11870.693,697.127Z" transform="translate(-11815.335 -693.389)" fill="#1e243a"/>
          <path id="Trazado_25361" data-name="Trazado 25361" d="M11748.969,665h-2.892a.868.868,0,0,0,0,1.735h2.892a.868.868,0,1,0,0-1.735Z" transform="translate(-11704.955 -665)" fill="#1e243a"/>
          <path id="Trazado_25362" data-name="Trazado 25362" d="M11608.97,665h-2.892a.868.868,0,1,0,0,1.735h2.892a.868.868,0,0,0,0-1.735Z" transform="translate(-11581.149 -665)" fill="#1e243a"/>
          <path id="Trazado_25363" data-name="Trazado 25363" d="M11678.97,665h-2.892a.868.868,0,1,0,0,1.735h2.892a.868.868,0,0,0,0-1.735Z" transform="translate(-11643.052 -665)" fill="#1e243a"/>
          <path id="Trazado_25364" data-name="Trazado 25364" d="M11543.465,667.342a5.719,5.719,0,0,0-2.712,1.98.868.868,0,0,0,1.389,1.041,3.981,3.981,0,0,1,1.891-1.381.868.868,0,0,0-.567-1.64Z" transform="translate(-11523.994 -667.029)" fill="#1e243a"/>
        </g>
        <g id="Grupo_14915" data-name="Grupo 14915" transform="translate(140.272 0.921)">
          <g id="Grupo_14909" data-name="Grupo 14909" transform="translate(9.966 10.088)">
            <g id="Grupo_14908" data-name="Grupo 14908">
              <path id="Trazado_25365" data-name="Trazado 25365" d="M12408,648.831a10.756,10.756,0,0,0-13.7.624,9.367,9.367,0,0,0-2.776,6.879,8.232,8.232,0,0,0,2.6,6.39,9.616,9.616,0,0,0,6.749,2.377,12.714,12.714,0,0,0,4.946-.82v-2.147a10.952,10.952,0,0,1-4.632.967,7.219,7.219,0,0,1-5.2-1.8,6.486,6.486,0,0,1-1.883-4.923,7.642,7.642,0,0,1,2.131-5.468,7.062,7.062,0,0,1,5.344-2.242,6.312,6.312,0,0,1,4.677,1.68,5.85,5.85,0,0,1,1.674,4.31,7.114,7.114,0,0,1-.584,3.113q-.584,1.191-1.483,1.191-.854,0-.855-1.573,0-1.472.507-6.26h-2.529l-.112,1.113h-.045a1.945,1.945,0,0,0-2.1-1.315,3.967,3.967,0,0,0-3.17,1.613,6.413,6.413,0,0,0-1.314,4.187,4.679,4.679,0,0,0,.949,3.113,3.113,3.113,0,0,0,2.5,1.124,2.873,2.873,0,0,0,2.854-2.147h.067a2.119,2.119,0,0,0,.753,1.551,2.69,2.69,0,0,0,1.81.6,4.821,4.821,0,0,0,3.788-1.759,6.869,6.869,0,0,0,1.528-4.67A7.172,7.172,0,0,0,12408,648.831Zm-5.939,9.02a1.846,1.846,0,0,1-1.664,1.135,1.322,1.322,0,0,1-1.118-.6,2.839,2.839,0,0,1-.433-1.68,5.446,5.446,0,0,1,.635-2.669,1.876,1.876,0,0,1,1.647-1.152,1.369,1.369,0,0,1,1.117.517,2.172,2.172,0,0,1,.422,1.416A6.46,6.46,0,0,1,12402.059,657.85Z" transform="translate(-12391.526 -646.667)" fill="#1e243a"/>
            </g>
          </g>
          <g id="Grupo_14914" data-name="Grupo 14914">
            <g id="Grupo_14910" data-name="Grupo 14910" transform="translate(0.362 23.976)">
              <path id="Trazado_25366" data-name="Trazado 25366" d="M12327.285,779.631a18,18,0,0,1-17.095-12.3.868.868,0,0,0-1.646.55,19.735,19.735,0,0,0,18.741,13.489.868.868,0,1,0,0-1.735Z" transform="translate(-12308.499 -766.735)" fill="#1e243a"/>
            </g>
            <g id="Grupo_14911" data-name="Grupo 14911" transform="translate(25.355 0.465)">
              <path id="Trazado_25367" data-name="Trazado 25367" d="M12525.756,563.538a.867.867,0,1,0-.648,1.609,18.027,18.027,0,0,1,3.8,31.329.868.868,0,0,0,1.018,1.406,19.761,19.761,0,0,0-4.166-34.344Z" transform="translate(-12524.563 -563.475)" fill="#1e243a"/>
            </g>
            <g id="Grupo_14912" data-name="Grupo 14912">
              <path id="Trazado_25368" data-name="Trazado 25368" d="M12318.457,559.5a19.791,19.791,0,0,0-13.062,13.82.867.867,0,1,0,1.679.437,18.164,18.164,0,0,1,11.915-12.606.867.867,0,0,0-.531-1.652Z" transform="translate(-12305.366 -559.458)" fill="#1e243a"/>
            </g>
            <g id="Grupo_14913" data-name="Grupo 14913" transform="translate(3.515 3.229)">
              <path id="Trazado_25369" data-name="Trazado 25369" d="M12351.409,587.373a15.657,15.657,0,1,0,15.657,15.657A15.674,15.674,0,0,0,12351.409,587.373Zm0,29.578a13.922,13.922,0,1,1,13.922-13.921A13.937,13.937,0,0,1,12351.409,616.951Z" transform="translate(-12335.753 -587.373)" fill="#1e243a"/>
            </g>
          </g>
        </g>
        <g id="Grupo_14927" data-name="Grupo 14927" transform="translate(0 75.153)">
          <g id="Grupo_14925" data-name="Grupo 14925" transform="translate(5.079)">
            <g id="Grupo_14916" data-name="Grupo 14916" transform="translate(0 10.742)">
              <path id="Trazado_25370" data-name="Trazado 25370" d="M11145.31,1294.063a8.7,8.7,0,0,0-8.7,8.695V1316a.867.867,0,0,0,.867.868h15.654a.867.867,0,0,0,.867-.868v-13.24A8.7,8.7,0,0,0,11145.31,1294.063Zm6.96,21.067h-13.92v-12.372a6.96,6.96,0,0,1,13.92,0Z" transform="translate(-11136.614 -1294.063)" fill="#1e243a"/>
            </g>
            <g id="Grupo_14917" data-name="Grupo 14917" transform="translate(14.347 10.742)">
              <path id="Trazado_25371" data-name="Trazado 25371" d="M11278.174,1294.063h-4.13a.867.867,0,0,0,0,1.735h4.13a6.6,6.6,0,0,1,6.594,6.594v12.738h-23.255a.868.868,0,1,0,0,1.735h24.123a.868.868,0,0,0,.867-.868v-13.606A8.338,8.338,0,0,0,11278.174,1294.063Z" transform="translate(-11260.645 -1294.063)" fill="#1e243a"/>
            </g>
            <g id="Grupo_14918" data-name="Grupo 14918" transform="translate(7.827 10.742)">
              <path id="Trazado_25372" data-name="Trazado 25372" d="M11220.954,1294.063h-15.8a.867.867,0,1,0,0,1.735h15.8a.867.867,0,0,0,0-1.735Z" transform="translate(-11204.282 -1294.063)" fill="#1e243a"/>
            </g>
            <g id="Grupo_14919" data-name="Grupo 14919" transform="translate(23.815)">
              <path id="Trazado_25373" data-name="Trazado 25373" d="M11353.539,1206.353l-3.371-1.485,3.463-2.054a.867.867,0,0,0-.441-1.614h-9.826a.867.867,0,0,0-.867.868v15.238a.868.868,0,0,0,1.735,0v-14.371h5.795l-2.193,1.3a.868.868,0,0,0,.093,1.54l1.143.5h-2.874a.867.867,0,0,0-.867.868v10.159a.868.868,0,0,0,1.735,0v-9.291h6.127a.868.868,0,0,0,.35-1.662Z" transform="translate(-11342.496 -1201.2)" fill="#1e243a"/>
            </g>
            <g id="Grupo_14920" data-name="Grupo 14920" transform="translate(2.803 13.864)">
              <path id="Trazado_25374" data-name="Trazado 25374" d="M11166.671,1321.068c-3.769.571-5.942,3.453-5.817,7.711a.869.869,0,0,0,.867.842h.026a.867.867,0,0,0,.841-.893c-.135-4.579,2.663-5.69,4.343-5.945a.868.868,0,1,0-.26-1.715Z" transform="translate(-11160.849 -1321.058)" fill="#1e243a"/>
            </g>
            <g id="Grupo_14921" data-name="Grupo 14921" transform="translate(2.808 23.107)">
              <path id="Trazado_25375" data-name="Trazado 25375" d="M11161.759,1400.964a.867.867,0,0,0-.868.868v1.832a.868.868,0,0,0,1.735,0v-1.832A.868.868,0,0,0,11161.759,1400.964Z" transform="translate(-11160.891 -1400.964)" fill="#1e243a"/>
            </g>
            <g id="Grupo_14922" data-name="Grupo 14922" transform="translate(18.948 24.939)">
              <path id="Trazado_25376" data-name="Trazado 25376" d="M11311.535,1416.8h-1.613a.867.867,0,0,0,0,1.735h.745v1.845h-8.507v-1.845h5.042a.867.867,0,0,0,0-1.735h-5.909a.868.868,0,0,0-.867.867v3.581a.868.868,0,0,0,.867.868h10.242a.867.867,0,0,0,.867-.868v-3.581A.867.867,0,0,0,11311.535,1416.8Z" transform="translate(-11300.426 -1416.798)" fill="#1e243a"/>
            </g>
            <g id="Grupo_14923" data-name="Grupo 14923" transform="translate(20.734 32.225)">
              <path id="Trazado_25377" data-name="Trazado 25377" d="M11316.728,1479.788a.868.868,0,0,0-.867.868v16.82a.868.868,0,0,0,1.735,0v-16.82A.868.868,0,0,0,11316.728,1479.788Z" transform="translate(-11315.86 -1479.788)" fill="#1e243a"/>
            </g>
            <g id="Grupo_14924" data-name="Grupo 14924" transform="translate(25.397 32.225)">
              <path id="Trazado_25378" data-name="Trazado 25378" d="M11357.04,1479.788a.867.867,0,0,0-.867.868v15.571a.868.868,0,0,0,1.735,0v-15.571A.868.868,0,0,0,11357.04,1479.788Z" transform="translate(-11356.173 -1479.788)" fill="#1e243a"/>
            </g>
          </g>
          <g id="Grupo_14926" data-name="Grupo 14926" transform="translate(0 0.416)">
            <path id="Trazado_25379" data-name="Trazado 25379" d="M11133.235,1209.807a.867.867,0,1,0-1.035,1.392,23.658,23.658,0,1,1-14.106-4.664,23.978,23.978,0,0,1,3.516.259.868.868,0,1,0,.255-1.716,25.7,25.7,0,0,0-3.771-.278,25.373,25.373,0,1,0,22.6,13.8A25.623,25.623,0,0,0,11133.235,1209.807Z" transform="translate(-11092.703 -1204.8)" fill="#1e243a"/>
          </g>
        </g>
        <g id="Grupo_14928" data-name="Grupo 14928" transform="translate(1.562 39.542)">
          <path id="Trazado_25380" data-name="Trazado 25380" d="M11107.938,1030.83v-1.967a.867.867,0,1,0-1.734,0v1.967a5.726,5.726,0,0,0,.1,1.082.868.868,0,0,0,.852.7.849.849,0,0,0,.164-.016.868.868,0,0,0,.689-1.015A4.073,4.073,0,0,1,11107.938,1030.83Z" transform="translate(-11106.203 -1012.42)" fill="#1e243a"/>
          <path id="Trazado_25381" data-name="Trazado 25381" d="M11130.225,919.177a3.944,3.944,0,0,1,1.827-.442h.58a.868.868,0,0,0,0-1.735h-.58a5.745,5.745,0,0,0-2.624.636.868.868,0,0,0,.8,1.542Z" transform="translate(-11126.327 -914.264)" fill="#1e243a"/>
          <path id="Trazado_25382" data-name="Trazado 25382" d="M11107.07,962.622a.868.868,0,0,0,.867-.867v-2.776c0-.032,0-.064,0-.1a.866.866,0,0,0-.846-.888h-.021a.868.868,0,0,0-.867.847c0,.045,0,.091,0,.137v2.776A.868.868,0,0,0,11107.07,962.622Z" transform="translate(-11106.203 -950.517)" fill="#1e243a"/>
          <path id="Trazado_25383" data-name="Trazado 25383" d="M11139.142,1085.244h-1.388a3.991,3.991,0,0,1-1.217-.188.868.868,0,0,0-.527,1.653,5.723,5.723,0,0,0,1.744.271h1.388a.868.868,0,1,0,0-1.735Z" transform="translate(-11132.027 -1062.843)" fill="#1e243a"/>
          <path id="Trazado_25384" data-name="Trazado 25384" d="M11201.968,917h-2.892a.868.868,0,0,0,0,1.735h2.892a.868.868,0,1,0,0-1.735Z" transform="translate(-11187.566 -914.264)" fill="#1e243a"/>
          <path id="Trazado_25385" data-name="Trazado 25385" d="M11205.071,1176a.867.867,0,0,0-.868.868v2.892a.868.868,0,0,0,1.735,0v-2.892A.868.868,0,0,0,11205.071,1176Z" transform="translate(-11192.867 -1143.305)" fill="#1e243a"/>
          <path id="Trazado_25386" data-name="Trazado 25386" d="M11270.4,893.434a.868.868,0,0,0-1.16.4,3.989,3.989,0,0,1-1.6,1.714.868.868,0,1,0,.869,1.5,5.712,5.712,0,0,0,2.286-2.457A.866.866,0,0,0,11270.4,893.434Z" transform="translate(-11248.588 -893.347)" fill="#1e243a"/>
          <path id="Trazado_25387" data-name="Trazado 25387" d="M11198.486,1107.263a.868.868,0,0,0-.288,1.193,3.982,3.982,0,0,1,.582,2.077v.231a.868.868,0,0,0,1.735,0v-.231a5.728,5.728,0,0,0-.836-2.981A.869.869,0,0,0,11198.486,1107.263Z" transform="translate(-11187.445 -1082.406)" fill="#1e243a"/>
        </g>
        <g id="Grupo_14929" data-name="Grupo 14929" transform="translate(162.904 40.421)">
          <path id="Trazado_25388" data-name="Trazado 25388" d="M12502.262,905.568c.024,0,.05,0,.075,0a.867.867,0,0,0,.79-.939c-.017-.183-.023-.37-.023-.56l0-2.256a.868.868,0,0,0-.867-.868h0a.867.867,0,0,0-.867.867l0,2.263c0,.234.01.47.03.7A.867.867,0,0,0,12502.262,905.568Z" transform="translate(-12501.328 -900.942)" fill="#1e243a"/>
          <path id="Trazado_25389" data-name="Trazado 25389" d="M12524.731,968.342a.869.869,0,0,0-.5-1.12,6.339,6.339,0,0,1-2.135-1.353.868.868,0,0,0-1.2,1.253,8.058,8.058,0,0,0,2.718,1.722.867.867,0,0,0,1.12-.5Z" transform="translate(-12518.359 -958.146)" fill="#1e243a"/>
          <path id="Trazado_25390" data-name="Trazado 25390" d="M12502.77,1298.943h-.884a.867.867,0,0,0,0,1.735h.884a.868.868,0,0,0,0-1.735Z" transform="translate(-12501.019 -1252.904)" fill="#1e243a"/>
          <path id="Trazado_25391" data-name="Trazado 25391" d="M12557.188,1297.23a6.4,6.4,0,0,1-1.518.183h-1.15a.868.868,0,0,0,0,1.735h1.15a8.118,8.118,0,0,0,1.932-.232.867.867,0,1,0-.412-1.685Z" transform="translate(-12547.563 -1251.368)" fill="#1e243a"/>
          <path id="Trazado_25392" data-name="Trazado 25392" d="M12627.042,1109.638h0a.867.867,0,0,0-.867.867l0,2.892a.868.868,0,0,0,.867.868h0a.867.867,0,0,0,.867-.867l0-2.892A.868.868,0,0,0,12627.042,1109.638Z" transform="translate(-12611.693 -1085.498)" fill="#1e243a"/>
          <path id="Trazado_25393" data-name="Trazado 25393" d="M12589.525,988.69a8.067,8.067,0,0,0-2.729-1.7.868.868,0,0,0-.607,1.625,6.333,6.333,0,0,1,2.145,1.338.868.868,0,0,0,1.192-1.261Z" transform="translate(-12575.838 -976.985)" fill="#1e243a"/>
          <path id="Trazado_25394" data-name="Trazado 25394" d="M12626.978,1179.638h0a.867.867,0,0,0-.867.867l0,2.892a.867.867,0,0,0,.867.868h0a.868.868,0,0,0,.867-.867l0-2.892A.868.868,0,0,0,12626.978,1179.638Z" transform="translate(-12611.638 -1147.4)" fill="#1e243a"/>
          <path id="Trazado_25395" data-name="Trazado 25395" d="M12626.77,1039.652a.868.868,0,0,0-.784.944q.028.3.028.6l0,2.207a.868.868,0,0,0,.867.868h0a.867.867,0,0,0,.868-.867l0-2.215c0-.252-.012-.506-.035-.757A.867.867,0,0,0,12626.77,1039.652Z" transform="translate(-12611.526 -1023.603)" fill="#1e243a"/>
          <path id="Trazado_25396" data-name="Trazado 25396" d="M12617,1249.556a.869.869,0,0,0-1.029.669,6.261,6.261,0,0,1-1.008,2.316.869.869,0,0,0,.215,1.208.866.866,0,0,0,1.207-.213,8.02,8.02,0,0,0,1.285-2.951A.87.87,0,0,0,12617,1249.556Z" transform="translate(-12601.647 -1209.214)" fill="#1e243a"/>
        </g>
      </g>
    </g>
  </g>
</svg>
