<svg xmlns="http://www.w3.org/2000/svg" width="201" height="201" viewBox="0 0 201 201">
  <g id="Grupo_15893" data-name="Grupo 15893" transform="translate(-679 -4234)">
    <circle id="Elipse_773" data-name="Elipse 773" cx="100.5" cy="100.5" r="100.5" transform="translate(679 4234)" fill="#daf0fd"/>
    <g id="Grupo_15319" data-name="Grupo 15319" transform="translate(-6234.203 3715.506)">
      <g id="Color" transform="translate(6939.627 562.301)">
        <g id="Grupo_15231" data-name="Grupo 15231" transform="translate(78.651 81.346)">
          <rect id="Rectángulo_2794" data-name="Rectángulo 2794" width="8.884" height="8.884" fill="#fcd118"/>
        </g>
        <g id="Grupo_15232" data-name="Grupo 15232" transform="translate(78.651 111.743)">
          <rect id="Rectángulo_2795" data-name="Rectángulo 2795" width="8.884" height="8.884" fill="#fcd118"/>
        </g>
        <g id="Grupo_15233" data-name="Grupo 15233" transform="translate(78.651 96.545)">
          <rect id="Rectángulo_2796" data-name="Rectángulo 2796" width="8.884" height="8.884" fill="#fcd118"/>
        </g>
        <g id="Grupo_15234" data-name="Grupo 15234" transform="translate(18.177 103.609)">
          <circle id="Elipse_764" data-name="Elipse 764" cx="3.158" cy="3.158" r="3.158" fill="#5ed45e"/>
        </g>
        <g id="Grupo_15235" data-name="Grupo 15235" transform="translate(18.177 115.061)">
          <circle id="Elipse_765" data-name="Elipse 765" cx="3.158" cy="3.158" r="3.158" fill="#5ed45e"/>
        </g>
        <g id="Grupo_15236" data-name="Grupo 15236" transform="translate(0 50.486)">
          <path id="Trazado_25722" data-name="Trazado 25722" d="M7004.46,1088.752l2.6-2.6-2.819-2.819-2.617,2.617a8.706,8.706,0,0,0-2.582-1.061v-3.709h-3.987v3.709a8.706,8.706,0,0,0-2.582,1.061l-2.617-2.617-2.819,2.819,2.6,2.6a8.721,8.721,0,0,0-1.1,2.6h-3.653v3.987h3.619a8.719,8.719,0,0,0,1.078,2.656l-2.542,2.543,2.819,2.819,2.525-2.526a8.707,8.707,0,0,0,2.673,1.118v3.561h3.987v-3.561a8.707,8.707,0,0,0,2.673-1.118l2.526,2.526,2.819-2.819-2.543-2.543a8.707,8.707,0,0,0,1.078-2.656h3.619v-3.987h-3.653A8.707,8.707,0,0,0,7004.46,1088.752Zm-7.412,9.685a5.018,5.018,0,1,1,5.018-5.018A5.018,5.018,0,0,1,6997.048,1098.437Z" transform="translate(-6984.882 -1081.179)" fill="#e1e1e5"/>
        </g>
        <g id="Grupo_15237" data-name="Grupo 15237" transform="translate(20.443 64.186)">
          <path id="Trazado_25723" data-name="Trazado 25723" d="M7205.45,1220.616l3.926-3.927-4.258-4.258-3.952,3.952a13.155,13.155,0,0,0-3.9-1.6v-5.6h-6.022v5.6a13.155,13.155,0,0,0-3.9,1.6l-3.952-3.952-4.258,4.258,3.926,3.927a13.162,13.162,0,0,0-1.661,3.925h-5.518v6.022h5.465a13.162,13.162,0,0,0,1.628,4.011l-3.84,3.84,4.258,4.258,3.814-3.815a13.149,13.149,0,0,0,4.037,1.689v5.378h6.022v-5.378a13.149,13.149,0,0,0,4.037-1.689l3.814,3.815,4.258-4.258-3.84-3.84a13.162,13.162,0,0,0,1.628-4.011h5.465v-6.022h-5.518A13.137,13.137,0,0,0,7205.45,1220.616Zm-11.194,14.627a7.579,7.579,0,1,1,7.578-7.579A7.579,7.579,0,0,1,7194.256,1235.243Z" transform="translate(-7175.882 -1209.179)" fill="#e1e1e5"/>
        </g>
        <g id="Grupo_15238" data-name="Grupo 15238" transform="translate(12.129 29.06)">
          <rect id="Rectángulo_2797" data-name="Rectángulo 2797" width="123.41" height="9.526" fill="#4a91d6"/>
        </g>
        <g id="Grupo_15239" data-name="Grupo 15239" transform="translate(16.143 31.361)">
          <circle id="Elipse_766" data-name="Elipse 766" cx="2.515" cy="2.515" r="2.515" fill="#e1e1e5"/>
        </g>
        <g id="Grupo_15240" data-name="Grupo 15240" transform="translate(24.973 31.361)">
          <circle id="Elipse_767" data-name="Elipse 767" cx="2.515" cy="2.515" r="2.515" fill="#e1e1e5"/>
        </g>
        <g id="Grupo_15241" data-name="Grupo 15241" transform="translate(33.804 31.361)">
          <circle id="Elipse_768" data-name="Elipse 768" cx="2.515" cy="2.515" r="2.515" fill="#e1e1e5"/>
        </g>
        <g id="Grupo_15242" data-name="Grupo 15242" transform="translate(59.599 0)">
          <circle id="Elipse_769" data-name="Elipse 769" cx="16.911" cy="16.911" r="16.911" fill="#5ed45e"/>
        </g>
      </g>
      <g id="SETTINGS" transform="translate(6934.203 556.644)">
        <g id="Grupo_15243" data-name="Grupo 15243" transform="translate(144.825 2.141)">
          <path id="Trazado_25724" data-name="Trazado 25724" d="M8293.057,596.829a1.071,1.071,0,1,0,.338,1.476A1.07,1.07,0,0,0,8293.057,596.829Z" transform="translate(-8290.975 -594.522)" fill="#1e243a"/>
          <path id="Trazado_25725" data-name="Trazado 25725" d="M8358.893,590.769a.01.01,0,0,1,0,0,1.071,1.071,0,0,0,1.515-1.515.013.013,0,0,1-.006,0,.022.022,0,0,1-.006-.007,1.071,1.071,0,0,0-1.511,1.519Z" transform="translate(-8350.943 -587.62)" fill="#1e243a"/>
          <path id="Trazado_25726" data-name="Trazado 25726" d="M8288,634.013a1.071,1.071,0,0,0,.354,2.081,1.082,1.082,0,0,0,.354-.061,1.07,1.07,0,0,0-.709-2.02Z" transform="translate(-8287.282 -627.818)" fill="#1e243a"/>
          <path id="Trazado_25727" data-name="Trazado 25727" d="M8315.271,660.5a1.07,1.07,0,1,0,.66,1.363A1.068,1.068,0,0,0,8315.271,660.5Z" transform="translate(-8311.006 -651.471)" fill="#1e243a"/>
          <path id="Trazado_25728" data-name="Trazado 25728" d="M8372.247,624.433a1.07,1.07,0,0,0-.238,2.127,1.186,1.186,0,0,0,.122.007,1.07,1.07,0,0,0,.116-2.134Z" transform="translate(-8362.091 -619.312)" fill="#1e243a"/>
          <path id="Trazado_25729" data-name="Trazado 25729" d="M8324.082,576.651a1.07,1.07,0,0,0,.122,2.133,1.182,1.182,0,0,0,.122-.006h0a1.07,1.07,0,0,0-.246-2.127Z" transform="translate(-8319.297 -576.644)" fill="#1e243a"/>
          <path id="Trazado_25730" data-name="Trazado 25730" d="M8351.623,656.366a1.071,1.071,0,0,0,.572,1.976,1.06,1.06,0,0,0,.57-.165,1.071,1.071,0,1,0-1.143-1.811Z" transform="translate(-8344.291 -647.686)" fill="#1e243a"/>
        </g>
        <g id="Grupo_15244" data-name="Grupo 15244" transform="translate(149.428 78.777)">
          <path id="Trazado_25731" data-name="Trazado 25731" d="M8401.893,1306.767l.006.005a1.071,1.071,0,0,0,1.514-1.515h0l0,0-.009-.009a1.07,1.07,0,1,0-1.509,1.519Z" transform="translate(-8393.943 -1303.619)" fill="#1e243a"/>
          <path id="Trazado_25732" data-name="Trazado 25732" d="M8331,1350.013a1.07,1.07,0,0,0,.354,2.081,1.083,1.083,0,0,0,.354-.061,1.07,1.07,0,0,0-.708-2.02Z" transform="translate(-8330.28 -1343.818)" fill="#1e243a"/>
          <path id="Trazado_25733" data-name="Trazado 25733" d="M8336.057,1312.829a1.071,1.071,0,1,0,.339,1.476A1.07,1.07,0,0,0,8336.057,1312.829Z" transform="translate(-8333.975 -1310.522)" fill="#1e243a"/>
          <path id="Trazado_25734" data-name="Trazado 25734" d="M8394.624,1372.367a1.07,1.07,0,0,0,.572,1.976,1.057,1.057,0,0,0,.569-.165,1.07,1.07,0,1,0-1.142-1.811Z" transform="translate(-8387.291 -1363.686)" fill="#1e243a"/>
          <path id="Trazado_25735" data-name="Trazado 25735" d="M8415.247,1340.435a1.07,1.07,0,1,0-.237,2.127.908.908,0,0,0,.119.008,1.07,1.07,0,0,0,.118-2.134Z" transform="translate(-8405.091 -1335.313)" fill="#1e243a"/>
          <path id="Trazado_25736" data-name="Trazado 25736" d="M8367.083,1292.651a1.07,1.07,0,0,0,.121,2.133,1.215,1.215,0,0,0,.123-.006,1.07,1.07,0,1,0-.244-2.127Z" transform="translate(-8362.297 -1292.644)" fill="#1e243a"/>
          <path id="Trazado_25737" data-name="Trazado 25737" d="M8358.271,1376.5a1.07,1.07,0,1,0,.66,1.363A1.068,1.068,0,0,0,8358.271,1376.5Z" transform="translate(-8354.006 -1367.471)" fill="#1e243a"/>
        </g>
        <g id="Grupo_15245" data-name="Grupo 15245" transform="translate(149.428 40.994)">
          <path id="Trazado_25738" data-name="Trazado 25738" d="M8358.271,1023.5a1.07,1.07,0,0,0-.7,2.022,1.088,1.088,0,0,0,.352.059,1.07,1.07,0,0,0,.352-2.081Z" transform="translate(-8354.006 -1014.471)" fill="#1e243a"/>
          <path id="Trazado_25739" data-name="Trazado 25739" d="M8401.893,953.768a.013.013,0,0,1,.006,0,1.071,1.071,0,0,0,1.514-1.515h0l0,0-.009-.009a1.07,1.07,0,1,0-1.509,1.519Z" transform="translate(-8393.943 -950.619)" fill="#1e243a"/>
          <path id="Trazado_25740" data-name="Trazado 25740" d="M8331,997.013a1.07,1.07,0,1,0,1.363.655A1.071,1.071,0,0,0,8331,997.013Z" transform="translate(-8330.28 -990.818)" fill="#1e243a"/>
          <path id="Trazado_25741" data-name="Trazado 25741" d="M8336.057,959.828a1.071,1.071,0,1,0,.339,1.476A1.07,1.07,0,0,0,8336.057,959.828Z" transform="translate(-8333.975 -957.522)" fill="#1e243a"/>
          <path id="Trazado_25742" data-name="Trazado 25742" d="M8367.083,939.651a1.07,1.07,0,0,0,.121,2.133,1.216,1.216,0,0,0,.123-.006,1.07,1.07,0,1,0-.244-2.127Z" transform="translate(-8362.297 -939.644)" fill="#1e243a"/>
          <path id="Trazado_25743" data-name="Trazado 25743" d="M8415.247,987.435a1.07,1.07,0,1,0-.237,2.127.908.908,0,0,0,.119.008,1.07,1.07,0,0,0,.118-2.134Z" transform="translate(-8405.091 -982.313)" fill="#1e243a"/>
          <path id="Trazado_25744" data-name="Trazado 25744" d="M8394.624,1019.366a1.071,1.071,0,0,0,.572,1.976,1.057,1.057,0,0,0,.569-.165,1.07,1.07,0,1,0-1.142-1.811Z" transform="translate(-8387.291 -1010.686)" fill="#1e243a"/>
        </g>
        <g id="Grupo_15246" data-name="Grupo 15246" transform="translate(109.29 13.807)">
          <path id="Trazado_25745" data-name="Trazado 25745" d="M7983.272,769.5a1.07,1.07,0,0,0-.7,2.022,1.089,1.089,0,0,0,.352.059,1.07,1.07,0,0,0,.352-2.081Z" transform="translate(-7979.006 -760.471)" fill="#1e243a"/>
          <path id="Trazado_25746" data-name="Trazado 25746" d="M7961.054,705.829a1.07,1.07,0,1,0-1.136,1.814,1.057,1.057,0,0,0,.567.164,1.071,1.071,0,0,0,.569-1.978Z" transform="translate(-7958.973 -703.522)" fill="#1e243a"/>
          <path id="Trazado_25747" data-name="Trazado 25747" d="M8026.893,699.768l.006.005a1.07,1.07,0,0,0,1.513-1.515l-.016-.015a1.071,1.071,0,0,0-1.506,1.522Z" transform="translate(-8018.943 -696.62)" fill="#1e243a"/>
          <path id="Trazado_25748" data-name="Trazado 25748" d="M7956,743.013a1.07,1.07,0,1,0,1.364.655A1.069,1.069,0,0,0,7956,743.013Z" transform="translate(-7955.282 -736.818)" fill="#1e243a"/>
          <path id="Trazado_25749" data-name="Trazado 25749" d="M7992.083,685.651a1.07,1.07,0,0,0,.12,2.133,1.147,1.147,0,0,0,.123-.006h0a1.07,1.07,0,0,0-.244-2.127Z" transform="translate(-7987.296 -685.644)" fill="#1e243a"/>
          <path id="Trazado_25750" data-name="Trazado 25750" d="M8040.248,733.433a1.069,1.069,0,0,0-1.182.945h0a1.069,1.069,0,0,0,.945,1.182.931.931,0,0,0,.12.007,1.07,1.07,0,0,0,.118-2.134Z" transform="translate(-8030.091 -728.312)" fill="#1e243a"/>
          <path id="Trazado_25751" data-name="Trazado 25751" d="M8019.624,765.37a1.071,1.071,0,0,0,.572,1.976,1.058,1.058,0,0,0,.569-.166,1.07,1.07,0,1,0-1.142-1.81Z" transform="translate(-8012.292 -756.689)" fill="#1e243a"/>
        </g>
        <g id="Grupo_15247" data-name="Grupo 15247" transform="translate(50.101)">
          <path id="Trazado_25752" data-name="Trazado 25752" d="M7408.055,576.828a1.071,1.071,0,1,0,.339,1.476A1.072,1.072,0,0,0,7408.055,576.828Z" transform="translate(-7405.973 -574.522)" fill="#1e243a"/>
          <path id="Trazado_25753" data-name="Trazado 25753" d="M7403,614.013a1.07,1.07,0,0,0,.354,2.081,1.083,1.083,0,0,0,.354-.061,1.07,1.07,0,0,0-.708-2.02Z" transform="translate(-7402.284 -607.818)" fill="#1e243a"/>
          <path id="Trazado_25754" data-name="Trazado 25754" d="M7473.893,570.769l.005,0,.005.005a1.071,1.071,0,0,0,1.508-1.52l0,0a.111.111,0,0,0-.008-.008,1.071,1.071,0,0,0-1.51,1.519Z" transform="translate(-7465.944 -567.62)" fill="#1e243a"/>
          <path id="Trazado_25755" data-name="Trazado 25755" d="M7430.271,640.5a1.07,1.07,0,1,0,.66,1.362A1.068,1.068,0,0,0,7430.271,640.5Z" transform="translate(-7426.007 -631.471)" fill="#1e243a"/>
          <path id="Trazado_25756" data-name="Trazado 25756" d="M7487.247,604.433a1.069,1.069,0,0,0-1.182.945h0a1.07,1.07,0,0,0,.945,1.182.9.9,0,0,0,.12.008,1.07,1.07,0,0,0,.118-2.134Z" transform="translate(-7477.091 -599.312)" fill="#1e243a"/>
          <path id="Trazado_25757" data-name="Trazado 25757" d="M7439.083,556.651a1.07,1.07,0,0,0,.121,2.133,1.216,1.216,0,0,0,.123-.006,1.07,1.07,0,0,0-.244-2.127Z" transform="translate(-7434.296 -556.644)" fill="#1e243a"/>
          <path id="Trazado_25758" data-name="Trazado 25758" d="M7466.624,636.37a1.07,1.07,0,0,0,.573,1.975,1.058,1.058,0,0,0,.569-.165,1.07,1.07,0,1,0-1.142-1.81Z" transform="translate(-7459.292 -627.689)" fill="#1e243a"/>
        </g>
        <g id="Grupo_15248" data-name="Grupo 15248" transform="translate(1.935 36.392)">
          <path id="Trazado_25759" data-name="Trazado 25759" d="M6958.055,916.829a1.071,1.071,0,1,0,.338,1.476A1.072,1.072,0,0,0,6958.055,916.829Z" transform="translate(-6955.973 -914.522)" fill="#1e243a"/>
          <path id="Trazado_25760" data-name="Trazado 25760" d="M7023.9,910.772h0a1.071,1.071,0,0,0,1.521-1.508l-.018-.018a1.071,1.071,0,0,0-1.51,1.519Z" transform="translate(-7015.944 -907.619)" fill="#1e243a"/>
          <path id="Trazado_25761" data-name="Trazado 25761" d="M6953,954.013a1.07,1.07,0,0,0,.354,2.081,1.084,1.084,0,0,0,.354-.061,1.07,1.07,0,0,0-.708-2.02Z" transform="translate(-6952.283 -947.818)" fill="#1e243a"/>
          <path id="Trazado_25762" data-name="Trazado 25762" d="M6980.272,980.5a1.07,1.07,0,0,0-.7,2.022,1.07,1.07,0,0,0,.7-2.022Z" transform="translate(-6976.007 -971.471)" fill="#1e243a"/>
          <path id="Trazado_25763" data-name="Trazado 25763" d="M6989.083,896.651a1.07,1.07,0,0,0,.121,2.133,1.187,1.187,0,0,0,.123-.006h0a1.07,1.07,0,0,0-.244-2.127Z" transform="translate(-6984.296 -896.644)" fill="#1e243a"/>
          <path id="Trazado_25764" data-name="Trazado 25764" d="M7037.248,944.434a1.07,1.07,0,1,0-.238,2.127.9.9,0,0,0,.12.008,1.07,1.07,0,0,0,.118-2.134Z" transform="translate(-7027.091 -939.313)" fill="#1e243a"/>
          <path id="Trazado_25765" data-name="Trazado 25765" d="M7016.624,976.366a1.071,1.071,0,0,0,.573,1.976,1.057,1.057,0,0,0,.569-.165,1.071,1.071,0,1,0-1.142-1.811Z" transform="translate(-7009.292 -967.686)" fill="#1e243a"/>
        </g>
        <g id="Grupo_15249" data-name="Grupo 15249" transform="translate(3.862 5.887)">
          <path id="Trazado_25766" data-name="Trazado 25766" d="M6976.057,631.829a1.071,1.071,0,1,0,.338,1.476A1.07,1.07,0,0,0,6976.057,631.829Z" transform="translate(-6973.975 -629.522)" fill="#1e243a"/>
          <path id="Trazado_25767" data-name="Trazado 25767" d="M6971,669.013a1.07,1.07,0,0,0,.354,2.081,1.089,1.089,0,0,0,.355-.061,1.07,1.07,0,0,0-.709-2.02Z" transform="translate(-6970.283 -662.818)" fill="#1e243a"/>
          <path id="Trazado_25768" data-name="Trazado 25768" d="M6998.272,695.5a1.07,1.07,0,0,0-.7,2.022,1.057,1.057,0,0,0,.351.059,1.07,1.07,0,0,0,.353-2.081Z" transform="translate(-6994.006 -686.471)" fill="#1e243a"/>
          <path id="Trazado_25769" data-name="Trazado 25769" d="M7041.894,625.768l.005.005h0a1.071,1.071,0,0,0,1.519-1.509l0-.005,0,0a.026.026,0,0,1-.007-.007,1.071,1.071,0,0,0-1.51,1.519Z" transform="translate(-7033.944 -622.62)" fill="#1e243a"/>
          <path id="Trazado_25770" data-name="Trazado 25770" d="M7007.084,611.651a1.07,1.07,0,0,0,.121,2.133,1.194,1.194,0,0,0,.123-.006,1.07,1.07,0,0,0-.244-2.127Z" transform="translate(-7002.298 -611.644)" fill="#1e243a"/>
          <path id="Trazado_25771" data-name="Trazado 25771" d="M7055.248,659.433a1.07,1.07,0,1,0-.238,2.127,1.14,1.14,0,0,0,.12.008,1.07,1.07,0,0,0,.119-2.134Z" transform="translate(-7045.091 -654.312)" fill="#1e243a"/>
          <path id="Trazado_25772" data-name="Trazado 25772" d="M7034.624,691.37a1.07,1.07,0,0,0,.573,1.975,1.056,1.056,0,0,0,.569-.165,1.07,1.07,0,1,0-1.142-1.81Z" transform="translate(-7027.292 -682.689)" fill="#1e243a"/>
        </g>
        <g id="Grupo_15250" data-name="Grupo 15250" transform="translate(0.008 106.927)">
          <path id="Trazado_25773" data-name="Trazado 25773" d="M6935,1613.013a1.07,1.07,0,0,0,.354,2.081,1.073,1.073,0,0,0,1.011-1.426A1.071,1.071,0,0,0,6935,1613.013Z" transform="translate(-6934.282 -1606.818)" fill="#1e243a"/>
          <path id="Trazado_25774" data-name="Trazado 25774" d="M7005.894,1569.767l0,.005h0a1.071,1.071,0,0,0,1.515-1.515l0,0-.009-.008a1.071,1.071,0,0,0-1.51,1.519Z" transform="translate(-6997.944 -1566.62)" fill="#1e243a"/>
          <path id="Trazado_25775" data-name="Trazado 25775" d="M6940.057,1575.828a1.071,1.071,0,1,0,.338,1.476A1.07,1.07,0,0,0,6940.057,1575.828Z" transform="translate(-6937.975 -1573.522)" fill="#1e243a"/>
          <path id="Trazado_25776" data-name="Trazado 25776" d="M7019.247,1603.435a1.07,1.07,0,1,0-.237,2.127.923.923,0,0,0,.12.008,1.07,1.07,0,0,0,.117-2.134Z" transform="translate(-7009.091 -1598.313)" fill="#1e243a"/>
          <path id="Trazado_25777" data-name="Trazado 25777" d="M6998.624,1635.37a1.07,1.07,0,0,0,.573,1.975,1.058,1.058,0,0,0,.569-.165,1.07,1.07,0,1,0-1.142-1.81Z" transform="translate(-6991.292 -1626.689)" fill="#1e243a"/>
          <path id="Trazado_25778" data-name="Trazado 25778" d="M6971.083,1555.651a1.07,1.07,0,0,0,.121,2.133,1.16,1.16,0,0,0,.123-.006,1.07,1.07,0,0,0-.244-2.127Z" transform="translate(-6966.297 -1555.644)" fill="#1e243a"/>
          <path id="Trazado_25779" data-name="Trazado 25779" d="M6962.272,1639.5a1.07,1.07,0,0,0-.7,2.022,1.056,1.056,0,0,0,.351.059,1.07,1.07,0,0,0,.353-2.081Z" transform="translate(-6958.007 -1630.471)" fill="#1e243a"/>
        </g>
        <g id="Grupo_15253" data-name="Grupo 15253" transform="translate(126.032 0.948)">
          <g id="Grupo_15251" data-name="Grupo 15251" transform="translate(2.515)">
            <path id="Trazado_25780" data-name="Trazado 25780" d="M8136.006,565.5a.8.8,0,0,0-.8.8v5.138a.8.8,0,0,0,1.605,0V566.3A.8.8,0,0,0,8136.006,565.5Z" transform="translate(-8135.203 -565.5)" fill="#1e243a"/>
          </g>
          <g id="Grupo_15252" data-name="Grupo 15252" transform="translate(0 2.622)">
            <path id="Trazado_25781" data-name="Trazado 25781" d="M8117.644,590h-5.138a.8.8,0,0,0,0,1.606h5.138a.8.8,0,0,0,0-1.606Z" transform="translate(-8111.703 -590)" fill="#1e243a"/>
          </g>
        </g>
        <g id="Grupo_15256" data-name="Grupo 15256" transform="translate(151.507 105.948)">
          <g id="Grupo_15254" data-name="Grupo 15254" transform="translate(2.515)">
            <path id="Trazado_25782" data-name="Trazado 25782" d="M8374.006,1546.5a.8.8,0,0,0-.8.8v5.138a.8.8,0,0,0,1.605,0V1547.3A.8.8,0,0,0,8374.006,1546.5Z" transform="translate(-8373.203 -1546.5)" fill="#1e243a"/>
          </g>
          <g id="Grupo_15255" data-name="Grupo 15255" transform="translate(0 2.622)">
            <path id="Trazado_25783" data-name="Trazado 25783" d="M8355.645,1571h-5.139a.8.8,0,0,0,0,1.605h5.139a.8.8,0,0,0,0-1.605Z" transform="translate(-8349.703 -1571)" fill="#1e243a"/>
          </g>
        </g>
        <g id="Grupo_15259" data-name="Grupo 15259" transform="translate(151.507 22.997)">
          <g id="Grupo_15257" data-name="Grupo 15257" transform="translate(2.515)">
            <path id="Trazado_25784" data-name="Trazado 25784" d="M8374.006,771.5a.8.8,0,0,0-.8.8v5.138a.8.8,0,0,0,1.605,0V772.3A.8.8,0,0,0,8374.006,771.5Z" transform="translate(-8373.203 -771.5)" fill="#1e243a"/>
          </g>
          <g id="Grupo_15258" data-name="Grupo 15258" transform="translate(0 2.622)">
            <path id="Trazado_25785" data-name="Trazado 25785" d="M8355.645,796h-5.139a.8.8,0,1,0,0,1.605h5.139a.8.8,0,0,0,0-1.605Z" transform="translate(-8349.703 -796)" fill="#1e243a"/>
          </g>
        </g>
        <g id="Grupo_15262" data-name="Grupo 15262" transform="translate(151.507 62.599)">
          <g id="Grupo_15260" data-name="Grupo 15260" transform="translate(2.515)">
            <path id="Trazado_25786" data-name="Trazado 25786" d="M8374.006,1141.5a.8.8,0,0,0-.8.8v5.138a.8.8,0,0,0,1.605,0V1142.3A.8.8,0,0,0,8374.006,1141.5Z" transform="translate(-8373.203 -1141.5)" fill="#1e243a"/>
          </g>
          <g id="Grupo_15261" data-name="Grupo 15261" transform="translate(0 2.622)">
            <path id="Trazado_25787" data-name="Trazado 25787" d="M8355.645,1166h-5.139a.8.8,0,0,0,0,1.605h5.139a.8.8,0,0,0,0-1.605Z" transform="translate(-8349.703 -1166)" fill="#1e243a"/>
          </g>
        </g>
        <g id="Grupo_15265" data-name="Grupo 15265" transform="translate(1.552 125.964)">
          <g id="Grupo_15263" data-name="Grupo 15263" transform="translate(2.515)">
            <path id="Trazado_25788" data-name="Trazado 25788" d="M6973.006,1733.5a.8.8,0,0,0-.8.8v5.138a.8.8,0,0,0,1.606,0V1734.3A.8.8,0,0,0,6973.006,1733.5Z" transform="translate(-6972.203 -1733.5)" fill="#1e243a"/>
          </g>
          <g id="Grupo_15264" data-name="Grupo 15264" transform="translate(0 2.622)">
            <path id="Trazado_25789" data-name="Trazado 25789" d="M6954.644,1758h-5.138a.8.8,0,0,0,0,1.605h5.138a.8.8,0,0,0,0-1.605Z" transform="translate(-6948.703 -1758)" fill="#1e243a"/>
          </g>
        </g>
        <g id="Grupo_15268" data-name="Grupo 15268" transform="translate(2.087 20.428)">
          <g id="Grupo_15266" data-name="Grupo 15266" transform="translate(2.515)">
            <path id="Trazado_25790" data-name="Trazado 25790" d="M6978.006,747.5a.8.8,0,0,0-.8.8v5.138a.8.8,0,0,0,1.606,0V748.3A.8.8,0,0,0,6978.006,747.5Z" transform="translate(-6977.203 -747.5)" fill="#1e243a"/>
          </g>
          <g id="Grupo_15267" data-name="Grupo 15267" transform="translate(0 2.622)">
            <path id="Trazado_25791" data-name="Trazado 25791" d="M6959.644,772h-5.138a.8.8,0,0,0,0,1.605h5.138a.8.8,0,0,0,0-1.605Z" transform="translate(-6953.704 -772)" fill="#1e243a"/>
          </g>
        </g>
        <g id="Grupo_15271" data-name="Grupo 15271" transform="translate(35.803 12.079)">
          <g id="Grupo_15269" data-name="Grupo 15269" transform="translate(2.515)">
            <path id="Trazado_25792" data-name="Trazado 25792" d="M7293.006,669.5a.8.8,0,0,0-.8.8v5.138a.8.8,0,0,0,1.605,0V670.3A.8.8,0,0,0,7293.006,669.5Z" transform="translate(-7292.203 -669.5)" fill="#1e243a"/>
          </g>
          <g id="Grupo_15270" data-name="Grupo 15270" transform="translate(0 2.622)">
            <path id="Trazado_25793" data-name="Trazado 25793" d="M7274.644,694h-5.138a.8.8,0,0,0,0,1.606h5.138a.8.8,0,1,0,0-1.606Z" transform="translate(-7268.703 -694)" fill="#1e243a"/>
          </g>
        </g>
        <g id="Grupo_15275" data-name="Grupo 15275" transform="translate(0 50.986)">
          <g id="Grupo_15272" data-name="Grupo 15272" transform="translate(4.622 4.354)">
            <path id="Trazado_25794" data-name="Trazado 25794" d="M7002.517,1083.852h-3.043a9.5,9.5,0,0,0-.705-1.667l2.162-2.162a.8.8,0,0,0,0-1.135l-2.819-2.819a.8.8,0,0,0-1.135,0l-2.186,2.184a9.5,9.5,0,0,0-1.644-.676v-3.094a.8.8,0,0,0-.8-.8h-3.987a.8.8,0,0,0-.8.8v3.094a9.506,9.506,0,0,0-1.645.676l-2.184-2.184a.8.8,0,0,0-1.136,0l-2.819,2.819a.8.8,0,0,0,0,1.135l2.162,2.162a9.415,9.415,0,0,0-.7,1.667h-3.044a.8.8,0,0,0-.8.8v3.987a.8.8,0,0,0,.8.8h3a9.423,9.423,0,0,0,.7,1.718l-2.11,2.111a.8.8,0,0,0,0,1.135l2.819,2.819a.8.8,0,0,0,1.136,0l2.088-2.088a9.49,9.49,0,0,0,1.74.728v2.946a.8.8,0,0,0,.8.8h3.987a.8.8,0,0,0,.8-.8v-2.946a9.527,9.527,0,0,0,1.741-.728l2.088,2.088a.8.8,0,0,0,1.135,0l2.819-2.819a.8.8,0,0,0,0-1.135l-2.11-2.111a9.423,9.423,0,0,0,.7-1.718h3a.8.8,0,0,0,.8-.8v-3.987A.8.8,0,0,0,7002.517,1083.852Zm-.8,3.987H6998.9a.8.8,0,0,0-.783.628,7.889,7.889,0,0,1-.978,2.411.8.8,0,0,0,.116.988l1.975,1.975-1.684,1.684-1.958-1.958a.8.8,0,0,0-1-.111,7.9,7.9,0,0,1-2.427,1.015.8.8,0,0,0-.621.782v2.758h-2.382v-2.758a.8.8,0,0,0-.62-.782,7.883,7.883,0,0,1-2.428-1.015.8.8,0,0,0-1,.111l-1.958,1.958-1.684-1.684,1.975-1.975a.8.8,0,0,0,.116-.988,7.889,7.889,0,0,1-.978-2.411.8.8,0,0,0-.783-.628h-2.816v-2.382h2.851a.8.8,0,0,0,.78-.614,7.866,7.866,0,0,1,1-2.36.8.8,0,0,0-.111-1l-2.032-2.032,1.684-1.684,2.05,2.049a.8.8,0,0,0,.987.116,7.891,7.891,0,0,1,2.345-.964.8.8,0,0,0,.62-.782v-2.907h2.382v2.907a.8.8,0,0,0,.621.782,7.907,7.907,0,0,1,2.344.964.8.8,0,0,0,.987-.116l2.05-2.049,1.684,1.684-2.032,2.032a.8.8,0,0,0-.111,1,7.872,7.872,0,0,1,1,2.36.8.8,0,0,0,.78.614h2.851Z" transform="translate(-6977.383 -1073.68)" fill="#1e243a"/>
            <path id="Trazado_25795" data-name="Trazado 25795" d="M7049.981,1141.149a5.821,5.821,0,1,0,5.82,5.821A5.828,5.828,0,0,0,7049.981,1141.149Zm0,10.036a4.215,4.215,0,1,1,4.215-4.215A4.22,4.22,0,0,1,7049.981,1151.185Z" transform="translate(-7037.013 -1133.927)" fill="#1e243a"/>
          </g>
          <g id="Grupo_15273" data-name="Grupo 15273" transform="translate(25.065 18.054)">
            <path id="Trazado_25796" data-name="Trazado 25796" d="M7277.618,1303.578a8.381,8.381,0,1,0,8.381,8.381A8.391,8.391,0,0,0,7277.618,1303.578Zm0,15.157a6.776,6.776,0,1,1,6.775-6.776A6.784,6.784,0,0,1,7277.618,1318.736Z" transform="translate(-7258.441 -1292.672)" fill="#1e243a"/>
            <path id="Trazado_25797" data-name="Trazado 25797" d="M7205.933,1217.042h-4.9a13.955,13.955,0,0,0-1.268-3l3.483-3.484a.8.8,0,0,0,0-1.135l-4.258-4.258a.8.8,0,0,0-1.135,0l-3.515,3.515a13.922,13.922,0,0,0-2.967-1.22v-4.98a.8.8,0,0,0-.8-.8h-6.022a.8.8,0,0,0-.8.8v4.98a13.943,13.943,0,0,0-2.967,1.22l-3.515-3.515a.8.8,0,0,0-1.135,0l-4.258,4.258a.8.8,0,0,0,0,1.135l3.483,3.484a13.882,13.882,0,0,0-1.268,3h-4.9a.8.8,0,0,0-.8.8v6.022a.8.8,0,0,0,.8.8h4.837a13.935,13.935,0,0,0,1.25,3.078l-3.4,3.4a.8.8,0,0,0,0,1.135l4.258,4.258a.8.8,0,0,0,1.135,0l3.373-3.372a13.907,13.907,0,0,0,3.109,1.3v4.756a.8.8,0,0,0,.8.8h6.022a.8.8,0,0,0,.8-.8v-4.756a13.907,13.907,0,0,0,3.11-1.3l3.372,3.372a.8.8,0,0,0,1.135,0l4.258-4.258a.8.8,0,0,0,0-1.135l-3.4-3.4a13.878,13.878,0,0,0,1.25-3.078h4.838a.8.8,0,0,0,.8-.8v-6.022A.8.8,0,0,0,7205.933,1217.042Zm-.8,6.022h-4.663a.8.8,0,0,0-.783.627,12.335,12.335,0,0,1-1.529,3.767.8.8,0,0,0,.116.988l3.273,3.273-3.123,3.123-3.246-3.247a.8.8,0,0,0-1-.111,12.329,12.329,0,0,1-3.791,1.586.8.8,0,0,0-.621.782v4.576h-4.416v-4.576a.8.8,0,0,0-.621-.782,12.332,12.332,0,0,1-3.791-1.586.8.8,0,0,0-1,.111l-3.247,3.247-3.123-3.123,3.272-3.273a.8.8,0,0,0,.117-.988,12.316,12.316,0,0,1-1.529-3.766.8.8,0,0,0-.783-.628h-4.663v-4.417h4.715a.8.8,0,0,0,.78-.614,12.338,12.338,0,0,1,1.56-3.686.8.8,0,0,0-.111-1l-3.359-3.359,3.123-3.123,3.384,3.385a.8.8,0,0,0,.987.117,12.33,12.33,0,0,1,3.662-1.505.8.8,0,0,0,.621-.782v-4.8h4.416v4.8a.8.8,0,0,0,.621.782,12.33,12.33,0,0,1,3.661,1.505.8.8,0,0,0,.988-.117l3.384-3.385,3.123,3.123-3.359,3.359a.8.8,0,0,0-.111,1,12.318,12.318,0,0,1,1.56,3.686.8.8,0,0,0,.781.614h4.715Z" transform="translate(-7168.382 -1201.68)" fill="#1e243a"/>
          </g>
          <g id="Grupo_15274" data-name="Grupo 15274">
            <path id="Trazado_25798" data-name="Trazado 25798" d="M6986.6,1033h-51.591a.8.8,0,0,0-.8.8v46.667a.8.8,0,0,0,.8.8h28.5a.8.8,0,0,0,0-1.605h-27.7v-45.061h49.984v22.531a.8.8,0,1,0,1.605,0V1033.8A.8.8,0,0,0,6986.6,1033Z" transform="translate(-6934.203 -1033)" fill="#1e243a"/>
          </g>
        </g>
        <g id="Grupo_15278" data-name="Grupo 15278" transform="translate(64.22 4.855)">
          <g id="Grupo_15276" data-name="Grupo 15276">
            <path id="Trazado_25799" data-name="Trazado 25799" d="M7551.917,602a17.714,17.714,0,1,0,17.714,17.714A17.734,17.734,0,0,0,7551.917,602Zm0,33.823a16.109,16.109,0,1,1,16.109-16.109A16.126,16.126,0,0,1,7551.917,635.823Z" transform="translate(-7534.203 -602)" fill="#1e243a"/>
          </g>
          <g id="Grupo_15277" data-name="Grupo 15277" transform="translate(6.529 1.07)">
            <path id="Trazado_25800" data-name="Trazado 25800" d="M7625.558,612.194a73.659,73.659,0,0,0-13.091,14.187A41.639,41.639,0,0,0,7606,640.855l-9.3-15.829a.8.8,0,0,0-1.385.814l10.382,17.661a.8.8,0,0,0,1.485-.277c1.707-10.4,7.879-19.874,19.425-29.812a.8.8,0,1,0-1.047-1.217Z" transform="translate(-7595.203 -611.999)" fill="#1e243a"/>
          </g>
        </g>
        <g id="Grupo_15318" data-name="Grupo 15318" transform="translate(16.804 28.081)">
          <g id="Grupo_15279" data-name="Grupo 15279" transform="translate(0 5.887)">
            <path id="Trazado_25801" data-name="Trazado 25801" d="M7215.31,874h-46.528a.8.8,0,0,0,0,1.606h45.725v95.153h-121.7V938.97a.8.8,0,1,0-1.605,0v32.592a.8.8,0,0,0,.8.8h123.3a.8.8,0,0,0,.8-.8V874.8A.8.8,0,0,0,7215.31,874Z" transform="translate(-7091.203 -874)" fill="#1e243a"/>
          </g>
          <g id="Grupo_15280" data-name="Grupo 15280" transform="translate(0 5.887)">
            <path id="Trazado_25802" data-name="Trazado 25802" d="M7143.842,874h-51.836a.8.8,0,0,0-.8.8v16.43a.8.8,0,0,0,1.605,0V875.605h51.033a.8.8,0,0,0,0-1.606Z" transform="translate(-7091.203 -874)" fill="#1e243a"/>
          </g>
          <g id="Grupo_15281" data-name="Grupo 15281" transform="translate(0 15.328)">
            <path id="Trazado_25803" data-name="Trazado 25803" d="M7215.31,962.207h-123.3a.8.8,0,0,0,0,1.606h123.3a.8.8,0,0,0,0-1.606Z" transform="translate(-7091.203 -962.207)" fill="#1e243a"/>
          </g>
          <g id="Grupo_15282" data-name="Grupo 15282" transform="translate(3.96 8.135)">
            <path id="Trazado_25804" data-name="Trazado 25804" d="M7131.521,895a3.318,3.318,0,1,0,3.318,3.318A3.322,3.322,0,0,0,7131.521,895Zm0,5.031a1.713,1.713,0,1,1,1.712-1.713A1.714,1.714,0,0,1,7131.521,900.031Z" transform="translate(-7128.203 -895)" fill="#1e243a"/>
          </g>
          <g id="Grupo_15283" data-name="Grupo 15283" transform="translate(12.791 8.135)">
            <path id="Trazado_25805" data-name="Trazado 25805" d="M7214.021,895a3.318,3.318,0,1,0,3.318,3.318A3.322,3.322,0,0,0,7214.021,895Zm0,5.031a1.713,1.713,0,1,1,1.712-1.713A1.715,1.715,0,0,1,7214.021,900.031Z" transform="translate(-7210.704 -895)" fill="#1e243a"/>
          </g>
          <g id="Grupo_15284" data-name="Grupo 15284" transform="translate(21.621 8.135)">
            <path id="Trazado_25806" data-name="Trazado 25806" d="M7296.521,895a3.318,3.318,0,1,0,3.318,3.318A3.321,3.321,0,0,0,7296.521,895Zm0,5.031a1.713,1.713,0,1,1,1.712-1.713A1.715,1.715,0,0,1,7296.521,900.031Z" transform="translate(-7293.204 -895)" fill="#1e243a"/>
          </g>
          <g id="Grupo_15285" data-name="Grupo 15285" transform="translate(97.08 8.991)">
            <path id="Trazado_25807" data-name="Trazado 25807" d="M8022.018,903h-23.012a.8.8,0,0,0,0,1.606h23.012a.8.8,0,0,0,0-1.606Z" transform="translate(-7998.203 -903)" fill="#1e243a"/>
          </g>
          <g id="Grupo_15286" data-name="Grupo 15286" transform="translate(111.85 12.202)">
            <path id="Trazado_25808" data-name="Trazado 25808" d="M8145.247,933h-8.241a.8.8,0,0,0,0,1.605h8.241a.8.8,0,0,0,0-1.605Z" transform="translate(-8136.203 -933)" fill="#1e243a"/>
          </g>
          <g id="Grupo_15287" data-name="Grupo 15287" transform="translate(43.777 34.465)">
            <path id="Trazado_25809" data-name="Trazado 25809" d="M7571.22,1141h-9.6a.8.8,0,0,0,0,1.605h8.8v10.168h-68.609v-10.168h43.755a.8.8,0,0,0,0-1.605h-44.558a.8.8,0,0,0-.8.8v11.774a.8.8,0,0,0,.8.8h70.214a.8.8,0,0,0,.8-.8V1141.8A.8.8,0,0,0,7571.22,1141Z" transform="translate(-7500.204 -1141)" fill="#1e243a"/>
          </g>
          <g id="Grupo_15291" data-name="Grupo 15291" transform="translate(50.199 20.443)">
            <g id="Grupo_15288" data-name="Grupo 15288">
              <path id="Trazado_25810" data-name="Trazado 25810" d="M7568.5,1010h-7.492a.8.8,0,0,0,0,1.606h7.492a.8.8,0,0,0,0-1.606Z" transform="translate(-7560.203 -1010)" fill="#1e243a"/>
            </g>
            <g id="Grupo_15289" data-name="Grupo 15289" transform="translate(13.272)">
              <path id="Trazado_25811" data-name="Trazado 25811" d="M7718.614,1010h-33.608a.8.8,0,1,0,0,1.606h33.608a.8.8,0,0,0,0-1.606Z" transform="translate(-7684.203 -1010)" fill="#1e243a"/>
            </g>
            <g id="Grupo_15290" data-name="Grupo 15290" transform="translate(53.089)">
              <path id="Trazado_25812" data-name="Trazado 25812" d="M8067.709,1010h-10.7a.8.8,0,0,0,0,1.606h10.7a.8.8,0,1,0,0-1.606Z" transform="translate(-8056.203 -1010)" fill="#1e243a"/>
            </g>
          </g>
          <g id="Grupo_15294" data-name="Grupo 15294" transform="translate(50.199 25.795)">
            <g id="Grupo_15292" data-name="Grupo 15292">
              <path id="Trazado_25813" data-name="Trazado 25813" d="M7580.7,1060h-19.694a.8.8,0,0,0,0,1.605H7580.7a.8.8,0,1,0,0-1.605Z" transform="translate(-7560.203 -1060)" fill="#1e243a"/>
            </g>
            <g id="Grupo_15293" data-name="Grupo 15293" transform="translate(26.116)">
              <path id="Trazado_25814" data-name="Trazado 25814" d="M7842.682,1060h-37.676a.8.8,0,0,0,0,1.605h37.676a.8.8,0,0,0,0-1.605Z" transform="translate(-7804.203 -1060)" fill="#1e243a"/>
            </g>
          </g>
          <g id="Grupo_15295" data-name="Grupo 15295" transform="translate(66.468 58.119)">
            <path id="Trazado_25815" data-name="Trazado 25815" d="M7721.89,1362h-8.884a.8.8,0,0,0-.8.8v8.884a.8.8,0,0,0,.8.8h8.884a.8.8,0,0,0,.8-.8V1362.8A.8.8,0,0,0,7721.89,1362Zm-.8,8.884h-7.278v-7.278h7.278Z" transform="translate(-7712.203 -1362)" fill="#1e243a"/>
          </g>
          <g id="Grupo_15296" data-name="Grupo 15296" transform="translate(66.468 88.517)">
            <path id="Trazado_25816" data-name="Trazado 25816" d="M7721.89,1646h-8.884a.8.8,0,0,0-.8.8v8.884a.8.8,0,0,0,.8.8h8.884a.8.8,0,0,0,.8-.8V1646.8A.8.8,0,0,0,7721.89,1646Zm-.8,8.884h-7.278v-7.278h7.278Z" transform="translate(-7712.203 -1646)" fill="#1e243a"/>
          </g>
          <g id="Grupo_15297" data-name="Grupo 15297" transform="translate(66.468 73.318)">
            <path id="Trazado_25817" data-name="Trazado 25817" d="M7721.89,1504h-8.884a.8.8,0,0,0-.8.8v8.884a.8.8,0,0,0,.8.8h8.884a.8.8,0,0,0,.8-.8V1504.8A.8.8,0,0,0,7721.89,1504Zm-.8,8.884h-7.278v-7.278h7.278Z" transform="translate(-7712.203 -1504)" fill="#1e243a"/>
          </g>
          <g id="Grupo_15300" data-name="Grupo 15300" transform="translate(78.884 59.297)">
            <g id="Grupo_15298" data-name="Grupo 15298" transform="translate(0 0.107)">
              <path id="Trazado_25818" data-name="Trazado 25818" d="M7836.284,1374h-7.278a.8.8,0,0,0,0,1.606h7.278a.8.8,0,0,0,0-1.606Z" transform="translate(-7828.203 -1374)" fill="#1e243a"/>
            </g>
            <g id="Grupo_15299" data-name="Grupo 15299" transform="translate(13.486)">
              <path id="Trazado_25819" data-name="Trazado 25819" d="M7971.275,1373h-16.27a.8.8,0,0,0,0,1.605h16.27a.8.8,0,0,0,0-1.605Z" transform="translate(-7954.203 -1373)" fill="#1e243a"/>
            </g>
          </g>
          <g id="Grupo_15301" data-name="Grupo 15301" transform="translate(78.884 64.541)">
            <path id="Trazado_25820" data-name="Trazado 25820" d="M7848.7,1422h-19.694a.8.8,0,0,0,0,1.605H7848.7a.8.8,0,0,0,0-1.605Z" transform="translate(-7828.203 -1422)" fill="#1e243a"/>
          </g>
          <g id="Grupo_15304" data-name="Grupo 15304" transform="translate(78.884 75.138)">
            <g id="Grupo_15302" data-name="Grupo 15302" transform="translate(0 0.107)">
              <path id="Trazado_25821" data-name="Trazado 25821" d="M7836.284,1522h-7.278a.8.8,0,0,0,0,1.606h7.278a.8.8,0,0,0,0-1.606Z" transform="translate(-7828.203 -1522)" fill="#1e243a"/>
            </g>
            <g id="Grupo_15303" data-name="Grupo 15303" transform="translate(13.486)">
              <path id="Trazado_25822" data-name="Trazado 25822" d="M7971.275,1521h-16.27a.8.8,0,0,0,0,1.605h16.27a.8.8,0,0,0,0-1.605Z" transform="translate(-7954.203 -1521)" fill="#1e243a"/>
            </g>
          </g>
          <g id="Grupo_15305" data-name="Grupo 15305" transform="translate(78.884 80.382)">
            <path id="Trazado_25823" data-name="Trazado 25823" d="M7848.7,1570h-19.694a.8.8,0,0,0,0,1.605H7848.7a.8.8,0,0,0,0-1.605Z" transform="translate(-7828.203 -1570)" fill="#1e243a"/>
          </g>
          <g id="Grupo_15308" data-name="Grupo 15308" transform="translate(78.884 90.337)">
            <g id="Grupo_15306" data-name="Grupo 15306" transform="translate(0 0.107)">
              <path id="Trazado_25824" data-name="Trazado 25824" d="M7836.284,1664h-7.278a.8.8,0,0,0,0,1.606h7.278a.8.8,0,0,0,0-1.606Z" transform="translate(-7828.203 -1664)" fill="#1e243a"/>
            </g>
            <g id="Grupo_15307" data-name="Grupo 15307" transform="translate(13.486)">
              <path id="Trazado_25825" data-name="Trazado 25825" d="M7971.275,1663h-16.27a.8.8,0,0,0,0,1.606h16.27a.8.8,0,0,0,0-1.606Z" transform="translate(-7954.203 -1663)" fill="#1e243a"/>
            </g>
          </g>
          <g id="Grupo_15309" data-name="Grupo 15309" transform="translate(78.884 95.581)">
            <path id="Trazado_25826" data-name="Trazado 25826" d="M7848.7,1712h-19.694a.8.8,0,1,0,0,1.605H7848.7a.8.8,0,1,0,0-1.605Z" transform="translate(-7828.203 -1712)" fill="#1e243a"/>
          </g>
          <g id="Grupo_15310" data-name="Grupo 15310" transform="translate(81.239)">
            <path id="Trazado_25827" data-name="Trazado 25827" d="M7898.529,819h-47.523a.8.8,0,0,0,0,1.606h46.721v97.347a.8.8,0,1,0,1.6,0V819.8A.8.8,0,0,0,7898.529,819Z" transform="translate(-7850.203 -819)" fill="#1e243a"/>
          </g>
          <g id="Grupo_15311" data-name="Grupo 15311" transform="translate(3.639)">
            <path id="Trazado_25828" data-name="Trazado 25828" d="M7169.783,819h-43.777a.8.8,0,0,0,0,1.606h43.777a.8.8,0,1,0,0-1.606Z" transform="translate(-7125.203 -819)" fill="#1e243a"/>
          </g>
          <g id="Grupo_15312" data-name="Grupo 15312" transform="translate(5.994 80.382)">
            <path id="Trazado_25829" data-name="Trazado 25829" d="M7151.163,1570a3.96,3.96,0,1,0,3.961,3.96A3.965,3.965,0,0,0,7151.163,1570Zm0,6.315a2.355,2.355,0,1,1,2.355-2.355A2.358,2.358,0,0,1,7151.163,1576.315Z" transform="translate(-7147.203 -1570)" fill="#1e243a"/>
          </g>
          <g id="Grupo_15313" data-name="Grupo 15313" transform="translate(5.994 91.835)">
            <path id="Trazado_25830" data-name="Trazado 25830" d="M7151.163,1677a3.96,3.96,0,1,0,3.961,3.96A3.964,3.964,0,0,0,7151.163,1677Zm0,6.315a2.355,2.355,0,1,1,2.355-2.355A2.358,2.358,0,0,1,7151.163,1683.315Z" transform="translate(-7147.203 -1677)" fill="#1e243a"/>
          </g>
          <g id="Grupo_15314" data-name="Grupo 15314" transform="translate(16.269 83.486)">
            <path id="Trazado_25831" data-name="Trazado 25831" d="M7247.859,1599h-3.853a.8.8,0,0,0,0,1.605h3.853a.8.8,0,0,0,0-1.605Z" transform="translate(-7243.204 -1599)" fill="#1e243a"/>
          </g>
          <g id="Grupo_15315" data-name="Grupo 15315" transform="translate(24.404 83.486)">
            <path id="Trazado_25832" data-name="Trazado 25832" d="M7336.275,1599h-16.27a.8.8,0,0,0,0,1.605h16.27a.8.8,0,1,0,0-1.605Z" transform="translate(-7319.203 -1599)" fill="#1e243a"/>
          </g>
          <g id="Grupo_15316" data-name="Grupo 15316" transform="translate(14.771 94.939)">
            <path id="Trazado_25833" data-name="Trazado 25833" d="M7244.349,1706h-14.343a.8.8,0,0,0,0,1.606h14.343a.8.8,0,0,0,0-1.606Z" transform="translate(-7229.203 -1706)" fill="#1e243a"/>
          </g>
          <g id="Grupo_15317" data-name="Grupo 15317" transform="translate(34.786 94.939)">
            <path id="Trazado_25834" data-name="Trazado 25834" d="M7422.893,1706h-5.887a.8.8,0,1,0,0,1.606h5.887a.8.8,0,0,0,0-1.606Z" transform="translate(-7416.203 -1706)" fill="#1e243a"/>
          </g>
        </g>
      </g>
    </g>
  </g>
</svg>
