<svg xmlns="http://www.w3.org/2000/svg" width="967.936" height="670.154" viewBox="0 0 967.936 670.154">
  <g id="Grupo_15860" data-name="Grupo 15860" transform="translate(-4089 2303)">
    <g id="Grupo_15859" data-name="Grupo 15859" transform="translate(3979.358 -2351.952)">
      <path id="Trazado_26231" data-name="Trazado 26231" d="M230.738,698.132C150.9,695.276,117.689,571.383,126.162,508.46c5.917-43.94,27.266-83.389,40.738-125.133,15.93-49.363,8.917-96.009,7.736-146.814-1.612-69.308,55.32-118.928,115.774-141.091,62.637-22.963,155.394-27.452,205.1,23.964,33.83,35,56.521,77.827,94.279,109.356,56.673,47.326,130.078,73.458,202.8,82.579,57.978,7.271,116.793,14.544,168.533,44.726,65.661,38.3,106.4,103.187,110.174,178.253,2.648,52.689-49.6,124.822-81.031,164.606C983.428,707.555,993.788,698.878,230.738,698.132Z" fill="#e9e6ff"/>
      <g id="Grupo_15751" data-name="Grupo 15751">
        <path id="Trazado_26232" data-name="Trazado 26232" d="M893.8,308.126c-28.636,17.683-61.179,27.84-89.584,45.931-27.446,17.48-50.787,41.793-70.513,67.469a476.538,476.538,0,0,0-30.384,45.06c-.845,1.406,2.1,1.509,2.782.375,16.436-27.356,35.131-53.485,57.559-76.278a257.11,257.11,0,0,1,37.314-31.807c13.851-9.511,29.031-16.824,44.261-23.821,16.934-7.778,33.983-15.327,49.871-25.138,1.66-1.025.136-2.681-1.306-1.791Z" fill="#fff"/>
      </g>
      <g id="Grupo_15752" data-name="Grupo 15752">
        <path id="Trazado_26233" data-name="Trazado 26233" d="M753.287,509.938c29.526-22.816,53.7-51.416,81.236-76.426a343.04,343.04,0,0,1,93.546-60.035,452.947,452.947,0,0,1,59.212-20.844c1.7-.475,1.409-1.659-.315-1.176-35.234,9.873-69.519,23.343-101.025,42.08-32.5,19.328-59.477,44.469-85.975,71.16-15.622,15.736-31.377,31.379-48.951,44.958-1.23.95,1.651.762,2.272.283Z" fill="#fff"/>
      </g>
      <g id="Grupo_15753" data-name="Grupo 15753">
        <path id="Trazado_26234" data-name="Trazado 26234" d="M154.96,389.3c35.045-25.071,77.891-22.605,118.247-15.839,39.669,6.651,79.522,8.5,117.194-7.91,57.685-25.134,93.455-80.2,110.889-138.8,9.9-33.288,14.51-68.085,14.683-102.78,0-.8-2.893-.29-2.9.776-.307,61.554-14.272,126.508-49.918,177.651-18.15,26.04-42.352,47.737-71.358,60.956a155.194,155.194,0,0,1-62.476,13.791c-21.046.289-41.874-3.011-62.546-6.594-38.855-6.734-80.96-5.365-114.118,18.356-1.292.924,1.6.892,2.3.393Z" fill="#fff"/>
      </g>
      <g id="Grupo_15754" data-name="Grupo 15754">
        <path id="Trazado_26235" data-name="Trazado 26235" d="M130.513,280.071c19.307-.272,37.873,5.531,56.918,7.738a355.562,355.562,0,0,0,44.176,2.362c28.831-.266,57.776-4.287,85.1-13.7a202.916,202.916,0,0,0,72.516-43.161c23.483-21.924,41.621-49.619,56.311-78.011A384.3,384.3,0,0,0,482.224,49.6c.209-1.122-2.712-.652-2.9.356a381.171,381.171,0,0,1-30.382,92.927c-13.563,28.644-30.49,56.736-52.159,80.02-40.757,43.8-98.371,63.684-157.2,65.463a355.57,355.57,0,0,1-49.157-2.021c-19.685-2.141-38.854-8.226-58.788-7.945-1.1.016-3.068,1.7-1.121,1.669Z" fill="#fff"/>
      </g>
      <g id="Grupo_15755" data-name="Grupo 15755">
        <path id="Trazado_26236" data-name="Trazado 26236" d="M1021.427,420.423a50.159,50.159,0,0,0-10.254,48.436,49.585,49.585,0,0,0,14.488,22.365,50.222,50.222,0,0,0,44.569,11.354c.391-.092.782-.184,1.159-.288-.04-1.133-.094-2.265-.148-3.4a47.516,47.516,0,0,1-6.273,1.237,46.836,46.836,0,0,1-37.1-11.391,46.293,46.293,0,0,1-11.949-16.6,46.8,46.8,0,0,1,24.482-61.432c-.71-.9-1.454-1.78-2.21-2.658A49.876,49.876,0,0,0,1021.427,420.423Z" fill="#fff"/>
      </g>
      <g id="Grupo_15756" data-name="Grupo 15756">
        <path id="Trazado_26237" data-name="Trazado 26237" d="M990.055,374.354a115.7,115.7,0,0,0,82.336,189.712c2.072-7.2,3.819-14.473,5.187-21.79a93.742,93.742,0,0,1-67.238-157.707c1.536-1.645,3.124-3.23,4.744-4.736A71.355,71.355,0,0,0,990.055,374.354Z" fill="#fff"/>
      </g>
      <g id="Grupo_15757" data-name="Grupo 15757">
        <path id="Trazado_26238" data-name="Trazado 26238" d="M382.772,73.988c-5.586.025-11.175.237-16.731.628a70.534,70.534,0,0,1-119.912,39.59c-.534-.537-1.06-1.091-1.574-1.651q-7.327,4.143-14.41,8.686c1.343,1.579,2.764,3.117,4.247,4.607a87.051,87.051,0,0,0,148.38-51.86Z" fill="#fff"/>
      </g>
      <path id="Trazado_26239" data-name="Trazado 26239" d="M591.718,164.839c5.306,16.513,15.788,31.042,27.415,44,36.851,41.059,87.111,68.69,140.468,81.648,40.574,9.853,123.106,23.476,154.111-14.194,44.6-54.194-70.989-85.14-102.526-97.394-25.731-10-44.262-29.192-59.728-51.524-19.991-28.865-54.815-54.5-92.005-53.347-43.209,1.334-80.479,43.471-68.862,86.986Q591.107,162.943,591.718,164.839Z" fill="#e9e6ff"/>
      <g id="Grupo_15758" data-name="Grupo 15758">
        <path id="Trazado_26240" data-name="Trazado 26240" d="M707.122,166.524a24,24,0,0,0-20.6,11.716,23.749,23.749,0,0,0-3.407,12.289,24.013,24.013,0,1,0,24.005-24.005Zm0,46.433a22.421,22.421,0,1,1,22.429-22.428A22.292,22.292,0,0,1,707.122,212.957Z" fill="#fff"/>
      </g>
      <g id="Grupo_15768" data-name="Grupo 15768">
        <path id="Trazado_26241" data-name="Trazado 26241" d="M690.558,357.852S707.729,339.3,722.5,334.8s20.591-2.737,25.725,3.446-3.1,16.728-11.217,18.952S714.7,361.509,690.558,357.852Z" fill="#d7d4ff"/>
        <path id="Trazado_26242" data-name="Trazado 26242" d="M695.987,336.946s1.035-25.781,9.215-39.523,13.657-16.556,21.431-15.631,8.331,14.5,3.674,21.872S716.368,322.589,695.987,336.946Z" fill="#d7d4ff"/>
        <path id="Trazado_26243" data-name="Trazado 26243" d="M675.546,383.724s23.846-14.556,41.044-14.685,22.955,3.646,26.694,11.981-8.171,17.1-17.554,16.9S700.474,395.425,675.546,383.724Z" fill="#d7d4ff"/>
        <path id="Trazado_26244" data-name="Trazado 26244" d="M674.455,399.663s27.294-3.4,43.059,3.69,19.6,12.985,19.866,22.228-13.931,12.321-22.43,8.2S692.813,420.891,674.455,399.663Z" fill="#d7d4ff"/>
        <path id="Trazado_26245" data-name="Trazado 26245" d="M664.873,405.373s13.533,9.921,17.919,19.778,3.875,14.152.494,18.475-10.917-.241-13.169-5.69S665.068,422.76,664.873,405.373Z" fill="#d7d4ff"/>
        <path id="Trazado_26246" data-name="Trazado 26246" d="M683.213,353.123s9.057-24.049,6.9-40.024-6.086-20.82-13.568-23.189-13.261,9.839-11.855,18.519S670.112,331.536,683.213,353.123Z" fill="#d7d4ff"/>
        <path id="Trazado_26247" data-name="Trazado 26247" d="M666.9,378.116s2.845-28.792-4.112-45.294-12.6-20.458-21.382-20.608-11.5,14.845-7.469,23.738S646.492,359.083,666.9,378.116Z" fill="#d7d4ff"/>
        <path id="Trazado_26248" data-name="Trazado 26248" d="M653.505,385.712s-8.263-27.505-20.906-39.669-19.338-13.409-27.478-9.865-4.979,18.389,2.094,24.825S627.515,376.878,653.505,385.712Z" fill="#d7d4ff"/>
        <path id="Trazado_26249" data-name="Trazado 26249" d="M652.482,397.224s-14.182-8.866-24.549-9.01-13.889,2.111-16.255,7.122,4.7,10.342,10.357,10.257S637.3,404.184,652.482,397.224Z" fill="#d7d4ff"/>
        <g id="Grupo_15759" data-name="Grupo 15759">
          <path id="Trazado_26250" data-name="Trazado 26250" d="M702.99,329.232c-.989,1.6-1.979,3.19-2.968,4.8q-7.8,12.6-15.46,25.263c-.677,1.122-1.354,2.244-2.014,3.38q-6.216,10.338-12.188,20.818-.652,1.143-1.3,2.287-2.8,4.938-5.525,9.918c-.2.341-.392.7-.572,1.053a.548.548,0,0,0-.1.163c-.167.307-.349.631-.515.955-.225.389-.449.794-.657,1.2-.07.114-.124.243-.2.357q-3.012,5.561-5.927,11.178c-.652,1.261-1.319,2.539-1.97,3.815l-.23-3.531-.591.039c.222-.437.459-.874.68-1.31q2.935-5.673,5.984-11.276a1.012,1.012,0,0,1,.1-.178c.362-.68.724-1.36,1.1-2.024a3.4,3.4,0,0,1,.238-.422q3.138-5.781,6.4-11.507c.615-1.118,1.26-2.237,1.907-3.342q6.288-11.022,12.838-21.875c.761-1.267,1.522-2.535,2.3-3.8q5.795-9.609,11.7-19.146c1.725-2.783,3.434-5.565,5.16-8.333C702.009,326.39,703.811,327.929,702.99,329.232Z" fill="#d7d4ff"/>
        </g>
        <g id="Grupo_15760" data-name="Grupo 15760">
          <path id="Trazado_26251" data-name="Trazado 26251" d="M682.233,346.95c-.6,3.727.137,7.472-.39,11.195a1.161,1.161,0,1,0,2.289.386c.527-3.727-.206-7.477.39-11.2a1.161,1.161,0,1,0-2.289-.386Z" fill="#d7d4ff"/>
        </g>
        <g id="Grupo_15761" data-name="Grupo 15761">
          <path id="Trazado_26252" data-name="Trazado 26252" d="M696.03,354.615l-13.987,5.706c-1.4.57-.578,2.849.821,2.279l13.988-5.706c1.4-.57.577-2.849-.822-2.279Z" fill="#d7d4ff"/>
        </g>
        <g id="Grupo_15762" data-name="Grupo 15762">
          <path id="Trazado_26253" data-name="Trazado 26253" d="M678.845,381.374c-2.664,1.313-6.493,2.55-9.44,2-1.472-.276-1.854,2.139-.386,2.415,3.329.625,7.629-.645,10.648-2.132,1.35-.666.538-2.95-.822-2.279Z" fill="#d7d4ff"/>
        </g>
        <g id="Grupo_15763" data-name="Grupo 15763">
          <path id="Trazado_26254" data-name="Trazado 26254" d="M664.281,373.463a41.28,41.28,0,0,0,1.653,5.165c.357,1.013,1.778,4.233,1.464,4.894a1.167,1.167,0,1,0,2.115.985c.669-1.4-.323-3.571-.759-4.885a60.831,60.831,0,0,1-2.162-6.407c-.319-1.515-2.634-1.281-2.311.248Z" fill="#d7d4ff"/>
        </g>
        <g id="Grupo_15764" data-name="Grupo 15764">
          <path id="Trazado_26255" data-name="Trazado 26255" d="M679.82,400.817a57.976,57.976,0,0,0-8.61-3.511c-2.7-.782-5.632-.722-8.246-1.81-1.384-.576-2.343,1.659-.954,2.237,2.338.973,4.87,1.112,7.32,1.622a43.684,43.684,0,0,1,9.537,3.7c1.359.646,2.312-1.592.953-2.237Z" fill="#d7d4ff"/>
        </g>
        <g id="Grupo_15765" data-name="Grupo 15765">
          <path id="Trazado_26256" data-name="Trazado 26256" d="M649.279,382.913c2.379,1.985,3.927,4.978,5.656,7.563,1.759,2.628,3.326,5.386,4.868,8.162.75,1.349,2.621-.117,1.874-1.46-2.981-5.365-6.244-12.262-10.938-16.18-1.165-.972-2.629.939-1.46,1.915Z" fill="#d7d4ff"/>
        </g>
        <g id="Grupo_15766" data-name="Grupo 15766">
          <path id="Trazado_26257" data-name="Trazado 26257" d="M667.68,407.565c-1.552-3.732-3.419-7.3-4.832-11.1a1.172,1.172,0,0,0-2.17.885c1.412,3.8,3.28,7.367,4.831,11.1a1.172,1.172,0,0,0,2.171-.885Z" fill="#d7d4ff"/>
        </g>
        <g id="Grupo_15767" data-name="Grupo 15767">
          <path id="Trazado_26258" data-name="Trazado 26258" d="M648.381,398.157c2.143-.893,4.822-.628,7.047-.406a20.216,20.216,0,0,1,6.556,1.445c1.362.638,2.316-1.6.954-2.238a22.82,22.82,0,0,0-7.8-1.682c-2.463-.2-5.227-.378-7.58.6-1.393.579-.574,2.859.821,2.278Z" fill="#d7d4ff"/>
        </g>
      </g>
      <g id="Grupo_15778" data-name="Grupo 15778">
        <path id="Trazado_26259" data-name="Trazado 26259" d="M478.428,375.628S464.4,354.6,463.467,339.193s2.144-20.661,9.354-24.211,15.544,6.915,15.811,15.329S487.616,353.007,478.428,375.628Z" fill="#d7d4ff"/>
        <path id="Trazado_26260" data-name="Trazado 26260" d="M459.365,365.471s-24.828-7.022-36.282-18.182-12.913-17.143-10.2-24.487,16.045-4.718,22.126,1.531S450.16,342.3,459.365,365.471Z" fill="#d7d4ff"/>
        <path id="Trazado_26261" data-name="Trazado 26261" d="M500.084,396.262s-8.591-26.585-4.7-43.337,8.9-21.472,17.878-23.162,14.724,11.935,12.34,21.012S517.277,374.752,500.084,396.262Z" fill="#d7d4ff"/>
        <path id="Trazado_26262" data-name="Trazado 26262" d="M515.327,401.042s3.06-27.335,13.636-41.01S546.161,344,555.211,345.9s8.731,16.421,2.743,23.724S540.253,388.143,515.327,401.042Z" fill="#d7d4ff"/>
        <path id="Trazado_26263" data-name="Trazado 26263" d="M518.645,411.692s12.8-10.846,23.412-12.811,14.666-.466,18.081,3.831-2.782,10.559-8.6,11.478S535.6,415.558,518.645,411.692Z" fill="#d7d4ff"/>
        <path id="Trazado_26264" data-name="Trazado 26264" d="M472.115,381.667s-21.271-14.419-37.31-16.044-21.665,1.061-25.714,7.783,6.473,15.191,15.242,15.849S448.068,389.369,472.115,381.667Z" fill="#d7d4ff"/>
        <path id="Trazado_26265" data-name="Trazado 26265" d="M492.614,403.357s-27.334-9.484-45-6.57-22.833,7.483-25.027,15.984,11.752,14.647,21.339,12.8S469.343,418.765,492.614,403.357Z" fill="#d7d4ff"/>
        <path id="Trazado_26266" data-name="Trazado 26266" d="M496.873,418.158s-28.673,1.618-43.451,11.074-17.551,15.676-16,24.418,16.72,9.132,24.629,3.756S482.22,441.37,496.873,418.158Z" fill="#d7d4ff"/>
        <path id="Trazado_26267" data-name="Trazado 26267" d="M507.83,421.839s-11.931,11.722-14.489,21.769-1.188,14,3.133,17.468,11.152-2.154,12.39-7.677S511.054,438.23,507.83,421.839Z" fill="#d7d4ff"/>
        <g id="Grupo_15769" data-name="Grupo 15769">
          <path id="Trazado_26268" data-name="Trazado 26268" d="M453.5,356.861q1.98,2,3.976,4.007,10.43,10.525,20.959,20.928c.933.919,1.866,1.839,2.817,2.746q8.6,8.457,17.4,16.71l1.92,1.8q4.149,3.87,8.356,7.686c.285.271.586.544.89.8a.554.554,0,0,0,.135.134c.26.235.533.487.808.724.327.31.668.622,1.013.918.094.1.206.178.3.274q4.7,4.225,9.487,8.371c1.074.928,2.161,1.875,3.25,2.806l-3.487-.6-.1.584c-.372-.317-.742-.65-1.114-.967q-4.833-4.178-9.569-8.449a1,1,0,0,1-.151-.137c-.576-.51-1.153-1.021-1.711-1.544a3.474,3.474,0,0,1-.354-.33q-4.889-4.4-9.695-8.913c-.944-.859-1.882-1.748-2.805-2.634q-9.25-8.687-18.276-17.588c-1.055-1.035-2.11-2.071-3.163-3.123q-7.99-7.877-15.887-15.847c-2.3-2.327-4.61-4.637-6.9-6.961C450.506,357.153,452.423,355.759,453.5,356.861Z" fill="#d7d4ff"/>
        </g>
        <g id="Grupo_15770" data-name="Grupo 15770">
          <path id="Trazado_26269" data-name="Trazado 26269" d="M465.885,381.18c3.485,1.45,7.3,1.61,10.795,2.991a1.161,1.161,0,1,0,.909-2.136c-3.5-1.382-7.319-1.544-10.795-2.991a1.161,1.161,0,1,0-.909,2.136Z" fill="#d7d4ff"/>
        </g>
        <g id="Grupo_15771" data-name="Grupo 15771">
          <path id="Trazado_26270" data-name="Trazado 26270" d="M476.557,369.552q1.143,7.465,2.285,14.932c.228,1.491,2.636,1.226,2.407-.267q-1.141-7.467-2.284-14.933c-.229-1.491-2.636-1.226-2.408.268Z" fill="#d7d4ff"/>
        </g>
        <g id="Grupo_15772" data-name="Grupo 15772">
          <path id="Trazado_26271" data-name="Trazado 26271" d="M498.568,392.505c.655,2.9.965,6.909-.261,9.646-.613,1.367,1.647,2.3,2.257.939,1.385-3.092,1.154-7.57.411-10.852-.332-1.468-2.742-1.212-2.407.267Z" fill="#d7d4ff"/>
        </g>
        <g id="Grupo_15773" data-name="Grupo 15773">
          <path id="Trazado_26272" data-name="Trazado 26272" d="M487.477,404.823a41.4,41.4,0,0,0,5.408-.4c1.069-.111,4.531-.742,5.1-.282a1.167,1.167,0,1,0,1.451-1.827c-1.21-.978-3.548-.519-4.928-.4a60.79,60.79,0,0,1-6.734.608c-1.547-.043-1.86,2.262-.3,2.306Z" fill="#d7d4ff"/>
        </g>
        <g id="Grupo_15774" data-name="Grupo 15774">
          <path id="Trazado_26273" data-name="Trazado 26273" d="M517.7,396.094a57.926,57.926,0,0,0-5.423,7.553c-1.391,2.444-2.017,5.308-3.685,7.6-.882,1.21,1.068,2.664,1.953,1.449,1.492-2.047,2.217-4.476,3.285-6.739a43.642,43.642,0,0,1,5.823-8.411c.945-1.171-1.009-2.62-1.953-1.449Z" fill="#d7d4ff"/>
        </g>
        <g id="Grupo_15775" data-name="Grupo 15775">
          <path id="Trazado_26274" data-name="Trazado 26274" d="M493.166,421.615c2.485-1.851,5.757-2.657,8.674-3.736,2.966-1.1,6.014-1.977,9.072-2.829,1.487-.414.5-2.576-.982-2.163-5.913,1.647-13.38,3.21-18.285,6.862-1.217.906.3,2.775,1.521,1.866Z" fill="#d7d4ff"/>
        </g>
        <g id="Grupo_15776" data-name="Grupo 15776">
          <path id="Trazado_26275" data-name="Trazado 26275" d="M521.431,409.473c-3.991.639-7.9,1.622-11.919,2.109a1.172,1.172,0,0,0,.354,2.317c4.023-.487,7.929-1.47,11.919-2.109a1.172,1.172,0,0,0-.354-2.317Z" fill="#d7d4ff"/>
        </g>
        <g id="Grupo_15777" data-name="Grupo 15777">
          <path id="Trazado_26276" data-name="Trazado 26276" d="M507.78,426.044c-.368-2.292.514-4.834,1.249-6.947a20.229,20.229,0,0,1,2.935-6.037c.938-1.176-1.015-2.625-1.953-1.45a22.794,22.794,0,0,0-3.456,7.19c-.767,2.349-1.586,5-1.182,7.511.239,1.49,2.647,1.226,2.407-.267Z" fill="#d7d4ff"/>
        </g>
      </g>
      <g id="Grupo_15788" data-name="Grupo 15788">
        <path id="Trazado_26277" data-name="Trazado 26277" d="M868.654,513.815s37-14.549,60.994-10.835,31.041,10.189,34.091,22.455-15.815,21.584-28.837,19.187S900.357,535.487,868.654,513.815Z" fill="#d7d4ff"/>
        <path id="Trazado_26278" data-name="Trazado 26278" d="M890.627,487.9s19.077-35.818,40.054-49.7,30.657-14.127,41.04-7.505,1.9,26.236-9.736,33.5S929.308,481.487,890.627,487.9Z" fill="#d7d4ff"/>
        <path id="Trazado_26279" data-name="Trazado 26279" d="M829.711,540.215s43.728-4.332,68.181,7.232,30.031,20.847,29.634,35.21-23.258,18.647-36.415,11.954S857.035,573.821,829.711,540.215Z" fill="#d7d4ff"/>
        <path id="Trazado_26280" data-name="Trazado 26280" d="M817.278,562.05s40.993,13.825,58.482,34.643,18.9,31.785,12.962,45.061-28.153,7.94-37.38-3.7S828.785,604.666,817.278,562.05Z" fill="#d7d4ff"/>
        <path id="Trazado_26281" data-name="Trazado 26281" d="M799.8,563.595s12.4,23.3,11.877,40.261-4.178,22.7-11.921,26.511-15.3-7.8-14.77-17.056S788.2,588.361,799.8,563.595Z" fill="#d7d4ff"/>
        <path id="Trazado_26282" data-name="Trazado 26282" d="M861.478,502.1s29.26-27.883,37.111-51.992,5.6-33.654-3.383-42.121-25.508,4.88-29.446,18.138S857.664,462.565,861.478,502.1Z" fill="#d7d4ff"/>
        <path id="Trazado_26283" data-name="Trazado 26283" d="M821.3,526.367s23.7-38.848,25.116-66.98-3.881-37.593-16.216-43.8-26.434,13.175-26.8,28.527S805.382,485.457,821.3,526.367Z" fill="#d7d4ff"/>
        <path id="Trazado_26284" data-name="Trazado 26284" d="M797.127,527.974s7.082-44.612-2.52-70.481-18.237-32.208-32.191-32.747-19.615,22.651-13.992,36.6S766.34,497.7,797.127,527.974Z" fill="#d7d4ff"/>
        <path id="Trazado_26285" data-name="Trazado 26285" d="M787.814,543.586s-14.036-22.25-28.625-29.535-21.12-6.5-27.9-1.014-.41,17.861,7.666,21.607S761.544,543.072,787.814,543.586Z" fill="#d7d4ff"/>
        <g id="Grupo_15779" data-name="Grupo 15779">
          <path id="Trazado_26286" data-name="Trazado 26286" d="M905.817,481.76c-2.491,1.584-4.983,3.168-7.484,4.775q-19.659,12.516-39.161,25.23c-1.725,1.127-3.45,2.254-5.162,3.413q-15.868,10.4-31.489,21.167l-3.409,2.35q-7.333,5.086-14.6,10.278c-.511.349-1.032.72-1.529,1.1a.869.869,0,0,0-.251.162c-.448.322-.927.657-1.384,1-.584.4-1.177.82-1.748,1.25-.178.113-.343.258-.521.372q-8.066,5.82-16.033,11.788c-1.785,1.341-3.6,2.7-5.4,4.059l2.087-5.159-.864-.35c.612-.466,1.247-.924,1.858-1.39q8.034-6.033,16.18-11.889a1.649,1.649,0,0,1,.26-.185c.977-.716,1.954-1.432,2.945-2.115a5.646,5.646,0,0,1,.625-.435q8.4-6.045,16.935-11.926c1.635-1.164,3.314-2.309,4.985-3.432Q839.1,520.5,855.788,509.6c1.945-1.276,3.889-2.552,5.856-3.82q14.773-9.654,29.66-19.13c4.344-2.764,8.666-5.539,13-8.281C906.368,477.064,907.871,480.475,905.817,481.76Z" fill="#d7d4ff"/>
        </g>
        <g id="Grupo_15780" data-name="Grupo 15780">
          <path id="Trazado_26287" data-name="Trazado 26287" d="M864.306,492.684c-3.392,4.872-4.911,10.678-8.2,15.594-1.378,2.059,1.6,4.169,2.979,2.11,3.292-4.921,4.815-10.734,8.2-15.6a1.825,1.825,0,1,0-2.979-2.109Z" fill="#d7d4ff"/>
        </g>
        <g id="Grupo_15781" data-name="Grupo 15781">
          <path id="Trazado_26288" data-name="Trazado 26288" d="M878.617,512.968,854.9,511.5c-2.368-.146-2.764,3.643-.393,3.79l23.714,1.471c2.369.147,2.765-3.642.393-3.789Z" fill="#d7d4ff"/>
        </g>
        <g id="Grupo_15782" data-name="Grupo 15782">
          <path id="Trazado_26289" data-name="Trazado 26289" d="M835.991,539.139c-4.671.04-10.941-.823-14.738-3.621-1.9-1.4-4.087,1.764-2.2,3.157,4.29,3.161,11.25,4.3,16.543,4.253,2.367-.02,2.777-3.81.392-3.789Z" fill="#d7d4ff"/>
        </g>
        <g id="Grupo_15783" data-name="Grupo 15783">
          <path id="Trazado_26290" data-name="Trazado 26290" d="M820.761,517.982a64.983,64.983,0,0,0-1.186,8.447c-.186,1.679-.373,7.211-1.269,7.933a1.835,1.835,0,1,0,2.324,2.841c1.906-1.534,1.981-5.281,2.262-7.44.451-3.47.471-7.135,1.313-10.553.582-2.365-2.856-3.615-3.444-1.228Z" fill="#d7d4ff"/>
        </g>
        <g id="Grupo_15784" data-name="Grupo 15784">
          <path id="Trazado_26291" data-name="Trazado 26291" d="M824.091,567.351a91.214,91.214,0,0,0-9.8-10.856c-3.292-2.953-7.484-4.871-10.446-8.2-1.567-1.76-4.452.751-2.879,2.518,2.648,2.976,6.139,4.9,9.262,7.3,4.215,3.235,7.647,7.613,10.984,11.756,1.485,1.843,4.364-.676,2.88-2.518Z" fill="#d7d4ff"/>
        </g>
        <g id="Grupo_15785" data-name="Grupo 15785">
          <path id="Trazado_26292" data-name="Trazado 26292" d="M793.052,521.122c2.015,4.438,2.163,9.735,2.847,14.579.7,4.925,1.031,9.9,1.321,14.888.14,2.424,3.792,1.626,3.652-.788-.559-9.637-.469-21.637-4.444-30.394-.987-2.173-4.366-.466-3.376,1.715Z" fill="#d7d4ff"/>
        </g>
        <g id="Grupo_15786" data-name="Grupo 15786">
          <path id="Trazado_26293" data-name="Trazado 26293" d="M802.281,568.617c.351-6.347.143-12.677.737-19.023.228-2.439-3.452-2.673-3.68-.229-.594,6.346-.386,12.677-.736,19.024a1.843,1.843,0,0,0,3.679.228Z" fill="#d7d4ff"/>
        </g>
        <g id="Grupo_15787" data-name="Grupo 15787">
          <path id="Trazado_26294" data-name="Trazado 26294" d="M781.367,542.106c3.646.2,7.259,2.4,10.261,4.239,2.948,1.8,6.088,3.805,8.3,6.524,1.493,1.836,4.373-.682,2.879-2.518-2.631-3.233-6.363-5.641-9.9-7.71-3.354-1.963-7.147-4.106-11.151-4.324-2.368-.13-2.766,3.659-.392,3.789Z" fill="#d7d4ff"/>
        </g>
      </g>
      <g id="Grupo_15798" data-name="Grupo 15798">
        <path id="Trazado_26295" data-name="Trazado 26295" d="M274.546,624.416s-23.863,6.217-38.366,2.151-18.36-8.577-19.329-16.357,11.34-12.119,19.182-9.678S256.629,608.719,274.546,624.416Z" fill="#d7d4ff"/>
        <path id="Trazado_26296" data-name="Trazado 26296" d="M259.094,638.743s-14.4,20.644-28.352,27.637-19.927,6.427-25.83,1.579.777-16.3,8.479-19.907S234.8,639.828,259.094,638.743Z" fill="#d7d4ff"/>
        <path id="Trazado_26297" data-name="Trazado 26297" d="M300.486,611.046s-27.251-.575-41.452-9.509-16.949-15.065-15.639-23.881,15.706-9.759,23.312-4.662S286.15,588.324,300.486,611.046Z" fill="#d7d4ff"/>
        <path id="Trazado_26298" data-name="Trazado 26298" d="M309.762,598.521s-24.22-11.554-33.447-25.671-9.282-20.975-4.641-28.711,17.926-2.8,22.745,5.051S305.835,571.423,309.762,598.521Z" fill="#d7d4ff"/>
        <path id="Trazado_26299" data-name="Trazado 26299" d="M320.639,598.865s-5.907-15.268-4.329-25.674,4.255-13.669,9.307-15.444,8.845,5.937,7.832,11.6S329.619,584.473,320.639,598.865Z" fill="#d7d4ff"/>
        <path id="Trazado_26300" data-name="Trazado 26300" d="M278.1,632.165s-20.087,15-26.71,29.267-5.943,20.31-1.039,26.19,16.071-1.114,19.478-8.987S277.514,656.793,278.1,632.165Z" fill="#d7d4ff"/>
        <path id="Trazado_26301" data-name="Trazado 26301" d="M304.64,620.2s-17.475,22.166-20.434,39.386-.4,23.439,6.739,28.177,17.256-6.154,18.618-15.581S311.409,646.572,304.64,620.2Z" fill="#d7d4ff"/>
        <path id="Trazado_26302" data-name="Trazado 26302" d="M319.645,621s-7.669,26.949-3.674,43.592,8.843,21.187,17.4,22.553,13.76-12.495,11.331-21.5S336.361,641.923,319.645,621Z" fill="#d7d4ff"/>
        <path id="Trazado_26303" data-name="Trazado 26303" d="M326.538,612.076s6.994,14.743,15.438,20.311,12.525,5.567,17.1,2.692,1.578-10.968-3.118-13.874S342.678,614.34,326.538,612.076Z" fill="#d7d4ff"/>
        <g id="Grupo_15789" data-name="Grupo 15789">
          <path id="Trazado_26304" data-name="Trazado 26304" d="M249.283,641.4q2.478-1.185,4.963-2.385,13.035-6.25,25.988-12.634c1.146-.566,2.292-1.132,3.432-1.719q10.544-5.229,20.961-10.7l2.274-1.194q4.893-2.589,9.755-5.247c.34-.177.688-.367,1.023-.565a.536.536,0,0,0,.167-.081c.3-.165.619-.336.926-.514.389-.2.786-.418,1.169-.64.118-.057.23-.134.348-.19q5.4-2.988,10.748-6.071c1.2-.694,2.419-1.393,3.625-2.1l-1.668,3.023.506.279c-.411.242-.836.476-1.247.718q-5.4,3.12-10.846,6.122a.956.956,0,0,1-.174.095c-.654.368-1.309.737-1.97,1.084a3.563,3.563,0,0,1-.417.222q-5.619,3.1-11.314,6.089c-1.093.595-2.212,1.176-3.324,1.743-7.309,3.836-14.66,7.56-22.051,11.229-1.292.642-2.584,1.284-3.889,1.918q-9.814,4.849-19.684,9.582c-2.881,1.381-5.748,2.769-8.621,4.136C248.6,644.253,247.923,642.04,249.283,641.4Z" fill="#d7d4ff"/>
        </g>
        <g id="Grupo_15790" data-name="Grupo 15790">
          <path id="Trazado_26305" data-name="Trazado 26305" d="M275.657,637.752c2.45-2.749,3.816-6.212,6.206-9a1.133,1.133,0,1,0-1.679-1.52c-2.392,2.787-3.761,6.253-6.2,9a1.132,1.132,0,1,0,1.678,1.52Z" fill="#d7d4ff"/>
        </g>
        <g id="Grupo_15791" data-name="Grupo 15791">
          <path id="Trazado_26306" data-name="Trazado 26306" d="M268.348,624.2l14.495,2.665c1.447.266,1.972-2.038.522-2.3L268.87,621.9c-1.447-.266-1.972,2.038-.522,2.3Z" fill="#d7d4ff"/>
        </g>
        <g id="Grupo_15792" data-name="Grupo 15792">
          <path id="Trazado_26307" data-name="Trazado 26307" d="M296.539,611.243c2.879.321,6.677,1.317,8.808,3.322,1.064,1,2.647-.783,1.586-1.781-2.407-2.265-6.609-3.482-9.872-3.846-1.459-.163-1.993,2.141-.522,2.3Z" fill="#d7d4ff"/>
        </g>
        <g id="Grupo_15793" data-name="Grupo 15793">
          <path id="Trazado_26308" data-name="Trazado 26308" d="M304.35,625.4a40.287,40.287,0,0,0,1.356-5.114c.239-1.02.764-4.414,1.37-4.791a1.139,1.139,0,1,0-1.221-1.922c-1.288.8-1.611,3.105-1.944,4.414a59.324,59.324,0,0,1-1.591,6.4c-.534,1.413,1.491,2.438,2.03,1.011Z" fill="#d7d4ff"/>
        </g>
        <g id="Grupo_15794" data-name="Grupo 15794">
          <path id="Trazado_26309" data-name="Trazado 26309" d="M305.959,594.751a56.505,56.505,0,0,0,5.231,7.412c1.808,2.063,4.248,3.555,5.825,5.823.834,1.2,2.8-.132,1.96-1.337-1.41-2.029-3.418-3.474-5.163-5.181a42.576,42.576,0,0,1-5.893-8.054c-.777-1.245-2.737.092-1.96,1.337Z" fill="#d7d4ff"/>
        </g>
        <g id="Grupo_15795" data-name="Grupo 15795">
          <path id="Trazado_26310" data-name="Trazado 26310" d="M321.646,625.522c-.911-2.883-.61-6.156-.672-9.189-.064-3.085.1-6.176.291-9.267.093-1.5-2.216-1.283-2.308.214-.371,5.977-1.316,13.36.483,19.048.447,1.411,2.655.611,2.206-.806Z" fill="#d7d4ff"/>
        </g>
        <g id="Grupo_15796" data-name="Grupo 15796">
          <path id="Trazado_26311" data-name="Trazado 26311" d="M319.484,595.588c-.686,3.883-1.028,7.8-1.864,11.661a1.143,1.143,0,0,0,2.249.413c.836-3.864,1.178-7.778,1.864-11.661a1.143,1.143,0,0,0-2.249-.413Z" fill="#d7d4ff"/>
        </g>
        <g id="Grupo_15797" data-name="Grupo 15797">
          <path id="Trazado_26312" data-name="Trazado 26312" d="M330.4,613.465c-2.23-.393-4.292-2.018-6.005-3.371a19.725,19.725,0,0,1-4.628-4.633c-.783-1.241-2.743.1-1.96,1.337a22.256,22.256,0,0,0,5.524,5.483c1.92,1.457,4.1,3.057,6.547,3.489,1.449.255,1.975-2.049.522-2.3Z" fill="#d7d4ff"/>
        </g>
      </g>
      <g id="Grupo_15799" data-name="Grupo 15799">
        <path id="Trazado_26313" data-name="Trazado 26313" d="M142.276,493.674a49.758,49.758,0,0,0-14.479-2.017c-.182,1.1-.367,2.217-.531,3.326a46.845,46.845,0,1,1,.283,93.676c.179,1.108.376,2.222.585,3.33a50.166,50.166,0,0,0,14.142-98.315Z" fill="#fff"/>
      </g>
      <g id="Grupo_15800" data-name="Grupo 15800">
        <path id="Trazado_26314" data-name="Trazado 26314" d="M224.386,522.858a115.946,115.946,0,0,0-80.915-90.5q-3.793,10.326-6.879,20.88a93.794,93.794,0,0,1,2.366,179.42q3.659,10.337,8.251,20.433A115.952,115.952,0,0,0,224.386,522.858Z" fill="#fff"/>
      </g>
      <circle id="Elipse_799" data-name="Elipse 799" cx="7.793" cy="7.793" r="7.793" transform="translate(396.79 119.609)" fill="#fff"/>
      <circle id="Elipse_800" data-name="Elipse 800" cx="7.793" cy="7.793" r="7.793" transform="translate(197.649 398.634)" fill="#fff"/>
      <circle id="Elipse_801" data-name="Elipse 801" cx="7.793" cy="7.793" r="7.793" transform="translate(1018.446 573.69)" fill="#fff"/>
      <circle id="Elipse_802" data-name="Elipse 802" cx="7.793" cy="7.793" r="7.793" transform="translate(720.643 228.824)" fill="#fff"/>
      <g id="Grupo_15801" data-name="Grupo 15801">
        <path id="Trazado_26315" data-name="Trazado 26315" d="M404.58,111.841a15.557,15.557,0,0,0-13.35,7.594,15.392,15.392,0,0,0-2.208,7.964,15.563,15.563,0,1,0,15.558-15.558Zm0,30.094A14.531,14.531,0,1,1,419.116,127.4,14.448,14.448,0,0,1,404.58,141.935Z" fill="#fff"/>
      </g>
      <circle id="Elipse_803" data-name="Elipse 803" cx="4.398" cy="4.398" r="4.398" transform="translate(365.758 309.871)" fill="#fff"/>
      <g id="Grupo_15802" data-name="Grupo 15802">
        <path id="Trazado_26316" data-name="Trazado 26316" d="M370.153,298.708A15.56,15.56,0,0,0,356.8,306.3a15.394,15.394,0,0,0-2.207,7.965,15.563,15.563,0,1,0,15.557-15.558Zm0,30.094a14.531,14.531,0,1,1,14.536-14.536A14.448,14.448,0,0,1,370.153,328.8Z" fill="#fff"/>
      </g>
      <circle id="Elipse_804" data-name="Elipse 804" cx="7.793" cy="7.793" r="7.793" transform="translate(434.038 636.138)" fill="#fff"/>
      <g id="Grupo_15803" data-name="Grupo 15803">
        <path id="Trazado_26317" data-name="Trazado 26317" d="M441.828,628.371a15.556,15.556,0,0,0-13.35,7.593,15.392,15.392,0,0,0-2.208,7.964,15.563,15.563,0,1,0,15.558-15.557Zm0,30.094a14.532,14.532,0,1,1,14.536-14.537A14.451,14.451,0,0,1,441.828,658.465Z" fill="#fff"/>
      </g>
      <path id="Trazado_26318" data-name="Trazado 26318" d="M388.337,435.4c-3.179,3.456-6.247,5.069-10.44,4.986-3.05-.065-6.257-.175-9.482-.148h-.009a50.189,50.189,0,0,0-14.956,1.9c-7.934,2.58-14.053,4.764-21.148-.028-6.782-4.571-11.9-12.495-16.43-19.628-2.829-4.441-6.506-9.694-9.178-15.029a35.856,35.856,0,0,1-3.106-8.312c-1.594-7.353,4.479-13.9,17.177-15.969a225.714,225.714,0,0,1,9.832,21.36c1.161,3.078,2.534,6.1,3.668,9.169.81,2.183,5.9,8.634,7.086,9.814,2.93,2.893,18.688,5.418,23.645,5.418,8.764.009,11.9-3.511,19.794.46C388.383,431.2,391.885,431.549,388.337,435.4Z" fill="#ffadae"/>
      <path id="Trazado_26319" data-name="Trazado 26319" d="M368.415,440.238h-.009a50.189,50.189,0,0,0-14.956,1.9c-7.934,2.58-14.053,4.764-21.148-.028-6.782-4.571-11.9-12.495-16.43-19.628-2.829-4.441-6.506-9.694-9.178-15.029l13.767-21.7s2.636,18.307,3.1,24.14,7.5,23.786,13.182,23.629,9.052,1.862,17.429.941a32.49,32.49,0,0,1,14.264,1.409s-.055,2.719,1.558,3.585C370.525,439.741,369.723,440.008,368.415,440.238Z" fill="#ff9395"/>
      <g id="Grupo_15804" data-name="Grupo 15804">
        <path id="Trazado_26320" data-name="Trazado 26320" d="M338.8,426.144c1.825-.94,3.508-2.419,5.62-2.623,1.317-.127,1.33-2.2,0-2.073-2.57.248-4.443,1.761-6.666,2.906-1.187.611-.139,2.4,1.046,1.79Z" fill="#fff"/>
      </g>
      <g id="Grupo_15806" data-name="Grupo 15806">
        <g id="Grupo_15805" data-name="Grupo 15805">
          <path id="Trazado_26321" data-name="Trazado 26321" d="M902.795,246.641c-2,.353-3.972.772-5.869,1.236l-.1.033a1.49,1.49,0,1,0,.729,2.89l.1-.022c1.831-.463,3.728-.86,5.648-1.2a.374.374,0,0,0,.11-.011,1.523,1.523,0,0,0,1.115-1.721A1.5,1.5,0,0,0,902.795,246.641Zm-9.929,3.916a1.461,1.461,0,0,0-1.886-.926c-1.975.662-3.883,1.412-5.715,2.217a1.493,1.493,0,0,0,.971,2.813,1.4,1.4,0,0,0,.254-.088c1.732-.772,3.574-1.478,5.438-2.118A1.492,1.492,0,0,0,892.866,250.557Zm22.008-5.228c-2.03.088-4.06.253-6.056.463a1.5,1.5,0,0,0-1.324,1.655,1.479,1.479,0,0,0,1.644,1.3c1.93-.187,3.894-.342,5.879-.441a.928.928,0,0,0,.3-.044,1.49,1.49,0,0,0-.441-2.934Zm12.146.165c-2.008-.143-4.06-.232-6.068-.254a1.49,1.49,0,0,0-.044,2.979c1.964.044,3.939.121,5.891.265a1.779,1.779,0,0,0,.486-.044,1.5,1.5,0,0,0-.265-2.946Zm12.035,1.578c-1.963-.375-3.982-.707-6-.96a1.485,1.485,0,1,0-.386,2.945c1.964.265,3.916.574,5.825.949a1.783,1.783,0,0,0,.64-.022,1.492,1.492,0,0,0-.078-2.912Zm11.771,3.088c-.717-.253-1.434-.485-2.162-.706-1.192-.375-2.427-.728-3.674-1.048a1.493,1.493,0,0,0-.75,2.891c1.192.3,2.383.651,3.541,1,.7.209,1.4.441,2.085.684a1.56,1.56,0,0,0,.839.033,1.52,1.52,0,0,0,1.048-.971A1.463,1.463,0,0,0,950.826,250.16Zm11.2,4.81c-1.787-.949-3.629-1.831-5.505-2.625a1.49,1.49,0,1,0-1.18,2.736c1.809.772,3.585,1.621,5.284,2.526a1.582,1.582,0,0,0,1.07.132,1.529,1.529,0,0,0,.949-.75A1.494,1.494,0,0,0,962.023,254.97Zm10.27,6.575c-1.588-1.225-3.287-2.416-5-3.508a1.493,1.493,0,1,0-1.61,2.515c1.643,1.059,3.265,2.2,4.8,3.365a1.47,1.47,0,0,0,1.269.254,1.416,1.416,0,0,0,.816-.53A1.5,1.5,0,0,0,972.293,261.545Zm8.969,8.318a59.278,59.278,0,0,0-4.291-4.369,1.5,1.5,0,0,0-2.107.078,1.475,1.475,0,0,0,.077,2.107c1.434,1.334,2.813,2.735,4.093,4.169a1.49,1.49,0,0,0,2.107.122A1.488,1.488,0,0,0,981.262,269.863Zm7.193,9.917a59.462,59.462,0,0,0-3.343-5.152,1.507,1.507,0,0,0-2.085-.331,1.488,1.488,0,0,0-.331,2.085,55.261,55.261,0,0,1,3.177,4.887,1.5,1.5,0,0,0,1.655.707,1.751,1.751,0,0,0,.386-.166A1.475,1.475,0,0,0,988.455,279.78Zm4.975,11.208a54.111,54.111,0,0,0-2.184-5.747,1.5,1.5,0,0,0-2.736,1.213,52.481,52.481,0,0,1,2.085,5.45,1.473,1.473,0,0,0,1.776.982.207.207,0,0,0,.088-.022A1.483,1.483,0,0,0,993.43,290.988ZM971.422,296.6a1.483,1.483,0,0,0-1.754-1.158c-.353.077-.706.165-1.059.243a29.7,29.7,0,0,0-4.931,1.71,1.486,1.486,0,0,0,.96,2.8.644.644,0,0,0,.242-.089,28.718,28.718,0,0,1,4.457-1.522c.342-.077.629-.166.938-.21A1.5,1.5,0,0,0,971.422,296.6Zm10.6-1.677a48.233,48.233,0,0,0-6.177-.165,1.491,1.491,0,1,0,.121,2.979,45.757,45.757,0,0,1,5.781.154,1.321,1.321,0,0,0,.507-.033,1.495,1.495,0,0,0-.232-2.935Zm-21.732,5.891a1.492,1.492,0,0,0-2.074-.375,28.483,28.483,0,0,0-4.765,4.126,1.489,1.489,0,0,0,.088,2.118,1.46,1.46,0,0,0,1.368.342,1.528,1.528,0,0,0,.739-.43,25.288,25.288,0,0,1,4.269-3.7A1.5,1.5,0,0,0,960.291,300.817Zm34.683-3.894a1.494,1.494,0,0,0-2.934.078c-1.3-.42-2.6-.784-3.916-1.082a1.49,1.49,0,1,0-.673,2.9,50.132,50.132,0,0,1,5.107,1.489c.144.993.265,1.986.353,2.989a1.494,1.494,0,0,0,1.633,1.324.769.769,0,0,0,.221-.033A1.475,1.475,0,0,0,995.89,303,56.023,56.023,0,0,0,994.974,296.923ZM951.8,309.146a1.484,1.484,0,0,0-2,.684,17.8,17.8,0,0,0-1.754,6.012l-.011.243a1.48,1.48,0,0,0,1.357,1.611,1.735,1.735,0,0,0,.485-.045A1.482,1.482,0,0,0,951,316.339l.023-.188a14.281,14.281,0,0,1,1.456-5.008A1.475,1.475,0,0,0,951.8,309.146ZM1005,303.123a57.5,57.5,0,0,0-5.328-3.012,1.49,1.49,0,0,0-1.324,2.67c1.688.849,3.4,1.809,5.064,2.868a1.58,1.58,0,0,0,1.169.188,1.55,1.55,0,0,0,.893-.651A1.486,1.486,0,0,0,1005,303.123Zm-10.326,4.5a1.5,1.5,0,0,0-1.489,1.489l-.022.287a23.367,23.367,0,0,1-.651,5.306,1.492,1.492,0,0,0,1.092,1.8,1.529,1.529,0,0,0,.706,0,1.486,1.486,0,0,0,1.093-1.092,26.793,26.793,0,0,0,.761-5.946v-.331A1.516,1.516,0,0,0,994.676,307.624Zm20.067,2.868c-1.544-1.368-3.122-2.681-4.711-3.883a1.493,1.493,0,0,0-1.8,2.383c1.512,1.158,3.045,2.416,4.523,3.728a1.474,1.474,0,0,0,1.357.331,1.376,1.376,0,0,0,.75-.441A1.5,1.5,0,0,0,1014.743,310.492Zm-60.795,16.029a14.927,14.927,0,0,1-2.449-4.81,1.494,1.494,0,1,0-2.868.839,17.759,17.759,0,0,0,2.945,5.791,1.529,1.529,0,0,0,1.556.541,1.319,1.319,0,0,0,.54-.265A1.493,1.493,0,0,0,953.948,326.521Zm38.632-7.182a1.488,1.488,0,0,0-2,.673,27.077,27.077,0,0,1-3,4.8,1.508,1.508,0,0,0,.265,2.107,1.468,1.468,0,0,0,1.269.265,1.437,1.437,0,0,0,.816-.53,30.675,30.675,0,0,0,3.331-5.328A1.474,1.474,0,0,0,992.58,319.339Zm-29.763,13.735a20.873,20.873,0,0,1-3.563-1.821c-.452-.275-.9-.573-1.324-.882a1.5,1.5,0,0,0-1.765,2.416c.486.342.993.673,1.49.993a22.625,22.625,0,0,0,4.092,2.063,1.474,1.474,0,0,0,1.931-.85A1.492,1.492,0,0,0,962.817,333.074Zm60.442-13.911-.761-.861c-1.081-1.235-2.217-2.449-3.353-3.607a1.474,1.474,0,0,0-2.107-.011,1.5,1.5,0,0,0-.023,2.107c1.1,1.114,2.2,2.3,3.255,3.486l.739.85a1.527,1.527,0,0,0,1.5.463,1.354,1.354,0,0,0,.607-.32A1.488,1.488,0,0,0,1023.259,319.163Zm-37.5,9.928a1.5,1.5,0,0,0-2.118-.187,24.41,24.41,0,0,1-4.677,3.122,1.494,1.494,0,0,0,1.048,2.78,1.564,1.564,0,0,0,.319-.111,26.992,26.992,0,0,0,5.24-3.519A1.473,1.473,0,0,0,985.763,329.091ZM975.5,335.059a1.483,1.483,0,0,0-1.776-1.125,19.423,19.423,0,0,1-5.516.375,1.494,1.494,0,1,0-.232,2.979,22.2,22.2,0,0,0,6.376-.442l.055-.022A1.5,1.5,0,0,0,975.5,335.059Zm55.378-6.541c-1.114-1.468-2.272-2.957-3.442-4.391-.088-.121-.187-.232-.286-.353a1.486,1.486,0,0,0-2.306,1.875c.54.673,1.081,1.357,1.621,2.041.7.872,1.368,1.754,2.041,2.626a1.482,1.482,0,0,0,1.556.551,1.347,1.347,0,0,0,.54-.253A1.493,1.493,0,0,0,1030.882,328.518Zm6.972,9.851c-1.114-1.688-2.261-3.354-3.4-4.975a1.492,1.492,0,1,0-2.438,1.72c1.126,1.589,2.251,3.244,3.343,4.9a1.509,1.509,0,0,0,1.611.629,1.3,1.3,0,0,0,.452-.209A1.483,1.483,0,0,0,1037.854,338.369Zm6.3,10.281c-.993-1.754-2.03-3.5-3.067-5.2a1.5,1.5,0,0,0-2.04-.485,1.49,1.49,0,0,0-.5,2.052c.254.419.508.838.772,1.258v.01c.761,1.258,1.512,2.549,2.251,3.839a1.487,1.487,0,0,0,1.665.706,1.518,1.518,0,0,0,.365-.154A1.455,1.455,0,0,0,1044.153,348.65Zm5.681,10.635c-.882-1.776-1.809-3.586-2.747-5.351a1.5,1.5,0,1,0-2.647,1.4c.938,1.743,1.842,3.52,2.725,5.274a1.459,1.459,0,0,0,1.688.783,1.412,1.412,0,0,0,.309-.1A1.491,1.491,0,0,0,1049.834,359.285Zm5.053,10.943c-.794-1.853-1.611-3.7-2.449-5.505a1.5,1.5,0,0,0-2.714,1.258c.827,1.765,1.644,3.6,2.427,5.427a1.5,1.5,0,0,0,1.732.861c.077-.033.154-.044.232-.077A1.5,1.5,0,0,0,1054.887,370.228Zm4.479,11.186c-.706-1.886-1.434-3.773-2.174-5.615a1.49,1.49,0,1,0-2.768,1.1c.739,1.82,1.445,3.7,2.14,5.56a1.487,1.487,0,0,0,1.765.916,1.142,1.142,0,0,0,.154-.045A1.5,1.5,0,0,0,1059.366,381.414Zm3.905,11.4c-.607-1.92-1.236-3.85-1.887-5.726a1.495,1.495,0,1,0-2.824.982c.64,1.842,1.269,3.74,1.876,5.637a1.5,1.5,0,0,0,1.776,1l.1-.022A1.493,1.493,0,0,0,1063.271,392.81Zm3.42,11.528c-.541-1.931-1.081-3.884-1.644-5.792a1.492,1.492,0,0,0-1.853-.993,1.475,1.475,0,0,0-1.015,1.843c.562,1.886,1.1,3.827,1.621,5.725a1.5,1.5,0,0,0,1.81,1.059l.022-.011A1.5,1.5,0,0,0,1066.691,404.338Zm2.934,11.671c-.441-1.831-.871-3.707-1.335-5.527l-.088-.331a1.485,1.485,0,0,0-2.879.728l.066.32c.463,1.809.893,3.652,1.324,5.472a1.5,1.5,0,0,0,1.776,1.125l.033-.011A1.5,1.5,0,0,0,1069.625,416.009Zm1.291,5.869a1.482,1.482,0,0,0-1.765-1.148,1.5,1.5,0,0,0-1.159,1.766c.408,1.93.806,3.894,1.192,5.846a1.475,1.475,0,0,0,1.743,1.17.163.163,0,0,0,.077-.011,1.5,1.5,0,0,0,1.114-1.732C1071.732,425.816,1071.324,423.83,1070.916,421.878Zm2.294,11.8a1.5,1.5,0,1,0-2.945.518c.342,1.953.673,3.927.993,5.88a1.492,1.492,0,0,0,1.71,1.235.251.251,0,0,0,.121-.033,1.467,1.467,0,0,0,1.114-1.677C1073.883,437.631,1073.552,435.645,1073.21,433.682Zm1.909,11.869a1.51,1.51,0,0,0-1.7-1.268,1.477,1.477,0,0,0-1.258,1.688c.276,1.974.552,3.938.806,5.913a1.506,1.506,0,0,0,1.676,1.29c.067-.011.122-.033.177-.044a1.467,1.467,0,0,0,1.1-1.632C1075.681,449.523,1075.406,447.526,1075.119,445.551Zm1.544,11.9a1.489,1.489,0,1,0-2.956.353c.231,1.963.452,3.949.639,5.923a1.489,1.489,0,0,0,1.644,1.324.7.7,0,0,0,.21-.033,1.487,1.487,0,0,0,1.125-1.588C1077.115,461.437,1076.9,459.44,1076.663,457.455Z" fill="#7661ce"/>
        </g>
      </g>
      <path id="Trazado_26322" data-name="Trazado 26322" d="M895.857,255.368l-.777,7.306-67.922,3.091Z" fill="#6737c3"/>
      <path id="Trazado_26323" data-name="Trazado 26323" d="M892.65,230.542l-1.511,10.837-63.981,24.386Z" fill="#6737c3"/>
      <path id="Trazado_26324" data-name="Trazado 26324" d="M892.65,230.542l-13.779-9.515-51.713,44.738Z" fill="#d8ccff"/>
      <path id="Trazado_26325" data-name="Trazado 26325" d="M901.714,237.349l20.23,14.584-94.786,13.833Z" fill="#d8ccff"/>
      <g id="Grupo_15807" data-name="Grupo 15807">
        <path id="Trazado_26326" data-name="Trazado 26326" d="M839.219,719.106h-351.8a2.207,2.207,0,1,1,0-4.413h351.8a2.207,2.207,0,0,1,0,4.413Z" fill="#5652e8"/>
      </g>
      <g id="Grupo_15808" data-name="Grupo 15808">
        <path id="Trazado_26327" data-name="Trazado 26327" d="M449.176,719.106H316.1a2.207,2.207,0,0,1,0-4.413H449.176a2.207,2.207,0,0,1,0,4.413Z" fill="#5652e8"/>
      </g>
      <path id="Trazado_26328" data-name="Trazado 26328" d="M436.126,451.75s54.888,10.037,65.133-17.763,47.353-73.341,54.665-92.8,4.151-82.441,1.745-106.254,51.981-14.53,70.682,38.919-.369,107.674,9.349,112.029,131.533-4.833,150.854,10.868,17.188,60.415-1.125,68.506c0,0,38.25,55.167-12.608,86.5,0,0,20.121,52.073-33.212,63.783,0,0,7.448,57.459-58.332,60.574s-169.167-2.778-169.167-2.778-34.185-14.616-67.441-33.341S436.126,451.75,436.126,451.75Z" fill="#fff"/>
      <path id="Trazado_26329" data-name="Trazado 26329" d="M812.005,441.664c-1.47,10.98-5.29,20.04-10.88,26.24,5.74,11.13,13.74,31.52,9.34,52.58-2.97,14.15-10.84,26.1-23.45,35.66,2.29,9.99,4.31,27.47-4.05,43.04-6.14,11.42-16.42,19.58-30.66,24.31-.39,9.98-3.01,26.21-14.47,39.89-11.96,14.28-30.15,22.09-54.06,23.23-13.76.64-29.2.9-45.02.9-46.8,0-96.89-2.25-116.59-3.23-5.36-.27-8.47-.45-8.65-.46l-1.84-.11-1.69-.71c-1.22-.52-26.08-11.18-54.16-26.05q-4.815-2.535-9.71-5.24a60.072,60.072,0,0,1,.81-11.57,61.265,61.265,0,0,1,2.92-10.93,76.491,76.491,0,0,1,11.96-21.03s179.68,32.8,209.1-32.99,60.959-41.657,75.369-80.917c9.43-25.69,15.141-63.383,2.611-95.453-1.5-3.83-3.05-7.46-4.61-10.83-1.86-4-3.74-7.64-5.62-10.81,27.46,1.17,47.68,4.22,56.53,11.41C810.085,400.7,814.375,423.974,812.005,441.664Z" fill="#f1f0ff"/>
      <path id="Trazado_26330" data-name="Trazado 26330" d="M795.185,388.594c-8.85-7.19-29.07-10.24-56.53-11.41-17.34-.74-37.57-.74-59.64-.56-12.909.08-27.21.16-33.76-.08-.05-4,.42-10.37.82-15.78,1.65-22.4,4.14-56.24-7.8-90.38-15.48-44.24-53.58-62.17-73.97-57.6-11.55,2.57-18.26,11.67-17.09,23.21,2.81,27.87,4.83,85.62-1.12,101.5-2.9,7.68-12.56,22.19-21.9,36.23-13.16,19.78-26.77,40.24-32.8,56.62-3.33,9.05-17.14,12.18-30.77,12.61a116.064,116.064,0,0,1-22.62-1.54l-10.84-1.96-1.46,10.9c-3.53,26.36-11,91.33-6.52,140.4,2.55,28.04,9,50.9,22.32,58.39q2.31,1.3,4.61,2.57,4.89,2.7,9.71,5.24c28.08,14.87,52.94,25.53,54.16,26.05l1.69.71,1.84.11c.18.01,3.29.19,8.65.46,19.7.98,69.79,3.23,116.59,3.23,15.82,0,31.26-.26,45.02-.9,23.91-1.14,42.1-8.95,54.06-23.23,11.46-13.68,14.08-29.91,14.47-39.89,14.24-4.73,24.52-12.89,30.66-24.31,8.36-15.57,6.34-33.05,4.05-43.04,12.61-9.56,20.48-21.51,23.45-35.66,4.4-21.06-3.6-41.45-9.34-52.58,5.59-6.2,9.41-15.26,10.88-26.24C814.375,423.974,810.085,400.7,795.185,388.594Zm-5.3,127.59c-2.26,10.77-8.98,19.47-20.58,26.62l-2.03,1.25a7.643,7.643,0,0,0-3.12,9.27l.86,2.22c.07.19,7.12,19.38-.58,33.69-4.25,7.92-12.68,13.32-25.09,16.04l-1.91.42a8.374,8.374,0,0,0-6.51,9.25l.25,1.95c.04.18,2.12,19.17-9.46,32.99-8.03,9.59-21.13,14.88-38.93,15.73-43.17,2.04-103.44.12-138.85-1.37-13.53-.58-23.44-1.09-27.37-1.3-6.4-2.8-30.18-13.39-55.22-26.87-3.16-1.71-6.35-3.45-9.52-5.24a7.755,7.755,0,0,1-1.98-1.62c-3.93-4.22-6.69-13.84-8.43-27.15-4.27-32.55-2.42-87.13,3.81-138.53a132.44,132.44,0,0,0,18.95.44c18.42-.98,39.69-6.67,46.95-26.36,5.18-14.06,18.67-34.34,30.58-52.24,10.91-16.4,20.33-30.55,24.07-40.49,8.86-23.63,4.11-93.56,1.98-111.19.53-.38,4.2-1.49,11.12.69,13.32,4.13,30.69,17.59,39.55,42.94,10.51,30.02,8.21,61.24,6.69,81.89-1.41,18.97-2.33,31.51,8.29,36.26,4.91,2.2,13.57,2.38,45.75,2.17,16.55-.13,46.29-.33,69.73,1.18,16.01,1.05,29.09,2.88,33.03,6.09,7.22,5.85,11.11,20.14,9.25,33.96-1.3,9.73-4.95,15.43-7.98,16.77l-3.05,1.34a7.767,7.767,0,0,0-3.24,11.53l1.89,2.73C778.955,471.484,794.415,494.554,789.885,516.184Z" fill="#5652e8"/>
      <path id="Trazado_26331" data-name="Trazado 26331" d="M464.215,461.274l-.04,2.7-2.37,144.21-.46,27.89v.1a44.693,44.693,0,0,1-45.4,43.94l-53.27-.88a44.662,44.662,0,0,1-43.93-45.4l2.87-174.9a44.6,44.6,0,0,1,45.4-43.93l53.27.87a44.687,44.687,0,0,1,40.34,27.08,43.957,43.957,0,0,1,3.03,10.41A45.84,45.84,0,0,1,464.215,461.274Z" fill="#5652e8"/>
      <path id="Trazado_26332" data-name="Trazado 26332" d="M745.486,629.867c2.574-8.421,14.862-9.1,21.237-7.623a52.431,52.431,0,0,1,12.07,4.842c4.284,2.176,8.863,3.726,13.056,6.2a71.948,71.948,0,0,0,33.649,10.13c10.447.417,21.759-2.731,31.578-5.975,8.326-2.751,16.79-5.467,25.045-8.537,3.818-1.419,8.669-3.557,12.752-3.7,4.939-.169,16.44,1.969,16.16,7.169-.778,14.489-25.312,26.125-36.14,32.43-6.838,3.982-13.767,7.836-20.587,11.841a38.218,38.218,0,0,1-15.6,5.514C827.9,683.2,816.444,678.321,807.29,673c-11.274-6.556-20.979-15.35-31.6-22.985C771.427,646.947,766.924,644.867,745.486,629.867Z" fill="#2e1d66"/>
      <path id="Trazado_26333" data-name="Trazado 26333" d="M879.34,600.625c-1.584,1.393-3.751,4.015-5.877,4.506-2.076.483-3.665-1.151-5.728-1.324-9.137-.767-18.53,4.03-27.241,6.257-11.5,2.938-23.791,5.609-35.709,5.579-5.4-.014-10.743.746-15.979-.856-3.7-1.129-9.659-3.223-12.536-5.972-4.885-4.668-.04-10.908,2.106-15.834,3.77-8.648,5.323-17.618,7.982-26.574,1.877-6.321,4.357-14.5,10.87-17.52,11.477-5.323,24.5-9.249,37.256-8.688,9.359.411,18.929,3.615,25.955,9.957,5.428,4.9,7.851,11.879,10.5,18.48a54.676,54.676,0,0,0,4.678,9.812c2.117,3.225,5.043,5.825,6.588,9.459A10.453,10.453,0,0,1,879.34,600.625Z" fill="#ff2e57"/>
      <path id="Trazado_26334" data-name="Trazado 26334" d="M812.247,545.308c1.138-3.041,7.831-4.566,10.636-5.063,4.768-.845,9.9-.231,14.648.435,4.687.658,10.744,2.665,9.143,8.731-1.172,4.44-4.161,8.835-6.43,12.8-1.483,2.591-3.084,5.012-4.792,7.455a22.851,22.851,0,0,0-1.43,2.488,2.874,2.874,0,0,1-4.912.32c-2.463-3.624-5.888-6.841-8.657-10.092C816.244,557.44,812.586,553.66,812.247,545.308Z" fill="#fff"/>
      <path id="Trazado_26335" data-name="Trazado 26335" d="M798.134,594.7c-.085-2.859.843-5.525,1.359-8.256.691-3.652,1.418-5.058,3.871-1.169,1.107,1.756,5.317,7.074,4.819,9.145C807.7,596.43,801.125,597.645,798.134,594.7Z" fill="#bc2650"/>
      <path id="Trazado_26336" data-name="Trazado 26336" d="M852.535,592.426c-.068-2.315.7-4.392,1.138-6.606.226-1.145.593-6.21,1.577-6.857,2.843-1.869,6.583,10.708,6.618,12.694.04,2.34-.781,1.947-3.254,2.425C857.064,594.381,855.094,595,852.535,592.426Z" fill="#bc2650"/>
      <path id="Trazado_26337" data-name="Trazado 26337" d="M865.614,637.449c-1.725,1.152-3.591,2.7-5.535,3.783a11.589,11.589,0,0,1-2.186.965,10.1,10.1,0,0,1,.879-2.5c.842-1.9,2.19-4.575,3.606-7.306,2.558-4.962,5.335-10.125,5.69-11.281a33.623,33.623,0,0,0,1.329-6.715c.478-4.5,2.95-8.149,6.287-11.873,1.348-1.511,2.841-3.031,4.393-4.629.273,3.974,2.062,7.866,2.454,11.836C883.15,616.062,870.413,634.258,865.614,637.449Z" fill="#ffadae"/>
      <path id="Trazado_26338" data-name="Trazado 26338" d="M798.589,632.464c-.3,2.235-.814,4.416-1.133,6.642a25.877,25.877,0,0,0-.264,2.936c0,.05-.005.1-.005.155-.041-.032-.077-.068-.118-.105-3.988-3.46-13.584-16.684-16.184-21.036-1.843-3.087-5-8.554-4.6-12.242a26,26,0,0,1,5.39,2.878,13.867,13.867,0,0,0,2.8,1.388c2.126.7,6.656.833,8.058,2.677C793.823,617.45,798.849,630.543,798.589,632.464Z" fill="#ffadae"/>
      <path id="Trazado_26339" data-name="Trazado 26339" d="M461.8,608.184l-.46,27.89v.1a44.693,44.693,0,0,1-45.4,43.94l-53.27-.88a44.662,44.662,0,0,1-43.93-45.4l2.87-174.9a44.689,44.689,0,0,1,33.06-42.42c-2.25,31.79-3.27,130.38,64.51,174.24a117.6,117.6,0,0,0,11.13,6.37q5.311,2.685,11.1,4.94A141.076,141.076,0,0,0,461.8,608.184Z" fill="#4343d1"/>
      <path id="Trazado_26340" data-name="Trazado 26340" d="M844.341,695.765c1.889.287,3.648,1.95,5.341,2.845a16.3,16.3,0,0,0,8.788,1.707,49.819,49.819,0,0,0,7.637-1.11c2.279-.475,5.04-.611,7.129-1.787,2.25-1.266,5.3-4.3,6.053-6.783,1.069-3.541-2.691-4.009-5.358-4.381-5.175-.724-11.494-.328-16.616.177-3.111.307-6.1.819-9.193,1.147C844.611,687.952,841.7,688.358,844.341,695.765Z" fill="#1f1440"/>
      <path id="Trazado_26341" data-name="Trazado 26341" d="M819.531,688.032c-5.111,1.635-9.873.227-15.023-.91-3.183-.7-6.139-2.111-9.388-2.276-3.629-.185-5.615,1.109-8.455,3.281-2.892,2.211-4.467,3.825-2.649,7.177a12.179,12.179,0,0,0,.923,1.473c2.414,2.213,5.809,2.687,9.268,2.888.692.04,1.386.069,2.075.1,6.632.1,13.006.1,19.779-1.352a10.254,10.254,0,0,0,1.727-.866,10.142,10.142,0,0,0,1.635-1.282,7.023,7.023,0,0,0,1.184-1.308C821.892,693.089,821.906,690.8,819.531,688.032Z" fill="#1f1440"/>
      <path id="Trazado_26342" data-name="Trazado 26342" d="M865.614,637.449c-1.725,1.152-3.591,2.7-5.535,3.783a2.886,2.886,0,0,1-1.307-1.539c-.683-2.048,1.4-4.839,3.606-7.306,1.365-1.539,2.777-2.955,3.587-3.988,1.971-2.509,3.187-5.463,5-8.022,1.612-2.28,3.752-4.4,4.967-6.946,1.443-3.046,1.188-7.489-.246-10.913,1.348-1.511,2.841-3.031,4.393-4.629.273,3.974,2.062,7.866,2.454,11.836C883.15,616.062,870.413,634.258,865.614,637.449Z" fill="#ff9395"/>
      <path id="Trazado_26343" data-name="Trazado 26343" d="M797.888,641.428a1.3,1.3,0,0,1-.7.614.547.547,0,0,1-.123.05c-3.988-3.46-13.584-16.684-16.184-21.036-1.843-3.087-5-8.554-4.6-12.242a26,26,0,0,1,5.39,2.878,16.756,16.756,0,0,1,1.434,2.13c.924,1.839,1.712,3.751,2.59,5.568a68.41,68.41,0,0,0,5.886,9.91,65.734,65.734,0,0,1,5.873,9.806A3.559,3.559,0,0,1,797.888,641.428Z" fill="#ff9395"/>
      <path id="Trazado_26344" data-name="Trazado 26344" d="M882.868,589.644c-2.449,1.789-5.836,2.527-8.413,4.166-2.6,1.648-6.314,2.635-8.331,4.975,3.97-5.968,8.568-7.584,12.733-10,.583-.332,1.83-1.27,2.932-1.807.223.433.428.879.615,1.348C882.581,588.779,882.74,589.216,882.868,589.644Z" fill="#bc2650"/>
      <path id="Trazado_26345" data-name="Trazado 26345" d="M790.85,607.276c-1.11-1.88-3.355-3.237-5.025-4.594-2.167-1.748-4.311-3.915-6.679-5.117a3.764,3.764,0,0,0-2.722-.318c.4-.929.792-1.853,1.184-2.782a27.066,27.066,0,0,1,4.6,1.835C785.734,598.157,789.708,600.9,790.85,607.276Z" fill="#bc2650"/>
      <path id="Trazado_26346" data-name="Trazado 26346" d="M861.754,602.782a5.553,5.553,0,0,0,2.02-1.476,41.283,41.283,0,0,1,4.581-3.761c3.316-2.239,6.422-4.694,9.883-6.723,1.815-1.064,3.755-1.854,5.605-2.837.471-.251,1.166-.888,1.75-.8,1.948.293,2.553,4.7,2.995,6.14.409,1.332,1.129,3.122.822,4.566a19.859,19.859,0,0,1-1.352,3.132,4.65,4.65,0,0,1-2.313,2.645c-1.661.773-3.433,1.273-5.1,2.074-2.377,1.144-4.669,2.514-6.919,3.872-1.83,1.1-3.953,2.375-6.136,2.387C863.685,612.022,861.964,606.206,861.754,602.782Z" fill="#ff2e57"/>
      <path id="Trazado_26347" data-name="Trazado 26347" d="M793.924,618.19c-1.764.727-4.208-.531-5.923-1.061-2.626-.81-5.128-1.8-7.672-2.817a29.248,29.248,0,0,0-5.684-1.24c-4.294-.809-3.794-3.183-3.475-6.832.262-3-.462-6.507,1.674-8.957,2.265-2.6,6.409-.2,8.516,1.529C786.071,602.678,792.6,606.951,793.924,618.19Z" fill="#ff2e57"/>
      <path id="Trazado_26348" data-name="Trazado 26348" d="M840.125,542.258c-.077,2.914-.509,6.178-2.6,8.39-4.557,4.835-11.235,1.125-15.619-1.816a6.916,6.916,0,0,1-3.132-3.528c-.537-1.766.073-3.615.341-5.372a39.587,39.587,0,0,0,.364-5.035c.019-.71.028-1.425.028-2.139a36.221,36.221,0,0,0-.888-8.618c19.188.674,19.179-2.153,20.122,2.586.163.842.3,1.689.428,2.535q.26,1.715.464,3.451A66.246,66.246,0,0,1,840.125,542.258Z" fill="#ffadae"/>
      <path id="Trazado_26349" data-name="Trazado 26349" d="M839.634,532.712a5.409,5.409,0,0,1-.615.6c-3.733,3.128-9.633,3-14.039,1.981a13.9,13.9,0,0,1-5.472-2.531,36.221,36.221,0,0,0-.888-8.618c19.188.674,19.179-2.153,20.122,2.586.163.842.3,1.689.428,2.535Q839.43,530.975,839.634,532.712Z" fill="#ff9395"/>
      <path id="Trazado_26350" data-name="Trazado 26350" d="M827.952,681.2c-2.908-2.123-5.8-3.857-8.535-6.26-3.362-2.947-7.392-5.136-10.479-8.421-5.981-6.362-13.1-11.427-19.226-17.641-7.223-7.331-15.19-15.942-24.07-21.163-7.006-4.119-18.867-7.513-20.54,3.978-.958,6.574,4.3,14.828,7.452,20.371,4.513,7.945,11.983,12.481,19.4,17.3C784.664,677.614,799,683.7,813.5,688.282c7.468,2.361,15.162,4.138,22.657,6.4,1.6.482,3.177,1.059,4.78,1.542a8.869,8.869,0,0,0,2.038.7c1.691,0,1.076-.2,1.985-1.143,3.029-3.134,2.577-7.754-1.463-9.567C841.074,685.117,838.247,684.97,827.952,681.2Z" fill="#452b99"/>
      <path id="Trazado_26351" data-name="Trazado 26351" d="M817.2,525.436c-4.011,1.4-9.534-4.189-10.194-7.615-.7-3.627,2.772-6.729.971-10.165-2.3-4.386-8.505-6.651-3.36-12.089,4.358-4.607,8.422-1.079,11.883,2.488C822.871,504.62,820.184,507.812,817.2,525.436Z" fill="#241f3f"/>
      <path id="Trazado_26352" data-name="Trazado 26352" d="M830.55,512.344c.542,2.952-2.062,5.722-.394,8.671,2.553,4.514,10.343,3.678,15.313.629,6.037-3.7,11.069-15.378,4.061-19.569C842.62,497.943,831.788,503.881,830.55,512.344Z" fill="#241f3f"/>
      <path id="Trazado_26353" data-name="Trazado 26353" d="M846.344,508.27c-.2,4.63-.915,9.324-3.25,13.034a30.5,30.5,0,0,1-2.773,3.746c-4.092,4.726-9.929,8.363-15.833,5.513a25.634,25.634,0,0,1-9.3-7.57,17.829,17.829,0,0,1-3.638-9.1,57.827,57.827,0,0,1-.036-8.24c.177-3.2.51-6.378.733-9.514a89.334,89.334,0,0,1,10.63-6.223c9.8-4.73,15.227-3.77,19.584-.164a11.348,11.348,0,0,1,3.619,7.183,27.337,27.337,0,0,1,.31,4.034C846.412,503.276,846.458,505.762,846.344,508.27Z" fill="#ffadae"/>
      <path id="Trazado_26354" data-name="Trazado 26354" d="M846.344,508.27a7.2,7.2,0,0,0-4.329-2.353c-3.446-.474-6.069,2.4-9.232,2.968a17.268,17.268,0,0,1-8.377-.451c-3.282-1.106-5.772-3.023-9.3-3.186a20.6,20.6,0,0,0-3.587.409c.177-3.2.51-6.378.733-9.514a89.334,89.334,0,0,1,10.63-6.223,41.831,41.831,0,0,1,8.376-.037c4.325.392,8.763.915,12.228,3.82a11.466,11.466,0,0,1,2.6,3.236,27.337,27.337,0,0,1,.31,4.034C846.412,503.276,846.458,505.762,846.344,508.27Z" fill="#ff9395"/>
      <path id="Trazado_26355" data-name="Trazado 26355" d="M846.719,505.3c1.206-4.487-3.623-8.121-7.537-7.825-6.025.455-10.51,7.348-16.485,2.6a29.212,29.212,0,0,0-3.508-2.714c-5.912-3.379-9.2,2.245-14.512,3.417-6.82,1.505-12.461-5.209-12.441-11.618a11.911,11.911,0,0,1,5.452-9.882c4.412-2.787,8.865-1.132,13.309.668,4.541,1.839,8.585,1.978,12.889-.534,4.1-2.39,7.993-5.479,12.937-3.479,2.338.946,4.012,3.048,6.141,4.236,4.581,2.556,12.007,1.388,13.753,7.635,1.421,5.086-.41,13.239-2.956,17.738a6.417,6.417,0,0,1-1.97,2.306c-2.224,1.447-4.174-.34-5.059-2.389Z" fill="#241f3f"/>
      <g id="Grupo_15809" data-name="Grupo 15809">
        <path id="Trazado_26356" data-name="Trazado 26356" d="M853.239,504.966c4.01-5.626,7.767-15.094,3.086-21.466-2.32-3.158-6.248-3.711-9.74-4.817-4-1.267-6.115-5.423-10.213-6.327-3.764-.831-7.35.461-10.72,2.047-4.524,2.129-8.321,3.984-13.382,2.526-3.519-1.014-6.946-2.614-10.693-1.879a11.258,11.258,0,0,0-7.071,4.728,14.624,14.624,0,0,0,1.884,18.161c.63.613,1.6-.352.966-.966a13.266,13.266,0,0,1-2.06-15.891,9.859,9.859,0,0,1,8.062-4.862c3.408-.111,6.5,1.6,9.753,2.345,7.088,1.631,12-3.663,18.59-4.907a9.267,9.267,0,0,1,6.24.734c1.591.919,2.772,2.394,4.2,3.529,2.7,2.155,6.108,2.373,9.226,3.614,9.6,3.823,5.049,16.634.7,22.742-.511.717.673,1.4,1.18.689Z" fill="#241f3f"/>
      </g>
      <g id="Grupo_15810" data-name="Grupo 15810">
        <path id="Trazado_26357" data-name="Trazado 26357" d="M849.552,505.258c1.474-3.54-2.587-5.186-5.389-5.6a12.127,12.127,0,0,0-5.26.208c-2.183.682-3.989,2.48-5.823,3.776-2.956,2.088-5.665,2.634-8.91.623-2.262-1.4-4-3.477-6.242-4.9-5.222-3.31-9.944,1.51-15.342,1.191-4.057-.24-8.511-4.552-8.621-8.7-.1-3.616,2.518-6.976,4.38-9.865.477-.741-.7-1.427-1.18-.69-2.691,4.177-6.239,9.146-3.573,14.2a12.887,12.887,0,0,0,6.479,5.914c2.46.9,5.033.446,7.467-.306,3.08-.951,6.158-2.575,9.27-.826,2.267,1.274,3.991,3.36,6.143,4.814,2.1,1.417,4.564,2.361,7.1,1.674,2.438-.66,4.375-2.493,6.385-3.919a9.179,9.179,0,0,1,6.881-1.933c2.088.206,6.126,1.081,4.92,3.976-.338.811.983,1.164,1.317.363Z" fill="#241f3f"/>
      </g>
      <g id="Grupo_15811" data-name="Grupo 15811">
        <path id="Trazado_26358" data-name="Trazado 26358" d="M847.7,498.144a6.493,6.493,0,0,0-5.073-5.787,9.23,9.23,0,0,0-5.464.379c-1.883.644-4.166,2.44-6.141,2.494-2.223.061-3.474-2.153-5.165-3.343a10.11,10.11,0,0,0-4.542-1.88c-3.871-.495-7.8,1.121-10.934,3.259-.542.369-.03,1.257.516.885,3.166-2.158,7.416-3.966,11.311-2.933a10.819,10.819,0,0,1,4.545,2.705,9.293,9.293,0,0,0,2.319,2.107c2.263,1.047,4.715-.779,6.717-1.652,2.187-.955,4.567-1.725,6.946-.928a5.393,5.393,0,0,1,3.94,4.694c.045.655,1.069.659,1.025,0Z" fill="#4d4a68"/>
      </g>
      <g id="Grupo_15812" data-name="Grupo 15812">
        <path id="Trazado_26359" data-name="Trazado 26359" d="M848.993,491.255c-2.243-4.5-7.538-4.39-11.751-3.091a13.137,13.137,0,0,1-5.687.883c-2.081-.277-3.784-1.421-5.6-2.38-2.767-1.463-5.434-2.283-8.514-1.334-.628.194-.36,1.183.272.988,6.138-1.892,10.394,4.668,16.548,3.7,4.626-.729,10.964-4.037,13.846,1.752.294.59,1.178.072.885-.517Z" fill="#4d4a68"/>
      </g>
      <g id="Grupo_15813" data-name="Grupo 15813">
        <path id="Trazado_26360" data-name="Trazado 26360" d="M810.615,512.743c1.325,7.647,5.4,14.789,12.8,18.041,6.551,2.875,14.2-.6,18.4-5.9.4-.511-.315-1.241-.724-.724-4.3,5.426-11.961,8.639-18.422,5.124-6.48-3.525-9.853-9.775-11.072-16.81-.112-.648-1.1-.373-.987.272Z" fill="#fff"/>
      </g>
      <g id="Grupo_15814" data-name="Grupo 15814">
        <path id="Trazado_26361" data-name="Trazado 26361" d="M791.325,490.435c.259,7.7,7.342,14.525,15.038,11.163,2.266-.99,3.906-2.827,6.086-3.878a8.775,8.775,0,0,1,4.981-.665c1.8.316,2.855,1.588,4.192,2.69,3.559,2.937,7.991,2.323,11.71.027.56-.346.046-1.232-.517-.885-2.264,1.4-4.955,2.361-7.63,1.646-2.186-.584-3.45-2.319-5.228-3.546-2.68-1.85-6.749-1.162-9.282.644-3.65,2.6-7.7,5.4-12.239,3.015a12.135,12.135,0,0,1-6.087-10.211c-.022-.657-1.047-.66-1.024,0Z" fill="#fff"/>
      </g>
      <g id="Grupo_15815" data-name="Grupo 15815">
        <path id="Trazado_26362" data-name="Trazado 26362" d="M831.386,574.672c.615,6.462,1.187,12.926,1.214,19.423a.512.512,0,0,0,1.024,0c-.027-6.5-.6-12.961-1.214-19.423-.062-.651-1.087-.658-1.024,0Z" fill="#fff"/>
      </g>
      <g id="Grupo_15816" data-name="Grupo 15816">
        <path id="Trazado_26363" data-name="Trazado 26363" d="M832.26,574.844a101.209,101.209,0,0,0,7.028-10.08,81.179,81.179,0,0,0,6.27-11.37c1.107-2.636,2.636-5.889.781-8.53-1.207-1.718-3.39-4.028-5.5-4.564a.513.513,0,0,0-.272.988c1.868.473,4.307,2.867,5.207,4.553,1.618,3.028-1.433,8.029-2.866,10.655a116.208,116.208,0,0,1-11.368,17.624c-.413.507.308,1.236.724.724Z" fill="#fff"/>
      </g>
      <g id="Grupo_15817" data-name="Grupo 15817">
        <path id="Trazado_26364" data-name="Trazado 26364" d="M816.009,541.149c-2.666,1.291-4.709,3.3-4.469,6.447a20.286,20.286,0,0,0,4.034,9.938c2.324,3.191,4.791,6.378,7.393,9.348a64.939,64.939,0,0,0,4.761,4.885c1.119,1.032,2.875,1.746,3.538,3.163.279.6,1.162.077.884-.517a5.652,5.652,0,0,0-1.848-1.926,41.381,41.381,0,0,1-3.762-3.358,80.516,80.516,0,0,1-7.292-8.525c-2.109-2.754-4.275-5.326-5.546-8.6a12.649,12.649,0,0,1-1.171-5.407c.238-2.315,2.049-3.622,3.995-4.565.594-.287.075-1.171-.517-.884Z" fill="#fff"/>
      </g>
      <g id="Grupo_15818" data-name="Grupo 15818">
        <path id="Trazado_26365" data-name="Trazado 26365" d="M842.461,541.649a32.041,32.041,0,0,1,6.639,8.009,38.292,38.292,0,0,1,1.647,3.528c.291.727,1.229,2.549.739,3.321-.354.558.532,1.073.885.517,1.087-1.715-1.06-5.193-1.8-6.72a33.13,33.13,0,0,0-7.383-9.379c-.476-.456-1.2.267-.725.724Z" fill="#fff"/>
      </g>
      <g id="Grupo_15819" data-name="Grupo 15819">
        <path id="Trazado_26366" data-name="Trazado 26366" d="M851.792,556.272a17.29,17.29,0,0,0-6.9,4.077c-.471.462.253,1.186.725.724a16.193,16.193,0,0,1,6.45-3.814c.627-.2.36-1.185-.272-.987Z" fill="#fff"/>
      </g>
      <g id="Grupo_15820" data-name="Grupo 15820">
        <path id="Trazado_26367" data-name="Trazado 26367" d="M844.658,561.121c1.516,2.005,4.433,3.324,4.956,5.948.128.646,1.116.372.987-.273-.563-2.828-3.447-4.06-5.059-6.192-.393-.519-1.283-.009-.884.517Z" fill="#fff"/>
      </g>
      <g id="Grupo_15821" data-name="Grupo 15821">
        <path id="Trazado_26368" data-name="Trazado 26368" d="M849.849,566.642c-9.833,5.408-14.132,18.375-14.063,28.97a.513.513,0,0,0,1.025,0c-.068-10.236,4.043-22.854,13.555-28.086.578-.317.061-1.2-.517-.884Z" fill="#fff"/>
      </g>
      <g id="Grupo_15822" data-name="Grupo 15822">
        <path id="Trazado_26369" data-name="Trazado 26369" d="M813.326,542.746c-4.041,3.37-7.147,7.2-8.478,12.366a.513.513,0,0,0,.988.272c1.289-5,4.311-8.659,8.214-11.914.507-.422-.221-1.143-.724-.724Z" fill="#fff"/>
      </g>
      <g id="Grupo_15823" data-name="Grupo 15823">
        <path id="Trazado_26370" data-name="Trazado 26370" d="M805.206,555.894a10.248,10.248,0,0,1,6.219,3.558c.376.535,1.265.024.885-.517a11.15,11.15,0,0,0-6.832-4.029c-.644-.114-.921.873-.272.988Z" fill="#fff"/>
      </g>
      <g id="Grupo_15824" data-name="Grupo 15824">
        <path id="Trazado_26371" data-name="Trazado 26371" d="M811.425,558.935c-1.8,2.518-3.955,4.845-3.712,8.149.048.654,1.073.659,1.025,0-.228-3.091,1.893-5.287,3.572-7.632.384-.537-.5-1.049-.885-.517Z" fill="#fff"/>
      </g>
      <g id="Grupo_15825" data-name="Grupo 15825">
        <path id="Trazado_26372" data-name="Trazado 26372" d="M808.225,567.6c3.183-.174,5.689,2.62,7.563,4.859a58.47,58.47,0,0,1,5.061,7.072,56.6,56.6,0,0,1,7.824,20.319c.1.649,1.091.373.987-.272a57.008,57.008,0,0,0-9.188-22.527c-2.66-3.931-6.77-10.776-12.247-10.475-.655.036-.659,1.06,0,1.024Z" fill="#fff"/>
      </g>
      <g id="Grupo_15826" data-name="Grupo 15826">
        <path id="Trazado_26373" data-name="Trazado 26373" d="M854.825,577.51c1.372,2.594,3.527,4.791,4.517,7.584a37.5,37.5,0,0,1,.857,3.686c.365,1.5,1,2.9,1.4,4.389a.513.513,0,0,0,.988-.272c-.4-1.487-1.043-2.892-1.4-4.389a28.4,28.4,0,0,0-1.135-4.4c-1.072-2.573-3.044-4.657-4.342-7.11-.308-.583-1.193-.066-.884.517Z" fill="#fff"/>
      </g>
      <g id="Grupo_15827" data-name="Grupo 15827">
        <path id="Trazado_26374" data-name="Trazado 26374" d="M858.207,580.59a11.078,11.078,0,0,1,.285-1.989c.1-.645-.887-.922-.988-.272a12.632,12.632,0,0,0-.321,2.261.512.512,0,0,0,1.024,0Z" fill="#fff"/>
      </g>
      <g id="Grupo_15828" data-name="Grupo 15828">
        <path id="Trazado_26375" data-name="Trazado 26375" d="M798.115,595.157a38.477,38.477,0,0,1,2.093-10.081c1.021-2.68,1.944-5.419,1.076-8.265-.192-.628-1.181-.36-.988.273,1.031,3.379-.744,6.5-1.787,9.631a39.115,39.115,0,0,0-1.418,8.442c-.067.655.958.651,1.024,0Z" fill="#fff"/>
      </g>
      <g id="Grupo_15829" data-name="Grupo 15829">
        <path id="Trazado_26376" data-name="Trazado 26376" d="M801.08,582.669a4.769,4.769,0,0,1,2.093-2.244c.593-.287.074-1.17-.517-.885a5.648,5.648,0,0,0-2.46,2.612c-.276.594.607,1.115.884.517Z" fill="#fff"/>
      </g>
      <g id="Grupo_15830" data-name="Grupo 15830">
        <path id="Trazado_26377" data-name="Trazado 26377" d="M869.031,597.724a111.35,111.35,0,0,0,9.5-6.041,69.4,69.4,0,0,1,7.588-4.064c.589-.3.071-1.181-.517-.885a69.4,69.4,0,0,0-7.588,4.065,111.428,111.428,0,0,1-9.5,6.04c-.582.311-.065,1.2.517.885Z" fill="#fff"/>
      </g>
      <g id="Grupo_15831" data-name="Grupo 15831">
        <path id="Trazado_26378" data-name="Trazado 26378" d="M774.161,596.87c6.758.346,10.466,5,15.341,8.968.507.413,1.236-.308.724-.724-5.133-4.178-8.978-8.906-16.065-9.268-.659-.034-.657.99,0,1.024Z" fill="#fff"/>
      </g>
      <path id="Trazado_26379" data-name="Trazado 26379" d="M856.415,655.191H801.8a7.9,7.9,0,0,1-7.613-6.6l-9.205-47.869c-.983-5.114,2.7-9.9,7.613-9.9h71.559c4.816,0,8.473,4.6,7.658,9.644l-7.736,47.869A7.919,7.919,0,0,1,856.415,655.191Z" fill="#54238e"/>
      <g id="Grupo_15832" data-name="Grupo 15832">
        <path id="Trazado_26380" data-name="Trazado 26380" d="M857.515,653.455H800.543a8.626,8.626,0,0,1-8.388-6.965l-9.6-47.869a8.77,8.77,0,0,1,1.811-7.312,8.482,8.482,0,0,1,6.576-3.132h74.643a8.493,8.493,0,0,1,6.491,3.029,8.779,8.779,0,0,1,1.946,7.146l-8.069,47.869A8.583,8.583,0,0,1,857.515,653.455Zm-66.574-64.368a7.574,7.574,0,0,0-5.872,2.8,7.865,7.865,0,0,0-1.622,6.556l9.6,47.869a7.714,7.714,0,0,0,7.5,6.234h56.972a7.676,7.676,0,0,0,7.539-6.475l8.069-47.869a7.87,7.87,0,0,0-1.744-6.408,7.585,7.585,0,0,0-5.8-2.706Z" fill="#54238e"/>
      </g>
      <path id="Trazado_26381" data-name="Trazado 26381" d="M836.024,621.262a3.438,3.438,0,0,1,.038.484,7.977,7.977,0,0,1-9.42,7.82,7.038,7.038,0,0,1-.994-.285,6.289,6.289,0,0,1-3.984-7.266c.364-1.47,1.48-3.254,2.971-3.547,1.448-.286,2.5.935,3.609,1.686,1.641,1.11,2.532.087,3.962-.768a2.8,2.8,0,0,1,2-.461A2.677,2.677,0,0,1,836.024,621.262Z" fill="#b29eef"/>
      <g id="Grupo_15833" data-name="Grupo 15833">
        <path id="Trazado_26382" data-name="Trazado 26382" d="M745.436,628.73c2.152,13.456,12.36,23.2,22.312,31.541,10.669,8.941,23.405,14.784,35.342,21.764,6.823,3.99,14.286,6.393,21.54,9.444.606.255.871-.736.272-.988-3.96-1.665-8.009-3.1-11.979-4.741a107.746,107.746,0,0,1-12.111-6.212c-7.336-4.172-14.873-8-22-12.526a115.919,115.919,0,0,1-19.8-16c-6.1-6.114-11.2-13.893-12.582-22.553-.1-.65-1.091-.374-.987.272Z" fill="#2e1d66"/>
      </g>
      <path id="Trazado_26383" data-name="Trazado 26383" d="M815.071,688.769c7.705-4.988,15.3-8.487,22.9-13.775,8.258-5.749,15.449-12.884,22.8-19.733a205.957,205.957,0,0,1,22.952-18.967c5.6-3.9,13.886-12.3,21.439-9.554,7.294,2.656,10.606,9.056,9.106,16.394-1.682,8.23-7.2,14.33-13.715,19.462-4.032,3.177-7.845,6.713-12.057,9.61-4.282,2.946-8.809,5.4-13.2,8.093-7.595,4.662-14.488,8.681-23.173,10.864-6.893,1.732-13.886,2.95-20.587,5.228a95.613,95.613,0,0,1-15.417,3.686c-.271.046-.545.1-.818.159a1.963,1.963,0,0,1-2.365-2.214C813.226,696.149,814.133,692.442,815.071,688.769Z" fill="#452b99"/>
      <g id="Grupo_15834" data-name="Grupo 15834">
        <path id="Trazado_26384" data-name="Trazado 26384" d="M813.074,698.516c9.639-1.777,19.128-5.406,28.255-8.907a241.788,241.788,0,0,0,27.7-12.865c14.769-7.924,31.667-16.652,39.358-32.425,2.884-5.916,4.464-13.53-2-17.638-.558-.355-1.072.531-.517.884,6.7,4.259,3.733,12.575.61,18.188-3.881,6.979-9.8,12.47-16.193,17.135-6.949,5.068-14.593,9.129-22.161,13.178a238.58,238.58,0,0,1-26.665,12.4c-9.251,3.568-18.883,7.26-28.66,9.063-.647.119-.373,1.106.272.987Z" fill="#2e1d66"/>
      </g>
      <g id="Grupo_15835" data-name="Grupo 15835">
        <path id="Trazado_26385" data-name="Trazado 26385" d="M815.919,701.013c-2.083-1.034-2.613-2.468-2.172-4.651a36.167,36.167,0,0,1,1.214-4.66c1.358-3.893,6.088-5.306,9.4-7.155a104.99,104.99,0,0,0,11.923-7.612c3.362-2.524,7.023-4.678,10.009-7.667a.512.512,0,0,0-.724-.724,47.373,47.373,0,0,1-6.721,5.277c-2.3,1.6-4.5,3.335-6.826,4.893-4.66,3.117-9.713,5.478-14.484,8.387-2.969,1.81-3.654,4.411-4.456,7.633-.788,3.162-.908,5.563,2.317,7.164.589.292,1.109-.591.517-.885Z" fill="#fff"/>
      </g>
      <g id="Grupo_15836" data-name="Grupo 15836">
        <path id="Trazado_26386" data-name="Trazado 26386" d="M858.133,659.025c7.6-7.21,15.137-14.555,23.491-20.909a102.832,102.832,0,0,1,12.669-8.318c5.1-2.8,10.42-5.436,15.223-.615a.513.513,0,0,0,.725-.725c-3.265-3.276-7.333-3.892-11.535-2.048a84.141,84.141,0,0,0-15.108,8.976c-9.43,6.8-17.773,14.936-26.19,22.915-.479.454.246,1.178.725.724Z" fill="#fff"/>
      </g>
      <g id="Grupo_15837" data-name="Grupo 15837">
        <path id="Trazado_26387" data-name="Trazado 26387" d="M746.827,626.248c3.815-3.628,10.376-2.26,14.74-.433,5.363,2.245,10.657,5.834,13.818,10.8.353.554,1.24.041.885-.517-3.428-5.384-9.3-9.349-15.2-11.585-4.59-1.741-11.068-2.7-14.966,1.011-.479.455.246,1.178.724.724Z" fill="#fff"/>
      </g>
      <g id="Grupo_15838" data-name="Grupo 15838">
        <path id="Trazado_26388" data-name="Trazado 26388" d="M833.446,696.89c6.285-3.832,14.423-4.462,21.414-6.424,3.906-1.1,7.789-2.317,11.577-3.774,3.97-1.527,7.727-3.547,11.728-5,.615-.223.349-1.213-.272-.988-4,1.454-7.759,3.472-11.729,5-4.047,1.559-8.205,2.846-12.385,4-6.854,1.889-14.684,2.543-20.85,6.3-.562.342-.048,1.229.517.884Z" fill="#fff"/>
      </g>
      <g id="Grupo_15842" data-name="Grupo 15842">
        <g id="Grupo_15839" data-name="Grupo 15839">
          <path id="Trazado_26389" data-name="Trazado 26389" d="M112.425,368.767a1.653,1.653,0,0,1-1.322-1.359q-.316-1.935-.562-3.88a1.655,1.655,0,1,1,3.283-.415q.24,1.885.545,3.762a1.654,1.654,0,0,1-1.944,1.892Z" fill="#7661ce"/>
        </g>
        <g id="Grupo_15840" data-name="Grupo 15840">
          <path id="Trazado_26390" data-name="Trazado 26390" d="M111.166,357.218a1.653,1.653,0,0,1-1.34-1.532c-.147-2.6-.206-5.242-.177-7.868a1.655,1.655,0,0,1,3.309.036c-.028,2.552.03,5.125.172,7.645a1.655,1.655,0,0,1-1.964,1.719Zm.163-15.508a1.655,1.655,0,0,1-1.337-1.75c.2-2.582.48-5.212.843-7.817a1.655,1.655,0,0,1,3.278.457c-.354,2.537-.63,5.1-.821,7.611a1.654,1.654,0,0,1-1.775,1.524A1.442,1.442,0,0,1,111.329,341.71Zm2.145-15.36-.019,0a1.655,1.655,0,0,1-1.293-1.951c.516-2.546,1.119-5.119,1.791-7.648a1.654,1.654,0,1,1,3.2.849c-.655,2.466-1.242,4.975-1.745,7.457A1.655,1.655,0,0,1,113.474,326.35Zm3.982-14.988a1.569,1.569,0,0,1-.209-.054,1.655,1.655,0,0,1-1.054-2.09c.815-2.472,1.715-4.957,2.675-7.386a1.655,1.655,0,0,1,3.078,1.217c-.936,2.369-1.815,4.794-2.61,7.206A1.654,1.654,0,0,1,117.456,311.362Zm5.7-14.428a1.658,1.658,0,0,1-1.192-2.321c1.1-2.37,2.278-4.735,3.509-7.031a1.655,1.655,0,0,1,2.917,1.563c-1.2,2.24-2.352,4.548-3.423,6.859A1.655,1.655,0,0,1,123.157,296.934Zm7.325-13.679a1.657,1.657,0,0,1-1.1-2.491c1.364-2.226,2.812-4.439,4.3-6.579a1.654,1.654,0,1,1,2.714,1.893c-1.453,2.086-2.865,4.245-4.2,6.416A1.654,1.654,0,0,1,130.482,283.255Zm8.878-12.731a1.656,1.656,0,0,1-.986-2.652c1.628-2.059,3.333-4.084,5.067-6.018a1.655,1.655,0,1,1,2.464,2.209c-1.688,1.884-3.349,3.856-4.934,5.862A1.659,1.659,0,0,1,139.36,270.524Zm88.129,15.863c-.463-.089-.924-.187-1.384-.3a36.148,36.148,0,0,1-4.395-1.343,1.654,1.654,0,1,1,1.169-3.1,32.952,32.952,0,0,0,3.994,1.219,28.876,28.876,0,0,0,3.129.562,1.655,1.655,0,0,1-.4,3.285Q228.541,286.589,227.489,286.387Zm9.74.286a1.655,1.655,0,0,1,.1-3.267,29.831,29.831,0,0,0,7.1-1.823,1.655,1.655,0,1,1,1.211,3.08,33.127,33.127,0,0,1-7.89,2.025A1.661,1.661,0,0,1,237.229,286.673Zm-22.091-5.446a1.668,1.668,0,0,1-.636-.269,32.393,32.393,0,0,1-6.036-5.479,1.655,1.655,0,1,1,2.513-2.153,29.061,29.061,0,0,0,5.418,4.918,1.655,1.655,0,0,1-1.259,2.983Zm36.374-.2a1.654,1.654,0,0,1-.663-2.962,26.907,26.907,0,0,0,5.261-5.042,1.655,1.655,0,0,1,2.6,2.054,30.251,30.251,0,0,1-5.909,5.663A1.651,1.651,0,0,1,251.512,281.031ZM205.1,269.6a1.651,1.651,0,0,1-1.159-.863,40.865,40.865,0,0,1-2.971-7.505,1.655,1.655,0,0,1,3.18-.916,37.517,37.517,0,0,0,2.729,6.9A1.654,1.654,0,0,1,205.1,269.6Zm-55.378-10.633a1.655,1.655,0,0,1-.847-2.806c1.874-1.84,3.824-3.633,5.795-5.329a1.655,1.655,0,0,1,2.158,2.51c-1.916,1.648-3.812,3.391-5.634,5.18A1.654,1.654,0,0,1,149.724,258.969ZM261,269a1.636,1.636,0,0,1-.325-.1,1.654,1.654,0,0,1-.893-2.163,27.7,27.7,0,0,0,1.646-5.407q.158-.819.253-1.623a1.655,1.655,0,0,1,3.287.4q-.111.915-.289,1.849a31.056,31.056,0,0,1-1.841,6.055A1.656,1.656,0,0,1,261,269Zm-99.506-20.144a1.654,1.654,0,0,1-.679-2.951c2.11-1.576,4.288-3.086,6.475-4.488a1.655,1.655,0,0,1,1.787,2.785c-2.122,1.361-4.235,2.826-6.282,4.354A1.649,1.649,0,0,1,161.495,248.858Zm39.277,5.936a1.656,1.656,0,0,1-1.334-1.448,51.224,51.224,0,0,1-.222-8.011,1.655,1.655,0,1,1,3.3.166,47.864,47.864,0,0,0,.207,7.49,1.655,1.655,0,0,1-1.956,1.8Zm-26.217-14.3a1.655,1.655,0,0,1-.478-3.081c2.312-1.251,4.691-2.423,7.07-3.482a1.655,1.655,0,1,1,1.346,3.023c-2.3,1.025-4.6,2.159-6.841,3.369A1.648,1.648,0,0,1,174.555,240.494Zm88.125,13.334a1.656,1.656,0,0,1-1.307-1.277,22.231,22.231,0,0,0-2.658-6.675,1.655,1.655,0,1,1,2.843-1.694,25.5,25.5,0,0,1,3.05,7.67,1.657,1.657,0,0,1-1.928,1.976Zm-61.143-14.476-.024,0a1.656,1.656,0,0,1-1.287-1.955,50.46,50.46,0,0,1,2.233-7.7,1.741,1.741,0,0,1,.106-.227,1.656,1.656,0,0,1,1.136-2.471c2.579-.457,5.21-.811,7.82-1.052a1.655,1.655,0,0,1,.3,3.3c-2.061.19-4.136.454-6.184.785a1.649,1.649,0,0,1-.088.846,47.028,47.028,0,0,0-2.085,7.192A1.654,1.654,0,0,1,201.537,239.352ZM188.71,234.2a1.655,1.655,0,0,1-.242-3.186c2.475-.874,5.007-1.655,7.529-2.321a1.655,1.655,0,0,1,.845,3.2c-2.435.643-4.882,1.4-7.272,2.241A1.639,1.639,0,0,1,188.71,234.2Zm66.276,6.417a1.65,1.65,0,0,1-.837-.435,35.419,35.419,0,0,0-5.849-4.532,1.655,1.655,0,0,1,1.752-2.808,38.66,38.66,0,0,1,6.4,4.96,1.654,1.654,0,0,1-1.462,2.815ZM219.1,228.822a1.655,1.655,0,0,1,.3-3.28c2.613-.025,5.265.058,7.883.246a1.655,1.655,0,1,1-.238,3.3c-2.528-.181-5.09-.262-7.613-.238A1.556,1.556,0,0,1,219.1,228.822Zm22.847,3.552a1.569,1.569,0,0,1-.306-.09,45.286,45.286,0,0,0-7.152-2.195,1.655,1.655,0,0,1-1.263-1.97,1.619,1.619,0,0,1,1.969-1.263,48.528,48.528,0,0,1,7.677,2.356,1.655,1.655,0,0,1-.925,3.162ZM206.787,224.8a1.674,1.674,0,0,1-.407-.134,1.654,1.654,0,0,1-.774-2.208c1.139-2.371,2.377-4.714,3.68-6.964a1.655,1.655,0,1,1,2.864,1.659c-1.261,2.177-2.459,4.444-3.562,6.738A1.655,1.655,0,0,1,206.787,224.8Zm7.759-13.4a1.656,1.656,0,0,1-1.051-2.564c1.486-2.158,3.074-4.281,4.721-6.31a1.654,1.654,0,1,1,2.569,2.085c-1.592,1.962-3.127,4.015-4.564,6.1A1.656,1.656,0,0,1,214.546,211.4ZM224.3,199.37a1.654,1.654,0,0,1-.888-2.765c1.8-1.892,3.7-3.744,5.652-5.5a1.654,1.654,0,1,1,2.216,2.457c-1.889,1.7-3.729,3.5-5.468,5.327A1.654,1.654,0,0,1,224.3,199.37Zm11.508-10.395a1.654,1.654,0,0,1-.7-2.932c2.051-1.593,4.2-3.14,6.384-4.6a1.655,1.655,0,1,1,1.839,2.752c-2.12,1.417-4.2,2.918-6.194,4.462A1.649,1.649,0,0,1,235.812,188.975Zm12.876-8.615a1.654,1.654,0,0,1-.515-3.059c2.241-1.289,4.572-2.531,6.931-3.694a1.655,1.655,0,0,1,1.463,2.969c-2.295,1.131-4.564,2.34-6.744,3.593A1.646,1.646,0,0,1,248.688,180.36Zm13.886-6.857a1.655,1.655,0,0,1-.333-3.151c2.377-1,4.837-1.953,7.31-2.833a1.655,1.655,0,1,1,1.11,3.118c-2.415.859-4.817,1.79-7.136,2.765A1.643,1.643,0,0,1,262.574,173.5Zm14.589-5.2a1.655,1.655,0,0,1-.162-3.212c2.467-.733,5.011-1.419,7.561-2.04a1.654,1.654,0,0,1,.783,3.215c-2.5.608-4.987,1.28-7.4,2A1.646,1.646,0,0,1,277.163,168.3Zm155.954,24.71a1.63,1.63,0,0,1-.628-.264c-2.1-1.451-4.262-2.873-6.418-4.225a1.655,1.655,0,1,1,1.758-2.8c2.2,1.378,4.4,2.827,6.541,4.306a1.655,1.655,0,0,1-1.253,2.987Zm-140.9-28.382a1.655,1.655,0,0,1-.005-3.25c2.534-.492,5.13-.934,7.718-1.316a1.655,1.655,0,0,1,.483,3.275c-2.539.374-5.086.808-7.571,1.289A1.643,1.643,0,0,1,292.217,164.631Zm127.76,20.142a1.671,1.671,0,0,1-.505-.187c-2.213-1.254-4.49-2.479-6.769-3.638a1.655,1.655,0,0,1,1.5-2.95c2.322,1.182,4.644,2.43,6.9,3.709a1.656,1.656,0,0,1-1.127,3.066Zm-112.421-22.41a1.655,1.655,0,0,1,.14-3.272c2.57-.266,5.194-.484,7.8-.646a1.655,1.655,0,1,1,.205,3.3c-2.562.159-5.141.373-7.666.635A1.675,1.675,0,0,1,307.556,162.363Zm98.6,15.373a1.624,1.624,0,0,1-.374-.119c-2.32-1.052-4.7-2.068-7.067-3.019a1.654,1.654,0,1,1,1.231-3.071c2.416.969,4.84,2,7.2,3.076a1.655,1.655,0,0,1-.993,3.133ZM323.046,161.4a1.655,1.655,0,0,1,.277-3.28c2.586-.057,5.221-.064,7.832-.02a1.655,1.655,0,1,1-.055,3.309c-2.569-.043-5.161-.037-7.705.02A1.75,1.75,0,0,1,323.046,161.4Zm68.706,10.565a1.709,1.709,0,0,1-.238-.064c-2.4-.841-4.858-1.642-7.309-2.381a1.655,1.655,0,0,1,.956-3.168c2.5.753,5,1.569,7.447,2.426a1.655,1.655,0,0,1-.856,3.187Zm-53.17-10.305a1.655,1.655,0,0,1,.4-3.278c2.6.144,5.221.339,7.8.58a1.655,1.655,0,0,1-.307,3.3c-2.541-.238-5.125-.43-7.68-.571A1.781,1.781,0,0,1,338.582,161.657Zm38.315,5.821c-.033-.007-.066-.014-.1-.023q-2.047-.522-4.118-1-1.675-.385-3.372-.744a1.655,1.655,0,1,1,.685-3.238q1.723.364,3.429.757,2.109.484,4.2,1.018a1.655,1.655,0,0,1-.719,3.229ZM354.039,163.1a1.654,1.654,0,0,1,.529-3.265c2.582.34,5.186.734,7.738,1.171a1.634,1.634,0,0,1,1.352,1.909,1.654,1.654,0,0,1-1.91,1.352c-2.511-.429-5.072-.817-7.612-1.151Z" fill="#7661ce"/>
        </g>
        <g id="Grupo_15841" data-name="Grupo 15841">
          <path id="Trazado_26391" data-name="Trazado 26391" d="M442.667,200.087a1.662,1.662,0,0,1-.716-.329q-1.5-1.191-3.023-2.346a1.655,1.655,0,1,1,2-2.636q1.548,1.176,3.078,2.388a1.656,1.656,0,0,1-1.341,2.923Z" fill="#7661ce"/>
        </g>
      </g>
      <path id="Trazado_26392" data-name="Trazado 26392" d="M420.973,189.051l1.9,11.362,66.061,3.212Z" fill="#6737c3"/>
      <path id="Trazado_26393" data-name="Trazado 26393" d="M427.095,164.809l15.472-9.7,46.363,48.516Z" fill="#d8ccff"/>
      <path id="Trazado_26394" data-name="Trazado 26394" d="M416.916,169.055l72.014,34.57L393.256,183.3Z" fill="#d8ccff"/>
      <path id="Trazado_26395" data-name="Trazado 26395" d="M427.095,164.809l.047,9.155,61.788,29.661Z" fill="#6737c3"/>
      <circle id="Elipse_805" data-name="Elipse 805" cx="5.428" cy="5.428" r="5.428" transform="translate(269.264 336.893)" fill="#fff"/>
      <path id="Trazado_26396" data-name="Trazado 26396" d="M312.611,471.729S301.392,645.08,293.349,686.244l-7.545.3s-20.11-192.33-11.107-210.392S312.611,471.729,312.611,471.729Z" fill="#2e1d66"/>
      <path id="Trazado_26397" data-name="Trazado 26397" d="M296.167,478.237s-12.718,143.394-33.045,206.655l-6.768.269s-17.8-207.932-14.238-207.357C275.806,483.239,296.167,478.237,296.167,478.237Z" fill="#452b99"/>
      <g id="Grupo_15843" data-name="Grupo 15843">
        <path id="Trazado_26398" data-name="Trazado 26398" d="M256.627,685.169l1.814-.11c-.108-1.848-10.707-185.008-4.942-198.192l-1.647-.826C245.893,499.667,256.186,677.6,256.627,685.169Z" fill="#2e1d66"/>
      </g>
      <path id="Trazado_26399" data-name="Trazado 26399" d="M240.273,484.571c3.959,2.74,28.28,4.12,36.141,4.5,1.54.075,2.447.113,2.447.113L260.153,453.91l-7.625-14.361-3.42-6.454-1.758-3.316-2.608-4.923-.274-.51-.992,14.267L240.528,480.9Z" fill="#ff2e57"/>
      <path id="Trazado_26400" data-name="Trazado 26400" d="M275.345,352.106c-5.259-.374-8.283,2.786-13.395,4.942s-12.753,7.252-17.1,10.825c-3.812,3.133-6.331,7.734-8.079,12.5a54.023,54.023,0,0,0-3.173,15.018,5.264,5.264,0,0,0,.392,2.917,4.664,4.664,0,0,0,1.654,1.534,30.038,30.038,0,0,0,23.47,3.849c-1.926,7.766-8.628,12.889-10.554,20.655-1.295,5.223,2.173,13.215,2.617,18.6a49.494,49.494,0,0,0,2.111,9.651l9.735,33.581c15.66,6.106,33.026,1.783,49.194-2.587a3.261,3.261,0,0,0,1.87-.995,3.68,3.68,0,0,0,.492-2.172q.048-2.734.07-5.465c-.638-18.215-.638-35.807-1.072-54.673q-.137-2.732-.291-5.461c-.07-1.237-.143-2.476-.1-3.715.04-1.094.173-2.182.312-3.267.307-2.4.641-4.806.975-7.207.211-1.517.423-3.033.632-4.539.306-2.208,1.537-4.467,1.979-6.707a31.4,31.4,0,0,0,.618-6.821,26.043,26.043,0,0,0-2.979-11.591A28.629,28.629,0,0,0,300.769,358.2c-3.308-1.424-6.855-1.768-10.314-2.636q-4.03-1.01-7.968-2.4a24.139,24.139,0,0,0-3.6-1.239C277.674,351.709,276.512,352.189,275.345,352.106Z" fill="#ff2e57"/>
      <path id="Trazado_26401" data-name="Trazado 26401" d="M292.308,365.479c.15,3.163.714,6.974-1.793,8.917a5.37,5.37,0,0,1-4.88.6,12.918,12.918,0,0,1-4.308-2.713c-5.557-4.777-10.175-11.31-10.41-18.631-.159-4.956,3.042-17.121,1.934-21.25l5.322-2.356,1.276-.564L293.1,350.931c-1.793,3.294-1.08,9.667-.836,13.75C292.28,364.963,292.3,365.226,292.308,365.479Z" fill="#ffadae"/>
      <path id="Trazado_26402" data-name="Trazado 26402" d="M292.261,364.681c-24.3-8.982-15.684-29.9-15.684-29.9a16.7,16.7,0,0,1,1.6-4.73l1.276-.564L293.1,350.931C291.3,354.225,292.017,360.6,292.261,364.681Z" fill="#ff9395"/>
      <path id="Trazado_26403" data-name="Trazado 26403" d="M304.461,333.169a12.236,12.236,0,0,1-4.34,8.225,10.253,10.253,0,0,1-12.681-.611c-2.044-1.927-3.07-4.6-3.942-7.217a41.565,41.565,0,0,1-2.19-9.329,24.821,24.821,0,0,1,.582-7.924l.988.058,20.275,1.211c.281,2.063.572,4.137.863,6.2.164,1.24.339,2.48.455,3.73A24.546,24.546,0,0,1,304.461,333.169Z" fill="#ffadae"/>
      <path id="Trazado_26404" data-name="Trazado 26404" d="M304.471,327.512a19.61,19.61,0,0,1-8.205-1.492,26.489,26.489,0,0,0-14.958-1.783l1.57-7.866,20.275,1.211c.281,2.063.572,4.137.863,6.2C304.18,325.022,304.355,326.262,304.471,327.512Z" fill="#ff9395"/>
      <path id="Trazado_26405" data-name="Trazado 26405" d="M278.482,327.834c-1.4-3.63,1.692-7.69,5.367-8.97s7.7-.661,11.581-.446c6.08.335,13.021-.828,16.419-5.881a11.421,11.421,0,0,0-1.106-13.585,12.6,12.6,0,0,0-13.458-3.152c-4.27,1.589-7.417,5.288-11.495,7.322a16.36,16.36,0,0,1-7.07,1.71c-2.22.026-4.459-.4-6.648-.025-5.8.993-9.359,8.509-6.446,13.625,1.1,1.935,2.9,3.469,3.659,5.563,1.087,3.005-.228,6.277-.638,9.447s.932,7.261,4.121,7.47A4.877,4.877,0,0,0,277.143,338a14.323,14.323,0,0,0,1.118-5.419q.212-2.883.424-5.765Z" fill="#1f1440"/>
      <g id="Grupo_15844" data-name="Grupo 15844">
        <path id="Trazado_26406" data-name="Trazado 26406" d="M268.083,310.63a6.848,6.848,0,0,1-2.88-8.437c.334-.857,1.6-.178,1.265.673a5.374,5.374,0,0,0,2.288,6.5c.791.467.123,1.735-.673,1.265Z" fill="#1f1440"/>
      </g>
      <g id="Grupo_15845" data-name="Grupo 15845">
        <path id="Trazado_26407" data-name="Trazado 26407" d="M266.268,310.373a4.383,4.383,0,0,0-4.573-.421c-.819.407-1.6-.8-.772-1.208a5.9,5.9,0,0,1,6.317.576c.737.554-.241,1.6-.972,1.053Z" fill="#1f1440"/>
      </g>
      <path id="Trazado_26408" data-name="Trazado 26408" d="M283.112,316.821c-.649,4.012-1.3,8.1-.709,12.127s2.634,8.042,6.152,9.938a1.188,1.188,0,0,0,.827.2c.328-.084.533-.409.7-.71,1.307-2.365,2.636-5.122,5.181-5.9,2.947-.9,6.065,1.57,7.1,4.539s.538,6.234.034,9.34c-.371,2.282-.825,4.731-2.452,6.335-2.782,2.744-7.338,1.65-10.966.273a13.047,13.047,0,0,1-3.588-1.824c-2.115-1.689-3.051-4.458-3.881-7.068-2.4-7.533-4.815-15.558-2.94-23.237Z" fill="#1f1440"/>
      <path id="Trazado_26409" data-name="Trazado 26409" d="M278.658,326.55a2.659,2.659,0,0,0-3.6-1.562,3.075,3.075,0,0,0-1.377,3.824,3.652,3.652,0,0,0,3.61,2.122,5.822,5.822,0,0,1,1.6-.086Z" fill="#ffadae"/>
      <path id="Trazado_26410" data-name="Trazado 26410" d="M298.576,338.781l-4.5-.359a.774.774,0,0,0-.832.763c-.034,2.094.393,7.032,5.846.877A.774.774,0,0,0,298.576,338.781Z" fill="#ffadae"/>
      <path id="Trazado_26411" data-name="Trazado 26411" d="M293.349,686.244l.078,1.964c.077,1.93,1.217,3.514,2.658,3.7l20.973,2.65a3.512,3.512,0,0,1,2.156,1.206h0c1.2,1.337.545,3.9-1,3.923l-31.894.437c-.84.011-1.511-.972-1.424-2.086l.9-11.49Z" fill="#1f1440"/>
      <path id="Trazado_26412" data-name="Trazado 26412" d="M263.122,684.892l4.27,11.064a3.7,3.7,0,0,1-3.22,5.145l-9.839.02a3.754,3.754,0,0,1-3.133-5.488l5.154-10.472Z" fill="#1f1440"/>
      <path id="Trazado_26413" data-name="Trazado 26413" d="M263.64,398.689c1.641-1.8,4.221,5.46,4.16,6.684a32.227,32.227,0,0,1-1.655,7.146c-3.362,11.738,10.925,15.267,18.7,20.495.766.515,1.625,1.435,1.13,2.214a1.688,1.688,0,0,1-.982.6c-5.349,1.63-11.355-.552-16.751-.931-6.259-.439-12.456-2.4-18.447-4.223-1.882-.571-3.431-.965-4.333-2.842-2.148-4.473.909-9.586,3.275-13.319a16.076,16.076,0,0,1,4.015-4.855,25.39,25.39,0,0,0,3.46-2.362c1.25-1.174,2.726-1.864,4.06-3.051,1.508-1.343,2.194-3.234,3.026-5.019A2.146,2.146,0,0,1,263.64,398.689Z" fill="#bc2650"/>
      <path id="Trazado_26414" data-name="Trazado 26414" d="M240.528,480.9a5.969,5.969,0,0,0,3.28.293c6-1.156,9.017-5.911,10.388-11.573.675-2.784.611-5.656,1.5-8.435,4.435-13.9,19.24-7.816,30.209-8.7,5.336-.428,5.789-2.553,5.789-7.247-20.427-3.326-32.1-4.894-39.164-5.7-.7-.086-1.342-.161-1.946-.227-3.383-.369-5.528-.548-7.106-.709Z" fill="#bc2650"/>
      <g id="Grupo_15846" data-name="Grupo 15846">
        <path id="Trazado_26415" data-name="Trazado 26415" d="M300.112,295.005c5.116.3,10.609,1.056,14.252,5.051,3.432,3.764,3.484,9.882,1,14.2-2.374,4.129-8,6.487-12.5,7.17-8.484,1.288-15.913-5.21-24.073.412-.761.524-1.529-.686-.771-1.208,8.739-6.02,17.048,1.381,26.178-.948,5.736-1.464,10.7-4.714,11.294-10.991.874-9.254-7.858-11.814-15.323-12.258-.912-.054-.978-1.486-.057-1.431Z" fill="#1f1440"/>
      </g>
      <g id="Grupo_15847" data-name="Grupo 15847">
        <path id="Trazado_26416" data-name="Trazado 26416" d="M301.42,349.221c-1.554,7.507-9.933,8.842-15.886,5.474-8.4-4.75-7.5-15.01-6.473-23.374.112-.912,1.507-.582,1.4.326-.706,5.745-1.753,14.206,2.286,18.924,4.537,5.3,15.5,6.92,17.281-1.676a.717.717,0,0,1,1.4.326Z" fill="#1f1440"/>
      </g>
      <g id="Grupo_15848" data-name="Grupo 15848">
        <path id="Trazado_26417" data-name="Trazado 26417" d="M307.787,297.962a7.959,7.959,0,0,1,2.572,9.929c-1.9,4.13-6.227,5.921-10.562,5.921-.46,0-.491-.716-.028-.716,3.643,0,7.327-1.239,9.34-4.467a7.367,7.367,0,0,0-1.808-10.141c-.374-.27.116-.794.486-.526Z" fill="#372d5e"/>
      </g>
      <g id="Grupo_15849" data-name="Grupo 15849">
        <path id="Trazado_26418" data-name="Trazado 26418" d="M308.2,301.516c.229,2.068.449,4.338-.663,6.212-.943,1.589-2.343,2.032-4.072,2.327-.453.077-.477-.639-.028-.716,1.962-.335,3.347-1.069,3.963-3.083a11.715,11.715,0,0,0,.084-4.712c-.051-.458.665-.484.716-.028Z" fill="#372d5e"/>
      </g>
      <g id="Grupo_15850" data-name="Grupo 15850">
        <path id="Trazado_26419" data-name="Trazado 26419" d="M262.8,389.774l4.754-.3a.681.681,0,0,1,.054,1.361l-4.754.3a.682.682,0,0,1-.054-1.362Z" fill="#fff"/>
      </g>
      <path id="Trazado_26420" data-name="Trazado 26420" d="M334.09,448.006a21.752,21.752,0,0,1-9.178,4.553c-7.63,1.713-15.481-.811-22.973-3.06-5.345-1.6-10.791-3.087-16.375-3.335a118.512,118.512,0,0,0-12.79.608,103.86,103.86,0,0,1-39.522-5.179,13.871,13.871,0,0,1-5.05-2.571c-3.714-3.382-3.06-9.335-1.659-14.154,3.087-10.6,4.184-21.249,9.4-30.971l14.025,5.04,5.861,2.1,2.119.765a5.891,5.891,0,0,1,2.885.995c-.185.36-.36.7-.507,1.023-3.023,6.054-2.267,5.741-5.7,12.514-.719,1.41-1.456,2.986-1.078,4.525.525,2.073,2.792,3.114,4.8,3.87q7.131,2.7,14.273,5.381c7.741,2.921,15.619,5.87,23.867,6.4.7.047,1.4.074,2.11.093,6.524.147,13.26-.784,19.425.765a1.362,1.362,0,0,1,.212,2.589c-1.392.553-2.774,1.152-4.138,1.769a1.126,1.126,0,0,0,.479,2.147,183.587,183.587,0,0,1,18.55.894A1.836,1.836,0,0,1,334.09,448.006Z" fill="#ffadae"/>
      <path id="Trazado_26421" data-name="Trazado 26421" d="M298.594,436.608A63.786,63.786,0,0,1,281.675,436c-12.983-2.534-17.885-7.372-27.791-6.912s-13.362-3.916-9.418-8.883c3.262-4.119,5-16.955,5.5-21.268l5.861,2.1,4.5,2.783c-3.023,6.054-2.267,5.741-5.7,12.514-.719,1.41-1.456,2.986-1.078,4.525.525,2.073,2.792,3.114,4.8,3.87q7.131,2.7,14.273,5.381c7.741,2.921,15.619,5.87,23.867,6.4C297.184,436.562,297.884,436.589,298.594,436.608Z" fill="#ff9395"/>
      <g id="Grupo_15851" data-name="Grupo 15851">
        <path id="Trazado_26422" data-name="Trazado 26422" d="M265.463,392.017c-.513,3.094-.779,8.72-3.483,10.89-2.12,1.7-6.3,1.383-8.772,1.277a33.759,33.759,0,0,1-21.241-8.868c-.651-.59.274-1.59.925-1a32.4,32.4,0,0,0,16.295,8.074c2.4.416,6.363,1.061,8.83.274,4.984-1.592,5.39-6.558,6.119-10.956.143-.864,1.47-.553,1.327.31Z" fill="#fff"/>
      </g>
      <path id="Trazado_26423" data-name="Trazado 26423" d="M237.66,397.939s8.53,5.247,17.63,5.094,7.776-9.138,7.776-9.138l-27.817-1.9-1.264,3.268Z" fill="#ff2e57"/>
      <path id="Trazado_26424" data-name="Trazado 26424" d="M309.083,408.291a18.244,18.244,0,0,0,2.765,1.6c1.822-1.888,3.268-5.3,4.663-7.6a47.51,47.51,0,0,0,3.082-5.754A70.026,70.026,0,0,0,322.7,386.06c1.323-5.125.395-9.359-4.868-14.379-21.933-20.919-8.964-3.579-11.747,1.646C302.9,379.316,302.52,388.89,309.083,408.291Z" fill="#ff2e57"/>
      <path id="Trazado_26425" data-name="Trazado 26425" d="M376.074,416.992a2,2,0,0,1-.287-2.692c1.7-2.382,5.983-6.7,14.692-6.567,8.185.126,11.724,2.35,13.147,3.753a1.958,1.958,0,0,1,.43,2.244,18.659,18.659,0,0,1-7.28,8.322C391.176,425.394,384.474,424.871,376.074,416.992Z" fill="#ffadae"/>
      <g id="Grupo_15852" data-name="Grupo 15852">
        <path id="Trazado_26426" data-name="Trazado 26426" d="M240.626,485.194c12.762,9.27,30.354,10.6,45.565,9.939,9.107-.4,26.839-3.515,28.512-14.987.19-1.3-1.807-1.869-2-.551-.833,5.709-6.466,8.441-11.3,10.4-6.491,2.628-13.236,3.126-20.177,3.17-13.344.084-28.42-1.672-39.553-9.759-1.081-.785-2.117,1.013-1.046,1.79Z" fill="#ff2e57"/>
      </g>
      <g id="Grupo_15853" data-name="Grupo 15853">
        <path id="Trazado_26427" data-name="Trazado 26427" d="M319.873,378.162c7.494,10.577-1.378,29.038-10.993,35.441-1.106.736-.069,2.533,1.046,1.79,10.486-6.983,19.93-26.714,11.737-38.277-.765-1.08-2.564-.046-1.79,1.046Z" fill="#ff2e57"/>
      </g>
      <g id="Grupo_15854" data-name="Grupo 15854">
        <path id="Trazado_26428" data-name="Trazado 26428" d="M249.524,435.651c-2.069,3.591-3.592,10.792-.813,14.352.546.7,1.518-.284.977-.977-2.315-2.966-.667-9.733,1.03-12.678a.692.692,0,0,0-1.194-.7Z" fill="#452b99"/>
      </g>
      <g id="Grupo_15855" data-name="Grupo 15855">
        <path id="Trazado_26429" data-name="Trazado 26429" d="M251.6,441.959a8.366,8.366,0,0,0,0,4.975c.318.82,1.655.464,1.332-.367a7.046,7.046,0,0,1,0-4.241c.207-.864-1.125-1.233-1.332-.367Z" fill="#452b99"/>
      </g>
      <g id="Grupo_15856" data-name="Grupo 15856">
        <path id="Trazado_26430" data-name="Trazado 26430" d="M254.983,442.88a15.063,15.063,0,0,0,.308,7.74c.275.842,1.61.481,1.332-.368a13.577,13.577,0,0,1-.307-7c.176-.869-1.156-1.24-1.333-.368Z" fill="#452b99"/>
      </g>
      <g id="Grupo_15857" data-name="Grupo 15857">
        <path id="Trazado_26431" data-name="Trazado 26431" d="M298.215,437.1a24.837,24.837,0,0,0,7.35.666c1.094-.055,10.757-1.367,11.155-.157,1,3.02-5.285,2.576-4.984,5.415.22,2.085,3.789,1.987,5.158,2.123a74.607,74.607,0,0,0,9.849-.121c.776-.026,3.81-.544,4.392-.057,3.63,3.035-2.624,5.536-3.922,6.433-.95.657-.048,2.223.912,1.56,2.069-1.431,9.884-4.073,6.785-8.319-3.38-4.633-14.3.315-18.967-1.483-3.762-1.451-.708-.313,1.183-1.833.518-.416,1.21-.721,1.558-1.323.722-1.247.878-2.139.024-3.339-.74-1.04-2.766-1.016-3.784-1.139-5.5-.664-10.7,1.184-16.228-.168-1.129-.275-1.611,1.466-.481,1.742Z" fill="#fff"/>
      </g>
      <g id="Grupo_15858" data-name="Grupo 15858">
        <path id="Trazado_26432" data-name="Trazado 26432" d="M1033.207,703.682H115.287a2.758,2.758,0,1,1,0-5.516h917.92a2.758,2.758,0,0,1,0,5.516Z" fill="#5652e8"/>
      </g>
      <rect id="Rectngulo_2865" data-name="Rectngulo 2865" width="45.652" height="64.969" rx="1.725" transform="translate(678.103 128.961) rotate(-73.501)" fill="#8f6dff"/>
      <path id="Trazado_26433" data-name="Trazado 26433" d="M679.757,129.451l36.5-14.922,1.875.25,18.991,31.664Z" fill="#7a51ff"/>
      <path id="Trazado_26434" data-name="Trazado 26434" d="M752.872,105.293l-.666,2.249-27.267,8.968c-1.821.6-3.6,1.314-5.386,2.013a5.209,5.209,0,0,1-6.3-1.91c-1.5-1.9-2.988-3.808-4.565-5.644L689.912,89.091l.666-2.249a1.726,1.726,0,0,1,2.144-1.164l58.986,17.472A1.725,1.725,0,0,1,752.872,105.293Z" fill="#ab91ff"/>
      <path id="Rectngulo_2866" data-name="Rectngulo 2866" d="M1.278,0h45.59a1.278,1.278,0,0,1,1.278,1.278V32.557a1.275,1.275,0,0,1-1.275,1.275H1.278A1.278,1.278,0,0,1,0,32.554V1.278A1.278,1.278,0,0,1,1.278,0Z" transform="translate(417.207 257.695) rotate(-22.816)" fill="#bdb0ff"/>
      <path id="Trazado_26435" data-name="Trazado 26435" d="M431.5,288.384l13.921-25.694,1.193-.737,25.756,9.238Z" fill="#a494ff"/>
      <path id="Trazado_26436" data-name="Trazado 26436" d="M462.082,240.2l.674,1.6-11.423,17.944c-.763,1.2-1.447,2.445-2.143,3.684a3.86,3.86,0,0,1-4.508,1.862c-1.751-.388-3.5-.78-5.267-1.093l-21.039-3.727-.674-1.6a1.279,1.279,0,0,1,.683-1.674l42.023-17.679A1.279,1.279,0,0,1,462.082,240.2Z" fill="#dbd2ff"/>
      <path id="Trazado_26437" data-name="Trazado 26437" d="M758.932,101.626a9.009,9.009,0,1,1-11.041-6.358A9.009,9.009,0,0,1,758.932,101.626Z" fill="#ff2e57"/>
      <path id="Trazado_26438" data-name="Trazado 26438" d="M409.544,633.719a19.579,19.579,0,1,1-17.193-17.758A19.583,19.583,0,0,1,409.544,633.719Z" fill="#fff"/>
    </g>
  </g>
</svg>
