<svg xmlns="http://www.w3.org/2000/svg" width="338" height="262" viewBox="0 0 338 262">
  <g id="Grupo_15474" data-name="Grupo 15474" transform="translate(-1061 -1588)">
    <g id="Grupo_15407" data-name="Grupo 15407" transform="translate(988 1463)">
      <path id="Trazado_26037" data-name="Trazado 26037" d="M410,387H90a1,1,0,0,1,0-2H410a1,1,0,0,1,0,2Z" fill="#fd6764"/>
    </g>
    <g id="Grupo_15410" data-name="Grupo 15410" transform="translate(988 1463)">
      <g id="Grupo_15408" data-name="Grupo 15408">
        <path id="Trazado_26038" data-name="Trazado 26038" d="M84,127H74a1,1,0,0,1,0-2H84a1,1,0,0,1,0,2Z" fill="#21b1b9"/>
      </g>
      <g id="Grupo_15409" data-name="Grupo 15409">
        <path id="Trazado_26039" data-name="Trazado 26039" d="M141,127H94a1,1,0,0,1,0-2h47a1,1,0,0,1,0,2Z" fill="#21b1b9"/>
      </g>
    </g>
    <g id="Grupo_15413" data-name="Grupo 15413" transform="translate(988 1463)">
      <g id="Grupo_15411" data-name="Grupo 15411">
        <path id="Trazado_26040" data-name="Trazado 26040" d="M350,181H340a1,1,0,0,1,0-2h10a1,1,0,0,1,0,2Z" fill="#21b1b9"/>
      </g>
      <g id="Grupo_15412" data-name="Grupo 15412">
        <path id="Trazado_26041" data-name="Trazado 26041" d="M407,181H360a1,1,0,0,1,0-2h47a1,1,0,0,1,0,2Z" fill="#21b1b9"/>
      </g>
    </g>
    <g id="Grupo_15433" data-name="Grupo 15433" transform="translate(988 1463)">
      <g id="Grupo_15430" data-name="Grupo 15430">
        <path id="Trazado_26056" data-name="Trazado 26056" d="M376.283,363.948,341,386l-35.283-22.052A48.333,48.333,0,0,1,283,322.961V244.625A3.625,3.625,0,0,1,286.625,241h108.75A3.625,3.625,0,0,1,399,244.625v78.336A48.333,48.333,0,0,1,376.283,363.948Z" fill="none"/>
        <path id="Trazado_26057" data-name="Trazado 26057" d="M341,387a1,1,0,0,1-.53-.152L305.186,364.8A49.054,49.054,0,0,1,282,322.961V244.625A4.631,4.631,0,0,1,286.625,240h108.75A4.631,4.631,0,0,1,400,244.625v78.336A49.053,49.053,0,0,1,376.813,364.8h0L341.53,386.848A1,1,0,0,1,341,387ZM286.625,242A2.629,2.629,0,0,0,284,244.625v78.336a47.065,47.065,0,0,0,22.247,40.14L341,384.82,375.753,363.1A47.065,47.065,0,0,0,398,322.961V244.625A2.629,2.629,0,0,0,395.375,242Z" fill="#fd6764"/>
      </g>
      <g id="Grupo_15431" data-name="Grupo 15431">
        <path id="Trazado_26059" data-name="Trazado 26059" d="M341,335a31,31,0,1,1,23.988-50.638,1,1,0,1,1-1.547,1.268,28.882,28.882,0,1,0,5.231,9.669,1,1,0,1,1,1.908-.6A31.023,31.023,0,0,1,341,335Z" fill="#fd6764"/>
      </g>
      <g id="Grupo_15432" data-name="Grupo 15432">
        <path id="Trazado_26060" data-name="Trazado 26060" d="M341.322,316a1,1,0,0,1-.707-.293l-20.322-20.322a1,1,0,0,1,1.414-1.414l19.615,19.615,28.971-28.971a1,1,0,1,1,1.414,1.414l-29.678,29.678A1,1,0,0,1,341.322,316Z" fill="#fd6764"/>
      </g>
    </g>
    <g id="Grupo_15467" data-name="Grupo 15467" transform="translate(988 1463)">
      <g id="Grupo_15434" data-name="Grupo 15434">
        <path id="Trazado_26061" data-name="Trazado 26061" d="M314,196H106a1,1,0,0,1-1-1V153a1,1,0,0,1,1-1H314a1,1,0,0,1,1,1v42A1,1,0,0,1,314,196Zm-207-2H313V154H107Z" fill="#21b1b9"/>
      </g>
      <g id="Grupo_15459" data-name="Grupo 15459">
        <g id="Grupo_15438" data-name="Grupo 15438">
          <g id="Grupo_15435" data-name="Grupo 15435">
            <path id="Trazado_26062" data-name="Trazado 26062" d="M186,181a1,1,0,0,1-1-1V168a1,1,0,0,1,2,0v12A1,1,0,0,1,186,181Z" fill="#fd6764"/>
          </g>
          <g id="Grupo_15436" data-name="Grupo 15436">
            <path id="Trazado_26063" data-name="Trazado 26063" d="M191,178a.994.994,0,0,1-.514-.143l-10-6a1,1,0,0,1,1.03-1.714l10,6A1,1,0,0,1,191,178Z" fill="#fd6764"/>
          </g>
          <g id="Grupo_15437" data-name="Grupo 15437">
            <path id="Trazado_26064" data-name="Trazado 26064" d="M181,178a1,1,0,0,1-.516-1.857l10-6a1,1,0,1,1,1.03,1.714l-10,6A1,1,0,0,1,181,178Z" fill="#fd6764"/>
          </g>
        </g>
        <g id="Grupo_15442" data-name="Grupo 15442">
          <g id="Grupo_15439" data-name="Grupo 15439">
            <path id="Trazado_26065" data-name="Trazado 26065" d="M208,181a1,1,0,0,1-1-1V168a1,1,0,0,1,2,0v12A1,1,0,0,1,208,181Z" fill="#fd6764"/>
          </g>
          <g id="Grupo_15440" data-name="Grupo 15440">
            <path id="Trazado_26066" data-name="Trazado 26066" d="M213,178a.994.994,0,0,1-.514-.143l-10-6a1,1,0,0,1,1.03-1.714l10,6A1,1,0,0,1,213,178Z" fill="#fd6764"/>
          </g>
          <g id="Grupo_15441" data-name="Grupo 15441">
            <path id="Trazado_26067" data-name="Trazado 26067" d="M203,178a1,1,0,0,1-.516-1.857l10-6a1,1,0,1,1,1.03,1.714l-10,6A1,1,0,0,1,203,178Z" fill="#fd6764"/>
          </g>
        </g>
        <g id="Grupo_15446" data-name="Grupo 15446">
          <g id="Grupo_15443" data-name="Grupo 15443">
            <path id="Trazado_26068" data-name="Trazado 26068" d="M230,181a1,1,0,0,1-1-1V168a1,1,0,0,1,2,0v12A1,1,0,0,1,230,181Z" fill="#fd6764"/>
          </g>
          <g id="Grupo_15444" data-name="Grupo 15444">
            <path id="Trazado_26069" data-name="Trazado 26069" d="M235,178a.994.994,0,0,1-.514-.143l-10-6a1,1,0,0,1,1.03-1.714l10,6A1,1,0,0,1,235,178Z" fill="#fd6764"/>
          </g>
          <g id="Grupo_15445" data-name="Grupo 15445">
            <path id="Trazado_26070" data-name="Trazado 26070" d="M225,178a1,1,0,0,1-.516-1.857l10-6a1,1,0,1,1,1.03,1.714l-10,6A1,1,0,0,1,225,178Z" fill="#fd6764"/>
          </g>
        </g>
        <g id="Grupo_15450" data-name="Grupo 15450">
          <g id="Grupo_15447" data-name="Grupo 15447">
            <path id="Trazado_26071" data-name="Trazado 26071" d="M252,181a1,1,0,0,1-1-1V168a1,1,0,0,1,2,0v12A1,1,0,0,1,252,181Z" fill="#fd6764"/>
          </g>
          <g id="Grupo_15448" data-name="Grupo 15448">
            <path id="Trazado_26072" data-name="Trazado 26072" d="M257,178a.994.994,0,0,1-.514-.143l-10-6a1,1,0,0,1,1.03-1.714l10,6A1,1,0,0,1,257,178Z" fill="#fd6764"/>
          </g>
          <g id="Grupo_15449" data-name="Grupo 15449">
            <path id="Trazado_26073" data-name="Trazado 26073" d="M247,178a1,1,0,0,1-.516-1.857l10-6a1,1,0,0,1,1.03,1.714l-10,6A1,1,0,0,1,247,178Z" fill="#fd6764"/>
          </g>
        </g>
        <g id="Grupo_15454" data-name="Grupo 15454">
          <g id="Grupo_15451" data-name="Grupo 15451">
            <path id="Trazado_26074" data-name="Trazado 26074" d="M274,181a1,1,0,0,1-1-1V168a1,1,0,0,1,2,0v12A1,1,0,0,1,274,181Z" fill="#fd6764"/>
          </g>
          <g id="Grupo_15452" data-name="Grupo 15452">
            <path id="Trazado_26075" data-name="Trazado 26075" d="M279,178a.994.994,0,0,1-.514-.143l-10-6a1,1,0,0,1,1.03-1.714l10,6A1,1,0,0,1,279,178Z" fill="#fd6764"/>
          </g>
          <g id="Grupo_15453" data-name="Grupo 15453">
            <path id="Trazado_26076" data-name="Trazado 26076" d="M269,178a1,1,0,0,1-.516-1.857l10-6a1,1,0,0,1,1.03,1.714l-10,6A1,1,0,0,1,269,178Z" fill="#fd6764"/>
          </g>
        </g>
        <g id="Grupo_15458" data-name="Grupo 15458">
          <g id="Grupo_15455" data-name="Grupo 15455">
            <path id="Trazado_26077" data-name="Trazado 26077" d="M296,181a1,1,0,0,1-1-1V168a1,1,0,0,1,2,0v12A1,1,0,0,1,296,181Z" fill="#fd6764"/>
          </g>
          <g id="Grupo_15456" data-name="Grupo 15456">
            <path id="Trazado_26078" data-name="Trazado 26078" d="M301,178a.994.994,0,0,1-.514-.143l-10-6a1,1,0,0,1,1.03-1.714l10,6A1,1,0,0,1,301,178Z" fill="#fd6764"/>
          </g>
          <g id="Grupo_15457" data-name="Grupo 15457">
            <path id="Trazado_26079" data-name="Trazado 26079" d="M291,178a1,1,0,0,1-.516-1.857l10-6a1,1,0,0,1,1.03,1.714l-10,6A1,1,0,0,1,291,178Z" fill="#fd6764"/>
          </g>
        </g>
      </g>
      <g id="Grupo_15465" data-name="Grupo 15465">
        <g id="Grupo_15460" data-name="Grupo 15460">
          <path id="Trazado_26080" data-name="Trazado 26080" d="M130,184H118a1,1,0,0,1-1-1V165a1,1,0,0,1,1-1h12a1,1,0,0,1,1,1v18A1,1,0,0,1,130,184Zm-11-2h10V166H119Z" fill="#21b1b9"/>
        </g>
        <g id="Grupo_15461" data-name="Grupo 15461">
          <path id="Trazado_26081" data-name="Trazado 26081" d="M156,175H130a1,1,0,0,1,0-2h26a1,1,0,0,1,0,2Z" fill="#21b1b9"/>
        </g>
        <g id="Grupo_15462" data-name="Grupo 15462">
          <path id="Trazado_26082" data-name="Trazado 26082" d="M156,180a1,1,0,0,1-1-1v-5a1,1,0,0,1,2,0v5A1,1,0,0,1,156,180Z" fill="#21b1b9"/>
        </g>
        <g id="Grupo_15463" data-name="Grupo 15463">
          <path id="Trazado_26083" data-name="Trazado 26083" d="M151,178a1,1,0,0,1-1-1v-3a1,1,0,0,1,2,0v3A1,1,0,0,1,151,178Z" fill="#21b1b9"/>
        </g>
        <g id="Grupo_15464" data-name="Grupo 15464">
          <path id="Trazado_26084" data-name="Trazado 26084" d="M146,180a1,1,0,0,1-1-1v-5a1,1,0,0,1,2,0v5A1,1,0,0,1,146,180Z" fill="#21b1b9"/>
        </g>
      </g>
      <g id="Grupo_15466" data-name="Grupo 15466">
        <path id="Trazado_26085" data-name="Trazado 26085" d="M169,187a1,1,0,0,1-1-1V162a1,1,0,0,1,2,0v24A1,1,0,0,1,169,187Z" fill="#21b1b9"/>
      </g>
    </g>
    <g id="Grupo_15468" data-name="Grupo 15468" transform="translate(988 1463)">
      <path id="Rectángulo_2852" data-name="Rectángulo 2852" d="M2,0H84a2,2,0,0,1,2,2V40A42,42,0,0,1,44,82H42A42,42,0,0,1,0,40V2A2,2,0,0,1,2,0Z" transform="translate(101 304)" fill="none" stroke="#707070" stroke-width="1"/>
      <path id="Trazado_26086" data-name="Trazado 26086" d="M145,387h-2a43.049,43.049,0,0,1-43-43V306a3,3,0,0,1,3-3h82a3,3,0,0,1,3,3v38A43.049,43.049,0,0,1,145,387Zm-42-82a1,1,0,0,0-1,1v38a41.047,41.047,0,0,0,41,41h2a41.047,41.047,0,0,0,41-41V306a1,1,0,0,0-1-1Z" fill="#21b1b9"/>
    </g>
    <g id="Grupo_15469" data-name="Grupo 15469" transform="translate(988 1463)">
      <path id="Trazado_26088" data-name="Trazado 26088" d="M178,305H166a1,1,0,0,1-1-1V287.478A18.5,18.5,0,0,0,146.522,269h-5.044A18.5,18.5,0,0,0,123,287.478V304a1,1,0,0,1-1,1H110a1,1,0,0,1-1-1V287.478A32.514,32.514,0,0,1,141.478,255h5.044A32.514,32.514,0,0,1,179,287.478V304A1,1,0,0,1,178,305Zm-11-2h10V287.478A30.512,30.512,0,0,0,146.522,257h-5.044A30.512,30.512,0,0,0,111,287.478V303h10V287.478A20.5,20.5,0,0,1,141.478,267h5.044A20.5,20.5,0,0,1,167,287.478Z" fill="#21b1b9"/>
    </g>
    <g id="Grupo_15470" data-name="Grupo 15470" transform="translate(988 1463)">
      <path id="Trazado_26090" data-name="Trazado 26090" d="M149,359H139a1,1,0,0,1-1-1V345a9.979,9.979,0,0,1-4-8.072A10.081,10.081,0,0,1,143.717,327,10,10,0,0,1,150,345v13A1,1,0,0,1,149,359Zm-9-2h8V344.482a1,1,0,0,1,.443-.831,8,8,0,1,0-8.887,0,1,1,0,0,1,.444.831Z" fill="#21b1b9"/>
    </g>
  </g>
</svg>
