<svg xmlns="http://www.w3.org/2000/svg" width="208.236" height="38.661" viewBox="0 0 208.236 38.661">
  <g id="Grupo_15677" data-name="Grupo 15677" transform="translate(-651.823 -281.077)">
    <g id="Grupo_15588" data-name="Grupo 15588">
      <g id="Grupo_15587" data-name="Grupo 15587">
        <g id="Grupo_15586" data-name="Grupo 15586">
          <path id="Trazado_26125" data-name="Trazado 26125" d="M854.033,319.738H689.483a1,1,0,0,1-1-1V282.077a1,1,0,0,1,1-1h164.55a6.033,6.033,0,0,1,6.026,6.026v26.608A6.033,6.033,0,0,1,854.033,319.738Zm-163.55-2h163.55a4.032,4.032,0,0,0,4.026-4.027V287.1a4.032,4.032,0,0,0-4.026-4.026H690.483Z" fill="#21b1b9"/>
        </g>
      </g>
    </g>
    <g id="Grupo_15601" data-name="Grupo 15601">
      <g id="Grupo_15591" data-name="Grupo 15591">
        <g id="Grupo_15590" data-name="Grupo 15590">
          <g id="Grupo_15589" data-name="Grupo 15589">
            <path id="Trazado_26126" data-name="Trazado 26126" d="M709.122,306.55a1,1,0,0,1-1-1V295.01a1,1,0,0,1,2,0v10.54A1,1,0,0,1,709.122,306.55Z" fill="#21b1b9"/>
          </g>
        </g>
      </g>
      <g id="Grupo_15594" data-name="Grupo 15594">
        <g id="Grupo_15593" data-name="Grupo 15593">
          <g id="Grupo_15592" data-name="Grupo 15592">
            <path id="Trazado_26127" data-name="Trazado 26127" d="M705.4,305.006a1,1,0,0,1-.707-1.707l7.452-7.453a1,1,0,0,1,1.414,1.415l-7.452,7.452A.993.993,0,0,1,705.4,305.006Z" fill="#21b1b9"/>
          </g>
        </g>
      </g>
      <g id="Grupo_15597" data-name="Grupo 15597">
        <g id="Grupo_15596" data-name="Grupo 15596">
          <g id="Grupo_15595" data-name="Grupo 15595">
            <path id="Trazado_26128" data-name="Trazado 26128" d="M714.392,301.28h-10.54a1,1,0,0,1,0-2h10.54a1,1,0,0,1,0,2Z" fill="#21b1b9"/>
          </g>
        </g>
      </g>
      <g id="Grupo_15600" data-name="Grupo 15600">
        <g id="Grupo_15599" data-name="Grupo 15599">
          <g id="Grupo_15598" data-name="Grupo 15598">
            <path id="Trazado_26129" data-name="Trazado 26129" d="M712.848,305.006a.993.993,0,0,1-.707-.293l-7.452-7.452a1,1,0,0,1,1.414-1.415l7.452,7.453a1,1,0,0,1-.707,1.707Z" fill="#21b1b9"/>
          </g>
        </g>
      </g>
    </g>
    <g id="Grupo_15614" data-name="Grupo 15614">
      <g id="Grupo_15604" data-name="Grupo 15604">
        <g id="Grupo_15603" data-name="Grupo 15603">
          <g id="Grupo_15602" data-name="Grupo 15602">
            <path id="Trazado_26130" data-name="Trazado 26130" d="M734.785,306.55a1,1,0,0,1-1-1V295.01a1,1,0,0,1,2,0v10.54A1,1,0,0,1,734.785,306.55Z" fill="#21b1b9"/>
          </g>
        </g>
      </g>
      <g id="Grupo_15607" data-name="Grupo 15607">
        <g id="Grupo_15606" data-name="Grupo 15606">
          <g id="Grupo_15605" data-name="Grupo 15605">
            <path id="Trazado_26131" data-name="Trazado 26131" d="M731.058,305.006a1,1,0,0,1-.707-1.707l7.452-7.453a1,1,0,0,1,1.414,1.415l-7.452,7.452A.993.993,0,0,1,731.058,305.006Z" fill="#21b1b9"/>
          </g>
        </g>
      </g>
      <g id="Grupo_15610" data-name="Grupo 15610">
        <g id="Grupo_15609" data-name="Grupo 15609">
          <g id="Grupo_15608" data-name="Grupo 15608">
            <path id="Trazado_26132" data-name="Trazado 26132" d="M740.054,301.28h-10.54a1,1,0,0,1,0-2h10.54a1,1,0,0,1,0,2Z" fill="#21b1b9"/>
          </g>
        </g>
      </g>
      <g id="Grupo_15613" data-name="Grupo 15613">
        <g id="Grupo_15612" data-name="Grupo 15612">
          <g id="Grupo_15611" data-name="Grupo 15611">
            <path id="Trazado_26133" data-name="Trazado 26133" d="M738.51,305.006a.993.993,0,0,1-.707-.293l-7.452-7.452a1,1,0,0,1,1.414-1.415l7.452,7.453a1,1,0,0,1-.707,1.707Z" fill="#21b1b9"/>
          </g>
        </g>
      </g>
    </g>
    <g id="Grupo_15627" data-name="Grupo 15627">
      <g id="Grupo_15617" data-name="Grupo 15617">
        <g id="Grupo_15616" data-name="Grupo 15616">
          <g id="Grupo_15615" data-name="Grupo 15615">
            <path id="Trazado_26134" data-name="Trazado 26134" d="M760.447,306.55a1,1,0,0,1-1-1V295.01a1,1,0,0,1,2,0v10.54A1,1,0,0,1,760.447,306.55Z" fill="#21b1b9"/>
          </g>
        </g>
      </g>
      <g id="Grupo_15620" data-name="Grupo 15620">
        <g id="Grupo_15619" data-name="Grupo 15619">
          <g id="Grupo_15618" data-name="Grupo 15618">
            <path id="Trazado_26135" data-name="Trazado 26135" d="M756.72,305.006a1,1,0,0,1-.707-1.707l7.453-7.453a1,1,0,0,1,1.414,1.415l-7.453,7.452A.993.993,0,0,1,756.72,305.006Z" fill="#21b1b9"/>
          </g>
        </g>
      </g>
      <g id="Grupo_15623" data-name="Grupo 15623">
        <g id="Grupo_15622" data-name="Grupo 15622">
          <g id="Grupo_15621" data-name="Grupo 15621">
            <path id="Trazado_26136" data-name="Trazado 26136" d="M765.716,301.28h-10.54a1,1,0,0,1,0-2h10.54a1,1,0,0,1,0,2Z" fill="#21b1b9"/>
          </g>
        </g>
      </g>
      <g id="Grupo_15626" data-name="Grupo 15626">
        <g id="Grupo_15625" data-name="Grupo 15625">
          <g id="Grupo_15624" data-name="Grupo 15624">
            <path id="Trazado_26137" data-name="Trazado 26137" d="M764.173,305.006a.993.993,0,0,1-.707-.293l-7.453-7.452a1,1,0,0,1,1.414-1.415l7.453,7.453a1,1,0,0,1-.707,1.707Z" fill="#21b1b9"/>
          </g>
        </g>
      </g>
    </g>
    <g id="Grupo_15640" data-name="Grupo 15640">
      <g id="Grupo_15630" data-name="Grupo 15630">
        <g id="Grupo_15629" data-name="Grupo 15629">
          <g id="Grupo_15628" data-name="Grupo 15628">
            <path id="Trazado_26138" data-name="Trazado 26138" d="M786.109,306.55a1,1,0,0,1-1-1V295.01a1,1,0,0,1,2,0v10.54A1,1,0,0,1,786.109,306.55Z" fill="#21b1b9"/>
          </g>
        </g>
      </g>
      <g id="Grupo_15633" data-name="Grupo 15633">
        <g id="Grupo_15632" data-name="Grupo 15632">
          <g id="Grupo_15631" data-name="Grupo 15631">
            <path id="Trazado_26139" data-name="Trazado 26139" d="M782.382,305.006a1,1,0,0,1-.707-1.707l7.453-7.453a1,1,0,0,1,1.414,1.415l-7.453,7.452A.993.993,0,0,1,782.382,305.006Z" fill="#21b1b9"/>
          </g>
        </g>
      </g>
      <g id="Grupo_15636" data-name="Grupo 15636">
        <g id="Grupo_15635" data-name="Grupo 15635">
          <g id="Grupo_15634" data-name="Grupo 15634">
            <path id="Trazado_26140" data-name="Trazado 26140" d="M791.378,301.28h-10.54a1,1,0,0,1,0-2h10.54a1,1,0,0,1,0,2Z" fill="#21b1b9"/>
          </g>
        </g>
      </g>
      <g id="Grupo_15639" data-name="Grupo 15639">
        <g id="Grupo_15638" data-name="Grupo 15638">
          <g id="Grupo_15637" data-name="Grupo 15637">
            <path id="Trazado_26141" data-name="Trazado 26141" d="M789.835,305.006a1,1,0,0,1-.707-.293l-7.453-7.452a1,1,0,0,1,1.414-1.415l7.453,7.453a1,1,0,0,1-.707,1.707Z" fill="#21b1b9"/>
          </g>
        </g>
      </g>
    </g>
    <g id="Grupo_15653" data-name="Grupo 15653">
      <g id="Grupo_15643" data-name="Grupo 15643">
        <g id="Grupo_15642" data-name="Grupo 15642">
          <g id="Grupo_15641" data-name="Grupo 15641">
            <path id="Trazado_26142" data-name="Trazado 26142" d="M811.771,306.55a1,1,0,0,1-1-1V295.01a1,1,0,0,1,2,0v10.54A1,1,0,0,1,811.771,306.55Z" fill="#21b1b9"/>
          </g>
        </g>
      </g>
      <g id="Grupo_15646" data-name="Grupo 15646">
        <g id="Grupo_15645" data-name="Grupo 15645">
          <g id="Grupo_15644" data-name="Grupo 15644">
            <path id="Trazado_26143" data-name="Trazado 26143" d="M808.044,305.006a1,1,0,0,1-.707-1.707l7.453-7.453a1,1,0,0,1,1.414,1.415l-7.453,7.452A.993.993,0,0,1,808.044,305.006Z" fill="#21b1b9"/>
          </g>
        </g>
      </g>
      <g id="Grupo_15649" data-name="Grupo 15649">
        <g id="Grupo_15648" data-name="Grupo 15648">
          <g id="Grupo_15647" data-name="Grupo 15647">
            <path id="Trazado_26144" data-name="Trazado 26144" d="M817.04,301.28H806.5a1,1,0,0,1,0-2H817.04a1,1,0,0,1,0,2Z" fill="#21b1b9"/>
          </g>
        </g>
      </g>
      <g id="Grupo_15652" data-name="Grupo 15652">
        <g id="Grupo_15651" data-name="Grupo 15651">
          <g id="Grupo_15650" data-name="Grupo 15650">
            <path id="Trazado_26145" data-name="Trazado 26145" d="M815.5,305.006a1,1,0,0,1-.707-.293l-7.453-7.452a1,1,0,0,1,1.414-1.415L816.2,303.3a1,1,0,0,1-.707,1.707Z" fill="#21b1b9"/>
          </g>
        </g>
      </g>
    </g>
    <g id="Grupo_15666" data-name="Grupo 15666">
      <g id="Grupo_15656" data-name="Grupo 15656">
        <g id="Grupo_15655" data-name="Grupo 15655">
          <g id="Grupo_15654" data-name="Grupo 15654">
            <path id="Trazado_26146" data-name="Trazado 26146" d="M837.433,306.55a1,1,0,0,1-1-1V295.01a1,1,0,0,1,2,0v10.54A1,1,0,0,1,837.433,306.55Z" fill="#21b1b9"/>
          </g>
        </g>
      </g>
      <g id="Grupo_15659" data-name="Grupo 15659">
        <g id="Grupo_15658" data-name="Grupo 15658">
          <g id="Grupo_15657" data-name="Grupo 15657">
            <path id="Trazado_26147" data-name="Trazado 26147" d="M833.706,305.006A1,1,0,0,1,833,303.3l7.454-7.453a1,1,0,0,1,1.414,1.415l-7.454,7.452A.993.993,0,0,1,833.706,305.006Z" fill="#21b1b9"/>
          </g>
        </g>
      </g>
      <g id="Grupo_15662" data-name="Grupo 15662">
        <g id="Grupo_15661" data-name="Grupo 15661">
          <g id="Grupo_15660" data-name="Grupo 15660">
            <path id="Trazado_26148" data-name="Trazado 26148" d="M842.7,301.28h-10.54a1,1,0,0,1,0-2H842.7a1,1,0,0,1,0,2Z" fill="#21b1b9"/>
          </g>
        </g>
      </g>
      <g id="Grupo_15665" data-name="Grupo 15665">
        <g id="Grupo_15664" data-name="Grupo 15664">
          <g id="Grupo_15663" data-name="Grupo 15663">
            <path id="Trazado_26149" data-name="Trazado 26149" d="M841.16,305.006a.993.993,0,0,1-.707-.293L833,297.261a1,1,0,0,1,1.414-1.415l7.454,7.453a1,1,0,0,1-.707,1.707Z" fill="#21b1b9"/>
          </g>
        </g>
      </g>
    </g>
    <g id="Grupo_15671" data-name="Grupo 15671">
      <g id="Grupo_15668" data-name="Grupo 15668">
        <g id="Grupo_15667" data-name="Grupo 15667">
          <path id="Rectángulo_2860" data-name="Rectángulo 2860" d="M4,0H36.66a0,0,0,0,1,0,0V36.66a0,0,0,0,1,0,0H4a4,4,0,0,1-4-4V4A4,4,0,0,1,4,0Z" transform="translate(652.822 282.077)" fill="#06233e"/>
        </g>
      </g>
      <g id="Grupo_15670" data-name="Grupo 15670">
        <g id="Grupo_15669" data-name="Grupo 15669">
          <path id="Trazado_26150" data-name="Trazado 26150" d="M689.483,319.738h-32.66a5.006,5.006,0,0,1-5-5V286.077a5.006,5.006,0,0,1,5-5h32.66a1,1,0,0,1,1,1v36.661A1,1,0,0,1,689.483,319.738Zm-32.66-36.661a3,3,0,0,0-3,3v28.661a3,3,0,0,0,3,3h31.66V283.077Z" fill="#21b1b9"/>
        </g>
      </g>
    </g>
    <g id="Grupo_15676" data-name="Grupo 15676">
      <g id="Grupo_15673" data-name="Grupo 15673">
        <g id="Grupo_15672" data-name="Grupo 15672">
          <circle id="Elipse_782" data-name="Elipse 782" cx="6.044" cy="6.044" r="6.044" transform="translate(665.108 294.363)" fill="#fff"/>
        </g>
      </g>
      <g id="Grupo_15675" data-name="Grupo 15675">
        <g id="Grupo_15674" data-name="Grupo 15674">
          <path id="Trazado_26151" data-name="Trazado 26151" d="M671.153,307.452a7.044,7.044,0,1,1,7.044-7.044A7.052,7.052,0,0,1,671.153,307.452Zm0-12.089a5.044,5.044,0,1,0,5.044,5.045A5.05,5.05,0,0,0,671.153,295.363Z" fill="#21b1b9"/>
        </g>
      </g>
    </g>
  </g>
</svg>
