<svg xmlns="http://www.w3.org/2000/svg" width="178.443" height="189.261" viewBox="0 0 178.443 189.261">
  <g id="Grupo_15505" data-name="Grupo 15505" transform="translate(-658.941 -682.609)">
    <g id="Grupo_15480" data-name="Grupo 15480" transform="translate(658.941 693.427)">
      <g id="Grupo_15477" data-name="Grupo 15477" transform="translate(1.512 1.511)">
        <g id="Grupo_15476" data-name="Grupo 15476">
          <circle id="Elipse_781" data-name="Elipse 781" cx="87.709" cy="87.709" r="87.709" fill="none"/>
        </g>
      </g>
      <g id="Grupo_15479" data-name="Grupo 15479">
        <g id="Grupo_15478" data-name="Grupo 15478">
          <path id="Trazado_26092" data-name="Trazado 26092" d="M748.162,868.206a89.221,89.221,0,1,1,89.221-89.221A89.321,89.321,0,0,1,748.162,868.206Zm0-175.418a86.2,86.2,0,1,0,86.2,86.2A86.294,86.294,0,0,0,748.162,692.787Z" transform="translate(-658.941 -689.763)" fill="#21b1b9"/>
        </g>
      </g>
    </g>
    <g id="Grupo_15485" data-name="Grupo 15485" transform="translate(690.698 682.609)">
      <g id="Grupo_15482" data-name="Grupo 15482" transform="translate(1.512 1.512)">
        <g id="Grupo_15481" data-name="Grupo 15481">
          <path id="Trazado_26093" data-name="Trazado 26093" d="M762.6,825.758H680.941V683.609h111.9v111.9Z" transform="translate(-680.941 -683.609)" fill="#06233e"/>
        </g>
      </g>
      <g id="Grupo_15484" data-name="Grupo 15484">
        <g id="Grupo_15483" data-name="Grupo 15483">
          <path id="Trazado_26094" data-name="Trazado 26094" d="M763.115,827.783H681.453a1.511,1.511,0,0,1-1.512-1.512V684.121a1.511,1.511,0,0,1,1.512-1.512h111.9a1.512,1.512,0,0,1,1.512,1.512v111.9a1.512,1.512,0,0,1-.443,1.069L764.184,827.34A1.51,1.51,0,0,1,763.115,827.783Zm-80.15-3.025h79.524l29.357-29.36V685.633H682.965Z" transform="translate(-679.941 -682.609)" fill="#21b1b9"/>
        </g>
      </g>
    </g>
    <g id="Grupo_15490" data-name="Grupo 15490" transform="translate(772.358 794.514)">
      <g id="Grupo_15487" data-name="Grupo 15487" transform="translate(1.512 1.512)">
        <g id="Grupo_15486" data-name="Grupo 15486">
          <path id="Trazado_26095" data-name="Trazado 26095" d="M734.941,757.609h30.245l-30.245,30.245Z" transform="translate(-734.941 -757.609)" fill="#fff"/>
        </g>
      </g>
      <g id="Grupo_15489" data-name="Grupo 15489">
        <g id="Grupo_15488" data-name="Grupo 15488">
          <path id="Trazado_26096" data-name="Trazado 26096" d="M735.453,789.878a1.492,1.492,0,0,1-.579-.115,1.509,1.509,0,0,1-.933-1.4V758.121a1.511,1.511,0,0,1,1.512-1.512H765.7a1.513,1.513,0,0,1,1.069,2.581l-30.245,30.245A1.512,1.512,0,0,1,735.453,789.878Zm1.512-30.245v25.082l25.082-25.082Z" transform="translate(-733.941 -756.609)" fill="#21b1b9"/>
        </g>
      </g>
    </g>
    <g id="Grupo_15504" data-name="Grupo 15504" transform="translate(728.129 718.332)">
      <g id="Grupo_15495" data-name="Grupo 15495" transform="translate(6.049 0)">
        <g id="Grupo_15492" data-name="Grupo 15492" transform="translate(0)">
          <g id="Grupo_15491" data-name="Grupo 15491">
            <path id="Trazado_26097" data-name="Trazado 26097" d="M723.815,706.232h-3.024a12.1,12.1,0,0,0-12.1,12.1v15.122h6.049V718.328a6.055,6.055,0,0,1,6.049-6.049h3.024a6.055,6.055,0,0,1,6.049,6.049v15.124h6.049V718.33A12.1,12.1,0,0,0,723.815,706.232Z" transform="translate(-708.693 -706.232)" fill="#fd6764"/>
          </g>
        </g>
      </g>
      <g id="Grupo_15500" data-name="Grupo 15500" transform="translate(0 22.683)">
        <g id="Grupo_15497" data-name="Grupo 15497" transform="translate(0 0)">
          <g id="Grupo_15496" data-name="Grupo 15496">
            <path id="Rectángulo_2853" data-name="Rectángulo 2853" d="M0,0H39.318a0,0,0,0,1,0,0V26.781a8,8,0,0,1-8,8H8a8,8,0,0,1-8-8V0A0,0,0,0,1,0,0Z" fill="#fd6764"/>
          </g>
        </g>
      </g>
      <g id="Grupo_15503" data-name="Grupo 15503" transform="translate(15.122 33.788)">
        <g id="Grupo_15502" data-name="Grupo 15502">
          <g id="Grupo_15501" data-name="Grupo 15501">
            <path id="Trazado_26100" data-name="Trazado 26100" d="M719.23,740.673a4.542,4.542,0,0,1-4.537-4.537v-3.024a4.537,4.537,0,1,1,9.073,0v3.024A4.541,4.541,0,0,1,719.23,740.673Zm0-9.073a1.514,1.514,0,0,0-1.512,1.512v3.024a1.512,1.512,0,1,0,3.024,0v-3.024A1.513,1.513,0,0,0,719.23,731.6Z" transform="translate(-714.693 -728.575)" fill="#06233e"/>
          </g>
        </g>
      </g>
    </g>
  </g>
</svg>
