<svg xmlns="http://www.w3.org/2000/svg" width="153.311" height="156.47" viewBox="0 0 153.311 156.47">
  <g id="Grupo_15741" data-name="Grupo 15741" transform="translate(-288.63 -410.932)">
    <path id="Trazado_26210" data-name="Trazado 26210" d="M354.64,410.932A58.555,58.555,0,0,0,297.787,483.5l28.631-21.474h-5.092l8.549-33.5c1.133-3.508,5.514-5.5,9.646-4.369l9.735,2.655,7.724,2.121c3.992-2.844,7.228-4.19,9.432-4.552,4.32-.7,7.714.647,8.9,4.231l9.662,33.417h5.092L411.5,483.463a58.562,58.562,0,0,0-56.864-72.531Z" transform="translate(9.408)" fill="#21b1b9"/>
    <path id="Trazado_26211" data-name="Trazado 26211" d="M348.379,515.215l-37.6-17.821,10.005-15.038L290,468.883c4.837-9.544,16.93-25.084,32.737-33.437" transform="translate(0 37.895)" fill="none" stroke="#21b1b9" stroke-miterlimit="10" stroke-width="2"/>
    <path id="Trazado_26212" data-name="Trazado 26212" d="M363.659,457.953c-28.936,20.255-45.1,56.238-47.355,71.513h2.816l57.821-27.223-10.377-16.125,33.368-15.1c-5.1-10.563-19.2-27.157-35.789-36.187" transform="translate(40.662 36.936)" fill="none" stroke="#21b1b9" stroke-miterlimit="10" stroke-width="2"/>
    <path id="Trazado_26213" data-name="Trazado 26213" d="M306,454.188l8.549-33.5c1.133-3.508,5.514-5.5,9.646-4.369l9.735,2.655" transform="translate(24.734 7.834)" fill="none" stroke="#21b1b9" stroke-miterlimit="10" stroke-width="2"/>
    <path id="Trazado_26214" data-name="Trazado 26214" d="M316.7,428.187c7.895-8.055,14.241-11.278,17.841-11.866,4.32-.7,7.714.647,8.9,4.231l9.662,33.417" transform="translate(41.277 8.053)" fill="none" stroke="#21b1b9" stroke-miterlimit="10" stroke-width="2"/>
    <line id="Línea_72" data-name="Línea 72" x2="99.288" transform="translate(312.913 462.022)" fill="none" stroke="#21b1b9" stroke-miterlimit="10" stroke-width="2"/>
    <path id="Trazado_26215" data-name="Trazado 26215" d="M344.642,474.55H333.165a11.063,11.063,0,0,1-6.769-2.307l-13.053-10.993A11.416,11.416,0,0,1,309,452.434V444" transform="translate(29.371 51.118)" fill="none" stroke="#21b1b9" stroke-miterlimit="10" stroke-width="2"/>
    <path id="Trazado_26216" data-name="Trazado 26216" d="M327.183,438.549,322.092,436,317,438.549" transform="translate(41.738 38.756)" fill="none" stroke="#fd6764" stroke-miterlimit="10" stroke-width="2"/>
    <path id="Trazado_26217" data-name="Trazado 26217" d="M309,435v6.372A10.184,10.184,0,1,0,327.068,435Z" transform="translate(29.371 37.205)" fill="none" stroke="#fd6764" stroke-miterlimit="10" stroke-width="2"/>
    <path id="Trazado_26218" data-name="Trazado 26218" d="M341.367,435v6.372A10.184,10.184,0,1,1,323.3,435Z" transform="translate(47.921 37.205)" fill="none" stroke="#fd6764" stroke-miterlimit="10" stroke-width="2"/>
  </g>
</svg>
