<svg xmlns="http://www.w3.org/2000/svg" width="73.5" height="68.428" viewBox="0 0 73.5 68.428">
  <g id="Grupo_15682" data-name="Grupo 15682" transform="translate(-73 -415.019)">
    <path id="Trazado_26162" data-name="Trazado 26162" d="M107.893,421h17.924c.706,5.071,4.9,8.415,9.969,9.121v25.554c0,13.67-24.4,25.433-27.893,25.433S80,469.345,80,455.675V430.121c5.071-.706,9.263-4.05,9.969-9.121Z" transform="translate(1.607 1.339)" fill="#06233e" stroke="#21b1b9" stroke-miterlimit="10" stroke-width="2"/>
    <path id="Trazado_26163" data-name="Trazado 26163" d="M133.422,439v11.854c0,8.616-5.6,16.865-16.2,24.38" transform="translate(11.578 6.161)" fill="none" stroke="#21b1b9" stroke-miterlimit="10" stroke-width="2"/>
    <line id="Línea_47" data-name="Línea 47" x2="10" transform="translate(118.5 416.019)" fill="none" stroke="#21b1b9" stroke-miterlimit="10" stroke-width="2"/>
    <line id="Línea_48" data-name="Línea 48" x2="10" transform="translate(90.5 416.019)" fill="none" stroke="#21b1b9" stroke-miterlimit="10" stroke-width="2"/>
    <path id="Trazado_26164" data-name="Trazado 26164" d="M90.2,475.234C79.6,467.72,74,459.471,74,450.854V439" transform="translate(0 6.161)" fill="none" stroke="#21b1b9" stroke-miterlimit="10" stroke-width="2"/>
    <path id="Trazado_26165" data-name="Trazado 26165" d="M123.525,447.307a18.516,18.516,0,1,1-11.917-17.32" transform="translate(3.336 3.421)" fill="none" stroke="#21b1b9" stroke-miterlimit="10" stroke-width="2"/>
    <path id="Trazado_26166" data-name="Trazado 26166" d="M121.358,428.869l-11.967,11.967-4.743,4.743-6.963-6.963-5.57,5.57,12.533,12.533,22.281-22.28Z" transform="translate(4.852 3.447)" fill="#06233e" stroke="#21b1b9" stroke-miterlimit="10" stroke-width="2"/>
    <line id="Línea_49" data-name="Línea 49" y2="2" transform="translate(145.5 430.019)" fill="none" stroke="#21b1b9" stroke-miterlimit="10" stroke-width="2"/>
    <line id="Línea_50" data-name="Línea 50" y2="3" transform="translate(145.5 435.019)" fill="none" stroke="#21b1b9" stroke-miterlimit="10" stroke-width="2"/>
    <line id="Línea_51" data-name="Línea 51" y2="3" transform="translate(145.5 440.019)" fill="none" stroke="#21b1b9" stroke-miterlimit="10" stroke-width="2"/>
    <line id="Línea_52" data-name="Línea 52" y2="2" transform="translate(74.5 430.019)" fill="none" stroke="#21b1b9" stroke-miterlimit="10" stroke-width="2"/>
    <line id="Línea_53" data-name="Línea 53" y2="3" transform="translate(74.5 435.019)" fill="none" stroke="#21b1b9" stroke-miterlimit="10" stroke-width="2"/>
    <line id="Línea_54" data-name="Línea 54" y2="3" transform="translate(74.5 440.019)" fill="none" stroke="#21b1b9" stroke-miterlimit="10" stroke-width="2"/>
    <line id="Línea_55" data-name="Línea 55" x2="2" transform="translate(108.5 416.019)" fill="none" stroke="#21b1b9" stroke-miterlimit="10" stroke-width="2"/>
    <line id="Línea_56" data-name="Línea 56" x2="2" transform="translate(103.5 416.019)" fill="none" stroke="#21b1b9" stroke-miterlimit="10" stroke-width="2"/>
    <line id="Línea_57" data-name="Línea 57" x2="2" transform="translate(113.5 416.019)" fill="none" stroke="#21b1b9" stroke-miterlimit="10" stroke-width="2"/>
  </g>
</svg>
