<svg xmlns="http://www.w3.org/2000/svg" width="61.987" height="61.985" viewBox="0 0 61.987 61.985">
  <g id="Grupo_15716" data-name="Grupo 15716" transform="translate(-5 -5.001)">
    <path id="Trazado_26186" data-name="Trazado 26186" d="M35.2,53.034a1.38,1.38,0,0,0-.671,1.833,7.888,7.888,0,0,1-1.557,8.871L21.685,75.03a7.873,7.873,0,0,1-11.1,0l-.541-.541a7.875,7.875,0,0,1,0-11.1L21.339,52.1a7.886,7.886,0,0,1,8.87-1.557,1.379,1.379,0,1,0,1.161-2.5,10.656,10.656,0,0,0-11.982,2.109L8.1,61.441a10.633,10.633,0,0,0,0,15l.541.541a10.633,10.633,0,0,0,15,0L34.929,65.689A10.658,10.658,0,0,0,37.038,53.7,1.383,1.383,0,0,0,35.2,53.034Z" transform="translate(0 -13.089)" fill="#21b1b9"/>
    <path id="Trazado_26187" data-name="Trazado 26187" d="M76.98,8.637,76.439,8.1a10.632,10.632,0,0,0-15,0L50.148,19.387a10.658,10.658,0,0,0-2.11,11.982,1.379,1.379,0,0,0,2.5-1.161A7.89,7.89,0,0,1,52.1,21.338L63.391,10.046a7.873,7.873,0,0,1,11.1,0l.541.541a7.875,7.875,0,0,1,0,11.1L63.737,32.978a7.885,7.885,0,0,1-8.87,1.557,1.379,1.379,0,1,0-1.162,2.5,10.657,10.657,0,0,0,11.983-2.109L76.981,23.636a10.63,10.63,0,0,0,0-15Z" transform="translate(-13.09 0)" fill="#21b1b9"/>
    <path id="Trazado_26188" data-name="Trazado 26188" d="M27.089,58.4a1.378,1.378,0,0,0,1.951,0L58.4,29.039a1.38,1.38,0,1,0-1.951-1.951L27.089,56.446A1.378,1.378,0,0,0,27.089,58.4Z" transform="translate(-6.75 -6.749)" fill="#21b1b9"/>
  </g>
</svg>
