<svg xmlns="http://www.w3.org/2000/svg" width="52.801" height="97.166" viewBox="0 0 52.801 97.166">
  <g id="Grupo_15719" data-name="Grupo 15719" transform="translate(-488 -6138)">
    <path id="Trazado_26195" data-name="Trazado 26195" d="M74.4,24.524V8.917a7.509,7.509,0,0,0-7.5-7.5H31.1a7.508,7.508,0,0,0-7.5,7.5v9a1.5,1.5,0,0,0,1.5,1.5H71.4V74.083a1.5,1.5,0,0,0,3,0v-38.1a2.5,2.5,0,0,0,2-2.45V26.973A2.5,2.5,0,0,0,74.4,24.524Zm-3-8.107H26.6v-7.5a4.505,4.505,0,0,1,4.5-4.5H66.9a4.506,4.506,0,0,1,4.5,4.5ZM49,93.733a4.17,4.17,0,1,0-4.17-4.17A4.175,4.175,0,0,0,49,93.733Zm0-5.339a1.17,1.17,0,1,1-1.17,1.17A1.17,1.17,0,0,1,49,88.394Zm23.9-7.811H26.6V25.917a1.5,1.5,0,0,0-3,0V91.083a7.508,7.508,0,0,0,7.5,7.5H66.9a7.509,7.509,0,0,0,7.5-7.5v-9A1.5,1.5,0,0,0,72.9,80.583Zm-1.5,10.5a4.506,4.506,0,0,1-4.5,4.5H31.1a4.505,4.505,0,0,1-4.5-4.5v-7.5H71.4Z" transform="translate(464.401 6136.583)" fill="#21b1b9"/>
    <g id="Grupo_15718" data-name="Grupo 15718" transform="translate(500.643 6171.889)">
      <g id="Grupo_15712" data-name="Grupo 15712">
        <g id="Grupo_15711" data-name="Grupo 15711">
          <path id="Trazado_26185" data-name="Trazado 26185" d="M322.107,366.849a11.554,11.554,0,0,1-11.541-11.541v-9.025a1.012,1.012,0,0,1,1.01-1.011h3.009a.5.5,0,0,0,.494-.494,7.028,7.028,0,0,1,14.055,0,.494.494,0,0,0,.494.494h3.008a1.012,1.012,0,0,1,1.011,1.011v9.025A11.553,11.553,0,0,1,322.107,366.849Zm-9.026-19.556a.494.494,0,0,0-.494.493v7.522a9.52,9.52,0,1,0,19.039,0v-7.522a.493.493,0,0,0-.493-.493Zm9.026-7.522a5.012,5.012,0,0,0-5.007,5.007.494.494,0,0,0,.493.494h9.026a.494.494,0,0,0,.494-.494A5.012,5.012,0,0,0,322.107,339.772Z" transform="translate(-310.566 -337.751)" fill="#21b1b9"/>
        </g>
      </g>
    </g>
    <g id="Elipse_793" data-name="Elipse 793" transform="translate(509 6186)" fill="#fff" stroke="#21b1b9" stroke-width="1">
      <circle cx="3" cy="3" r="3" stroke="none"/>
      <circle cx="3" cy="3" r="2.5" fill="none"/>
    </g>
  </g>
</svg>
